<svg viewBox="0 0 400 140" xmlns="http://www.w3.org/2000/svg" aria-hidden="true" focusable="false" preserveAspectRatio="xMidYMax meet">
  <g fill="#f05f40" fill-opacity="0.22">
    <rect x="6" y="86" width="16" height="32"/>
    <rect x="64" y="78" width="14" height="40"/>
    <rect x="140" y="74" width="20" height="44"/>
    <rect x="256" y="76" width="22" height="42"/>
    <rect x="358" y="80" width="18" height="38"/>
  </g>
  <g fill="#f05f40" fill-opacity="0.36">
    <rect x="24" y="68" width="18" height="50"/>
    <rect x="102" y="60" width="16" height="58"/>
    <rect x="180" y="54" width="14" height="64"/>
    <rect x="218" y="66" width="18" height="52"/>
    <rect x="318" y="68" width="20" height="50"/>
  </g>
  <g fill="#f05f40" fill-opacity="0.5">
    <path d="M0 118h400v22H0z"/>
    <rect x="46" y="50" width="16" height="68"/>
    <rect x="80" y="34" width="20" height="84"/>
    <rect x="86" y="22" width="8" height="14"/>
    <rect x="120" y="44" width="18" height="74"/>
    <rect x="162" y="28" width="16" height="90"/>
    <rect x="196" y="40" width="20" height="78"/>
    <rect x="202" y="28" width="8" height="14"/>
    <rect x="238" y="46" width="16" height="72"/>
    <rect x="280" y="32" width="18" height="86"/>
    <rect x="286" y="20" width="6" height="14"/>
    <rect x="340" y="48" width="16" height="70"/>
    <rect x="84" y="48" width="3" height="6" fill="#fff" fill-opacity="1"/>
    <rect x="92" y="48" width="3" height="6" fill="#fff" fill-opacity="1"/>
    <rect x="84" y="60" width="3" height="6" fill="#fff" fill-opacity="1"/>
    <rect x="92" y="60" width="3" height="6" fill="#fff" fill-opacity="1"/>
    <rect x="84" y="72" width="3" height="6" fill="#fff" fill-opacity="1"/>
    <rect x="92" y="72" width="3" height="6" fill="#fff" fill-opacity="1"/>
    <rect x="165" y="42" width="3" height="6" fill="#fff" fill-opacity="1"/>
    <rect x="172" y="42" width="3" height="6" fill="#fff" fill-opacity="1"/>
    <rect x="165" y="54" width="3" height="6" fill="#fff" fill-opacity="1"/>
    <rect x="172" y="54" width="3" height="6" fill="#fff" fill-opacity="1"/>
    <rect x="200" y="52" width="3" height="6" fill="#fff" fill-opacity="1"/>
    <rect x="208" y="52" width="3" height="6" fill="#fff" fill-opacity="1"/>
    <rect x="283" y="46" width="3" height="6" fill="#fff" fill-opacity="1"/>
    <rect x="290" y="46" width="3" height="6" fill="#fff" fill-opacity="1"/>
    <rect x="283" y="58" width="3" height="6" fill="#fff" fill-opacity="1"/>
    <rect x="290" y="58" width="3" height="6" fill="#fff" fill-opacity="1"/>
  </g>
</svg>
