<svg viewBox="0 0 400 140" xmlns="http://www.w3.org/2000/svg" aria-hidden="true" focusable="false" preserveAspectRatio="xMidYMax meet">
  <g fill="#f05f40" fill-opacity="0.22">
    <rect x="72" y="90" width="22" height="28"/>
    <rect x="216" y="72" width="18" height="46"/>
    <rect x="298" y="84" width="20" height="34"/>
  </g>
  <g fill="#f05f40" fill-opacity="0.36">
    <rect x="96" y="72" width="18" height="46"/>
    <rect x="134" y="66" width="20" height="52"/>
    <rect x="176" y="60" width="16" height="58"/>
    <rect x="254" y="76" width="24" height="42"/>
    <rect x="280" y="62" width="16" height="56"/>
  </g>
  <g fill="#f05f40" fill-opacity="0.5">
    <path d="M0 118h400v22H0z"/>
    <rect x="18" y="70" width="3" height="48"/>
    <path d="M19.5 72c-14-6-16 6-1 4c-12-16 6-20 2-2c12-14 16 2 1 2c12-8 16 8 1 2c10 8-2 12-3-6z"/>
    <rect x="116" y="50" width="16" height="68"/>
    <rect x="156" y="34" width="18" height="84"/>
    <rect x="162" y="22" width="6" height="14"/>
    <rect x="194" y="44" width="20" height="74"/>
    <rect x="236" y="50" width="16" height="68"/>
    <rect x="368" y="68" width="3" height="50"/>
    <path d="M369.5 70c-14-6-16 6-1 4c-12-16 6-20 2-2c12-14 16 2 1 2c12-8 16 8 1 2c10 8-2 12-3-6z"/>
    <rect x="119" y="62" width="3" height="5" fill="#fff" fill-opacity="1"/>
    <rect x="126" y="62" width="3" height="5" fill="#fff" fill-opacity="1"/>
    <rect x="119" y="72" width="3" height="5" fill="#fff" fill-opacity="1"/>
    <rect x="126" y="72" width="3" height="5" fill="#fff" fill-opacity="1"/>
    <rect x="160" y="48" width="3" height="6" fill="#fff" fill-opacity="1"/>
    <rect x="167" y="48" width="3" height="6" fill="#fff" fill-opacity="1"/>
    <rect x="160" y="60" width="3" height="6" fill="#fff" fill-opacity="1"/>
    <rect x="167" y="60" width="3" height="6" fill="#fff" fill-opacity="1"/>
    <rect x="198" y="56" width="3" height="5" fill="#fff" fill-opacity="1"/>
    <rect x="206" y="56" width="3" height="5" fill="#fff" fill-opacity="1"/>
    <rect x="198" y="66" width="3" height="5" fill="#fff" fill-opacity="1"/>
    <rect x="206" y="66" width="3" height="5" fill="#fff" fill-opacity="1"/>
  </g>
</svg>
