<?xml version="1.0" standalone="no"?>
<!DOCTYPE svg PUBLIC "-//W3C//DTD SVG 20010904//EN"
 "http://www.w3.org/TR/2001/REC-SVG-20010904/DTD/svg10.dtd">
<svg version="1.0" xmlns="http://www.w3.org/2000/svg"
 width="1520.000000pt" height="1520.000000pt" viewBox="0 0 1520.000000 1520.000000"
 preserveAspectRatio="xMidYMid meet">
<metadata>
Created by potrace 1.14, written by Peter Selinger 2001-2017
</metadata>
<g transform="translate(0.000000,1520.000000) scale(0.100000,-0.100000)"
fill="#000000" stroke="none">
<path d="M12658 14426 c-164 -33 -297 -64 -295 -67 3 -9 804 -669 811 -669 3
0 6 146 6 325 0 251 -3 333 -14 358 -26 64 -115 119 -186 116 -14 -1 -159 -29
-322 -63z"/>
<path d="M11737 14226 c-114 -27 -206 -53 -205 -57 2 -4 365 -306 808 -671
l805 -664 6 46 c3 25 10 122 14 216 l7 171 -593 489 c-326 269 -602 496 -614
505 -19 15 -35 12 -228 -35z"/>
<path d="M10950 14001 c-386 -136 -652 -248 -1010 -428 -424 -212 -635 -341
-1165 -713 -340 -238 -477 -346 -639 -501 l-117 -114 1947 -1605 c1071 -883
1951 -1606 1955 -1608 17 -7 184 263 288 463 62 120 308 677 398 900 175 435
316 923 417 1440 33 170 82 486 88 567 l2 37 -983 810 c-541 446 -991 811
-1000 810 -9 0 -90 -26 -181 -58z"/>
<path d="M7773 11967 c-17 -17 -70 -81 -118 -142 -49 -60 -126 -154 -172 -208
l-83 -98 82 -69 c760 -629 3835 -3160 3839 -3160 6 0 202 223 328 374 67 81
80 101 69 111 -13 12 -3882 3200 -3904 3216 -6 5 -23 -4 -41 -24z"/>
<path d="M7159 11213 c-70 -95 -1164 -1931 -1786 -2998 -579 -994 -931 -1683
-1108 -2172 -170 -467 -215 -609 -215 -682 1 -115 4 -119 319 -379 155 -128
286 -232 291 -230 5 2 236 280 514 618 279 338 531 638 561 667 31 29 88 68
132 90 70 35 84 38 158 38 73 0 87 -3 131 -30 30 -19 60 -49 79 -79 61 -99 42
-271 -44 -401 -21 -33 -269 -339 -550 -679 -407 -493 -509 -622 -499 -632 62
-57 593 -486 619 -500 51 -26 143 -23 210 8 144 67 508 291 709 436 667 484
1023 770 1790 1442 590 516 941 827 1520 1346 839 751 1085 974 1085 983 0 7
-3857 3192 -3874 3199 -3 1 -23 -19 -42 -45z"/>
<path d="M5885 10639 c-529 -54 -1011 -226 -1389 -497 -184 -132 -529 -465
-779 -749 -557 -637 -858 -1146 -1292 -2188 -490 -1174 -736 -1868 -775 -2187
-34 -275 70 -453 287 -489 129 -21 325 28 455 115 80 52 176 160 250 278 164
260 236 359 418 573 221 262 456 506 547 571 99 72 274 142 444 178 22 5 36
27 94 153 212 461 499 1013 793 1528 255 447 865 1485 1365 2320 l215 360 -52
12 c-135 32 -391 42 -581 22z"/>
<path d="M10450 7178 c-868 -782 -2057 -1830 -2455 -2164 -395 -330 -809 -654
-1098 -859 l-57 -40 0 -85 c-1 -230 -39 -449 -99 -568 -58 -115 -208 -325
-434 -607 -193 -242 -249 -304 -411 -459 -103 -99 -207 -207 -232 -241 -100
-141 -139 -276 -132 -460 4 -97 8 -119 34 -175 42 -90 75 -124 152 -162 64
-31 72 -33 177 -32 97 0 121 4 205 33 310 106 912 460 1915 1126 632 420 919
634 1254 938 448 405 1038 1164 1278 1640 194 387 292 901 263 1379 -21 356
-74 589 -184 805 l-31 62 -145 -131z"/>
<path d="M4180 4630 c-321 -57 -676 -184 -872 -312 -235 -154 -555 -483 -895
-923 -257 -333 -365 -542 -408 -793 -18 -103 -9 -144 31 -150 32 -5 73 35 205
199 151 186 229 254 379 329 36 18 115 69 175 114 129 96 184 131 192 122 4
-4 -1 -38 -10 -76 -50 -209 -462 -1183 -662 -1567 -114 -218 -409 -728 -537
-928 -135 -212 -138 -216 -138 -248 0 -33 23 -51 56 -43 34 9 87 63 374 381
336 374 601 630 970 939 260 218 654 492 843 585 124 61 147 68 147 46 0 -31
-43 -142 -117 -305 -144 -314 -160 -346 -262 -522 -138 -240 -152 -284 -105
-314 24 -16 28 -16 68 3 82 40 319 246 706 613 107 102 240 222 295 266 249
202 319 331 360 666 22 177 32 689 16 823 -13 106 -27 135 -68 135 -32 0 -57
-43 -94 -165 -72 -236 -123 -385 -160 -464 -33 -71 -54 -98 -132 -176 -85 -84
-222 -195 -297 -238 -29 -18 -28 -15 24 66 65 99 67 105 112 266 42 153 45
221 9 256 -13 14 -36 25 -50 25 -33 0 -98 -33 -152 -76 -23 -19 -48 -33 -55
-32 -7 2 -12 -2 -11 -8 1 -6 -21 -31 -50 -55 -70 -59 -263 -236 -482 -444
-234 -221 -455 -427 -480 -445 -18 -14 -18 -13 2 20 11 19 53 94 93 165 40 72
134 238 210 370 247 432 366 661 404 778 23 69 21 129 -5 153 -52 47 -163 5
-469 -174 -85 -50 -156 -89 -158 -87 -7 6 51 83 163 220 59 72 153 191 208
265 154 208 204 252 485 430 293 186 356 234 360 275 7 59 -40 66 -218 35z"/>
</g>
</svg>
