<?xml version="1.0" encoding="UTF-8" standalone="no"?>
<svg
   version="1.1"
   viewBox="0 0 370.75533 831.05762"
   fill="none"
   stroke="none"
   stroke-linecap="square"
   stroke-miterlimit="10"
   id="svg179"
   sodipodi:docname="ai-timeline-vertical.svg"
   inkscape:version="1.1.2 (0a00cf5339, 2022-02-04)"
   width="370.75531"
   height="831.05762"
   xmlns:inkscape="http://www.inkscape.org/namespaces/inkscape"
   xmlns:sodipodi="http://sodipodi.sourceforge.net/DTD/sodipodi-0.dtd"
   xmlns="http://www.w3.org/2000/svg"
   xmlns:svg="http://www.w3.org/2000/svg">
  <defs
     id="defs183" />
  <sodipodi:namedview
     id="namedview181"
     pagecolor="#ffffff"
     bordercolor="#666666"
     borderopacity="1.0"
     inkscape:pageshadow="2"
     inkscape:pageopacity="0.0"
     inkscape:pagecheckerboard="0"
     showgrid="false"
     inkscape:snap-global="false"
     inkscape:zoom="1.4208333"
     inkscape:cx="175.24927"
     inkscape:cy="291.73021"
     inkscape:window-width="3440"
     inkscape:window-height="1367"
     inkscape:window-x="1080"
     inkscape:window-y="516"
     inkscape:window-maximized="1"
     inkscape:current-layer="svg179"
     fit-margin-top="0"
     fit-margin-left="0"
     fit-margin-right="0"
     fit-margin-bottom="0" />
  <clipPath
     id="g290dcda1230_0_0.0">
    <path
       d="M 0,0 H 540.4803 V 960 H 0 Z"
       clip-rule="nonzero"
       id="path2" />
  </clipPath>
  <path
     stroke="#f05f40"
     stroke-width="3"
     stroke-linejoin="round"
     stroke-linecap="butt"
     stroke-dasharray="3, 9"
     d="m 173.01513,37.671967 142.48243,0.007"
     fill-rule="evenodd"
     id="path9" />
  <path
     fill="#000000"
     d="m 177.4396,33.148888 h -2.15625 V 22.727013 h 2.15625 z m 3.75673,-7.75 0.0625,0.90625 q 0.82812,-1.046875 2.21875,-1.046875 1.23437,0 1.82812,0.734375 0.60938,0.71875 0.625,2.15625 v 5 h -2.0625 v -4.953125 q 0,-0.65625 -0.29687,-0.953125 -0.28125,-0.296875 -0.95313,-0.296875 -0.875,0 -1.3125,0.75 v 5.453125 h -2.0625 v -7.75 z m 8.77086,-1.890625 v 1.890625 h 1.32812 v 1.53125 h -1.32812 v 3.859375 q 0,0.421875 0.15625,0.609375 0.17187,0.1875 0.64062,0.1875 0.34375,0 0.60938,-0.04687 v 1.5625 q -0.60938,0.1875 -1.25,0.1875 -2.17188,0 -2.21875,-2.1875 v -4.17188 h -1.125 v -1.53125 h 1.125 v -1.890625 z m 6.82721,3.84375 q -0.42188,-0.0625 -0.73438,-0.0625 -1.17187,0 -1.54687,0.796875 v 5.0625 h -2.0625 v -7.75 h 1.95312 l 0.0625,0.9375 q 0.60938,-1.078125 1.71875,-1.078125 0.34375,0 0.64063,0.09375 z m 0.41612,1.859375 q 0,-1.15625 0.4375,-2.0625 0.45313,-0.90625 1.28125,-1.390625 0.84375,-0.5 1.9375,-0.5 1.57813,0 2.5625,0.96875 0.98438,0.953125 1.10938,2.59375 l 0.0156,0.53125 q 0,1.78125 -1,2.859375 -1,1.078125 -2.67187,1.078125 -1.67188,0 -2.67188,-1.0625 -1,-1.078125 -1,-2.921875 z m 2.07813,0.140625 q 0,1.109375 0.40625,1.6875 0.42187,0.578125 1.1875,0.578125 0.75,0 1.17187,-0.5625 0.42188,-0.578125 0.42188,-1.84375 0,-1.09375 -0.42188,-1.6875 -0.42187,-0.59375 -1.1875,-0.59375 -0.75,0 -1.17187,0.59375 -0.40625,0.59375 -0.40625,1.828125 z"
     fill-rule="nonzero"
     id="path13" />
  <path
     fill="#000000"
     d="m 180.27903,81.709258 h -2.15625 l -4.17188,-6.85937 v 6.85937 h -2.14062 v -10.42187 h 2.14062 l 4.1875,6.875 v -6.875 h 2.14063 z m 5.30124,0.14063 q -1.70313,0 -2.78125,-1.04688 -1.0625,-1.04687 -1.0625,-2.78125 v -0.20312 q 0,-1.15625 0.45312,-2.07813 0.45313,-0.92187 1.26563,-1.42187 0.82812,-0.5 1.89062,-0.5 1.59375,0 2.5,1.01562 0.92188,1 0.92188,2.82813 v 0.84375 h -4.9375 q 0.10937,0.76562 0.60937,1.21875 0.5,0.45312 1.28125,0.45312 1.1875,0 1.85938,-0.85937 l 1.01562,1.14062 q -0.46875,0.65625 -1.26562,1.03125 -0.78125,0.35938 -1.75,0.35938 z m -0.23438,-6.35938 q -0.625,0 -1.01562,0.42188 -0.375,0.42187 -0.46875,1.1875 h 2.875 v -0.15625 q -0.0156,-0.6875 -0.375,-1.0625 -0.35938,-0.39063 -1.01563,-0.39063 z m 9.23461,5.4375 q -0.76563,0.92188 -2.125,0.92188 -1.25,0 -1.90625,-0.70313 -0.64063,-0.71875 -0.65625,-2.10937 v -5.07813 h 2.0625 v 5.01563 q 0,1.20312 1.10937,1.20312 1.04688,0 1.4375,-0.73437 v -5.48438 h 2.07813 v 7.75 h -1.95313 z m 7.90433,-5.01562 q -0.42188,-0.0625 -0.73438,-0.0625 -1.17187,0 -1.54687,0.79687 v 5.0625 h -2.0625 v -7.75 h 1.95312 l 0.0625,0.9375 q 0.60938,-1.07812 1.71875,-1.07812 0.34375,0 0.64063,0.0937 z m 5.27159,5.79687 q -0.14063,-0.28125 -0.20313,-0.6875 -0.75,0.82813 -1.95312,0.82813 -1.14063,0 -1.89063,-0.65625 -0.75,-0.65625 -0.75,-1.65625 0,-1.23438 0.90625,-1.89063 0.92188,-0.65625 2.64063,-0.67187 h 0.95312 v -0.4375 q 0,-0.53125 -0.28125,-0.85938 -0.26562,-0.32812 -0.85937,-0.32812 -0.51563,0 -0.8125,0.25 -0.29688,0.25 -0.29688,0.6875 h -2.07812 q 0,-0.67188 0.40625,-1.23438 0.42187,-0.57812 1.17187,-0.90625 0.76563,-0.32812 1.71875,-0.32812 1.42188,0 2.26563,0.71875 0.84375,0.71875 0.84375,2.03125 v 3.34375 q 0.0156,1.10937 0.3125,1.67187 v 0.125 z m -1.70313,-1.4375 q 0.45313,0 0.82813,-0.20312 0.39062,-0.20313 0.57812,-0.54688 v -1.32812 h -0.76562 q -1.5625,0 -1.65625,1.0625 v 0.125 q 0,0.39062 0.26562,0.64062 0.26563,0.25 0.75,0.25 z m 7.26395,1.4375 h -2.07813 v -11 h 2.07813 z m 13.95753,0 h -2.15625 l -4.17187,-6.85937 v 6.85937 h -2.14063 v -10.42187 h 2.14063 l 4.1875,6.875 v -6.875 h 2.14062 z m 5.30124,0.14063 q -1.70312,0 -2.78125,-1.04688 -1.0625,-1.04687 -1.0625,-2.78125 v -0.20312 q 0,-1.15625 0.45313,-2.07813 0.45312,-0.92187 1.26562,-1.42187 0.82813,-0.5 1.89063,-0.5 1.59375,0 2.5,1.01562 0.92187,1 0.92187,2.82813 v 0.84375 h -4.9375 q 0.10938,0.76562 0.60938,1.21875 0.5,0.45312 1.28125,0.45312 1.1875,0 1.85937,-0.85937 l 1.01563,1.14062 q -0.46875,0.65625 -1.26563,1.03125 -0.78125,0.35938 -1.75,0.35938 z m -0.23437,-6.35938 q -0.625,0 -1.01563,0.42188 -0.375,0.42187 -0.46875,1.1875 h 2.875 v -0.15625 q -0.0156,-0.6875 -0.375,-1.0625 -0.35937,-0.39063 -1.01562,-0.39063 z m 7.06273,-3.42187 v 1.89062 h 1.32814 v 1.53125 h -1.32814 v 3.85938 q 0,0.42187 0.15625,0.60937 0.17187,0.1875 0.64062,0.1875 0.34377,0 0.60939,-0.0469 v 1.5625 q -0.60939,0.1875 -1.25001,0.1875 -2.17188,0 -2.21875,-2.1875 v -4.17188 h -1.125 v -1.53125 h 1.125 v -1.89062 z m 9.21785,6.82812 1.01562,-4.9375 h 2 l -1.98437,7.75 h -1.73438 l -1.45312,-4.875 -1.46875,4.875 h -1.73438 l -1.96875,-7.75 h 2 l 1,4.9375 1.42188,-4.9375 h 1.5 z m 3.70782,-1.125 q 0,-1.15625 0.4375,-2.0625 0.45313,-0.90625 1.28125,-1.39062 0.84375,-0.5 1.9375,-0.5 1.57813,0 2.5625,0.96875 0.98438,0.95312 1.10938,2.59375 l 0.0156,0.53125 q 0,1.78125 -1,2.85937 -1,1.07813 -2.67187,1.07813 -1.67188,0 -2.67188,-1.0625 -1,-1.07813 -1,-2.92188 z m 2.07813,0.14063 q 0,1.10937 0.40625,1.6875 0.42187,0.57812 1.1875,0.57812 0.75,0 1.17187,-0.5625 0.42188,-0.57812 0.42188,-1.84375 0,-1.09375 -0.42188,-1.6875 -0.42187,-0.59375 -1.1875,-0.59375 -0.75,0 -1.17187,0.59375 -0.40625,0.59375 -0.40625,1.82813 z m 10.88082,-2 q -0.42187,-0.0625 -0.73437,-0.0625 -1.17188,0 -1.54688,0.79687 v 5.0625 h -2.0625 v -7.75 h 1.95313 l 0.0625,0.9375 q 0.60937,-1.07812 1.71875,-1.07812 0.34375,0 0.64062,0.0937 z m 3.81458,2.6875 -0.75,0.75 v 2.35937 h -2.0625 v -11 h 2.0625 v 6.09375 l 0.40625,-0.51562 1.98437,-2.32813 h 2.48438 l -2.79688,3.23438 3.03125,4.51562 h -2.375 z"
     fill-rule="nonzero"
     id="path17" />
  <path
     fill="#000000"
     d="m 171.81027,99.309258 v -10.42188 h 3.20312 q 1.375,0 2.45313,0.625 1.07812,0.60938 1.6875,1.75 0.60937,1.14063 0.60937,2.59375 v 0.48438 q 0,1.45312 -0.59375,2.59375 -0.59375,1.125 -1.6875,1.75 -1.07812,0.625 -2.45312,0.625 z m 2.14062,-8.6875 v 6.96875 h 1.03125 q 1.26563,0 1.92188,-0.82813 0.67187,-0.82812 0.6875,-2.35937 v -0.54688 q 0,-1.59375 -0.65625,-2.40625 -0.65625,-0.82812 -1.92188,-0.82812 z m 10.80639,8.82812 q -1.70313,0 -2.78125,-1.04687 -1.0625,-1.04688 -1.0625,-2.78125 v -0.20313 q 0,-1.15625 0.45312,-2.07812 0.45313,-0.92188 1.26563,-1.42188 0.82812,-0.5 1.89062,-0.5 1.59375,0 2.5,1.01563 0.92188,1 0.92188,2.82812 v 0.84375 h -4.9375 q 0.10937,0.76563 0.60937,1.21875 0.5,0.45313 1.28125,0.45313 1.1875,0 1.85938,-0.85938 l 1.01562,1.14063 q -0.46875,0.65625 -1.26562,1.03125 -0.78125,0.35937 -1.75,0.35937 z m -0.23438,-6.35937 q -0.625,0 -1.01562,0.42187 -0.375,0.42188 -0.46875,1.1875 h 2.875 v -0.15625 q -0.0156,-0.6875 -0.375,-1.0625 -0.35938,-0.39062 -1.01563,-0.39062 z m 6.53148,-1.53125 0.0625,0.875 q 0.82812,-1.01563 2.23437,-1.01563 1.48438,0 2.04688,1.1875 0.8125,-1.1875 2.32812,-1.1875 1.25,0 1.85938,0.73438 0.625,0.73437 0.625,2.21875 v 4.9375 h -2.07813 v -4.9375 q 0,-0.65625 -0.26562,-0.95313 -0.25,-0.3125 -0.89063,-0.3125 -0.9375,0 -1.29687,0.89063 l 0.0156,5.3125 h -2.07812 v -4.9375 q 0,-0.67188 -0.26563,-0.96875 -0.26562,-0.29688 -0.89062,-0.29688 -0.89063,0 -1.28125,0.73438 v 5.46875 h -2.0625 v -7.75 z m 10.42262,3.8125 q 0,-1.15625 0.4375,-2.0625 0.45313,-0.90625 1.28125,-1.39063 0.84375,-0.5 1.9375,-0.5 1.57813,0 2.5625,0.96875 0.98438,0.95313 1.10938,2.59375 l 0.0156,0.53125 q 0,1.78125 -1,2.85938 -1,1.07812 -2.67187,1.07812 -1.67188,0 -2.67188,-1.0625 -1,-1.07812 -1,-2.92187 z m 2.07813,0.14062 q 0,1.10938 0.40625,1.6875 0.42187,0.57813 1.1875,0.57813 0.75,0 1.17187,-0.5625 0.42188,-0.57813 0.42188,-1.84375 0,-1.09375 -0.42188,-1.6875 -0.42187,-0.59375 -1.1875,-0.59375 -0.75,0 -1.17187,0.59375 -0.40625,0.59375 -0.40625,1.82812 z m 8.44333,-3.95312 0.0625,0.90625 q 0.82812,-1.04688 2.21875,-1.04688 1.23437,0 1.82812,0.73438 0.60938,0.71875 0.625,2.15625 v 5 h -2.0625 v -4.95313 q 0,-0.65625 -0.29687,-0.95312 -0.28125,-0.29688 -0.95313,-0.29688 -0.875,0 -1.3125,0.75 v 5.45313 h -2.0625 v -7.75 z m 10.48961,5.60937 q 0,-0.375 -0.375,-0.59375 -0.375,-0.21875 -1.20313,-0.39062 -2.76562,-0.57813 -2.76562,-2.34375 0,-1.03125 0.85937,-1.71875 0.85938,-0.70313 2.23438,-0.70313 1.46875,0 2.35937,0.70313 0.89063,0.6875 0.89063,1.79687 h -2.07813 q 0,-0.4375 -0.28125,-0.71875 -0.28125,-0.29687 -0.89062,-0.29687 -0.53125,0 -0.8125,0.23437 -0.28125,0.23438 -0.28125,0.59375 0,0.34375 0.3125,0.5625 0.32812,0.20313 1.09375,0.35938 0.78125,0.15625 1.3125,0.34375 1.64062,0.60937 1.64062,2.09375 0,1.04687 -0.90625,1.70312 -0.90625,0.65625 -2.34375,0.65625 -0.98437,0 -1.73437,-0.34375 -0.75,-0.34375 -1.1875,-0.95312 -0.42188,-0.60938 -0.42188,-1.3125 h 1.95313 q 0.0312,0.5625 0.40625,0.85937 0.39062,0.28125 1.01562,0.28125 0.59375,0 0.89063,-0.21875 0.3125,-0.23437 0.3125,-0.59375 z m 5.81691,-7.5 v 1.89063 h 1.32812 v 1.53125 h -1.32812 v 3.85937 q 0,0.42188 0.15625,0.60938 0.17187,0.1875 0.64062,0.1875 0.34375,0 0.60938,-0.0469 v 1.5625 q -0.60938,0.1875 -1.25,0.1875 -2.17188,0 -2.21875,-2.1875 v -4.17187 h -1.125 v -1.53125 h 1.125 v -1.89063 z m 6.82721,3.84375 q -0.42188,-0.0625 -0.73438,-0.0625 -1.17187,0 -1.54687,0.79688 v 5.0625 h -2.0625 v -7.75 h 1.95312 l 0.0625,0.9375 q 0.60938,-1.07813 1.71875,-1.07813 0.34375,0 0.64063,0.0937 z m 5.2716,5.79688 q -0.14062,-0.28125 -0.20314,-0.6875 -0.75,0.82812 -1.95312,0.82812 -1.14063,0 -1.89063,-0.65625 -0.75,-0.65625 -0.75,-1.65625 0,-1.23437 0.90625,-1.89062 0.92188,-0.65625 2.64063,-0.67188 h 0.95312 v -0.4375 q 0,-0.53125 -0.28125,-0.85937 -0.26562,-0.32813 -0.85937,-0.32813 -0.51563,0 -0.8125,0.25 -0.29688,0.25 -0.29688,0.6875 h -2.07812 q 0,-0.67187 0.40625,-1.23437 0.42187,-0.57813 1.17187,-0.90625 0.76563,-0.32813 1.71875,-0.32813 1.42189,0 2.26564,0.71875 0.84375,0.71875 0.84375,2.03125 v 3.34375 q 0.0156,1.10938 0.3125,1.67188 v 0.125 z m -1.70314,-1.4375 q 0.45313,0 0.82813,-0.20313 0.39062,-0.20312 0.57812,-0.54687 v -1.32813 h -0.76562 q -1.5625,0 -1.65625,1.0625 v 0.125 q 0,0.39063 0.26562,0.64063 0.26563,0.25 0.75,0.25 z m 7.54521,-8.20313 v 1.89063 h 1.32813 v 1.53125 h -1.32813 v 3.85937 q 0,0.42188 0.15625,0.60938 0.17188,0.1875 0.64063,0.1875 0.34375,0 0.60937,-0.0469 v 1.5625 q -0.60937,0.1875 -1.25,0.1875 -2.17187,0 -2.21875,-2.1875 v -4.17187 h -1.125 v -1.53125 h 1.125 v -1.89063 z m 4.67096,9.64063 h -2.07812 v -7.75 h 2.07812 z m -2.20312,-9.75 q 0,-0.46875 0.3125,-0.76563 0.3125,-0.29687 0.84375,-0.29687 0.53125,0 0.84375,0.29687 0.3125,0.29688 0.3125,0.76563 0,0.46875 -0.3125,0.78125 -0.3125,0.29687 -0.84375,0.29687 -0.51563,0 -0.84375,-0.29687 -0.3125,-0.3125 -0.3125,-0.78125 z m 3.57339,5.8125 q 0,-1.15625 0.4375,-2.0625 0.45313,-0.90625 1.28125,-1.39063 0.84375,-0.5 1.9375,-0.5 1.57813,0 2.5625,0.96875 0.98438,0.95313 1.10938,2.59375 l 0.0156,0.53125 q 0,1.78125 -1,2.85938 -1,1.07812 -2.67187,1.07812 -1.67188,0 -2.67188,-1.0625 -1,-1.07812 -1,-2.92187 z m 2.07813,0.14062 q 0,1.10938 0.40625,1.6875 0.42187,0.57813 1.1875,0.57813 0.75,0 1.17187,-0.5625 0.42188,-0.57813 0.42188,-1.84375 0,-1.09375 -0.42188,-1.6875 -0.42187,-0.59375 -1.1875,-0.59375 -0.75,0 -1.17187,0.59375 -0.40625,0.59375 -0.40625,1.82812 z m 8.44333,-3.95312 0.0625,0.90625 q 0.82812,-1.04688 2.21875,-1.04688 1.23437,0 1.82812,0.73438 0.60938,0.71875 0.625,2.15625 v 5 h -2.0625 v -4.95313 q 0,-0.65625 -0.29687,-0.95312 -0.28125,-0.29688 -0.95313,-0.29688 -0.875,0 -1.3125,0.75 v 5.45313 h -2.0625 v -7.75 z"
     fill-rule="nonzero"
     id="path19" />
  <path
     fill="#000000"
     d="m 180.27822,201.69745 h -2.15625 l -4.17188,-6.85938 v 6.85938 h -2.14062 v -10.42188 h 2.14062 l 4.1875,6.875 v -6.875 h 2.14063 z m 5.30124,0.14062 q -1.70313,0 -2.78125,-1.04687 -1.0625,-1.04688 -1.0625,-2.78125 v -0.20313 q 0,-1.15625 0.45312,-2.07812 0.45313,-0.92188 1.26563,-1.42188 0.82812,-0.5 1.89062,-0.5 1.59375,0 2.5,1.01563 0.92188,1 0.92188,2.82812 v 0.84375 h -4.9375 q 0.10937,0.76563 0.60937,1.21875 0.5,0.45313 1.28125,0.45313 1.1875,0 1.85938,-0.85938 l 1.01562,1.14063 q -0.46875,0.65625 -1.26562,1.03125 -0.78125,0.35937 -1.75,0.35937 z m -0.23438,-6.35937 q -0.625,0 -1.01562,0.42187 -0.375,0.42188 -0.46875,1.1875 h 2.875 v -0.15625 q -0.0156,-0.6875 -0.375,-1.0625 -0.35938,-0.39062 -1.01563,-0.39062 z m 9.23461,5.4375 q -0.76563,0.92187 -2.125,0.92187 -1.25,0 -1.90625,-0.70312 -0.64063,-0.71875 -0.65625,-2.10938 v -5.07812 h 2.0625 v 5.01562 q 0,1.20313 1.10937,1.20313 1.04688,0 1.4375,-0.73438 v -5.48437 h 2.07813 v 7.75 h -1.95313 z m 7.90433,-5.01563 q -0.42188,-0.0625 -0.73438,-0.0625 -1.17187,0 -1.54687,0.79688 v 5.0625 h -2.0625 v -7.75 h 1.95312 l 0.0625,0.9375 q 0.60938,-1.07813 1.71875,-1.07813 0.34375,0 0.64063,0.0937 z m 5.27159,5.79688 q -0.14063,-0.28125 -0.20313,-0.6875 -0.75,0.82812 -1.95312,0.82812 -1.14063,0 -1.89063,-0.65625 -0.75,-0.65625 -0.75,-1.65625 0,-1.23437 0.90625,-1.89062 0.92188,-0.65625 2.64063,-0.67188 h 0.95312 v -0.4375 q 0,-0.53125 -0.28125,-0.85937 -0.26562,-0.32813 -0.85937,-0.32813 -0.51563,0 -0.8125,0.25 -0.29688,0.25 -0.29688,0.6875 h -2.07812 q 0,-0.67187 0.40625,-1.23437 0.42187,-0.57813 1.17187,-0.90625 0.76563,-0.32813 1.71875,-0.32813 1.42188,0 2.26563,0.71875 0.84375,0.71875 0.84375,2.03125 v 3.34375 q 0.0156,1.10938 0.3125,1.67188 v 0.125 z m -1.70313,-1.4375 q 0.45313,0 0.82813,-0.20313 0.39062,-0.20312 0.57812,-0.54687 v -1.32813 h -0.76562 q -1.5625,0 -1.65625,1.0625 v 0.125 q 0,0.39063 0.26562,0.64063 0.26563,0.25 0.75,0.25 z m 7.26395,1.4375 h -2.07813 v -11 h 2.07813 z m 13.95753,0 h -2.15625 l -4.17187,-6.85938 v 6.85938 h -2.14063 v -10.42188 h 2.14063 l 4.1875,6.875 v -6.875 h 2.14062 z m 5.30124,0.14062 q -1.70312,0 -2.78125,-1.04687 -1.0625,-1.04688 -1.0625,-2.78125 v -0.20313 q 0,-1.15625 0.45313,-2.07812 0.45312,-0.92188 1.26562,-1.42188 0.82813,-0.5 1.89063,-0.5 1.59375,0 2.5,1.01563 0.92187,1 0.92187,2.82812 v 0.84375 h -4.9375 q 0.10938,0.76563 0.60938,1.21875 0.5,0.45313 1.28125,0.45313 1.1875,0 1.85937,-0.85938 l 1.01563,1.14063 q -0.46875,0.65625 -1.26563,1.03125 -0.78125,0.35937 -1.75,0.35937 z m -0.23437,-6.35937 q -0.625,0 -1.01563,0.42187 -0.375,0.42188 -0.46875,1.1875 h 2.875 v -0.15625 q -0.0156,-0.6875 -0.375,-1.0625 -0.35937,-0.39062 -1.01562,-0.39062 z m 7.06273,-3.42188 v 1.89063 h 1.32812 v 1.53125 h -1.32812 v 3.85937 q 0,0.42188 0.15625,0.60938 0.17187,0.1875 0.64062,0.1875 0.34375,0 0.60938,-0.0469 v 1.5625 q -0.60938,0.1875 -1.25,0.1875 -2.17188,0 -2.21875,-2.1875 v -4.17187 h -1.125 v -1.53125 h 1.125 v -1.89063 z m 9.21783,6.82813 1.01562,-4.9375 h 2 l -1.98437,7.75 h -1.73438 l -1.45312,-4.875 -1.46875,4.875 h -1.73438 l -1.96875,-7.75 h 2 l 1,4.9375 1.42188,-4.9375 h 1.5 z m 3.70786,-1.125 q 0,-1.15625 0.4375,-2.0625 0.45312,-0.90625 1.28125,-1.39063 0.84375,-0.5 1.9375,-0.5 1.57812,0 2.5625,0.96875 0.98437,0.95313 1.10937,2.59375 l 0.0156,0.53125 q 0,1.78125 -1,2.85938 -1,1.07812 -2.67188,1.07812 -1.67187,0 -2.67187,-1.0625 -1,-1.07812 -1,-2.92187 z m 2.07812,0.14062 q 0,1.10938 0.40625,1.6875 0.42188,0.57813 1.1875,0.57813 0.75,0 1.17188,-0.5625 0.42187,-0.57813 0.42187,-1.84375 0,-1.09375 -0.42187,-1.6875 -0.42188,-0.59375 -1.1875,-0.59375 -0.75,0 -1.17188,0.59375 -0.40625,0.59375 -0.40625,1.82812 z m 10.88083,-2 q -0.42188,-0.0625 -0.73438,-0.0625 -1.17187,0 -1.54687,0.79688 v 5.0625 h -2.0625 v -7.75 h 1.95312 l 0.0625,0.9375 q 0.60938,-1.07813 1.71875,-1.07813 0.34375,0 0.64063,0.0937 z m 3.81454,2.6875 -0.75,0.75 v 2.35938 h -2.0625 v -11 h 2.0625 v 6.09375 l 0.40625,-0.51563 1.98438,-2.32812 h 2.48437 l -2.79687,3.23437 3.03125,4.51563 h -2.375 z"
     fill-rule="nonzero"
     id="path23" />
  <path
     fill="#000000"
     d="m 171.80947,219.29744 v -10.42188 h 3.20312 q 1.375,0 2.45313,0.625 1.07812,0.60938 1.6875,1.75 0.60937,1.14063 0.60937,2.59375 v 0.48438 q 0,1.45312 -0.59375,2.59375 -0.59375,1.125 -1.6875,1.75 -1.07812,0.625 -2.45312,0.625 z m 2.14062,-8.6875 v 6.96875 h 1.03125 q 1.26563,0 1.92188,-0.82813 0.67187,-0.82812 0.6875,-2.35937 v -0.54688 q 0,-1.59375 -0.65625,-2.40625 -0.65625,-0.82812 -1.92188,-0.82812 z m 9.43139,8.6875 h -2.07813 v -7.75 h 2.07813 z m -2.20313,-9.75 q 0,-0.46875 0.3125,-0.76563 0.3125,-0.29685 0.84375,-0.29685 0.53125,0 0.84375,0.29685 0.3125,0.29688 0.3125,0.76563 0,0.46875 -0.3125,0.78125 -0.3125,0.29687 -0.84375,0.29687 -0.51562,0 -0.84375,-0.29687 -0.3125,-0.3125 -0.3125,-0.78125 z m 8.08904,7.60937 q 0,-0.375 -0.375,-0.59375 -0.375,-0.21875 -1.20313,-0.39062 -2.76562,-0.57813 -2.76562,-2.34375 0,-1.03125 0.85937,-1.71875 0.85938,-0.70313 2.23438,-0.70313 1.46875,0 2.35937,0.70313 0.89063,0.6875 0.89063,1.79687 h -2.07813 q 0,-0.4375 -0.28125,-0.71875 -0.28125,-0.29687 -0.89062,-0.29687 -0.53125,0 -0.8125,0.23437 -0.28125,0.23438 -0.28125,0.59375 0,0.34375 0.3125,0.5625 0.32812,0.20313 1.09375,0.35938 0.78125,0.15625 1.3125,0.34375 1.64062,0.60937 1.64062,2.09375 0,1.04687 -0.90625,1.70312 -0.90625,0.65625 -2.34375,0.65625 -0.98437,0 -1.73437,-0.34375 -0.75,-0.34375 -1.1875,-0.95312 -0.42188,-0.60938 -0.42188,-1.3125 h 1.95313 q 0.0312,0.5625 0.40625,0.85937 0.39062,0.28125 1.01562,0.28125 0.59375,0 0.89063,-0.21875 0.3125,-0.23437 0.3125,-0.59375 z m 6.56691,0.60938 q 0.57812,0 0.92187,-0.3125 0.35938,-0.3125 0.375,-0.82813 h 1.9375 q 0,0.78125 -0.42187,1.4375 -0.42188,0.65625 -1.15625,1.01563 -0.73438,0.35937 -1.625,0.35937 -1.65625,0 -2.625,-1.04687 -0.95313,-1.0625 -0.95313,-2.92188 v -0.14062 q 0,-1.78125 0.95313,-2.84375 0.95312,-1.07813 2.60937,-1.07813 1.45313,0 2.32813,0.82813 0.89062,0.82812 0.89062,2.20312 h -1.9375 q -0.0156,-0.59375 -0.375,-0.96875 -0.34375,-0.39062 -0.9375,-0.39062 -0.71875,0 -1.09375,0.53125 -0.35937,0.53125 -0.35937,1.70312 v 0.21875 q 0,1.20313 0.35937,1.71875 0.35938,0.51563 1.10938,0.51563 z m 9.06488,0.75 q -0.76563,0.92187 -2.125,0.92187 -1.25,0 -1.90625,-0.70312 -0.64063,-0.71875 -0.65625,-2.10938 v -5.07812 h 2.0625 v 5.01562 q 0,1.20313 1.10937,1.20313 1.04688,0 1.4375,-0.73438 v -5.48437 h 2.07813 v 7.75 h -1.95313 z m 7.74807,-1.35938 q 0,-0.375 -0.375,-0.59375 -0.375,-0.21875 -1.20312,-0.39062 -2.76563,-0.57813 -2.76563,-2.34375 0,-1.03125 0.85938,-1.71875 0.85937,-0.70313 2.23437,-0.70313 1.46875,0 2.35938,0.70313 0.89062,0.6875 0.89062,1.79687 h -2.07812 q 0,-0.4375 -0.28125,-0.71875 -0.28125,-0.29687 -0.89063,-0.29687 -0.53125,0 -0.8125,0.23437 -0.28125,0.23438 -0.28125,0.59375 0,0.34375 0.3125,0.5625 0.32813,0.20313 1.09375,0.35938 0.78125,0.15625 1.3125,0.34375 1.64063,0.60937 1.64063,2.09375 0,1.04687 -0.90625,1.70312 -0.90625,0.65625 -2.34375,0.65625 -0.98438,0 -1.73438,-0.34375 -0.75,-0.34375 -1.1875,-0.95312 -0.42187,-0.60938 -0.42187,-1.3125 h 1.95312 q 0.0312,0.5625 0.40625,0.85937 0.39063,0.28125 1.01563,0.28125 0.59375,0 0.89062,-0.21875 0.3125,-0.23437 0.3125,-0.59375 z m 7.53566,0 q 0,-0.375 -0.375,-0.59375 -0.375,-0.21875 -1.20312,-0.39062 -2.76563,-0.57813 -2.76563,-2.34375 0,-1.03125 0.85938,-1.71875 0.85937,-0.70313 2.23437,-0.70313 1.46875,0 2.35938,0.70313 0.89062,0.6875 0.89062,1.79687 h -2.07812 q 0,-0.4375 -0.28125,-0.71875 -0.28125,-0.29687 -0.89063,-0.29687 -0.53125,0 -0.8125,0.23437 -0.28125,0.23438 -0.28125,0.59375 0,0.34375 0.3125,0.5625 0.32813,0.20313 1.09375,0.35938 0.78125,0.15625 1.3125,0.34375 1.64063,0.60937 1.64063,2.09375 0,1.04687 -0.90625,1.70312 -0.90625,0.65625 -2.34375,0.65625 -0.98438,0 -1.73438,-0.34375 -0.75,-0.34375 -1.1875,-0.95312 -0.42187,-0.60938 -0.42187,-1.3125 h 1.95312 q 0.0312,0.5625 0.40625,0.85937 0.39063,0.28125 1.01563,0.28125 0.59375,0 0.89062,-0.21875 0.3125,-0.23437 0.3125,-0.59375 z m 5.53566,2.14063 h -2.07812 v -7.75 h 2.07812 z m -2.20312,-9.75 q 0,-0.46875 0.3125,-0.76563 0.3125,-0.29685 0.84375,-0.29685 0.53125,0 0.84375,0.29685 0.3125,0.29688 0.3125,0.76563 0,0.46875 -0.3125,0.78125 -0.3125,0.29687 -0.84375,0.29687 -0.51563,0 -0.84375,-0.29687 -0.3125,-0.3125 -0.3125,-0.78125 z m 3.57341,5.8125 q 0,-1.15625 0.4375,-2.0625 0.45312,-0.90625 1.28125,-1.39063 0.84375,-0.5 1.9375,-0.5 1.57812,0 2.5625,0.96875 0.98437,0.95313 1.10937,2.59375 l 0.0156,0.53125 q 0,1.78125 -1,2.85938 -1,1.07812 -2.67188,1.07812 -1.67187,0 -2.67187,-1.0625 -1,-1.07812 -1,-2.92187 z m 2.07812,0.14062 q 0,1.10938 0.40625,1.6875 0.42188,0.57813 1.1875,0.57813 0.75,0 1.17188,-0.5625 0.42187,-0.57813 0.42187,-1.84375 0,-1.09375 -0.42187,-1.6875 -0.42188,-0.59375 -1.1875,-0.59375 -0.75,0 -1.17188,0.59375 -0.40625,0.59375 -0.40625,1.82812 z m 8.44333,-3.95312 0.0625,0.90625 q 0.82813,-1.04688 2.21875,-1.04688 1.23438,0 1.82813,0.73438 0.60937,0.71875 0.625,2.15625 v 5 h -2.0625 v -4.95313 q 0,-0.65625 -0.29688,-0.95312 -0.28125,-0.29688 -0.95312,-0.29688 -0.875,0 -1.3125,0.75 v 5.45313 h -2.0625 v -7.75 z"
     fill-rule="nonzero"
     id="path25" />
  <path
     fill="#000000"
     d="m 177.68445,254.53844 h -3.76562 l -0.71875,2.14063 h -2.28125 l 3.875,-10.42188 h 2 l 3.89062,10.42188 h -2.28125 z m -3.1875,-1.75 h 2.60938 l -1.3125,-3.89062 z m 9.45523,3.89063 h -2.15625 v -10.42188 h 2.15625 z m 7.78148,-3.67188 v 3.67188 h -2.14063 v -10.42188 h 4.0625 q 1.17188,0 2.0625,0.4375 0.89063,0.42188 1.35938,1.21875 0.48437,0.78125 0.48437,1.79688 0,1.53125 -1.04687,2.42187 -1.04688,0.875 -2.90625,0.875 z m 0,-1.73437 h 1.92187 q 0.84375,0 1.28125,-0.40625 0.45313,-0.40625 0.45313,-1.14063 0,-0.76562 -0.45313,-1.23437 -0.4375,-0.48438 -1.23437,-0.5 h -1.96875 z m 11.51607,-0.39063 q -0.42188,-0.0625 -0.73438,-0.0625 -1.17187,0 -1.54687,0.79688 v 5.0625 h -2.0625 v -7.75 h 1.95312 l 0.0625,0.9375 q 0.60938,-1.07813 1.71875,-1.07813 0.34375,0 0.64063,0.0937 z m 4.42849,5.9375 q -1.70312,0 -2.78125,-1.04687 -1.0625,-1.04688 -1.0625,-2.78125 v -0.20313 q 0,-1.15625 0.45313,-2.07812 0.45312,-0.92188 1.26562,-1.42188 0.82813,-0.5 1.89063,-0.5 1.59375,0 2.5,1.01563 0.92187,1 0.92187,2.82812 v 0.84375 h -4.9375 q 0.10938,0.76563 0.60938,1.21875 0.5,0.45313 1.28125,0.45313 1.1875,0 1.85937,-0.85938 l 1.01563,1.14063 q -0.46875,0.65625 -1.26563,1.03125 -0.78125,0.35937 -1.75,0.35937 z m -0.23437,-6.35937 q -0.625,0 -1.01563,0.42187 -0.375,0.42188 -0.46875,1.1875 h 2.875 v -0.15625 q -0.0156,-0.6875 -0.375,-1.0625 -0.35937,-0.39062 -1.01562,-0.39062 z m 8.78148,4.07812 q 0,-0.375 -0.375,-0.59375 -0.375,-0.21875 -1.20313,-0.39062 -2.76562,-0.57813 -2.76562,-2.34375 0,-1.03125 0.85937,-1.71875 0.85938,-0.70313 2.23438,-0.70313 1.46875,0 2.35937,0.70313 0.89063,0.6875 0.89063,1.79687 h -2.07813 q 0,-0.4375 -0.28125,-0.71875 -0.28125,-0.29687 -0.89062,-0.29687 -0.53125,0 -0.8125,0.23437 -0.28125,0.23438 -0.28125,0.59375 0,0.34375 0.3125,0.5625 0.32812,0.20313 1.09375,0.35938 0.78125,0.15625 1.3125,0.34375 1.64062,0.60937 1.64062,2.09375 0,1.04687 -0.90625,1.70312 -0.90625,0.65625 -2.34375,0.65625 -0.98437,0 -1.73437,-0.34375 -0.75,-0.34375 -1.1875,-0.95312 -0.42188,-0.60938 -0.42188,-1.3125 h 1.95313 q 0.0312,0.5625 0.40625,0.85937 0.39062,0.28125 1.01562,0.28125 0.59375,0 0.89063,-0.21875 0.3125,-0.23437 0.3125,-0.59375 z m 6.91066,2.28125 q -1.70313,0 -2.78125,-1.04687 -1.0625,-1.04688 -1.0625,-2.78125 v -0.20313 q 0,-1.15625 0.45312,-2.07812 0.45313,-0.92188 1.26563,-1.42188 0.82812,-0.5 1.89062,-0.5 1.59375,0 2.5,1.01563 0.92188,1 0.92188,2.82812 v 0.84375 h -4.9375 q 0.10937,0.76563 0.60937,1.21875 0.5,0.45313 1.28125,0.45313 1.1875,0 1.85938,-0.85938 l 1.01562,1.14063 q -0.46875,0.65625 -1.26562,1.03125 -0.78125,0.35937 -1.75,0.35937 z m -0.23438,-6.35937 q -0.625,0 -1.01562,0.42187 -0.375,0.42188 -0.46875,1.1875 h 2.875 v -0.15625 q -0.0156,-0.6875 -0.375,-1.0625 -0.35938,-0.39062 -1.01563,-0.39062 z m 6.50023,-1.53125 0.0625,0.90625 q 0.82813,-1.04688 2.21875,-1.04688 1.23438,0 1.82813,0.73438 0.60937,0.71875 0.625,2.15625 v 5 h -2.0625 v -4.95313 q 0,-0.65625 -0.29688,-0.95312 -0.28125,-0.29688 -0.95312,-0.29688 -0.875,0 -1.3125,0.75 v 5.45313 h -2.0625 v -7.75 z m 8.77086,-1.89063 v 1.89063 h 1.32813 v 1.53125 h -1.32813 v 3.85937 q 0,0.42188 0.15625,0.60938 0.17188,0.1875 0.64063,0.1875 0.34375,0 0.60937,-0.0469 v 1.5625 q -0.60937,0.1875 -1.25,0.1875 -2.17187,0 -2.21875,-2.1875 v -4.17187 h -1.125 v -1.53125 h 1.125 v -1.89063 z m 6.96782,9.64063 q -0.14062,-0.28125 -0.20312,-0.6875 -0.75,0.82812 -1.95313,0.82812 -1.14062,0 -1.89062,-0.65625 -0.75,-0.65625 -0.75,-1.65625 0,-1.23437 0.90625,-1.89062 0.92187,-0.65625 2.64062,-0.67188 h 0.95313 v -0.4375 q 0,-0.53125 -0.28125,-0.85937 -0.26563,-0.32813 -0.85938,-0.32813 -0.51562,0 -0.8125,0.25 -0.29687,0.25 -0.29687,0.6875 h -2.07813 q 0,-0.67187 0.40625,-1.23437 0.42188,-0.57813 1.17188,-0.90625 0.76562,-0.32813 1.71875,-0.32813 1.42187,0 2.26562,0.71875 0.84375,0.71875 0.84375,2.03125 v 3.34375 q 0.0156,1.10938 0.3125,1.67188 v 0.125 z m -1.70312,-1.4375 q 0.45312,0 0.82812,-0.20313 0.39063,-0.20312 0.57813,-0.54687 v -1.32813 h -0.76563 q -1.5625,0 -1.65625,1.0625 v 0.125 q 0,0.39063 0.26563,0.64063 0.26562,0.25 0.75,0.25 z m 7.54519,-8.20313 v 1.89063 h 1.32813 v 1.53125 h -1.32813 v 3.85937 q 0,0.42188 0.15625,0.60938 0.17188,0.1875 0.64063,0.1875 0.34375,0 0.60937,-0.0469 v 1.5625 q -0.60937,0.1875 -1.25,0.1875 -2.17187,0 -2.21875,-2.1875 v -4.17187 h -1.125 v -1.53125 h 1.125 v -1.89063 z m 4.67096,9.64063 h -2.07812 v -7.75 h 2.07812 z m -2.20312,-9.75 q 0,-0.46875 0.3125,-0.76563 0.3125,-0.29687 0.84375,-0.29687 0.53125,0 0.84375,0.29687 0.3125,0.29688 0.3125,0.76563 0,0.46875 -0.3125,0.78125 -0.3125,0.29687 -0.84375,0.29687 -0.51563,0 -0.84375,-0.29687 -0.3125,-0.3125 -0.3125,-0.78125 z m 3.57342,5.8125 q 0,-1.15625 0.4375,-2.0625 0.45313,-0.90625 1.28125,-1.39063 0.84375,-0.5 1.9375,-0.5 1.57813,0 2.5625,0.96875 0.98438,0.95313 1.10938,2.59375 l 0.0156,0.53125 q 0,1.78125 -1,2.85938 -1,1.07812 -2.67187,1.07812 -1.67188,0 -2.67188,-1.0625 -1,-1.07812 -1,-2.92187 z m 2.07813,0.14062 q 0,1.10938 0.40625,1.6875 0.42187,0.57813 1.1875,0.57813 0.75,0 1.17187,-0.5625 0.42188,-0.57813 0.42188,-1.84375 0,-1.09375 -0.42188,-1.6875 -0.42187,-0.59375 -1.1875,-0.59375 -0.75,0 -1.17187,0.59375 -0.40625,0.59375 -0.40625,1.82812 z m 8.44333,-3.95312 0.0625,0.90625 q 0.82812,-1.04688 2.21875,-1.04688 1.23437,0 1.82812,0.73438 0.60938,0.71875 0.625,2.15625 v 5 h -2.0625 v -4.95313 q 0,-0.65625 -0.29687,-0.95312 -0.28125,-0.29688 -0.95313,-0.29688 -0.875,0 -1.3125,0.75 v 5.45313 h -2.0625 v -7.75 z"
     fill-rule="nonzero"
     id="path29" />
  <path
     fill="#000000"
     d="m 29.917968,407.76005 h -5.140625 l -0.96875,2.9375 h -3.125 l 5.296875,-14.21875 h 2.71875 l 5.328125,14.21875 h -3.125 z m -4.34375,-2.35937 h 3.546875 l -1.78125,-5.32813 z m 12.894531,5.29687 h -2.9375 V 396.4788 h 2.9375 z m 16.24805,-5.8125 h -5.625 v 5.8125 H 46.154295 V 396.4788 h 9.265629 v 2.375 h -6.328125 v 3.67188 h 5.625 z m 5.191406,5.8125 H 57.08008 v -10.5625 h 2.828125 z m -3,-13.29687 q 0,-0.64063 0.421875,-1.04688 0.4375,-0.40625 1.15625,-0.40625 0.734375,0 1.15625,0.40625 0.4375,0.40625 0.4375,1.04688 0,0.64062 -0.4375,1.04687 -0.4375,0.40625 -1.15625,0.40625 -0.703125,0 -1.140625,-0.40625 -0.4375,-0.40625 -0.4375,-1.04687 z m 8.302734,13.29687 h -2.828125 v -15 h 2.828125 z m 4.97461,-10.5625 0.07813,1.17188 q 1.125,-1.375 3.046875,-1.375 2.03125,0 2.796875,1.60937 1.109375,-1.60937 3.171875,-1.60937 1.71875,0 2.5625,1 0.84375,1 0.84375,3.01562 v 6.75 h -2.828125 v -6.73437 q 0,-0.90625 -0.359375,-1.3125 -0.34375,-0.42188 -1.234375,-0.42188 -1.28125,0 -1.765625,1.21875 l 0.01563,7.25 h -2.828125 v -6.73437 q 0,-0.90625 -0.359375,-1.3125 -0.359375,-0.42188 -1.234375,-0.42188 -1.203125,0 -1.734375,1 v 7.46875 h -2.828125 v -10.5625 z m 27.201169,6.82813 q 0,-0.82813 -0.59375,-1.26563 -0.57812,-0.45312 -2.10937,-0.9375 -1.51563,-0.5 -2.40625,-0.98437 -2.42188,-1.29688 -2.42188,-3.51563 0,-1.15625 0.64063,-2.0625 0.65625,-0.90625 1.875,-1.40625 1.21875,-0.51562 2.73437,-0.51562 1.51563,0 2.70313,0.5625 1.20312,0.54687 1.85937,1.5625 0.656252,1 0.656252,2.28125 h -2.921872 q 0,-0.98438 -0.625,-1.51563 -0.60938,-0.54687 -1.71875,-0.54687 -1.07813,0 -1.67188,0.45312 -0.59375,0.45313 -0.59375,1.1875 0,0.70313 0.6875,1.17188 0.70313,0.46875 2.0625,0.875 2.5,0.75 3.64063,1.875 1.140622,1.10937 1.140622,2.76562 0,1.84375 -1.390622,2.90625 -1.39063,1.04688 -3.76563,1.04688 -1.64062,0 -2.98437,-0.59375 -1.34375,-0.60938 -2.0625,-1.65625 -0.70313,-1.04688 -0.70313,-2.42188 h 2.9375 q 0,2.34375 2.8125,2.34375 1.04688,0 1.625,-0.42187 0.59375,-0.42188 0.59375,-1.1875 z m 8.123052,-9.4375 v 2.60937 h 1.79687 v 2.0625 h -1.79687 v 5.28125 q 0,0.57813 0.21875,0.84375 0.21875,0.25 0.85937,0.25 0.46875,0 0.82813,-0.0781 v 2.14062 q -0.82813,0.26563 -1.70313,0.26563 -2.96875,0 -3.03125,-3 v -5.70313 h -1.54687 v -2.0625 h 1.54687 v -2.60937 z m 9.69531,12.09375 q -1.03125,1.28125 -2.89062,1.28125 -1.6875,0 -2.59375,-0.98438 -0.89063,-0.98437 -0.90625,-2.85937 v -6.92188 h 2.82812 v 6.82813 q 0,1.64062 1.5,1.64062 1.4375,0 1.96875,-1 v -7.46875 h 2.82813 v 10.5625 h -2.65625 z m 4.42578,-4.28125 q 0,-2.46875 1.10938,-3.9375 1.10937,-1.46875 3.03125,-1.46875 1.54687,0 2.54687,1.15625 v -5.39063 h 2.84375 v 15 h -2.54687 l -0.14063,-1.125 q -1.0625,1.32813 -2.71875,1.32813 -1.85937,0 -3,-1.46875 -1.125,-1.48438 -1.125,-4.09375 z m 2.82813,0.20312 q 0,1.48438 0.51562,2.28125 0.51563,0.78125 1.5,0.78125 1.3125,0 1.84375,-1.09375 v -4.17187 q -0.51562,-1.10938 -1.8125,-1.10938 -2.04687,0 -2.04687,3.3125 z m 11.86328,5.15625 h -2.82813 v -10.5625 h 2.82813 z m -3,-13.29687 q 0,-0.64063 0.42187,-1.04688 0.4375,-0.40625 1.15625,-0.40625 0.73438,0 1.15625,0.40625 0.4375,0.40625 0.4375,1.04688 0,0.64062 -0.4375,1.04687 -0.4375,0.40625 -1.15625,0.40625 -0.70312,0 -1.14062,-0.40625 -0.4375,-0.40625 -0.4375,-1.04687 z m 4.88086,7.92187 q 0,-1.57812 0.60937,-2.8125 0.60938,-1.23437 1.73438,-1.90625 1.14062,-0.67187 2.65625,-0.67187 2.14062,0 3.48437,1.3125 1.35938,1.3125 1.51563,3.54687 l 0.0156,0.73438 q 0,2.42187 -1.35937,3.90625 -1.35938,1.46875 -3.64063,1.46875 -2.28125,0 -3.65625,-1.46875 -1.35937,-1.46875 -1.35937,-3.98438 z m 2.82812,0.20313 q 0,1.5 0.5625,2.29687 0.5625,0.79688 1.625,0.79688 1.03125,0 1.59375,-0.78125 0.57813,-0.79688 0.57813,-2.51563 0,-1.48437 -0.57813,-2.29687 -0.5625,-0.8125 -1.60937,-0.8125 -1.04688,0 -1.60938,0.8125 -0.5625,0.8125 -0.5625,2.5 z"
     fill-rule="nonzero"
     id="path33" />
  <path
     fill="#999999"
     d="m 11.593749,429.96318 q -0.171875,2.29687 -1.703125,3.625 -1.53125,1.3125 -4.03125,1.3125 -2.734375,0 -4.296875,-1.84375 Q 0,431.21318 0,427.99443 v -0.85938 q 0,-2.0625 0.718749,-3.625 0.71875,-1.5625 2.0625,-2.39062 1.34375,-0.84375 3.125,-0.84375 2.453125,0 3.953125,1.32812 1.515625,1.3125 1.75,3.70313 h -2.9375 q -0.09375,-1.375 -0.765625,-2 -0.65625,-0.625 -2,-0.625 -1.46875,0 -2.203125,1.0625 -0.71875,1.04687 -0.734375,3.25 v 1.07812 q 0,2.29688 0.6875,3.35938 0.703125,1.0625 2.203125,1.0625 1.359375,0 2.03125,-0.60938 0.671875,-0.625 0.765625,-1.92187 z m 7.664062,-3.1875 q -0.5625,-0.0781 -1.015625,-0.0781 -1.59375,0 -2.09375,1.07813 v 6.92187 h -2.828125 v -10.5625 h 2.671875 l 0.07813,1.25 q 0.84375,-1.45312 2.359375,-1.45312 0.46875,0 0.875,0.125 z m 6.046875,8.125 q -2.328125,0 -3.796875,-1.42188 -1.453125,-1.4375 -1.453125,-3.8125 v -0.26562 q 0,-1.59375 0.609375,-2.84375 0.625,-1.26563 1.75,-1.9375 1.125,-0.6875 2.578125,-0.6875 2.15625,0 3.40625,1.375 1.25,1.35937 1.25,3.875 v 1.15625 h -6.734375 q 0.140625,1.03125 0.828125,1.65625 0.6875,0.625 1.75,0.625 1.625,0 2.546875,-1.1875 l 1.375,1.5625 q -0.625,0.89062 -1.71875,1.40625 -1.078125,0.5 -2.390625,0.5 z m -0.328125,-8.6875 q -0.84375,0 -1.375,0.57812 -0.515625,0.5625 -0.65625,1.60938 h 3.921875 v -0.21875 q -0.01563,-0.9375 -0.5,-1.45313 -0.484375,-0.51562 -1.390625,-0.51562 z m 12.388672,8.48437 q -0.1875,-0.375 -0.28125,-0.95312 -1.015625,1.15625 -2.65625,1.15625 -1.5625,0 -2.578125,-0.90625 -1.015625,-0.90625 -1.015625,-2.26563 0,-1.6875 1.234375,-2.57812 1.25,-0.90625 3.609375,-0.90625 h 1.296875 v -0.60938 q 0,-0.73437 -0.375,-1.17187 -0.375,-0.4375 -1.1875,-0.4375 -0.71875,0 -1.125,0.34375 -0.40625,0.34375 -0.40625,0.9375 h -2.8125 q 0,-0.92188 0.5625,-1.70313 0.5625,-0.78125 1.59375,-1.21875 1.046875,-0.45312 2.328125,-0.45312 1.953125,0 3.09375,0.98437 1.15625,0.98438 1.15625,2.76563 v 4.57812 q 0.01563,1.5 0.421875,2.26563 v 0.17187 z m -2.328125,-1.96875 q 0.625,0 1.140625,-0.26562 0.53125,-0.28125 0.796875,-0.75 v -1.82813 h -1.0625 q -2.109375,0 -2.25,1.46875 l -0.01563,0.17188 q 0,0.53125 0.375,0.875 0.375,0.32812 1.015625,0.32812 z m 10.316406,-11.20312 v 2.60937 h 1.796875 v 2.0625 h -1.796875 v 5.28125 q 0,0.57813 0.21875,0.84375 0.21875,0.25 0.859375,0.25 0.46875,0 0.828125,-0.0781 v 2.14062 q -0.828125,0.26563 -1.703125,0.26563 -2.96875,0 -3.03125,-3 v -5.70313 h -1.546875 v -2.0625 h 1.546875 v -2.60937 z m 6.351567,13.17187 h -2.828125 v -10.5625 h 2.828125 z m -3,-13.29687 q 0,-0.64063 0.421875,-1.04688 0.4375,-0.40625 1.15625,-0.40625 0.734375,0 1.15625,0.40625 0.4375,0.40625 0.4375,1.04688 0,0.64062 -0.4375,1.04687 -0.4375,0.40625 -1.15625,0.40625 -0.703125,0 -1.140625,-0.40625 -0.4375,-0.40625 -0.4375,-1.04687 z m 9.287109,9.84375 1.953125,-7.10938 h 2.953125 l -3.5625,10.5625 h -2.703125 l -3.5625,-10.5625 h 2.953125 z m 10.886719,3.65625 q -2.328125,0 -3.796875,-1.42188 -1.453125,-1.4375 -1.453125,-3.8125 v -0.26562 q 0,-1.59375 0.609375,-2.84375 0.625,-1.26563 1.75,-1.9375 1.125,-0.6875 2.578125,-0.6875 2.15625,0 3.40625,1.375 1.25,1.35937 1.25,3.875 v 1.15625 h -6.734375 q 0.140625,1.03125 0.828125,1.65625 0.6875,0.625 1.75,0.625 1.625,0 2.546875,-1.1875 l 1.375,1.5625 q -0.625,0.89062 -1.71875,1.40625 -1.078125,0.5 -2.390625,0.5 z m -0.328125,-8.6875 q -0.84375,0 -1.375,0.57812 -0.515625,0.5625 -0.65625,1.60938 h 3.921875 v -0.21875 q -0.01563,-0.9375 -0.5,-1.45313 -0.484375,-0.51562 -1.390625,-0.51562 z m 19.462894,5.54687 h -5.140629 l -0.96875,2.9375 h -3.125 l 5.296875,-14.21875 h 2.718754 l 5.32812,14.21875 h -3.125 z m -4.343754,-2.35937 h 3.546874 l -1.78125,-5.32813 z m 13.988284,3.21875 q 0.78125,0 1.26562,-0.42188 0.48438,-0.4375 0.5,-1.15625 h 2.656252 q -0.0156,1.07813 -0.59375,1.96875 -0.57812,0.89063 -1.578122,1.39063 -1,0.5 -2.20313,0.5 -2.26562,0 -3.57812,-1.4375 -1.3125,-1.45313 -1.3125,-3.98438 v -0.1875 q 0,-2.45312 1.29687,-3.90625 1.3125,-1.45312 3.57813,-1.45312 1.96875,0 3.171872,1.14062 1.20313,1.125 1.21875,3 h -2.656252 q -0.0156,-0.82812 -0.5,-1.34375 -0.48437,-0.51562 -1.29687,-0.51562 -0.98438,0 -1.48438,0.71875 -0.5,0.71875 -0.5,2.32812 v 0.29688 q 0,1.64062 0.5,2.35937 0.5,0.70313 1.51563,0.70313 z m 9.414062,-11.09375 v 2.60937 h 1.79687 v 2.0625 h -1.79687 v 5.28125 q 0,0.57813 0.21875,0.84375 0.21875,0.25 0.85937,0.25 0.46875,0 0.82813,-0.0781 v 2.14062 q -0.82813,0.26563 -1.70313,0.26563 -2.96875,0 -3.03125,-3 v -5.70313 h -1.54687 v -2.0625 h 1.54687 v -2.60937 z m 6.35156,13.17187 h -2.82812 v -10.5625 h 2.82812 z m -3,-13.29687 q 0,-0.64063 0.42188,-1.04688 0.4375,-0.40625 1.15625,-0.40625 0.73437,0 1.15625,0.40625 0.4375,0.40625 0.4375,1.04688 0,0.64062 -0.4375,1.04687 -0.4375,0.40625 -1.15625,0.40625 -0.70313,0 -1.14063,-0.40625 -0.4375,-0.40625 -0.4375,-1.04687 z m 9.28711,9.84375 1.95313,-7.10938 h 2.95312 l -3.5625,10.5625 h -2.70312 l -3.5625,-10.5625 h 2.95312 z m 9.12305,3.45312 h -2.82813 v -10.5625 h 2.82813 z m -3,-13.29687 q 0,-0.64063 0.42187,-1.04688 0.4375,-0.40625 1.15625,-0.40625 0.73438,0 1.15625,0.40625 0.4375,0.40625 0.4375,1.04688 0,0.64062 -0.4375,1.04687 -0.4375,0.40625 -1.15625,0.40625 -0.70312,0 -1.14062,-0.40625 -0.4375,-0.40625 -0.4375,-1.04687 z m 8.70898,0.125 v 2.60937 h 1.79688 v 2.0625 h -1.79688 v 5.28125 q 0,0.57813 0.21875,0.84375 0.21875,0.25 0.85938,0.25 0.46875,0 0.82812,-0.0781 v 2.14062 q -0.82812,0.26563 -1.70312,0.26563 -2.96875,0 -3.03125,-3 v -5.70313 h -1.54688 v -2.0625 h 1.54688 v -2.60937 z m 7.32031,9.17187 1.95313,-6.5625 h 3.03125 l -4.25,12.20313 -0.23438,0.5625 q -0.95312,2.0625 -3.125,2.0625 -0.625,0 -1.25,-0.1875 v -2.14063 l 0.42188,0.0156 q 0.8125,0 1.20312,-0.25 0.39063,-0.23438 0.625,-0.79688 l 0.32813,-0.875 -3.70313,-10.59375 h 3.03125 z"
     fill-rule="nonzero"
     id="path35" />
  <path
     fill="#000000"
     d="m 181.17913,308.30223 h -3.76563 l -0.71875,2.14062 h -2.28125 l 3.875,-10.42187 h 2 l 3.89063,10.42187 h -2.28125 z m -3.1875,-1.75 h 2.60937 l -1.3125,-3.89063 z m 9.45523,3.89062 h -2.15625 v -10.42187 h 2.15625 z m 13.05492,-8.6875 h -3.20313 v 8.6875 h -2.14062 v -8.6875 h -3.15625 v -1.73437 h 8.5 z m 4.00787,8.82813 q -1.70312,0 -2.78125,-1.04688 -1.0625,-1.04687 -1.0625,-2.78125 v -0.20312 q 0,-1.15625 0.45313,-2.07813 0.45312,-0.92187 1.26562,-1.42187 0.82813,-0.5 1.89063,-0.5 1.59375,0 2.5,1.01562 0.92187,1 0.92187,2.82813 v 0.84375 h -4.9375 q 0.10938,0.76562 0.60938,1.21875 0.5,0.45312 1.28125,0.45312 1.1875,0 1.85937,-0.85937 l 1.01563,1.14062 q -0.46875,0.65625 -1.26563,1.03125 -0.78125,0.35938 -1.75,0.35938 z m -0.23437,-6.35938 q -0.625,0 -1.01563,0.42188 -0.375,0.42187 -0.46875,1.1875 h 2.875 v -0.15625 q -0.0156,-0.6875 -0.375,-1.0625 -0.35937,-0.39063 -1.01562,-0.39063 z m 7.5471,0.78125 1.29687,-2.3125 h 2.20313 l -2.20313,3.79688 2.29688,3.95312 h -2.21875 l -1.375,-2.4375 -1.375,2.4375 h -2.21875 l 2.29687,-3.95312 -2.20312,-3.79688 h 2.21875 z m 6.97256,-4.20312 v 1.89062 h 1.32813 v 1.53125 h -1.32813 v 3.85938 q 0,0.42187 0.15625,0.60937 0.17188,0.1875 0.64063,0.1875 0.34375,0 0.60937,-0.0469 v 1.5625 q -0.60937,0.1875 -1.25,0.1875 -2.17187,0 -2.21875,-2.1875 v -4.17188 h -1.125 v -1.53125 h 1.125 v -1.89062 z"
     fill-rule="nonzero"
     id="path39" />
  <path
     fill="#000000"
     d="m 181.03351,411.74318 h -3.76563 l -0.71875,2.14062 h -2.28125 l 3.875,-10.42187 h 2 l 3.89063,10.42187 h -2.28125 z m -3.1875,-1.75 h 2.60937 l -1.3125,-3.89063 z m 9.45523,3.89062 h -2.15625 v -10.42187 h 2.15625 z m 7.9221,0 h -2.15625 v -10.42187 h 2.15625 z m 3.78798,-7.75 0.0625,0.875 q 0.82813,-1.01562 2.23438,-1.01562 1.48437,0 2.04687,1.1875 0.8125,-1.1875 2.32813,-1.1875 1.25,0 1.85937,0.73437 0.625,0.73438 0.625,2.21875 v 4.9375 h -2.07812 v -4.9375 q 0,-0.65625 -0.26563,-0.95312 -0.25,-0.3125 -0.89062,-0.3125 -0.9375,0 -1.29688,0.89062 l 0.0156,5.3125 h -2.07813 v -4.9375 q 0,-0.67187 -0.26562,-0.96875 -0.26563,-0.29687 -0.89063,-0.29687 -0.89062,0 -1.28125,0.73437 v 5.46875 h -2.0625 v -7.75 z m 15.23513,7.75 q -0.14063,-0.28125 -0.20313,-0.6875 -0.75,0.82813 -1.95312,0.82813 -1.14063,0 -1.89063,-0.65625 -0.75,-0.65625 -0.75,-1.65625 0,-1.23438 0.90625,-1.89063 0.92188,-0.65625 2.64063,-0.67187 h 0.95312 v -0.4375 q 0,-0.53125 -0.28125,-0.85938 -0.26562,-0.32812 -0.85937,-0.32812 -0.51563,0 -0.8125,0.25 -0.29688,0.25 -0.29688,0.6875 h -2.07812 q 0,-0.67188 0.40625,-1.23438 0.42187,-0.57812 1.17187,-0.90625 0.76563,-0.32812 1.71875,-0.32812 1.42188,0 2.26563,0.71875 0.84375,0.71875 0.84375,2.03125 v 3.34375 q 0.0156,1.10937 0.3125,1.67187 v 0.125 z m -1.70313,-1.4375 q 0.45313,0 0.82813,-0.20312 0.39062,-0.20313 0.57812,-0.54688 v -1.32812 h -0.76562 q -1.5625,0 -1.65625,1.0625 v 0.125 q 0,0.39062 0.26562,0.64062 0.26563,0.25 0.75,0.25 z m 4.77957,-2.48437 q 0,-1.78125 0.84375,-2.875 0.84375,-1.09375 2.28125,-1.09375 1.28125,0 1.98438,0.875 l 0.0937,-0.73438 h 1.875 v 7.5 q 0,1.01563 -0.46875,1.76563 -0.46875,0.75 -1.3125,1.14062 -0.82813,0.39063 -1.95313,0.39063 -0.84375,0 -1.65625,-0.34375 -0.8125,-0.32813 -1.21875,-0.875 l 0.90625,-1.25 q 0.78125,0.85937 1.875,0.85937 0.82813,0 1.28125,-0.4375 0.46875,-0.4375 0.46875,-1.25 v -0.42187 q -0.71875,0.8125 -1.89062,0.8125 -1.39063,0 -2.25,-1.09375 -0.85938,-1.09375 -0.85938,-2.89063 z m 2.0625,0.14062 q 0,1.04688 0.42188,1.65625 0.42187,0.59375 1.15625,0.59375 0.95312,0 1.35937,-0.70312 v -3.26563 q -0.42187,-0.70312 -1.34375,-0.70312 -0.75,0 -1.17187,0.60937 -0.42188,0.60938 -0.42188,1.8125 z m 10.16268,3.92188 q -1.70313,0 -2.78125,-1.04688 -1.0625,-1.04687 -1.0625,-2.78125 v -0.20312 q 0,-1.15625 0.45312,-2.07813 0.45313,-0.92187 1.26563,-1.42187 0.82812,-0.5 1.89062,-0.5 1.59375,0 2.5,1.01562 0.92188,1 0.92188,2.82813 v 0.84375 h -4.9375 q 0.10937,0.76562 0.60937,1.21875 0.5,0.45312 1.28125,0.45312 1.1875,0 1.85938,-0.85937 l 1.01562,1.14062 q -0.46875,0.65625 -1.26562,1.03125 -0.78125,0.35938 -1.75,0.35938 z m -0.23438,-6.35938 q -0.625,0 -1.01562,0.42188 -0.375,0.42187 -0.46875,1.1875 h 2.875 v -0.15625 q -0.0156,-0.6875 -0.375,-1.0625 -0.35938,-0.39063 -1.01563,-0.39063 z"
     fill-rule="nonzero"
     id="path43" />
  <path
     fill="#000000"
     d="m 178.86353,541.0096 h -3.76563 l -0.71875,2.14063 h -2.28125 l 3.875,-10.42188 h 2 l 3.89063,10.42188 h -2.28125 z m -3.1875,-1.75 h 2.60937 l -1.3125,-3.89062 z m 9.45523,3.89063 h -2.15625 v -10.42188 h 2.15625 z m 8.43773,-10.42188 2.67187,7.5625 2.67188,-7.5625 h 2.8125 v 10.42188 h -2.15625 v -2.84375 l 0.21875,-4.92188 -2.8125,7.76563 h -1.46875 l -2.8125,-7.75 0.21875,4.90625 v 2.84375 h -2.14063 v -10.42188 z m 14.54166,9.64063 q -0.76563,0.92187 -2.125,0.92187 -1.25,0 -1.90625,-0.70312 -0.64063,-0.71875 -0.65625,-2.10938 v -5.07812 h 2.0625 v 5.01562 q 0,1.20313 1.10937,1.20313 1.04688,0 1.4375,-0.73438 v -5.48437 h 2.07813 v 7.75 h -1.95313 z m 7.74807,-1.35938 q 0,-0.375 -0.375,-0.59375 -0.375,-0.21875 -1.20312,-0.39062 -2.76563,-0.57813 -2.76563,-2.34375 0,-1.03125 0.85938,-1.71875 0.85937,-0.70313 2.23437,-0.70313 1.46875,0 2.35938,0.70313 0.89062,0.6875 0.89062,1.79687 h -2.07812 q 0,-0.4375 -0.28125,-0.71875 -0.28125,-0.29687 -0.89063,-0.29687 -0.53125,0 -0.8125,0.23437 -0.28125,0.23438 -0.28125,0.59375 0,0.34375 0.3125,0.5625 0.32813,0.20313 1.09375,0.35938 0.78125,0.15625 1.3125,0.34375 1.64063,0.60937 1.64063,2.09375 0,1.04687 -0.90625,1.70312 -0.90625,0.65625 -2.34375,0.65625 -0.98438,0 -1.73438,-0.34375 -0.75,-0.34375 -1.1875,-0.95312 -0.42187,-0.60938 -0.42187,-1.3125 h 1.95312 q 0.0312,0.5625 0.40625,0.85937 0.39063,0.28125 1.01563,0.28125 0.59375,0 0.89062,-0.21875 0.3125,-0.23437 0.3125,-0.59375 z m 5.53566,2.14063 h -2.07812 v -7.75 h 2.07812 z m -2.20312,-9.75 q 0,-0.46875 0.3125,-0.76563 0.3125,-0.29687 0.84375,-0.29687 0.53125,0 0.84375,0.29687 0.3125,0.29688 0.3125,0.76563 0,0.46875 -0.3125,0.78125 -0.3125,0.29687 -0.84375,0.29687 -0.51563,0 -0.84375,-0.29687 -0.3125,-0.3125 -0.3125,-0.78125 z m 7.12028,8.21875 q 0.57813,0 0.92188,-0.3125 0.35937,-0.3125 0.375,-0.82813 h 1.9375 q 0,0.78125 -0.42188,1.4375 -0.42187,0.65625 -1.15625,1.01563 -0.73437,0.35937 -1.625,0.35937 -1.65625,0 -2.625,-1.04687 -0.95312,-1.0625 -0.95312,-2.92188 v -0.14062 q 0,-1.78125 0.95312,-2.84375 0.95313,-1.07813 2.60938,-1.07813 1.45312,0 2.32812,0.82813 0.89063,0.82812 0.89063,2.20312 h -1.9375 q -0.0156,-0.59375 -0.375,-0.96875 -0.34375,-0.39062 -0.9375,-0.39062 -0.71875,0 -1.09375,0.53125 -0.35938,0.53125 -0.35938,1.70312 v 0.21875 q 0,1.20313 0.35938,1.71875 0.35937,0.51563 1.10937,0.51563 z"
     fill-rule="nonzero"
     id="path47" />
  <path
     fill="#000000"
     d="m 178.64492,680.4597 h -3.76563 l -0.71875,2.14063 h -2.28125 l 3.875,-10.42188 h 2 l 3.89063,10.42188 h -2.28125 z m -3.1875,-1.75 h 2.60937 l -1.3125,-3.89062 z m 9.45523,3.89063 h -2.15625 v -10.42188 h 2.15625 z m 11.90648,-4.51563 h -4.125 v 2.79688 h 4.84375 v 1.71875 h -6.98438 v -10.42188 h 6.96875 v 1.73438 h -4.82812 v 2.48437 h 4.125 z m 4.30664,-5.125 v 1.89063 h 1.32813 v 1.53125 h -1.32813 v 3.85937 q 0,0.42188 0.15625,0.60938 0.17188,0.1875 0.64063,0.1875 0.34375,0 0.60937,-0.0469 v 1.5625 q -0.60937,0.1875 -1.25,0.1875 -2.17187,0 -2.21875,-2.1875 v -4.17187 h -1.125 v -1.53125 h 1.125 v -1.89063 z m 4.49909,2.73438 q 0.82812,-0.98438 2.0625,-0.98438 2.53125,0 2.5625,2.9375 v 4.95313 h -2.0625 v -4.90625 q 0,-0.65625 -0.29688,-0.96875 -0.28125,-0.32813 -0.95312,-0.32813 -0.90625,0 -1.3125,0.70313 v 5.5 h -2.0625 v -11 h 2.0625 z m 8.37307,6.90625 h -2.07812 v -7.75 h 2.07812 z m -2.20312,-9.75 q 0,-0.46875 0.3125,-0.76563 0.3125,-0.29687 0.84375,-0.29687 0.53125,0 0.84375,0.29687 0.3125,0.29688 0.3125,0.76563 0,0.46875 -0.3125,0.78125 -0.3125,0.29687 -0.84375,0.29687 -0.51563,0 -0.84375,-0.29687 -0.3125,-0.3125 -0.3125,-0.78125 z m 7.12028,8.21875 q 0.57813,0 0.92188,-0.3125 0.35937,-0.3125 0.375,-0.82813 h 1.9375 q 0,0.78125 -0.42188,1.4375 -0.42187,0.65625 -1.15625,1.01563 -0.73437,0.35937 -1.625,0.35937 -1.65625,0 -2.625,-1.04687 -0.95312,-1.0625 -0.95312,-2.92188 v -0.14062 q 0,-1.78125 0.95312,-2.84375 0.95313,-1.07813 2.60938,-1.07813 1.45312,0 2.32812,0.82813 0.89063,0.82812 0.89063,2.20312 h -1.9375 q -0.0156,-0.59375 -0.375,-0.96875 -0.34375,-0.39062 -0.9375,-0.39062 -0.71875,0 -1.09375,0.53125 -0.35938,0.53125 -0.35938,1.70312 v 0.21875 q 0,1.20313 0.35938,1.71875 0.35937,0.51563 1.10937,0.51563 z m 8.61176,-0.60938 q 0,-0.375 -0.375,-0.59375 -0.375,-0.21875 -1.20313,-0.39062 -2.76562,-0.57813 -2.76562,-2.34375 0,-1.03125 0.85937,-1.71875 0.85938,-0.70313 2.23438,-0.70313 1.46875,0 2.35937,0.70313 0.89063,0.6875 0.89063,1.79687 h -2.07813 q 0,-0.4375 -0.28125,-0.71875 -0.28125,-0.29687 -0.89062,-0.29687 -0.53125,0 -0.8125,0.23437 -0.28125,0.23438 -0.28125,0.59375 0,0.34375 0.3125,0.5625 0.32812,0.20313 1.09375,0.35938 0.78125,0.15625 1.3125,0.34375 1.64062,0.60937 1.64062,2.09375 0,1.04687 -0.90625,1.70312 -0.90625,0.65625 -2.34375,0.65625 -0.98437,0 -1.73437,-0.34375 -0.75,-0.34375 -1.1875,-0.95312 -0.42188,-0.60938 -0.42188,-1.3125 h 1.95313 q 0.0312,0.5625 0.40625,0.85937 0.39062,0.28125 1.01562,0.28125 0.59375,0 0.89063,-0.21875 0.3125,-0.23437 0.3125,-0.59375 z"
     fill-rule="nonzero"
     id="path51" />
  <path
     fill="#000000"
     d="m 172.76992,700.20033 v -10.42187 h 3.20312 q 1.375,0 2.45313,0.625 1.07812,0.60937 1.6875,1.75 0.60937,1.14062 0.60937,2.59375 v 0.48437 q 0,1.45313 -0.59375,2.59375 -0.59375,1.125 -1.6875,1.75 -1.07812,0.625 -2.45312,0.625 z m 2.14062,-8.6875 v 6.96875 h 1.03125 q 1.26563,0 1.92188,-0.82812 0.67187,-0.82813 0.6875,-2.35938 v -0.54687 q 0,-1.59375 -0.65625,-2.40625 -0.65625,-0.82813 -1.92188,-0.82813 z m 9.43139,8.6875 h -2.07813 v -7.75 h 2.07813 z m -2.20313,-9.75 q 0,-0.46875 0.3125,-0.76562 0.3125,-0.29688 0.84375,-0.29688 0.53125,0 0.84375,0.29688 0.3125,0.29687 0.3125,0.76562 0,0.46875 -0.3125,0.78125 -0.3125,0.29688 -0.84375,0.29688 -0.51562,0 -0.84375,-0.29688 -0.3125,-0.3125 -0.3125,-0.78125 z m 8.08904,7.60938 q 0,-0.375 -0.375,-0.59375 -0.375,-0.21875 -1.20313,-0.39063 -2.76562,-0.57812 -2.76562,-2.34375 0,-1.03125 0.85937,-1.71875 0.85938,-0.70312 2.23438,-0.70312 1.46875,0 2.35937,0.70312 0.89063,0.6875 0.89063,1.79688 h -2.07813 q 0,-0.4375 -0.28125,-0.71875 -0.28125,-0.29688 -0.89062,-0.29688 -0.53125,0 -0.8125,0.23438 -0.28125,0.23437 -0.28125,0.59375 0,0.34375 0.3125,0.5625 0.32812,0.20312 1.09375,0.35937 0.78125,0.15625 1.3125,0.34375 1.64062,0.60938 1.64062,2.09375 0,1.04688 -0.90625,1.70313 -0.90625,0.65625 -2.34375,0.65625 -0.98437,0 -1.73437,-0.34375 -0.75,-0.34375 -1.1875,-0.95313 -0.42188,-0.60937 -0.42188,-1.3125 h 1.95313 q 0.0312,0.5625 0.40625,0.85938 0.39062,0.28125 1.01562,0.28125 0.59375,0 0.89063,-0.21875 0.3125,-0.23438 0.3125,-0.59375 z m 6.56691,0.60937 q 0.57812,0 0.92187,-0.3125 0.35938,-0.3125 0.375,-0.82812 h 1.9375 q 0,0.78125 -0.42187,1.4375 -0.42188,0.65625 -1.15625,1.01562 -0.73438,0.35938 -1.625,0.35938 -1.65625,0 -2.625,-1.04688 -0.95313,-1.0625 -0.95313,-2.92187 v -0.14063 q 0,-1.78125 0.95313,-2.84375 0.95312,-1.07812 2.60937,-1.07812 1.45313,0 2.32813,0.82812 0.89062,0.82813 0.89062,2.20313 h -1.9375 q -0.0156,-0.59375 -0.375,-0.96875 -0.34375,-0.39063 -0.9375,-0.39063 -0.71875,0 -1.09375,0.53125 -0.35937,0.53125 -0.35937,1.70313 v 0.21875 q 0,1.20312 0.35937,1.71875 0.35938,0.51562 1.10938,0.51562 z m 9.06488,0.75 q -0.76563,0.92188 -2.125,0.92188 -1.25,0 -1.90625,-0.70313 -0.64063,-0.71875 -0.65625,-2.10937 v -5.07813 h 2.0625 v 5.01563 q 0,1.20312 1.10937,1.20312 1.04688,0 1.4375,-0.73437 v -5.48438 h 2.07813 v 7.75 h -1.95313 z m 7.74807,-1.35937 q 0,-0.375 -0.375,-0.59375 -0.375,-0.21875 -1.20312,-0.39063 -2.76563,-0.57812 -2.76563,-2.34375 0,-1.03125 0.85938,-1.71875 0.85937,-0.70312 2.23437,-0.70312 1.46875,0 2.35938,0.70312 0.89062,0.6875 0.89062,1.79688 h -2.07812 q 0,-0.4375 -0.28125,-0.71875 -0.28125,-0.29688 -0.89063,-0.29688 -0.53125,0 -0.8125,0.23438 -0.28125,0.23437 -0.28125,0.59375 0,0.34375 0.3125,0.5625 0.32813,0.20312 1.09375,0.35937 0.78125,0.15625 1.3125,0.34375 1.64063,0.60938 1.64063,2.09375 0,1.04688 -0.90625,1.70313 -0.90625,0.65625 -2.34375,0.65625 -0.98438,0 -1.73438,-0.34375 -0.75,-0.34375 -1.1875,-0.95313 -0.42187,-0.60937 -0.42187,-1.3125 h 1.95312 q 0.0312,0.5625 0.40625,0.85938 0.39063,0.28125 1.01563,0.28125 0.59375,0 0.89062,-0.21875 0.3125,-0.23438 0.3125,-0.59375 z m 7.53566,0 q 0,-0.375 -0.375,-0.59375 -0.375,-0.21875 -1.20312,-0.39063 -2.76563,-0.57812 -2.76563,-2.34375 0,-1.03125 0.85938,-1.71875 0.85937,-0.70312 2.23437,-0.70312 1.46875,0 2.35938,0.70312 0.89062,0.6875 0.89062,1.79688 h -2.07812 q 0,-0.4375 -0.28125,-0.71875 -0.28125,-0.29688 -0.89063,-0.29688 -0.53125,0 -0.8125,0.23438 -0.28125,0.23437 -0.28125,0.59375 0,0.34375 0.3125,0.5625 0.32813,0.20312 1.09375,0.35937 0.78125,0.15625 1.3125,0.34375 1.64063,0.60938 1.64063,2.09375 0,1.04688 -0.90625,1.70313 -0.90625,0.65625 -2.34375,0.65625 -0.98438,0 -1.73438,-0.34375 -0.75,-0.34375 -1.1875,-0.95313 -0.42187,-0.60937 -0.42187,-1.3125 h 1.95312 q 0.0312,0.5625 0.40625,0.85938 0.39063,0.28125 1.01563,0.28125 0.59375,0 0.89062,-0.21875 0.3125,-0.23438 0.3125,-0.59375 z m 5.53566,2.14062 h -2.07812 v -7.75 h 2.07812 z m -2.20312,-9.75 q 0,-0.46875 0.3125,-0.76562 0.3125,-0.29688 0.84375,-0.29688 0.53125,0 0.84375,0.29688 0.3125,0.29687 0.3125,0.76562 0,0.46875 -0.3125,0.78125 -0.3125,0.29688 -0.84375,0.29688 -0.51563,0 -0.84375,-0.29688 -0.3125,-0.3125 -0.3125,-0.78125 z m 3.57341,5.8125 q 0,-1.15625 0.4375,-2.0625 0.45312,-0.90625 1.28125,-1.39062 0.84375,-0.5 1.9375,-0.5 1.57812,0 2.5625,0.96875 0.98437,0.95312 1.10937,2.59375 l 0.0156,0.53125 q 0,1.78125 -1,2.85937 -1,1.07813 -2.67188,1.07813 -1.67187,0 -2.67187,-1.0625 -1,-1.07813 -1,-2.92188 z m 2.07812,0.14063 q 0,1.10937 0.40625,1.6875 0.42188,0.57812 1.1875,0.57812 0.75,0 1.17188,-0.5625 0.42187,-0.57812 0.42187,-1.84375 0,-1.09375 -0.42187,-1.6875 -0.42188,-0.59375 -1.1875,-0.59375 -0.75,0 -1.17188,0.59375 -0.40625,0.59375 -0.40625,1.82813 z m 8.44333,-3.95313 0.0625,0.90625 q 0.82813,-1.04687 2.21875,-1.04687 1.23438,0 1.82813,0.73437 0.60937,0.71875 0.625,2.15625 v 5 h -2.0625 v -4.95312 q 0,-0.65625 -0.29688,-0.95313 -0.28125,-0.29687 -0.95312,-0.29687 -0.875,0 -1.3125,0.75 v 5.45312 h -2.0625 v -7.75 z"
     fill-rule="nonzero"
     id="path53" />
  <path
     fill="#000000"
     d="m 181.12591,785.24025 h -4.125 v 4.26562 h -2.14063 V 779.084 h 6.78125 v 1.73437 h -4.64062 v 2.70313 h 4.125 z m 5.03531,4.40625 q -1.70313,0 -2.78125,-1.04688 -1.0625,-1.04687 -1.0625,-2.78125 v -0.20312 q 0,-1.15625 0.45312,-2.07813 0.45313,-0.92187 1.26563,-1.42187 0.82812,-0.5 1.89062,-0.5 1.59375,0 2.5,1.01562 0.92188,1 0.92188,2.82813 v 0.84375 h -4.9375 q 0.10937,0.76562 0.60937,1.21875 0.5,0.45312 1.28125,0.45312 1.1875,0 1.85938,-0.85937 l 1.01562,1.14062 q -0.46875,0.65625 -1.26562,1.03125 -0.78125,0.35938 -1.75,0.35938 z m -0.23438,-6.35938 q -0.625,0 -1.01562,0.42188 -0.375,0.42187 -0.46875,1.1875 h 2.875 v -0.15625 q -0.0156,-0.6875 -0.375,-1.0625 -0.35938,-0.39063 -1.01563,-0.39063 z m 8.15648,6.35938 q -1.70312,0 -2.78125,-1.04688 -1.0625,-1.04687 -1.0625,-2.78125 v -0.20312 q 0,-1.15625 0.45313,-2.07813 0.45312,-0.92187 1.26562,-1.42187 0.82813,-0.5 1.89063,-0.5 1.59375,0 2.5,1.01562 0.92187,1 0.92187,2.82813 v 0.84375 h -4.9375 q 0.10938,0.76562 0.60938,1.21875 0.5,0.45312 1.28125,0.45312 1.1875,0 1.85937,-0.85937 l 1.01563,1.14062 q -0.46875,0.65625 -1.26563,1.03125 -0.78125,0.35938 -1.75,0.35938 z m -0.23437,-6.35938 q -0.625,0 -1.01563,0.42188 -0.375,0.42187 -0.46875,1.1875 h 2.875 v -0.15625 q -0.0156,-0.6875 -0.375,-1.0625 -0.35937,-0.39063 -1.01562,-0.39063 z m 4.26585,2.29688 q 0,-1.8125 0.8125,-2.89063 0.8125,-1.07812 2.21875,-1.07812 1.14063,0 1.875,0.84375 v -3.95313 h 2.07813 v 11 h -1.875 l -0.0937,-0.82812 q -0.78125,0.96875 -1.98438,0.96875 -1.375,0 -2.20312,-1.07813 -0.82813,-1.07812 -0.82813,-2.98437 z m 2.07813,0.14062 q 0,1.09375 0.375,1.67188 0.375,0.57812 1.09375,0.57812 0.96875,0 1.35937,-0.8125 v -3.04687 q -0.39062,-0.8125 -1.34375,-0.8125 -1.48437,0 -1.48437,2.42187 z m 13.4772,-0.0156 q 0,1.85937 -0.79688,2.90625 -0.78125,1.03125 -2.20312,1.03125 -1.26563,0 -2.01563,-0.96875 l -0.0937,0.82812 h -1.85937 v -11 h 2.0625 v 3.95313 q 0.71875,-0.84375 1.89062,-0.84375 1.40625,0 2.20313,1.04687 0.8125,1.04688 0.8125,2.92188 z m -2.0625,-0.15625 q 0,-1.17188 -0.375,-1.70313 -0.375,-0.54687 -1.10938,-0.54687 -0.98437,0 -1.35937,0.8125 v 3.04687 q 0.375,0.8125 1.375,0.8125 1,0 1.3125,-0.98437 0.15625,-0.46875 0.15625,-1.4375 z m 7.82942,3.95312 q -0.14062,-0.28125 -0.20312,-0.6875 -0.75,0.82813 -1.95313,0.82813 -1.14062,0 -1.89062,-0.65625 -0.75,-0.65625 -0.75,-1.65625 0,-1.23438 0.90625,-1.89063 0.92187,-0.65625 2.64062,-0.67187 h 0.95313 v -0.4375 q 0,-0.53125 -0.28125,-0.85938 -0.26563,-0.32812 -0.85938,-0.32812 -0.51562,0 -0.8125,0.25 -0.29687,0.25 -0.29687,0.6875 h -2.07813 q 0,-0.67188 0.40625,-1.23438 0.42188,-0.57812 1.17188,-0.90625 0.76562,-0.32812 1.71875,-0.32812 1.42187,0 2.26562,0.71875 0.84375,0.71875 0.84375,2.03125 v 3.34375 q 0.0156,1.10937 0.3125,1.67187 v 0.125 z m -1.70312,-1.4375 q 0.45312,0 0.82812,-0.20312 0.39063,-0.20313 0.57813,-0.54688 v -1.32812 h -0.76563 q -1.5625,0 -1.65625,1.0625 v 0.125 q 0,0.39062 0.26563,0.64062 0.26562,0.25 0.75,0.25 z m 8.29519,-0.0937 q 0.57813,0 0.92188,-0.3125 0.35937,-0.3125 0.375,-0.82812 h 1.9375 q 0,0.78125 -0.42188,1.4375 -0.42187,0.65625 -1.15625,1.01562 -0.73437,0.35938 -1.625,0.35938 -1.65625,0 -2.625,-1.04688 -0.95312,-1.0625 -0.95312,-2.92187 v -0.14063 q 0,-1.78125 0.95312,-2.84375 0.95313,-1.07812 2.60938,-1.07812 1.45312,0 2.32812,0.82812 0.89063,0.82813 0.89063,2.20313 h -1.9375 q -0.0156,-0.59375 -0.375,-0.96875 -0.34375,-0.39063 -0.9375,-0.39063 -0.71875,0 -1.09375,0.53125 -0.35938,0.53125 -0.35938,1.70313 v 0.21875 q 0,1.20312 0.35938,1.71875 0.35937,0.51562 1.10937,0.51562 z m 7.23676,-1.57812 -0.75,0.75 v 2.35937 h -2.0625 v -11 h 2.0625 v 6.09375 l 0.40625,-0.51562 1.98437,-2.32813 h 2.48438 l -2.79688,3.23438 3.03125,4.51562 h -2.375 z m 14.19756,0.375 q 0,-0.60938 -0.4375,-0.9375 -0.42188,-0.32813 -1.54688,-0.6875 -1.10937,-0.35938 -1.75,-0.70313 -1.78125,-0.96875 -1.78125,-2.59375 0,-0.84375 0.46875,-1.5 0.48438,-0.65625 1.375,-1.03125 0.89063,-0.375 2,-0.375 1.125,0 1.98438,0.40625 0.875,0.40625 1.35937,1.14063 0.48438,0.73437 0.48438,1.67187 h -2.14063 q 0,-0.71875 -0.45312,-1.10937 -0.45313,-0.40625 -1.26563,-0.40625 -0.79687,0 -1.23437,0.34375 -0.42188,0.32812 -0.42188,0.875 0,0.5 0.5,0.84375 0.51563,0.34375 1.51563,0.65625 1.82812,0.54687 2.65625,1.35937 0.84375,0.8125 0.84375,2.03125 0,1.35938 -1.03125,2.125 -1.01563,0.76563 -2.75,0.76563 -1.20313,0 -2.1875,-0.4375 -0.98438,-0.4375 -1.5,-1.20313 -0.51563,-0.76562 -0.51563,-1.78125 h 2.14063 q 0,1.73438 2.0625,1.73438 0.76562,0 1.1875,-0.3125 0.4375,-0.3125 0.4375,-0.875 z m 8.11926,1.95312 q -0.76563,0.92188 -2.125,0.92188 -1.25,0 -1.90625,-0.70313 -0.64063,-0.71875 -0.65625,-2.10937 v -5.07813 h 2.0625 v 5.01563 q 0,1.20312 1.10937,1.20312 1.04688,0 1.4375,-0.73437 v -5.48438 h 2.07813 v 7.75 h -1.95313 z m 7.90433,-5.01562 q -0.42188,-0.0625 -0.73438,-0.0625 -1.17187,0 -1.54687,0.79687 v 5.0625 h -2.0625 v -7.75 h 1.95312 l 0.0625,0.9375 q 0.60938,-1.07812 1.71875,-1.07812 0.34375,0 0.64063,0.0937 z m 4.02157,3.26562 1.4375,-5.21875 h 2.17188 l -2.60938,7.75 h -1.98437 l -2.60938,-7.75 h 2.15625 z m 7.98563,2.67188 q -1.70313,0 -2.78125,-1.04688 -1.0625,-1.04687 -1.0625,-2.78125 v -0.20312 q 0,-1.15625 0.45312,-2.07813 0.45313,-0.92187 1.26563,-1.42187 0.82812,-0.5 1.89062,-0.5 1.59375,0 2.5,1.01562 0.92188,1 0.92188,2.82813 v 0.84375 h -4.9375 q 0.10937,0.76562 0.60937,1.21875 0.5,0.45312 1.28125,0.45312 1.1875,0 1.85938,-0.85937 l 1.01562,1.14062 q -0.46875,0.65625 -1.26562,1.03125 -0.78125,0.35938 -1.75,0.35938 z m -0.23438,-6.35938 q -0.625,0 -1.01562,0.42188 -0.375,0.42187 -0.46875,1.1875 h 2.875 v -0.15625 q -0.0156,-0.6875 -0.375,-1.0625 -0.35938,-0.39063 -1.01563,-0.39063 z m 7.39151,3.29688 1.42188,-4.82813 h 2.21875 l -3.10938,8.95313 -0.17187,0.40625 q -0.6875,1.51562 -2.28125,1.51562 -0.45313,0 -0.92188,-0.14062 v -1.5625 l 0.3125,0.0156 q 0.59375,0 0.875,-0.1875 0.29688,-0.17187 0.45313,-0.59375 l 0.25,-0.64062 -2.71875,-7.76563 h 2.23437 z"
     fill-rule="nonzero"
     id="path57" />
  <path
     fill="#000000"
     d="m 181.57097,618.1352 h -4.125 v 4.26562 h -2.14063 v -10.42187 h 6.78125 v 1.73437 h -4.64062 v 2.70313 h 4.125 z m 3.8107,4.26562 h -2.07813 v -7.75 h 2.07813 z m -2.20313,-9.75 q 0,-0.46875 0.3125,-0.76562 0.3125,-0.29688 0.84375,-0.29688 0.53125,0 0.84375,0.29688 0.3125,0.29687 0.3125,0.76562 0,0.46875 -0.3125,0.78125 -0.3125,0.29688 -0.84375,0.29688 -0.51562,0 -0.84375,-0.29688 -0.3125,-0.3125 -0.3125,-0.78125 z m 6.08904,9.75 h -2.07813 v -11 h 2.07813 z m 3.63591,-7.75 0.0625,0.875 q 0.82812,-1.01562 2.23437,-1.01562 1.48438,0 2.04688,1.1875 0.8125,-1.1875 2.32812,-1.1875 1.25,0 1.85938,0.73437 0.625,0.73438 0.625,2.21875 v 4.9375 h -2.07813 v -4.9375 q 0,-0.65625 -0.26562,-0.95312 -0.25,-0.3125 -0.89063,-0.3125 -0.9375,0 -1.29687,0.89062 l 0.0156,5.3125 h -2.07812 v -4.9375 q 0,-0.67187 -0.26563,-0.96875 -0.26562,-0.29687 -0.89062,-0.29687 -0.89063,0 -1.28125,0.73437 v 5.46875 h -2.0625 v -7.75 z m 18.38487,3.9375 h -1.70312 v 3.8125 h -2.14063 v -10.42187 h 3.85938 q 1.84375,0 2.84375,0.82812 1.01562,0.8125 1.01562,2.32813 0,1.0625 -0.46875,1.78125 -0.45312,0.70312 -1.39062,1.125 l 2.25,4.26562 v 0.0937 h -2.3125 z m -1.70312,-1.73437 h 1.73437 q 0.8125,0 1.25,-0.40625 0.4375,-0.42188 0.4375,-1.14063 0,-0.75 -0.42187,-1.17187 -0.40625,-0.42188 -1.28125,-0.42188 h -1.71875 z m 10.63462,5.6875 q -1.70312,0 -2.78125,-1.04688 -1.0625,-1.04687 -1.0625,-2.78125 v -0.20312 q 0,-1.15625 0.45313,-2.07813 0.45312,-0.92187 1.26562,-1.42187 0.82813,-0.5 1.89063,-0.5 1.59375,0 2.5,1.01562 0.92187,1 0.92187,2.82813 v 0.84375 h -4.9375 q 0.10938,0.76562 0.60938,1.21875 0.5,0.45312 1.28125,0.45312 1.1875,0 1.85937,-0.85937 l 1.01563,1.14062 q -0.46875,0.65625 -1.26563,1.03125 -0.78125,0.35938 -1.75,0.35938 z m -0.23437,-6.35938 q -0.625,0 -1.01563,0.42188 -0.375,0.42187 -0.46875,1.1875 h 2.875 v -0.15625 q -0.0156,-0.6875 -0.375,-1.0625 -0.35937,-0.39063 -1.01562,-0.39063 z m 7.39151,3.6875 1.4375,-5.21875 h 2.17187 l -2.60937,7.75 h -1.98438 l -2.60937,-7.75 h 2.15625 z m 6.70372,2.53125 h -2.07813 v -7.75 h 2.07813 z m -2.20313,-9.75 q 0,-0.46875 0.3125,-0.76562 0.3125,-0.29688 0.84375,-0.29688 0.53125,0 0.84375,0.29688 0.3125,0.29687 0.3125,0.76562 0,0.46875 -0.3125,0.78125 -0.3125,0.29688 -0.84375,0.29688 -0.51562,0 -0.84375,-0.29688 -0.3125,-0.3125 -0.3125,-0.78125 z m 7.46404,9.89063 q -1.70313,0 -2.78125,-1.04688 -1.0625,-1.04687 -1.0625,-2.78125 v -0.20312 q 0,-1.15625 0.45312,-2.07813 0.45313,-0.92187 1.26563,-1.42187 0.82812,-0.5 1.89062,-0.5 1.59375,0 2.5,1.01562 0.92188,1 0.92188,2.82813 v 0.84375 h -4.9375 q 0.10937,0.76562 0.60937,1.21875 0.5,0.45312 1.28125,0.45312 1.1875,0 1.85938,-0.85937 l 1.01562,1.14062 q -0.46875,0.65625 -1.26562,1.03125 -0.78125,0.35938 -1.75,0.35938 z m -0.23438,-6.35938 q -0.625,0 -1.01562,0.42188 -0.375,0.42187 -0.46875,1.1875 h 2.875 v -0.15625 q -0.0156,-0.6875 -0.375,-1.0625 -0.35938,-0.39063 -1.01563,-0.39063 z m 11.32837,3.40625 1.01563,-4.9375 h 2 l -1.98438,7.75 h -1.73437 l -1.45313,-4.875 -1.46875,4.875 h -1.73437 l -1.96875,-7.75 h 2 l 1,4.9375 1.42187,-4.9375 h 1.5 z"
     fill-rule="nonzero"
     id="path61" />
  <path
     fill="#000000"
     d="m 27.537458,97.765798 h -2.9375 v -6.09375 h -5.703125 v 6.09375 h -2.937502 v -14.21875 h 2.937502 v 5.76562 h 5.703125 v -5.76562 h 2.9375 z m 8.693359,-1.07813 q -1.03125,1.28125 -2.890625,1.28125 -1.6875,0 -2.59375,-0.98437 -0.890625,-0.98438 -0.90625,-2.85938 v -6.92187 h 2.828125 v 6.82812 q 0,1.64063 1.5,1.64063 1.4375,0 1.96875,-1 v -7.46875 h 2.828125 v 10.5625 h -2.65625 z m 7.519531,-9.48437 0.07813,1.17187 q 1.125,-1.375 3.046875,-1.375 2.031246,0 2.796871,1.60938 1.109375,-1.60938 3.171875,-1.60938 1.71875,0 2.5625,1 0.84375,1 0.84375,3.01563 v 6.75 h -2.828125 v -6.73438 q 0,-0.90625 -0.359375,-1.3125 -0.34375,-0.42187 -1.234375,-0.42187 -1.28125,0 -1.765625,1.21875 l 0.01563,7.25 h -2.828131 v -6.73438 q 0,-0.90625 -0.359375,-1.3125 -0.359375,-0.42187 -1.234375,-0.42187 -1.203125,0 -1.734375,1 v 7.46875 h -2.828125 v -10.5625 z m 20.7832,10.5625 q -0.1875,-0.375 -0.28125,-0.95313 -1.015625,1.15625 -2.65625,1.15625 -1.5625,0 -2.578125,-0.90625 -1.015625,-0.90625 -1.015625,-2.26562 0,-1.6875 1.234375,-2.57813 1.25,-0.90625 3.609375,-0.90625 h 1.296875 v -0.60937 q 0,-0.73438 -0.375,-1.17188 -0.375,-0.4375 -1.1875,-0.4375 -0.71875,0 -1.125,0.34375 -0.40625,0.34375 -0.40625,0.9375 h -2.8125 q 0,-0.92187 0.5625,-1.70312 0.5625,-0.78125 1.59375,-1.21875 1.046875,-0.45313 2.328125,-0.45313 1.953125,0 3.09375,0.98438 1.15625,0.98437 1.15625,2.76562 v 4.57813 q 0.01563,1.5 0.421875,2.26562 v 0.17188 z m -2.328125,-1.96875 q 0.625,0 1.140625,-0.26563 0.53125,-0.28125 0.796875,-0.75 v -1.82812 h -1.0625 q -2.109375,0 -2.25,1.46875 l -0.01563,0.17187 q 0,0.53125 0.375,0.875 0.375,0.32813 1.015625,0.32813 z m 9.535156,-8.59375 0.07813,1.21875 q 1.140625,-1.42188 3.046875,-1.42188 1.671875,0 2.484375,0.98438 0.828125,0.98437 0.84375,2.95312 v 6.82813 h -2.8125 v -6.76563 q 0,-0.89062 -0.390625,-1.29687 -0.390625,-0.40625 -1.296875,-0.40625 -1.203125,0 -1.796875,1.01562 v 7.45313 h -2.8125 v -10.5625 z m 25.322269,10.5625 h -2.92188 l -5.70312,-9.35938 v 9.35938 h -2.9375 v -14.21875 h 2.9375 l 5.70312,9.375 v -9.375 h 2.92188 z m 7.246092,0.20312 q -2.32812,0 -3.79687,-1.42187 -1.453132,-1.4375 -1.453132,-3.8125 v -0.26563 q 0,-1.59375 0.60938,-2.84375 0.625002,-1.26562 1.750002,-1.9375 1.125,-0.6875 2.57812,-0.6875 2.15625,0 3.40625,1.375 1.25,1.35938 1.25,3.875 v 1.15625 h -6.73437 q 0.14062,1.03125 0.82812,1.65625 0.6875,0.625 1.75,0.625 1.625,0 2.54688,-1.1875 l 1.375,1.5625 q -0.625,0.89063 -1.71875,1.40625 -1.07813,0.5 -2.39063,0.5 z m -0.32812,-8.6875 q -0.84375,0 -1.375,0.57813 -0.51563,0.5625 -0.65625,1.60937 h 3.92187 v -0.21875 q -0.0156,-0.9375 -0.5,-1.45312 -0.48437,-0.51563 -1.39062,-0.51563 z m 12.5918,7.40625 q -1.03125,1.28125 -2.89062,1.28125 -1.68751,0 -2.59376,-0.98437 -0.89063,-0.98438 -0.90625,-2.85938 v -6.92187 h 2.82813 v 6.82812 q 0,1.64063 1.5,1.64063 1.4375,0 1.96875,-1 v -7.46875 h 2.82813 v 10.5625 h -2.65625 z m 10.80078,-6.84375 q -0.5625,-0.0781 -1.01562,-0.0781 -1.59375,0 -2.09375,1.07812 v 6.92188 h -2.82813 v -10.5625 h 2.67188 l 0.0781,1.25 q 0.84375,-1.45313 2.35938,-1.45313 0.46875,0 0.875,0.125 z m 7.18945,7.92188 q -0.1875,-0.375 -0.28125,-0.95313 -1.01562,1.15625 -2.65625,1.15625 -1.5625,0 -2.57812,-0.90625 -1.01563,-0.90625 -1.01563,-2.26562 0,-1.6875 1.23438,-2.57813 1.25,-0.90625 3.60937,-0.90625 h 1.29688 v -0.60937 q 0,-0.73438 -0.375,-1.17188 -0.375,-0.4375 -1.1875,-0.4375 -0.71875,0 -1.125,0.34375 -0.40625,0.34375 -0.40625,0.9375 h -2.8125 q 0,-0.92187 0.5625,-1.70312 0.5625,-0.78125 1.59375,-1.21875 1.04687,-0.45313 2.32812,-0.45313 1.95313,0 3.09375,0.98438 1.15625,0.98437 1.15625,2.76562 v 4.57813 q 0.0156,1.5 0.42188,2.26562 v 0.17188 z m -2.32812,-1.96875 q 0.625,0 1.14062,-0.26563 0.53125,-0.28125 0.79688,-0.75 v -1.82812 h -1.0625 q -2.10938,0 -2.25,1.46875 l -0.0156,0.17187 q 0,0.53125 0.375,0.875 0.375,0.32813 1.01563,0.32813 z m 9.91016,1.96875 h -2.82813 v -15 h 2.82813 z"
     fill-rule="nonzero"
     id="path65" />
  <path
     fill="#000000"
     d="m 80.539408,121.7658 h -2.921875 l -5.703125,-9.35938 v 9.35938 h -2.9375 v -14.21875 h 2.9375 l 5.703125,9.375 v -9.375 h 2.921875 z m 7.24609,0.20312 q -2.32812,0 -3.796871,-1.42187 -1.453125,-1.4375 -1.453125,-3.8125 v -0.26563 q 0,-1.59375 0.609375,-2.84375 0.625,-1.26562 1.750001,-1.9375 1.125,-0.6875 2.57812,-0.6875 2.15625,0 3.40625,1.375 1.25,1.35938 1.25,3.875 v 1.15625 h -6.73437 q 0.14062,1.03125 0.82812,1.65625 0.6875,0.625 1.75,0.625 1.625,0 2.54688,-1.1875 l 1.375,1.5625 q -0.625,0.89063 -1.71875,1.40625 -1.07813,0.5 -2.39063,0.5 z m -0.32812,-8.6875 q -0.84375,0 -1.375,0.57813 -0.51563,0.5625 -0.65625,1.60937 h 3.92187 v -0.21875 q -0.0156,-0.9375 -0.5,-1.45312 -0.48437,-0.51563 -1.39062,-0.51563 z m 9.6543,-4.6875 v 2.60938 h 1.79687 v 2.0625 h -1.79687 v 5.28125 q 0,0.57812 0.21875,0.84375 0.21875,0.25 0.85937,0.25 0.46875,0 0.82813,-0.0781 v 2.14063 q -0.82813,0.26562 -1.70313,0.26562 -2.96875,0 -3.03125,-3 v -5.70312 h -1.54687 v -2.0625 h 1.54687 v -2.60938 z m 12.570312,9.32813 1.375,-6.71875 h 2.73438 l -2.70313,10.5625 h -2.35938 l -2,-6.65625 -2,6.65625 h -2.35937 l -2.687502,-10.5625 h 2.718752 l 1.375,6.71875 1.9375,-6.71875 h 2.03125 z m 5.05665,-1.53125 q 0,-1.57813 0.60937,-2.8125 0.60938,-1.23438 1.73438,-1.90625 1.14062,-0.67188 2.65625,-0.67188 2.14062,0 3.48437,1.3125 1.35938,1.3125 1.51563,3.54688 l 0.0156,0.73437 q 0,2.42188 -1.35937,3.90625 -1.35938,1.46875 -3.64063,1.46875 -2.28125,0 -3.65625,-1.46875 -1.35937,-1.46875 -1.35937,-3.98437 z m 2.82812,0.20312 q 0,1.5 0.5625,2.29688 0.5625,0.79687 1.625,0.79687 1.03125,0 1.59375,-0.78125 0.57813,-0.79687 0.57813,-2.51562 0,-1.48438 -0.57813,-2.29688 -0.5625,-0.8125 -1.60937,-0.8125 -1.04688,0 -1.60938,0.8125 -0.5625,0.8125 -0.5625,2.5 z m 14.85547,-2.75 q -0.5625,-0.0781 -1.01562,-0.0781 -1.59375,0 -2.09375,1.07812 v 6.92188 h -2.82813 v -10.5625 h 2.67188 l 0.0781,1.25 q 0.84375,-1.45313 2.35938,-1.45313 0.46875,0 0.875,0.125 z m 5.20117,3.6875 -1.01562,1.01563 v 3.21875 h -2.82813 v -15 h 2.82813 v 8.3125 l 0.54687,-0.70313 2.70313,-3.17187 h 3.39062 l -3.8125,4.40625 4.14063,6.15625 h -3.23438 z"
     fill-rule="nonzero"
     id="path67" />
  <path
     fill="#999999"
     d="m 65.857768,145.7658 h -2.9375 v -6.09375 h -5.703125 v 6.09375 h -2.9375 v -14.21875 h 2.9375 v 5.76562 h 5.703125 v -5.76562 h 2.9375 z m 8.490234,0 q -0.1875,-0.375 -0.28125,-0.95313 -1.015625,1.15625 -2.65625,1.15625 -1.5625,0 -2.578125,-0.90625 -1.015625,-0.90625 -1.015625,-2.26562 0,-1.6875 1.234375,-2.57813 1.25,-0.90625 3.609375,-0.90625 h 1.296875 v -0.60937 q 0,-0.73438 -0.375,-1.17188 -0.375,-0.4375 -1.1875,-0.4375 -0.71875,0 -1.125,0.34375 -0.40625,0.34375 -0.40625,0.9375 h -2.8125 q 0,-0.92187 0.5625,-1.70312 0.5625,-0.78125 1.59375,-1.21875 1.046875,-0.45313 2.328125,-0.45313 1.953125,0 3.09375,0.98438 1.15625,0.98437 1.15625,2.76562 v 4.57813 q 0.01563,1.5 0.421875,2.26562 v 0.17188 z m -2.328125,-1.96875 q 0.625,0 1.140625,-0.26563 0.53125,-0.28125 0.796875,-0.75 v -1.82812 h -1.0625 q -2.109375,0 -2.25,1.46875 l -0.01563,0.17187 q 0,0.53125 0.375,0.875 0.375,0.32813 1.015625,0.32813 z m 9.535156,-8.59375 0.07813,1.21875 q 1.140625,-1.42188 3.046885,-1.42188 1.67187,0 2.48437,0.98438 0.82813,0.98437 0.84375,2.95312 v 6.82813 h -2.8125 v -6.76563 q 0,-0.89062 -0.39062,-1.29687 -0.39063,-0.40625 -1.296885,-0.40625 -1.203125,0 -1.796875,1.01562 v 7.45313 h -2.8125 v -10.5625 z m 8.154295,5.20312 q 0,-2.46875 1.10938,-3.9375 1.10937,-1.46875 3.03125,-1.46875 1.54687,0 2.54687,1.15625 v -5.39062 h 2.84375 v 15 h -2.54687 l -0.14063,-1.125 q -1.0625,1.32812 -2.71875,1.32812 -1.85937,0 -3,-1.46875 -1.125,-1.48437 -1.125,-4.09375 z m 2.82813,0.20313 q 0,1.48437 0.51562,2.28125 0.51563,0.78125 1.5,0.78125 1.3125,0 1.84375,-1.09375 v -4.17188 q -0.51562,-1.10937 -1.8125,-1.10937 -2.04687,0 -2.04687,3.3125 z m 14.613282,2.23437 q 0,-0.51562 -0.51563,-0.8125 -0.51562,-0.29687 -1.64062,-0.53125 -3.78125,-0.79687 -3.78125,-3.20312 0,-1.40625 1.17187,-2.34375 1.17188,-0.95313 3.04688,-0.95313 2.01562,0 3.21875,0.95313 1.20312,0.9375 1.20312,2.45312 h -2.8125 q 0,-0.59375 -0.39062,-0.98437 -0.39063,-0.40625 -1.21875,-0.40625 -0.71875,0 -1.10938,0.32812 -0.39062,0.3125 -0.39062,0.8125 0,0.46875 0.4375,0.76563 0.45312,0.28125 1.5,0.5 1.0625,0.20312 1.78125,0.46875 2.23437,0.8125 2.23437,2.84375 0,1.4375 -1.23437,2.34375 -1.23438,0.89062 -3.20313,0.89062 -1.32812,0 -2.35937,-0.46875 -1.03125,-0.48437 -1.625,-1.3125 -0.57813,-0.82812 -0.57813,-1.78125 h 2.67188 q 0.0469,0.75 0.5625,1.15625 0.51562,0.39063 1.39062,0.39063 0.8125,0 1.21875,-0.29688 0.42188,-0.3125 0.42188,-0.8125 z m 10.04883,-2.03125 h -5.5 v -2.28125 h 5.5 z m 14.12891,-1.82812 q 0,2.09375 -0.75,3.67187 -0.73438,1.57813 -2.125,2.45313 -1.375,0.85937 -3.15625,0.85937 -1.78125,0 -3.17188,-0.84375 -1.375,-0.85937 -2.14062,-2.4375 -0.76563,-1.57812 -0.76563,-3.625 v -0.70312 q 0,-2.10938 0.75,-3.70313 0.76563,-1.59375 2.14063,-2.45312 1.39062,-0.85938 3.15625,-0.85938 1.78125,0 3.15625,0.85938 1.39062,0.85937 2.14062,2.45312 0.76563,1.59375 0.76563,3.6875 z m -2.96875,-0.65625 q 0,-2.23438 -0.8125,-3.39063 -0.79688,-1.17187 -2.28125,-1.17187 -1.46875,0 -2.28125,1.15625 -0.79688,1.14062 -0.79688,3.35937 v 0.70313 q 0,2.17187 0.79688,3.375 0.79687,1.20312 2.3125,1.20312 1.46875,0 2.25,-1.15625 0.79687,-1.15625 0.8125,-3.375 z m 7.51172,-3.125 0.0781,1.21875 q 1.14063,-1.42188 3.04688,-1.42188 1.67187,0 2.48437,0.98438 0.82813,0.98437 0.84375,2.95312 v 6.82813 h -2.8125 v -6.76563 q 0,-0.89062 -0.39062,-1.29687 -0.39063,-0.40625 -1.29688,-0.40625 -1.20312,0 -1.79687,1.01562 v 7.45313 h -2.8125 v -10.5625 z"
     fill-rule="nonzero"
     id="path69" />
  <path
     fill="#999999"
     d="m 84.527688,166.8283 h -5.140625 l -0.96875,2.9375 h -3.125 l 5.296875,-14.21875 h 2.71875 l 5.32812,14.21875 h -3.125 z m -4.34375,-2.35938 h 3.546875 l -1.78125,-5.32812 z m 13.98828,3.21875 q 0.78125,0 1.26563,-0.42187 0.48437,-0.4375 0.5,-1.15625 h 2.65625 q -0.0156,1.07812 -0.59375,1.96875 -0.57813,0.89062 -1.57813,1.39062 -1,0.5 -2.20312,0.5 -2.26563,0 -3.57813,-1.4375 -1.3125,-1.45312 -1.3125,-3.98437 v -0.1875 q 0,-2.45313 1.29688,-3.90625 1.3125,-1.45313 3.57812,-1.45313 1.96875,0 3.17188,1.14063 1.20312,1.125 1.21875,3 h -2.65625 q -0.0156,-0.82813 -0.5,-1.34375 -0.48438,-0.51563 -1.29688,-0.51563 -0.98437,0 -1.48437,0.71875 -0.5,0.71875 -0.5,2.32813 v 0.29687 q 0,1.64063 0.5,2.35938 0.5,0.70312 1.51562,0.70312 z m 9.414062,-11.09375 v 2.60938 h 1.79688 v 2.0625 h -1.79688 v 5.28125 q 0,0.57812 0.21875,0.84375 0.21875,0.25 0.85938,0.25 0.46875,0 0.82812,-0.0781 v 2.14063 q -0.82812,0.26562 -1.70312,0.26562 -2.96875,0 -3.03125,-3 v -5.70312 h -1.546882 v -2.0625 h 1.546882 v -2.60938 z m 6.35157,13.17188 h -2.82813 v -10.5625 h 2.82813 z m -3,-13.29688 q 0,-0.64062 0.42187,-1.04687 0.4375,-0.40625 1.15625,-0.40625 0.73438,0 1.15625,0.40625 0.4375,0.40625 0.4375,1.04687 0,0.64063 -0.4375,1.04688 -0.4375,0.40625 -1.15625,0.40625 -0.70312,0 -1.14062,-0.40625 -0.4375,-0.40625 -0.4375,-1.04688 z m 9.28711,9.84375 1.95313,-7.10937 h 2.95312 l -3.5625,10.5625 h -2.70312 l -3.56251,-10.5625 h 2.95313 z m 9.12305,3.45313 h -2.82813 v -10.5625 h 2.82813 z m -3,-13.29688 q 0,-0.64062 0.42187,-1.04687 0.4375,-0.40625 1.15625,-0.40625 0.73438,0 1.15625,0.40625 0.4375,0.40625 0.4375,1.04687 0,0.64063 -0.4375,1.04688 -0.4375,0.40625 -1.15625,0.40625 -0.70312,0 -1.14062,-0.40625 -0.4375,-0.40625 -0.4375,-1.04688 z m 8.70898,0.125 v 2.60938 h 1.79688 v 2.0625 h -1.79688 v 5.28125 q 0,0.57812 0.21875,0.84375 0.21875,0.25 0.85938,0.25 0.46875,0 0.82812,-0.0781 v 2.14063 q -0.82812,0.26562 -1.70312,0.26562 -2.96875,0 -3.03125,-3 v -5.70312 h -1.54688 v -2.0625 h 1.54688 v -2.60938 z m 7.32032,9.17188 1.95312,-6.5625 h 3.03125 l -4.25,12.20312 -0.23437,0.5625 q -0.95313,2.0625 -3.125,2.0625 -0.625,0 -1.25,-0.1875 v -2.14062 l 0.42187,0.0156 q 0.8125,0 1.20313,-0.25 0.39062,-0.23437 0.625,-0.79687 l 0.32812,-0.875 -3.70312,-10.59375 h 3.03125 z"
     fill-rule="nonzero"
     id="path71" />
  <path
     fill="#000000"
     d="m 73.201178,722.19575 h -5.140625 l -0.96875,2.9375 h -3.125 l 5.296875,-14.21875 h 2.71875 l 5.328125,14.21875 h -3.125 z m -4.34375,-2.35937 h 3.546875 l -1.78125,-5.32813 z m 12.894531,5.29687 h -2.9375 V 710.9145 h 2.9375 z M 98.000008,718.977 h -5.625 v 3.79688 h 6.59375 v 2.35937 h -9.53125 V 710.9145 h 9.51562 v 2.375 h -6.57812 v 3.39063 h 5.625 z m 5.890622,-7.01562 v 2.60937 h 1.79688 v 2.0625 h -1.79688 v 5.28125 q 0,0.57813 0.21875,0.84375 0.21875,0.25 0.85938,0.25 0.46875,0 0.82812,-0.0781 v 2.14062 q -0.82812,0.26563 -1.70312,0.26563 -2.96875,0 -3.03125,-3 v -5.70313 h -1.546882 v -2.0625 h 1.546882 v -2.60937 z m 6.13282,3.75 q 1.125,-1.34375 2.8125,-1.34375 3.4375,0 3.48437,4 v 6.76562 h -2.8125 v -6.6875 q 0,-0.90625 -0.39062,-1.34375 -0.39063,-0.4375 -1.29688,-0.4375 -1.25,0 -1.79687,0.95313 v 7.51562 h -2.82813 v -15 h 2.82813 z m 11.41015,9.42187 h -2.82812 v -10.5625 h 2.82812 z m -3,-13.29687 q 0,-0.64063 0.42188,-1.04688 0.4375,-0.40625 1.15625,-0.40625 0.73437,0 1.15625,0.40625 0.4375,0.40625 0.4375,1.04688 0,0.64062 -0.4375,1.04687 -0.4375,0.40625 -1.15625,0.40625 -0.70313,0 -1.14063,-0.40625 -0.4375,-0.40625 -0.4375,-1.04687 z m 9.72461,11.21875 q 0.78125,0 1.26563,-0.42188 0.48437,-0.4375 0.5,-1.15625 h 2.65625 q -0.0156,1.07813 -0.59375,1.96875 -0.57813,0.89063 -1.57813,1.39063 -1,0.5 -2.20312,0.5 -2.26563,0 -3.57813,-1.4375 -1.3125,-1.45313 -1.3125,-3.98438 v -0.1875 q 0,-2.45312 1.29688,-3.90625 1.3125,-1.45312 3.57812,-1.45312 1.96875,0 3.17188,1.14062 1.20312,1.125 1.21875,3 h -2.65625 q -0.0156,-0.82812 -0.5,-1.34375 -0.48438,-0.51562 -1.29688,-0.51562 -0.98437,0 -1.48437,0.71875 -0.5,0.71875 -0.5,2.32812 v 0.29688 q 0,1.64062 0.5,2.35937 0.5,0.70313 1.51562,0.70313 z m 11.75781,-0.84375 q 0,-0.51563 -0.51562,-0.8125 -0.51563,-0.29688 -1.64063,-0.53125 -3.78125,-0.79688 -3.78125,-3.20313 0,-1.40625 1.17188,-2.34375 1.17187,-0.95312 3.04687,-0.95312 2.01563,0 3.21875,0.95312 1.20313,0.9375 1.20313,2.45313 h -2.8125 q 0,-0.59375 -0.39063,-0.98438 -0.39062,-0.40625 -1.21875,-0.40625 -0.71875,0 -1.10937,0.32813 -0.39063,0.3125 -0.39063,0.8125 0,0.46875 0.4375,0.76562 0.45313,0.28125 1.5,0.5 1.0625,0.20313 1.78125,0.46875 2.23438,0.8125 2.23438,2.84375 0,1.4375 -1.23438,2.34375 -1.23437,0.89063 -3.20312,0.89063 -1.32813,0 -2.35938,-0.46875 -1.03125,-0.48438 -1.625,-1.3125 -0.57812,-0.82813 -0.57812,-1.78125 h 2.67187 q 0.0469,0.75 0.5625,1.15625 0.51563,0.39062 1.39063,0.39062 0.8125,0 1.21875,-0.29687 0.42187,-0.3125 0.42187,-0.8125 z"
     fill-rule="nonzero"
     id="path75" />
  <path
     fill="#999999"
     d="m 101.57618,747.3364 q -0.78125,0.95312 -2.234382,1.48437 -1.4375,0.51563 -3.20312,0.51563 -1.84375,0 -3.23438,-0.8125 -1.39062,-0.8125 -2.15625,-2.34375 -0.75,-1.53125 -0.76562,-3.59375 v -0.96875 q 0,-2.14063 0.71875,-3.6875 0.71875,-1.5625 2.0625,-2.39063 1.35937,-0.82812 3.17187,-0.82812 2.53125,0 3.95313,1.21875 1.421872,1.20312 1.687502,3.5 h -2.843752 q -0.20313,-1.21875 -0.875,-1.78125 -0.65625,-0.5625 -1.82813,-0.5625 -1.5,0 -2.28125,1.125 -0.78125,1.10937 -0.79687,3.32812 v 0.90625 q 0,2.25 0.84375,3.39063 0.85937,1.14062 2.5,1.14062 1.65625,0 2.35937,-0.70312 v -2.45313 h -2.67187 v -2.15625 h 5.593752 z m 8.12305,-6.125 q -0.5625,-0.0781 -1.01563,-0.0781 -1.59375,0 -2.09375,1.07813 v 6.92187 h -2.82812 v -10.5625 h 2.67187 l 0.0781,1.25 q 0.84375,-1.45312 2.35937,-1.45312 0.46875,0 0.875,0.125 z m 0.56836,2.54687 q 0,-1.57812 0.60937,-2.8125 0.60938,-1.23437 1.73438,-1.90625 1.14062,-0.67187 2.65625,-0.67187 2.14062,0 3.48437,1.3125 1.35938,1.3125 1.51563,3.54687 l 0.0156,0.73438 q 0,2.42187 -1.35937,3.90625 -1.35938,1.46875 -3.64063,1.46875 -2.28125,0 -3.65625,-1.46875 -1.35937,-1.46875 -1.35937,-3.98438 z m 2.82812,0.20313 q 0,1.5 0.5625,2.29687 0.5625,0.79688 1.625,0.79688 1.03125,0 1.59375,-0.78125 0.57813,-0.79688 0.57813,-2.51563 0,-1.48437 -0.57813,-2.29687 -0.5625,-0.8125 -1.60937,-0.8125 -1.04688,0 -1.60938,0.8125 -0.5625,0.8125 -0.5625,2.5 z m 15.2461,4.09375 q -1.03125,1.28125 -2.89063,1.28125 -1.6875,0 -2.59375,-0.98438 -0.89062,-0.98437 -0.90625,-2.85937 v -6.92188 h 2.82813 v 6.82813 q 0,1.64062 1.5,1.64062 1.4375,0 1.96875,-1 v -7.46875 h 2.82812 v 10.5625 h -2.65625 z m 14.3789,-4.10938 q 0,2.4375 -1.10937,3.92188 -1.10938,1.46875 -2.98438,1.46875 -1.60937,0 -2.59375,-1.125 v 4.98437 h -2.82812 v -14.625 h 2.625 l 0.0937,1.03125 q 1.03125,-1.23437 2.67187,-1.23437 1.95313,0 3.03125,1.45312 1.09375,1.4375 1.09375,3.98438 z m -2.8125,-0.20312 q 0,-1.46875 -0.53125,-2.26563 -0.51562,-0.8125 -1.51562,-0.8125 -1.32813,0 -1.82813,1.01563 v 4.32812 q 0.51563,1.04688 1.84375,1.04688 2.03125,0 2.03125,-3.3125 z"
     fill-rule="nonzero"
     id="path77" />
  <path
     fill="#999999"
     d="m 84.529298,770.19575 h -5.140625 l -0.96875,2.9375 h -3.125 l 5.296875,-14.21875 h 2.71875 l 5.32812,14.21875 h -3.125 z m -4.34375,-2.35937 h 3.546875 l -1.78125,-5.32813 z m 13.98828,3.21875 q 0.78125,0 1.26563,-0.42188 0.48437,-0.4375 0.5,-1.15625 h 2.65625 q -0.0156,1.07813 -0.59375,1.96875 -0.57813,0.89063 -1.57813,1.39063 -1,0.5 -2.20312,0.5 -2.26563,0 -3.57813,-1.4375 -1.3125,-1.45313 -1.3125,-3.98438 v -0.1875 q 0,-2.45312 1.29688,-3.90625 1.3125,-1.45312 3.57812,-1.45312 1.96875,0 3.17188,1.14062 1.20312,1.125 1.21875,3 h -2.65625 q -0.0156,-0.82812 -0.5,-1.34375 -0.48438,-0.51562 -1.29688,-0.51562 -0.98437,0 -1.48437,0.71875 -0.5,0.71875 -0.5,2.32812 v 0.29688 q 0,1.64062 0.5,2.35937 0.5,0.70313 1.51562,0.70313 z m 9.414062,-11.09375 v 2.60937 h 1.79688 v 2.0625 h -1.79688 v 5.28125 q 0,0.57813 0.21875,0.84375 0.21875,0.25 0.85938,0.25 0.46875,0 0.82812,-0.0781 v 2.14062 q -0.82812,0.26563 -1.70312,0.26563 -2.96875,0 -3.03125,-3 v -5.70313 h -1.546882 v -2.0625 h 1.546882 v -2.60937 z m 6.35157,13.17187 h -2.82813 v -10.5625 h 2.82813 z m -3,-13.29687 q 0,-0.64063 0.42187,-1.04688 0.4375,-0.40625 1.15625,-0.40625 0.73438,0 1.15625,0.40625 0.4375,0.40625 0.4375,1.04688 0,0.64062 -0.4375,1.04687 -0.4375,0.40625 -1.15625,0.40625 -0.70312,0 -1.14062,-0.40625 -0.4375,-0.40625 -0.4375,-1.04687 z m 9.2871,9.84375 1.95313,-7.10938 h 2.95312 l -3.5625,10.5625 h -2.70312 l -3.5625,-10.5625 h 2.95312 z m 9.12305,3.45312 h -2.82812 v -10.5625 h 2.82812 z m -3,-13.29687 q 0,-0.64063 0.42188,-1.04688 0.4375,-0.40625 1.15625,-0.40625 0.73437,0 1.15625,0.40625 0.4375,0.40625 0.4375,1.04688 0,0.64062 -0.4375,1.04687 -0.4375,0.40625 -1.15625,0.40625 -0.70313,0 -1.14063,-0.40625 -0.4375,-0.40625 -0.4375,-1.04687 z m 8.70899,0.125 v 2.60937 h 1.79687 v 2.0625 h -1.79687 v 5.28125 q 0,0.57813 0.21875,0.84375 0.21875,0.25 0.85937,0.25 0.46875,0 0.82813,-0.0781 v 2.14062 q -0.82813,0.26563 -1.70313,0.26563 -2.96875,0 -3.03125,-3 v -5.70313 h -1.54687 v -2.0625 h 1.54687 v -2.60937 z m 7.32031,9.17187 1.95312,-6.5625 h 3.03125 l -4.25,12.20313 -0.23437,0.5625 q -0.95313,2.0625 -3.125,2.0625 -0.625,0 -1.25,-0.1875 v -2.14063 l 0.42187,0.0156 q 0.8125,0 1.20313,-0.25 0.39062,-0.23438 0.625,-0.79688 l 0.32812,-0.875 -3.70312,-10.59375 h 3.03125 z"
     fill-rule="nonzero"
     id="path79" />
  <path
     fill="#000000"
     fill-opacity="0"
     d="m 174.89542,239.16862 v 0 c -10.50647,0 -19.02364,-0.70972 -19.02364,-1.58524 v -218.467318 0 c 0,-0.420433 2.00428,-0.823646 5.5719,-1.120933 3.56762,-0.297287 8.40636,-0.464302 13.45174,-0.464302"
     fill-rule="evenodd"
     id="path83" />
  <path
     stroke="#000000"
     stroke-width="1"
     stroke-linejoin="round"
     stroke-linecap="butt"
     d="m 174.89542,239.16862 v 0 c -10.50647,0 -19.02364,-0.70972 -19.02364,-1.58524 v -218.467318 0 c 0,-0.420433 2.00428,-0.823646 5.5719,-1.120933 3.56762,-0.297287 8.40636,-0.464302 13.45174,-0.464302"
     fill-rule="evenodd"
     id="path85" />
  <path
     fill="#f05f40"
     d="m 334.25231,20.816918 v 0 c 2.07291,0 3.75336,1.680435 3.75336,3.753357 V 811.52028 c 0,0.99542 -0.39545,1.95013 -1.09934,2.65399 -0.70392,0.70392 -1.65857,1.09936 -2.65402,1.09936 h -15.013 c -2.07291,0 -3.75336,-1.68048 -3.75336,-3.75335 V 24.570275 c 0,-2.072922 1.68045,-3.753357 3.75336,-3.753357 z"
     fill-rule="evenodd"
     id="path87" />
  <path
     fill="#434343"
     d="m 314.56067,8.5 q 0,-0.59375 -0.4375,-0.921875 -0.42188,-0.34375 -1.5,-0.703125 -1.0625,-0.359375 -1.73438,-0.703125 -2.21875,-1.078125 -2.21875,-2.984375 0,-0.9375 0.54688,-1.65625 0.5625,-0.734375 1.5625,-1.125 Q 311.79504,0 313.04504,0 q 1.23438,0 2.20313,0.4375 0.96875,0.4375 1.5,1.25 0.54687,0.796875 0.54687,1.84375 h -2.73437 q 0,-0.703125 -0.42188,-1.078125 -0.42187,-0.390625 -1.15625,-0.390625 -0.73437,0 -1.15625,0.328125 -0.42187,0.328125 -0.42187,0.828125 0,0.4375 0.46875,0.796875 0.46875,0.34375 1.64062,0.734375 1.1875,0.375 1.9375,0.8125 1.84375,1.0625 1.84375,2.921875 0,1.5 -1.125,2.359375 -1.125,0.84375 -3.07812,0.84375 -1.39063,0 -2.51563,-0.5 -1.10937,-0.5 -1.6875,-1.359375 -0.5625,-0.859375 -0.5625,-1.984375 h 2.75 q 0,0.90625 0.46875,1.34375 0.48438,0.4375 1.54688,0.4375 0.67187,0 1.0625,-0.296875 Q 314.56067,9.03125 314.56067,8.5 Z m 7.09375,-7.53125 v 2.109375 h 1.39062 V 4.90625 h -1.39062 v 3.859375 q 0,0.484375 0.17187,0.671875 0.17188,0.1875 0.67188,0.1875 0.39062,0 0.65625,-0.04687 v 1.875 q -0.70313,0.234375 -1.48438,0.234375 -1.35937,0 -2.01562,-0.640625 -0.64063,-0.640625 -0.64063,-1.953125 v -4.1875 h -1.07812 V 3.07813 h 1.07812 V 0.968755 Z m 7.17969,10.5625 q -0.14063,-0.265625 -0.25,-0.765625 -0.71875,0.921875 -2.03125,0.921875 -1.1875,0 -2.03125,-0.71875 -0.82813,-0.734375 -0.82813,-1.828125 0,-1.375 1.01563,-2.078125 1.01562,-0.703125 2.95312,-0.703125 h 0.8125 v -0.4375 q 0,-1.171875 -1.01562,-1.171875 -0.9375,0 -0.9375,0.921875 h -2.625 q 0,-1.21875 1.03125,-1.984375 1.04687,-0.765625 2.65625,-0.765625 1.625,0 2.5625,0.796875 0.9375,0.78125 0.96875,2.15625 v 3.734375 q 0.0156,1.171875 0.35937,1.78125 V 11.53125 Z M 327.19348,9.8125 q 0.48438,0 0.8125,-0.203125 0.32813,-0.21875 0.46875,-0.484375 V 7.765625 h -0.76562 q -1.375,0 -1.375,1.234375 0,0.359375 0.23437,0.59375 0.25,0.21875 0.625,0.21875 z m 10.49219,-4.359375 -0.875,-0.0625 q -1.23438,0 -1.59375,0.78125 v 5.359375 h -2.625 V 3.078125 h 2.46875 l 0.0781,1.078125 q 0.67188,-1.234375 1.85938,-1.234375 0.42187,0 0.73437,0.09375 z m 4.40625,-4.484375 v 2.109375 h 1.39062 V 4.90625 h -1.39062 v 3.859375 q 0,0.484375 0.17187,0.671875 0.17188,0.1875 0.67188,0.1875 0.39062,0 0.65625,-0.04687 v 1.875 q -0.70313,0.234375 -1.48438,0.234375 -1.35937,0 -2.01562,-0.640625 -0.64063,-0.640625 -0.64063,-1.953125 v -4.1875 h -1.07812 V 3.07813 h 1.07812 V 0.968755 Z"
     fill-rule="nonzero"
     id="path93" />
  <path
     fill="#434343"
     d="m 288.71627,826.3701 h -4.42187 v 4.53125 h -2.75 v -11.375 h 7.60937 v 2.10938 h -4.85937 v 2.625 h 4.42187 z m 4.23438,4.53125 h -2.64063 v -8.45312 h 2.64063 z m -2.79688,-10.64062 q 0,-0.5625 0.40625,-0.92188 0.40625,-0.35937 1.04688,-0.35937 0.65625,0 1.0625,0.35937 0.40625,0.35938 0.40625,0.92188 0,0.5625 -0.40625,0.92187 -0.40625,0.35938 -1.0625,0.35938 -0.64063,0 -1.04688,-0.35938 -0.40625,-0.35937 -0.40625,-0.92187 z m 6.83594,2.1875 0.0937,0.98437 q 0.875,-1.14062 2.40625,-1.14062 1.32812,0 1.96875,0.79687 0.65625,0.78125 0.6875,2.35938 v 5.45312 h -2.64063 v -5.34375 q 0,-0.64062 -0.26562,-0.9375 -0.25,-0.29687 -0.9375,-0.29687 -0.76563,0 -1.14063,0.60937 v 5.96875 h -2.64062 v -8.45312 z m 9.38281,8.45312 h -2.64062 v -8.45312 h 2.64062 z m -2.79687,-10.64062 q 0,-0.5625 0.40625,-0.92188 0.40625,-0.35937 1.04687,-0.35937 0.65625,0 1.0625,0.35937 0.40625,0.35938 0.40625,0.92188 0,0.5625 -0.40625,0.92187 -0.40625,0.35938 -1.0625,0.35938 -0.64062,0 -1.04687,-0.35938 -0.40625,-0.35937 -0.40625,-0.92187 z m 8.85156,8.26562 q 0,-0.34375 -0.35938,-0.54687 -0.34375,-0.20313 -1.32812,-0.42188 -0.98438,-0.21875 -1.625,-0.5625 -0.64063,-0.35937 -0.98438,-0.85937 -0.32812,-0.51563 -0.32812,-1.17188 0,-1.17187 0.95312,-1.92187 0.96875,-0.75 2.51563,-0.75 1.67187,0 2.6875,0.76562 1.01562,0.75 1.01562,1.98438 h -2.64062 q 0,-1.01563 -1.0625,-1.01563 -0.42188,0 -0.70313,0.23438 -0.28125,0.21875 -0.28125,0.5625 0,0.35937 0.34375,0.57812 0.34375,0.21875 1.09375,0.35938 0.76563,0.14062 1.32813,0.32812 1.90625,0.65625 1.90625,2.35938 0,1.15625 -1.03125,1.89062 -1.01563,0.71875 -2.65625,0.71875 -1.07813,0 -1.9375,-0.39062 -0.84375,-0.39063 -1.32813,-1.0625 -0.46875,-0.67188 -0.46875,-1.42188 h 2.45313 q 0.0156,0.59375 0.39062,0.85938 0.375,0.26562 0.96875,0.26562 0.53125,0 0.79688,-0.21875 0.28125,-0.21875 0.28125,-0.5625 z m 6.33594,-5.17187 q 0.84375,-1.0625 2.15625,-1.0625 1.40625,0 2.10937,0.82812 0.71875,0.82813 0.73438,2.4375 v 5.34375 h -2.64063 v -5.28125 q 0,-0.67187 -0.28125,-0.98437 -0.26562,-0.3125 -0.92187,-0.3125 -0.8125,0 -1.15625,0.51562 v 6.0625 h -2.625 v -12 h 2.625 z m 19.0625,1.29687 q 0,1.53125 -0.71875,2.45313 -0.71875,0.92187 -1.89063,0.92187 -0.59375,0 -1.0625,-0.21875 -0.46875,-0.23437 -1.07812,-0.8125 -0.59375,-0.59375 -1.09375,-0.59375 -0.39063,0 -0.65625,0.39063 -0.26563,0.375 -0.26563,0.9375 l -1.85937,-0.0312 q 0,-1.53125 0.70312,-2.42188 0.70313,-0.90625 1.89063,-0.90625 0.59375,0 1.07812,0.23438 0.5,0.21875 1.07813,0.8125 0.59375,0.57812 1.07812,0.57812 0.40625,0 0.65625,-0.39062 0.25,-0.39063 0.25,-0.95313 z m 7.85156,-0.54687 h 1.23437 q 1.48438,0 1.48438,-1.4375 0,-0.5625 -0.35938,-0.92188 -0.34375,-0.35937 -0.98437,-0.35937 -0.53125,0 -0.92188,0.3125 -0.375,0.29687 -0.375,0.75 h -2.64062 q 0,-0.89063 0.5,-1.59375 0.5,-0.70313 1.39062,-1.09375 0.89063,-0.40625 1.95313,-0.40625 1.89062,0 2.96875,0.875 1.09375,0.85937 1.09375,2.375 0,0.73437 -0.45313,1.39062 -0.4375,0.65625 -1.29687,1.0625 0.90625,0.32813 1.42187,1 0.51563,0.65625 0.51563,1.64063 0,1.53125 -1.17188,2.45312 -1.17187,0.90625 -3.07812,0.90625 -1.125,0 -2.07813,-0.42187 -0.95312,-0.4375 -1.45312,-1.1875 -0.48438,-0.75 -0.48438,-1.71875 h 2.64063 q 0,0.53125 0.42187,0.92187 0.42188,0.375 1.04688,0.375 0.6875,0 1.09375,-0.39062 0.42187,-0.39063 0.42187,-0.98438 0,-0.85937 -0.4375,-1.21875 -0.42187,-0.35937 -1.17187,-0.35937 h -1.28125 z m 13.45312,-0.75 q 0.84375,-1.0625 2.15625,-1.0625 1.40625,0 2.10938,0.82812 0.71875,0.82813 0.73437,2.4375 v 5.34375 h -2.64062 v -5.28125 q 0,-0.67187 -0.28125,-0.98437 -0.26563,-0.3125 -0.92188,-0.3125 -0.8125,0 -1.15625,0.51562 v 6.0625 h -2.625 v -12 h 2.625 z m 11.57813,1.46875 -0.875,-0.0625 q -1.23438,0 -1.59375,0.78125 v 5.35937 h -2.625 v -8.45312 h 2.46875 l 0.0781,1.07812 q 0.67188,-1.23437 1.85938,-1.23437 0.42187,0 0.73437,0.0937 z"
     fill-rule="nonzero"
     id="path97" />
  <path
     fill="#ffffff"
     d="m 327.37783,251.33397 h -2.20313 v -7 l -2.15625,0.625 v -1.65625 l 4.15625,-1.4375 h 0.20313 z"
     fill-rule="nonzero"
     id="path101" />
  <path
     fill="#ffffff"
     d="m 322.27852,261.05272 q 0.70312,-0.89063 1.79687,-0.89063 1.15625,0 1.75,0.6875 0.59375,0.6875 0.60938,2.04688 v 4.4375 h -2.20313 v -4.39063 q 0,-0.5625 -0.23437,-0.82812 -0.21875,-0.26563 -0.76563,-0.26563 -0.67187,0 -0.95312,0.4375 v 5.04688 h -2.20313 v -10 h 2.20313 z m 9.63248,1.21875 -0.71875,-0.0469 q -1.03125,0 -1.32813,0.65625 v 4.45313 H 327.661 v -7.04688 h 2.0625 l 0.0781,0.90625 q 0.54688,-1.03125 1.53125,-1.03125 0.35938,0 0.60938,0.0781 z"
     fill-rule="nonzero"
     id="path103" />
  <path
     fill="#ffffff"
     d="M 329.12637,564.7133 H 322.517 v -1.4375 l 3.04687,-3.20312 q 1.125,-1.28125 1.125,-2.03125 0,-0.60938 -0.26562,-0.92188 -0.26563,-0.32812 -0.78125,-0.32812 -0.5,0 -0.8125,0.4375 -0.3125,0.42187 -0.3125,1.04687 h -2.1875 q 0,-0.85937 0.42187,-1.59375 0.4375,-0.75 1.21875,-1.15625 0.78125,-0.42187 1.73438,-0.42187 1.53125,0 2.35937,0.71875 0.82813,0.70312 0.82813,2.03125 0,0.54687 -0.20313,1.07812 -0.20312,0.53125 -0.65625,1.125 -0.4375,0.57813 -1.40625,1.54688 l -1.21875,1.42187 h 3.71875 z"
     fill-rule="nonzero"
     id="path107" />
  <path
     fill="#ffffff"
     d="m 322.27707,574.432 q 0.70312,-0.89063 1.79687,-0.89063 1.15625,0 1.75,0.6875 0.59375,0.6875 0.60938,2.04688 v 4.4375 h -2.20313 v -4.39063 q 0,-0.5625 -0.23437,-0.82812 -0.21875,-0.26563 -0.76563,-0.26563 -0.67187,0 -0.95312,0.4375 v 5.04688 h -2.20313 v -10 h 2.20313 z m 9.63248,1.21875 -0.71875,-0.0469 q -1.03125,0 -1.32813,0.65625 v 4.45313 h -2.20312 v -7.04688 h 2.0625 l 0.0781,0.90625 q 0.54688,-1.03125 1.53125,-1.03125 0.35938,0 0.60938,0.0781 z"
     fill-rule="nonzero"
     id="path109" />
  <path
     fill="#ffffff"
     d="m 323.25437,701.0741 h -6.60938 v -1.4375 l 3.04688,-3.20313 q 1.125,-1.28125 1.125,-2.03125 0,-0.60937 -0.26563,-0.92187 -0.26562,-0.32813 -0.78125,-0.32813 -0.5,0 -0.8125,0.4375 -0.3125,0.42188 -0.3125,1.04688 h -2.1875 q 0,-0.85938 0.42188,-1.59375 0.4375,-0.75 1.21875,-1.15625 0.78125,-0.42188 1.73437,-0.42188 1.53125,0 2.35938,0.71875 0.82812,0.70313 0.82812,2.03125 0,0.54688 -0.20312,1.07813 -0.20313,0.53125 -0.65625,1.125 -0.4375,0.57812 -1.40625,1.54687 l -1.21875,1.42188 h 3.71875 z m 2.49957,-2.125 q 0.53125,0 0.875,0.3125 0.34375,0.29687 0.34375,0.78125 0,0.48437 -0.34375,0.79687 -0.34375,0.3125 -0.875,0.3125 -0.53125,0 -0.875,-0.3125 -0.32812,-0.3125 -0.32812,-0.78125 0,-0.48437 0.32812,-0.79687 0.34375,-0.3125 0.875,-0.3125 z m 2.76276,-2.51563 0.57812,-4.82812 h 5.54688 v 1.70312 h -3.75 l -0.21875,1.875 q 0.23437,-0.14062 0.60937,-0.23437 0.39063,-0.10938 0.75,-0.10938 1.40625,0 2.15625,0.84375 0.76563,0.82813 0.76563,2.34375 0,0.90625 -0.40625,1.65625 -0.40625,0.73438 -1.14063,1.125 -0.73437,0.39063 -1.73437,0.39063 -0.89063,0 -1.67188,-0.35938 -0.78125,-0.375 -1.23437,-1.01562 -0.4375,-0.64063 -0.42188,-1.4375 h 2.20313 q 0.0312,0.51562 0.32812,0.82812 0.29688,0.29688 0.78125,0.29688 1.10938,0 1.10938,-1.64063 0,-1.51562 -1.35938,-1.51562 -0.76562,0 -1.14062,0.5 z"
     fill-rule="nonzero"
     id="path113" />
  <path
     fill="#ffffff"
     d="m 322.27843,710.79286 q 0.70312,-0.89063 1.79687,-0.89063 1.15625,0 1.75,0.6875 0.59375,0.6875 0.60938,2.04688 v 4.4375 h -2.20313 v -4.39063 q 0,-0.5625 -0.23437,-0.82812 -0.21875,-0.26563 -0.76563,-0.26563 -0.67187,0 -0.95312,0.4375 v 5.04688 h -2.20313 v -10 h 2.20313 z m 9.63248,1.21875 -0.71875,-0.0469 q -1.03125,0 -1.32813,0.65625 v 4.45313 h -2.20312 v -7.04688 h 2.0625 l 0.0781,0.90625 q 0.54688,-1.03125 1.53125,-1.03125 0.35938,0 0.60938,0.0781 z"
     fill-rule="nonzero"
     id="path115" />
  <path
     fill="#ffffff"
     d="m 321.50337,408.02427 h -2.20313 v -7 l -2.15625,0.625 v -1.65625 l 4.15625,-1.4375 h 0.20313 z m 4.24957,-2.125 q 0.53125,0 0.875,0.3125 0.34375,0.29687 0.34375,0.78125 0,0.48437 -0.34375,0.79687 -0.34375,0.3125 -0.875,0.3125 -0.53125,0 -0.875,-0.3125 -0.32812,-0.3125 -0.32812,-0.78125 0,-0.48437 0.32812,-0.79687 0.34375,-0.3125 0.875,-0.3125 z m 2.76276,-2.51563 0.57812,-4.82812 h 5.54688 v 1.70312 h -3.75 l -0.21875,1.875 q 0.23437,-0.14062 0.60937,-0.23437 0.39063,-0.10938 0.75,-0.10938 1.40625,0 2.15625,0.84375 0.76563,0.82813 0.76563,2.34375 0,0.90625 -0.40625,1.65625 -0.40625,0.73438 -1.14063,1.125 -0.73437,0.39063 -1.73437,0.39063 -0.89063,0 -1.67188,-0.35938 -0.78125,-0.375 -1.23437,-1.01562 -0.4375,-0.64063 -0.42188,-1.4375 h 2.20313 q 0.0312,0.51562 0.32812,0.82812 0.29688,0.29688 0.78125,0.29688 1.10938,0 1.10938,-1.64063 0,-1.51562 -1.35938,-1.51562 -0.76562,0 -1.14062,0.5 z"
     fill-rule="nonzero"
     id="path119" />
  <path
     fill="#ffffff"
     d="m 322.27742,417.74302 q 0.70313,-0.89063 1.79688,-0.89063 1.15625,0 1.75,0.6875 0.59375,0.6875 0.60937,2.04688 v 4.4375 h -2.20312 v -4.39063 q 0,-0.5625 -0.23438,-0.82812 -0.21875,-0.26563 -0.76562,-0.26563 -0.67188,0 -0.95313,0.4375 v 5.04688 h -2.20312 v -10 h 2.20312 z m 9.63248,1.21875 -0.71875,-0.0469 q -1.03125,0 -1.32813,0.65625 v 4.45313 h -2.20312 v -7.04688 h 2.0625 l 0.0781,0.90625 q 0.54688,-1.03125 1.53125,-1.03125 0.35938,0 0.60938,0.0781 z"
     fill-rule="nonzero"
     id="path121" />
  <path
     fill="#ffffff"
     d="m 323.22231,119.80412 q 0,1.92187 -0.85938,2.96875 -0.85937,1.03125 -2.4375,1.03125 -1.57812,0 -2.45312,-1.04688 -0.85938,-1.04687 -0.85938,-2.95312 v -1.73438 q 0,-1.90625 0.85938,-2.95312 0.875,-1.04688 2.4375,-1.04688 1.57812,0 2.4375,1.04688 0.875,1.04687 0.875,2.96875 z m -2.1875,-2.01563 q 0,-1.01562 -0.26563,-1.51562 -0.26562,-0.5 -0.84375,-0.5 -0.57812,0 -0.84375,0.46875 -0.25,0.46875 -0.26562,1.40625 v 2.42187 q 0,1.0625 0.26562,1.5625 0.26563,0.48438 0.84375,0.48438 0.5625,0 0.82813,-0.46875 0.26562,-0.48438 0.28125,-1.51563 z m 4.71835,3.76563 q 0.53125,0 0.875,0.3125 0.34375,0.29687 0.34375,0.78125 0,0.48437 -0.34375,0.79687 -0.34375,0.3125 -0.875,0.3125 -0.53125,0 -0.875,-0.3125 -0.32812,-0.3125 -0.32812,-0.78125 0,-0.48437 0.32812,-0.79687 0.34375,-0.3125 0.875,-0.3125 z m 2.76276,-2.51563 0.57812,-4.82812 h 5.54688 v 1.70312 h -3.75 l -0.21875,1.875 q 0.23437,-0.14062 0.60937,-0.23437 0.39063,-0.10938 0.75,-0.10938 1.40625,0 2.15625,0.84375 0.76563,0.82813 0.76563,2.34375 0,0.90625 -0.40625,1.65625 -0.40625,0.73438 -1.14063,1.125 -0.73437,0.39063 -1.73437,0.39063 -0.89063,0 -1.67188,-0.35938 -0.78125,-0.375 -1.23437,-1.01562 -0.4375,-0.64063 -0.42188,-1.4375 h 2.20313 q 0.0312,0.51562 0.32812,0.82812 0.29688,0.29688 0.78125,0.29688 1.10938,0 1.10938,-1.64063 0,-1.51562 -1.35938,-1.51562 -0.76562,0 -1.14062,0.5 z"
     fill-rule="nonzero"
     id="path125" />
  <path
     fill="#ffffff"
     d="m 322.27761,133.39787 q 0.70312,-0.89063 1.79687,-0.89063 1.15625,0 1.75,0.6875 0.59375,0.6875 0.60938,2.04688 v 4.4375 h -2.20313 v -4.39063 q 0,-0.5625 -0.23437,-0.82812 -0.21875,-0.26563 -0.76563,-0.26563 -0.67187,0 -0.95312,0.4375 v 5.04688 h -2.20313 v -10 h 2.20313 z m 9.63248,1.21875 -0.71875,-0.0469 q -1.03125,0 -1.32813,0.65625 v 4.45313 h -2.20312 v -7.04688 h 2.0625 l 0.0781,0.90625 q 0.54688,-1.03125 1.53125,-1.03125 0.35938,0 0.60938,0.0781 z"
     fill-rule="nonzero"
     id="path127" />
  <path
     fill="#000000"
     fill-opacity="0"
     d="m 174.89542,665.6268 v 0 c -10.50647,0 -19.02364,-0.70978 -19.02364,-1.58527 v -418.24683 0 c 0,-0.42044 2.00428,-0.82363 5.5719,-1.12094 3.56762,-0.2973 8.40636,-0.46429 13.45174,-0.46429"
     fill-rule="evenodd"
     id="path167" />
  <path
     stroke="#000000"
     stroke-width="1"
     stroke-linejoin="round"
     stroke-linecap="butt"
     d="m 174.89542,665.6268 v 0 c -10.50647,0 -19.02364,-0.70978 -19.02364,-1.58527 v -418.24683 0 c 0,-0.42044 2.00428,-0.82363 5.5719,-1.12094 3.56762,-0.2973 8.40636,-0.46429 13.45174,-0.46429"
     fill-rule="evenodd"
     id="path169" />
  <path
     fill="#000000"
     fill-opacity="0"
     d="m 174.89542,815.2781 v 0 c -10.50647,0 -19.02364,-0.70972 -19.02364,-1.58527 v -141.42792 0 c 0,-0.42047 2.00428,-0.82367 5.5719,-1.12097 3.56762,-0.29724 8.40636,-0.46429 13.45174,-0.46429"
     fill-rule="evenodd"
     id="path173" />
  <path
     stroke="#000000"
     stroke-width="1"
     stroke-linejoin="round"
     stroke-linecap="butt"
     d="m 174.89542,815.2781 v 0 c -10.50647,0 -19.02364,-0.70972 -19.02364,-1.58527 v -141.42792 0 c 0,-0.42047 2.00428,-0.82367 5.5719,-1.12097 3.56762,-0.29724 8.40636,-0.46429 13.45174,-0.46429"
     fill-rule="evenodd"
     id="path175" />
  <path
     stroke="#f05f40"
     stroke-width="3"
     stroke-linejoin="round"
     stroke-linecap="butt"
     stroke-dasharray="3, 9"
     d="m 173.01513,67.665138 142.48243,0.007"
     fill-rule="evenodd"
     id="path1646" />
  <path
     stroke="#f05f40"
     stroke-width="3"
     stroke-linejoin="round"
     stroke-linecap="butt"
     stroke-dasharray="3, 9"
     d="m 173.01513,223.35838 142.48243,0.007"
     fill-rule="evenodd"
     id="path1888" />
  <path
     stroke="#f05f40"
     stroke-width="3"
     stroke-linejoin="round"
     stroke-linecap="butt"
     stroke-dasharray="3, 9"
     d="m 173.01513,261.61695 142.48243,0.007"
     fill-rule="evenodd"
     id="path2290" />
  <path
     stroke="#f05f40"
     stroke-width="3"
     stroke-linejoin="round"
     stroke-linecap="butt"
     stroke-dasharray="3, 9"
     d="m 173.01513,314.98718 142.48243,0.007"
     fill-rule="evenodd"
     id="path2372" />
  <path
     stroke="#f05f40"
     stroke-width="3"
     stroke-linejoin="round"
     stroke-linecap="butt"
     stroke-dasharray="3, 9"
     d="m 173.01513,420.4175 142.48243,0.007"
     fill-rule="evenodd"
     id="path2934" />
  <path
     stroke="#f05f40"
     stroke-width="3"
     stroke-linejoin="round"
     stroke-linecap="butt"
     stroke-dasharray="3, 9"
     d="m 173.01513,547.74467 142.48243,0.007"
     fill-rule="evenodd"
     id="path3096" />
  <path
     stroke="#f05f40"
     stroke-width="3"
     stroke-linejoin="round"
     stroke-linecap="butt"
     stroke-dasharray="3, 9"
     d="m 173.01513,626.47074 142.48243,0.007"
     fill-rule="evenodd"
     id="path3578" />
  <path
     stroke="#f05f40"
     stroke-width="3"
     stroke-linejoin="round"
     stroke-linecap="butt"
     stroke-dasharray="3, 9"
     d="m 173.01513,704.26433 142.48243,0.007"
     fill-rule="evenodd"
     id="path3900" />
  <path
     stroke="#f05f40"
     stroke-width="3"
     stroke-linejoin="round"
     stroke-linecap="butt"
     stroke-dasharray="3, 9"
     d="m 173.01513,795.8996 142.48243,0.007"
     fill-rule="evenodd"
     id="path4382" />
</svg>
