<svg version="1.1" viewBox="0.0 0.0 718.0 444.0" fill="none" stroke="none" stroke-linecap="square" stroke-miterlimit="10" width="718" height="444" xmlns:xlink="http://www.w3.org/1999/xlink" xmlns="http://www.w3.org/2000/svg"><path fill="#ffffff" d="M0 0L718.0 0L718.0 444.0L0 444.0L0 0Z" fill-rule="nonzero"/><path stroke="#333333" stroke-width="1.0" stroke-linecap="butt" d="M130.5 363.5L695.5 363.5" fill-rule="nonzero"/><path stroke="#cccccc" stroke-width="1.0" stroke-linecap="butt" d="M130.5 307.5L695.5 307.5" fill-rule="nonzero"/><path stroke="#cccccc" stroke-width="1.0" stroke-linecap="butt" d="M130.5 251.5L695.5 251.5" fill-rule="nonzero"/><path stroke="#cccccc" stroke-width="1.0" stroke-linecap="butt" d="M130.5 195.5L695.5 195.5" fill-rule="nonzero"/><path stroke="#cccccc" stroke-width="1.0" stroke-linecap="butt" d="M130.5 139.5L695.5 139.5" fill-rule="nonzero"/><path stroke="#cccccc" stroke-width="1.0" stroke-linecap="butt" d="M130.5 84.5L695.5 84.5" fill-rule="nonzero"/><clipPath id="id_0"><path d="M130.2 84.0L695.8 84.0L695.8 363.8L130.2 363.8L130.2 84.0Z" clip-rule="nonzero"/></clipPath><path stroke="#000000" stroke-width="2.0" stroke-linecap="butt" stroke-opacity="0.0" clip-path="url(#id_0)" d="M237.0 364.0L168.0 364.0L168.0 151.0C168.0 149.89543 168.89543 149.0 170.0 149.0L235.0 149.0C236.10457 149.0 237.0 149.89543 237.0 151.0Z" fill-rule="nonzero"/><path fill="#f05f40" clip-path="url(#id_0)" d="M237.0 364.0L168.0 364.0L168.0 151.0C168.0 149.89543 168.89543 149.0 170.0 149.0L235.0 149.0C236.10457 149.0 237.0 149.89543 237.0 151.0Z" fill-rule="nonzero"/><path stroke="#000000" stroke-width="2.0" stroke-linecap="butt" stroke-opacity="0.0" clip-path="url(#id_0)" d="M342.0 364.0L273.0 364.0L273.0 127.0C273.0 125.89543 273.89542 125.0 275.0 125.0L340.0 125.0C341.10458 125.0 342.0 125.89543 342.0 127.0Z" fill-rule="nonzero"/><path fill="#f05f40" clip-path="url(#id_0)" d="M342.0 364.0L273.0 364.0L273.0 127.0C273.0 125.89543 273.89542 125.0 275.0 125.0L340.0 125.0C341.10458 125.0 342.0 125.89543 342.0 127.0Z" fill-rule="nonzero"/><path stroke="#000000" stroke-width="2.0" stroke-linecap="butt" stroke-opacity="0.0" clip-path="url(#id_0)" d="M448.0 364.0L379.0 364.0L379.0 298.0C379.0 296.89542 379.89542 296.0 381.0 296.0L446.0 296.0C447.10458 296.0 448.0 296.89542 448.0 298.0Z" fill-rule="nonzero"/><path fill="#f05f40" clip-path="url(#id_0)" d="M448.0 364.0L379.0 364.0L379.0 298.0C379.0 296.89542 379.89542 296.0 381.0 296.0L446.0 296.0C447.10458 296.0 448.0 296.89542 448.0 298.0Z" fill-rule="nonzero"/><path stroke="#000000" stroke-width="2.0" stroke-linecap="butt" stroke-opacity="0.0" clip-path="url(#id_0)" d="M554.0 364.0L485.0 364.0L485.0 352.0C485.0 350.89542 485.89542 350.0 487.0 350.0L552.0 350.0C553.10455 350.0 554.0 350.89542 554.0 352.0Z" fill-rule="nonzero"/><path fill="#f05f40" clip-path="url(#id_0)" d="M554.0 364.0L485.0 364.0L485.0 352.0C485.0 350.89542 485.89542 350.0 487.0 350.0L552.0 350.0C553.10455 350.0 554.0 350.89542 554.0 352.0Z" fill-rule="nonzero"/><path stroke="#000000" stroke-width="2.0" stroke-linecap="butt" stroke-opacity="0.0" clip-path="url(#id_0)" d="M659.0 364.0L590.0 364.0L590.0 361.0C590.0 359.89542 590.89545 359.0 592.0 359.0L657.0 359.0C658.10455 359.0 659.0 359.89542 659.0 361.0Z" fill-rule="nonzero"/><path fill="#f05f40" clip-path="url(#id_0)" d="M659.0 364.0L590.0 364.0L590.0 361.0C590.0 359.89542 590.89545 359.0 592.0 359.0L657.0 359.0C658.10455 359.0 659.0 359.89542 659.0 361.0Z" fill-rule="nonzero"/><path fill="#000000" d="M41.19999 294.32187L26.887487 294.32187L26.887487 287.97812Q26.887487 286.07187 27.278112 285.07187Q27.653112 284.07187 28.637487 283.47812Q29.606237 282.88437 30.793737 282.88437Q32.309364 282.88437 33.35624 283.86874Q34.403114 284.85312 34.684364 286.91562Q35.04374 286.16562 35.403114 285.775Q36.153114 284.94687 37.309364 284.19687L41.19999 281.7125L41.19999 284.0875L38.215614 285.99374Q36.934364 286.82187 36.246864 287.35312Q35.559364 287.88437 35.29374 288.32187Q35.01249 288.74374 34.903114 289.18124Q34.840614 289.50937 34.840614 290.22812L34.840614 292.43124L41.19999 292.43124L41.19999 294.32187ZM33.19999 292.43124L33.19999 288.35312Q33.19999 287.05624 32.934364 286.3375Q32.66874 285.60312 32.07499 285.22812Q31.481237 284.8375 30.793737 284.8375Q29.778112 284.8375 29.121862 285.57187Q28.465612 286.30624 28.465612 287.9L28.465612 292.43124L33.19999 292.43124ZM37.85624 273.47812L38.090614 271.66562Q39.66874 272.0875 40.559364 273.25937Q41.434364 274.41562 41.434364 276.22812Q41.434364 278.49374 40.04374 279.8375Q38.63749 281.16562 36.10624 281.16562Q33.48124 281.16562 32.04374 279.82187Q30.590612 278.47812 30.590612 276.32187Q30.590612 274.24374 32.01249 272.93124Q33.41874 271.60312 35.996864 271.60312Q36.153114 271.60312 36.465614 271.61874L36.465614 279.35312Q38.16874 279.25937 39.07499 278.38437Q39.98124 277.50937 39.98124 276.2125Q39.98124 275.24374 39.48124 274.57187Q38.965614 273.88437 37.85624 273.47812ZM35.01249 279.25937L35.01249 273.4625Q33.715614 273.57187 33.059364 274.11874Q32.04374 274.9625 32.04374 276.30624Q32.04374 277.50937 32.85624 278.3375Q33.653114 279.16562 35.01249 279.25937ZM38.10624 270.29062L37.82499 268.54062Q38.871864 268.4 39.434364 267.72812Q39.98124 267.05624 39.98124 265.85312Q39.98124 264.65 39.496864 264.07187Q38.996864 263.47812 38.340614 263.47812Q37.746864 263.47812 37.403114 263.99374Q37.16874 264.35312 36.809364 265.79062Q36.309364 267.72812 35.965614 268.47812Q35.60624 269.2125 34.98124 269.60312Q34.340614 269.99374 33.57499 269.99374Q32.88749 269.99374 32.29374 269.68124Q31.699987 269.35312 31.309362 268.80624Q31.012487 268.4 30.809362 267.69687Q30.590612 266.97812 30.590612 266.16562Q30.590612 264.94687 30.949987 264.025Q31.293737 263.10312 31.903112 262.66562Q32.496864 262.22812 33.496864 262.05624L33.73124 263.775Q32.934364 263.9 32.496864 264.4625Q32.04374 265.025 32.04374 266.04062Q32.04374 267.25937 32.44999 267.775Q32.840614 268.29062 33.371864 268.29062Q33.715614 268.29062 33.996864 268.07187Q34.278114 267.86874 34.465614 267.4Q34.559364 267.13437 34.903114 265.85312Q35.403114 263.97812 35.73124 263.24374Q36.04374 262.50937 36.653114 262.0875Q37.246864 261.66562 38.153114 261.66562Q39.028114 261.66562 39.809364 262.18124Q40.590614 262.69687 41.01249 263.66562Q41.434364 264.63437 41.434364 265.85312Q41.434364 267.86874 40.590614 268.93124Q39.746864 269.99374 38.10624 270.29062ZM45.16874 259.5875L30.824987 259.5875L30.824987 257.97812L32.16874 257.97812Q31.387487 257.41562 30.996862 256.7125Q30.590612 255.99374 30.590612 254.97812Q30.590612 253.65 31.278112 252.63437Q31.965612 251.61874 33.215614 251.10312Q34.44999 250.57187 35.934364 250.57187Q37.528114 250.57187 38.809364 251.15Q40.07499 251.7125 40.76249 252.80624Q41.434364 253.9 41.434364 255.10312Q41.434364 255.97812 41.059364 256.68124Q40.684364 257.36874 40.121864 257.82187L45.16874 257.82187L45.16874 259.5875ZM36.07499 257.99374Q38.07499 257.99374 39.028114 257.18124Q39.98124 256.36874 39.98124 255.2125Q39.98124 254.04062 38.996864 253.2125Q38.01249 252.36874 35.91874 252.36874Q33.94999 252.36874 32.965614 253.19687Q31.965612 254.00937 31.965612 255.13437Q31.965612 256.25937 33.028114 257.13437Q34.07499 257.99374 36.07499 257.99374ZM36.01249 249.22812Q33.13749 249.22812 31.746862 247.63437Q30.590612 246.29062 30.590612 244.36874Q30.590612 242.22812 31.996862 240.88437Q33.403114 239.525 35.871864 239.525Q37.871864 239.525 39.028114 240.11874Q40.16874 240.7125 40.809364 241.86874Q41.434364 243.00937 41.434364 244.36874Q41.434364 246.55624 40.04374 247.9Q38.63749 249.22812 36.01249 249.22812ZM36.01249 247.43124Q38.01249 247.43124 38.996864 246.57187Q39.98124 245.69687 39.98124 244.36874Q39.98124 243.05624 38.996864 242.19687Q37.996864 241.32187 35.94999 241.32187Q34.028114 241.32187 33.04374 242.19687Q32.04374 243.07187 32.04374 244.36874Q32.04374 245.69687 33.04374 246.57187Q34.028114 247.43124 36.01249 247.43124ZM41.19999 237.5875L30.824987 237.5875L30.824987 235.99374L32.309364 235.99374Q30.590612 234.85312 30.590612 232.69687Q30.590612 231.75937 30.934362 230.97812Q31.262487 230.18124 31.809362 229.79062Q32.35624 229.4 33.10624 229.24374Q33.60624 229.15 34.82499 229.15L41.19999 229.15L41.19999 230.91562L34.88749 230.91562Q33.809364 230.91562 33.278114 231.11874Q32.746864 231.32187 32.434364 231.85312Q32.121864 232.36874 32.121864 233.07187Q32.121864 234.19687 32.840614 235.00937Q33.54374 235.82187 35.528114 235.82187L41.19999 235.82187L41.19999 237.5875ZM38.10624 228.29062L37.82499 226.54062Q38.871864 226.4 39.434364 225.72812Q39.98124 225.05624 39.98124 223.85312Q39.98124 222.65 39.496864 222.07187Q38.996864 221.47812 38.340614 221.47812Q37.746864 221.47812 37.403114 221.99374Q37.16874 222.35312 36.809364 223.79062Q36.309364 225.72812 35.965614 226.47812Q35.60624 227.2125 34.98124 227.60312Q34.340614 227.99374 33.57499 227.99374Q32.88749 227.99374 32.29374 227.68124Q31.699987 227.35312 31.309362 226.80624Q31.012487 226.4 30.809362 225.69687Q30.590612 224.97812 30.590612 224.16562Q30.590612 222.94687 30.949987 222.025Q31.293737 221.10312 31.903112 220.66562Q32.496864 220.22812 33.496864 220.05624L33.73124 221.775Q32.934364 221.9 32.496864 222.4625Q32.04374 223.025 32.04374 224.04062Q32.04374 225.25937 32.44999 225.775Q32.840614 226.29062 33.371864 226.29062Q33.715614 226.29062 33.996864 226.07187Q34.278114 225.86874 34.465614 225.4Q34.559364 225.13437 34.903114 223.85312Q35.403114 221.97812 35.73124 221.24374Q36.04374 220.50937 36.653114 220.0875Q37.246864 219.66562 38.153114 219.66562Q39.028114 219.66562 39.809364 220.18124Q40.590614 220.69687 41.01249 221.66562Q41.434364 222.63437 41.434364 223.85312Q41.434364 225.86874 40.590614 226.93124Q39.746864 227.99374 38.10624 228.29062ZM37.85624 210.47812L38.090614 208.66562Q39.66874 209.0875 40.559364 210.25937Q41.434364 211.41562 41.434364 213.22812Q41.434364 215.49374 40.04374 216.8375Q38.63749 218.16562 36.10624 218.16562Q33.48124 218.16562 32.04374 216.82187Q30.590612 215.47812 30.590612 213.32187Q30.590612 211.24374 32.01249 209.93124Q33.41874 208.60312 35.996864 208.60312Q36.153114 208.60312 36.465614 208.61874L36.465614 216.35312Q38.16874 216.25937 39.07499 215.38437Q39.98124 214.50937 39.98124 213.2125Q39.98124 212.24374 39.48124 211.57187Q38.965614 210.88437 37.85624 210.47812ZM35.01249 216.25937L35.01249 210.4625Q33.715614 210.57187 33.059364 211.11874Q32.04374 211.9625 32.04374 213.30624Q32.04374 214.50937 32.85624 215.3375Q33.653114 216.16562 35.01249 216.25937ZM38.10624 207.29062L37.82499 205.54062Q38.871864 205.4 39.434364 204.72812Q39.98124 204.05624 39.98124 202.85312Q39.98124 201.65 39.496864 201.07187Q38.996864 200.47812 38.340614 200.47812Q37.746864 200.47812 37.403114 200.99374Q37.16874 201.35312 36.809364 202.79062Q36.309364 204.72812 35.965614 205.47812Q35.60624 206.2125 34.98124 206.60312Q34.340614 206.99374 33.57499 206.99374Q32.88749 206.99374 32.29374 206.68124Q31.699987 206.35312 31.309362 205.80624Q31.012487 205.4 30.809362 204.69687Q30.590612 203.97812 30.590612 203.16562Q30.590612 201.94687 30.949987 201.025Q31.293737 200.10312 31.903112 199.66562Q32.496864 199.22812 33.496864 199.05624L33.73124 200.775Q32.934364 200.9 32.496864 201.4625Q32.04374 202.025 32.04374 203.04062Q32.04374 204.25937 32.44999 204.775Q32.840614 205.29062 33.371864 205.29062Q33.715614 205.29062 33.996864 205.07187Q34.278114 204.86874 34.465614 204.4Q34.559364 204.13437 34.903114 202.85312Q35.403114 200.97812 35.73124 200.24374Q36.04374 199.50937 36.653114 199.0875Q37.246864 198.66562 38.153114 198.66562Q39.028114 198.66562 39.809364 199.18124Q40.590614 199.69687 41.01249 200.66562Q41.434364 201.63437 41.434364 202.85312Q41.434364 204.86874 40.590614 205.93124Q39.746864 206.99374 38.10624 207.29062Z" fill-rule="nonzero"/><path fill="#000000" d="M110.02812 363.7375Q110.02812 361.20624 110.54375 359.65936Q111.075 358.09686 112.10625 357.26874Q113.1375 356.425 114.7 356.425Q115.85625 356.425 116.71562 356.89374Q117.59062 357.34686 118.15312 358.22186Q118.71562 359.09686 119.04375 360.3625Q119.37187 361.6125 119.37187 363.7375Q119.37187 366.2531 118.84062 367.8Q118.325 369.34686 117.29375 370.20624Q116.27812 371.05 114.7 371.05Q112.62187 371.05 111.45 369.5656Q110.02812 367.76874 110.02812 363.7375ZM111.84062 363.7375Q111.84062 367.26874 112.65312 368.4406Q113.48125 369.59686 114.7 369.59686Q115.90312 369.59686 116.73125 368.425Q117.55937 367.2531 117.55937 363.7375Q117.55937 360.20624 116.73125 359.05Q115.90312 357.8781 114.68437 357.8781Q113.46562 357.8781 112.74687 358.90936Q111.84062 360.20624 111.84062 363.7375Z" fill-rule="nonzero"/><path fill="#000000" d="M83.65312 314.84L81.8875 314.84L81.8875 303.63687Q81.2625 304.24625 80.23125 304.85562Q79.2 305.44937 78.37187 305.76187L78.37187 304.05875Q79.85625 303.37125 80.95 302.38687Q82.05937 301.38687 82.5125 300.465L83.65312 300.465L83.65312 314.84ZM88.02812 307.7775Q88.02812 305.24625 88.54375 303.69937Q89.075 302.13687 90.10625 301.30875Q91.1375 300.465 92.7 300.465Q93.85625 300.465 94.71562 300.93375Q95.59062 301.38687 96.15312 302.26187Q96.71562 303.13687 97.04375 304.4025Q97.37187 305.6525 97.37187 307.7775Q97.37187 310.29312 96.84062 311.84Q96.325 313.38687 95.29375 314.24625Q94.27812 315.09 92.7 315.09Q90.62187 315.09 89.45 313.60562Q88.02812 311.80875 88.02812 307.7775ZM89.84062 307.7775Q89.84062 311.30875 90.65312 312.48062Q91.48125 313.63687 92.7 313.63687Q93.90312 313.63687 94.73125 312.465Q95.55937 311.29312 95.55937 307.7775Q95.55937 304.24625 94.73125 303.09Q93.90312 301.91812 92.68437 301.91812Q91.46562 301.91812 90.74687 302.94937Q89.84062 304.24625 89.84062 307.7775ZM99.02812 307.7775Q99.02812 305.24625 99.54375 303.69937Q100.075 302.13687 101.10625 301.30875Q102.1375 300.465 103.7 300.465Q104.85625 300.465 105.71562 300.93375Q106.59062 301.38687 107.15312 302.26187Q107.71562 303.13687 108.04375 304.4025Q108.37187 305.6525 108.37187 307.7775Q108.37187 310.29312 107.84062 311.84Q107.325 313.38687 106.29375 314.24625Q105.27812 315.09 103.7 315.09Q101.62187 315.09 100.45 313.60562Q99.02812 311.80875 99.02812 307.7775ZM100.84062 307.7775Q100.84062 311.30875 101.65312 312.48062Q102.48125 313.63687 103.7 313.63687Q104.90312 313.63687 105.73125 312.465Q106.55937 311.29312 106.55937 307.7775Q106.55937 304.24625 105.73125 303.09Q104.90312 301.91812 103.68437 301.91812Q102.46562 301.91812 101.74687 302.94937Q100.84062 304.24625 100.84062 307.7775ZM110.02812 307.7775Q110.02812 305.24625 110.54375 303.69937Q111.075 302.13687 112.10625 301.30875Q113.1375 300.465 114.7 300.465Q115.85625 300.465 116.71562 300.93375Q117.59062 301.38687 118.15312 302.26187Q118.71562 303.13687 119.04375 304.4025Q119.37187 305.6525 119.37187 307.7775Q119.37187 310.29312 118.84062 311.84Q118.325 313.38687 117.29375 314.24625Q116.27812 315.09 114.7 315.09Q112.62187 315.09 111.45 313.60562Q110.02812 311.80875 110.02812 307.7775ZM111.84062 307.7775Q111.84062 311.30875 112.65312 312.48062Q113.48125 313.63687 114.7 313.63687Q115.90312 313.63687 116.73125 312.465Q117.55937 311.29312 117.55937 307.7775Q117.55937 304.24625 116.73125 303.09Q115.90312 301.91812 114.68437 301.91812Q113.46562 301.91812 112.74687 302.94937Q111.84062 304.24625 111.84062 307.7775Z" fill-rule="nonzero"/><path fill="#000000" d="M86.2625 257.1925L86.2625 258.88L76.80937 258.88Q76.79375 258.23938 77.0125 257.66125Q77.37187 256.6925 78.16875 255.755Q78.96562 254.8175 80.46562 253.58313Q82.80937 251.67688 83.62187 250.5675Q84.45 249.4425 84.45 248.4425Q84.45 247.39563 83.7 246.67688Q82.95 245.95813 81.74687 245.95813Q80.48125 245.95813 79.71562 246.72375Q78.95 247.48938 78.95 248.83313L77.1375 248.64563Q77.325 246.63 78.52812 245.5675Q79.74687 244.505 81.79375 244.505Q83.84062 244.505 85.04375 245.64563Q86.24687 246.78625 86.24687 248.47375Q86.24687 249.33313 85.8875 250.17688Q85.54375 251.005 84.73125 251.92688Q83.91875 252.83313 82.02812 254.4425Q80.43437 255.77063 79.98125 256.23938Q79.54375 256.70813 79.24687 257.1925L86.2625 257.1925ZM88.02812 251.8175Q88.02812 249.28625 88.54375 247.73938Q89.075 246.17688 90.10625 245.34875Q91.1375 244.505 92.7 244.505Q93.85625 244.505 94.71562 244.97375Q95.59062 245.42688 96.15312 246.30188Q96.71562 247.17688 97.04375 248.4425Q97.37187 249.6925 97.37187 251.8175Q97.37187 254.33313 96.84062 255.88Q96.325 257.42688 95.29375 258.28625Q94.27812 259.13 92.7 259.13Q90.62187 259.13 89.45 257.64563Q88.02812 255.84875 88.02812 251.8175ZM89.84062 251.8175Q89.84062 255.34875 90.65312 256.52063Q91.48125 257.67688 92.7 257.67688Q93.90312 257.67688 94.73125 256.505Q95.55937 255.33313 95.55937 251.8175Q95.55937 248.28625 94.73125 247.13Q93.90312 245.95813 92.68437 245.95813Q91.46562 245.95813 90.74687 246.98938Q89.84062 248.28625 89.84062 251.8175ZM99.02812 251.8175Q99.02812 249.28625 99.54375 247.73938Q100.075 246.17688 101.10625 245.34875Q102.1375 244.505 103.7 244.505Q104.85625 244.505 105.71562 244.97375Q106.59062 245.42688 107.15312 246.30188Q107.71562 247.17688 108.04375 248.4425Q108.37187 249.6925 108.37187 251.8175Q108.37187 254.33313 107.84062 255.88Q107.325 257.42688 106.29375 258.28625Q105.27812 259.13 103.7 259.13Q101.62187 259.13 100.45 257.64563Q99.02812 255.84875 99.02812 251.8175ZM100.84062 251.8175Q100.84062 255.34875 101.65312 256.52063Q102.48125 257.67688 103.7 257.67688Q104.90312 257.67688 105.73125 256.505Q106.55937 255.33313 106.55937 251.8175Q106.55937 248.28625 105.73125 247.13Q104.90312 245.95813 103.68437 245.95813Q102.46562 245.95813 101.74687 246.98938Q100.84062 248.28625 100.84062 251.8175ZM110.02812 251.8175Q110.02812 249.28625 110.54375 247.73938Q111.075 246.17688 112.10625 245.34875Q113.1375 244.505 114.7 244.505Q115.85625 244.505 116.71562 244.97375Q117.59062 245.42688 118.15312 246.30188Q118.71562 247.17688 119.04375 248.4425Q119.37187 249.6925 119.37187 251.8175Q119.37187 254.33313 118.84062 255.88Q118.325 257.42688 117.29375 258.28625Q116.27812 259.13 114.7 259.13Q112.62187 259.13 111.45 257.64563Q110.02812 255.84875 110.02812 251.8175ZM111.84062 251.8175Q111.84062 255.34875 112.65312 256.52063Q113.48125 257.67688 114.7 257.67688Q115.90312 257.67688 116.73125 256.505Q117.55937 255.33313 117.55937 251.8175Q117.55937 248.28625 116.73125 247.13Q115.90312 245.95813 114.68437 245.95813Q113.46562 245.95813 112.74687 246.98938Q111.84062 248.28625 111.84062 251.8175Z" fill-rule="nonzero"/><path fill="#000000" d="M77.04375 199.13875L78.79375 198.90437Q79.10625 200.40437 79.825 201.06062Q80.55937 201.71687 81.60625 201.71687Q82.84062 201.71687 83.68437 200.8575Q84.54375 199.99812 84.54375 198.7325Q84.54375 197.51375 83.74687 196.7325Q82.96562 195.95125 81.74687 195.95125Q81.24687 195.95125 80.5125 196.13875L80.7 194.59187Q80.87187 194.62312 80.98125 194.62312Q82.10625 194.62312 82.99687 194.045Q83.90312 193.45125 83.90312 192.2325Q83.90312 191.26375 83.24687 190.62312Q82.59062 189.9825 81.55937 189.9825Q80.54375 189.9825 79.85625 190.63875Q79.16875 191.27937 78.98125 192.56062L77.21562 192.24812Q77.54375 190.4825 78.68437 189.51375Q79.825 188.545 81.52812 188.545Q82.7 188.545 83.68437 189.045Q84.66875 189.545 85.18437 190.42Q85.71562 191.295 85.71562 192.26375Q85.71562 193.18562 85.21562 193.95125Q84.71562 194.71687 83.74687 195.17Q85.0125 195.45125 85.71562 196.38875Q86.41875 197.31062 86.41875 198.68562Q86.41875 200.56062 85.04375 201.87312Q83.68437 203.17 81.59062 203.17Q79.7 203.17 78.45 202.045Q77.21562 200.92 77.04375 199.13875ZM88.02812 195.8575Q88.02812 193.32625 88.54375 191.77937Q89.075 190.21687 90.10625 189.38875Q91.1375 188.545 92.7 188.545Q93.85625 188.545 94.71562 189.01375Q95.59062 189.46687 96.15312 190.34187Q96.71562 191.21687 97.04375 192.4825Q97.37187 193.7325 97.37187 195.8575Q97.37187 198.37312 96.84062 199.92Q96.325 201.46687 95.29375 202.32625Q94.27812 203.17 92.7 203.17Q90.62187 203.17 89.45 201.68562Q88.02812 199.88875 88.02812 195.8575ZM89.84062 195.8575Q89.84062 199.38875 90.65312 200.56062Q91.48125 201.71687 92.7 201.71687Q93.90312 201.71687 94.73125 200.545Q95.55937 199.37312 95.55937 195.8575Q95.55937 192.32625 94.73125 191.17Q93.90312 189.99812 92.68437 189.99812Q91.46562 189.99812 90.74687 191.02937Q89.84062 192.32625 89.84062 195.8575ZM99.02812 195.8575Q99.02812 193.32625 99.54375 191.77937Q100.075 190.21687 101.10625 189.38875Q102.1375 188.545 103.7 188.545Q104.85625 188.545 105.71562 189.01375Q106.59062 189.46687 107.15312 190.34187Q107.71562 191.21687 108.04375 192.4825Q108.37187 193.7325 108.37187 195.8575Q108.37187 198.37312 107.84062 199.92Q107.325 201.46687 106.29375 202.32625Q105.27812 203.17 103.7 203.17Q101.62187 203.17 100.45 201.68562Q99.02812 199.88875 99.02812 195.8575ZM100.84062 195.8575Q100.84062 199.38875 101.65312 200.56062Q102.48125 201.71687 103.7 201.71687Q104.90312 201.71687 105.73125 200.545Q106.55937 199.37312 106.55937 195.8575Q106.55937 192.32625 105.73125 191.17Q104.90312 189.99812 103.68437 189.99812Q102.46562 189.99812 101.74687 191.02937Q100.84062 192.32625 100.84062 195.8575ZM110.02812 195.8575Q110.02812 193.32625 110.54375 191.77937Q111.075 190.21687 112.10625 189.38875Q113.1375 188.545 114.7 188.545Q115.85625 188.545 116.71562 189.01375Q117.59062 189.46687 118.15312 190.34187Q118.71562 191.21687 119.04375 192.4825Q119.37187 193.7325 119.37187 195.8575Q119.37187 198.37312 118.84062 199.92Q118.325 201.46687 117.29375 202.32625Q116.27812 203.17 114.7 203.17Q112.62187 203.17 111.45 201.68562Q110.02812 199.88875 110.02812 195.8575ZM111.84062 195.8575Q111.84062 199.38875 112.65312 200.56062Q113.48125 201.71687 114.7 201.71687Q115.90312 201.71687 116.73125 200.545Q117.55937 199.37312 117.55937 195.8575Q117.55937 192.32625 116.73125 191.17Q115.90312 189.99812 114.68437 189.99812Q113.46562 189.99812 112.74687 191.02937Q111.84062 192.32625 111.84062 195.8575Z" fill-rule="nonzero"/><path fill="#000000" d="M82.66875 146.96L82.66875 143.53813L76.45 143.53813L76.45 141.91313L82.98125 132.6475L84.41875 132.6475L84.41875 141.91313L86.35625 141.91313L86.35625 143.53813L84.41875 143.53813L84.41875 146.96L82.66875 146.96ZM82.66875 141.91313L82.66875 135.46L78.18437 141.91313L82.66875 141.91313ZM88.02812 139.8975Q88.02812 137.36626 88.54375 135.81938Q89.075 134.25688 90.10625 133.42876Q91.1375 132.585 92.7 132.585Q93.85625 132.585 94.71562 133.05376Q95.59062 133.50688 96.15312 134.38188Q96.71562 135.25688 97.04375 136.5225Q97.37187 137.7725 97.37187 139.8975Q97.37187 142.41313 96.84062 143.96Q96.325 145.50688 95.29375 146.36626Q94.27812 147.21 92.7 147.21Q90.62187 147.21 89.45 145.72563Q88.02812 143.92876 88.02812 139.8975ZM89.84062 139.8975Q89.84062 143.42876 90.65312 144.60063Q91.48125 145.75688 92.7 145.75688Q93.90312 145.75688 94.73125 144.585Q95.55937 143.41313 95.55937 139.8975Q95.55937 136.36626 94.73125 135.21Q93.90312 134.03813 92.68437 134.03813Q91.46562 134.03813 90.74687 135.06938Q89.84062 136.36626 89.84062 139.8975ZM99.02812 139.8975Q99.02812 137.36626 99.54375 135.81938Q100.075 134.25688 101.10625 133.42876Q102.1375 132.585 103.7 132.585Q104.85625 132.585 105.71562 133.05376Q106.59062 133.50688 107.15312 134.38188Q107.71562 135.25688 108.04375 136.5225Q108.37187 137.7725 108.37187 139.8975Q108.37187 142.41313 107.84062 143.96Q107.325 145.50688 106.29375 146.36626Q105.27812 147.21 103.7 147.21Q101.62187 147.21 100.45 145.72563Q99.02812 143.92876 99.02812 139.8975ZM100.84062 139.8975Q100.84062 143.42876 101.65312 144.60063Q102.48125 145.75688 103.7 145.75688Q104.90312 145.75688 105.73125 144.585Q106.55937 143.41313 106.55937 139.8975Q106.55937 136.36626 105.73125 135.21Q104.90312 134.03813 103.68437 134.03813Q102.46562 134.03813 101.74687 135.06938Q100.84062 136.36626 100.84062 139.8975ZM110.02812 139.8975Q110.02812 137.36626 110.54375 135.81938Q111.075 134.25688 112.10625 133.42876Q113.1375 132.585 114.7 132.585Q115.85625 132.585 116.71562 133.05376Q117.59062 133.50688 118.15312 134.38188Q118.71562 135.25688 119.04375 136.5225Q119.37187 137.7725 119.37187 139.8975Q119.37187 142.41313 118.84062 143.96Q118.325 145.50688 117.29375 146.36626Q116.27812 147.21 114.7 147.21Q112.62187 147.21 111.45 145.72563Q110.02812 143.92876 110.02812 139.8975ZM111.84062 139.8975Q111.84062 143.42876 112.65312 144.60063Q113.48125 145.75688 114.7 145.75688Q115.90312 145.75688 116.73125 144.585Q117.55937 143.41313 117.55937 139.8975Q117.55937 136.36626 116.73125 135.21Q115.90312 134.03813 114.68437 134.03813Q113.46562 134.03813 112.74687 135.06938Q111.84062 136.36626 111.84062 139.8975Z" fill-rule="nonzero"/><path fill="#000000" d="M77.02812 87.25L78.87187 87.09375Q79.075 88.4375 79.825 89.125Q80.575 89.796875 81.6375 89.796875Q82.90312 89.796875 83.77812 88.84375Q84.65312 87.890625 84.65312 86.296875Q84.65312 84.796875 83.80937 83.9375Q82.96562 83.0625 81.60625 83.0625Q80.74687 83.0625 80.05937 83.453125Q79.3875 83.828125 78.99687 84.453125L77.34062 84.234375L78.73125 76.875L85.85625 76.875L85.85625 78.5625L80.1375 78.5625L79.37187 82.40625Q80.65312 81.5 82.075 81.5Q83.95 81.5 85.23125 82.8125Q86.52812 84.109375 86.52812 86.140625Q86.52812 88.09375 85.3875 89.5Q84.0125 91.25 81.6375 91.25Q79.68437 91.25 78.43437 90.15625Q77.2 89.0625 77.02812 87.25ZM88.02812 83.9375Q88.02812 81.40625 88.54375 79.859375Q89.075 78.296875 90.10625 77.46875Q91.1375 76.625 92.7 76.625Q93.85625 76.625 94.71562 77.09375Q95.59062 77.546875 96.15312 78.421875Q96.71562 79.296875 97.04375 80.5625Q97.37187 81.8125 97.37187 83.9375Q97.37187 86.453125 96.84062 88.0Q96.325 89.546875 95.29375 90.40625Q94.27812 91.25 92.7 91.25Q90.62187 91.25 89.45 89.765625Q88.02812 87.96875 88.02812 83.9375ZM89.84062 83.9375Q89.84062 87.46875 90.65312 88.640625Q91.48125 89.796875 92.7 89.796875Q93.90312 89.796875 94.73125 88.625Q95.55937 87.453125 95.55937 83.9375Q95.55937 80.40625 94.73125 79.25Q93.90312 78.078125 92.68437 78.078125Q91.46562 78.078125 90.74687 79.109375Q89.84062 80.40625 89.84062 83.9375ZM99.02812 83.9375Q99.02812 81.40625 99.54375 79.859375Q100.075 78.296875 101.10625 77.46875Q102.1375 76.625 103.7 76.625Q104.85625 76.625 105.71562 77.09375Q106.59062 77.546875 107.15312 78.421875Q107.71562 79.296875 108.04375 80.5625Q108.37187 81.8125 108.37187 83.9375Q108.37187 86.453125 107.84062 88.0Q107.325 89.546875 106.29375 90.40625Q105.27812 91.25 103.7 91.25Q101.62187 91.25 100.45 89.765625Q99.02812 87.96875 99.02812 83.9375ZM100.84062 83.9375Q100.84062 87.46875 101.65312 88.640625Q102.48125 89.796875 103.7 89.796875Q104.90312 89.796875 105.73125 88.625Q106.55937 87.453125 106.55937 83.9375Q106.55937 80.40625 105.73125 79.25Q104.90312 78.078125 103.68437 78.078125Q102.46562 78.078125 101.74687 79.109375Q100.84062 80.40625 100.84062 83.9375ZM110.02812 83.9375Q110.02812 81.40625 110.54375 79.859375Q111.075 78.296875 112.10625 77.46875Q113.1375 76.625 114.7 76.625Q115.85625 76.625 116.71562 77.09375Q117.59062 77.546875 118.15312 78.421875Q118.71562 79.296875 119.04375 80.5625Q119.37187 81.8125 119.37187 83.9375Q119.37187 86.453125 118.84062 88.0Q118.325 89.546875 117.29375 90.40625Q116.27812 91.25 114.7 91.25Q112.62187 91.25 111.45 89.765625Q110.02812 87.96875 110.02812 83.9375ZM111.84062 83.9375Q111.84062 87.46875 112.65312 88.640625Q113.48125 89.796875 114.7 89.796875Q115.90312 89.796875 116.73125 88.625Q117.55937 87.453125 117.55937 83.9375Q117.55937 80.40625 116.73125 79.25Q115.90312 78.078125 114.68437 78.078125Q113.46562 78.078125 112.74687 79.109375Q111.84062 80.40625 111.84062 83.9375Z" fill-rule="nonzero"/><path fill="#000000" d="M166.467 388.20624L168.24825 388.05Q168.37325 389.1125 168.82637 389.8Q169.29512 390.4875 170.26387 390.925Q171.24825 391.34686 172.48262 391.34686Q173.56075 391.34686 174.38887 391.03436Q175.217 390.70624 175.62325 390.14374Q176.0295 389.58124 176.0295 388.90936Q176.0295 388.2375 175.63887 387.7375Q175.24825 387.2375 174.35762 386.89374Q173.7795 386.65936 171.79512 386.1906Q169.82637 385.72186 169.04512 385.3Q168.01387 384.76874 167.51387 383.97186Q167.01387 383.175 167.01387 382.1906Q167.01387 381.09686 167.62325 380.15936Q168.23262 379.22186 169.42012 378.7375Q170.60762 378.2375 172.04512 378.2375Q173.63887 378.2375 174.85762 378.7531Q176.07637 379.26874 176.717 380.26874Q177.37325 381.2531 177.42012 382.51874L175.60762 382.65936Q175.467 381.3 174.62325 380.6125Q173.7795 379.90936 172.12325 379.90936Q170.4045 379.90936 169.60762 380.55Q168.82637 381.175 168.82637 382.05Q168.82637 382.83124 169.38887 383.33124Q169.93575 383.83124 172.24825 384.34686Q174.56075 384.8625 175.42012 385.2531Q176.67012 385.83124 177.26387 386.72186Q177.85762 387.59686 177.85762 388.7531Q177.85762 389.89374 177.20137 390.90936Q176.54512 391.925 175.31075 392.4875Q174.092 393.05 172.56075 393.05Q170.62325 393.05 169.31075 392.4875Q167.99825 391.90936 167.24825 390.76874Q166.49825 389.6281 166.467 388.20624ZM183.717 391.22186L183.967 392.78436Q183.23262 392.9406 182.63887 392.9406Q181.68575 392.9406 181.1545 392.64374Q180.63887 392.33124 180.42012 391.84686Q180.20137 391.34686 180.20137 389.76874L180.20137 383.8L178.92012 383.8L178.92012 382.425L180.20137 382.425L180.20137 379.8625L181.95137 378.8L181.95137 382.425L183.717 382.425L183.717 383.8L181.95137 383.8L181.95137 389.8625Q181.95137 390.6125 182.04512 390.83124Q182.13887 391.03436 182.342 391.175Q182.56075 391.3 182.95137 391.3Q183.23262 391.3 183.717 391.22186ZM185.85762 392.8L185.85762 382.425L187.43575 382.425L187.43575 384.0031Q188.04512 382.89374 188.56075 382.55Q189.07637 382.1906 189.68575 382.1906Q190.57637 382.1906 191.49825 382.7531L190.88887 384.39374Q190.24825 384.0031 189.60762 384.0031Q189.0295 384.0031 188.56075 384.3625Q188.10762 384.70624 187.9045 385.3156Q187.62325 386.2531 187.62325 387.3625L187.62325 392.8L185.85762 392.8ZM192.23262 387.6125Q192.23262 384.7375 193.82637 383.34686Q195.17012 382.1906 197.092 382.1906Q199.23262 382.1906 200.57637 383.59686Q201.93575 385.0031 201.93575 387.47186Q201.93575 389.47186 201.342 390.6281Q200.74825 391.76874 199.592 392.40936Q198.45137 393.03436 197.092 393.03436Q194.9045 393.03436 193.56075 391.64374Q192.23262 390.2375 192.23262 387.6125ZM194.0295 387.6125Q194.0295 389.6125 194.88887 390.59686Q195.76387 391.58124 197.092 391.58124Q198.4045 391.58124 199.26387 390.59686Q200.13887 389.59686 200.13887 387.55Q200.13887 385.6281 199.26387 384.64374Q198.38887 383.64374 197.092 383.64374Q195.76387 383.64374 194.88887 384.64374Q194.0295 385.6281 194.0295 387.6125ZM203.87325 392.8L203.87325 382.425L205.467 382.425L205.467 383.90936Q206.60762 382.1906 208.76387 382.1906Q209.70137 382.1906 210.48262 382.53436Q211.2795 382.8625 211.67012 383.40936Q212.06075 383.95624 212.217 384.70624Q212.31075 385.20624 212.31075 386.425L212.31075 392.8L210.54512 392.8L210.54512 386.4875Q210.54512 385.40936 210.342 384.8781Q210.13887 384.34686 209.60762 384.03436Q209.092 383.72186 208.38887 383.72186Q207.26387 383.72186 206.45137 384.4406Q205.63887 385.14374 205.63887 387.1281L205.63887 392.8L203.87325 392.8ZM213.56075 393.65936L215.26387 393.90936Q215.37325 394.70624 215.85762 395.0656Q216.51387 395.55 217.6545 395.55Q218.87325 395.55 219.5295 395.0656Q220.20137 394.58124 220.43575 393.70624Q220.57637 393.15936 220.56075 391.4406Q219.4045 392.8 217.68575 392.8Q215.54512 392.8 214.37325 391.2531Q213.20137 389.70624 213.20137 387.55Q213.20137 386.0656 213.73262 384.8156Q214.2795 383.5656 215.29512 382.8781Q216.32637 382.1906 217.70137 382.1906Q219.5295 382.1906 220.73262 383.675L220.73262 382.425L222.342 382.425L222.342 391.39374Q222.342 393.8156 221.842 394.8156Q221.35762 395.83124 220.2795 396.40936Q219.217 397.0031 217.6545 397.0031Q215.81075 397.0031 214.6545 396.175Q213.51387 395.34686 213.56075 393.65936ZM215.01387 387.425Q215.01387 389.47186 215.82637 390.40936Q216.63887 391.34686 217.85762 391.34686Q219.06075 391.34686 219.87325 390.40936Q220.70137 389.47186 220.70137 387.4875Q220.70137 385.58124 219.85762 384.6125Q219.01387 383.64374 217.82637 383.64374Q216.6545 383.64374 215.82637 384.59686Q215.01387 385.55 215.01387 387.425ZM224.842 392.8L224.842 378.4875L226.592 378.4875L226.592 392.8L224.842 392.8ZM228.79512 396.8L228.60762 395.14374Q229.18575 395.3 229.60762 395.3Q230.20137 395.3 230.54512 395.09686Q230.9045 394.90936 231.12325 394.5656Q231.29512 394.3 231.67012 393.2531Q231.717 393.09686 231.82637 392.8156L227.88887 382.425L229.7795 382.425L231.93575 388.4406Q232.35762 389.58124 232.68575 390.83124Q232.99825 389.6281 233.4045 388.47186L235.62325 382.425L237.38887 382.425L233.43575 392.97186Q232.81075 394.6906 232.45137 395.33124Q231.98262 396.20624 231.37325 396.59686Q230.7795 397.0031 229.93575 397.0031Q229.42012 397.0031 228.79512 396.8Z" fill-rule="nonzero"/><path fill="#000000" d="M175.0295 416.8L180.5295 402.4875L182.57637 402.4875L188.43575 416.8L186.2795 416.8L184.60762 412.45624L178.62325 412.45624L177.04512 416.8L175.0295 416.8ZM179.17012 410.925L184.01387 410.925L182.5295 406.95624Q181.842 405.14374 181.51387 403.9875Q181.23262 405.3625 180.73262 406.72186L179.17012 410.925ZM189.06075 417.65936L190.76387 417.90936Q190.87325 418.70624 191.35762 419.0656Q192.01387 419.55 193.1545 419.55Q194.37325 419.55 195.0295 419.0656Q195.70137 418.58124 195.93575 417.70624Q196.07637 417.15936 196.06075 415.4406Q194.9045 416.8 193.18575 416.8Q191.04512 416.8 189.87325 415.2531Q188.70137 413.70624 188.70137 411.55Q188.70137 410.0656 189.23262 408.8156Q189.7795 407.5656 190.79512 406.8781Q191.82637 406.1906 193.20137 406.1906Q195.0295 406.1906 196.23262 407.675L196.23262 406.425L197.842 406.425L197.842 415.39374Q197.842 417.8156 197.342 418.8156Q196.85762 419.83124 195.7795 420.40936Q194.717 421.0031 193.1545 421.0031Q191.31075 421.0031 190.1545 420.175Q189.01387 419.34686 189.06075 417.65936ZM190.51387 411.425Q190.51387 413.47186 191.32637 414.40936Q192.13887 415.34686 193.35762 415.34686Q194.56075 415.34686 195.37325 414.40936Q196.20137 413.47186 196.20137 411.4875Q196.20137 409.58124 195.35762 408.6125Q194.51387 407.64374 193.32637 407.64374Q192.1545 407.64374 191.32637 408.59686Q190.51387 409.55 190.51387 411.425ZM200.35762 416.8L200.35762 406.425L201.93575 406.425L201.93575 408.0031Q202.54512 406.89374 203.06075 406.55Q203.57637 406.1906 204.18575 406.1906Q205.07637 406.1906 205.99825 406.7531L205.38887 408.39374Q204.74825 408.0031 204.10762 408.0031Q203.5295 408.0031 203.06075 408.3625Q202.60762 408.70624 202.4045 409.3156Q202.12325 410.2531 202.12325 411.3625L202.12325 416.8L200.35762 416.8ZM214.48262 413.45624L216.29512 413.6906Q215.87325 415.26874 214.70137 416.15936Q213.54512 417.03436 211.73262 417.03436Q209.467 417.03436 208.12325 415.64374Q206.79512 414.2375 206.79512 411.70624Q206.79512 409.08124 208.13887 407.64374Q209.48262 406.1906 211.63887 406.1906Q213.717 406.1906 215.0295 407.6125Q216.35762 409.01874 216.35762 411.59686Q216.35762 411.7531 216.342 412.0656L208.60762 412.0656Q208.70137 413.76874 209.57637 414.675Q210.45137 415.58124 211.74825 415.58124Q212.717 415.58124 213.38887 415.08124Q214.07637 414.5656 214.48262 413.45624ZM208.70137 410.6125L214.49825 410.6125Q214.38887 409.3156 213.842 408.65936Q212.99825 407.64374 211.6545 407.64374Q210.45137 407.64374 209.62325 408.45624Q208.79512 409.2531 208.70137 410.6125ZM225.48262 413.45624L227.29512 413.6906Q226.87325 415.26874 225.70137 416.15936Q224.54512 417.03436 222.73262 417.03436Q220.467 417.03436 219.12325 415.64374Q217.79512 414.2375 217.79512 411.70624Q217.79512 409.08124 219.13887 407.64374Q220.48262 406.1906 222.63887 406.1906Q224.717 406.1906 226.0295 407.6125Q227.35762 409.01874 227.35762 411.59686Q227.35762 411.7531 227.342 412.0656L219.60762 412.0656Q219.70137 413.76874 220.57637 414.675Q221.45137 415.58124 222.74825 415.58124Q223.717 415.58124 224.38887 415.08124Q225.07637 414.5656 225.48262 413.45624ZM219.70137 410.6125L225.49825 410.6125Q225.38887 409.3156 224.842 408.65936Q223.99825 407.64374 222.6545 407.64374Q221.45137 407.64374 220.62325 408.45624Q219.79512 409.2531 219.70137 410.6125Z" fill-rule="nonzero"/><path fill="#000000" d="M280.7491 392.8L286.2491 378.4875L288.296 378.4875L294.15536 392.8L291.9991 392.8L290.32724 388.45624L284.34286 388.45624L282.76474 392.8L280.7491 392.8ZM284.88974 386.925L289.7335 386.925L288.2491 382.95624Q287.5616 381.14374 287.2335 379.9875Q286.95224 381.3625 286.45224 382.72186L284.88974 386.925ZM294.78036 393.65936L296.4835 393.90936Q296.59286 394.70624 297.07724 395.0656Q297.7335 395.55 298.8741 395.55Q300.09286 395.55 300.7491 395.0656Q301.421 394.58124 301.65536 393.70624Q301.796 393.15936 301.78036 391.4406Q300.6241 392.8 298.90536 392.8Q296.76474 392.8 295.59286 391.2531Q294.421 389.70624 294.421 387.55Q294.421 386.0656 294.95224 384.8156Q295.4991 383.5656 296.51474 382.8781Q297.546 382.1906 298.921 382.1906Q300.7491 382.1906 301.95224 383.675L301.95224 382.425L303.5616 382.425L303.5616 391.39374Q303.5616 393.8156 303.0616 394.8156Q302.57724 395.83124 301.4991 396.40936Q300.4366 397.0031 298.8741 397.0031Q297.03036 397.0031 295.8741 396.175Q294.7335 395.34686 294.78036 393.65936ZM296.2335 387.425Q296.2335 389.47186 297.046 390.40936Q297.8585 391.34686 299.07724 391.34686Q300.28036 391.34686 301.09286 390.40936Q301.921 389.47186 301.921 387.4875Q301.921 385.58124 301.07724 384.6125Q300.2335 383.64374 299.046 383.64374Q297.8741 383.64374 297.046 384.59686Q296.2335 385.55 296.2335 387.425ZM306.07724 392.8L306.07724 382.425L307.65536 382.425L307.65536 384.0031Q308.26474 382.89374 308.78036 382.55Q309.296 382.1906 309.90536 382.1906Q310.796 382.1906 311.71786 382.7531L311.1085 384.39374Q310.46786 384.0031 309.82724 384.0031Q309.2491 384.0031 308.78036 384.3625Q308.32724 384.70624 308.1241 385.3156Q307.84286 386.2531 307.84286 387.3625L307.84286 392.8L306.07724 392.8ZM320.20224 389.45624L322.01474 389.6906Q321.59286 391.26874 320.421 392.15936Q319.26474 393.03436 317.45224 393.03436Q315.1866 393.03436 313.84286 391.64374Q312.51474 390.2375 312.51474 387.70624Q312.51474 385.08124 313.8585 383.64374Q315.20224 382.1906 317.3585 382.1906Q319.4366 382.1906 320.7491 383.6125Q322.07724 385.01874 322.07724 387.59686Q322.07724 387.7531 322.0616 388.0656L314.32724 388.0656Q314.421 389.76874 315.296 390.675Q316.171 391.58124 317.46786 391.58124Q318.4366 391.58124 319.1085 391.08124Q319.796 390.5656 320.20224 389.45624ZM314.421 386.6125L320.21786 386.6125Q320.1085 385.3156 319.5616 384.65936Q318.71786 383.64374 317.3741 383.64374Q316.171 383.64374 315.34286 384.45624Q314.51474 385.2531 314.421 386.6125ZM331.20224 389.45624L333.01474 389.6906Q332.59286 391.26874 331.421 392.15936Q330.26474 393.03436 328.45224 393.03436Q326.1866 393.03436 324.84286 391.64374Q323.51474 390.2375 323.51474 387.70624Q323.51474 385.08124 324.8585 383.64374Q326.20224 382.1906 328.3585 382.1906Q330.4366 382.1906 331.7491 383.6125Q333.07724 385.01874 333.07724 387.59686Q333.07724 387.7531 333.0616 388.0656L325.32724 388.0656Q325.421 389.76874 326.296 390.675Q327.171 391.58124 328.46786 391.58124Q329.4366 391.58124 330.1085 391.08124Q330.796 390.5656 331.20224 389.45624ZM325.421 386.6125L331.21786 386.6125Q331.1085 385.3156 330.5616 384.65936Q329.71786 383.64374 328.3741 383.64374Q327.171 383.64374 326.34286 384.45624Q325.51474 385.2531 325.421 386.6125Z" fill-rule="nonzero"/><path fill="#000000" d="M383.53125 392.8L383.53125 378.4875L385.46875 378.4875L392.98438 389.72186L392.98438 378.4875L394.79688 378.4875L394.79688 392.8L392.85938 392.8L385.34375 381.55L385.34375 392.8L383.53125 392.8ZM403.42188 389.45624L405.23438 389.6906Q404.8125 391.26874 403.64062 392.15936Q402.48438 393.03436 400.67188 393.03436Q398.40625 393.03436 397.0625 391.64374Q395.73438 390.2375 395.73438 387.70624Q395.73438 385.08124 397.07812 383.64374Q398.42188 382.1906 400.57812 382.1906Q402.65625 382.1906 403.96875 383.6125Q405.29688 385.01874 405.29688 387.59686Q405.29688 387.7531 405.28125 388.0656L397.54688 388.0656Q397.64062 389.76874 398.51562 390.675Q399.39062 391.58124 400.6875 391.58124Q401.65625 391.58124 402.32812 391.08124Q403.01562 390.5656 403.42188 389.45624ZM397.64062 386.6125L403.4375 386.6125Q403.32812 385.3156 402.78125 384.65936Q401.9375 383.64374 400.59375 383.64374Q399.39062 383.64374 398.5625 384.45624Q397.73438 385.2531 397.64062 386.6125ZM414.10938 392.8L414.10938 391.26874Q412.90625 393.03436 410.82812 393.03436Q409.90625 393.03436 409.10938 392.6906Q408.3125 392.33124 407.92188 391.8Q407.54688 391.26874 407.39062 390.4875Q407.28125 389.97186 407.28125 388.84686L407.28125 382.425L409.03125 382.425L409.03125 388.175Q409.03125 389.55 409.14062 390.03436Q409.3125 390.72186 409.84375 391.1281Q410.39062 391.51874 411.17188 391.51874Q411.96875 391.51874 412.65625 391.1125Q413.35938 390.70624 413.64062 390.01874Q413.9375 389.3156 413.9375 387.9875L413.9375 382.425L415.6875 382.425L415.6875 392.8L414.10938 392.8ZM421.15625 391.22186L421.40625 392.78436Q420.67188 392.9406 420.07812 392.9406Q419.125 392.9406 418.59375 392.64374Q418.07812 392.33124 417.85938 391.84686Q417.64062 391.34686 417.64062 389.76874L417.64062 383.8L416.35938 383.8L416.35938 382.425L417.64062 382.425L417.64062 379.8625L419.39062 378.8L419.39062 382.425L421.15625 382.425L421.15625 383.8L419.39062 383.8L419.39062 389.8625Q419.39062 390.6125 419.48438 390.83124Q419.57812 391.03436 419.78125 391.175Q420.0 391.3 420.39062 391.3Q420.67188 391.3 421.15625 391.22186ZM423.29688 392.8L423.29688 382.425L424.875 382.425L424.875 384.0031Q425.48438 382.89374 426.0 382.55Q426.51562 382.1906 427.125 382.1906Q428.01562 382.1906 428.9375 382.7531L428.32812 384.39374Q427.6875 384.0031 427.04688 384.0031Q426.46875 384.0031 426.0 384.3625Q425.54688 384.70624 425.34375 385.3156Q425.0625 386.2531 425.0625 387.3625L425.0625 392.8L423.29688 392.8ZM437.09375 391.51874Q436.10938 392.34686 435.20312 392.6906Q434.29688 393.03436 433.26562 393.03436Q431.5625 393.03436 430.64062 392.20624Q429.71875 391.3625 429.71875 390.0656Q429.71875 389.3 430.0625 388.675Q430.42188 388.05 430.98438 387.675Q431.54688 387.28436 432.25 387.08124Q432.76562 386.95624 433.8125 386.8156Q435.9375 386.5656 436.9375 386.22186Q436.95312 385.8625 436.95312 385.7531Q436.95312 384.6906 436.45312 384.2375Q435.78125 383.64374 434.45312 383.64374Q433.20312 383.64374 432.60938 384.08124Q432.03125 384.51874 431.75 385.6281L430.03125 385.39374Q430.26562 384.28436 430.79688 383.6125Q431.32812 382.925 432.34375 382.5656Q433.35938 382.1906 434.70312 382.1906Q436.03125 382.1906 436.85938 382.5031Q437.6875 382.8156 438.07812 383.3Q438.46875 383.76874 438.625 384.4875Q438.71875 384.9406 438.71875 386.1125L438.71875 388.45624Q438.71875 390.90936 438.82812 391.5656Q438.9375 392.20624 439.28125 392.8L437.4375 392.8Q437.17188 392.2531 437.09375 391.51874ZM436.9375 387.59686Q435.98438 387.9875 434.0625 388.2531Q432.98438 388.40936 432.53125 388.6125Q432.09375 388.8 431.84375 389.175Q431.59375 389.55 431.59375 390.01874Q431.59375 390.72186 432.125 391.1906Q432.65625 391.65936 433.6875 391.65936Q434.70312 391.65936 435.48438 391.22186Q436.28125 390.76874 436.65625 390.0031Q436.9375 389.39374 436.9375 388.2375L436.9375 387.59686ZM441.28125 392.8L441.28125 378.4875L443.03125 378.4875L443.03125 392.8L441.28125 392.8Z" fill-rule="nonzero"/><path fill="#000000" d="M480.7665 392.8L480.7665 378.4875L485.6884 378.4875Q487.36026 378.4875 488.2509 378.6906Q489.46964 378.97186 490.34464 379.70624Q491.46964 380.675 492.03214 382.15936Q492.59464 383.64374 492.59464 385.5656Q492.59464 387.1906 492.21964 388.45624Q491.84464 389.70624 491.23526 390.53436Q490.6415 391.3625 489.9384 391.84686Q489.23526 392.3156 488.23526 392.5656Q487.23526 392.8 485.92276 392.8L480.7665 392.8ZM482.65714 391.1125L485.71964 391.1125Q487.1259 391.1125 487.92276 390.84686Q488.73526 390.58124 489.21964 390.09686Q489.8915 389.425 490.2665 388.3Q490.6415 387.15936 490.6415 385.53436Q490.6415 383.28436 489.90714 382.08124Q489.17276 380.8781 488.11026 380.47186Q487.36026 380.175 485.67276 380.175L482.65714 380.175L482.65714 391.1125ZM494.54776 380.5031L494.54776 378.4875L496.3134 378.4875L496.3134 380.5031L494.54776 380.5031ZM494.54776 392.8L494.54776 382.425L496.3134 382.425L496.3134 392.8L494.54776 392.8ZM497.829 389.70624L499.579 389.425Q499.71964 390.47186 500.3915 391.03436Q501.0634 391.58124 502.2665 391.58124Q503.46964 391.58124 504.04776 391.09686Q504.6415 390.59686 504.6415 389.9406Q504.6415 389.34686 504.1259 389.0031Q503.7665 388.76874 502.329 388.40936Q500.3915 387.90936 499.6415 387.5656Q498.90714 387.20624 498.5165 386.58124Q498.1259 385.9406 498.1259 385.175Q498.1259 384.4875 498.4384 383.89374Q498.7665 383.3 499.3134 382.90936Q499.71964 382.6125 500.42276 382.40936Q501.1415 382.1906 501.954 382.1906Q503.17276 382.1906 504.09464 382.55Q505.0165 382.89374 505.454 383.5031Q505.8915 384.09686 506.0634 385.09686L504.34464 385.33124Q504.21964 384.53436 503.65714 384.09686Q503.09464 383.64374 502.079 383.64374Q500.86026 383.64374 500.34464 384.05Q499.829 384.4406 499.829 384.97186Q499.829 385.3156 500.04776 385.59686Q500.2509 385.8781 500.71964 386.0656Q500.98526 386.15936 502.2665 386.5031Q504.1415 387.0031 504.8759 387.33124Q505.61026 387.64374 506.03214 388.2531Q506.454 388.84686 506.454 389.7531Q506.454 390.6281 505.9384 391.40936Q505.42276 392.1906 504.454 392.6125Q503.48526 393.03436 502.2665 393.03436Q500.2509 393.03436 499.1884 392.1906Q498.1259 391.34686 497.829 389.70624ZM515.31335 391.51874Q514.329 392.34686 513.4227 392.6906Q512.5165 393.03436 511.48526 393.03436Q509.78214 393.03436 508.86026 392.20624Q507.9384 391.3625 507.9384 390.0656Q507.9384 389.3 508.28214 388.675Q508.6415 388.05 509.204 387.675Q509.7665 387.28436 510.46964 387.08124Q510.98526 386.95624 512.0321 386.8156Q514.1571 386.5656 515.1571 386.22186Q515.1727 385.8625 515.1727 385.7531Q515.1727 384.6906 514.6727 384.2375Q514.00085 383.64374 512.6727 383.64374Q511.42276 383.64374 510.829 384.08124Q510.2509 384.51874 509.96964 385.6281L508.2509 385.39374Q508.48526 384.28436 509.0165 383.6125Q509.54776 382.925 510.5634 382.5656Q511.579 382.1906 512.9227 382.1906Q514.25085 382.1906 515.079 382.5031Q515.9071 382.8156 516.2977 383.3Q516.68835 383.76874 516.8446 384.4875Q516.93835 384.9406 516.93835 386.1125L516.93835 388.45624Q516.93835 390.90936 517.0477 391.5656Q517.1571 392.20624 517.50085 392.8L515.6571 392.8Q515.3915 392.2531 515.31335 391.51874ZM515.1571 387.59686Q514.204 387.9875 512.2821 388.2531Q511.204 388.40936 510.7509 388.6125Q510.3134 388.8 510.0634 389.175Q509.8134 389.55 509.8134 390.01874Q509.8134 390.72186 510.34464 391.1906Q510.8759 391.65936 511.90714 391.65936Q512.9227 391.65936 513.704 391.22186Q514.50085 390.76874 514.87585 390.0031Q515.1571 389.39374 515.1571 388.2375L515.1571 387.59686ZM519.2196 393.65936L520.9227 393.90936Q521.0321 394.70624 521.5165 395.0656Q522.1727 395.55 523.31335 395.55Q524.5321 395.55 525.18835 395.0656Q525.8602 394.58124 526.0946 393.70624Q526.2352 393.15936 526.2196 391.4406Q525.06335 392.8 523.3446 392.8Q521.204 392.8 520.0321 391.2531Q518.8602 389.70624 518.8602 387.55Q518.8602 386.0656 519.3915 384.8156Q519.93835 383.5656 520.954 382.8781Q521.9852 382.1906 523.3602 382.1906Q525.18835 382.1906 526.3915 383.675L526.3915 382.425L528.00085 382.425L528.00085 391.39374Q528.00085 393.8156 527.50085 394.8156Q527.0165 395.83124 525.93835 396.40936Q524.87585 397.0031 523.31335 397.0031Q521.4696 397.0031 520.31335 396.175Q519.1727 395.34686 519.2196 393.65936ZM520.6727 387.425Q520.6727 389.47186 521.4852 390.40936Q522.2977 391.34686 523.5165 391.34686Q524.7196 391.34686 525.5321 390.40936Q526.3602 389.47186 526.3602 387.4875Q526.3602 385.58124 525.5165 384.6125Q524.6727 383.64374 523.4852 383.64374Q522.31335 383.64374 521.4852 384.59686Q520.6727 385.55 520.6727 387.425ZM530.5165 392.8L530.5165 382.425L532.0946 382.425L532.0946 384.0031Q532.704 382.89374 533.2196 382.55Q533.7352 382.1906 534.3446 382.1906Q535.2352 382.1906 536.1571 382.7531L535.5477 384.39374Q534.9071 384.0031 534.2665 384.0031Q533.68835 384.0031 533.2196 384.3625Q532.7665 384.70624 532.56335 385.3156Q532.2821 386.2531 532.2821 387.3625L532.2821 392.8L530.5165 392.8ZM544.6415 389.45624L546.454 389.6906Q546.0321 391.26874 544.8602 392.15936Q543.704 393.03436 541.8915 393.03436Q539.62585 393.03436 538.2821 391.64374Q536.954 390.2375 536.954 387.70624Q536.954 385.08124 538.2977 383.64374Q539.6415 382.1906 541.7977 382.1906Q543.87585 382.1906 545.18835 383.6125Q546.5165 385.01874 546.5165 387.59686Q546.5165 387.7531 546.50085 388.0656L538.7665 388.0656Q538.8602 389.76874 539.7352 390.675Q540.6102 391.58124 541.9071 391.58124Q542.87585 391.58124 543.5477 391.08124Q544.2352 390.5656 544.6415 389.45624ZM538.8602 386.6125L544.6571 386.6125Q544.5477 385.3156 544.00085 384.65936Q543.1571 383.64374 541.81335 383.64374Q540.6102 383.64374 539.7821 384.45624Q538.954 385.2531 538.8602 386.6125ZM555.6415 389.45624L557.454 389.6906Q557.0321 391.26874 555.8602 392.15936Q554.704 393.03436 552.8915 393.03436Q550.62585 393.03436 549.2821 391.64374Q547.954 390.2375 547.954 387.70624Q547.954 385.08124 549.2977 383.64374Q550.6415 382.1906 552.7977 382.1906Q554.87585 382.1906 556.18835 383.6125Q557.5165 385.01874 557.5165 387.59686Q557.5165 387.7531 557.50085 388.0656L549.7665 388.0656Q549.8602 389.76874 550.7352 390.675Q551.6102 391.58124 552.9071 391.58124Q553.87585 391.58124 554.5477 391.08124Q555.2352 390.5656 555.6415 389.45624ZM549.8602 386.6125L555.6571 386.6125Q555.5477 385.3156 555.00085 384.65936Q554.1571 383.64374 552.81335 383.64374Q551.6102 383.64374 550.7821 384.45624Q549.954 385.2531 549.8602 386.6125Z" fill-rule="nonzero"/><path fill="#000000" d="M589.3455 388.20624L591.1268 388.05Q591.2518 389.1125 591.7049 389.8Q592.17365 390.4875 593.1424 390.925Q594.1268 391.34686 595.36115 391.34686Q596.4393 391.34686 597.2674 391.03436Q598.0955 390.70624 598.5018 390.14374Q598.908 389.58124 598.908 388.90936Q598.908 388.2375 598.5174 387.7375Q598.1268 387.2375 597.23615 386.89374Q596.658 386.65936 594.67365 386.1906Q592.7049 385.72186 591.92365 385.3Q590.8924 384.76874 590.3924 383.97186Q589.8924 383.175 589.8924 382.1906Q589.8924 381.09686 590.5018 380.15936Q591.11115 379.22186 592.29865 378.7375Q593.48615 378.2375 594.92365 378.2375Q596.5174 378.2375 597.73615 378.7531Q598.9549 379.26874 599.5955 380.26874Q600.2518 381.2531 600.29865 382.51874L598.48615 382.65936Q598.3455 381.3 597.5018 380.6125Q596.658 379.90936 595.0018 379.90936Q593.283 379.90936 592.48615 380.55Q591.7049 381.175 591.7049 382.05Q591.7049 382.83124 592.2674 383.33124Q592.8143 383.83124 595.1268 384.34686Q597.4393 384.8625 598.29865 385.2531Q599.54865 385.83124 600.1424 386.72186Q600.73615 387.59686 600.73615 388.7531Q600.73615 389.89374 600.0799 390.90936Q599.42365 391.925 598.1893 392.4875Q596.9705 393.05 595.4393 393.05Q593.5018 393.05 592.1893 392.4875Q590.8768 391.90936 590.1268 390.76874Q589.3768 389.6281 589.3455 388.20624ZM606.5955 391.22186L606.8455 392.78436Q606.11115 392.9406 605.5174 392.9406Q604.5643 392.9406 604.033 392.64374Q603.5174 392.33124 603.29865 391.84686Q603.0799 391.34686 603.0799 389.76874L603.0799 383.8L601.79865 383.8L601.79865 382.425L603.0799 382.425L603.0799 379.8625L604.8299 378.8L604.8299 382.425L606.5955 382.425L606.5955 383.8L604.8299 383.8L604.8299 389.8625Q604.8299 390.6125 604.92365 390.83124Q605.0174 391.03436 605.2205 391.175Q605.4393 391.3 605.8299 391.3Q606.11115 391.3 606.5955 391.22186ZM608.73615 392.8L608.73615 382.425L610.3143 382.425L610.3143 384.0031Q610.92365 382.89374 611.4393 382.55Q611.9549 382.1906 612.5643 382.1906Q613.4549 382.1906 614.3768 382.7531L613.7674 384.39374Q613.1268 384.0031 612.48615 384.0031Q611.908 384.0031 611.4393 384.3625Q610.98615 384.70624 610.783 385.3156Q610.5018 386.2531 610.5018 387.3625L610.5018 392.8L608.73615 392.8ZM615.11115 387.6125Q615.11115 384.7375 616.7049 383.34686Q618.04865 382.1906 619.9705 382.1906Q622.11115 382.1906 623.4549 383.59686Q624.8143 385.0031 624.8143 387.47186Q624.8143 389.47186 624.2205 390.6281Q623.6268 391.76874 622.4705 392.40936Q621.3299 393.03436 619.9705 393.03436Q617.783 393.03436 616.4393 391.64374Q615.11115 390.2375 615.11115 387.6125ZM616.908 387.6125Q616.908 389.6125 617.7674 390.59686Q618.6424 391.58124 619.9705 391.58124Q621.283 391.58124 622.1424 390.59686Q623.0174 389.59686 623.0174 387.55Q623.0174 385.6281 622.1424 384.64374Q621.2674 383.64374 619.9705 383.64374Q618.6424 383.64374 617.7674 384.64374Q616.908 385.6281 616.908 387.6125ZM626.7518 392.8L626.7518 382.425L628.3455 382.425L628.3455 383.90936Q629.48615 382.1906 631.6424 382.1906Q632.5799 382.1906 633.36115 382.53436Q634.158 382.8625 634.54865 383.40936Q634.9393 383.95624 635.0955 384.70624Q635.1893 385.20624 635.1893 386.425L635.1893 392.8L633.42365 392.8L633.42365 386.4875Q633.42365 385.40936 633.2205 384.8781Q633.0174 384.34686 632.48615 384.03436Q631.9705 383.72186 631.2674 383.72186Q630.1424 383.72186 629.3299 384.4406Q628.5174 385.14374 628.5174 387.1281L628.5174 392.8L626.7518 392.8ZM636.4393 393.65936L638.1424 393.90936Q638.2518 394.70624 638.73615 395.0656Q639.3924 395.55 640.533 395.55Q641.7518 395.55 642.408 395.0656Q643.0799 394.58124 643.3143 393.70624Q643.4549 393.15936 643.4393 391.4406Q642.283 392.8 640.5643 392.8Q638.42365 392.8 637.2518 391.2531Q636.0799 389.70624 636.0799 387.55Q636.0799 386.0656 636.61115 384.8156Q637.158 383.5656 638.17365 382.8781Q639.2049 382.1906 640.5799 382.1906Q642.408 382.1906 643.61115 383.675L643.61115 382.425L645.2205 382.425L645.2205 391.39374Q645.2205 393.8156 644.7205 394.8156Q644.23615 395.83124 643.158 396.40936Q642.0955 397.0031 640.533 397.0031Q638.6893 397.0031 637.533 396.175Q636.3924 395.34686 636.4393 393.65936ZM637.8924 387.425Q637.8924 389.47186 638.7049 390.40936Q639.5174 391.34686 640.73615 391.34686Q641.9393 391.34686 642.7518 390.40936Q643.5799 389.47186 643.5799 387.4875Q643.5799 385.58124 642.73615 384.6125Q641.8924 383.64374 640.7049 383.64374Q639.533 383.64374 638.7049 384.59686Q637.8924 385.55 637.8924 387.425ZM647.7205 392.8L647.7205 378.4875L649.4705 378.4875L649.4705 392.8L647.7205 392.8ZM651.67365 396.8L651.48615 395.14374Q652.0643 395.3 652.48615 395.3Q653.0799 395.3 653.42365 395.09686Q653.783 394.90936 654.0018 394.5656Q654.17365 394.3 654.54865 393.2531Q654.5955 393.09686 654.7049 392.8156L650.7674 382.425L652.658 382.425L654.8143 388.4406Q655.23615 389.58124 655.5643 390.83124Q655.8768 389.6281 656.283 388.47186L658.5018 382.425L660.2674 382.425L656.3143 392.97186Q655.6893 394.6906 655.3299 395.33124Q654.86115 396.20624 654.2518 396.59686Q653.658 397.0031 652.8143 397.0031Q652.29865 397.0031 651.67365 396.8Z" fill-rule="nonzero"/><path fill="#000000" d="M586.48615 416.8L586.48615 402.4875L591.408 402.4875Q593.0799 402.4875 593.9705 402.6906Q595.1893 402.97186 596.0643 403.70624Q597.1893 404.675 597.7518 406.15936Q598.3143 407.64374 598.3143 409.5656Q598.3143 411.1906 597.9393 412.45624Q597.5643 413.70624 596.9549 414.53436Q596.36115 415.3625 595.658 415.84686Q594.9549 416.3156 593.9549 416.5656Q592.9549 416.8 591.6424 416.8L586.48615 416.8ZM588.3768 415.1125L591.4393 415.1125Q592.8455 415.1125 593.6424 414.84686Q594.4549 414.58124 594.9393 414.09686Q595.61115 413.425 595.98615 412.3Q596.36115 411.15936 596.36115 409.53436Q596.36115 407.28436 595.6268 406.08124Q594.8924 404.8781 593.8299 404.47186Q593.0799 404.175 591.3924 404.175L588.3768 404.175L588.3768 415.1125ZM600.2674 404.5031L600.2674 402.4875L602.033 402.4875L602.033 404.5031L600.2674 404.5031ZM600.2674 416.8L600.2674 406.425L602.033 406.425L602.033 416.8L600.2674 416.8ZM603.54865 413.70624L605.29865 413.425Q605.4393 414.47186 606.11115 415.03436Q606.783 415.58124 607.98615 415.58124Q609.1893 415.58124 609.7674 415.09686Q610.36115 414.59686 610.36115 413.9406Q610.36115 413.34686 609.8455 413.0031Q609.48615 412.76874 608.04865 412.40936Q606.11115 411.90936 605.36115 411.5656Q604.6268 411.20624 604.23615 410.58124Q603.8455 409.9406 603.8455 409.175Q603.8455 408.4875 604.158 407.89374Q604.48615 407.3 605.033 406.90936Q605.4393 406.6125 606.1424 406.40936Q606.86115 406.1906 607.67365 406.1906Q608.8924 406.1906 609.8143 406.55Q610.73615 406.89374 611.17365 407.5031Q611.61115 408.09686 611.783 409.09686L610.0643 409.33124Q609.9393 408.53436 609.3768 408.09686Q608.8143 407.64374 607.79865 407.64374Q606.5799 407.64374 606.0643 408.05Q605.54865 408.4406 605.54865 408.97186Q605.54865 409.3156 605.7674 409.59686Q605.9705 409.8781 606.4393 410.0656Q606.7049 410.15936 607.98615 410.5031Q609.86115 411.0031 610.5955 411.33124Q611.3299 411.64374 611.7518 412.2531Q612.17365 412.84686 612.17365 413.7531Q612.17365 414.6281 611.658 415.40936Q611.1424 416.1906 610.17365 416.6125Q609.2049 417.03436 607.98615 417.03436Q605.9705 417.03436 604.908 416.1906Q603.8455 415.34686 603.54865 413.70624ZM621.033 415.51874Q620.04865 416.34686 619.1424 416.6906Q618.23615 417.03436 617.2049 417.03436Q615.5018 417.03436 614.5799 416.20624Q613.658 415.3625 613.658 414.0656Q613.658 413.3 614.0018 412.675Q614.36115 412.05 614.92365 411.675Q615.48615 411.28436 616.1893 411.08124Q616.7049 410.95624 617.7518 410.8156Q619.8768 410.5656 620.8768 410.22186Q620.8924 409.8625 620.8924 409.7531Q620.8924 408.6906 620.3924 408.2375Q619.7205 407.64374 618.3924 407.64374Q617.1424 407.64374 616.54865 408.08124Q615.9705 408.51874 615.6893 409.6281L613.9705 409.39374Q614.2049 408.28436 614.73615 407.6125Q615.2674 406.925 616.283 406.5656Q617.29865 406.1906 618.6424 406.1906Q619.9705 406.1906 620.79865 406.5031Q621.6268 406.8156 622.0174 407.3Q622.408 407.76874 622.5643 408.4875Q622.658 408.9406 622.658 410.1125L622.658 412.45624Q622.658 414.90936 622.7674 415.5656Q622.8768 416.20624 623.2205 416.8L621.3768 416.8Q621.11115 416.2531 621.033 415.51874ZM620.8768 411.59686Q619.92365 411.9875 618.0018 412.2531Q616.92365 412.40936 616.4705 412.6125Q616.033 412.8 615.783 413.175Q615.533 413.55 615.533 414.01874Q615.533 414.72186 616.0643 415.1906Q616.5955 415.65936 617.6268 415.65936Q618.6424 415.65936 619.42365 415.22186Q620.2205 414.76874 620.5955 414.0031Q620.8768 413.39374 620.8768 412.2375L620.8768 411.59686ZM624.9393 417.65936L626.6424 417.90936Q626.7518 418.70624 627.23615 419.0656Q627.8924 419.55 629.033 419.55Q630.2518 419.55 630.908 419.0656Q631.5799 418.58124 631.8143 417.70624Q631.9549 417.15936 631.9393 415.4406Q630.783 416.8 629.0643 416.8Q626.92365 416.8 625.7518 415.2531Q624.5799 413.70624 624.5799 411.55Q624.5799 410.0656 625.11115 408.8156Q625.658 407.5656 626.67365 406.8781Q627.7049 406.1906 629.0799 406.1906Q630.908 406.1906 632.11115 407.675L632.11115 406.425L633.7205 406.425L633.7205 415.39374Q633.7205 417.8156 633.2205 418.8156Q632.73615 419.83124 631.658 420.40936Q630.5955 421.0031 629.033 421.0031Q627.1893 421.0031 626.033 420.175Q624.8924 419.34686 624.9393 417.65936ZM626.3924 411.425Q626.3924 413.47186 627.2049 414.40936Q628.0174 415.34686 629.23615 415.34686Q630.4393 415.34686 631.2518 414.40936Q632.0799 413.47186 632.0799 411.4875Q632.0799 409.58124 631.23615 408.6125Q630.3924 407.64374 629.2049 407.64374Q628.033 407.64374 627.2049 408.59686Q626.3924 409.55 626.3924 411.425ZM636.23615 416.8L636.23615 406.425L637.8143 406.425L637.8143 408.0031Q638.42365 406.89374 638.9393 406.55Q639.4549 406.1906 640.0643 406.1906Q640.9549 406.1906 641.8768 406.7531L641.2674 408.39374Q640.6268 408.0031 639.98615 408.0031Q639.408 408.0031 638.9393 408.3625Q638.48615 408.70624 638.283 409.3156Q638.0018 410.2531 638.0018 411.3625L638.0018 416.8L636.23615 416.8ZM650.36115 413.45624L652.17365 413.6906Q651.7518 415.26874 650.5799 416.15936Q649.42365 417.03436 647.61115 417.03436Q645.3455 417.03436 644.0018 415.64374Q642.67365 414.2375 642.67365 411.70624Q642.67365 409.08124 644.0174 407.64374Q645.36115 406.1906 647.5174 406.1906Q649.5955 406.1906 650.908 407.6125Q652.23615 409.01874 652.23615 411.59686Q652.23615 411.7531 652.2205 412.0656L644.48615 412.0656Q644.5799 413.76874 645.4549 414.675Q646.3299 415.58124 647.6268 415.58124Q648.5955 415.58124 649.2674 415.08124Q649.9549 414.5656 650.36115 413.45624ZM644.5799 410.6125L650.3768 410.6125Q650.2674 409.3156 649.7205 408.65936Q648.8768 407.64374 647.533 407.64374Q646.3299 407.64374 645.5018 408.45624Q644.67365 409.2531 644.5799 410.6125ZM661.36115 413.45624L663.17365 413.6906Q662.7518 415.26874 661.5799 416.15936Q660.42365 417.03436 658.61115 417.03436Q656.3455 417.03436 655.0018 415.64374Q653.67365 414.2375 653.67365 411.70624Q653.67365 409.08124 655.0174 407.64374Q656.36115 406.1906 658.5174 406.1906Q660.5955 406.1906 661.908 407.6125Q663.23615 409.01874 663.23615 411.59686Q663.23615 411.7531 663.2205 412.0656L655.48615 412.0656Q655.5799 413.76874 656.4549 414.675Q657.3299 415.58124 658.6268 415.58124Q659.5955 415.58124 660.2674 415.08124Q660.9549 414.5656 661.36115 413.45624ZM655.5799 410.6125L661.3768 410.6125Q661.2674 409.3156 660.7205 408.65936Q659.8768 407.64374 658.533 407.64374Q657.3299 407.64374 656.5018 408.45624Q655.67365 409.2531 655.5799 410.6125Z" fill-rule="nonzero"/><path fill="#757575" d="M24.309376 36.325L23.575 32.246876L23.575 28.73125L26.575 28.73125L26.575 32.246876L25.91875 36.325L24.309376 36.325ZM29.153126 36.325L28.434376 32.246876L28.434376 28.73125L31.45 28.73125L31.45 32.246876L30.746876 36.325L29.153126 36.325ZM35.996876 50.2L35.996876 28.73125L38.840626 28.73125L38.840626 50.2L35.996876 50.2ZM50.121876 50.2L50.121876 28.73125L52.7625 28.73125L52.7625 50.2L50.121876 50.2ZM67.825 45.184376L70.55937 45.528126Q69.90312 47.91875 68.15312 49.246876Q66.41875 50.559376 63.715626 50.559376Q60.29375 50.559376 58.29375 48.45Q56.29375 46.340626 56.29375 42.559376Q56.29375 38.621876 58.309376 36.465626Q60.340626 34.29375 63.559376 34.29375Q66.68437 34.29375 68.65312 36.41875Q70.6375 38.54375 70.6375 42.3875Q70.6375 42.621876 70.62187 43.090626L59.028126 43.090626Q59.16875 45.653126 60.465626 47.028126Q61.778126 48.3875 63.73125 48.3875Q65.16875 48.3875 66.2 47.621876Q67.23125 46.85625 67.825 45.184376ZM59.16875 40.934376L67.85625 40.934376Q67.68437 38.965626 66.85625 37.98125Q65.60625 36.465626 63.590626 36.465626Q61.778126 36.465626 60.54375 37.684376Q59.309376 38.8875 59.16875 40.934376ZM83.325 48.278126Q81.87187 49.528126 80.5125 50.04375Q79.15312 50.559376 77.60625 50.559376Q75.04375 50.559376 73.65312 49.309376Q72.27812 48.04375 72.27812 46.090626Q72.27812 44.95 72.79375 44.0125Q73.325 43.059376 74.16875 42.496876Q75.0125 41.91875 76.05937 41.6375Q76.84062 41.41875 78.40312 41.23125Q81.60625 40.85625 83.10625 40.325Q83.12187 39.778126 83.12187 39.6375Q83.12187 38.028126 82.37187 37.371876Q81.37187 36.48125 79.37187 36.48125Q77.5125 36.48125 76.62187 37.1375Q75.74687 37.778126 75.30937 39.434376L72.73125 39.075Q73.09062 37.41875 73.8875 36.403126Q74.7 35.3875 76.21562 34.840626Q77.74687 34.29375 79.7625 34.29375Q81.74687 34.29375 82.98125 34.7625Q84.23125 35.23125 84.80937 35.95Q85.40312 36.653126 85.6375 37.73125Q85.77812 38.403126 85.77812 40.16875L85.77812 43.684376Q85.77812 47.35625 85.93437 48.340626Q86.10625 49.309376 86.60625 50.2L83.85625 50.2Q83.45 49.371876 83.325 48.278126ZM83.10625 42.3875Q81.66875 42.98125 78.80937 43.3875Q77.18437 43.621876 76.49687 43.91875Q75.825 44.215626 75.45 44.778126Q75.09062 45.340626 75.09062 46.028126Q75.09062 47.075 75.8875 47.778126Q76.7 48.48125 78.23125 48.48125Q79.7625 48.48125 80.93437 47.825Q82.12187 47.153126 82.68437 45.996876Q83.10625 45.10625 83.10625 43.35625L83.10625 42.3875ZM89.15312 50.2L89.15312 34.6375L91.52812 34.6375L91.52812 36.996876Q92.43437 35.340626 93.2 34.825Q93.96562 34.29375 94.8875 34.29375Q96.23125 34.29375 97.60625 35.1375L96.7 37.590626Q95.73125 37.0125 94.7625 37.0125Q93.8875 37.0125 93.2 37.54375Q92.5125 38.059376 92.23125 38.98125Q91.77812 40.3875 91.77812 42.059376L91.77812 50.2L89.15312 50.2ZM99.18437 50.2L99.18437 34.6375L101.54375 34.6375L101.54375 36.85625Q103.2625 34.29375 106.49687 34.29375Q107.90312 34.29375 109.075 34.809376Q110.2625 35.309376 110.84062 36.1375Q111.43437 36.95 111.66875 38.075Q111.825 38.809376 111.825 40.6375L111.825 50.2L109.18437 50.2L109.18437 40.73125Q109.18437 39.121876 108.87187 38.325Q108.575 37.528126 107.77812 37.059376Q106.99687 36.575 105.95 36.575Q104.2625 36.575 103.02812 37.653126Q101.80937 38.715626 101.80937 41.7L101.80937 50.2L99.18437 50.2ZM126.825 45.184376L129.55937 45.528126Q128.90312 47.91875 127.15312 49.246876Q125.41875 50.559376 122.71562 50.559376Q119.29375 50.559376 117.29375 48.45Q115.29375 46.340626 115.29375 42.559376Q115.29375 38.621876 117.30937 36.465626Q119.34062 34.29375 122.55937 34.29375Q125.68437 34.29375 127.65312 36.41875Q129.6375 38.54375 129.6375 42.3875Q129.6375 42.621876 129.62187 43.090626L118.02812 43.090626Q118.16875 45.653126 119.46562 47.028126Q120.77812 48.3875 122.73125 48.3875Q124.16875 48.3875 125.2 47.621876Q126.23125 46.85625 126.825 45.184376ZM118.16875 40.934376L126.85625 40.934376Q126.68437 38.965626 125.85625 37.98125Q124.60625 36.465626 122.59062 36.465626Q120.77812 36.465626 119.54375 37.684376Q118.30937 38.8875 118.16875 40.934376ZM142.27812 50.2L142.27812 48.23125Q140.79375 50.559376 137.91875 50.559376Q136.05937 50.559376 134.49687 49.528126Q132.93437 48.496876 132.075 46.66875Q131.23125 44.825 131.23125 42.434376Q131.23125 40.10625 131.99687 38.215626Q132.77812 36.309376 134.325 35.309376Q135.8875 34.29375 137.80937 34.29375Q139.21562 34.29375 140.30937 34.8875Q141.40312 35.48125 142.09062 36.434376L142.09062 28.73125L144.71562 28.73125L144.71562 50.2L142.27812 50.2ZM133.93437 42.434376Q133.93437 45.41875 135.18437 46.903126Q136.45 48.3875 138.16875 48.3875Q139.90312 48.3875 141.10625 46.98125Q142.30937 45.559376 142.30937 42.653126Q142.30937 39.465626 141.075 37.98125Q139.85625 36.48125 138.05937 36.48125Q136.29375 36.48125 135.10625 37.91875Q133.93437 39.340626 133.93437 42.434376ZM167.325 48.278126Q165.87187 49.528126 164.5125 50.04375Q163.15312 50.559376 161.60625 50.559376Q159.04375 50.559376 157.65312 49.309376Q156.27812 48.04375 156.27812 46.090626Q156.27812 44.95 156.79375 44.0125Q157.325 43.059376 158.16875 42.496876Q159.0125 41.91875 160.05937 41.6375Q160.84062 41.41875 162.40312 41.23125Q165.60625 40.85625 167.10625 40.325Q167.12187 39.778126 167.12187 39.6375Q167.12187 38.028126 166.37187 37.371876Q165.37187 36.48125 163.37187 36.48125Q161.5125 36.48125 160.62187 37.1375Q159.74687 37.778126 159.30937 39.434376L156.73125 39.075Q157.09062 37.41875 157.8875 36.403126Q158.7 35.3875 160.21562 34.840626Q161.74687 34.29375 163.7625 34.29375Q165.74687 34.29375 166.98125 34.7625Q168.23125 35.23125 168.80937 35.95Q169.40312 36.653126 169.6375 37.73125Q169.77812 38.403126 169.77812 40.16875L169.77812 43.684376Q169.77812 47.35625 169.93437 48.340626Q170.10625 49.309376 170.60625 50.2L167.85625 50.2Q167.45 49.371876 167.325 48.278126ZM167.10625 42.3875Q165.66875 42.98125 162.80937 43.3875Q161.18437 43.621876 160.49687 43.91875Q159.825 44.215626 159.45 44.778126Q159.09062 45.340626 159.09062 46.028126Q159.09062 47.075 159.8875 47.778126Q160.7 48.48125 162.23125 48.48125Q163.7625 48.48125 164.93437 47.825Q166.12187 47.153126 166.68437 45.996876Q167.10625 45.10625 167.10625 43.35625L167.10625 42.3875ZM180.12187 45.559376L182.73125 45.153126Q182.95 46.715626 183.95 47.559376Q184.95 48.3875 186.7625 48.3875Q188.575 48.3875 189.45 47.653126Q190.34062 46.903126 190.34062 45.903126Q190.34062 45.0125 189.55937 44.496876Q189.0125 44.153126 186.85625 43.60625Q183.96562 42.871876 182.84062 42.340626Q181.71562 41.809376 181.1375 40.871876Q180.55937 39.91875 180.55937 38.778126Q180.55937 37.73125 181.02812 36.85625Q181.5125 35.965626 182.34062 35.371876Q182.95 34.91875 184.0125 34.60625Q185.075 34.29375 186.29375 34.29375Q188.12187 34.29375 189.49687 34.825Q190.8875 35.340626 191.54375 36.246876Q192.21562 37.153126 192.45 38.653126L189.87187 39.0125Q189.7 37.809376 188.85625 37.1375Q188.0125 36.465626 186.48125 36.465626Q184.66875 36.465626 183.8875 37.059376Q183.10625 37.653126 183.10625 38.465626Q183.10625 38.98125 183.43437 39.3875Q183.7625 39.809376 184.45 40.090626Q184.84062 40.23125 186.77812 40.7625Q189.575 41.5125 190.66875 41.996876Q191.77812 42.465626 192.40312 43.371876Q193.04375 44.278126 193.04375 45.621876Q193.04375 46.95 192.27812 48.121876Q191.5125 49.278126 190.05937 49.91875Q188.60625 50.559376 186.77812 50.559376Q183.74687 50.559376 182.15312 49.29375Q180.55937 48.028126 180.12187 45.559376ZM196.2 31.7625L196.2 28.73125L198.825 28.73125L198.825 31.7625L196.2 31.7625ZM196.2 50.2L196.2 34.6375L198.825 34.6375L198.825 50.2L196.2 50.2ZM202.7 51.496876L205.2625 51.871876Q205.41875 53.059376 206.15312 53.60625Q207.1375 54.325 208.825 54.325Q210.66875 54.325 211.65312 53.590626Q212.65312 52.871876 213.0125 51.54375Q213.21562 50.746876 213.2 48.16875Q211.46562 50.2 208.8875 50.2Q205.68437 50.2 203.91875 47.8875Q202.16875 45.575 202.16875 42.340626Q202.16875 40.10625 202.96562 38.23125Q203.77812 36.340626 205.30937 35.325Q206.84062 34.29375 208.90312 34.29375Q211.65312 34.29375 213.45 36.5125L213.45 34.6375L215.87187 34.6375L215.87187 48.090626Q215.87187 51.73125 215.1375 53.246876Q214.40312 54.7625 212.79375 55.6375Q211.18437 56.5125 208.84062 56.5125Q206.05937 56.5125 204.34062 55.2625Q202.6375 54.0125 202.7 51.496876ZM204.87187 42.1375Q204.87187 45.2 206.09062 46.60625Q207.30937 48.0125 209.1375 48.0125Q210.95 48.0125 212.18437 46.621876Q213.41875 45.215626 213.41875 42.23125Q213.41875 39.371876 212.15312 37.934376Q210.8875 36.48125 209.09062 36.48125Q207.34062 36.48125 206.10625 37.903126Q204.87187 39.325 204.87187 42.1375ZM220.18437 50.2L220.18437 34.6375L222.54375 34.6375L222.54375 36.85625Q224.2625 34.29375 227.49687 34.29375Q228.90312 34.29375 230.075 34.809376Q231.2625 35.309376 231.84062 36.1375Q232.43437 36.95 232.66875 38.075Q232.825 38.809376 232.825 40.6375L232.825 50.2L230.18437 50.2L230.18437 40.73125Q230.18437 39.121876 229.87187 38.325Q229.575 37.528126 228.77812 37.059376Q227.99687 36.575 226.95 36.575Q225.2625 36.575 224.02812 37.653126Q222.80937 38.715626 222.80937 41.7L222.80937 50.2L220.18437 50.2ZM237.2 31.7625L237.2 28.73125L239.825 28.73125L239.825 31.7625L237.2 31.7625ZM237.2 50.2L237.2 34.6375L239.825 34.6375L239.825 50.2L237.2 50.2ZM244.80937 50.2L244.80937 36.7L242.48125 36.7L242.48125 34.6375L244.80937 34.6375L244.80937 32.98125Q244.80937 31.41875 245.09062 30.653126Q245.46562 29.6375 246.41875 28.996876Q247.3875 28.35625 249.12187 28.35625Q250.23125 28.35625 251.575 28.621876L251.18437 30.91875Q250.35625 30.778126 249.62187 30.778126Q248.41875 30.778126 247.91875 31.29375Q247.43437 31.79375 247.43437 33.2L247.43437 34.6375L250.46562 34.6375L250.46562 36.7L247.43437 36.7L247.43437 50.2L244.80937 50.2ZM252.2 31.7625L252.2 28.73125L254.825 28.73125L254.825 31.7625L252.2 31.7625ZM252.2 50.2L252.2 34.6375L254.825 34.6375L254.825 50.2L252.2 50.2ZM269.325 44.496876L271.91876 44.840626Q271.4969 47.5125 269.7469 49.04375Q267.9969 50.559376 265.45 50.559376Q262.2469 50.559376 260.3094 48.465626Q258.3719 46.371876 258.3719 42.48125Q258.3719 39.965626 259.2 38.075Q260.04376 36.184376 261.7469 35.246876Q263.45 34.29375 265.46564 34.29375Q267.9969 34.29375 269.60626 35.575Q271.21564 36.85625 271.66876 39.215626L269.10626 39.60625Q268.7469 38.04375 267.8094 37.2625Q266.8875 36.465626 265.5594 36.465626Q263.575 36.465626 262.325 37.8875Q261.075 39.309376 261.075 42.403126Q261.075 45.54375 262.27814 46.965626Q263.48126 48.3875 265.41876 48.3875Q266.96564 48.3875 267.9969 47.434376Q269.04376 46.48125 269.325 44.496876ZM284.325 48.278126Q282.8719 49.528126 281.5125 50.04375Q280.15314 50.559376 278.60626 50.559376Q276.04376 50.559376 274.65314 49.309376Q273.27814 48.04375 273.27814 46.090626Q273.27814 44.95 273.79376 44.0125Q274.325 43.059376 275.16876 42.496876Q276.0125 41.91875 277.0594 41.6375Q277.84064 41.41875 279.40314 41.23125Q282.60626 40.85625 284.10626 40.325Q284.1219 39.778126 284.1219 39.6375Q284.1219 38.028126 283.3719 37.371876Q282.3719 36.48125 280.3719 36.48125Q278.5125 36.48125 277.6219 37.1375Q276.7469 37.778126 276.3094 39.434376L273.73126 39.075Q274.09064 37.41875 274.8875 36.403126Q275.7 35.3875 277.21564 34.840626Q278.7469 34.29375 280.7625 34.29375Q282.7469 34.29375 283.98126 34.7625Q285.23126 35.23125 285.8094 35.95Q286.40314 36.653126 286.6375 37.73125Q286.77814 38.403126 286.77814 40.16875L286.77814 43.684376Q286.77814 47.35625 286.9344 48.340626Q287.10626 49.309376 287.60626 50.2L284.85626 50.2Q284.45 49.371876 284.325 48.278126ZM284.10626 42.3875Q282.66876 42.98125 279.8094 43.3875Q278.1844 43.621876 277.4969 43.91875Q276.825 44.215626 276.45 44.778126Q276.09064 45.340626 276.09064 46.028126Q276.09064 47.075 276.8875 47.778126Q277.7 48.48125 279.23126 48.48125Q280.7625 48.48125 281.9344 47.825Q283.1219 47.153126 283.6844 45.996876Q284.10626 45.10625 284.10626 43.35625L284.10626 42.3875ZM290.1844 50.2L290.1844 34.6375L292.54376 34.6375L292.54376 36.85625Q294.2625 34.29375 297.4969 34.29375Q298.90314 34.29375 300.075 34.809376Q301.2625 35.309376 301.84064 36.1375Q302.4344 36.95 302.66876 38.075Q302.825 38.809376 302.825 40.6375L302.825 50.2L300.1844 50.2L300.1844 40.73125Q300.1844 39.121876 299.8719 38.325Q299.575 37.528126 298.77814 37.059376Q297.9969 36.575 296.95 36.575Q295.2625 36.575 294.02814 37.653126Q292.8094 38.715626 292.8094 41.7L292.8094 50.2L290.1844 50.2ZM312.9344 47.840626L313.3094 50.16875Q312.2 50.403126 311.325 50.403126Q309.8875 50.403126 309.09064 49.95Q308.3094 49.496876 307.98126 48.7625Q307.66876 48.0125 307.66876 45.6375L307.66876 36.7L305.73126 36.7L305.73126 34.6375L307.66876 34.6375L307.66876 30.79375L310.27814 29.215626L310.27814 34.6375L312.9344 34.6375L312.9344 36.7L310.27814 36.7L310.27814 45.79375Q310.27814 46.91875 310.41876 47.246876Q310.5594 47.559376 310.8719 47.7625Q311.1844 47.95 311.77814 47.95Q312.21564 47.95 312.9344 47.840626ZM333.325 48.278126Q331.8719 49.528126 330.5125 50.04375Q329.15314 50.559376 327.60626 50.559376Q325.04376 50.559376 323.65314 49.309376Q322.27814 48.04375 322.27814 46.090626Q322.27814 44.95 322.79376 44.0125Q323.325 43.059376 324.16876 42.496876Q325.0125 41.91875 326.0594 41.6375Q326.84064 41.41875 328.40314 41.23125Q331.60626 40.85625 333.10626 40.325Q333.1219 39.778126 333.1219 39.6375Q333.1219 38.028126 332.3719 37.371876Q331.3719 36.48125 329.3719 36.48125Q327.5125 36.48125 326.6219 37.1375Q325.7469 37.778126 325.3094 39.434376L322.73126 39.075Q323.09064 37.41875 323.8875 36.403126Q324.7 35.3875 326.21564 34.840626Q327.7469 34.29375 329.7625 34.29375Q331.7469 34.29375 332.98126 34.7625Q334.23126 35.23125 334.8094 35.95Q335.40314 36.653126 335.6375 37.73125Q335.77814 38.403126 335.77814 40.16875L335.77814 43.684376Q335.77814 47.35625 335.9344 48.340626Q336.10626 49.309376 336.60626 50.2L333.85626 50.2Q333.45 49.371876 333.325 48.278126ZM333.10626 42.3875Q331.66876 42.98125 328.8094 43.3875Q327.1844 43.621876 326.4969 43.91875Q325.825 44.215626 325.45 44.778126Q325.09064 45.340626 325.09064 46.028126Q325.09064 47.075 325.8875 47.778126Q326.7 48.48125 328.23126 48.48125Q329.7625 48.48125 330.9344 47.825Q332.1219 47.153126 332.6844 45.996876Q333.10626 45.10625 333.10626 43.35625L333.10626 42.3875ZM339.1844 50.2L339.1844 34.6375L341.54376 34.6375L341.54376 36.825Q342.2625 35.684376 343.48126 34.996876Q344.7 34.29375 346.2469 34.29375Q347.98126 34.29375 349.09064 35.0125Q350.2 35.73125 350.65314 37.0125Q352.4969 34.29375 355.45 34.29375Q357.7625 34.29375 359.0125 35.575Q360.2625 36.85625 360.2625 39.528126L360.2625 50.2L357.6375 50.2L357.6375 40.403126Q357.6375 38.825 357.3719 38.121876Q357.1219 37.41875 356.45 36.996876Q355.77814 36.575 354.8719 36.575Q353.23126 36.575 352.1375 37.66875Q351.0594 38.7625 351.0594 41.16875L351.0594 50.2L348.41876 50.2L348.41876 40.090626Q348.41876 38.340626 347.77814 37.465626Q347.1375 36.575 345.66876 36.575Q344.5594 36.575 343.60626 37.16875Q342.66876 37.746876 342.23126 38.871876Q341.8094 39.996876 341.8094 42.121876L341.8094 50.2L339.1844 50.2ZM363.2 42.41875Q363.2 38.10625 365.60626 36.0125Q367.60626 34.29375 370.4969 34.29375Q373.7 34.29375 375.73126 36.403126Q377.77814 38.496876 377.77814 42.2Q377.77814 45.2 376.8719 46.934376Q375.96564 48.653126 374.2469 49.60625Q372.52814 50.559376 370.4969 50.559376Q367.23126 50.559376 365.21564 48.465626Q363.2 46.35625 363.2 42.41875ZM365.90314 42.41875Q365.90314 45.403126 367.2 46.903126Q368.5125 48.3875 370.4969 48.3875Q372.45 48.3875 373.7469 46.8875Q375.0594 45.3875 375.0594 42.340626Q375.0594 39.45 373.7469 37.965626Q372.4344 36.48125 370.4969 36.48125Q368.5125 36.48125 367.2 37.965626Q365.90314 39.434376 365.90314 42.41875ZM390.3719 50.2L390.3719 47.91875Q388.5594 50.559376 385.4344 50.559376Q384.0594 50.559376 382.85626 50.028126Q381.66876 49.496876 381.09064 48.7Q380.5125 47.903126 380.27814 46.746876Q380.1219 45.965626 380.1219 44.278126L380.1219 34.6375L382.7625 34.6375L382.7625 43.278126Q382.7625 45.340626 382.91876 46.059376Q383.16876 47.090626 383.96564 47.684376Q384.77814 48.278126 385.96564 48.278126Q387.15314 48.278126 388.1844 47.66875Q389.23126 47.059376 389.65314 46.0125Q390.09064 44.965626 390.09064 42.98125L390.09064 34.6375L392.73126 34.6375L392.73126 50.2L390.3719 50.2ZM397.1844 50.2L397.1844 34.6375L399.54376 34.6375L399.54376 36.85625Q401.2625 34.29375 404.4969 34.29375Q405.90314 34.29375 407.075 34.809376Q408.2625 35.309376 408.84064 36.1375Q409.4344 36.95 409.66876 38.075Q409.825 38.809376 409.825 40.6375L409.825 50.2L407.1844 50.2L407.1844 40.73125Q407.1844 39.121876 406.8719 38.325Q406.575 37.528126 405.77814 37.059376Q404.9969 36.575 403.95 36.575Q402.2625 36.575 401.02814 37.653126Q399.8094 38.715626 399.8094 41.7L399.8094 50.2L397.1844 50.2ZM419.9344 47.840626L420.3094 50.16875Q419.2 50.403126 418.325 50.403126Q416.8875 50.403126 416.09064 49.95Q415.3094 49.496876 414.98126 48.7625Q414.66876 48.0125 414.66876 45.6375L414.66876 36.7L412.73126 36.7L412.73126 34.6375L414.66876 34.6375L414.66876 30.79375L417.27814 29.215626L417.27814 34.6375L419.9344 34.6375L419.9344 36.7L417.27814 36.7L417.27814 45.79375Q417.27814 46.91875 417.41876 47.246876Q417.5594 47.559376 417.8719 47.7625Q418.1844 47.95 418.77814 47.95Q419.21564 47.95 419.9344 47.840626ZM440.27814 50.2L440.27814 48.23125Q438.79376 50.559376 435.91876 50.559376Q434.0594 50.559376 432.4969 49.528126Q430.9344 48.496876 430.075 46.66875Q429.23126 44.825 429.23126 42.434376Q429.23126 40.10625 429.9969 38.215626Q430.77814 36.309376 432.325 35.309376Q433.8875 34.29375 435.8094 34.29375Q437.21564 34.29375 438.3094 34.8875Q439.40314 35.48125 440.09064 36.434376L440.09064 28.73125L442.71564 28.73125L442.71564 50.2L440.27814 50.2ZM431.9344 42.434376Q431.9344 45.41875 433.1844 46.903126Q434.45 48.3875 436.16876 48.3875Q437.90314 48.3875 439.10626 46.98125Q440.3094 45.559376 440.3094 42.653126Q440.3094 39.465626 439.075 37.98125Q437.85626 36.48125 436.0594 36.48125Q434.29376 36.48125 433.10626 37.91875Q431.9344 39.340626 431.9344 42.434376ZM457.3719 50.2L457.3719 47.91875Q455.5594 50.559376 452.4344 50.559376Q451.0594 50.559376 449.85626 50.028126Q448.66876 49.496876 448.09064 48.7Q447.5125 47.903126 447.27814 46.746876Q447.1219 45.965626 447.1219 44.278126L447.1219 34.6375L449.7625 34.6375L449.7625 43.278126Q449.7625 45.340626 449.91876 46.059376Q450.16876 47.090626 450.96564 47.684376Q451.77814 48.278126 452.96564 48.278126Q454.15314 48.278126 455.1844 47.66875Q456.23126 47.059376 456.65314 46.0125Q457.09064 44.965626 457.09064 42.98125L457.09064 34.6375L459.73126 34.6375L459.73126 50.2L457.3719 50.2ZM464.15314 50.2L464.15314 34.6375L466.52814 34.6375L466.52814 36.996876Q467.4344 35.340626 468.2 34.825Q468.96564 34.29375 469.8875 34.29375Q471.23126 34.29375 472.60626 35.1375L471.7 37.590626Q470.73126 37.0125 469.7625 37.0125Q468.8875 37.0125 468.2 37.54375Q467.5125 38.059376 467.23126 38.98125Q466.77814 40.3875 466.77814 42.059376L466.77814 50.2L464.15314 50.2ZM474.2 31.7625L474.2 28.73125L476.825 28.73125L476.825 31.7625L474.2 31.7625ZM474.2 50.2L474.2 34.6375L476.825 34.6375L476.825 50.2L474.2 50.2ZM481.1844 50.2L481.1844 34.6375L483.54376 34.6375L483.54376 36.85625Q485.2625 34.29375 488.4969 34.29375Q489.90314 34.29375 491.075 34.809376Q492.2625 35.309376 492.84064 36.1375Q493.4344 36.95 493.66876 38.075Q493.825 38.809376 493.825 40.6375L493.825 50.2L491.1844 50.2L491.1844 40.73125Q491.1844 39.121876 490.8719 38.325Q490.575 37.528126 489.77814 37.059376Q488.9969 36.575 487.95 36.575Q486.2625 36.575 485.02814 37.653126Q483.8094 38.715626 483.8094 41.7L483.8094 50.2L481.1844 50.2ZM497.7 51.496876L500.2625 51.871876Q500.41876 53.059376 501.15314 53.60625Q502.1375 54.325 503.825 54.325Q505.66876 54.325 506.65314 53.590626Q507.65314 52.871876 508.0125 51.54375Q508.21564 50.746876 508.2 48.16875Q506.46564 50.2 503.8875 50.2Q500.6844 50.2 498.91876 47.8875Q497.16876 45.575 497.16876 42.340626Q497.16876 40.10625 497.96564 38.23125Q498.77814 36.340626 500.3094 35.325Q501.84064 34.29375 503.90314 34.29375Q506.65314 34.29375 508.45 36.5125L508.45 34.6375L510.8719 34.6375L510.8719 48.090626Q510.8719 51.73125 510.1375 53.246876Q509.40314 54.7625 507.79376 55.6375Q506.1844 56.5125 503.84064 56.5125Q501.0594 56.5125 499.34064 55.2625Q497.6375 54.0125 497.7 51.496876ZM499.8719 42.1375Q499.8719 45.2 501.09064 46.60625Q502.3094 48.0125 504.1375 48.0125Q505.95 48.0125 507.1844 46.621876Q508.41876 45.215626 508.41876 42.23125Q508.41876 39.371876 507.15314 37.934376Q505.8875 36.48125 504.09064 36.48125Q502.34064 36.48125 501.10626 37.903126Q499.8719 39.325 499.8719 42.1375ZM528.9344 47.840626L529.3094 50.16875Q528.2 50.403126 527.325 50.403126Q525.8875 50.403126 525.09064 49.95Q524.3094 49.496876 523.98126 48.7625Q523.66876 48.0125 523.66876 45.6375L523.66876 36.7L521.73126 36.7L521.73126 34.6375L523.66876 34.6375L523.66876 30.79375L526.27814 29.215626L526.27814 34.6375L528.9344 34.6375L528.9344 36.7L526.27814 36.7L526.27814 45.79375Q526.27814 46.91875 526.41876 47.246876Q526.5594 47.559376 526.8719 47.7625Q527.1844 47.95 527.77814 47.95Q528.21564 47.95 528.9344 47.840626ZM531.1844 50.2L531.1844 28.73125L533.8094 28.73125L533.8094 36.434376Q535.65314 34.29375 538.46564 34.29375Q540.2 34.29375 541.46564 34.98125Q542.7469 35.653126 543.29376 36.85625Q543.85626 38.059376 543.85626 40.340626L543.85626 50.2L541.21564 50.2L541.21564 40.340626Q541.21564 38.35625 540.35626 37.465626Q539.4969 36.559376 537.9344 36.559376Q536.7625 36.559376 535.73126 37.16875Q534.7 37.778126 534.2469 38.825Q533.8094 39.85625 533.8094 41.684376L533.8094 50.2L531.1844 50.2ZM548.2 31.7625L548.2 28.73125L550.825 28.73125L550.825 31.7625L548.2 31.7625ZM548.2 50.2L548.2 34.6375L550.825 34.6375L550.825 50.2L548.2 50.2ZM554.1219 45.559376L556.73126 45.153126Q556.95 46.715626 557.95 47.559376Q558.95 48.3875 560.7625 48.3875Q562.575 48.3875 563.45 47.653126Q564.34064 46.903126 564.34064 45.903126Q564.34064 45.0125 563.5594 44.496876Q563.0125 44.153126 560.85626 43.60625Q557.96564 42.871876 556.84064 42.340626Q555.71564 41.809376 555.1375 40.871876Q554.5594 39.91875 554.5594 38.778126Q554.5594 37.73125 555.02814 36.85625Q555.5125 35.965626 556.34064 35.371876Q556.95 34.91875 558.0125 34.60625Q559.075 34.29375 560.29376 34.29375Q562.1219 34.29375 563.4969 34.825Q564.8875 35.340626 565.54376 36.246876Q566.21564 37.153126 566.45 38.653126L563.8719 39.0125Q563.7 37.809376 562.85626 37.1375Q562.0125 36.465626 560.48126 36.465626Q558.66876 36.465626 557.8875 37.059376Q557.10626 37.653126 557.10626 38.465626Q557.10626 38.98125 557.4344 39.3875Q557.7625 39.809376 558.45 40.090626Q558.84064 40.23125 560.77814 40.7625Q563.575 41.5125 564.66876 41.996876Q565.77814 42.465626 566.40314 43.371876Q567.04376 44.278126 567.04376 45.621876Q567.04376 46.95 566.27814 48.121876Q565.5125 49.278126 564.0594 49.91875Q562.60626 50.559376 560.77814 50.559376Q557.7469 50.559376 556.15314 49.29375Q554.5594 48.028126 554.1219 45.559376Z" fill-rule="nonzero"/></svg>