<svg version="1.1" viewBox="0.0 0.0 679.0 286.0" fill="none" stroke="none" stroke-linecap="square" stroke-miterlimit="10" width="679" height="286" xmlns:xlink="http://www.w3.org/1999/xlink" xmlns="http://www.w3.org/2000/svg"><path fill="#ffffff" d="M0 0L679.0 0L679.0 286.0L0 286.0L0 0Z" fill-rule="nonzero"/><path stroke="#333333" stroke-width="1.0" stroke-linecap="butt" d="M134.5 196.5L664.5 196.5" fill-rule="nonzero"/><path fill="#eeeeee" d="M112.5 218.5L134.5 197.5L664.5 197.5L642.5 218.5Z" fill-rule="nonzero"/><path stroke="#cccccc" stroke-width="1.0" stroke-linecap="butt" d="M134.5 139.5L664.5 139.5" fill-rule="nonzero"/><path stroke="#cccccc" stroke-width="1.0" stroke-linecap="butt" d="M134.5 82.5L664.5 82.5" fill-rule="nonzero"/><path stroke="#cccccc" stroke-width="1.0" stroke-linecap="butt" d="M134.5 25.5L664.5 25.5" fill-rule="nonzero"/><clipPath id="id_0"><path d="M112.3 25.3L664.7 25.3L664.7 218.7L112.3 218.7L112.3 25.3Z" clip-rule="nonzero"/></clipPath><path fill="#707070" clip-path="url(#id_0)" d="M224.0 193.0L224.0 197.0L207.0 214.0L207.0 210.0Z" fill-rule="nonzero"/><path fill="#bdbdbd" clip-path="url(#id_0)" d="M207.0 210.0L140.0 210.0L157.0 193.0L224.0 193.0Z" fill-rule="nonzero"/><path stroke="#000000" stroke-width="2.0" stroke-linecap="butt" stroke-opacity="0.0" clip-path="url(#id_0)" d="M207.0 214.0L140.0 214.0L140.0 210.0L207.0 210.0Z" fill-rule="nonzero"/><path fill="#adadad" clip-path="url(#id_0)" d="M207.0 214.0L140.0 214.0L140.0 210.0L207.0 210.0Z" fill-rule="nonzero"/><path fill="#857876" clip-path="url(#id_0)" d="M328.0 185.0L328.0 197.0L311.0 214.0L311.0 202.0Z" fill-rule="nonzero"/><path fill="#d6c7c4" clip-path="url(#id_0)" d="M311.0 202.0L244.0 202.0L261.0 185.0L328.0 185.0Z" fill-rule="nonzero"/><path stroke="#000000" stroke-width="2.0" stroke-linecap="butt" stroke-opacity="0.0" clip-path="url(#id_0)" d="M311.0 214.0L244.0 214.0L244.0 202.0L311.0 202.0Z" fill-rule="nonzero"/><path fill="#ccb9b5" clip-path="url(#id_0)" d="M311.0 214.0L244.0 214.0L244.0 202.0L311.0 202.0Z" fill-rule="nonzero"/><path fill="#9e7b74" clip-path="url(#id_0)" d="M431.0 147.0L431.0 197.0L414.0 214.0L414.0 164.0Z" fill-rule="nonzero"/><path fill="#f5cac1" clip-path="url(#id_0)" d="M414.0 164.0L347.0 164.0L364.0 147.0L431.0 147.0Z" fill-rule="nonzero"/><path stroke="#000000" stroke-width="2.0" stroke-linecap="butt" stroke-opacity="0.0" clip-path="url(#id_0)" d="M414.0 214.0L347.0 214.0L347.0 164.0L414.0 164.0Z" fill-rule="nonzero"/><path fill="#f3bdb2" clip-path="url(#id_0)" d="M414.0 214.0L347.0 214.0L347.0 164.0L414.0 164.0Z" fill-rule="nonzero"/><path fill="#9d5a4b" clip-path="url(#id_0)" d="M534.0 31.0L534.0 197.0L517.0 214.0L517.0 48.0Z" fill-rule="nonzero"/><path fill="#f4a190" clip-path="url(#id_0)" d="M517.0 48.0L450.0 48.0L467.0 31.0L534.0 31.0Z" fill-rule="nonzero"/><path stroke="#000000" stroke-width="2.0" stroke-linecap="butt" stroke-opacity="0.0" clip-path="url(#id_0)" d="M517.0 214.0L450.0 214.0L450.0 48.0L517.0 48.0Z" fill-rule="nonzero"/><path fill="#f18a74" clip-path="url(#id_0)" d="M517.0 214.0L450.0 214.0L450.0 48.0L517.0 48.0Z" fill-rule="nonzero"/><path fill="#9c3e2a" clip-path="url(#id_0)" d="M638.0 78.0L638.0 197.0L621.0 214.0L621.0 95.0Z" fill-rule="nonzero"/><path fill="#f37f66" clip-path="url(#id_0)" d="M621.0 95.0L554.0 95.0L571.0 78.0L638.0 78.0Z" fill-rule="nonzero"/><path stroke="#000000" stroke-width="2.0" stroke-linecap="butt" stroke-opacity="0.0" clip-path="url(#id_0)" d="M621.0 214.0L554.0 214.0L554.0 95.0L621.0 95.0Z" fill-rule="nonzero"/><path fill="#f05f40" clip-path="url(#id_0)" d="M621.0 214.0L554.0 214.0L554.0 95.0L621.0 95.0Z" fill-rule="nonzero"/><path stroke="#ffffff" stroke-width="3.0" stroke-linejoin="round" stroke-linecap="round" d="M170.76562 174.35013L170.76562 176.42825L170.51562 176.42825Q168.79688 176.4595 167.73438 177.3345Q166.6875 178.19388 166.48438 179.74075Q167.5 178.7095 169.0625 178.7095Q170.71875 178.7095 171.70312 179.91263Q172.6875 181.10013 172.6875 183.05325Q172.6875 184.30325 172.14062 185.31888Q171.60938 186.31888 170.625 186.88138Q169.64062 187.44388 168.39062 187.44388Q166.35938 187.44388 165.10938 186.03763Q163.875 184.63138 163.875 182.28763L163.875 181.38138Q163.875 179.28763 164.65625 177.69388Q165.45312 176.10013 166.92188 175.22513Q168.39062 174.35013 170.34375 174.35013L170.76562 174.35013ZM168.28125 180.75638Q167.67188 180.75638 167.17188 181.0845Q166.67188 181.397 166.42188 181.91263L166.42188 182.69388Q166.42188 183.9595 166.92188 184.67825Q167.4375 185.397 168.32812 185.397Q169.15625 185.397 169.65625 184.75638Q170.15625 184.10013 170.15625 183.0845Q170.15625 182.03763 169.64062 181.397Q169.14062 180.75638 168.28125 180.75638ZM182.48438 181.97513Q182.48438 184.63138 181.375 186.03763Q180.28125 187.44388 178.17188 187.44388Q176.07812 187.44388 174.96875 186.06888Q173.85938 184.69388 173.82812 182.11575L173.82812 179.75638Q173.82812 177.06888 174.9375 175.69388Q176.0625 174.30325 178.15625 174.30325Q180.25 174.30325 181.34375 175.67825Q182.45312 177.05325 182.48438 179.63138L182.48438 181.97513ZM179.9375 179.397Q179.9375 177.80325 179.5 177.0845Q179.07812 176.35013 178.15625 176.35013Q177.25 176.35013 176.82812 177.05325Q176.40625 177.74075 176.375 179.2095L176.375 182.31888Q176.375 183.88138 176.79688 184.647Q177.23438 185.397 178.17188 185.397Q179.09375 185.397 179.5 184.67825Q179.92188 183.94388 179.9375 182.44388L179.9375 179.397Z" fill-rule="nonzero"/><path fill="#adadad" d="M170.76562 174.35013L170.76562 176.42825L170.51562 176.42825Q168.79688 176.4595 167.73438 177.3345Q166.6875 178.19388 166.48438 179.74075Q167.5 178.7095 169.0625 178.7095Q170.71875 178.7095 171.70312 179.91263Q172.6875 181.10013 172.6875 183.05325Q172.6875 184.30325 172.14062 185.31888Q171.60938 186.31888 170.625 186.88138Q169.64062 187.44388 168.39062 187.44388Q166.35938 187.44388 165.10938 186.03763Q163.875 184.63138 163.875 182.28763L163.875 181.38138Q163.875 179.28763 164.65625 177.69388Q165.45312 176.10013 166.92188 175.22513Q168.39062 174.35013 170.34375 174.35013L170.76562 174.35013ZM168.28125 180.75638Q167.67188 180.75638 167.17188 181.0845Q166.67188 181.397 166.42188 181.91263L166.42188 182.69388Q166.42188 183.9595 166.92188 184.67825Q167.4375 185.397 168.32812 185.397Q169.15625 185.397 169.65625 184.75638Q170.15625 184.10013 170.15625 183.0845Q170.15625 182.03763 169.64062 181.397Q169.14062 180.75638 168.28125 180.75638ZM182.48438 181.97513Q182.48438 184.63138 181.375 186.03763Q180.28125 187.44388 178.17188 187.44388Q176.07812 187.44388 174.96875 186.06888Q173.85938 184.69388 173.82812 182.11575L173.82812 179.75638Q173.82812 177.06888 174.9375 175.69388Q176.0625 174.30325 178.15625 174.30325Q180.25 174.30325 181.34375 175.67825Q182.45312 177.05325 182.48438 179.63138L182.48438 181.97513ZM179.9375 179.397Q179.9375 177.80325 179.5 177.0845Q179.07812 176.35013 178.15625 176.35013Q177.25 176.35013 176.82812 177.05325Q176.40625 177.74075 176.375 179.2095L176.375 182.31888Q176.375 183.88138 176.79688 184.647Q177.23438 185.397 178.17188 185.397Q179.09375 185.397 179.5 184.67825Q179.92188 183.94388 179.9375 182.44388L179.9375 179.397Z" fill-rule="nonzero"/><path fill="#ccb9b5" d="M269.04688 179.44473L266.5 179.44473L266.5 169.64786L263.46875 170.60098L263.46875 168.52286L268.76562 166.63223L269.04688 166.63223L269.04688 179.44473ZM278.8125 174.33536Q277.8125 175.30411 276.48438 175.30411Q274.79688 175.30411 273.76562 174.14786Q272.75 172.97598 272.75 170.99161Q272.75 169.74161 273.29688 168.69473Q273.85938 167.64786 274.84375 167.06973Q275.82812 166.47598 277.04688 166.47598Q278.3125 166.47598 279.29688 167.11661Q280.28125 167.74161 280.82812 168.92911Q281.375 170.11661 281.39062 171.63223L281.39062 172.58536Q281.39062 175.77286 279.79688 177.60098Q278.20312 179.42911 275.28125 179.55411L274.65625 179.56973L274.65625 177.44473L275.21875 177.44473Q278.54688 177.28848 278.8125 174.33536ZM277.10938 173.36661Q277.73438 173.36661 278.17188 173.05411Q278.625 172.72598 278.84375 172.28848L278.84375 171.24161Q278.84375 169.94473 278.34375 169.24161Q277.85938 168.52286 277.03125 168.52286Q276.26562 168.52286 275.76562 169.22598Q275.28125 169.91348 275.28125 170.97598Q275.28125 172.02286 275.76562 172.69473Q276.25 173.36661 277.10938 173.36661ZM291.57812 168.06973L286.625 179.44473L283.9375 179.44473L288.90625 168.71036L282.53125 168.71036L282.53125 166.64786L291.57812 166.64786L291.57812 168.06973Z" fill-rule="nonzero"/><path fill="#f3bdb2" d="M374.21875 131.4891Q374.21875 132.41098 373.75 133.14536Q373.28125 133.8641 372.46875 134.28598Q373.39062 134.7391 373.9375 135.52036Q374.48438 136.3016 374.48438 137.37973Q374.48438 139.08286 373.3125 140.06723Q372.15625 141.0516 370.15625 141.0516Q368.17188 141.0516 367.0 140.06723Q365.82812 139.06723 365.82812 137.37973Q365.82812 136.3016 366.375 135.52036Q366.92188 134.72348 367.84375 134.28598Q367.03125 133.8641 366.5625 133.14536Q366.10938 132.41098 366.10938 131.4891Q366.10938 129.84848 367.1875 128.87973Q368.28125 127.91098 370.15625 127.91098Q372.01562 127.91098 373.10938 128.87973Q374.21875 129.83286 374.21875 131.4891ZM371.9375 137.19223Q371.9375 136.34848 371.45312 135.84848Q370.96875 135.34848 370.15625 135.34848Q369.34375 135.34848 368.85938 135.84848Q368.375 136.34848 368.375 137.19223Q368.375 138.00473 368.84375 138.50473Q369.32812 139.00473 370.17188 139.00473Q371.0 139.00473 371.46875 138.52036Q371.9375 138.03598 371.9375 137.19223ZM371.67188 131.6141Q371.67188 130.8641 371.26562 130.41098Q370.875 129.95786 370.15625 129.95786Q369.45312 129.95786 369.04688 130.39536Q368.65625 130.83286 368.65625 131.6141Q368.65625 132.3641 369.04688 132.83286Q369.45312 133.3016 370.17188 133.3016Q370.89062 133.3016 371.28125 132.83286Q371.67188 132.3641 371.67188 131.6141ZM384.57812 129.50473L379.625 140.87973L376.9375 140.87973L381.90625 130.14536L375.53125 130.14536L375.53125 128.08286L384.57812 128.08286L384.57812 129.50473ZM394.64062 140.87973L385.875 140.87973L385.875 139.14536L390.01562 134.72348Q390.85938 133.8016 391.26562 133.1141Q391.6875 132.41098 391.6875 131.78598Q391.6875 130.9266 391.25 130.44223Q390.8125 129.95786 390.01562 129.95786Q389.15625 129.95786 388.65625 130.5516Q388.17188 131.14536 388.17188 132.1141L385.60938 132.1141Q385.60938 130.94223 386.17188 129.97348Q386.73438 129.00473 387.75 128.45786Q388.76562 127.91098 390.0625 127.91098Q392.04688 127.91098 393.14062 128.8641Q394.23438 129.8016 394.23438 131.53598Q394.23438 132.4891 393.73438 133.47348Q393.25 134.45786 392.04688 135.77036L389.14062 138.83286L394.64062 138.83286L394.64062 140.87973Z" fill-rule="nonzero"/><path stroke="#ffffff" stroke-width="3.0" stroke-linejoin="round" stroke-linecap="round" d="M472.64062 25.013334L463.875 25.013334L463.875 23.27896L468.01562 18.857084Q468.85938 17.93521 469.26562 17.24771Q469.6875 16.544584 469.6875 15.919583Q469.6875 15.060208 469.25 14.575833Q468.8125 14.091458 468.01562 14.091458Q467.15625 14.091458 466.65625 14.685208Q466.17188 15.278958 466.17188 16.24771L463.60938 16.24771Q463.60938 15.075833 464.17188 14.107083Q464.73438 13.138333 465.75 12.591458Q466.76562 12.044583 468.0625 12.044583Q470.04688 12.044583 471.14062 12.997708Q472.23438 13.935208 472.23438 15.669583Q472.23438 16.62271 471.73438 17.607084Q471.25 18.59146 470.04688 19.90396L467.14062 22.96646L472.64062 22.96646L472.64062 25.013334ZM479.8125 19.90396Q478.8125 20.87271 477.48438 20.87271Q475.79688 20.87271 474.76562 19.71646Q473.75 18.544584 473.75 16.56021Q473.75 15.310208 474.29688 14.263333Q474.85938 13.216458 475.84375 12.638333Q476.82812 12.044583 478.04688 12.044583Q479.3125 12.044583 480.29688 12.685208Q481.28125 13.310208 481.82812 14.497708Q482.375 15.685208 482.39062 17.200834L482.39062 18.15396Q482.39062 21.34146 480.79688 23.169584Q479.20312 24.99771 476.28125 25.12271L475.65625 25.138334L475.65625 23.013334L476.21875 23.013334Q479.54688 22.857084 479.8125 19.90396ZM478.10938 18.93521Q478.73438 18.93521 479.17188 18.62271Q479.625 18.294584 479.84375 17.857084L479.84375 16.81021Q479.84375 15.513333 479.34375 14.810208Q478.85938 14.091458 478.03125 14.091458Q477.26562 14.091458 476.76562 14.794583Q476.28125 15.482083 476.28125 16.544584Q476.28125 17.59146 476.76562 18.263334Q477.25 18.93521 478.10938 18.93521ZM492.48438 19.71646Q492.48438 22.37271 491.375 23.77896Q490.28125 25.18521 488.17188 25.18521Q486.07812 25.18521 484.96875 23.81021Q483.85938 22.43521 483.82812 19.857084L483.82812 17.49771Q483.82812 14.810208 484.9375 13.435208Q486.0625 12.044583 488.15625 12.044583Q490.25 12.044583 491.34375 13.419583Q492.45312 14.794583 492.48438 17.37271L492.48438 19.71646ZM489.9375 17.138334Q489.9375 15.544583 489.5 14.825833Q489.07812 14.091458 488.15625 14.091458Q487.25 14.091458 486.82812 14.794583Q486.40625 15.482083 486.375 16.950834L486.375 20.06021Q486.375 21.62271 486.79688 22.388334Q487.23438 23.138334 488.17188 23.138334Q489.09375 23.138334 489.5 22.419584Q489.92188 21.68521 489.9375 20.18521L489.9375 17.138334ZM502.48438 19.71646Q502.48438 22.37271 501.375 23.77896Q500.28125 25.18521 498.17188 25.18521Q496.07812 25.18521 494.96875 23.81021Q493.85938 22.43521 493.82812 19.857084L493.82812 17.49771Q493.82812 14.810208 494.9375 13.435208Q496.0625 12.044583 498.15625 12.044583Q500.25 12.044583 501.34375 13.419583Q502.45312 14.794583 502.48438 17.37271L502.48438 19.71646ZM499.9375 17.138334Q499.9375 15.544583 499.5 14.825833Q499.07812 14.091458 498.15625 14.091458Q497.25 14.091458 496.82812 14.794583Q496.40625 15.482083 496.375 16.950834L496.375 20.06021Q496.375 21.62271 496.79688 22.388334Q497.23438 23.138334 498.17188 23.138334Q499.09375 23.138334 499.5 22.419584Q499.92188 21.68521 499.9375 20.18521L499.9375 17.138334Z" fill-rule="nonzero"/><path fill="#f18a74" d="M472.64062 25.013334L463.875 25.013334L463.875 23.27896L468.01562 18.857084Q468.85938 17.93521 469.26562 17.24771Q469.6875 16.544584 469.6875 15.919584Q469.6875 15.060209 469.25 14.575834Q468.8125 14.091459 468.01562 14.091459Q467.15625 14.091459 466.65625 14.685209Q466.17188 15.278959 466.17188 16.24771L463.60938 16.24771Q463.60938 15.075834 464.17188 14.107084Q464.73438 13.138334 465.75 12.591459Q466.76562 12.044584 468.0625 12.044584Q470.04688 12.044584 471.14062 12.997709Q472.23438 13.935209 472.23438 15.669584Q472.23438 16.62271 471.73438 17.607084Q471.25 18.59146 470.04688 19.90396L467.14062 22.96646L472.64062 22.96646L472.64062 25.013334ZM479.8125 19.90396Q478.8125 20.87271 477.48438 20.87271Q475.79688 20.87271 474.76562 19.71646Q473.75 18.544584 473.75 16.56021Q473.75 15.310209 474.29688 14.263334Q474.85938 13.216459 475.84375 12.638334Q476.82812 12.044584 478.04688 12.044584Q479.3125 12.044584 480.29688 12.685209Q481.28125 13.310209 481.82812 14.497709Q482.375 15.685209 482.39062 17.200834L482.39062 18.15396Q482.39062 21.34146 480.79688 23.169584Q479.20312 24.99771 476.28125 25.12271L475.65625 25.138334L475.65625 23.013334L476.21875 23.013334Q479.54688 22.857084 479.8125 19.90396ZM478.10938 18.93521Q478.73438 18.93521 479.17188 18.62271Q479.625 18.294584 479.84375 17.857084L479.84375 16.81021Q479.84375 15.513334 479.34375 14.810209Q478.85938 14.091459 478.03125 14.091459Q477.26562 14.091459 476.76562 14.794584Q476.28125 15.482084 476.28125 16.544584Q476.28125 17.59146 476.76562 18.263334Q477.25 18.93521 478.10938 18.93521ZM492.48438 19.71646Q492.48438 22.37271 491.375 23.77896Q490.28125 25.18521 488.17188 25.18521Q486.07812 25.18521 484.96875 23.81021Q483.85938 22.43521 483.82812 19.857084L483.82812 17.49771Q483.82812 14.810209 484.9375 13.435209Q486.0625 12.044584 488.15625 12.044584Q490.25 12.044584 491.34375 13.419584Q492.45312 14.794584 492.48438 17.37271L492.48438 19.71646ZM489.9375 17.138334Q489.9375 15.544584 489.5 14.825834Q489.07812 14.091459 488.15625 14.091459Q487.25 14.091459 486.82812 14.794584Q486.40625 15.482084 486.375 16.950834L486.375 20.06021Q486.375 21.62271 486.79688 22.388334Q487.23438 23.138334 488.17188 23.138334Q489.09375 23.138334 489.5 22.419584Q489.92188 21.68521 489.9375 20.18521L489.9375 17.138334ZM502.48438 19.71646Q502.48438 22.37271 501.375 23.77896Q500.28125 25.18521 498.17188 25.18521Q496.07812 25.18521 494.96875 23.81021Q493.85938 22.43521 493.82812 19.857084L493.82812 17.49771Q493.82812 14.810209 494.9375 13.435209Q496.0625 12.044584 498.15625 12.044584Q500.25 12.044584 501.34375 13.419584Q502.45312 14.794584 502.48438 17.37271L502.48438 19.71646ZM499.9375 17.138334Q499.9375 15.544584 499.5 14.825834Q499.07812 14.091459 498.15625 14.091459Q497.25 14.091459 496.82812 14.794584Q496.40625 15.482084 496.375 16.950834L496.375 20.06021Q496.375 21.62271 496.79688 22.388334Q497.23438 23.138334 498.17188 23.138334Q499.09375 23.138334 499.5 22.419584Q499.92188 21.68521 499.9375 20.18521L499.9375 17.138334Z" fill-rule="nonzero"/><path stroke="#ffffff" stroke-width="3.0" stroke-linejoin="round" stroke-linecap="round" d="M576.6406 71.51987L567.875 71.51987L567.875 69.78549L572.0156 65.36362Q572.8594 64.44174 573.2656 63.754242Q573.6875 63.051117 573.6875 62.426117Q573.6875 61.566742 573.25 61.082367Q572.8125 60.597992 572.0156 60.597992Q571.15625 60.597992 570.65625 61.191742Q570.1719 61.785492 570.1719 62.754242L567.6094 62.754242Q567.6094 61.582367 568.1719 60.613617Q568.7344 59.644867 569.75 59.097992Q570.7656 58.551117 572.0625 58.551117Q574.0469 58.551117 575.1406 59.504242Q576.2344 60.441742 576.2344 62.176117Q576.2344 63.129242 575.7344 64.11362Q575.25 65.09799 574.0469 66.41049L571.1406 69.47299L576.6406 69.47299L576.6406 71.51987ZM586.4844 66.22299Q586.4844 68.87924 585.375 70.28549Q584.28125 71.69174 582.1719 71.69174Q580.0781 71.69174 578.96875 70.31674Q577.8594 68.94174 577.8281 66.36362L577.8281 64.00424Q577.8281 61.316742 578.9375 59.941742Q580.0625 58.551117 582.15625 58.551117Q584.25 58.551117 585.34375 59.926117Q586.4531 61.301117 586.4844 63.879242L586.4844 66.22299ZM583.9375 63.644867Q583.9375 62.051117 583.5 61.332367Q583.0781 60.597992 582.15625 60.597992Q581.25 60.597992 580.8281 61.301117Q580.40625 61.988617 580.375 63.457367L580.375 66.56674Q580.375 68.12924 580.7969 68.89487Q581.2344 69.64487 582.1719 69.64487Q583.09375 69.64487 583.5 68.92612Q583.9219 68.19174 583.9375 66.69174L583.9375 63.644867ZM596.21875 62.129242Q596.21875 63.051117 595.75 63.785492Q595.28125 64.50424 594.46875 64.92612Q595.3906 65.37924 595.9375 66.16049Q596.4844 66.94174 596.4844 68.01987Q596.4844 69.72299 595.3125 70.70737Q594.15625 71.69174 592.15625 71.69174Q590.1719 71.69174 589.0 70.70737Q587.8281 69.70737 587.8281 68.01987Q587.8281 66.94174 588.375 66.16049Q588.9219 65.36362 589.84375 64.92612Q589.03125 64.50424 588.5625 63.785492Q588.1094 63.051117 588.1094 62.129242Q588.1094 60.488617 589.1875 59.519867Q590.28125 58.551117 592.15625 58.551117Q594.0156 58.551117 595.1094 59.519867Q596.21875 60.472992 596.21875 62.129242ZM593.9375 67.83237Q593.9375 66.98862 593.4531 66.48862Q592.96875 65.98862 592.15625 65.98862Q591.34375 65.98862 590.8594 66.48862Q590.375 66.98862 590.375 67.83237Q590.375 68.64487 590.84375 69.14487Q591.3281 69.64487 592.1719 69.64487Q593.0 69.64487 593.46875 69.16049Q593.9375 68.67612 593.9375 67.83237ZM593.6719 62.254242Q593.6719 61.504242 593.2656 61.051117Q592.875 60.597992 592.15625 60.597992Q591.4531 60.597992 591.0469 61.035492Q590.65625 61.472992 590.65625 62.254242Q590.65625 63.004242 591.0469 63.472992Q591.4531 63.941742 592.1719 63.941742Q592.8906 63.941742 593.28125 63.472992Q593.6719 63.004242 593.6719 62.254242ZM604.7656 58.597992L604.7656 60.676117L604.5156 60.676117Q602.7969 60.707367 601.7344 61.582367Q600.6875 62.441742 600.4844 63.988617Q601.5 62.957367 603.0625 62.957367Q604.71875 62.957367 605.7031 64.16049Q606.6875 65.34799 606.6875 67.30112Q606.6875 68.55112 606.1406 69.56674Q605.6094 70.56674 604.625 71.12924Q603.6406 71.69174 602.3906 71.69174Q600.3594 71.69174 599.1094 70.28549Q597.875 68.87924 597.875 66.53549L597.875 65.62924Q597.875 63.535492 598.65625 61.941742Q599.4531 60.347992 600.9219 59.472992Q602.3906 58.597992 604.34375 58.597992L604.7656 58.597992ZM602.28125 65.00424Q601.6719 65.00424 601.1719 65.33237Q600.6719 65.64487 600.4219 66.16049L600.4219 66.94174Q600.4219 68.20737 600.9219 68.92612Q601.4375 69.64487 602.3281 69.64487Q603.15625 69.64487 603.65625 69.00424Q604.15625 68.34799 604.15625 67.33237Q604.15625 66.28549 603.6406 65.64487Q603.1406 65.00424 602.28125 65.00424Z" fill-rule="nonzero"/><path fill="#f05f40" d="M576.6406 71.51987L567.875 71.51987L567.875 69.78549L572.0156 65.36362Q572.8594 64.44174 573.2656 63.754242Q573.6875 63.051117 573.6875 62.426117Q573.6875 61.566742 573.25 61.082367Q572.8125 60.597992 572.0156 60.597992Q571.15625 60.597992 570.65625 61.191742Q570.1719 61.785492 570.1719 62.754242L567.6094 62.754242Q567.6094 61.582367 568.1719 60.613617Q568.7344 59.644867 569.75 59.097992Q570.7656 58.551117 572.0625 58.551117Q574.0469 58.551117 575.1406 59.504242Q576.2344 60.441742 576.2344 62.176117Q576.2344 63.129242 575.7344 64.11362Q575.25 65.09799 574.0469 66.41049L571.1406 69.47299L576.6406 69.47299L576.6406 71.51987ZM586.4844 66.22299Q586.4844 68.87924 585.375 70.28549Q584.28125 71.69174 582.1719 71.69174Q580.0781 71.69174 578.96875 70.31674Q577.8594 68.94174 577.8281 66.36362L577.8281 64.00424Q577.8281 61.316742 578.9375 59.941742Q580.0625 58.551117 582.15625 58.551117Q584.25 58.551117 585.34375 59.926117Q586.4531 61.301117 586.4844 63.879242L586.4844 66.22299ZM583.9375 63.644867Q583.9375 62.051117 583.5 61.332367Q583.0781 60.597992 582.15625 60.597992Q581.25 60.597992 580.8281 61.301117Q580.40625 61.988617 580.375 63.457367L580.375 66.56674Q580.375 68.12924 580.7969 68.89487Q581.2344 69.64487 582.1719 69.64487Q583.09375 69.64487 583.5 68.92612Q583.9219 68.19174 583.9375 66.69174L583.9375 63.644867ZM596.21875 62.129242Q596.21875 63.051117 595.75 63.785492Q595.28125 64.50424 594.46875 64.92612Q595.3906 65.37924 595.9375 66.16049Q596.4844 66.94174 596.4844 68.01987Q596.4844 69.72299 595.3125 70.70737Q594.15625 71.69174 592.15625 71.69174Q590.1719 71.69174 589.0 70.70737Q587.8281 69.70737 587.8281 68.01987Q587.8281 66.94174 588.375 66.16049Q588.9219 65.36362 589.84375 64.92612Q589.03125 64.50424 588.5625 63.785492Q588.1094 63.051117 588.1094 62.129242Q588.1094 60.488617 589.1875 59.519867Q590.28125 58.551117 592.15625 58.551117Q594.0156 58.551117 595.1094 59.519867Q596.21875 60.472992 596.21875 62.129242ZM593.9375 67.83237Q593.9375 66.98862 593.4531 66.48862Q592.96875 65.98862 592.15625 65.98862Q591.34375 65.98862 590.8594 66.48862Q590.375 66.98862 590.375 67.83237Q590.375 68.64487 590.84375 69.14487Q591.3281 69.64487 592.1719 69.64487Q593.0 69.64487 593.46875 69.16049Q593.9375 68.67612 593.9375 67.83237ZM593.6719 62.254242Q593.6719 61.504242 593.2656 61.051117Q592.875 60.597992 592.15625 60.597992Q591.4531 60.597992 591.0469 61.035492Q590.65625 61.472992 590.65625 62.254242Q590.65625 63.004242 591.0469 63.472992Q591.4531 63.941742 592.1719 63.941742Q592.8906 63.941742 593.28125 63.472992Q593.6719 63.004242 593.6719 62.254242ZM604.7656 58.597992L604.7656 60.676117L604.5156 60.676117Q602.7969 60.707367 601.7344 61.582367Q600.6875 62.441742 600.4844 63.988617Q601.5 62.957367 603.0625 62.957367Q604.71875 62.957367 605.7031 64.16049Q606.6875 65.34799 606.6875 67.30112Q606.6875 68.55112 606.1406 69.56674Q605.6094 70.56674 604.625 71.12924Q603.6406 71.69174 602.3906 71.69174Q600.3594 71.69174 599.1094 70.28549Q597.875 68.87924 597.875 66.53549L597.875 65.62924Q597.875 63.535492 598.65625 61.941742Q599.4531 60.347992 600.9219 59.472992Q602.3906 58.597992 604.34375 58.597992L604.7656 58.597992ZM602.28125 65.00424Q601.6719 65.00424 601.1719 65.33237Q600.6719 65.64487 600.4219 66.16049L600.4219 66.94174Q600.4219 68.20737 600.9219 68.92612Q601.4375 69.64487 602.3281 69.64487Q603.15625 69.64487 603.65625 69.00424Q604.15625 68.34799 604.15625 67.33237Q604.15625 66.28549 603.6406 65.64487Q603.1406 65.00424 602.28125 65.00424Z" fill-rule="nonzero"/><path fill="#000000" d="M26.128138 180.82812L26.128138 183.82812L31.300013 183.82812L31.300013 185.51562L18.503138 185.51562L18.503138 181.28125Q18.503138 179.125 19.487513 177.96875Q20.471888 176.79688 22.346888 176.79688Q23.550013 176.79688 24.440638 177.45312Q25.315638 178.09375 25.768763 179.23438L31.190638 176.23438L31.300013 176.23438L31.300013 178.04688L26.128138 180.82812ZM24.737513 183.82812L24.737513 181.23438Q24.737513 179.98438 24.096888 179.23438Q23.440638 178.48438 22.346888 178.48438Q21.159388 178.48438 20.534388 179.20312Q19.893763 179.90625 19.893763 181.25L19.893763 183.82812L24.737513 183.82812ZM31.471888 170.82812Q31.471888 172.75 30.206263 173.96875Q28.940638 175.1875 26.815638 175.1875L26.503138 175.1875Q25.096888 175.1875 23.987513 174.64062Q22.878138 174.09375 22.253138 173.125Q21.612513 172.15625 21.612513 171.03125Q21.612513 169.17188 22.831263 168.14062Q24.050013 167.10938 26.331263 167.10938L27.003138 167.10938L27.003138 173.5625Q28.409388 173.51562 29.284388 172.73438Q30.143763 171.95312 30.143763 170.73438Q30.143763 169.875 29.800013 169.28125Q29.440638 168.67188 28.862513 168.23438L29.643763 167.23438Q31.471888 168.4375 31.471888 170.82812ZM22.956263 171.03125Q22.956263 172.01562 23.675013 172.6875Q24.378138 173.34375 25.675013 173.5L25.675013 168.73438L25.550013 168.73438Q24.315638 168.8125 23.643763 169.40625Q22.956263 170.0 22.956263 171.03125ZM28.784388 159.23438Q28.112513 159.23438 27.753138 159.73438Q27.393763 160.21875 27.128138 161.45312Q26.862513 162.6875 26.503138 163.42188Q26.128138 164.14062 25.612513 164.5Q25.096888 164.84375 24.393763 164.84375Q23.237513 164.84375 22.425013 163.85938Q21.612513 162.85938 21.612513 161.32812Q21.612513 159.70312 22.456263 158.70312Q23.284388 157.6875 24.581263 157.6875L24.581263 159.32812Q23.909388 159.32812 23.440638 159.90625Q22.956263 160.46875 22.956263 161.32812Q22.956263 162.21875 23.346888 162.71875Q23.721888 163.21875 24.346888 163.21875Q24.940638 163.21875 25.237513 162.75Q25.534388 162.28125 25.815638 161.0625Q26.081263 159.84375 26.456263 159.09375Q26.831263 158.32812 27.362513 157.96875Q27.893763 157.60938 28.659388 157.60938Q29.940638 157.60938 30.706263 158.625Q31.471888 159.64062 31.471888 161.26562Q31.471888 162.40625 31.065638 163.29688Q30.659388 164.17188 29.940638 164.67188Q29.221888 165.17188 28.378138 165.17188L28.378138 163.53125Q29.190638 163.5 29.675013 162.89062Q30.143763 162.26562 30.143763 161.26562Q30.143763 160.34375 29.768763 159.79688Q29.393763 159.23438 28.784388 159.23438ZM26.643763 147.73438Q28.815638 147.73438 30.143763 148.73438Q31.471888 149.71875 31.471888 151.42188Q31.471888 153.15625 30.378138 154.14062L34.95626 154.14062L34.95626 155.76562L21.784388 155.76562L21.784388 154.28125L22.846888 154.20312Q21.612513 153.21875 21.612513 151.4375Q21.612513 149.73438 22.909388 148.73438Q24.190638 147.73438 26.503138 147.73438L26.643763 147.73438ZM26.471888 149.35938Q24.862513 149.35938 23.925013 150.04688Q22.987513 150.73438 22.987513 151.92188Q22.987513 153.40625 24.300013 154.14062L28.846888 154.14062Q30.143763 153.40625 30.143763 151.90625Q30.143763 150.73438 29.221888 150.04688Q28.300013 149.35938 26.471888 149.35938ZM26.456263 146.20312Q25.065638 146.20312 23.956263 145.65625Q22.831263 145.09375 22.221888 144.125Q21.612513 143.14062 21.612513 141.89062Q21.612513 139.9375 22.956263 138.75Q24.300013 137.54688 26.534388 137.54688L26.643763 137.54688Q28.034388 137.54688 29.143763 138.07812Q30.237513 138.60938 30.862513 139.59375Q31.471888 140.57812 31.471888 141.85938Q31.471888 143.79688 30.128138 145.0Q28.784388 146.20312 26.565638 146.20312L26.456263 146.20312ZM26.643763 144.5625Q28.237513 144.5625 29.190638 143.82812Q30.143763 143.09375 30.143763 141.85938Q30.143763 140.625 29.175013 139.90625Q28.206263 139.17188 26.456263 139.17188Q24.893763 139.17188 23.925013 139.92188Q22.956263 140.65625 22.956263 141.89062Q22.956263 143.09375 23.909388 143.82812Q24.862513 144.5625 26.643763 144.5625ZM21.784388 134.23438L22.987513 134.17188Q21.612513 133.09375 21.612513 131.32812Q21.612513 128.3125 25.018763 128.29688L31.300013 128.29688L31.300013 129.92188L25.003138 129.92188Q23.971888 129.92188 23.487513 130.39062Q22.987513 130.84375 22.987513 131.82812Q22.987513 132.60938 23.409388 133.21875Q23.831263 133.8125 24.518763 134.14062L31.300013 134.14062L31.300013 135.76562L21.784388 135.76562L21.784388 134.23438ZM28.784388 120.234375Q28.112513 120.234375 27.753138 120.734375Q27.393763 121.21875 27.128138 122.453125Q26.862513 123.6875 26.503138 124.421875Q26.128138 125.140625 25.612513 125.5Q25.096888 125.84375 24.393763 125.84375Q23.237513 125.84375 22.425013 124.859375Q21.612513 123.859375 21.612513 122.328125Q21.612513 120.703125 22.456263 119.703125Q23.284388 118.6875 24.581263 118.6875L24.581263 120.328125Q23.909388 120.328125 23.440638 120.90625Q22.956263 121.46875 22.956263 122.328125Q22.956263 123.21875 23.346888 123.71875Q23.721888 124.21875 24.346888 124.21875Q24.940638 124.21875 25.237513 123.75Q25.534388 123.28125 25.815638 122.0625Q26.081263 120.84375 26.456263 120.09375Q26.831263 119.328125 27.362513 118.96875Q27.893763 118.609375 28.659388 118.609375Q29.940638 118.609375 30.706263 119.625Q31.471888 120.640625 31.471888 122.265625Q31.471888 123.40625 31.065638 124.296875Q30.659388 125.171875 29.940638 125.671875Q29.221888 126.171875 28.378138 126.171875L28.378138 124.53125Q29.190638 124.5 29.675013 123.890625Q30.143763 123.265625 30.143763 122.265625Q30.143763 121.34375 29.768763 120.796875Q29.393763 120.234375 28.784388 120.234375ZM31.471888 112.828125Q31.471888 114.75 30.206263 115.96875Q28.940638 117.1875 26.815638 117.1875L26.503138 117.1875Q25.096888 117.1875 23.987513 116.640625Q22.878138 116.09375 22.253138 115.125Q21.612513 114.15625 21.612513 113.03125Q21.612513 111.171875 22.831263 110.140625Q24.050013 109.109375 26.331263 109.109375L27.003138 109.109375L27.003138 115.5625Q28.409388 115.515625 29.284388 114.734375Q30.143763 113.953125 30.143763 112.734375Q30.143763 111.875 29.800013 111.28125Q29.440638 110.671875 28.862513 110.234375L29.643763 109.234375Q31.471888 110.4375 31.471888 112.828125ZM22.956263 113.03125Q22.956263 114.015625 23.675013 114.6875Q24.378138 115.34375 25.675013 115.5L25.675013 110.734375L25.550013 110.734375Q24.315638 110.8125 23.643763 111.40625Q22.956263 112.0 22.956263 113.03125ZM28.784388 101.234375Q28.112513 101.234375 27.753138 101.734375Q27.393763 102.21875 27.128138 103.453125Q26.862513 104.6875 26.503138 105.421875Q26.128138 106.140625 25.612513 106.5Q25.096888 106.84375 24.393763 106.84375Q23.237513 106.84375 22.425013 105.859375Q21.612513 104.859375 21.612513 103.328125Q21.612513 101.703125 22.456263 100.703125Q23.284388 99.6875 24.581263 99.6875L24.581263 101.328125Q23.909388 101.328125 23.440638 101.90625Q22.956263 102.46875 22.956263 103.328125Q22.956263 104.21875 23.346888 104.71875Q23.721888 105.21875 24.346888 105.21875Q24.940638 105.21875 25.237513 104.75Q25.534388 104.28125 25.815638 103.0625Q26.081263 101.84375 26.456263 101.09375Q26.831263 100.328125 27.362513 99.96875Q27.893763 99.609375 28.659388 99.609375Q29.940638 99.609375 30.706263 100.625Q31.471888 101.640625 31.471888 103.265625Q31.471888 104.40625 31.065638 105.296875Q30.659388 106.171875 29.940638 106.671875Q29.221888 107.171875 28.378138 107.171875L28.378138 105.53125Q29.190638 105.5 29.675013 104.890625Q30.143763 104.265625 30.143763 103.265625Q30.143763 102.34375 29.768763 101.796875Q29.393763 101.234375 28.784388 101.234375Z" fill-rule="nonzero"/><path fill="#000000" d="M102.39375 197.24687Q102.39375 200.09062 101.40938 201.48125Q100.44063 202.87187 98.3625 202.87187Q96.31563 202.87187 95.33125 201.5125Q94.34688 200.15312 94.31563 197.46562L94.31563 195.29375Q94.31563 192.46562 95.28438 191.10625Q96.26875 189.73125 98.34688 189.73125Q100.40938 189.73125 101.37813 191.05937Q102.3625 192.37187 102.39375 195.1375L102.39375 197.24687ZM100.76875 195.0125Q100.76875 192.95 100.175 192.0125Q99.59688 191.05937 98.34688 191.05937Q97.09688 191.05937 96.51875 192.0125Q95.95625 192.95 95.94063 194.8875L95.94063 197.49687Q95.94063 199.575 96.53438 200.55937Q97.14375 201.54375 98.3625 201.54375Q99.56563 201.54375 100.14375 200.62187Q100.7375 199.68437 100.76875 197.68437L100.76875 195.0125Z" fill-rule="nonzero"/><path fill="#000000" d="M69.70625 145.56667L68.06563 145.56667L68.06563 134.72292L64.8 135.92604L64.8 134.45729L69.45625 132.70729L69.70625 132.70729L69.70625 145.56667ZM82.39375 140.11354Q82.39375 142.95729 81.40938 144.34792Q80.44063 145.73854 78.3625 145.73854Q76.31563 145.73854 75.33125 144.37917Q74.34688 143.01979 74.31563 140.33229L74.31563 138.16042Q74.31563 135.33229 75.28438 133.97292Q76.26875 132.59792 78.34688 132.59792Q80.40938 132.59792 81.37813 133.92604Q82.3625 135.23854 82.39375 138.00417L82.39375 140.11354ZM80.76875 137.87917Q80.76875 135.81667 80.175 134.87917Q79.59688 133.92604 78.34688 133.92604Q77.09688 133.92604 76.51875 134.87917Q75.95625 135.81667 75.94063 137.75417L75.94063 140.36354Q75.94063 142.44167 76.53438 143.42604Q77.14375 144.41042 78.3625 144.41042Q79.56563 144.41042 80.14375 143.48854Q80.7375 142.55104 80.76875 140.55104L80.76875 137.87917ZM92.39375 140.11354Q92.39375 142.95729 91.40938 144.34792Q90.44063 145.73854 88.3625 145.73854Q86.31563 145.73854 85.33125 144.37917Q84.34688 143.01979 84.31563 140.33229L84.31563 138.16042Q84.31563 135.33229 85.28438 133.97292Q86.26875 132.59792 88.34688 132.59792Q90.40938 132.59792 91.37813 133.92604Q92.3625 135.23854 92.39375 138.00417L92.39375 140.11354ZM90.76875 137.87917Q90.76875 135.81667 90.175 134.87917Q89.59688 133.92604 88.34688 133.92604Q87.09688 133.92604 86.51875 134.87917Q85.95625 135.81667 85.94063 137.75417L85.94063 140.36354Q85.94063 142.44167 86.53438 143.42604Q87.14375 144.41042 88.3625 144.41042Q89.56563 144.41042 90.14375 143.48854Q90.7375 142.55104 90.76875 140.55104L90.76875 137.87917ZM102.39375 140.11354Q102.39375 142.95729 101.40938 144.34792Q100.44063 145.73854 98.3625 145.73854Q96.31563 145.73854 95.33125 144.37917Q94.34688 143.01979 94.31563 140.33229L94.31563 138.16042Q94.31563 135.33229 95.28438 133.97292Q96.26875 132.59792 98.34688 132.59792Q100.40938 132.59792 101.37813 133.92604Q102.3625 135.23854 102.39375 138.00417L102.39375 140.11354ZM100.76875 137.87917Q100.76875 135.81667 100.175 134.87917Q99.59688 133.92604 98.34688 133.92604Q97.09688 133.92604 96.51875 134.87917Q95.95625 135.81667 95.94063 137.75417L95.94063 140.36354Q95.94063 142.44167 96.53438 143.42604Q97.14375 144.41042 98.3625 144.41042Q99.56563 144.41042 100.14375 143.48854Q100.7375 142.55104 100.76875 140.55104L100.76875 137.87917Z" fill-rule="nonzero"/><path fill="#000000" d="M72.75313 88.433334L64.3625 88.433334L64.3625 87.26146L68.8 82.339584Q69.78438 81.23021 70.14375 80.527084Q70.51875 79.82396 70.51875 79.07396Q70.51875 78.07396 69.90938 77.433334Q69.31563 76.79271 68.3 76.79271Q67.08125 76.79271 66.40938 77.495834Q65.7375 78.183334 65.7375 79.402084L64.1125 79.402084Q64.1125 77.63646 65.25313 76.558334Q66.39375 75.464584 68.3 75.464584Q70.08125 75.464584 71.1125 76.402084Q72.15938 77.339584 72.15938 78.88646Q72.15938 80.777084 69.75313 83.38646L66.33125 87.10521L72.75313 87.10521L72.75313 88.433334ZM82.39375 82.98021Q82.39375 85.82396 81.40938 87.214584Q80.44063 88.60521 78.3625 88.60521Q76.31563 88.60521 75.33125 87.245834Q74.34688 85.88646 74.31563 83.19896L74.31563 81.027084Q74.31563 78.19896 75.28438 76.839584Q76.26875 75.464584 78.34688 75.464584Q80.40938 75.464584 81.37813 76.79271Q82.3625 78.10521 82.39375 80.870834L82.39375 82.98021ZM80.76875 80.745834Q80.76875 78.683334 80.175 77.745834Q79.59688 76.79271 78.34688 76.79271Q77.09688 76.79271 76.51875 77.745834Q75.95625 78.683334 75.94063 80.620834L75.94063 83.23021Q75.94063 85.308334 76.53438 86.29271Q77.14375 87.277084 78.3625 87.277084Q79.56563 87.277084 80.14375 86.35521Q80.7375 85.41771 80.76875 83.41771L80.76875 80.745834ZM92.39375 82.98021Q92.39375 85.82396 91.40938 87.214584Q90.44063 88.60521 88.3625 88.60521Q86.31563 88.60521 85.33125 87.245834Q84.34688 85.88646 84.31563 83.19896L84.31563 81.027084Q84.31563 78.19896 85.28438 76.839584Q86.26875 75.464584 88.34688 75.464584Q90.40938 75.464584 91.37813 76.79271Q92.3625 78.10521 92.39375 80.870834L92.39375 82.98021ZM90.76875 80.745834Q90.76875 78.683334 90.175 77.745834Q89.59688 76.79271 88.34688 76.79271Q87.09688 76.79271 86.51875 77.745834Q85.95625 78.683334 85.94063 80.620834L85.94063 83.23021Q85.94063 85.308334 86.53438 86.29271Q87.14375 87.277084 88.3625 87.277084Q89.56563 87.277084 90.14375 86.35521Q90.7375 85.41771 90.76875 83.41771L90.76875 80.745834ZM102.39375 82.98021Q102.39375 85.82396 101.40938 87.214584Q100.44063 88.60521 98.3625 88.60521Q96.31563 88.60521 95.33125 87.245834Q94.34688 85.88646 94.31563 83.19896L94.31563 81.027084Q94.31563 78.19896 95.28438 76.839584Q96.26875 75.464584 98.34688 75.464584Q100.40938 75.464584 101.37813 76.79271Q102.3625 78.10521 102.39375 80.870834L102.39375 82.98021ZM100.76875 80.745834Q100.76875 78.683334 100.175 77.745834Q99.59688 76.79271 98.34688 76.79271Q97.09688 76.79271 96.51875 77.745834Q95.95625 78.683334 95.94063 80.620834L95.94063 83.23021Q95.94063 85.308334 96.53438 86.29271Q97.14375 87.277084 98.3625 87.277084Q99.56563 87.277084 100.14375 86.35521Q100.7375 85.41771 100.76875 83.41771L100.76875 80.745834Z" fill-rule="nonzero"/><path fill="#000000" d="M66.72188 24.1125L67.95625 24.1125Q69.09688 24.096874 69.75313 23.503124Q70.425 22.909374 70.425 21.909374Q70.425 19.659374 68.175 19.659374Q67.12813 19.659374 66.4875 20.26875Q65.8625 20.8625 65.8625 21.8625L64.2375 21.8625Q64.2375 20.346874 65.34688 19.346874Q66.47188 18.33125 68.175 18.33125Q69.9875 18.33125 71.01875 19.284374Q72.05 20.2375 72.05 21.940624Q72.05 22.784374 71.50313 23.565624Q70.97188 24.346874 70.03438 24.7375Q71.08125 25.065624 71.65938 25.846874Q72.2375 26.6125 72.2375 27.7375Q72.2375 29.45625 71.1125 30.471874Q69.9875 31.471874 68.175 31.471874Q66.37813 31.471874 65.25313 30.503124Q64.12813 29.51875 64.12813 27.925L65.76875 27.925Q65.76875 28.940624 66.425 29.55Q67.08125 30.14375 68.19063 30.14375Q69.3625 30.14375 69.9875 29.534374Q70.6125 28.925 70.6125 27.76875Q70.6125 26.64375 69.925 26.05Q69.2375 25.45625 67.95625 25.440624L66.72188 25.440624L66.72188 24.1125ZM82.39375 25.846874Q82.39375 28.690624 81.40938 30.08125Q80.44063 31.471874 78.3625 31.471874Q76.31563 31.471874 75.33125 30.1125Q74.34688 28.753124 74.31563 26.065624L74.31563 23.89375Q74.31563 21.065624 75.28438 19.70625Q76.26875 18.33125 78.34688 18.33125Q80.40938 18.33125 81.37813 19.659374Q82.3625 20.971874 82.39375 23.7375L82.39375 25.846874ZM80.76875 23.6125Q80.76875 21.55 80.175 20.6125Q79.59688 19.659374 78.34688 19.659374Q77.09688 19.659374 76.51875 20.6125Q75.95625 21.55 75.94063 23.4875L75.94063 26.096874Q75.94063 28.175 76.53438 29.159374Q77.14375 30.14375 78.3625 30.14375Q79.56563 30.14375 80.14375 29.221874Q80.7375 28.284374 80.76875 26.284374L80.76875 23.6125ZM92.39375 25.846874Q92.39375 28.690624 91.40938 30.08125Q90.44063 31.471874 88.3625 31.471874Q86.31563 31.471874 85.33125 30.1125Q84.34688 28.753124 84.31563 26.065624L84.31563 23.89375Q84.31563 21.065624 85.28438 19.70625Q86.26875 18.33125 88.34688 18.33125Q90.40938 18.33125 91.37813 19.659374Q92.3625 20.971874 92.39375 23.7375L92.39375 25.846874ZM90.76875 23.6125Q90.76875 21.55 90.175 20.6125Q89.59688 19.659374 88.34688 19.659374Q87.09688 19.659374 86.51875 20.6125Q85.95625 21.55 85.94063 23.4875L85.94063 26.096874Q85.94063 28.175 86.53438 29.159374Q87.14375 30.14375 88.3625 30.14375Q89.56563 30.14375 90.14375 29.221874Q90.7375 28.284374 90.76875 26.284374L90.76875 23.6125ZM102.39375 25.846874Q102.39375 28.690624 101.40938 30.08125Q100.44063 31.471874 98.3625 31.471874Q96.31563 31.471874 95.33125 30.1125Q94.34688 28.753124 94.31563 26.065624L94.31563 23.89375Q94.31563 21.065624 95.28438 19.70625Q96.26875 18.33125 98.34688 18.33125Q100.40938 18.33125 101.37813 19.659374Q102.3625 20.971874 102.39375 23.7375L102.39375 25.846874ZM100.76875 23.6125Q100.76875 21.55 100.175 20.6125Q99.59688 19.659374 98.34688 19.659374Q97.09688 19.659374 96.51875 20.6125Q95.95625 21.55 95.94063 23.4875L95.94063 26.096874Q95.94063 28.175 96.53438 29.159374Q97.14375 30.14375 98.3625 30.14375Q99.56563 30.14375 100.14375 29.221874Q100.7375 28.284374 100.76875 26.284374L100.76875 23.6125Z" fill-rule="nonzero"/><path fill="#000000" d="M145.74533 238.99687Q143.57346 238.37187 142.58908 237.46562Q141.6047 236.55937 141.6047 235.21562Q141.6047 233.7 142.80783 232.71562Q144.02658 231.73125 145.94846 231.73125Q147.27658 231.73125 148.30783 232.24687Q149.33908 232.74687 149.90158 233.65312Q150.46408 234.54375 150.46408 235.60625L148.77658 235.60625Q148.77658 234.45 148.02658 233.79375Q147.2922 233.12187 145.94846 233.12187Q144.69846 233.12187 143.99533 233.66875Q143.30783 234.21562 143.30783 235.18437Q143.30783 235.96562 143.96408 236.5125Q144.63596 237.05937 146.2297 237.5125Q147.82346 237.95 148.71408 238.49687Q149.62033 239.02812 150.05783 239.74687Q150.49533 240.46562 150.49533 241.45Q150.49533 242.99687 149.27658 243.93437Q148.07346 244.87187 146.0422 244.87187Q144.7297 244.87187 143.57346 244.37187Q142.43283 243.87187 141.80783 242.99687Q141.19846 242.10625 141.19846 240.99687L142.90158 240.99687Q142.90158 242.15312 143.74533 242.825Q144.6047 243.49687 146.0422 243.49687Q147.37033 243.49687 148.08908 242.95Q148.80783 242.40312 148.80783 241.46562Q148.80783 240.52812 148.13596 240.0125Q147.4797 239.49687 145.74533 238.99687ZM154.93283 232.8875L154.93283 235.18437L156.71408 235.18437L156.71408 236.45L154.93283 236.45L154.93283 242.34062Q154.93283 242.91875 155.1672 243.2Q155.40158 243.48125 155.9797 243.48125Q156.26096 243.48125 156.74533 243.3875L156.74533 244.7Q156.1047 244.87187 155.51096 244.87187Q154.4172 244.87187 153.8547 244.21562Q153.30783 243.55937 153.30783 242.34062L153.30783 236.45L151.57346 236.45L151.57346 235.18437L153.30783 235.18437L153.30783 232.8875L154.93283 232.8875ZM163.32346 236.65312Q162.94846 236.59062 162.52658 236.59062Q160.9172 236.59062 160.3547 237.95L160.3547 244.7L158.7297 244.7L158.7297 235.18437L160.30783 235.18437L160.33908 236.29375Q161.13596 235.0125 162.6047 235.0125Q163.07346 235.0125 163.32346 235.1375L163.32346 236.65312ZM164.2922 239.85625Q164.2922 238.46562 164.83908 237.35625Q165.40158 236.23125 166.37033 235.62187Q167.3547 235.0125 168.6047 235.0125Q170.55783 235.0125 171.74533 236.35625Q172.94846 237.7 172.94846 239.93437L172.94846 240.04375Q172.94846 241.43437 172.4172 242.54375Q171.88596 243.6375 170.90158 244.2625Q169.9172 244.87187 168.63596 244.87187Q166.69846 244.87187 165.49533 243.52812Q164.2922 242.18437 164.2922 239.96562L164.2922 239.85625ZM165.93283 240.04375Q165.93283 241.6375 166.6672 242.59062Q167.40158 243.54375 168.63596 243.54375Q169.87033 243.54375 170.58908 242.575Q171.32346 241.60625 171.32346 239.85625Q171.32346 238.29375 170.57346 237.325Q169.83908 236.35625 168.6047 236.35625Q167.40158 236.35625 166.6672 237.30937Q165.93283 238.2625 165.93283 240.04375ZM176.26096 235.18437L176.32346 236.3875Q177.40158 235.0125 179.1672 235.0125Q182.18283 235.0125 182.19846 238.41875L182.19846 244.7L180.57346 244.7L180.57346 238.40312Q180.57346 237.37187 180.1047 236.8875Q179.65158 236.3875 178.6672 236.3875Q177.88596 236.3875 177.27658 236.80937Q176.68283 237.23125 176.3547 237.91875L176.3547 244.7L174.7297 244.7L174.7297 235.18437L176.26096 235.18437ZM184.33908 239.87187Q184.33908 237.6375 185.37033 236.325Q186.40158 235.0125 188.08908 235.0125Q189.83908 235.0125 190.80783 236.24687L190.88596 235.18437L192.37033 235.18437L192.37033 244.46562Q192.37033 246.325 191.27658 247.3875Q190.18283 248.45 188.33908 248.45Q187.30783 248.45 186.32346 247.99687Q185.33908 247.55937 184.82346 246.79375L185.6672 245.825Q186.71408 247.12187 188.2297 247.12187Q189.4172 247.12187 190.07346 246.45Q190.74533 245.77812 190.74533 244.575L190.74533 243.74687Q189.76096 244.87187 188.07346 244.87187Q186.40158 244.87187 185.37033 243.52812Q184.33908 242.18437 184.33908 239.87187ZM185.9797 240.04375Q185.9797 241.65312 186.63596 242.575Q187.2922 243.49687 188.4797 243.49687Q190.01096 243.49687 190.74533 242.09062L190.74533 237.7625Q189.99533 236.3875 188.49533 236.3875Q187.30783 236.3875 186.63596 237.325Q185.9797 238.24687 185.9797 240.04375ZM196.49533 244.7L194.87033 244.7L194.87033 231.2L196.49533 231.2L196.49533 244.7ZM201.83908 242.325L204.05783 235.18437L205.7922 235.18437L201.96408 246.16875Q201.08908 248.54375 199.15158 248.54375L198.83908 248.5125L198.2297 248.40312L198.2297 247.075L198.6672 247.12187Q199.49533 247.12187 199.94846 246.77812Q200.4172 246.45 200.71408 245.55937L201.08908 244.59062L197.68283 235.18437L199.46408 235.18437L201.83908 242.325Z" fill-rule="nonzero"/><path fill="#000000" d="M139.4797 266.7L139.4797 253.90314L143.08908 253.90314Q144.76096 253.90314 146.0422 254.63751Q147.32346 255.37189 148.02658 256.7469Q148.7297 258.10626 148.7297 259.8719L148.7297 260.6844Q148.7297 262.4969 148.02658 263.85626Q147.33908 265.21564 146.0422 265.95Q144.74533 266.6844 143.02658 266.7L139.4797 266.7ZM141.1672 255.29376L141.1672 265.325L142.94846 265.325Q144.90158 265.325 145.9797 264.10626Q147.07346 262.8875 147.07346 260.65314L147.07346 259.90314Q147.07346 257.73126 146.0422 256.52814Q145.01096 255.30939 143.13596 255.29376L141.1672 255.29376ZM152.99533 266.7L151.37033 266.7L151.37033 257.1844L152.99533 257.1844L152.99533 266.7ZM151.2297 254.66876Q151.2297 254.27814 151.46408 254.01251Q151.71408 253.73126 152.18283 253.73126Q152.6672 253.73126 152.9172 254.01251Q153.1672 254.27814 153.1672 254.66876Q153.1672 255.05939 152.9172 255.32501Q152.6672 255.59064 152.18283 255.59064Q151.71408 255.59064 151.46408 255.32501Q151.2297 255.05939 151.2297 254.66876ZM160.76096 264.1844Q160.76096 263.5125 160.26096 263.15314Q159.77658 262.79376 158.5422 262.52814Q157.30783 262.2625 156.57346 261.90314Q155.8547 261.52814 155.49533 261.0125Q155.15158 260.4969 155.15158 259.79376Q155.15158 258.6375 156.13596 257.825Q157.13596 257.0125 158.6672 257.0125Q160.2922 257.0125 161.2922 257.85626Q162.30783 258.6844 162.30783 259.98126L160.6672 259.98126Q160.6672 259.3094 160.08908 258.84064Q159.52658 258.35626 158.6672 258.35626Q157.77658 258.35626 157.27658 258.7469Q156.77658 259.1219 156.77658 259.7469Q156.77658 260.34064 157.24533 260.6375Q157.71408 260.9344 158.93283 261.21564Q160.15158 261.48126 160.90158 261.85626Q161.6672 262.23126 162.02658 262.7625Q162.38596 263.29376 162.38596 264.0594Q162.38596 265.34064 161.37033 266.10626Q160.3547 266.8719 158.7297 266.8719Q157.58908 266.8719 156.69846 266.46564Q155.82346 266.0594 155.32346 265.34064Q154.82346 264.6219 154.82346 263.77814L156.46408 263.77814Q156.49533 264.59064 157.1047 265.075Q157.7297 265.54376 158.7297 265.54376Q159.65158 265.54376 160.19846 265.16876Q160.76096 264.79376 160.76096 264.1844ZM170.1047 266.7Q169.96408 266.41876 169.87033 265.7Q168.7297 266.8719 167.1672 266.8719Q165.76096 266.8719 164.8547 266.075Q163.94846 265.27814 163.94846 264.0594Q163.94846 262.575 165.07346 261.7625Q166.21408 260.9344 168.26096 260.9344L169.83908 260.9344L169.83908 260.1844Q169.83908 259.34064 169.32346 258.84064Q168.82346 258.325 167.82346 258.325Q166.96408 258.325 166.37033 258.7625Q165.77658 259.2 165.77658 259.825L164.15158 259.825Q164.15158 259.1219 164.65158 258.46564Q165.15158 257.79376 166.01096 257.40314Q166.88596 257.0125 167.93283 257.0125Q169.57346 257.0125 170.49533 257.84064Q171.43283 258.65314 171.46408 260.10626L171.46408 264.48126Q171.46408 265.77814 171.80783 266.5594L171.80783 266.7L170.1047 266.7ZM167.40158 265.46564Q168.1672 265.46564 168.8547 265.075Q169.5422 264.66876 169.83908 264.04376L169.83908 262.09064L168.57346 262.09064Q165.57346 262.09064 165.57346 263.84064Q165.57346 264.60626 166.08908 265.04376Q166.6047 265.46564 167.40158 265.46564ZM173.83908 261.8719Q173.83908 259.6375 174.87033 258.325Q175.90158 257.0125 177.58908 257.0125Q179.33908 257.0125 180.30783 258.2469L180.38596 257.1844L181.87033 257.1844L181.87033 266.46564Q181.87033 268.325 180.77658 269.3875Q179.68283 270.45 177.83908 270.45Q176.80783 270.45 175.82346 269.9969Q174.83908 269.5594 174.32346 268.79376L175.1672 267.825Q176.21408 269.1219 177.7297 269.1219Q178.9172 269.1219 179.57346 268.45Q180.24533 267.77814 180.24533 266.575L180.24533 265.7469Q179.26096 266.8719 177.57346 266.8719Q175.90158 266.8719 174.87033 265.52814Q173.83908 264.1844 173.83908 261.8719ZM175.4797 262.04376Q175.4797 263.65314 176.13596 264.575Q176.7922 265.4969 177.9797 265.4969Q179.51096 265.4969 180.24533 264.09064L180.24533 259.7625Q179.49533 258.3875 177.99533 258.3875Q176.80783 258.3875 176.13596 259.325Q175.4797 260.2469 175.4797 262.04376ZM188.82346 258.65314Q188.44846 258.59064 188.02658 258.59064Q186.4172 258.59064 185.8547 259.95L185.8547 266.7L184.2297 266.7L184.2297 257.1844L185.80783 257.1844L185.83908 258.29376Q186.63596 257.0125 188.1047 257.0125Q188.57346 257.0125 188.82346 257.1375L188.82346 258.65314ZM194.1672 266.8719Q192.24533 266.8719 191.02658 265.60626Q189.80783 264.34064 189.80783 262.21564L189.80783 261.90314Q189.80783 260.4969 190.3547 259.3875Q190.90158 258.27814 191.87033 257.65314Q192.83908 257.0125 193.96408 257.0125Q195.82346 257.0125 196.8547 258.23126Q197.88596 259.45 197.88596 261.73126L197.88596 262.40314L191.43283 262.40314Q191.4797 263.8094 192.26096 264.6844Q193.0422 265.54376 194.26096 265.54376Q195.12033 265.54376 195.71408 265.2Q196.32346 264.84064 196.76096 264.2625L197.76096 265.04376Q196.55783 266.8719 194.1672 266.8719ZM193.96408 258.35626Q192.9797 258.35626 192.30783 259.075Q191.65158 259.77814 191.49533 261.075L196.26096 261.075L196.26096 260.95Q196.18283 259.71564 195.58908 259.04376Q194.99533 258.35626 193.96408 258.35626ZM204.1672 266.8719Q202.24533 266.8719 201.02658 265.60626Q199.80783 264.34064 199.80783 262.21564L199.80783 261.90314Q199.80783 260.4969 200.3547 259.3875Q200.90158 258.27814 201.87033 257.65314Q202.83908 257.0125 203.96408 257.0125Q205.82346 257.0125 206.8547 258.23126Q207.88596 259.45 207.88596 261.73126L207.88596 262.40314L201.43283 262.40314Q201.4797 263.8094 202.26096 264.6844Q203.0422 265.54376 204.26096 265.54376Q205.12033 265.54376 205.71408 265.2Q206.32346 264.84064 206.76096 264.2625L207.76096 265.04376Q206.55783 266.8719 204.1672 266.8719ZM203.96408 258.35626Q202.9797 258.35626 202.30783 259.075Q201.65158 259.77814 201.49533 261.075L206.26096 261.075L206.26096 260.95Q206.18283 259.71564 205.58908 259.04376Q204.99533 258.35626 203.96408 258.35626Z" fill-rule="nonzero"/><path fill="#000000" d="M242.73204 244.7L242.73204 231.90312L246.34142 231.90312Q248.01329 231.90312 249.29454 232.6375Q250.57579 233.37187 251.27892 234.74687Q251.98204 236.10625 251.98204 237.87187L251.98204 238.68437Q251.98204 240.49687 251.27892 241.85625Q250.59142 243.21562 249.29454 243.95Q247.99767 244.68437 246.27892 244.7L242.73204 244.7ZM244.41954 233.29375L244.41954 243.325L246.20079 243.325Q248.15392 243.325 249.23204 242.10625Q250.32579 240.8875 250.32579 238.65312L250.32579 237.90312Q250.32579 235.73125 249.29454 234.52812Q248.26329 233.30937 246.38829 233.29375L244.41954 233.29375ZM256.24768 244.7L254.62267 244.7L254.62267 235.18437L256.24768 235.18437L256.24768 244.7ZM254.48204 232.66875Q254.48204 232.27812 254.71642 232.0125Q254.96642 231.73125 255.43517 231.73125Q255.91954 231.73125 256.16956 232.0125Q256.41956 232.27812 256.41956 232.66875Q256.41956 233.05937 256.16956 233.325Q255.91954 233.59062 255.43517 233.59062Q254.96642 233.59062 254.71642 233.325Q254.48204 233.05937 254.48204 232.66875ZM264.0133 242.18437Q264.0133 241.5125 263.5133 241.15312Q263.02893 240.79375 261.79456 240.52812Q260.56018 240.2625 259.8258 239.90312Q259.10706 239.52812 258.74768 239.0125Q258.40393 238.49687 258.40393 237.79375Q258.40393 236.6375 259.3883 235.825Q260.3883 235.0125 261.91956 235.0125Q263.54456 235.0125 264.54456 235.85625Q265.56018 236.68437 265.56018 237.98125L263.91956 237.98125Q263.91956 237.30937 263.34143 236.84062Q262.77893 236.35625 261.91956 236.35625Q261.02893 236.35625 260.52893 236.74687Q260.02893 237.12187 260.02893 237.74687Q260.02893 238.34062 260.49768 238.6375Q260.96643 238.93437 262.18518 239.21562Q263.40393 239.48125 264.15393 239.85625Q264.91956 240.23125 265.27893 240.7625Q265.6383 241.29375 265.6383 242.05937Q265.6383 243.34062 264.62268 244.10625Q263.60706 244.87187 261.98206 244.87187Q260.84143 244.87187 259.9508 244.46562Q259.0758 244.05937 258.5758 243.34062Q258.0758 242.62187 258.0758 241.77812L259.71643 241.77812Q259.74768 242.59062 260.35706 243.075Q260.98206 243.54375 261.98206 243.54375Q262.90393 243.54375 263.4508 243.16875Q264.0133 242.79375 264.0133 242.18437ZM273.35706 244.7Q273.21643 244.41875 273.12268 243.7Q271.98206 244.87187 270.41956 244.87187Q269.0133 244.87187 268.10706 244.075Q267.2008 243.27812 267.2008 242.05937Q267.2008 240.575 268.3258 239.7625Q269.46643 238.93437 271.5133 238.93437L273.09143 238.93437L273.09143 238.18437Q273.09143 237.34062 272.5758 236.84062Q272.0758 236.325 271.0758 236.325Q270.21643 236.325 269.62268 236.7625Q269.02893 237.2 269.02893 237.825L267.40393 237.825Q267.40393 237.12187 267.90393 236.46562Q268.40393 235.79375 269.2633 235.40312Q270.1383 235.0125 271.18518 235.0125Q272.8258 235.0125 273.74768 235.84062Q274.68518 236.65312 274.71643 238.10625L274.71643 242.48125Q274.71643 243.77812 275.06018 244.55937L275.06018 244.7L273.35706 244.7ZM270.65393 243.46562Q271.41956 243.46562 272.10706 243.075Q272.79456 242.66875 273.09143 242.04375L273.09143 240.09062L271.8258 240.09062Q268.8258 240.09062 268.8258 241.84062Q268.8258 242.60625 269.34143 243.04375Q269.85706 243.46562 270.65393 243.46562ZM277.09143 239.87187Q277.09143 237.6375 278.12268 236.325Q279.15393 235.0125 280.84143 235.0125Q282.59143 235.0125 283.56018 236.24687L283.6383 235.18437L285.12268 235.18437L285.12268 244.46562Q285.12268 246.325 284.02893 247.3875Q282.93518 248.45 281.09143 248.45Q280.06018 248.45 279.0758 247.99687Q278.09143 247.55937 277.5758 246.79375L278.41956 245.825Q279.46643 247.12187 280.98206 247.12187Q282.16956 247.12187 282.8258 246.45Q283.49768 245.77812 283.49768 244.575L283.49768 243.74687Q282.5133 244.87187 280.8258 244.87187Q279.15393 244.87187 278.12268 243.52812Q277.09143 242.18437 277.09143 239.87187ZM278.73206 240.04375Q278.73206 241.65312 279.3883 242.575Q280.04456 243.49687 281.23206 243.49687Q282.7633 243.49687 283.49768 242.09062L283.49768 237.7625Q282.74768 236.3875 281.24768 236.3875Q280.06018 236.3875 279.3883 237.325Q278.73206 238.24687 278.73206 240.04375ZM292.0758 236.65312Q291.7008 236.59062 291.27893 236.59062Q289.66956 236.59062 289.10706 237.95L289.10706 244.7L287.48206 244.7L287.48206 235.18437L289.06018 235.18437L289.09143 236.29375Q289.8883 235.0125 291.35706 235.0125Q291.8258 235.0125 292.0758 235.1375L292.0758 236.65312ZM297.41956 244.87187Q295.49768 244.87187 294.27893 243.60625Q293.06018 242.34062 293.06018 240.21562L293.06018 239.90312Q293.06018 238.49687 293.60706 237.3875Q294.15393 236.27812 295.12268 235.65312Q296.09143 235.0125 297.21643 235.0125Q299.0758 235.0125 300.10706 236.23125Q301.1383 237.45 301.1383 239.73125L301.1383 240.40312L294.68518 240.40312Q294.73206 241.80937 295.5133 242.68437Q296.29456 243.54375 297.5133 243.54375Q298.37268 243.54375 298.96643 243.2Q299.5758 242.84062 300.0133 242.2625L301.0133 243.04375Q299.81018 244.87187 297.41956 244.87187ZM297.21643 236.35625Q296.23206 236.35625 295.56018 237.075Q294.90393 237.77812 294.74768 239.075L299.5133 239.075L299.5133 238.95Q299.43518 237.71562 298.84143 237.04375Q298.24768 236.35625 297.21643 236.35625ZM307.41956 244.87187Q305.49768 244.87187 304.27893 243.60625Q303.06018 242.34062 303.06018 240.21562L303.06018 239.90312Q303.06018 238.49687 303.60706 237.3875Q304.15393 236.27812 305.12268 235.65312Q306.09143 235.0125 307.21643 235.0125Q309.0758 235.0125 310.10706 236.23125Q311.1383 237.45 311.1383 239.73125L311.1383 240.40312L304.68518 240.40312Q304.73206 241.80937 305.5133 242.68437Q306.29456 243.54375 307.5133 243.54375Q308.37268 243.54375 308.96643 243.2Q309.5758 242.84062 310.0133 242.2625L311.0133 243.04375Q309.81018 244.87187 307.41956 244.87187ZM307.21643 236.35625Q306.23206 236.35625 305.56018 237.075Q304.90393 237.77812 304.74768 239.075L309.5133 239.075L309.5133 238.95Q309.43518 237.71562 308.84143 237.04375Q308.24768 236.35625 307.21643 236.35625Z" fill-rule="nonzero"/><path fill="#000000" d="M361.82812 244.7L360.125 244.7L353.6875 234.84062L353.6875 244.7L351.98438 244.7L351.98438 231.90312L353.6875 231.90312L360.14062 241.80937L360.14062 231.90312L361.82812 231.90312L361.82812 244.7ZM368.67188 244.87187Q366.75 244.87187 365.53125 243.60625Q364.3125 242.34062 364.3125 240.21562L364.3125 239.90312Q364.3125 238.49687 364.85938 237.3875Q365.40625 236.27812 366.375 235.65312Q367.34375 235.0125 368.46875 235.0125Q370.32812 235.0125 371.35938 236.23125Q372.39062 237.45 372.39062 239.73125L372.39062 240.40312L365.9375 240.40312Q365.98438 241.80937 366.76562 242.68437Q367.54688 243.54375 368.76562 243.54375Q369.625 243.54375 370.21875 243.2Q370.82812 242.84062 371.26562 242.2625L372.26562 243.04375Q371.0625 244.87187 368.67188 244.87187ZM368.46875 236.35625Q367.48438 236.35625 366.8125 237.075Q366.15625 237.77812 366.0 239.075L370.76562 239.075L370.76562 238.95Q370.6875 237.71562 370.09375 237.04375Q369.5 236.35625 368.46875 236.35625ZM380.60938 243.7625Q379.65625 244.87187 377.8125 244.87187Q376.29688 244.87187 375.5 243.99687Q374.70312 243.10625 374.70312 241.37187L374.70312 235.18437L376.32812 235.18437L376.32812 241.34062Q376.32812 243.49687 378.07812 243.49687Q379.9375 243.49687 380.5625 242.10625L380.5625 235.18437L382.1875 235.18437L382.1875 244.7L380.64062 244.7L380.60938 243.7625ZM386.9375 232.8875L386.9375 235.18437L388.71875 235.18437L388.71875 236.45L386.9375 236.45L386.9375 242.34062Q386.9375 242.91875 387.17188 243.2Q387.40625 243.48125 387.98438 243.48125Q388.26562 243.48125 388.75 243.3875L388.75 244.7Q388.10938 244.87187 387.51562 244.87187Q386.42188 244.87187 385.85938 244.21562Q385.3125 243.55937 385.3125 242.34062L385.3125 236.45L383.57812 236.45L383.57812 235.18437L385.3125 235.18437L385.3125 232.8875L386.9375 232.8875ZM395.32812 236.65312Q394.95312 236.59062 394.53125 236.59062Q392.92188 236.59062 392.35938 237.95L392.35938 244.7L390.73438 244.7L390.73438 235.18437L392.3125 235.18437L392.34375 236.29375Q393.14062 235.0125 394.60938 235.0125Q395.07812 235.0125 395.32812 235.1375L395.32812 236.65312ZM402.60938 244.7Q402.46875 244.41875 402.375 243.7Q401.23438 244.87187 399.67188 244.87187Q398.26562 244.87187 397.35938 244.075Q396.45312 243.27812 396.45312 242.05937Q396.45312 240.575 397.57812 239.7625Q398.71875 238.93437 400.76562 238.93437L402.34375 238.93437L402.34375 238.18437Q402.34375 237.34062 401.82812 236.84062Q401.32812 236.325 400.32812 236.325Q399.46875 236.325 398.875 236.7625Q398.28125 237.2 398.28125 237.825L396.65625 237.825Q396.65625 237.12187 397.15625 236.46562Q397.65625 235.79375 398.51562 235.40312Q399.39062 235.0125 400.4375 235.0125Q402.07812 235.0125 403.0 235.84062Q403.9375 236.65312 403.96875 238.10625L403.96875 242.48125Q403.96875 243.77812 404.3125 244.55937L404.3125 244.7L402.60938 244.7ZM399.90625 243.46562Q400.67188 243.46562 401.35938 243.075Q402.04688 242.66875 402.34375 242.04375L402.34375 240.09062L401.07812 240.09062Q398.07812 240.09062 398.07812 241.84062Q398.07812 242.60625 398.59375 243.04375Q399.10938 243.46562 399.90625 243.46562ZM408.5 244.7L406.875 244.7L406.875 231.2L408.5 231.2L408.5 244.7Z" fill-rule="nonzero"/><path fill="#000000" d="M467.79922 241.35625L462.43985 241.35625L461.23672 244.7L459.50235 244.7L464.39297 231.90312L465.86172 231.90312L470.75235 244.7L469.0336 244.7L467.79922 241.35625ZM462.95547 239.96562L467.29922 239.96562L465.12735 233.98125L462.95547 239.96562ZM472.0961 239.87187Q472.0961 237.6375 473.12735 236.325Q474.1586 235.0125 475.8461 235.0125Q477.5961 235.0125 478.56485 236.24687L478.64297 235.18437L480.12735 235.18437L480.12735 244.46562Q480.12735 246.325 479.0336 247.3875Q477.93985 248.45 476.0961 248.45Q475.06485 248.45 474.08047 247.99687Q473.0961 247.55937 472.58047 246.79375L473.42422 245.825Q474.4711 247.12187 475.98672 247.12187Q477.17422 247.12187 477.83047 246.45Q478.50235 245.77812 478.50235 244.575L478.50235 243.74687Q477.51797 244.87187 475.83047 244.87187Q474.1586 244.87187 473.12735 243.52812Q472.0961 242.18437 472.0961 239.87187ZM473.73672 240.04375Q473.73672 241.65312 474.39297 242.575Q475.04922 243.49687 476.23672 243.49687Q477.76797 243.49687 478.50235 242.09062L478.50235 237.7625Q477.75235 236.3875 476.25235 236.3875Q475.06485 236.3875 474.39297 237.325Q473.73672 238.24687 473.73672 240.04375ZM487.08047 236.65312Q486.70547 236.59062 486.2836 236.59062Q484.67422 236.59062 484.11172 237.95L484.11172 244.7L482.48672 244.7L482.48672 235.18437L484.06485 235.18437L484.0961 236.29375Q484.89297 235.0125 486.36172 235.0125Q486.83047 235.0125 487.08047 235.1375L487.08047 236.65312ZM492.42422 244.87187Q490.50235 244.87187 489.2836 243.60625Q488.06485 242.34062 488.06485 240.21562L488.06485 239.90312Q488.06485 238.49687 488.61172 237.3875Q489.1586 236.27812 490.12735 235.65312Q491.0961 235.0125 492.2211 235.0125Q494.08047 235.0125 495.11172 236.23125Q496.14297 237.45 496.14297 239.73125L496.14297 240.40312L489.68985 240.40312Q489.73672 241.80937 490.51797 242.68437Q491.29922 243.54375 492.51797 243.54375Q493.37735 243.54375 493.9711 243.2Q494.58047 242.84062 495.01797 242.2625L496.01797 243.04375Q494.81485 244.87187 492.42422 244.87187ZM492.2211 236.35625Q491.23672 236.35625 490.56485 237.075Q489.9086 237.77812 489.75235 239.075L494.51797 239.075L494.51797 238.95Q494.43985 237.71562 493.8461 237.04375Q493.25235 236.35625 492.2211 236.35625ZM502.42422 244.87187Q500.50235 244.87187 499.2836 243.60625Q498.06485 242.34062 498.06485 240.21562L498.06485 239.90312Q498.06485 238.49687 498.61172 237.3875Q499.1586 236.27812 500.12735 235.65312Q501.0961 235.0125 502.2211 235.0125Q504.08047 235.0125 505.11172 236.23125Q506.14297 237.45 506.14297 239.73125L506.14297 240.40312L499.68985 240.40312Q499.73672 241.80937 500.51797 242.68437Q501.29922 243.54375 502.51797 243.54375Q503.37735 243.54375 503.9711 243.2Q504.58047 242.84062 505.01797 242.2625L506.01797 243.04375Q504.81485 244.87187 502.42422 244.87187ZM502.2211 236.35625Q501.23672 236.35625 500.56485 237.075Q499.9086 237.77812 499.75235 239.075L504.51797 239.075L504.51797 238.95Q504.43985 237.71562 503.8461 237.04375Q503.25235 236.35625 502.2211 236.35625Z" fill-rule="nonzero"/><path fill="#000000" d="M558.7547 238.99687Q556.5828 238.37187 555.59845 237.46562Q554.6141 236.55937 554.6141 235.21562Q554.6141 233.7 555.8172 232.71562Q557.03595 231.73125 558.9578 231.73125Q560.28595 231.73125 561.3172 232.24687Q562.34845 232.74687 562.91095 233.65312Q563.47345 234.54375 563.47345 235.60625L561.78595 235.60625Q561.78595 234.45 561.03595 233.79375Q560.3016 233.12187 558.9578 233.12187Q557.7078 233.12187 557.0047 233.66875Q556.3172 234.21562 556.3172 235.18437Q556.3172 235.96562 556.97345 236.5125Q557.6453 237.05937 559.2391 237.5125Q560.8328 237.95 561.72345 238.49687Q562.6297 239.02812 563.0672 239.74687Q563.5047 240.46562 563.5047 241.45Q563.5047 242.99687 562.28595 243.93437Q561.0828 244.87187 559.0516 244.87187Q557.7391 244.87187 556.5828 244.37187Q555.4422 243.87187 554.8172 242.99687Q554.2078 242.10625 554.2078 240.99687L555.91095 240.99687Q555.91095 242.15312 556.7547 242.825Q557.6141 243.49687 559.0516 243.49687Q560.3797 243.49687 561.09845 242.95Q561.8172 242.40312 561.8172 241.46562Q561.8172 240.52812 561.1453 240.0125Q560.4891 239.49687 558.7547 238.99687ZM567.9422 232.8875L567.9422 235.18437L569.72345 235.18437L569.72345 236.45L567.9422 236.45L567.9422 242.34062Q567.9422 242.91875 568.1766 243.2Q568.41095 243.48125 568.9891 243.48125Q569.2703 243.48125 569.7547 243.3875L569.7547 244.7Q569.1141 244.87187 568.5203 244.87187Q567.4266 244.87187 566.8641 244.21562Q566.3172 243.55937 566.3172 242.34062L566.3172 236.45L564.5828 236.45L564.5828 235.18437L566.3172 235.18437L566.3172 232.8875L567.9422 232.8875ZM576.3328 236.65312Q575.9578 236.59062 575.53595 236.59062Q573.9266 236.59062 573.3641 237.95L573.3641 244.7L571.7391 244.7L571.7391 235.18437L573.3172 235.18437L573.34845 236.29375Q574.1453 235.0125 575.6141 235.0125Q576.0828 235.0125 576.3328 235.1375L576.3328 236.65312ZM577.3016 239.85625Q577.3016 238.46562 577.84845 237.35625Q578.41095 236.23125 579.3797 235.62187Q580.3641 235.0125 581.6141 235.0125Q583.5672 235.0125 584.7547 236.35625Q585.9578 237.7 585.9578 239.93437L585.9578 240.04375Q585.9578 241.43437 585.4266 242.54375Q584.8953 243.6375 583.91095 244.2625Q582.9266 244.87187 581.6453 244.87187Q579.7078 244.87187 578.5047 243.52812Q577.3016 242.18437 577.3016 239.96562L577.3016 239.85625ZM578.9422 240.04375Q578.9422 241.6375 579.6766 242.59062Q580.41095 243.54375 581.6453 243.54375Q582.8797 243.54375 583.59845 242.575Q584.3328 241.60625 584.3328 239.85625Q584.3328 238.29375 583.5828 237.325Q582.84845 236.35625 581.6141 236.35625Q580.41095 236.35625 579.6766 237.30937Q578.9422 238.2625 578.9422 240.04375ZM589.2703 235.18437L589.3328 236.3875Q590.41095 235.0125 592.1766 235.0125Q595.1922 235.0125 595.2078 238.41875L595.2078 244.7L593.5828 244.7L593.5828 238.40312Q593.5828 237.37187 593.1141 236.8875Q592.66095 236.3875 591.6766 236.3875Q590.8953 236.3875 590.28595 236.80937Q589.6922 237.23125 589.3641 237.91875L589.3641 244.7L587.7391 244.7L587.7391 235.18437L589.2703 235.18437ZM597.34845 239.87187Q597.34845 237.6375 598.3797 236.325Q599.41095 235.0125 601.09845 235.0125Q602.84845 235.0125 603.8172 236.24687L603.8953 235.18437L605.3797 235.18437L605.3797 244.46562Q605.3797 246.325 604.28595 247.3875Q603.1922 248.45 601.34845 248.45Q600.3172 248.45 599.3328 247.99687Q598.34845 247.55937 597.8328 246.79375L598.6766 245.825Q599.72345 247.12187 601.2391 247.12187Q602.4266 247.12187 603.0828 246.45Q603.7547 245.77812 603.7547 244.575L603.7547 243.74687Q602.7703 244.87187 601.0828 244.87187Q599.41095 244.87187 598.3797 243.52812Q597.34845 242.18437 597.34845 239.87187ZM598.9891 240.04375Q598.9891 241.65312 599.6453 242.575Q600.3016 243.49687 601.4891 243.49687Q603.0203 243.49687 603.7547 242.09062L603.7547 237.7625Q603.0047 236.3875 601.5047 236.3875Q600.3172 236.3875 599.6453 237.325Q598.9891 238.24687 598.9891 240.04375ZM609.5047 244.7L607.8797 244.7L607.8797 231.2L609.5047 231.2L609.5047 244.7ZM614.84845 242.325L617.0672 235.18437L618.8016 235.18437L614.97345 246.16875Q614.09845 248.54375 612.16095 248.54375L611.84845 248.5125L611.2391 248.40312L611.2391 247.075L611.6766 247.12187Q612.5047 247.12187 612.9578 246.77812Q613.4266 246.45 613.72345 245.55937L614.09845 244.59062L610.6922 235.18437L612.47345 235.18437L614.84845 242.325Z" fill-rule="nonzero"/><path fill="#000000" d="M571.0516 263.35626L565.6922 263.35626L564.4891 266.7L562.7547 266.7L567.6453 253.90314L569.1141 253.90314L574.0047 266.7L572.28595 266.7L571.0516 263.35626ZM566.2078 261.96564L570.5516 261.96564L568.3797 255.98126L566.2078 261.96564ZM575.34845 261.8719Q575.34845 259.6375 576.3797 258.325Q577.41095 257.0125 579.09845 257.0125Q580.84845 257.0125 581.8172 258.2469L581.8953 257.1844L583.3797 257.1844L583.3797 266.46564Q583.3797 268.325 582.28595 269.3875Q581.1922 270.45 579.34845 270.45Q578.3172 270.45 577.3328 269.9969Q576.34845 269.5594 575.8328 268.79376L576.6766 267.825Q577.72345 269.1219 579.2391 269.1219Q580.4266 269.1219 581.0828 268.45Q581.7547 267.77814 581.7547 266.575L581.7547 265.7469Q580.7703 266.8719 579.0828 266.8719Q577.41095 266.8719 576.3797 265.52814Q575.34845 264.1844 575.34845 261.8719ZM576.9891 262.04376Q576.9891 263.65314 577.6453 264.575Q578.3016 265.4969 579.4891 265.4969Q581.0203 265.4969 581.7547 264.09064L581.7547 259.7625Q581.0047 258.3875 579.5047 258.3875Q578.3172 258.3875 577.6453 259.325Q576.9891 260.2469 576.9891 262.04376ZM590.3328 258.65314Q589.9578 258.59064 589.53595 258.59064Q587.9266 258.59064 587.3641 259.95L587.3641 266.7L585.7391 266.7L585.7391 257.1844L587.3172 257.1844L587.34845 258.29376Q588.1453 257.0125 589.6141 257.0125Q590.0828 257.0125 590.3328 257.1375L590.3328 258.65314ZM595.6766 266.8719Q593.7547 266.8719 592.53595 265.60626Q591.3172 264.34064 591.3172 262.21564L591.3172 261.90314Q591.3172 260.4969 591.8641 259.3875Q592.41095 258.27814 593.3797 257.65314Q594.34845 257.0125 595.47345 257.0125Q597.3328 257.0125 598.3641 258.23126Q599.3953 259.45 599.3953 261.73126L599.3953 262.40314L592.9422 262.40314Q592.9891 263.8094 593.7703 264.6844Q594.5516 265.54376 595.7703 265.54376Q596.6297 265.54376 597.22345 265.2Q597.8328 264.84064 598.2703 264.2625L599.2703 265.04376Q598.0672 266.8719 595.6766 266.8719ZM595.47345 258.35626Q594.4891 258.35626 593.8172 259.075Q593.16095 259.77814 593.0047 261.075L597.7703 261.075L597.7703 260.95Q597.6922 259.71564 597.09845 259.04376Q596.5047 258.35626 595.47345 258.35626ZM605.6766 266.8719Q603.7547 266.8719 602.53595 265.60626Q601.3172 264.34064 601.3172 262.21564L601.3172 261.90314Q601.3172 260.4969 601.8641 259.3875Q602.41095 258.27814 603.3797 257.65314Q604.34845 257.0125 605.47345 257.0125Q607.3328 257.0125 608.3641 258.23126Q609.3953 259.45 609.3953 261.73126L609.3953 262.40314L602.9422 262.40314Q602.9891 263.8094 603.7703 264.6844Q604.5516 265.54376 605.7703 265.54376Q606.6297 265.54376 607.22345 265.2Q607.8328 264.84064 608.2703 264.2625L609.2703 265.04376Q608.0672 266.8719 605.6766 266.8719ZM605.47345 258.35626Q604.4891 258.35626 603.8172 259.075Q603.16095 259.77814 603.0047 261.075L607.7703 261.075L607.7703 260.95Q607.6922 259.71564 607.09845 259.04376Q606.5047 258.35626 605.47345 258.35626Z" fill-rule="nonzero"/></svg>