<svg version="1.1" viewBox="0.0 0.0 713.0 244.0" fill="none" stroke="none" stroke-linecap="square" stroke-miterlimit="10" width="713" height="244" xmlns:xlink="http://www.w3.org/1999/xlink" xmlns="http://www.w3.org/2000/svg"><path fill="#ffffff" d="M0 0L713.0 0L713.0 244.0L0 244.0L0 0Z" fill-rule="nonzero"/><path stroke="#333333" stroke-width="1.0" stroke-linecap="butt" d="M120.5 173.5L700.5 173.5" fill-rule="nonzero"/><path stroke="#cccccc" stroke-width="1.0" stroke-linecap="butt" d="M120.5 136.5L700.5 136.5" fill-rule="nonzero"/><path stroke="#cccccc" stroke-width="1.0" stroke-linecap="butt" d="M120.5 99.5L700.5 99.5" fill-rule="nonzero"/><path stroke="#cccccc" stroke-width="1.0" stroke-linecap="butt" d="M120.5 61.5L700.5 61.5" fill-rule="nonzero"/><path stroke="#cccccc" stroke-width="1.0" stroke-linecap="butt" d="M120.5 24.5L700.5 24.5" fill-rule="nonzero"/><clipPath id="id_0"><path d="M120.2 24.2L700.8 24.2L700.8 173.8L120.2 173.8L120.2 24.2Z" clip-rule="nonzero"/></clipPath><path stroke="#000000" stroke-width="2.0" stroke-linecap="butt" stroke-opacity="0.0" clip-path="url(#id_0)" d="M664.0 174.0L593.0 174.0L593.0 51.0C593.0 49.89543 593.89545 49.0 595.0 49.0L662.0 49.0C663.10455 49.0 664.0 49.89543 664.0 51.0Z" fill-rule="nonzero"/><path fill="#f05f40" clip-path="url(#id_0)" d="M664.0 174.0L593.0 174.0L593.0 51.0C593.0 49.89543 593.89545 49.0 595.0 49.0L662.0 49.0C663.10455 49.0 664.0 49.89543 664.0 51.0Z" fill-rule="nonzero"/><path stroke="#000000" stroke-width="2.0" stroke-linecap="butt" stroke-opacity="0.0" clip-path="url(#id_0)" d="M555.0 174.0L484.0 174.0L484.0 128.0C484.0 126.89543 484.89542 126.0 486.0 126.0L553.0 126.0C554.10455 126.0 555.0 126.89543 555.0 128.0Z" fill-rule="nonzero"/><path fill="#f05f40" clip-path="url(#id_0)" d="M555.0 174.0L484.0 174.0L484.0 128.0C484.0 126.89543 484.89542 126.0 486.0 126.0L553.0 126.0C554.10455 126.0 555.0 126.89543 555.0 128.0Z" fill-rule="nonzero"/><path stroke="#000000" stroke-width="2.0" stroke-linecap="butt" stroke-opacity="0.0" clip-path="url(#id_0)" d="M447.0 174.0L376.0 174.0L376.0 171.0C376.0 169.89543 376.89542 169.0 378.0 169.0L445.0 169.0C446.10458 169.0 447.0 169.89543 447.0 171.0Z" fill-rule="nonzero"/><path fill="#f05f40" clip-path="url(#id_0)" d="M447.0 174.0L376.0 174.0L376.0 171.0C376.0 169.89543 376.89542 169.0 378.0 169.0L445.0 169.0C446.10458 169.0 447.0 169.89543 447.0 171.0Z" fill-rule="nonzero"/><path stroke="#000000" stroke-width="2.0" stroke-linecap="butt" stroke-opacity="0.0" clip-path="url(#id_0)" d="M338.0 174.0L267.0 174.0L267.0 173.5C267.0 173.22386 267.22385 173.0 267.5 173.0L337.5 173.0C337.77615 173.0 338.0 173.22386 338.0 173.5Z" fill-rule="nonzero"/><path fill="#f05f40" clip-path="url(#id_0)" d="M338.0 174.0L267.0 174.0L267.0 173.5C267.0 173.22386 267.22385 173.0 267.5 173.0L337.5 173.0C337.77615 173.0 338.0 173.22386 338.0 173.5Z" fill-rule="nonzero"/><path stroke="#000000" stroke-width="2.0" stroke-linecap="butt" stroke-opacity="0.0" clip-path="url(#id_0)" d="M229.0 174.0L158.0 174.0L158.0 173.5C158.0 173.22386 158.22386 173.0 158.5 173.0L228.5 173.0C228.77614 173.0 229.0 173.22386 229.0 173.5Z" fill-rule="nonzero"/><path fill="#f05f40" clip-path="url(#id_0)" d="M229.0 174.0L158.0 174.0L158.0 173.5C158.0 173.22386 158.22386 173.0 158.5 173.0L228.5 173.0C228.77614 173.0 229.0 173.22386 229.0 173.5Z" fill-rule="nonzero"/><path stroke="#f05f40" stroke-width="3.0" stroke-linejoin="round" stroke-linecap="round" d="M618.96875 57.15275L618.96875 58.059L618.7656 58.059Q617.5 58.09025 616.75 58.824623Q616.0 59.543373 615.875 60.855873Q616.5625 60.09025 617.71875 60.09025Q618.8281 60.09025 619.5 60.8715Q620.1719 61.65275 620.1719 62.90275Q620.1719 64.21525 619.4531 65.01212Q618.7344 65.809 617.5156 65.809Q616.2969 65.809 615.53125 64.8715Q614.78125 63.918373 614.78125 62.434L614.78125 62.02775Q614.78125 59.668373 615.78125 58.418373Q616.78125 57.168373 618.7656 57.15275L618.96875 57.15275ZM617.5469 60.9965Q616.9844 60.9965 616.5156 61.324623Q616.0469 61.65275 615.8594 62.168373L615.8594 62.559Q615.8594 63.6215 616.3281 64.26212Q616.8125 64.90275 617.5156 64.90275Q618.25 64.90275 618.6719 64.3715Q619.09375 63.824623 619.09375 62.949623Q619.09375 62.074623 618.6719 61.543373Q618.25 60.9965 617.5469 60.9965ZM625.96875 57.15275L625.96875 58.059L625.7656 58.059Q624.5 58.09025 623.75 58.824623Q623.0 59.543373 622.875 60.855873Q623.5625 60.09025 624.71875 60.09025Q625.8281 60.09025 626.5 60.8715Q627.1719 61.65275 627.1719 62.90275Q627.1719 64.21525 626.4531 65.01212Q625.7344 65.809 624.5156 65.809Q623.2969 65.809 622.53125 64.8715Q621.78125 63.918373 621.78125 62.434L621.78125 62.02775Q621.78125 59.668373 622.78125 58.418373Q623.78125 57.168373 625.7656 57.15275L625.96875 57.15275ZM624.5469 60.9965Q623.9844 60.9965 623.5156 61.324623Q623.0469 61.65275 622.8594 62.168373L622.8594 62.559Q622.8594 63.6215 623.3281 64.26212Q623.8125 64.90275 624.5156 64.90275Q625.25 64.90275 625.6719 64.3715Q626.09375 63.824623 626.09375 62.949623Q626.09375 62.074623 625.6719 61.543373Q625.25 60.9965 624.5469 60.9965ZM633.8906 59.3715Q633.8906 60.012123 633.5469 60.512123Q633.2031 61.012123 632.6406 61.293373Q633.2969 61.574623 633.6875 62.137123Q634.0781 62.684 634.0781 63.387123Q634.0781 64.48087 633.3281 65.15275Q632.59375 65.809 631.375 65.809Q630.1406 65.809 629.3906 65.15275Q628.65625 64.48087 628.65625 63.387123Q628.65625 62.684 629.03125 62.137123Q629.40625 61.574623 630.0781 61.293373Q629.5156 61.012123 629.1875 60.512123Q628.8594 60.012123 628.8594 59.3715Q628.8594 58.293373 629.5469 57.668373Q630.2344 57.02775 631.375 57.02775Q632.5 57.02775 633.1875 57.668373Q633.8906 58.293373 633.8906 59.3715ZM633.0 63.355873Q633.0 62.637123 632.5469 62.199623Q632.09375 61.7465 631.3594 61.7465Q630.625 61.7465 630.1719 62.199623Q629.7344 62.637123 629.7344 63.3715Q629.7344 64.09025 630.1719 64.51212Q630.6094 64.91837 631.375 64.91837Q632.125 64.91837 632.5625 64.4965Q633.0 64.07462 633.0 63.355873ZM631.375 57.918373Q630.7344 57.918373 630.3281 58.324623Q629.9375 58.71525 629.9375 59.40275Q629.9375 60.043373 630.3281 60.449623Q630.71875 60.855873 631.3594 60.855873Q632.0156 60.855873 632.40625 60.449623Q632.7969 60.043373 632.7969 59.40275Q632.7969 58.7465 632.3906 58.34025Q631.9844 57.918373 631.375 57.918373ZM641.0625 62.043373Q641.0625 63.949623 640.40625 64.88712Q639.7656 65.809 638.375 65.809Q637.0156 65.809 636.3594 64.90275Q635.7031 63.9965 635.6719 62.184L635.6719 60.7465Q635.6719 58.855873 636.3125 57.949623Q636.96875 57.02775 638.3594 57.02775Q639.7344 57.02775 640.3906 57.918373Q641.0469 58.793373 641.0625 60.637123L641.0625 62.043373ZM639.96875 60.559Q639.96875 59.184 639.5781 58.559Q639.2031 57.918373 638.3594 57.918373Q637.53125 57.918373 637.1406 58.559Q636.7656 59.184 636.7656 60.480873L636.7656 62.21525Q636.7656 63.59025 637.15625 64.26212Q637.5625 64.91837 638.375 64.91837Q639.1719 64.91837 639.5625 64.29337Q639.9531 63.668373 639.96875 62.34025L639.96875 60.559Z" fill-rule="nonzero"/><path fill="#000000" d="M618.96875 57.15275L618.96875 58.059L618.7656 58.059Q617.5 58.09025 616.75 58.824623Q616.0 59.543373 615.875 60.855873Q616.5625 60.09025 617.71875 60.09025Q618.8281 60.09025 619.5 60.8715Q620.1719 61.65275 620.1719 62.90275Q620.1719 64.21525 619.4531 65.01212Q618.7344 65.809 617.5156 65.809Q616.2969 65.809 615.53125 64.8715Q614.78125 63.918373 614.78125 62.434L614.78125 62.02775Q614.78125 59.668373 615.78125 58.418373Q616.78125 57.168373 618.7656 57.15275L618.96875 57.15275ZM617.5469 60.9965Q616.9844 60.9965 616.5156 61.324623Q616.0469 61.65275 615.8594 62.168373L615.8594 62.559Q615.8594 63.6215 616.3281 64.26212Q616.8125 64.90275 617.5156 64.90275Q618.25 64.90275 618.6719 64.3715Q619.09375 63.824623 619.09375 62.949623Q619.09375 62.074623 618.6719 61.543373Q618.25 60.9965 617.5469 60.9965ZM625.96875 57.15275L625.96875 58.059L625.7656 58.059Q624.5 58.09025 623.75 58.824623Q623.0 59.543373 622.875 60.855873Q623.5625 60.09025 624.71875 60.09025Q625.8281 60.09025 626.5 60.8715Q627.1719 61.65275 627.1719 62.90275Q627.1719 64.21525 626.4531 65.01212Q625.7344 65.809 624.5156 65.809Q623.2969 65.809 622.53125 64.8715Q621.78125 63.918373 621.78125 62.434L621.78125 62.02775Q621.78125 59.668373 622.78125 58.418373Q623.78125 57.168373 625.7656 57.15275L625.96875 57.15275ZM624.5469 60.9965Q623.9844 60.9965 623.5156 61.324623Q623.0469 61.65275 622.8594 62.168373L622.8594 62.559Q622.8594 63.6215 623.3281 64.26212Q623.8125 64.90275 624.5156 64.90275Q625.25 64.90275 625.6719 64.3715Q626.09375 63.824623 626.09375 62.949623Q626.09375 62.074623 625.6719 61.543373Q625.25 60.9965 624.5469 60.9965ZM633.8906 59.3715Q633.8906 60.012123 633.5469 60.512123Q633.2031 61.012123 632.6406 61.293373Q633.2969 61.574623 633.6875 62.137123Q634.0781 62.684 634.0781 63.387123Q634.0781 64.48087 633.3281 65.15275Q632.59375 65.809 631.375 65.809Q630.1406 65.809 629.3906 65.15275Q628.65625 64.48087 628.65625 63.387123Q628.65625 62.684 629.03125 62.137123Q629.40625 61.574623 630.0781 61.293373Q629.5156 61.012123 629.1875 60.512123Q628.8594 60.012123 628.8594 59.3715Q628.8594 58.293373 629.5469 57.668373Q630.2344 57.02775 631.375 57.02775Q632.5 57.02775 633.1875 57.668373Q633.8906 58.293373 633.8906 59.3715ZM633.0 63.355873Q633.0 62.637123 632.5469 62.199623Q632.09375 61.7465 631.3594 61.7465Q630.625 61.7465 630.1719 62.199623Q629.7344 62.637123 629.7344 63.3715Q629.7344 64.09025 630.1719 64.51212Q630.6094 64.91837 631.375 64.91837Q632.125 64.91837 632.5625 64.4965Q633.0 64.07462 633.0 63.355873ZM631.375 57.918373Q630.7344 57.918373 630.3281 58.324623Q629.9375 58.71525 629.9375 59.40275Q629.9375 60.043373 630.3281 60.449623Q630.71875 60.855873 631.3594 60.855873Q632.0156 60.855873 632.40625 60.449623Q632.7969 60.043373 632.7969 59.40275Q632.7969 58.7465 632.3906 58.34025Q631.9844 57.918373 631.375 57.918373ZM641.0625 62.043373Q641.0625 63.949623 640.40625 64.88712Q639.7656 65.809 638.375 65.809Q637.0156 65.809 636.3594 64.90275Q635.7031 63.9965 635.6719 62.184L635.6719 60.7465Q635.6719 58.855873 636.3125 57.949623Q636.96875 57.02775 638.3594 57.02775Q639.7344 57.02775 640.3906 57.918373Q641.0469 58.793373 641.0625 60.637123L641.0625 62.043373ZM639.96875 60.559Q639.96875 59.184 639.5781 58.559Q639.2031 57.918373 638.3594 57.918373Q637.53125 57.918373 637.1406 58.559Q636.7656 59.184 636.7656 60.480873L636.7656 62.21525Q636.7656 63.59025 637.15625 64.26212Q637.5625 64.91837 638.375 64.91837Q639.1719 64.91837 639.5625 64.29337Q639.9531 63.668373 639.96875 62.34025L639.96875 60.559Z" fill-rule="nonzero"/><path stroke="#f05f40" stroke-width="3.0" stroke-linejoin="round" stroke-linecap="round" d="M511.29688 142.3166L505.70312 142.3166L505.70312 141.53535L508.65625 138.2541Q509.3125 137.5041 509.5625 137.05098Q509.8125 136.58223 509.8125 136.08223Q509.8125 135.41035 509.40625 134.98848Q509.01562 134.55098 508.32812 134.55098Q507.53125 134.55098 507.07812 135.01973Q506.625 135.47285 506.625 136.30098L505.54688 136.30098Q505.54688 135.11348 506.29688 134.39473Q507.0625 133.66035 508.32812 133.66035Q509.53125 133.66035 510.21875 134.28535Q510.90625 134.91035 510.90625 135.95723Q510.90625 137.20723 509.29688 138.95723L507.01562 141.42598L511.29688 141.42598L511.29688 142.3166ZM513.2031 138.03535L513.6406 133.78535L518.0156 133.78535L518.0156 134.78535L514.5625 134.78535L514.2969 137.11348Q514.9375 136.73848 515.7344 136.73848Q516.8906 136.73848 517.5781 137.51973Q518.2656 138.28535 518.2656 139.59785Q518.2656 140.91035 517.5469 141.67598Q516.84375 142.4416 515.5625 142.4416Q514.4375 142.4416 513.71875 141.8166Q513.0 141.17598 512.90625 140.0666L513.9219 140.0666Q514.03125 140.80098 514.4531 141.17598Q514.875 141.55098 515.5625 141.55098Q516.3125 141.55098 516.75 141.03535Q517.1875 140.51973 517.1875 139.61348Q517.1875 138.7541 516.71875 138.23848Q516.25 137.72285 515.46875 137.72285Q514.7656 137.72285 514.3594 138.01973L514.0781 138.2541L513.2031 138.03535ZM524.8906 136.0041Q524.8906 136.64473 524.5469 137.14473Q524.2031 137.64473 523.6406 137.92598Q524.2969 138.20723 524.6875 138.76973Q525.0781 139.3166 525.0781 140.01973Q525.0781 141.11348 524.3281 141.78535Q523.59375 142.4416 522.375 142.4416Q521.1406 142.4416 520.3906 141.78535Q519.65625 141.11348 519.65625 140.01973Q519.65625 139.3166 520.03125 138.76973Q520.40625 138.20723 521.0781 137.92598Q520.5156 137.64473 520.1875 137.14473Q519.8594 136.64473 519.8594 136.0041Q519.8594 134.92598 520.5469 134.30098Q521.2344 133.66035 522.375 133.66035Q523.5 133.66035 524.1875 134.30098Q524.8906 134.92598 524.8906 136.0041ZM524.0 139.98848Q524.0 139.26973 523.5469 138.83223Q523.09375 138.3791 522.3594 138.3791Q521.625 138.3791 521.1719 138.83223Q520.7344 139.26973 520.7344 140.0041Q520.7344 140.72285 521.1719 141.14473Q521.6094 141.55098 522.375 141.55098Q523.125 141.55098 523.5625 141.1291Q524.0 140.70723 524.0 139.98848ZM522.375 134.55098Q521.7344 134.55098 521.3281 134.95723Q520.9375 135.34785 520.9375 136.03535Q520.9375 136.67598 521.3281 137.08223Q521.71875 137.48848 522.3594 137.48848Q523.0156 137.48848 523.40625 137.08223Q523.7969 136.67598 523.7969 136.03535Q523.7969 135.3791 523.3906 134.97285Q522.9844 134.55098 522.375 134.55098ZM532.2969 142.3166L526.7031 142.3166L526.7031 141.53535L529.65625 138.2541Q530.3125 137.5041 530.5625 137.05098Q530.8125 136.58223 530.8125 136.08223Q530.8125 135.41035 530.40625 134.98848Q530.0156 134.55098 529.3281 134.55098Q528.53125 134.55098 528.0781 135.01973Q527.625 135.47285 527.625 136.30098L526.5469 136.30098Q526.5469 135.11348 527.2969 134.39473Q528.0625 133.66035 529.3281 133.66035Q530.53125 133.66035 531.21875 134.28535Q531.90625 134.91035 531.90625 135.95723Q531.90625 137.20723 530.2969 138.95723L528.0156 141.42598L532.2969 141.42598L532.2969 142.3166Z" fill-rule="nonzero"/><path fill="#000000" d="M511.29688 142.3166L505.70312 142.3166L505.70312 141.53535L508.65625 138.2541Q509.3125 137.5041 509.5625 137.05098Q509.8125 136.58223 509.8125 136.08223Q509.8125 135.41035 509.40625 134.98848Q509.01562 134.55098 508.32812 134.55098Q507.53125 134.55098 507.07812 135.01973Q506.625 135.47285 506.625 136.30098L505.54688 136.30098Q505.54688 135.11348 506.29688 134.39473Q507.0625 133.66035 508.32812 133.66035Q509.53125 133.66035 510.21875 134.28535Q510.90625 134.91035 510.90625 135.95723Q510.90625 137.20723 509.29688 138.95723L507.01562 141.42598L511.29688 141.42598L511.29688 142.3166ZM513.2031 138.03535L513.6406 133.78535L518.0156 133.78535L518.0156 134.78535L514.5625 134.78535L514.2969 137.11348Q514.9375 136.73848 515.7344 136.73848Q516.8906 136.73848 517.5781 137.51973Q518.2656 138.28535 518.2656 139.59785Q518.2656 140.91035 517.5469 141.67598Q516.84375 142.4416 515.5625 142.4416Q514.4375 142.4416 513.71875 141.8166Q513.0 141.17598 512.90625 140.0666L513.9219 140.0666Q514.03125 140.80098 514.4531 141.17598Q514.875 141.55098 515.5625 141.55098Q516.3125 141.55098 516.75 141.03535Q517.1875 140.51973 517.1875 139.61348Q517.1875 138.7541 516.71875 138.23848Q516.25 137.72285 515.46875 137.72285Q514.7656 137.72285 514.3594 138.01973L514.0781 138.2541L513.2031 138.03535ZM524.8906 136.0041Q524.8906 136.64473 524.5469 137.14473Q524.2031 137.64473 523.6406 137.92598Q524.2969 138.20723 524.6875 138.76973Q525.0781 139.3166 525.0781 140.01973Q525.0781 141.11348 524.3281 141.78535Q523.59375 142.4416 522.375 142.4416Q521.1406 142.4416 520.3906 141.78535Q519.65625 141.11348 519.65625 140.01973Q519.65625 139.3166 520.03125 138.76973Q520.40625 138.20723 521.0781 137.92598Q520.5156 137.64473 520.1875 137.14473Q519.8594 136.64473 519.8594 136.0041Q519.8594 134.92598 520.5469 134.30098Q521.2344 133.66035 522.375 133.66035Q523.5 133.66035 524.1875 134.30098Q524.8906 134.92598 524.8906 136.0041ZM524.0 139.98848Q524.0 139.26973 523.5469 138.83223Q523.09375 138.3791 522.3594 138.3791Q521.625 138.3791 521.1719 138.83223Q520.7344 139.26973 520.7344 140.0041Q520.7344 140.72285 521.1719 141.14473Q521.6094 141.55098 522.375 141.55098Q523.125 141.55098 523.5625 141.1291Q524.0 140.70723 524.0 139.98848ZM522.375 134.55098Q521.7344 134.55098 521.3281 134.95723Q520.9375 135.34785 520.9375 136.03535Q520.9375 136.67598 521.3281 137.08223Q521.71875 137.48848 522.3594 137.48848Q523.0156 137.48848 523.40625 137.08223Q523.7969 136.67598 523.7969 136.03535Q523.7969 135.3791 523.3906 134.97285Q522.9844 134.55098 522.375 134.55098ZM532.2969 142.3166L526.7031 142.3166L526.7031 141.53535L529.65625 138.2541Q530.3125 137.5041 530.5625 137.05098Q530.8125 136.58223 530.8125 136.08223Q530.8125 135.41035 530.40625 134.98848Q530.0156 134.55098 529.3281 134.55098Q528.53125 134.55098 528.0781 135.01973Q527.625 135.47285 527.625 136.30098L526.5469 136.30098Q526.5469 135.11348 527.2969 134.39473Q528.0625 133.66035 529.3281 133.66035Q530.53125 133.66035 531.21875 134.28535Q531.90625 134.91035 531.90625 135.95723Q531.90625 137.20723 530.2969 138.95723L528.0156 141.42598L532.2969 141.42598L532.2969 142.3166Z" fill-rule="nonzero"/><path stroke="#ffffff" stroke-width="3.0" stroke-linejoin="round" stroke-linecap="round" d="M406.79688 153.7697L401.20312 153.7697L401.20312 152.98845L404.15625 149.7072Q404.8125 148.9572 405.0625 148.50407Q405.3125 148.03532 405.3125 147.53532Q405.3125 146.86345 404.90625 146.44157Q404.51562 146.00407 403.82812 146.00407Q403.03125 146.00407 402.57812 146.47282Q402.125 146.92595 402.125 147.75407L401.04688 147.75407Q401.04688 146.56657 401.79688 145.84782Q402.5625 145.11345 403.82812 145.11345Q405.03125 145.11345 405.71875 145.73845Q406.40625 146.36345 406.40625 147.41032Q406.40625 148.66032 404.79688 150.41032L402.51562 152.87907L406.79688 152.87907L406.79688 153.7697ZM412.46875 145.23845L412.46875 146.1447L412.26562 146.1447Q411.0 146.17595 410.25 146.91032Q409.5 147.62907 409.375 148.94157Q410.0625 148.17595 411.21875 148.17595Q412.32812 148.17595 413.0 148.9572Q413.67188 149.73845 413.67188 150.98845Q413.67188 152.30095 412.95312 153.09782Q412.23438 153.8947 411.01562 153.8947Q409.79688 153.8947 409.03125 152.9572Q408.28125 152.00407 408.28125 150.5197L408.28125 150.11345Q408.28125 147.75407 409.28125 146.50407Q410.28125 145.25407 412.26562 145.23845L412.46875 145.23845ZM411.04688 149.0822Q410.48438 149.0822 410.01562 149.41032Q409.54688 149.73845 409.35938 150.25407L409.35938 150.6447Q409.35938 151.7072 409.82812 152.34782Q410.3125 152.98845 411.01562 152.98845Q411.75 152.98845 412.17188 152.4572Q412.59375 151.91032 412.59375 151.03532Q412.59375 150.16032 412.17188 149.62907Q411.75 149.0822 411.04688 149.0822ZM419.35938 150.0197Q419.03125 150.42595 418.54688 150.67595Q418.07812 150.91032 417.51562 150.91032Q416.78125 150.91032 416.23438 150.55095Q415.6875 150.19157 415.39062 149.53532Q415.09375 148.86345 415.09375 148.06657Q415.09375 147.22282 415.40625 146.53532Q415.73438 145.84782 416.32812 145.48845Q416.9375 145.11345 417.73438 145.11345Q419.0 145.11345 419.71875 146.06657Q420.45312 147.0197 420.45312 148.6447L420.45312 148.9572Q420.45312 151.4572 419.46875 152.59782Q418.48438 153.73845 416.5 153.7697L416.28125 153.7697L416.28125 152.86345L416.51562 152.86345Q417.85938 152.8322 418.57812 152.16032Q419.29688 151.48845 419.35938 150.0197ZM417.6875 150.0197Q418.23438 150.0197 418.6875 149.69157Q419.15625 149.34782 419.375 148.86345L419.375 148.42595Q419.375 147.36345 418.90625 146.69157Q418.4375 146.0197 417.73438 146.0197Q417.01562 146.0197 416.57812 146.56657Q416.15625 147.11345 416.15625 148.0197Q416.15625 148.8947 416.5625 149.4572Q416.98438 150.0197 417.6875 150.0197Z" fill-rule="nonzero"/><path fill="#f05f40" d="M406.79688 153.7697L401.20312 153.7697L401.20312 152.98845L404.15625 149.7072Q404.8125 148.9572 405.0625 148.50407Q405.3125 148.03532 405.3125 147.53532Q405.3125 146.86345 404.90625 146.44157Q404.51562 146.00407 403.82812 146.00407Q403.03125 146.00407 402.57812 146.47282Q402.125 146.92595 402.125 147.75407L401.04688 147.75407Q401.04688 146.56657 401.79688 145.84782Q402.5625 145.11345 403.82812 145.11345Q405.03125 145.11345 405.71875 145.73845Q406.40625 146.36345 406.40625 147.41032Q406.40625 148.66032 404.79688 150.41032L402.51562 152.87907L406.79688 152.87907L406.79688 153.7697ZM412.46875 145.23845L412.46875 146.1447L412.26562 146.1447Q411.0 146.17595 410.25 146.91032Q409.5 147.62907 409.375 148.94157Q410.0625 148.17595 411.21875 148.17595Q412.32812 148.17595 413.0 148.9572Q413.67188 149.73845 413.67188 150.98845Q413.67188 152.30095 412.95312 153.09782Q412.23438 153.8947 411.01562 153.8947Q409.79688 153.8947 409.03125 152.9572Q408.28125 152.00407 408.28125 150.5197L408.28125 150.11345Q408.28125 147.75407 409.28125 146.50407Q410.28125 145.25407 412.26562 145.23845L412.46875 145.23845ZM411.04688 149.0822Q410.48438 149.0822 410.01562 149.41032Q409.54688 149.73845 409.35938 150.25407L409.35938 150.6447Q409.35938 151.7072 409.82812 152.34782Q410.3125 152.98845 411.01562 152.98845Q411.75 152.98845 412.17188 152.4572Q412.59375 151.91032 412.59375 151.03532Q412.59375 150.16032 412.17188 149.62907Q411.75 149.0822 411.04688 149.0822ZM419.35938 150.0197Q419.03125 150.42595 418.54688 150.67595Q418.07812 150.91032 417.51562 150.91032Q416.78125 150.91032 416.23438 150.55095Q415.6875 150.19157 415.39062 149.53532Q415.09375 148.86345 415.09375 148.06657Q415.09375 147.22282 415.40625 146.53532Q415.73438 145.84782 416.32812 145.48845Q416.9375 145.11345 417.73438 145.11345Q419.0 145.11345 419.71875 146.06657Q420.45312 147.0197 420.45312 148.6447L420.45312 148.9572Q420.45312 151.4572 419.46875 152.59782Q418.48438 153.73845 416.5 153.7697L416.28125 153.7697L416.28125 152.86345L416.51562 152.86345Q417.85938 152.8322 418.57812 152.16032Q419.29688 151.48845 419.35938 150.0197ZM417.6875 150.0197Q418.23438 150.0197 418.6875 149.69157Q419.15625 149.34782 419.375 148.86345L419.375 148.42595Q419.375 147.36345 418.90625 146.69157Q418.4375 146.0197 417.73438 146.0197Q417.01562 146.0197 416.57812 146.56657Q416.15625 147.11345 416.15625 148.0197Q416.15625 148.8947 416.5625 149.4572Q416.98438 150.0197 417.6875 150.0197Z" fill-rule="nonzero"/><path stroke="#ffffff" stroke-width="3.0" stroke-linejoin="round" stroke-linecap="round" d="M297.28125 153.32993L298.09375 153.32993Q298.875 153.3143 299.3125 152.92368Q299.75 152.53305 299.75 151.86118Q299.75 150.36118 298.25 150.36118Q297.54688 150.36118 297.125 150.76743Q296.71875 151.17368 296.71875 151.82993L295.625 151.82993Q295.625 150.8143 296.35938 150.14243Q297.10938 149.47055 298.25 149.47055Q299.45312 149.47055 300.14062 150.11118Q300.82812 150.7518 300.82812 151.89243Q300.82812 152.45493 300.46875 152.97055Q300.10938 153.48618 299.48438 153.7518Q300.1875 153.97055 300.5625 154.48618Q300.95312 155.0018 300.95312 155.7518Q300.95312 156.89243 300.20312 157.57993Q299.45312 158.2518 298.25 158.2518Q297.0625 158.2518 296.29688 157.59555Q295.54688 156.9393 295.54688 155.8768L296.64062 155.8768Q296.64062 156.54868 297.07812 156.95493Q297.51562 157.36118 298.26562 157.36118Q299.04688 157.36118 299.45312 156.95493Q299.875 156.53305 299.875 155.76743Q299.875 155.03305 299.42188 154.64243Q298.96875 154.23618 298.09375 154.22055L297.28125 154.22055L297.28125 153.32993ZM306.96875 149.59555L306.96875 150.5018L306.76562 150.5018Q305.5 150.53305 304.75 151.26743Q304.0 151.98618 303.875 153.29868Q304.5625 152.53305 305.71875 152.53305Q306.82812 152.53305 307.5 153.3143Q308.17188 154.09555 308.17188 155.34555Q308.17188 156.65805 307.45312 157.45493Q306.73438 158.2518 305.51562 158.2518Q304.29688 158.2518 303.53125 157.3143Q302.78125 156.36118 302.78125 154.8768L302.78125 154.47055Q302.78125 152.11118 303.78125 150.86118Q304.78125 149.61118 306.76562 149.59555L306.96875 149.59555ZM305.54688 153.4393Q304.98438 153.4393 304.51562 153.76743Q304.04688 154.09555 303.85938 154.61118L303.85938 155.0018Q303.85938 156.0643 304.32812 156.70493Q304.8125 157.34555 305.51562 157.34555Q306.25 157.34555 306.67188 156.8143Q307.09375 156.26743 307.09375 155.39243Q307.09375 154.51743 306.67188 153.98618Q306.25 153.4393 305.54688 153.4393Z" fill-rule="nonzero"/><path fill="#f05f40" d="M297.28125 153.32993L298.09375 153.32993Q298.875 153.3143 299.3125 152.92368Q299.75 152.53305 299.75 151.86118Q299.75 150.36118 298.25 150.36118Q297.54688 150.36118 297.125 150.76743Q296.71875 151.17368 296.71875 151.82993L295.625 151.82993Q295.625 150.8143 296.35938 150.14243Q297.10938 149.47055 298.25 149.47055Q299.45312 149.47055 300.14062 150.11118Q300.82812 150.7518 300.82812 151.89243Q300.82812 152.45493 300.46875 152.97055Q300.10938 153.48618 299.48438 153.7518Q300.1875 153.97055 300.5625 154.48618Q300.95312 155.0018 300.95312 155.7518Q300.95312 156.89243 300.20312 157.57993Q299.45312 158.2518 298.25 158.2518Q297.0625 158.2518 296.29688 157.59555Q295.54688 156.9393 295.54688 155.8768L296.64062 155.8768Q296.64062 156.54868 297.07812 156.95493Q297.51562 157.36118 298.26562 157.36118Q299.04688 157.36118 299.45312 156.95493Q299.875 156.53305 299.875 155.76743Q299.875 155.03305 299.42188 154.64243Q298.96875 154.23618 298.09375 154.22055L297.28125 154.22055L297.28125 153.32993ZM306.96875 149.59555L306.96875 150.5018L306.76562 150.5018Q305.5 150.53305 304.75 151.26743Q304.0 151.98618 303.875 153.29868Q304.5625 152.53305 305.71875 152.53305Q306.82812 152.53305 307.5 153.3143Q308.17188 154.09555 308.17188 155.34555Q308.17188 156.65805 307.45312 157.45493Q306.73438 158.2518 305.51562 158.2518Q304.29688 158.2518 303.53125 157.3143Q302.78125 156.36118 302.78125 154.8768L302.78125 154.47055Q302.78125 152.11118 303.78125 150.86118Q304.78125 149.61118 306.76562 149.59555L306.96875 149.59555ZM305.54688 153.4393Q304.98438 153.4393 304.51562 153.76743Q304.04688 154.09555 303.85938 154.61118L303.85938 155.0018Q303.85938 156.0643 304.32812 156.70493Q304.8125 157.34555 305.51562 157.34555Q306.25 157.34555 306.67188 156.8143Q307.09375 156.26743 307.09375 155.39243Q307.09375 154.51743 306.67188 153.98618Q306.25 153.4393 305.54688 153.4393Z" fill-rule="nonzero"/><path stroke="#ffffff" stroke-width="3.0" stroke-linejoin="round" stroke-linecap="round" d="M192.29688 158.426L186.70312 158.426L186.70312 157.64474L189.65625 154.3635Q190.3125 153.6135 190.5625 153.16037Q190.8125 152.69162 190.8125 152.19162Q190.8125 151.51974 190.40625 151.09787Q190.01562 150.66037 189.32812 150.66037Q188.53125 150.66037 188.07812 151.12912Q187.625 151.58224 187.625 152.41037L186.54688 152.41037Q186.54688 151.22287 187.29688 150.50412Q188.0625 149.76974 189.32812 149.76974Q190.53125 149.76974 191.21875 150.39474Q191.90625 151.01974 191.90625 152.06662Q191.90625 153.31662 190.29688 155.06662L188.01562 157.53537L192.29688 157.53537L192.29688 158.426ZM199.0625 154.78537Q199.0625 156.69162 198.40625 157.62912Q197.76562 158.551 196.375 158.551Q195.01562 158.551 194.35938 157.64474Q193.70312 156.7385 193.67188 154.926L193.67188 153.4885Q193.67188 151.59787 194.3125 150.69162Q194.96875 149.76974 196.35938 149.76974Q197.73438 149.76974 198.39062 150.66037Q199.04688 151.53537 199.0625 153.37912L199.0625 154.78537ZM197.96875 153.301Q197.96875 151.926 197.57812 151.301Q197.20312 150.66037 196.35938 150.66037Q195.53125 150.66037 195.14062 151.301Q194.76562 151.926 194.76562 153.22287L194.76562 154.95724Q194.76562 156.33224 195.15625 157.00412Q195.5625 157.66037 196.375 157.66037Q197.17188 157.66037 197.5625 157.03537Q197.95312 156.41037 197.96875 155.08224L197.96875 153.301Z" fill-rule="nonzero"/><path fill="#f05f40" d="M192.29688 158.426L186.70312 158.426L186.70312 157.64474L189.65625 154.3635Q190.3125 153.6135 190.5625 153.16037Q190.8125 152.69162 190.8125 152.19162Q190.8125 151.51974 190.40625 151.09787Q190.01562 150.66037 189.32812 150.66037Q188.53125 150.66037 188.07812 151.12912Q187.625 151.58224 187.625 152.41037L186.54688 152.41037Q186.54688 151.22287 187.29688 150.50412Q188.0625 149.76974 189.32812 149.76974Q190.53125 149.76974 191.21875 150.39474Q191.90625 151.01974 191.90625 152.06662Q191.90625 153.31662 190.29688 155.06662L188.01562 157.53537L192.29688 157.53537L192.29688 158.426ZM199.0625 154.78537Q199.0625 156.69162 198.40625 157.62912Q197.76562 158.551 196.375 158.551Q195.01562 158.551 194.35938 157.64474Q193.70312 156.7385 193.67188 154.926L193.67188 153.4885Q193.67188 151.59787 194.3125 150.69162Q194.96875 149.76974 196.35938 149.76974Q197.73438 149.76974 198.39062 150.66037Q199.04688 151.53537 199.0625 153.37912L199.0625 154.78537ZM197.96875 153.301Q197.96875 151.926 197.57812 151.301Q197.20312 150.66037 196.35938 150.66037Q195.53125 150.66037 195.14062 151.301Q194.76562 151.926 194.76562 153.22287L194.76562 154.95724Q194.76562 156.33224 195.15625 157.00412Q195.5625 157.66037 196.375 157.66037Q197.17188 157.66037 197.5625 157.03537Q197.95312 156.41037 197.96875 155.08224L197.96875 153.301Z" fill-rule="nonzero"/><path fill="#000000" d="M31.200003 169.42188L16.887503 169.42188L16.887503 163.07812Q16.887503 161.17188 17.278128 160.17188Q17.653128 159.17188 18.637503 158.57812Q19.606253 157.98438 20.793753 157.98438Q22.309378 157.98438 23.356253 158.96875Q24.403128 159.95312 24.684378 162.01562Q25.043753 161.26562 25.403128 160.875Q26.153128 160.04688 27.309378 159.29688L31.200003 156.8125L31.200003 159.1875L28.215628 161.09375Q26.934378 161.92188 26.246878 162.45312Q25.559378 162.98438 25.293753 163.42188Q25.012503 163.84375 24.903128 164.28125Q24.840628 164.60938 24.840628 165.32812L24.840628 167.53125L31.200003 167.53125L31.200003 169.42188ZM23.200003 167.53125L23.200003 163.45312Q23.200003 162.15625 22.934378 161.4375Q22.668753 160.70312 22.075003 160.32812Q21.481253 159.9375 20.793753 159.9375Q19.778128 159.9375 19.121878 160.67188Q18.465628 161.40625 18.465628 163.0L18.465628 167.53125L23.200003 167.53125ZM27.856253 148.57812L28.090628 146.76562Q29.668753 147.1875 30.559378 148.35938Q31.434378 149.51562 31.434378 151.32812Q31.434378 153.59375 30.043753 154.9375Q28.637503 156.26562 26.106253 156.26562Q23.481253 156.26562 22.043753 154.92188Q20.590628 153.57812 20.590628 151.42188Q20.590628 149.34375 22.012503 148.03125Q23.418753 146.70312 25.996878 146.70312Q26.153128 146.70312 26.465628 146.71875L26.465628 154.45312Q28.168753 154.35938 29.075003 153.48438Q29.981253 152.60938 29.981253 151.3125Q29.981253 150.34375 29.481253 149.67188Q28.965628 148.98438 27.856253 148.57812ZM25.012503 154.35938L25.012503 148.5625Q23.715628 148.67188 23.059378 149.21875Q22.043753 150.0625 22.043753 151.40625Q22.043753 152.60938 22.856253 153.4375Q23.653128 154.26562 25.012503 154.35938ZM28.106253 145.39062L27.825003 143.64062Q28.871878 143.5 29.434378 142.82812Q29.981253 142.15625 29.981253 140.95312Q29.981253 139.75 29.496878 139.17188Q28.996878 138.57812 28.340628 138.57812Q27.746878 138.57812 27.403128 139.09375Q27.168753 139.45312 26.809378 140.89062Q26.309378 142.82812 25.965628 143.57812Q25.606253 144.3125 24.981253 144.70312Q24.340628 145.09375 23.575003 145.09375Q22.887503 145.09375 22.293753 144.78125Q21.700003 144.45312 21.309378 143.90625Q21.012503 143.5 20.809378 142.79688Q20.590628 142.07812 20.590628 141.26562Q20.590628 140.04688 20.950003 139.125Q21.293753 138.20312 21.903128 137.76562Q22.496878 137.32812 23.496878 137.15625L23.731253 138.875Q22.934378 139.0 22.496878 139.5625Q22.043753 140.125 22.043753 141.14062Q22.043753 142.35938 22.450003 142.875Q22.840628 143.39062 23.371878 143.39062Q23.715628 143.39062 23.996878 143.17188Q24.278128 142.96875 24.465628 142.5Q24.559378 142.23438 24.903128 140.95312Q25.403128 139.07812 25.731253 138.34375Q26.043753 137.60938 26.653128 137.1875Q27.246878 136.76562 28.153128 136.76562Q29.028128 136.76562 29.809378 137.28125Q30.590628 137.79688 31.012503 138.76562Q31.434378 139.73438 31.434378 140.95312Q31.434378 142.96875 30.590628 144.03125Q29.746878 145.09375 28.106253 145.39062ZM35.168755 134.6875L20.825003 134.6875L20.825003 133.07812L22.168753 133.07812Q21.387503 132.51562 20.996878 131.8125Q20.590628 131.09375 20.590628 130.07812Q20.590628 128.75 21.278128 127.734375Q21.965628 126.71875 23.215628 126.203125Q24.450003 125.671875 25.934378 125.671875Q27.528128 125.671875 28.809378 126.25Q30.075003 126.8125 30.762503 127.90625Q31.434378 129.0 31.434378 130.20312Q31.434378 131.07812 31.059378 131.78125Q30.684378 132.46875 30.121878 132.92188L35.168755 132.92188L35.168755 134.6875ZM26.075003 133.09375Q28.075003 133.09375 29.028128 132.28125Q29.981253 131.46875 29.981253 130.3125Q29.981253 129.14062 28.996878 128.3125Q28.012503 127.46875 25.918753 127.46875Q23.950003 127.46875 22.965628 128.29688Q21.965628 129.10938 21.965628 130.23438Q21.965628 131.35938 23.028128 132.23438Q24.075003 133.09375 26.075003 133.09375ZM26.012503 124.328125Q23.137503 124.328125 21.746878 122.734375Q20.590628 121.390625 20.590628 119.46875Q20.590628 117.328125 21.996878 115.984375Q23.403128 114.625 25.871878 114.625Q27.871878 114.625 29.028128 115.21875Q30.168753 115.8125 30.809378 116.96875Q31.434378 118.109375 31.434378 119.46875Q31.434378 121.65625 30.043753 123.0Q28.637503 124.328125 26.012503 124.328125ZM26.012503 122.53125Q28.012503 122.53125 28.996878 121.671875Q29.981253 120.796875 29.981253 119.46875Q29.981253 118.15625 28.996878 117.296875Q27.996878 116.421875 25.950003 116.421875Q24.028128 116.421875 23.043753 117.296875Q22.043753 118.171875 22.043753 119.46875Q22.043753 120.796875 23.043753 121.671875Q24.028128 122.53125 26.012503 122.53125ZM31.200003 112.6875L20.825003 112.6875L20.825003 111.09375L22.309378 111.09375Q20.590628 109.953125 20.590628 107.796875Q20.590628 106.859375 20.934378 106.078125Q21.262503 105.28125 21.809378 104.890625Q22.356253 104.5 23.106253 104.34375Q23.606253 104.25 24.825003 104.25L31.200003 104.25L31.200003 106.015625L24.887503 106.015625Q23.809378 106.015625 23.278128 106.21875Q22.746878 106.421875 22.434378 106.953125Q22.121878 107.46875 22.121878 108.171875Q22.121878 109.296875 22.840628 110.109375Q23.543753 110.921875 25.528128 110.921875L31.200003 110.921875L31.200003 112.6875ZM28.106253 103.390625L27.825003 101.640625Q28.871878 101.5 29.434378 100.828125Q29.981253 100.15625 29.981253 98.953125Q29.981253 97.75 29.496878 97.171875Q28.996878 96.578125 28.340628 96.578125Q27.746878 96.578125 27.403128 97.09375Q27.168753 97.453125 26.809378 98.890625Q26.309378 100.828125 25.965628 101.578125Q25.606253 102.3125 24.981253 102.703125Q24.340628 103.09375 23.575003 103.09375Q22.887503 103.09375 22.293753 102.78125Q21.700003 102.453125 21.309378 101.90625Q21.012503 101.5 20.809378 100.796875Q20.590628 100.078125 20.590628 99.265625Q20.590628 98.046875 20.950003 97.125Q21.293753 96.203125 21.903128 95.765625Q22.496878 95.328125 23.496878 95.15625L23.731253 96.875Q22.934378 97.0 22.496878 97.5625Q22.043753 98.125 22.043753 99.140625Q22.043753 100.359375 22.450003 100.875Q22.840628 101.390625 23.371878 101.390625Q23.715628 101.390625 23.996878 101.171875Q24.278128 100.96875 24.465628 100.5Q24.559378 100.234375 24.903128 98.953125Q25.403128 97.078125 25.731253 96.34375Q26.043753 95.609375 26.653128 95.1875Q27.246878 94.765625 28.153128 94.765625Q29.028128 94.765625 29.809378 95.28125Q30.590628 95.796875 31.012503 96.765625Q31.434378 97.734375 31.434378 98.953125Q31.434378 100.96875 30.590628 102.03125Q29.746878 103.09375 28.106253 103.390625ZM27.856253 85.578125L28.090628 83.765625Q29.668753 84.1875 30.559378 85.359375Q31.434378 86.515625 31.434378 88.328125Q31.434378 90.59375 30.043753 91.9375Q28.637503 93.265625 26.106253 93.265625Q23.481253 93.265625 22.043753 91.921875Q20.590628 90.578125 20.590628 88.421875Q20.590628 86.34375 22.012503 85.03125Q23.418753 83.703125 25.996878 83.703125Q26.153128 83.703125 26.465628 83.71875L26.465628 91.453125Q28.168753 91.359375 29.075003 90.484375Q29.981253 89.609375 29.981253 88.3125Q29.981253 87.34375 29.481253 86.671875Q28.965628 85.984375 27.856253 85.578125ZM25.012503 91.359375L25.012503 85.5625Q23.715628 85.671875 23.059378 86.21875Q22.043753 87.0625 22.043753 88.40625Q22.043753 89.609375 22.856253 90.4375Q23.653128 91.265625 25.012503 91.359375ZM28.106253 82.390625L27.825003 80.640625Q28.871878 80.5 29.434378 79.828125Q29.981253 79.15625 29.981253 77.953125Q29.981253 76.75 29.496878 76.171875Q28.996878 75.578125 28.340628 75.578125Q27.746878 75.578125 27.403128 76.09375Q27.168753 76.453125 26.809378 77.890625Q26.309378 79.828125 25.965628 80.578125Q25.606253 81.3125 24.981253 81.703125Q24.340628 82.09375 23.575003 82.09375Q22.887503 82.09375 22.293753 81.78125Q21.700003 81.453125 21.309378 80.90625Q21.012503 80.5 20.809378 79.796875Q20.590628 79.078125 20.590628 78.265625Q20.590628 77.046875 20.950003 76.125Q21.293753 75.203125 21.903128 74.765625Q22.496878 74.328125 23.496878 74.15625L23.731253 75.875Q22.934378 76.0 22.496878 76.5625Q22.043753 77.125 22.043753 78.140625Q22.043753 79.359375 22.450003 79.875Q22.840628 80.390625 23.371878 80.390625Q23.715628 80.390625 23.996878 80.171875Q24.278128 79.96875 24.465628 79.5Q24.559378 79.234375 24.903128 77.953125Q25.403128 76.078125 25.731253 75.34375Q26.043753 74.609375 26.653128 74.1875Q27.246878 73.765625 28.153128 73.765625Q29.028128 73.765625 29.809378 74.28125Q30.590628 74.796875 31.012503 75.765625Q31.434378 76.734375 31.434378 77.953125Q31.434378 79.96875 30.590628 81.03125Q29.746878 82.09375 28.106253 82.390625Z" fill-rule="nonzero"/><path fill="#000000" d="M100.02812 173.7375Q100.02812 171.20625 100.54375 169.65938Q101.075 168.09688 102.10625 167.26875Q103.1375 166.425 104.7 166.425Q105.85625 166.425 106.71562 166.89375Q107.59062 167.34688 108.15312 168.22188Q108.71562 169.09688 109.04375 170.3625Q109.37187 171.6125 109.37187 173.7375Q109.37187 176.25313 108.84062 177.8Q108.325 179.34688 107.29375 180.20625Q106.27812 181.05 104.7 181.05Q102.62187 181.05 101.45 179.56563Q100.02812 177.76875 100.02812 173.7375ZM101.84062 173.7375Q101.84062 177.26875 102.65312 178.44063Q103.48125 179.59688 104.7 179.59688Q105.90312 179.59688 106.73125 178.425Q107.55937 177.25313 107.55937 173.7375Q107.55937 170.20625 106.73125 169.05Q105.90312 167.87813 104.68437 167.87813Q103.46562 167.87813 102.74687 168.90938Q101.84062 170.20625 101.84062 173.7375Z" fill-rule="nonzero"/><path fill="#000000" d="M76.2625 141.7125L76.2625 143.4L66.80937 143.4Q66.79375 142.75937 67.0125 142.18124Q67.37187 141.2125 68.16875 140.275Q68.96562 139.3375 70.46562 138.10312Q72.80937 136.19687 73.62187 135.0875Q74.45 133.9625 74.45 132.9625Q74.45 131.91562 73.7 131.19687Q72.95 130.47812 71.74687 130.47812Q70.48125 130.47812 69.71562 131.24374Q68.95 132.00937 68.95 133.35312L67.1375 133.16562Q67.325 131.15 68.52812 130.0875Q69.74687 129.025 71.79375 129.025Q73.84062 129.025 75.04375 130.16562Q76.24687 131.30624 76.24687 132.99374Q76.24687 133.85312 75.8875 134.69687Q75.54375 135.525 74.73125 136.44687Q73.91875 137.35312 72.02812 138.9625Q70.43437 140.29062 69.98125 140.75937Q69.54375 141.22812 69.24687 141.7125L76.2625 141.7125ZM78.02812 136.3375Q78.02812 133.80624 78.54375 132.25937Q79.075 130.69687 80.10625 129.86874Q81.1375 129.025 82.7 129.025Q83.85625 129.025 84.71562 129.49374Q85.59062 129.94687 86.15312 130.82187Q86.71562 131.69687 87.04375 132.9625Q87.37187 134.2125 87.37187 136.3375Q87.37187 138.85312 86.84062 140.4Q86.325 141.94687 85.29375 142.80624Q84.27812 143.65 82.7 143.65Q80.62187 143.65 79.45 142.16562Q78.02812 140.36874 78.02812 136.3375ZM79.84062 136.3375Q79.84062 139.86874 80.65312 141.04062Q81.48125 142.19687 82.7 142.19687Q83.90312 142.19687 84.73125 141.025Q85.55937 139.85312 85.55937 136.3375Q85.55937 132.80624 84.73125 131.65Q83.90312 130.47812 82.68437 130.47812Q81.46562 130.47812 80.74687 131.50937Q79.84062 132.80624 79.84062 136.3375ZM89.02812 136.3375Q89.02812 133.80624 89.54375 132.25937Q90.075 130.69687 91.10625 129.86874Q92.1375 129.025 93.7 129.025Q94.85625 129.025 95.71562 129.49374Q96.59062 129.94687 97.15312 130.82187Q97.71562 131.69687 98.04375 132.9625Q98.37187 134.2125 98.37187 136.3375Q98.37187 138.85312 97.84062 140.4Q97.325 141.94687 96.29375 142.80624Q95.27812 143.65 93.7 143.65Q91.62187 143.65 90.45 142.16562Q89.02812 140.36874 89.02812 136.3375ZM90.84062 136.3375Q90.84062 139.86874 91.65312 141.04062Q92.48125 142.19687 93.7 142.19687Q94.90312 142.19687 95.73125 141.025Q96.55937 139.85312 96.55937 136.3375Q96.55937 132.80624 95.73125 131.65Q94.90312 130.47812 93.68437 130.47812Q92.46562 130.47812 91.74687 131.50937Q90.84062 132.80624 90.84062 136.3375ZM100.02812 136.3375Q100.02812 133.80624 100.54375 132.25937Q101.075 130.69687 102.10625 129.86874Q103.1375 129.025 104.7 129.025Q105.85625 129.025 106.71562 129.49374Q107.59062 129.94687 108.15312 130.82187Q108.71562 131.69687 109.04375 132.9625Q109.37187 134.2125 109.37187 136.3375Q109.37187 138.85312 108.84062 140.4Q108.325 141.94687 107.29375 142.80624Q106.27812 143.65 104.7 143.65Q102.62187 143.65 101.45 142.16562Q100.02812 140.36874 100.02812 136.3375ZM101.84062 136.3375Q101.84062 139.86874 102.65312 141.04062Q103.48125 142.19687 104.7 142.19687Q105.90312 142.19687 106.73125 141.025Q107.55937 139.85312 107.55937 136.3375Q107.55937 132.80624 106.73125 131.65Q105.90312 130.47812 104.68437 130.47812Q103.46562 130.47812 102.74687 131.50937Q101.84062 132.80624 101.84062 136.3375Z" fill-rule="nonzero"/><path fill="#000000" d="M72.66875 106.0L72.66875 102.578125L66.45 102.578125L66.45 100.953125L72.98125 91.6875L74.41875 91.6875L74.41875 100.953125L76.35625 100.953125L76.35625 102.578125L74.41875 102.578125L74.41875 106.0L72.66875 106.0ZM72.66875 100.953125L72.66875 94.5L68.18437 100.953125L72.66875 100.953125ZM78.02812 98.9375Q78.02812 96.40625 78.54375 94.859375Q79.075 93.296875 80.10625 92.46875Q81.1375 91.625 82.7 91.625Q83.85625 91.625 84.71562 92.09375Q85.59062 92.546875 86.15312 93.421875Q86.71562 94.296875 87.04375 95.5625Q87.37187 96.8125 87.37187 98.9375Q87.37187 101.453125 86.84062 103.0Q86.325 104.546875 85.29375 105.40625Q84.27812 106.25 82.7 106.25Q80.62187 106.25 79.45 104.765625Q78.02812 102.96875 78.02812 98.9375ZM79.84062 98.9375Q79.84062 102.46875 80.65312 103.640625Q81.48125 104.796875 82.7 104.796875Q83.90312 104.796875 84.73125 103.625Q85.55937 102.453125 85.55937 98.9375Q85.55937 95.40625 84.73125 94.25Q83.90312 93.078125 82.68437 93.078125Q81.46562 93.078125 80.74687 94.109375Q79.84062 95.40625 79.84062 98.9375ZM89.02812 98.9375Q89.02812 96.40625 89.54375 94.859375Q90.075 93.296875 91.10625 92.46875Q92.1375 91.625 93.7 91.625Q94.85625 91.625 95.71562 92.09375Q96.59062 92.546875 97.15312 93.421875Q97.71562 94.296875 98.04375 95.5625Q98.37187 96.8125 98.37187 98.9375Q98.37187 101.453125 97.84062 103.0Q97.325 104.546875 96.29375 105.40625Q95.27812 106.25 93.7 106.25Q91.62187 106.25 90.45 104.765625Q89.02812 102.96875 89.02812 98.9375ZM90.84062 98.9375Q90.84062 102.46875 91.65312 103.640625Q92.48125 104.796875 93.7 104.796875Q94.90312 104.796875 95.73125 103.625Q96.55937 102.453125 96.55937 98.9375Q96.55937 95.40625 95.73125 94.25Q94.90312 93.078125 93.68437 93.078125Q92.46562 93.078125 91.74687 94.109375Q90.84062 95.40625 90.84062 98.9375ZM100.02812 98.9375Q100.02812 96.40625 100.54375 94.859375Q101.075 93.296875 102.10625 92.46875Q103.1375 91.625 104.7 91.625Q105.85625 91.625 106.71562 92.09375Q107.59062 92.546875 108.15312 93.421875Q108.71562 94.296875 109.04375 95.5625Q109.37187 96.8125 109.37187 98.9375Q109.37187 101.453125 108.84062 103.0Q108.325 104.546875 107.29375 105.40625Q106.27812 106.25 104.7 106.25Q102.62187 106.25 101.45 104.765625Q100.02812 102.96875 100.02812 98.9375ZM101.84062 98.9375Q101.84062 102.46875 102.65312 103.640625Q103.48125 104.796875 104.7 104.796875Q105.90312 104.796875 106.73125 103.625Q107.55937 102.453125 107.55937 98.9375Q107.55937 95.40625 106.73125 94.25Q105.90312 93.078125 104.68437 93.078125Q103.46562 93.078125 102.74687 94.109375Q101.84062 95.40625 101.84062 98.9375Z" fill-rule="nonzero"/><path fill="#000000" d="M76.15312 57.7875L74.40312 57.928123Q74.16875 56.896873 73.74687 56.428123Q73.02812 55.6625 71.98125 55.6625Q71.1375 55.6625 70.5125 56.13125Q69.68437 56.740623 69.2 57.9125Q68.71562 59.06875 68.7 61.209373Q69.34062 60.25625 70.24687 59.7875Q71.16875 59.31875 72.18437 59.31875Q73.93437 59.31875 75.16875 60.615623Q76.40312 61.896873 76.40312 63.94375Q76.40312 65.30312 75.825 66.45937Q75.24687 67.61562 74.23125 68.24062Q73.21562 68.85 71.91875 68.85Q69.73125 68.85 68.34062 67.24062Q66.95 65.61562 66.95 61.896873Q66.95 57.75625 68.48125 55.865623Q69.825 54.225 72.09062 54.225Q73.77812 54.225 74.85625 55.178123Q75.93437 56.115623 76.15312 57.7875ZM68.98125 63.959373Q68.98125 64.86562 69.35625 65.69375Q69.74687 66.52187 70.43437 66.95937Q71.1375 67.39687 71.8875 67.39687Q73.0125 67.39687 73.80937 66.50625Q74.60625 65.6 74.60625 64.05312Q74.60625 62.56875 73.80937 61.725Q73.02812 60.865623 71.825 60.865623Q70.6375 60.865623 69.80937 61.725Q68.98125 62.56875 68.98125 63.959373ZM78.02812 61.5375Q78.02812 59.00625 78.54375 57.459373Q79.075 55.896873 80.10625 55.06875Q81.1375 54.225 82.7 54.225Q83.85625 54.225 84.71562 54.69375Q85.59062 55.146873 86.15312 56.021873Q86.71562 56.896873 87.04375 58.1625Q87.37187 59.4125 87.37187 61.5375Q87.37187 64.05312 86.84062 65.6Q86.325 67.14687 85.29375 68.00625Q84.27812 68.85 82.7 68.85Q80.62187 68.85 79.45 67.36562Q78.02812 65.56875 78.02812 61.5375ZM79.84062 61.5375Q79.84062 65.06875 80.65312 66.24062Q81.48125 67.39687 82.7 67.39687Q83.90312 67.39687 84.73125 66.225Q85.55937 65.05312 85.55937 61.5375Q85.55937 58.00625 84.73125 56.85Q83.90312 55.678123 82.68437 55.678123Q81.46562 55.678123 80.74687 56.709373Q79.84062 58.00625 79.84062 61.5375ZM89.02812 61.5375Q89.02812 59.00625 89.54375 57.459373Q90.075 55.896873 91.10625 55.06875Q92.1375 54.225 93.7 54.225Q94.85625 54.225 95.71562 54.69375Q96.59062 55.146873 97.15312 56.021873Q97.71562 56.896873 98.04375 58.1625Q98.37187 59.4125 98.37187 61.5375Q98.37187 64.05312 97.84062 65.6Q97.325 67.14687 96.29375 68.00625Q95.27812 68.85 93.7 68.85Q91.62187 68.85 90.45 67.36562Q89.02812 65.56875 89.02812 61.5375ZM90.84062 61.5375Q90.84062 65.06875 91.65312 66.24062Q92.48125 67.39687 93.7 67.39687Q94.90312 67.39687 95.73125 66.225Q96.55937 65.05312 96.55937 61.5375Q96.55937 58.00625 95.73125 56.85Q94.90312 55.678123 93.68437 55.678123Q92.46562 55.678123 91.74687 56.709373Q90.84062 58.00625 90.84062 61.5375ZM100.02812 61.5375Q100.02812 59.00625 100.54375 57.459373Q101.075 55.896873 102.10625 55.06875Q103.1375 54.225 104.7 54.225Q105.85625 54.225 106.71562 54.69375Q107.59062 55.146873 108.15312 56.021873Q108.71562 56.896873 109.04375 58.1625Q109.37187 59.4125 109.37187 61.5375Q109.37187 64.05312 108.84062 65.6Q108.325 67.14687 107.29375 68.00625Q106.27812 68.85 104.7 68.85Q102.62187 68.85 101.45 67.36562Q100.02812 65.56875 100.02812 61.5375ZM101.84062 61.5375Q101.84062 65.06875 102.65312 66.24062Q103.48125 67.39687 104.7 67.39687Q105.90312 67.39687 106.73125 66.225Q107.55937 65.05312 107.55937 61.5375Q107.55937 58.00625 106.73125 56.85Q105.90312 55.678123 104.68437 55.678123Q103.46562 55.678123 102.74687 56.709373Q101.84062 58.00625 101.84062 61.5375Z" fill-rule="nonzero"/><path fill="#000000" d="M69.73125 23.434376Q68.6375 23.028126 68.10625 22.29375Q67.59062 21.54375 67.59062 20.5125Q67.59062 18.95 68.71562 17.8875Q69.84062 16.825 71.7 16.825Q73.575 16.825 74.71562 17.91875Q75.85625 18.996876 75.85625 20.559376Q75.85625 21.559376 75.325 22.29375Q74.80937 23.028126 73.74687 23.434376Q75.075 23.871876 75.7625 24.825Q76.45 25.778126 76.45 27.10625Q76.45 28.95 75.1375 30.2Q73.84062 31.45 71.73125 31.45Q69.60625 31.45 68.30937 30.2Q67.0125 28.934376 67.0125 27.059376Q67.0125 25.66875 67.71562 24.73125Q68.43437 23.778126 69.73125 23.434376ZM69.3875 20.45Q69.3875 21.465626 70.04375 22.121876Q70.7 22.7625 71.73125 22.7625Q72.74687 22.7625 73.40312 22.121876Q74.05937 21.48125 74.05937 20.559376Q74.05937 19.590626 73.3875 18.934376Q72.71562 18.2625 71.71562 18.2625Q70.71562 18.2625 70.04375 18.91875Q69.3875 19.559376 69.3875 20.45ZM68.825 27.075Q68.825 27.825 69.16875 28.528126Q69.52812 29.23125 70.23125 29.621876Q70.93437 29.996876 71.74687 29.996876Q73.0125 29.996876 73.825 29.184376Q74.65312 28.371876 74.65312 27.121876Q74.65312 25.85625 73.80937 25.028126Q72.96562 24.2 71.68437 24.2Q70.45 24.2 69.6375 25.028126Q68.825 25.840626 68.825 27.075ZM78.02812 24.1375Q78.02812 21.60625 78.54375 20.059376Q79.075 18.496876 80.10625 17.66875Q81.1375 16.825 82.7 16.825Q83.85625 16.825 84.71562 17.29375Q85.59062 17.746876 86.15312 18.621876Q86.71562 19.496876 87.04375 20.7625Q87.37187 22.0125 87.37187 24.1375Q87.37187 26.653126 86.84062 28.2Q86.325 29.746876 85.29375 30.60625Q84.27812 31.45 82.7 31.45Q80.62187 31.45 79.45 29.965626Q78.02812 28.16875 78.02812 24.1375ZM79.84062 24.1375Q79.84062 27.66875 80.65312 28.840626Q81.48125 29.996876 82.7 29.996876Q83.90312 29.996876 84.73125 28.825Q85.55937 27.653126 85.55937 24.1375Q85.55937 20.60625 84.73125 19.45Q83.90312 18.278126 82.68437 18.278126Q81.46562 18.278126 80.74687 19.309376Q79.84062 20.60625 79.84062 24.1375ZM89.02812 24.1375Q89.02812 21.60625 89.54375 20.059376Q90.075 18.496876 91.10625 17.66875Q92.1375 16.825 93.7 16.825Q94.85625 16.825 95.71562 17.29375Q96.59062 17.746876 97.15312 18.621876Q97.71562 19.496876 98.04375 20.7625Q98.37187 22.0125 98.37187 24.1375Q98.37187 26.653126 97.84062 28.2Q97.325 29.746876 96.29375 30.60625Q95.27812 31.45 93.7 31.45Q91.62187 31.45 90.45 29.965626Q89.02812 28.16875 89.02812 24.1375ZM90.84062 24.1375Q90.84062 27.66875 91.65312 28.840626Q92.48125 29.996876 93.7 29.996876Q94.90312 29.996876 95.73125 28.825Q96.55937 27.653126 96.55937 24.1375Q96.55937 20.60625 95.73125 19.45Q94.90312 18.278126 93.68437 18.278126Q92.46562 18.278126 91.74687 19.309376Q90.84062 20.60625 90.84062 24.1375ZM100.02812 24.1375Q100.02812 21.60625 100.54375 20.059376Q101.075 18.496876 102.10625 17.66875Q103.1375 16.825 104.7 16.825Q105.85625 16.825 106.71562 17.29375Q107.59062 17.746876 108.15312 18.621876Q108.71562 19.496876 109.04375 20.7625Q109.37187 22.0125 109.37187 24.1375Q109.37187 26.653126 108.84062 28.2Q108.325 29.746876 107.29375 30.60625Q106.27812 31.45 104.7 31.45Q102.62187 31.45 101.45 29.965626Q100.02812 28.16875 100.02812 24.1375ZM101.84062 24.1375Q101.84062 27.66875 102.65312 28.840626Q103.48125 29.996876 104.7 29.996876Q105.90312 29.996876 106.73125 28.825Q107.55937 27.653126 107.55937 24.1375Q107.55937 20.60625 106.73125 19.45Q105.90312 18.278126 104.68437 18.278126Q103.46562 18.278126 102.74687 19.309376Q101.84062 20.60625 101.84062 24.1375Z" fill-rule="nonzero"/><path fill="#000000" d="M592.453 198.20625L594.23425 198.05Q594.35925 199.1125 594.8124 199.8Q595.2811 200.4875 596.2499 200.925Q597.23425 201.34688 598.4686 201.34688Q599.54675 201.34688 600.3749 201.03438Q601.203 200.70625 601.60925 200.14375Q602.0155 199.58125 602.0155 198.90938Q602.0155 198.2375 601.6249 197.7375Q601.23425 197.2375 600.3436 196.89375Q599.7655 196.65938 597.7811 196.19063Q595.8124 195.72188 595.0311 195.3Q593.9999 194.76875 593.4999 193.97188Q592.9999 193.175 592.9999 192.19063Q592.9999 191.09688 593.60925 190.15938Q594.2186 189.22188 595.4061 188.7375Q596.5936 188.2375 598.0311 188.2375Q599.6249 188.2375 600.8436 188.75313Q602.0624 189.26875 602.703 190.26875Q603.35925 191.25313 603.4061 192.51875L601.5936 192.65938Q601.453 191.3 600.60925 190.6125Q599.7655 189.90938 598.10925 189.90938Q596.3905 189.90938 595.5936 190.55Q594.8124 191.175 594.8124 192.05Q594.8124 192.83125 595.3749 193.33125Q595.92175 193.83125 598.23425 194.34688Q600.54675 194.8625 601.4061 195.25313Q602.6561 195.83125 603.2499 196.72188Q603.8436 197.59688 603.8436 198.75313Q603.8436 199.89375 603.1874 200.90938Q602.5311 201.925 601.29675 202.4875Q600.078 203.05 598.54675 203.05Q596.60925 203.05 595.29675 202.4875Q593.98425 201.90938 593.23425 200.76875Q592.48425 199.62813 592.453 198.20625ZM609.703 201.22188L609.953 202.78438Q609.2186 202.94063 608.6249 202.94063Q607.67175 202.94063 607.1405 202.64375Q606.6249 202.33125 606.4061 201.84688Q606.1874 201.34688 606.1874 199.76875L606.1874 193.8L604.9061 193.8L604.9061 192.425L606.1874 192.425L606.1874 189.8625L607.9374 188.8L607.9374 192.425L609.703 192.425L609.703 193.8L607.9374 193.8L607.9374 199.8625Q607.9374 200.6125 608.0311 200.83125Q608.1249 201.03438 608.328 201.175Q608.54675 201.3 608.9374 201.3Q609.2186 201.3 609.703 201.22188ZM611.8436 202.8L611.8436 192.425L613.42175 192.425L613.42175 194.00313Q614.0311 192.89375 614.54675 192.55Q615.0624 192.19063 615.67175 192.19063Q616.5624 192.19063 617.48425 192.75313L616.8749 194.39375Q616.23425 194.00313 615.5936 194.00313Q615.0155 194.00313 614.54675 194.3625Q614.0936 194.70625 613.8905 195.31563Q613.60925 196.25313 613.60925 197.3625L613.60925 202.8L611.8436 202.8ZM618.2186 197.6125Q618.2186 194.7375 619.8124 193.34688Q621.1561 192.19063 623.078 192.19063Q625.2186 192.19063 626.5624 193.59688Q627.92175 195.00313 627.92175 197.47188Q627.92175 199.47188 627.328 200.62813Q626.73425 201.76875 625.578 202.40938Q624.4374 203.03438 623.078 203.03438Q620.8905 203.03438 619.54675 201.64375Q618.2186 200.2375 618.2186 197.6125ZM620.0155 197.6125Q620.0155 199.6125 620.8749 200.59688Q621.7499 201.58125 623.078 201.58125Q624.3905 201.58125 625.2499 200.59688Q626.1249 199.59688 626.1249 197.55Q626.1249 195.62813 625.2499 194.64375Q624.3749 193.64375 623.078 193.64375Q621.7499 193.64375 620.8749 194.64375Q620.0155 195.62813 620.0155 197.6125ZM629.85925 202.8L629.85925 192.425L631.453 192.425L631.453 193.90938Q632.5936 192.19063 634.7499 192.19063Q635.6874 192.19063 636.4686 192.53438Q637.2655 192.8625 637.6561 193.40938Q638.04675 193.95625 638.203 194.70625Q638.29675 195.20625 638.29675 196.425L638.29675 202.8L636.5311 202.8L636.5311 196.4875Q636.5311 195.40938 636.328 194.87813Q636.1249 194.34688 635.5936 194.03438Q635.078 193.72188 634.3749 193.72188Q633.2499 193.72188 632.4374 194.44063Q631.6249 195.14375 631.6249 197.12813L631.6249 202.8L629.85925 202.8ZM639.54675 203.65938L641.2499 203.90938Q641.35925 204.70625 641.8436 205.06563Q642.4999 205.55 643.6405 205.55Q644.85925 205.55 645.5155 205.06563Q646.1874 204.58125 646.42175 203.70625Q646.5624 203.15938 646.54675 201.44063Q645.3905 202.8 643.67175 202.8Q641.5311 202.8 640.35925 201.25313Q639.1874 199.70625 639.1874 197.55Q639.1874 196.06563 639.7186 194.81563Q640.2655 193.56563 641.2811 192.87813Q642.3124 192.19063 643.6874 192.19063Q645.5155 192.19063 646.7186 193.675L646.7186 192.425L648.328 192.425L648.328 201.39375Q648.328 203.81563 647.828 204.81563Q647.3436 205.83125 646.2655 206.40938Q645.203 207.00313 643.6405 207.00313Q641.79675 207.00313 640.6405 206.175Q639.4999 205.34688 639.54675 203.65938ZM640.9999 197.425Q640.9999 199.47188 641.8124 200.40938Q642.6249 201.34688 643.8436 201.34688Q645.04675 201.34688 645.85925 200.40938Q646.6874 199.47188 646.6874 197.4875Q646.6874 195.58125 645.8436 194.6125Q644.9999 193.64375 643.8124 193.64375Q642.6405 193.64375 641.8124 194.59688Q640.9999 195.55 640.9999 197.425ZM650.828 202.8L650.828 188.4875L652.578 188.4875L652.578 202.8L650.828 202.8ZM654.7811 206.8L654.5936 205.14375Q655.17175 205.3 655.5936 205.3Q656.1874 205.3 656.5311 205.09688Q656.8905 204.90938 657.10925 204.56563Q657.2811 204.3 657.6561 203.25313Q657.703 203.09688 657.8124 202.81563L653.8749 192.425L655.7655 192.425L657.92175 198.44063Q658.3436 199.58125 658.67175 200.83125Q658.98425 199.62813 659.3905 198.47188L661.60925 192.425L663.3749 192.425L659.42175 202.97188Q658.79675 204.69063 658.4374 205.33125Q657.9686 206.20625 657.35925 206.59688Q656.7655 207.00313 655.92175 207.00313Q655.4061 207.00313 654.7811 206.8Z" fill-rule="nonzero"/><path fill="#000000" d="M601.0155 226.8L606.5155 212.4875L608.5624 212.4875L614.42175 226.8L612.2655 226.8L610.5936 222.45625L604.60925 222.45625L603.0311 226.8L601.0155 226.8ZM605.1561 220.925L609.9999 220.925L608.5155 216.95625Q607.828 215.14375 607.4999 213.9875Q607.2186 215.3625 606.7186 216.72188L605.1561 220.925ZM615.04675 227.65938L616.7499 227.90938Q616.85925 228.70625 617.3436 229.06563Q617.9999 229.55 619.1405 229.55Q620.35925 229.55 621.0155 229.06563Q621.6874 228.58125 621.92175 227.70625Q622.0624 227.15938 622.04675 225.44063Q620.8905 226.8 619.17175 226.8Q617.0311 226.8 615.85925 225.25313Q614.6874 223.70625 614.6874 221.55Q614.6874 220.06563 615.2186 218.81563Q615.7655 217.56563 616.7811 216.87813Q617.8124 216.19063 619.1874 216.19063Q621.0155 216.19063 622.2186 217.675L622.2186 216.425L623.828 216.425L623.828 225.39375Q623.828 227.81563 623.328 228.81563Q622.8436 229.83125 621.7655 230.40938Q620.703 231.00313 619.1405 231.00313Q617.29675 231.00313 616.1405 230.175Q614.9999 229.34688 615.04675 227.65938ZM616.4999 221.425Q616.4999 223.47188 617.3124 224.40938Q618.1249 225.34688 619.3436 225.34688Q620.54675 225.34688 621.35925 224.40938Q622.1874 223.47188 622.1874 221.4875Q622.1874 219.58125 621.3436 218.6125Q620.4999 217.64375 619.3124 217.64375Q618.1405 217.64375 617.3124 218.59688Q616.4999 219.55 616.4999 221.425ZM626.3436 226.8L626.3436 216.425L627.92175 216.425L627.92175 218.00313Q628.5311 216.89375 629.04675 216.55Q629.5624 216.19063 630.17175 216.19063Q631.0624 216.19063 631.98425 216.75313L631.3749 218.39375Q630.73425 218.00313 630.0936 218.00313Q629.5155 218.00313 629.04675 218.3625Q628.5936 218.70625 628.3905 219.31563Q628.10925 220.25313 628.10925 221.3625L628.10925 226.8L626.3436 226.8ZM640.4686 223.45625L642.2811 223.69063Q641.85925 225.26875 640.6874 226.15938Q639.5311 227.03438 637.7186 227.03438Q635.453 227.03438 634.10925 225.64375Q632.7811 224.2375 632.7811 221.70625Q632.7811 219.08125 634.1249 217.64375Q635.4686 216.19063 637.6249 216.19063Q639.703 216.19063 641.0155 217.6125Q642.3436 219.01875 642.3436 221.59688Q642.3436 221.75313 642.328 222.06563L634.5936 222.06563Q634.6874 223.76875 635.5624 224.675Q636.4374 225.58125 637.73425 225.58125Q638.703 225.58125 639.3749 225.08125Q640.0624 224.56563 640.4686 223.45625ZM634.6874 220.6125L640.48425 220.6125Q640.3749 219.31563 639.828 218.65938Q638.98425 217.64375 637.6405 217.64375Q636.4374 217.64375 635.60925 218.45625Q634.7811 219.25313 634.6874 220.6125ZM651.4686 223.45625L653.2811 223.69063Q652.85925 225.26875 651.6874 226.15938Q650.5311 227.03438 648.7186 227.03438Q646.453 227.03438 645.10925 225.64375Q643.7811 224.2375 643.7811 221.70625Q643.7811 219.08125 645.1249 217.64375Q646.4686 216.19063 648.6249 216.19063Q650.703 216.19063 652.0155 217.6125Q653.3436 219.01875 653.3436 221.59688Q653.3436 221.75313 653.328 222.06563L645.5936 222.06563Q645.6874 223.76875 646.5624 224.675Q647.4374 225.58125 648.73425 225.58125Q649.703 225.58125 650.3749 225.08125Q651.0624 224.56563 651.4686 223.45625ZM645.6874 220.6125L651.48425 220.6125Q651.3749 219.31563 650.828 218.65938Q649.98425 217.64375 648.6405 217.64375Q647.4374 217.64375 646.60925 218.45625Q645.7811 219.25313 645.6874 220.6125Z" fill-rule="nonzero"/><path fill="#000000" d="M492.49213 202.8L497.99213 188.4875L500.039 188.4875L505.89838 202.8L503.74213 202.8L502.07025 198.45625L496.08588 198.45625L494.50775 202.8L492.49213 202.8ZM496.63275 196.925L501.4765 196.925L499.99213 192.95625Q499.30463 191.14375 498.9765 189.9875Q498.69525 191.3625 498.19525 192.72188L496.63275 196.925ZM506.52338 203.65938L508.2265 203.90938Q508.33588 204.70625 508.82025 205.06563Q509.4765 205.55 510.61713 205.55Q511.83588 205.55 512.4921 205.06563Q513.164 204.58125 513.3984 203.70625Q513.539 203.15938 513.5234 201.44063Q512.3671 202.8 510.64838 202.8Q508.50775 202.8 507.33588 201.25313Q506.164 199.70625 506.164 197.55Q506.164 196.06563 506.69525 194.81563Q507.24213 193.56563 508.25775 192.87813Q509.289 192.19063 510.664 192.19063Q512.4921 192.19063 513.69525 193.675L513.69525 192.425L515.3046 192.425L515.3046 201.39375Q515.3046 203.81563 514.8046 204.81563Q514.32025 205.83125 513.2421 206.40938Q512.1796 207.00313 510.61713 207.00313Q508.77338 207.00313 507.61713 206.175Q506.4765 205.34688 506.52338 203.65938ZM507.9765 197.425Q507.9765 199.47188 508.789 200.40938Q509.6015 201.34688 510.82025 201.34688Q512.0234 201.34688 512.8359 200.40938Q513.664 199.47188 513.664 197.4875Q513.664 195.58125 512.82025 194.6125Q511.9765 193.64375 510.789 193.64375Q509.61713 193.64375 508.789 194.59688Q507.9765 195.55 507.9765 197.425ZM517.82025 202.8L517.82025 192.425L519.3984 192.425L519.3984 194.00313Q520.00775 192.89375 520.5234 192.55Q521.039 192.19063 521.6484 192.19063Q522.539 192.19063 523.4609 192.75313L522.8515 194.39375Q522.2109 194.00313 521.57025 194.00313Q520.9921 194.00313 520.5234 194.3625Q520.07025 194.70625 519.8671 195.31563Q519.5859 196.25313 519.5859 197.3625L519.5859 202.8L517.82025 202.8ZM531.94525 199.45625L533.75775 199.69063Q533.3359 201.26875 532.164 202.15938Q531.00775 203.03438 529.19525 203.03438Q526.9296 203.03438 525.5859 201.64375Q524.25775 200.2375 524.25775 197.70625Q524.25775 195.08125 525.6015 193.64375Q526.94525 192.19063 529.1015 192.19063Q531.1796 192.19063 532.4921 193.6125Q533.82025 195.01875 533.82025 197.59688Q533.82025 197.75313 533.8046 198.06563L526.07025 198.06563Q526.164 199.76875 527.039 200.675Q527.914 201.58125 529.2109 201.58125Q530.1796 201.58125 530.8515 201.08125Q531.539 200.56563 531.94525 199.45625ZM526.164 196.6125L531.9609 196.6125Q531.8515 195.31563 531.3046 194.65938Q530.4609 193.64375 529.1171 193.64375Q527.914 193.64375 527.0859 194.45625Q526.25775 195.25313 526.164 196.6125ZM542.94525 199.45625L544.75775 199.69063Q544.3359 201.26875 543.164 202.15938Q542.00775 203.03438 540.19525 203.03438Q537.9296 203.03438 536.5859 201.64375Q535.25775 200.2375 535.25775 197.70625Q535.25775 195.08125 536.6015 193.64375Q537.94525 192.19063 540.1015 192.19063Q542.1796 192.19063 543.4921 193.6125Q544.82025 195.01875 544.82025 197.59688Q544.82025 197.75313 544.8046 198.06563L537.07025 198.06563Q537.164 199.76875 538.039 200.675Q538.914 201.58125 540.2109 201.58125Q541.1796 201.58125 541.8515 201.08125Q542.539 200.56563 542.94525 199.45625ZM537.164 196.6125L542.9609 196.6125Q542.8515 195.31563 542.3046 194.65938Q541.4609 193.64375 540.1171 193.64375Q538.914 193.64375 538.0859 194.45625Q537.25775 195.25313 537.164 196.6125Z" fill-rule="nonzero"/><path fill="#000000" d="M381.03125 202.8L381.03125 188.4875L382.96875 188.4875L390.48438 199.72188L390.48438 188.4875L392.29688 188.4875L392.29688 202.8L390.35938 202.8L382.84375 191.55L382.84375 202.8L381.03125 202.8ZM400.92188 199.45625L402.73438 199.69063Q402.3125 201.26875 401.14062 202.15938Q399.98438 203.03438 398.17188 203.03438Q395.90625 203.03438 394.5625 201.64375Q393.23438 200.2375 393.23438 197.70625Q393.23438 195.08125 394.57812 193.64375Q395.92188 192.19063 398.07812 192.19063Q400.15625 192.19063 401.46875 193.6125Q402.79688 195.01875 402.79688 197.59688Q402.79688 197.75313 402.78125 198.06563L395.04688 198.06563Q395.14062 199.76875 396.01562 200.675Q396.89062 201.58125 398.1875 201.58125Q399.15625 201.58125 399.82812 201.08125Q400.51562 200.56563 400.92188 199.45625ZM395.14062 196.6125L400.9375 196.6125Q400.82812 195.31563 400.28125 194.65938Q399.4375 193.64375 398.09375 193.64375Q396.89062 193.64375 396.0625 194.45625Q395.23438 195.25313 395.14062 196.6125ZM411.60938 202.8L411.60938 201.26875Q410.40625 203.03438 408.32812 203.03438Q407.40625 203.03438 406.60938 202.69063Q405.8125 202.33125 405.42188 201.8Q405.04688 201.26875 404.89062 200.4875Q404.78125 199.97188 404.78125 198.84688L404.78125 192.425L406.53125 192.425L406.53125 198.175Q406.53125 199.55 406.64062 200.03438Q406.8125 200.72188 407.34375 201.12813Q407.89062 201.51875 408.67188 201.51875Q409.46875 201.51875 410.15625 201.1125Q410.85938 200.70625 411.14062 200.01875Q411.4375 199.31563 411.4375 197.9875L411.4375 192.425L413.1875 192.425L413.1875 202.8L411.60938 202.8ZM418.65625 201.22188L418.90625 202.78438Q418.17188 202.94063 417.57812 202.94063Q416.625 202.94063 416.09375 202.64375Q415.57812 202.33125 415.35938 201.84688Q415.14062 201.34688 415.14062 199.76875L415.14062 193.8L413.85938 193.8L413.85938 192.425L415.14062 192.425L415.14062 189.8625L416.89062 188.8L416.89062 192.425L418.65625 192.425L418.65625 193.8L416.89062 193.8L416.89062 199.8625Q416.89062 200.6125 416.98438 200.83125Q417.07812 201.03438 417.28125 201.175Q417.5 201.3 417.89062 201.3Q418.17188 201.3 418.65625 201.22188ZM420.79688 202.8L420.79688 192.425L422.375 192.425L422.375 194.00313Q422.98438 192.89375 423.5 192.55Q424.01562 192.19063 424.625 192.19063Q425.51562 192.19063 426.4375 192.75313L425.82812 194.39375Q425.1875 194.00313 424.54688 194.00313Q423.96875 194.00313 423.5 194.3625Q423.04688 194.70625 422.84375 195.31563Q422.5625 196.25313 422.5625 197.3625L422.5625 202.8L420.79688 202.8ZM434.59375 201.51875Q433.60938 202.34688 432.70312 202.69063Q431.79688 203.03438 430.76562 203.03438Q429.0625 203.03438 428.14062 202.20625Q427.21875 201.3625 427.21875 200.06563Q427.21875 199.3 427.5625 198.675Q427.92188 198.05 428.48438 197.675Q429.04688 197.28438 429.75 197.08125Q430.26562 196.95625 431.3125 196.81563Q433.4375 196.56563 434.4375 196.22188Q434.45312 195.8625 434.45312 195.75313Q434.45312 194.69063 433.95312 194.2375Q433.28125 193.64375 431.95312 193.64375Q430.70312 193.64375 430.10938 194.08125Q429.53125 194.51875 429.25 195.62813L427.53125 195.39375Q427.76562 194.28438 428.29688 193.6125Q428.82812 192.925 429.84375 192.56563Q430.85938 192.19063 432.20312 192.19063Q433.53125 192.19063 434.35938 192.50313Q435.1875 192.81563 435.57812 193.3Q435.96875 193.76875 436.125 194.4875Q436.21875 194.94063 436.21875 196.1125L436.21875 198.45625Q436.21875 200.90938 436.32812 201.56563Q436.4375 202.20625 436.78125 202.8L434.9375 202.8Q434.67188 202.25313 434.59375 201.51875ZM434.4375 197.59688Q433.48438 197.9875 431.5625 198.25313Q430.48438 198.40938 430.03125 198.6125Q429.59375 198.8 429.34375 199.175Q429.09375 199.55 429.09375 200.01875Q429.09375 200.72188 429.625 201.19063Q430.15625 201.65938 431.1875 201.65938Q432.20312 201.65938 432.98438 201.22188Q433.78125 200.76875 434.15625 200.00313Q434.4375 199.39375 434.4375 198.2375L434.4375 197.59688ZM438.78125 202.8L438.78125 188.4875L440.53125 188.4875L440.53125 202.8L438.78125 202.8Z" fill-rule="nonzero"/><path fill="#000000" d="M264.0235 202.8L264.0235 188.4875L268.94537 188.4875Q270.61725 188.4875 271.50787 188.69063Q272.72662 188.97188 273.60162 189.70625Q274.72662 190.675 275.28912 192.15938Q275.85162 193.64375 275.85162 195.56563Q275.85162 197.19063 275.47662 198.45625Q275.10162 199.70625 274.49225 200.53438Q273.8985 201.3625 273.19537 201.84688Q272.49225 202.31563 271.49225 202.56563Q270.49225 202.8 269.17975 202.8L264.0235 202.8ZM265.91412 201.1125L268.97662 201.1125Q270.38287 201.1125 271.17975 200.84688Q271.99225 200.58125 272.47662 200.09688Q273.1485 199.425 273.5235 198.3Q273.8985 197.15938 273.8985 195.53438Q273.8985 193.28438 273.16412 192.08125Q272.42975 190.87813 271.36725 190.47188Q270.61725 190.175 268.92975 190.175L265.91412 190.175L265.91412 201.1125ZM277.80475 190.50313L277.80475 188.4875L279.57037 188.4875L279.57037 190.50313L277.80475 190.50313ZM277.80475 202.8L277.80475 192.425L279.57037 192.425L279.57037 202.8L277.80475 202.8ZM281.086 199.70625L282.836 199.425Q282.97662 200.47188 283.6485 201.03438Q284.32037 201.58125 285.5235 201.58125Q286.72662 201.58125 287.30475 201.09688Q287.8985 200.59688 287.8985 199.94063Q287.8985 199.34688 287.38287 199.00313Q287.0235 198.76875 285.586 198.40938Q283.6485 197.90938 282.8985 197.56563Q282.16412 197.20625 281.7735 196.58125Q281.38287 195.94063 281.38287 195.175Q281.38287 194.4875 281.69537 193.89375Q282.0235 193.3 282.57037 192.90938Q282.97662 192.6125 283.67975 192.40938Q284.3985 192.19063 285.211 192.19063Q286.42975 192.19063 287.35162 192.55Q288.2735 192.89375 288.711 193.50313Q289.1485 194.09688 289.32037 195.09688L287.60162 195.33125Q287.47662 194.53438 286.91412 194.09688Q286.35162 193.64375 285.336 193.64375Q284.11725 193.64375 283.60162 194.05Q283.086 194.44063 283.086 194.97188Q283.086 195.31563 283.30475 195.59688Q283.50787 195.87813 283.97662 196.06563Q284.24225 196.15938 285.5235 196.50313Q287.3985 197.00313 288.13287 197.33125Q288.86725 197.64375 289.28912 198.25313Q289.711 198.84688 289.711 199.75313Q289.711 200.62813 289.19537 201.40938Q288.67975 202.19063 287.711 202.6125Q286.74225 203.03438 285.5235 203.03438Q283.50787 203.03438 282.44537 202.19063Q281.38287 201.34688 281.086 199.70625ZM298.57037 201.51875Q297.586 202.34688 296.67975 202.69063Q295.7735 203.03438 294.74225 203.03438Q293.03912 203.03438 292.11725 202.20625Q291.19537 201.3625 291.19537 200.06563Q291.19537 199.3 291.53912 198.675Q291.8985 198.05 292.461 197.675Q293.0235 197.28438 293.72662 197.08125Q294.24225 196.95625 295.28912 196.81563Q297.41412 196.56563 298.41412 196.22188Q298.42975 195.8625 298.42975 195.75313Q298.42975 194.69063 297.92975 194.2375Q297.25787 193.64375 295.92975 193.64375Q294.67975 193.64375 294.086 194.08125Q293.50787 194.51875 293.22662 195.62813L291.50787 195.39375Q291.74225 194.28438 292.2735 193.6125Q292.80475 192.925 293.82037 192.56563Q294.836 192.19063 296.17975 192.19063Q297.50787 192.19063 298.336 192.50313Q299.16412 192.81563 299.55475 193.3Q299.94537 193.76875 300.10162 194.4875Q300.19537 194.94063 300.19537 196.1125L300.19537 198.45625Q300.19537 200.90938 300.30475 201.56563Q300.41412 202.20625 300.75787 202.8L298.91412 202.8Q298.6485 202.25313 298.57037 201.51875ZM298.41412 197.59688Q297.461 197.9875 295.53912 198.25313Q294.461 198.40938 294.00787 198.6125Q293.57037 198.8 293.32037 199.175Q293.07037 199.55 293.07037 200.01875Q293.07037 200.72188 293.60162 201.19063Q294.13287 201.65938 295.16412 201.65938Q296.17975 201.65938 296.961 201.22188Q297.75787 200.76875 298.13287 200.00313Q298.41412 199.39375 298.41412 198.2375L298.41412 197.59688ZM302.47662 203.65938L304.17975 203.90938Q304.28912 204.70625 304.7735 205.06563Q305.42975 205.55 306.57037 205.55Q307.78912 205.55 308.44537 205.06563Q309.11725 204.58125 309.35162 203.70625Q309.49225 203.15938 309.47662 201.44063Q308.32037 202.8 306.60162 202.8Q304.461 202.8 303.28912 201.25313Q302.11725 199.70625 302.11725 197.55Q302.11725 196.06563 302.6485 194.81563Q303.19537 193.56563 304.211 192.87813Q305.24225 192.19063 306.61725 192.19063Q308.44537 192.19063 309.6485 193.675L309.6485 192.425L311.25787 192.425L311.25787 201.39375Q311.25787 203.81563 310.75787 204.81563Q310.2735 205.83125 309.19537 206.40938Q308.13287 207.00313 306.57037 207.00313Q304.72662 207.00313 303.57037 206.175Q302.42975 205.34688 302.47662 203.65938ZM303.92975 197.425Q303.92975 199.47188 304.74225 200.40938Q305.55475 201.34688 306.7735 201.34688Q307.97662 201.34688 308.78912 200.40938Q309.61725 199.47188 309.61725 197.4875Q309.61725 195.58125 308.7735 194.6125Q307.92975 193.64375 306.74225 193.64375Q305.57037 193.64375 304.74225 194.59688Q303.92975 195.55 303.92975 197.425ZM313.7735 202.8L313.7735 192.425L315.35162 192.425L315.35162 194.00313Q315.961 192.89375 316.47662 192.55Q316.99225 192.19063 317.60162 192.19063Q318.49225 192.19063 319.41412 192.75313L318.80475 194.39375Q318.16412 194.00313 317.5235 194.00313Q316.94537 194.00313 316.47662 194.3625Q316.0235 194.70625 315.82037 195.31563Q315.53912 196.25313 315.53912 197.3625L315.53912 202.8L313.7735 202.8ZM327.8985 199.45625L329.711 199.69063Q329.28912 201.26875 328.11725 202.15938Q326.961 203.03438 325.1485 203.03438Q322.88287 203.03438 321.53912 201.64375Q320.211 200.2375 320.211 197.70625Q320.211 195.08125 321.55475 193.64375Q322.8985 192.19063 325.05475 192.19063Q327.13287 192.19063 328.44537 193.6125Q329.7735 195.01875 329.7735 197.59688Q329.7735 197.75313 329.75787 198.06563L322.0235 198.06563Q322.11725 199.76875 322.99225 200.675Q323.86725 201.58125 325.16412 201.58125Q326.13287 201.58125 326.80475 201.08125Q327.49225 200.56563 327.8985 199.45625ZM322.11725 196.6125L327.91412 196.6125Q327.80475 195.31563 327.25787 194.65938Q326.41412 193.64375 325.07037 193.64375Q323.86725 193.64375 323.03912 194.45625Q322.211 195.25313 322.11725 196.6125ZM338.8985 199.45625L340.711 199.69063Q340.28912 201.26875 339.11725 202.15938Q337.961 203.03438 336.1485 203.03438Q333.88287 203.03438 332.53912 201.64375Q331.211 200.2375 331.211 197.70625Q331.211 195.08125 332.55475 193.64375Q333.8985 192.19063 336.05475 192.19063Q338.13287 192.19063 339.44537 193.6125Q340.7735 195.01875 340.7735 197.59688Q340.7735 197.75313 340.75787 198.06563L333.0235 198.06563Q333.11725 199.76875 333.99225 200.675Q334.86725 201.58125 336.16412 201.58125Q337.13287 201.58125 337.80475 201.08125Q338.49225 200.56563 338.8985 199.45625ZM333.11725 196.6125L338.91412 196.6125Q338.80475 195.31563 338.25787 194.65938Q337.41412 193.64375 336.07037 193.64375Q334.86725 193.64375 334.03912 194.45625Q333.211 195.25313 333.11725 196.6125Z" fill-rule="nonzero"/><path fill="#000000" d="M158.35953 198.20625L160.14078 198.05Q160.26578 199.1125 160.7189 199.8Q161.18765 200.4875 162.1564 200.925Q163.14078 201.34688 164.37515 201.34688Q165.45328 201.34688 166.2814 201.03438Q167.10953 200.70625 167.51578 200.14375Q167.92203 199.58125 167.92203 198.90938Q167.92203 198.2375 167.5314 197.7375Q167.14078 197.2375 166.25015 196.89375Q165.67203 196.65938 163.68765 196.19063Q161.7189 195.72188 160.93765 195.3Q159.9064 194.76875 159.4064 193.97188Q158.9064 193.175 158.9064 192.19063Q158.9064 191.09688 159.51578 190.15938Q160.12515 189.22188 161.31265 188.7375Q162.50015 188.2375 163.93765 188.2375Q165.5314 188.2375 166.75015 188.75313Q167.9689 189.26875 168.60953 190.26875Q169.26578 191.25313 169.31265 192.51875L167.50015 192.65938Q167.35953 191.3 166.51578 190.6125Q165.67203 189.90938 164.01578 189.90938Q162.29703 189.90938 161.50015 190.55Q160.7189 191.175 160.7189 192.05Q160.7189 192.83125 161.2814 193.33125Q161.82828 193.83125 164.14078 194.34688Q166.45328 194.8625 167.31265 195.25313Q168.56265 195.83125 169.1564 196.72188Q169.75015 197.59688 169.75015 198.75313Q169.75015 199.89375 169.0939 200.90938Q168.43765 201.925 167.20328 202.4875Q165.98453 203.05 164.45328 203.05Q162.51578 203.05 161.20328 202.4875Q159.89078 201.90938 159.14078 200.76875Q158.39078 199.62813 158.35953 198.20625ZM175.60953 201.22188L175.85953 202.78438Q175.12515 202.94063 174.5314 202.94063Q173.57828 202.94063 173.04703 202.64375Q172.5314 202.33125 172.31265 201.84688Q172.0939 201.34688 172.0939 199.76875L172.0939 193.8L170.81265 193.8L170.81265 192.425L172.0939 192.425L172.0939 189.8625L173.8439 188.8L173.8439 192.425L175.60953 192.425L175.60953 193.8L173.8439 193.8L173.8439 199.8625Q173.8439 200.6125 173.93765 200.83125Q174.0314 201.03438 174.23453 201.175Q174.45328 201.3 174.8439 201.3Q175.12515 201.3 175.60953 201.22188ZM177.75015 202.8L177.75015 192.425L179.32828 192.425L179.32828 194.00313Q179.93765 192.89375 180.45328 192.55Q180.9689 192.19063 181.57828 192.19063Q182.4689 192.19063 183.39078 192.75313L182.7814 194.39375Q182.14078 194.00313 181.50015 194.00313Q180.92203 194.00313 180.45328 194.3625Q180.00015 194.70625 179.79703 195.31563Q179.51578 196.25313 179.51578 197.3625L179.51578 202.8L177.75015 202.8ZM184.12515 197.6125Q184.12515 194.7375 185.7189 193.34688Q187.06265 192.19063 188.98453 192.19063Q191.12515 192.19063 192.4689 193.59688Q193.82828 195.00313 193.82828 197.47188Q193.82828 199.47188 193.23453 200.62813Q192.64078 201.76875 191.48453 202.40938Q190.3439 203.03438 188.98453 203.03438Q186.79703 203.03438 185.45328 201.64375Q184.12515 200.2375 184.12515 197.6125ZM185.92203 197.6125Q185.92203 199.6125 186.7814 200.59688Q187.6564 201.58125 188.98453 201.58125Q190.29703 201.58125 191.1564 200.59688Q192.0314 199.59688 192.0314 197.55Q192.0314 195.62813 191.1564 194.64375Q190.2814 193.64375 188.98453 193.64375Q187.6564 193.64375 186.7814 194.64375Q185.92203 195.62813 185.92203 197.6125ZM195.76578 202.8L195.76578 192.425L197.35953 192.425L197.35953 193.90938Q198.50015 192.19063 200.6564 192.19063Q201.5939 192.19063 202.37515 192.53438Q203.17203 192.8625 203.56265 193.40938Q203.95328 193.95625 204.10953 194.70625Q204.20328 195.20625 204.20328 196.425L204.20328 202.8L202.43765 202.8L202.43765 196.4875Q202.43765 195.40938 202.23453 194.87813Q202.0314 194.34688 201.50015 194.03438Q200.98453 193.72188 200.2814 193.72188Q199.1564 193.72188 198.3439 194.44063Q197.5314 195.14375 197.5314 197.12813L197.5314 202.8L195.76578 202.8ZM205.45328 203.65938L207.1564 203.90938Q207.26578 204.70625 207.75015 205.06563Q208.4064 205.55 209.54703 205.55Q210.76578 205.55 211.42203 205.06563Q212.0939 204.58125 212.32828 203.70625Q212.4689 203.15938 212.45328 201.44063Q211.29703 202.8 209.57828 202.8Q207.43765 202.8 206.26578 201.25313Q205.0939 199.70625 205.0939 197.55Q205.0939 196.06563 205.62515 194.81563Q206.17203 193.56563 207.18765 192.87813Q208.2189 192.19063 209.5939 192.19063Q211.42203 192.19063 212.62515 193.675L212.62515 192.425L214.23453 192.425L214.23453 201.39375Q214.23453 203.81563 213.73453 204.81563Q213.25015 205.83125 212.17203 206.40938Q211.10953 207.00313 209.54703 207.00313Q207.70328 207.00313 206.54703 206.175Q205.4064 205.34688 205.45328 203.65938ZM206.9064 197.425Q206.9064 199.47188 207.7189 200.40938Q208.5314 201.34688 209.75015 201.34688Q210.95328 201.34688 211.76578 200.40938Q212.5939 199.47188 212.5939 197.4875Q212.5939 195.58125 211.75015 194.6125Q210.9064 193.64375 209.7189 193.64375Q208.54703 193.64375 207.7189 194.59688Q206.9064 195.55 206.9064 197.425ZM216.73453 202.8L216.73453 188.4875L218.48453 188.4875L218.48453 202.8L216.73453 202.8ZM220.68765 206.8L220.50015 205.14375Q221.07828 205.3 221.50015 205.3Q222.0939 205.3 222.43765 205.09688Q222.79703 204.90938 223.01578 204.56563Q223.18765 204.3 223.56265 203.25313Q223.60953 203.09688 223.7189 202.81563L219.7814 192.425L221.67203 192.425L223.82828 198.44063Q224.25015 199.58125 224.57828 200.83125Q224.89078 199.62813 225.29703 198.47188L227.51578 192.425L229.2814 192.425L225.32828 202.97188Q224.70328 204.69063 224.3439 205.33125Q223.87515 206.20625 223.26578 206.59688Q222.67203 207.00313 221.82828 207.00313Q221.31265 207.00313 220.68765 206.8Z" fill-rule="nonzero"/><path fill="#000000" d="M155.50015 226.8L155.50015 212.4875L160.42203 212.4875Q162.0939 212.4875 162.98453 212.69063Q164.20328 212.97188 165.07828 213.70625Q166.20328 214.675 166.76578 216.15938Q167.32828 217.64375 167.32828 219.56563Q167.32828 221.19063 166.95328 222.45625Q166.57828 223.70625 165.9689 224.53438Q165.37515 225.3625 164.67203 225.84688Q163.9689 226.31563 162.9689 226.56563Q161.9689 226.8 160.6564 226.8L155.50015 226.8ZM157.39078 225.1125L160.45328 225.1125Q161.85953 225.1125 162.6564 224.84688Q163.4689 224.58125 163.95328 224.09688Q164.62515 223.425 165.00015 222.3Q165.37515 221.15938 165.37515 219.53438Q165.37515 217.28438 164.64078 216.08125Q163.9064 214.87813 162.8439 214.47188Q162.0939 214.175 160.4064 214.175L157.39078 214.175L157.39078 225.1125ZM169.2814 214.50313L169.2814 212.4875L171.04703 212.4875L171.04703 214.50313L169.2814 214.50313ZM169.2814 226.8L169.2814 216.425L171.04703 216.425L171.04703 226.8L169.2814 226.8ZM172.56265 223.70625L174.31265 223.425Q174.45328 224.47188 175.12515 225.03438Q175.79703 225.58125 177.00015 225.58125Q178.20328 225.58125 178.7814 225.09688Q179.37515 224.59688 179.37515 223.94063Q179.37515 223.34688 178.85953 223.00313Q178.50015 222.76875 177.06265 222.40938Q175.12515 221.90938 174.37515 221.56563Q173.64078 221.20625 173.25015 220.58125Q172.85953 219.94063 172.85953 219.175Q172.85953 218.4875 173.17203 217.89375Q173.50015 217.3 174.04703 216.90938Q174.45328 216.6125 175.1564 216.40938Q175.87515 216.19063 176.68765 216.19063Q177.9064 216.19063 178.82828 216.55Q179.75015 216.89375 180.18765 217.50313Q180.62515 218.09688 180.79703 219.09688L179.07828 219.33125Q178.95328 218.53438 178.39078 218.09688Q177.82828 217.64375 176.81265 217.64375Q175.5939 217.64375 175.07828 218.05Q174.56265 218.44063 174.56265 218.97188Q174.56265 219.31563 174.7814 219.59688Q174.98453 219.87813 175.45328 220.06563Q175.7189 220.15938 177.00015 220.50313Q178.87515 221.00313 179.60953 221.33125Q180.3439 221.64375 180.76578 222.25313Q181.18765 222.84688 181.18765 223.75313Q181.18765 224.62813 180.67203 225.40938Q180.1564 226.19063 179.18765 226.6125Q178.2189 227.03438 177.00015 227.03438Q174.98453 227.03438 173.92203 226.19063Q172.85953 225.34688 172.56265 223.70625ZM190.04703 225.51875Q189.06265 226.34688 188.1564 226.69063Q187.25015 227.03438 186.2189 227.03438Q184.51578 227.03438 183.5939 226.20625Q182.67203 225.3625 182.67203 224.06563Q182.67203 223.3 183.01578 222.675Q183.37515 222.05 183.93765 221.675Q184.50015 221.28438 185.20328 221.08125Q185.7189 220.95625 186.76578 220.81563Q188.89078 220.56563 189.89078 220.22188Q189.9064 219.8625 189.9064 219.75313Q189.9064 218.69063 189.4064 218.2375Q188.73453 217.64375 187.4064 217.64375Q186.1564 217.64375 185.56265 218.08125Q184.98453 218.51875 184.70328 219.62813L182.98453 219.39375Q183.2189 218.28438 183.75015 217.6125Q184.2814 216.925 185.29703 216.56563Q186.31265 216.19063 187.6564 216.19063Q188.98453 216.19063 189.81265 216.50313Q190.64078 216.81563 191.0314 217.3Q191.42203 217.76875 191.57828 218.4875Q191.67203 218.94063 191.67203 220.1125L191.67203 222.45625Q191.67203 224.90938 191.7814 225.56563Q191.89078 226.20625 192.23453 226.8L190.39078 226.8Q190.12515 226.25313 190.04703 225.51875ZM189.89078 221.59688Q188.93765 221.9875 187.01578 222.25313Q185.93765 222.40938 185.48453 222.6125Q185.04703 222.8 184.79703 223.175Q184.54703 223.55 184.54703 224.01875Q184.54703 224.72188 185.07828 225.19063Q185.60953 225.65938 186.64078 225.65938Q187.6564 225.65938 188.43765 225.22188Q189.23453 224.76875 189.60953 224.00313Q189.89078 223.39375 189.89078 222.2375L189.89078 221.59688ZM193.95328 227.65938L195.6564 227.90938Q195.76578 228.70625 196.25015 229.06563Q196.9064 229.55 198.04703 229.55Q199.26578 229.55 199.92203 229.06563Q200.5939 228.58125 200.82828 227.70625Q200.9689 227.15938 200.95328 225.44063Q199.79703 226.8 198.07828 226.8Q195.93765 226.8 194.76578 225.25313Q193.5939 223.70625 193.5939 221.55Q193.5939 220.06563 194.12515 218.81563Q194.67203 217.56563 195.68765 216.87813Q196.7189 216.19063 198.0939 216.19063Q199.92203 216.19063 201.12515 217.675L201.12515 216.425L202.73453 216.425L202.73453 225.39375Q202.73453 227.81563 202.23453 228.81563Q201.75015 229.83125 200.67203 230.40938Q199.60953 231.00313 198.04703 231.00313Q196.20328 231.00313 195.04703 230.175Q193.9064 229.34688 193.95328 227.65938ZM195.4064 221.425Q195.4064 223.47188 196.2189 224.40938Q197.0314 225.34688 198.25015 225.34688Q199.45328 225.34688 200.26578 224.40938Q201.0939 223.47188 201.0939 221.4875Q201.0939 219.58125 200.25015 218.6125Q199.4064 217.64375 198.2189 217.64375Q197.04703 217.64375 196.2189 218.59688Q195.4064 219.55 195.4064 221.425ZM205.25015 226.8L205.25015 216.425L206.82828 216.425L206.82828 218.00313Q207.43765 216.89375 207.95328 216.55Q208.4689 216.19063 209.07828 216.19063Q209.9689 216.19063 210.89078 216.75313L210.2814 218.39375Q209.64078 218.00313 209.00015 218.00313Q208.42203 218.00313 207.95328 218.3625Q207.50015 218.70625 207.29703 219.31563Q207.01578 220.25313 207.01578 221.3625L207.01578 226.8L205.25015 226.8ZM219.37515 223.45625L221.18765 223.69063Q220.76578 225.26875 219.5939 226.15938Q218.43765 227.03438 216.62515 227.03438Q214.35953 227.03438 213.01578 225.64375Q211.68765 224.2375 211.68765 221.70625Q211.68765 219.08125 213.0314 217.64375Q214.37515 216.19063 216.5314 216.19063Q218.60953 216.19063 219.92203 217.6125Q221.25015 219.01875 221.25015 221.59688Q221.25015 221.75313 221.23453 222.06563L213.50015 222.06563Q213.5939 223.76875 214.4689 224.675Q215.3439 225.58125 216.64078 225.58125Q217.60953 225.58125 218.2814 225.08125Q218.9689 224.56563 219.37515 223.45625ZM213.5939 220.6125L219.39078 220.6125Q219.2814 219.31563 218.73453 218.65938Q217.89078 217.64375 216.54703 217.64375Q215.3439 217.64375 214.51578 218.45625Q213.68765 219.25313 213.5939 220.6125ZM230.37515 223.45625L232.18765 223.69063Q231.76578 225.26875 230.5939 226.15938Q229.43765 227.03438 227.62515 227.03438Q225.35953 227.03438 224.01578 225.64375Q222.68765 224.2375 222.68765 221.70625Q222.68765 219.08125 224.0314 217.64375Q225.37515 216.19063 227.5314 216.19063Q229.60953 216.19063 230.92203 217.6125Q232.25015 219.01875 232.25015 221.59688Q232.25015 221.75313 232.23453 222.06563L224.50015 222.06563Q224.5939 223.76875 225.4689 224.675Q226.3439 225.58125 227.64078 225.58125Q228.60953 225.58125 229.2814 225.08125Q229.9689 224.56563 230.37515 223.45625ZM224.5939 220.6125L230.39078 220.6125Q230.2814 219.31563 229.73453 218.65938Q228.89078 217.64375 227.54703 217.64375Q226.3439 217.64375 225.51578 218.45625Q224.68765 219.25313 224.5939 220.6125Z" fill-rule="nonzero"/></svg>