<svg version="1.1" viewBox="0.0 0.0 713.0 244.0" fill="none" stroke="none" stroke-linecap="square" stroke-miterlimit="10" width="713" height="244" xmlns:xlink="http://www.w3.org/1999/xlink" xmlns="http://www.w3.org/2000/svg"><path fill="#ffffff" d="M0 0L713.0 0L713.0 244.0L0 244.0L0 0Z" fill-rule="nonzero"/><path stroke="#333333" stroke-width="1.0" stroke-linecap="butt" d="M143.5 150.5L700.5 150.5" fill-rule="nonzero"/><path fill="#eeeeee" d="M120.5 173.5L143.5 151.5L700.5 151.5L677.5 173.5Z" fill-rule="nonzero"/><path stroke="#cccccc" stroke-width="1.0" stroke-linecap="butt" d="M143.5 119.5L700.5 119.5" fill-rule="nonzero"/><path stroke="#cccccc" stroke-width="1.0" stroke-linecap="butt" d="M143.5 87.5L700.5 87.5" fill-rule="nonzero"/><path stroke="#cccccc" stroke-width="1.0" stroke-linecap="butt" d="M143.5 55.5L700.5 55.5" fill-rule="nonzero"/><path stroke="#cccccc" stroke-width="1.0" stroke-linecap="butt" d="M143.5 24.5L700.5 24.5" fill-rule="nonzero"/><clipPath id="id_0"><path d="M120.2 24.2L700.8 24.2L700.8 173.8L120.2 173.8L120.2 24.2Z" clip-rule="nonzero"/></clipPath><path fill="#9c3e2a" clip-path="url(#id_0)" d="M673.0 45.0L673.0 151.0L655.0 169.0L655.0 63.0Z" fill-rule="nonzero"/><path fill="#f37f66" clip-path="url(#id_0)" d="M655.0 63.0L584.0 63.0L602.0 45.0L673.0 45.0Z" fill-rule="nonzero"/><path stroke="#000000" stroke-width="2.0" stroke-linecap="butt" stroke-opacity="0.0" clip-path="url(#id_0)" d="M655.0 169.0L584.0 169.0L584.0 63.0L655.0 63.0Z" fill-rule="nonzero"/><path fill="#f05f40" clip-path="url(#id_0)" d="M655.0 169.0L584.0 169.0L584.0 63.0L655.0 63.0Z" fill-rule="nonzero"/><path fill="#9c3e2a" clip-path="url(#id_0)" d="M564.0 110.0L564.0 151.0L546.0 169.0L546.0 128.0Z" fill-rule="nonzero"/><path fill="#f37f66" clip-path="url(#id_0)" d="M546.0 128.0L475.0 128.0L493.0 110.0L564.0 110.0Z" fill-rule="nonzero"/><path stroke="#000000" stroke-width="2.0" stroke-linecap="butt" stroke-opacity="0.0" clip-path="url(#id_0)" d="M546.0 169.0L475.0 169.0L475.0 128.0L546.0 128.0Z" fill-rule="nonzero"/><path fill="#f05f40" clip-path="url(#id_0)" d="M546.0 169.0L475.0 169.0L475.0 128.0L546.0 128.0Z" fill-rule="nonzero"/><path fill="#9c3e2a" clip-path="url(#id_0)" d="M456.0 147.0L456.0 151.0L438.0 169.0L438.0 165.0Z" fill-rule="nonzero"/><path fill="#f37f66" clip-path="url(#id_0)" d="M438.0 165.0L367.0 165.0L385.0 147.0L456.0 147.0Z" fill-rule="nonzero"/><path stroke="#000000" stroke-width="2.0" stroke-linecap="butt" stroke-opacity="0.0" clip-path="url(#id_0)" d="M438.0 169.0L367.0 169.0L367.0 165.0L438.0 165.0Z" fill-rule="nonzero"/><path fill="#f05f40" clip-path="url(#id_0)" d="M438.0 169.0L367.0 169.0L367.0 165.0L438.0 165.0Z" fill-rule="nonzero"/><path fill="#9c3e2a" clip-path="url(#id_0)" d="M347.0 150.0L347.0 151.0L329.0 169.0L329.0 168.0Z" fill-rule="nonzero"/><path fill="#f37f66" clip-path="url(#id_0)" d="M329.0 168.0L258.0 168.0L276.0 150.0L347.0 150.0Z" fill-rule="nonzero"/><path stroke="#000000" stroke-width="2.0" stroke-linecap="butt" stroke-opacity="0.0" clip-path="url(#id_0)" d="M329.0 169.0L258.0 169.0L258.0 168.0L329.0 168.0Z" fill-rule="nonzero"/><path fill="#f05f40" clip-path="url(#id_0)" d="M329.0 169.0L258.0 169.0L258.0 168.0L329.0 168.0Z" fill-rule="nonzero"/><path fill="#9c3e2a" clip-path="url(#id_0)" d="M238.0 150.0L238.0 151.0L220.0 169.0L220.0 168.0Z" fill-rule="nonzero"/><path fill="#f37f66" clip-path="url(#id_0)" d="M220.0 168.0L149.0 168.0L167.0 150.0L238.0 150.0Z" fill-rule="nonzero"/><path stroke="#000000" stroke-width="2.0" stroke-linecap="butt" stroke-opacity="0.0" clip-path="url(#id_0)" d="M220.0 169.0L149.0 169.0L149.0 168.0L220.0 168.0Z" fill-rule="nonzero"/><path fill="#f05f40" clip-path="url(#id_0)" d="M220.0 169.0L149.0 169.0L149.0 168.0L220.0 168.0Z" fill-rule="nonzero"/><path stroke="#f05f40" stroke-width="3.0" stroke-linejoin="round" stroke-linecap="round" d="M609.96875 70.883L609.96875 71.78925L609.7656 71.78925Q608.5 71.8205 607.75 72.55488Q607.0 73.27363 606.875 74.58613Q607.5625 73.8205 608.71875 73.8205Q609.8281 73.8205 610.5 74.60175Q611.1719 75.383 611.1719 76.633Q611.1719 77.9455 610.4531 78.74238Q609.7344 79.53925 608.5156 79.53925Q607.2969 79.53925 606.53125 78.60175Q605.78125 77.64863 605.78125 76.16425L605.78125 75.758Q605.78125 73.39863 606.78125 72.14863Q607.78125 70.89863 609.7656 70.883L609.96875 70.883ZM608.5469 74.72675Q607.9844 74.72675 607.5156 75.05488Q607.0469 75.383 606.8594 75.89863L606.8594 76.28925Q606.8594 77.35175 607.3281 77.99238Q607.8125 78.633 608.5156 78.633Q609.25 78.633 609.6719 78.10175Q610.09375 77.55488 610.09375 76.67988Q610.09375 75.80488 609.6719 75.27363Q609.25 74.72675 608.5469 74.72675ZM618.21875 71.49238L614.6875 79.41425L613.5469 79.41425L617.0625 71.77363L612.4531 71.77363L612.4531 70.883L618.21875 70.883L618.21875 71.49238ZM623.2656 79.41425L622.1875 79.41425L622.1875 72.1955L620.0 72.99238L620.0 72.008L623.1094 70.83613L623.2656 70.83613L623.2656 79.41425ZM632.0625 75.77363Q632.0625 77.67988 631.40625 78.61738Q630.7656 79.53925 629.375 79.53925Q628.0156 79.53925 627.3594 78.633Q626.7031 77.72675 626.6719 75.91425L626.6719 74.47675Q626.6719 72.58613 627.3125 71.67988Q627.96875 70.758 629.3594 70.758Q630.7344 70.758 631.3906 71.64863Q632.0469 72.52363 632.0625 74.36738L632.0625 75.77363ZM630.96875 74.28925Q630.96875 72.91425 630.5781 72.28925Q630.2031 71.64863 629.3594 71.64863Q628.53125 71.64863 628.1406 72.28925Q627.7656 72.91425 627.7656 74.21113L627.7656 75.9455Q627.7656 77.3205 628.15625 77.99238Q628.5625 78.64863 629.375 78.64863Q630.1719 78.64863 630.5625 78.02363Q630.9531 77.39863 630.96875 76.0705L630.96875 74.28925Z" fill-rule="nonzero"/><path fill="#000000" d="M609.96875 70.883L609.96875 71.78925L609.7656 71.78925Q608.5 71.8205 607.75 72.55488Q607.0 73.27363 606.875 74.58613Q607.5625 73.8205 608.71875 73.8205Q609.8281 73.8205 610.5 74.60175Q611.1719 75.383 611.1719 76.633Q611.1719 77.9455 610.4531 78.74238Q609.7344 79.53925 608.5156 79.53925Q607.2969 79.53925 606.53125 78.60175Q605.78125 77.64863 605.78125 76.16425L605.78125 75.758Q605.78125 73.39863 606.78125 72.14863Q607.78125 70.89863 609.7656 70.883L609.96875 70.883ZM608.5469 74.72675Q607.9844 74.72675 607.5156 75.05488Q607.0469 75.383 606.8594 75.89863L606.8594 76.28925Q606.8594 77.35175 607.3281 77.99238Q607.8125 78.633 608.5156 78.633Q609.25 78.633 609.6719 78.10175Q610.09375 77.55488 610.09375 76.67988Q610.09375 75.80488 609.6719 75.27363Q609.25 74.72675 608.5469 74.72675ZM618.21875 71.49238L614.6875 79.41425L613.5469 79.41425L617.0625 71.77363L612.4531 71.77363L612.4531 70.883L618.21875 70.883L618.21875 71.49238ZM623.2656 79.41425L622.1875 79.41425L622.1875 72.1955L620.0 72.99238L620.0 72.008L623.1094 70.83613L623.2656 70.83613L623.2656 79.41425ZM632.0625 75.77363Q632.0625 77.67988 631.40625 78.61738Q630.7656 79.53925 629.375 79.53925Q628.0156 79.53925 627.3594 78.633Q626.7031 77.72675 626.6719 75.91425L626.6719 74.47675Q626.6719 72.58613 627.3125 71.67988Q627.96875 70.758 629.3594 70.758Q630.7344 70.758 631.3906 71.64863Q632.0469 72.52363 632.0625 74.36738L632.0625 75.77363ZM630.96875 74.28925Q630.96875 72.91425 630.5781 72.28925Q630.2031 71.64863 629.3594 71.64863Q628.53125 71.64863 628.1406 72.28925Q627.7656 72.91425 627.7656 74.21113L627.7656 75.9455Q627.7656 77.3205 628.15625 77.99238Q628.5625 78.64863 629.375 78.64863Q630.1719 78.64863 630.5625 78.02363Q630.9531 77.39863 630.96875 76.0705L630.96875 74.28925Z" fill-rule="nonzero"/><path stroke="#f05f40" stroke-width="3.0" stroke-linejoin="round" stroke-linecap="round" d="M502.29688 144.62907L496.70312 144.62907L496.70312 143.84782L499.65625 140.56657Q500.3125 139.81657 500.5625 139.36345Q500.8125 138.8947 500.8125 138.3947Q500.8125 137.72282 500.40625 137.30095Q500.01562 136.86345 499.32812 136.86345Q498.53125 136.86345 498.07812 137.3322Q497.625 137.78532 497.625 138.61345L496.54688 138.61345Q496.54688 137.42595 497.29688 136.7072Q498.0625 135.97282 499.32812 135.97282Q500.53125 135.97282 501.21875 136.59782Q501.90625 137.22282 501.90625 138.2697Q501.90625 139.5197 500.29688 141.2697L498.01562 143.73845L502.29688 143.73845L502.29688 144.62907ZM504.20312 140.34782L504.64062 136.09782L509.01562 136.09782L509.01562 137.09782L505.5625 137.09782L505.29688 139.42595Q505.9375 139.05095 506.73438 139.05095Q507.89062 139.05095 508.57812 139.8322Q509.26562 140.59782 509.26562 141.91032Q509.26562 143.22282 508.54688 143.98845Q507.84375 144.75407 506.5625 144.75407Q505.4375 144.75407 504.71875 144.12907Q504.0 143.48845 503.90625 142.37907L504.92188 142.37907Q505.03125 143.11345 505.45312 143.48845Q505.875 143.86345 506.5625 143.86345Q507.3125 143.86345 507.75 143.34782Q508.1875 142.8322 508.1875 141.92595Q508.1875 141.06657 507.71875 140.55095Q507.25 140.03532 506.46875 140.03532Q505.76562 140.03532 505.35938 140.3322L505.07812 140.56657L504.20312 140.34782ZM515.8906 138.31657Q515.8906 138.9572 515.5469 139.4572Q515.2031 139.9572 514.6406 140.23845Q515.2969 140.5197 515.6875 141.0822Q516.0781 141.62907 516.0781 142.3322Q516.0781 143.42595 515.3281 144.09782Q514.59375 144.75407 513.375 144.75407Q512.1406 144.75407 511.39062 144.09782Q510.65625 143.42595 510.65625 142.3322Q510.65625 141.62907 511.03125 141.0822Q511.40625 140.5197 512.0781 140.23845Q511.51562 139.9572 511.1875 139.4572Q510.85938 138.9572 510.85938 138.31657Q510.85938 137.23845 511.54688 136.61345Q512.2344 135.97282 513.375 135.97282Q514.5 135.97282 515.1875 136.61345Q515.8906 137.23845 515.8906 138.31657ZM515.0 142.30095Q515.0 141.5822 514.5469 141.1447Q514.09375 140.69157 513.3594 140.69157Q512.625 140.69157 512.1719 141.1447Q511.73438 141.5822 511.73438 142.31657Q511.73438 143.03532 512.1719 143.4572Q512.6094 143.86345 513.375 143.86345Q514.125 143.86345 514.5625 143.44157Q515.0 143.0197 515.0 142.30095ZM513.375 136.86345Q512.7344 136.86345 512.3281 137.2697Q511.9375 137.66032 511.9375 138.34782Q511.9375 138.98845 512.3281 139.3947Q512.71875 139.80095 513.3594 139.80095Q514.0156 139.80095 514.40625 139.3947Q514.7969 138.98845 514.7969 138.34782Q514.7969 137.69157 514.3906 137.28532Q513.9844 136.86345 513.375 136.86345ZM521.8594 140.87907Q521.53125 141.28532 521.0469 141.53532Q520.5781 141.7697 520.0156 141.7697Q519.28125 141.7697 518.7344 141.41032Q518.1875 141.05095 517.8906 140.3947Q517.59375 139.72282 517.59375 138.92595Q517.59375 138.0822 517.90625 137.3947Q518.2344 136.7072 518.8281 136.34782Q519.4375 135.97282 520.2344 135.97282Q521.5 135.97282 522.21875 136.92595Q522.9531 137.87907 522.9531 139.50407L522.9531 139.81657Q522.9531 142.31657 521.96875 143.4572Q520.9844 144.59782 519.0 144.62907L518.78125 144.62907L518.78125 143.72282L519.0156 143.72282Q520.3594 143.69157 521.0781 143.0197Q521.7969 142.34782 521.8594 140.87907ZM520.1875 140.87907Q520.7344 140.87907 521.1875 140.55095Q521.65625 140.2072 521.875 139.72282L521.875 139.28532Q521.875 138.22282 521.40625 137.55095Q520.9375 136.87907 520.2344 136.87907Q519.5156 136.87907 519.0781 137.42595Q518.65625 137.97282 518.65625 138.87907Q518.65625 139.75407 519.0625 140.31657Q519.4844 140.87907 520.1875 140.87907Z" fill-rule="nonzero"/><path fill="#000000" d="M502.29688 144.62907L496.70312 144.62907L496.70312 143.84782L499.65625 140.56657Q500.3125 139.81657 500.5625 139.36345Q500.8125 138.8947 500.8125 138.3947Q500.8125 137.72282 500.40625 137.30095Q500.01562 136.86345 499.32812 136.86345Q498.53125 136.86345 498.07812 137.3322Q497.625 137.78532 497.625 138.61345L496.54688 138.61345Q496.54688 137.42595 497.29688 136.7072Q498.0625 135.97282 499.32812 135.97282Q500.53125 135.97282 501.21875 136.59782Q501.90625 137.22282 501.90625 138.2697Q501.90625 139.5197 500.29688 141.2697L498.01562 143.73845L502.29688 143.73845L502.29688 144.62907ZM504.20312 140.34782L504.64062 136.09782L509.01562 136.09782L509.01562 137.09782L505.5625 137.09782L505.29688 139.42595Q505.9375 139.05095 506.73438 139.05095Q507.89062 139.05095 508.57812 139.8322Q509.26562 140.59782 509.26562 141.91032Q509.26562 143.22282 508.54688 143.98845Q507.84375 144.75407 506.5625 144.75407Q505.4375 144.75407 504.71875 144.12907Q504.0 143.48845 503.90625 142.37907L504.92188 142.37907Q505.03125 143.11345 505.45312 143.48845Q505.875 143.86345 506.5625 143.86345Q507.3125 143.86345 507.75 143.34782Q508.1875 142.8322 508.1875 141.92595Q508.1875 141.06657 507.71875 140.55095Q507.25 140.03532 506.46875 140.03532Q505.76562 140.03532 505.35938 140.3322L505.07812 140.56657L504.20312 140.34782ZM515.8906 138.31657Q515.8906 138.9572 515.5469 139.4572Q515.2031 139.9572 514.6406 140.23845Q515.2969 140.5197 515.6875 141.0822Q516.0781 141.62907 516.0781 142.3322Q516.0781 143.42595 515.3281 144.09782Q514.59375 144.75407 513.375 144.75407Q512.1406 144.75407 511.39062 144.09782Q510.65625 143.42595 510.65625 142.3322Q510.65625 141.62907 511.03125 141.0822Q511.40625 140.5197 512.0781 140.23845Q511.51562 139.9572 511.1875 139.4572Q510.85938 138.9572 510.85938 138.31657Q510.85938 137.23845 511.54688 136.61345Q512.2344 135.97282 513.375 135.97282Q514.5 135.97282 515.1875 136.61345Q515.8906 137.23845 515.8906 138.31657ZM515.0 142.30095Q515.0 141.5822 514.5469 141.1447Q514.09375 140.69157 513.3594 140.69157Q512.625 140.69157 512.1719 141.1447Q511.73438 141.5822 511.73438 142.31657Q511.73438 143.03532 512.1719 143.4572Q512.6094 143.86345 513.375 143.86345Q514.125 143.86345 514.5625 143.44157Q515.0 143.0197 515.0 142.30095ZM513.375 136.86345Q512.7344 136.86345 512.3281 137.2697Q511.9375 137.66032 511.9375 138.34782Q511.9375 138.98845 512.3281 139.3947Q512.71875 139.80095 513.3594 139.80095Q514.0156 139.80095 514.40625 139.3947Q514.7969 138.98845 514.7969 138.34782Q514.7969 137.69157 514.3906 137.28532Q513.9844 136.86345 513.375 136.86345ZM521.8594 140.87907Q521.53125 141.28532 521.0469 141.53532Q520.5781 141.7697 520.0156 141.7697Q519.28125 141.7697 518.7344 141.41032Q518.1875 141.05095 517.8906 140.3947Q517.59375 139.72282 517.59375 138.92595Q517.59375 138.0822 517.90625 137.3947Q518.2344 136.7072 518.8281 136.34782Q519.4375 135.97282 520.2344 135.97282Q521.5 135.97282 522.21875 136.92595Q522.9531 137.87907 522.9531 139.50407L522.9531 139.81657Q522.9531 142.31657 521.96875 143.4572Q520.9844 144.59782 519.0 144.62907L518.78125 144.62907L518.78125 143.72282L519.0156 143.72282Q520.3594 143.69157 521.0781 143.0197Q521.7969 142.34782 521.8594 140.87907ZM520.1875 140.87907Q520.7344 140.87907 521.1875 140.55095Q521.65625 140.2072 521.875 139.72282L521.875 139.28532Q521.875 138.22282 521.40625 137.55095Q520.9375 136.87907 520.2344 136.87907Q519.5156 136.87907 519.0781 137.42595Q518.65625 137.97282 518.65625 138.87907Q518.65625 139.75407 519.0625 140.31657Q519.4844 140.87907 520.1875 140.87907Z" fill-rule="nonzero"/><path stroke="#ffffff" stroke-width="3.0" stroke-linejoin="round" stroke-linecap="round" d="M397.79688 149.51143L392.20312 149.51143L392.20312 148.73018L395.15625 145.44893Q395.8125 144.69893 396.0625 144.2458Q396.3125 143.77705 396.3125 143.27705Q396.3125 142.60518 395.90625 142.1833Q395.51562 141.7458 394.82812 141.7458Q394.03125 141.7458 393.57812 142.21455Q393.125 142.66768 393.125 143.4958L392.04688 143.4958Q392.04688 142.3083 392.79688 141.58955Q393.5625 140.85518 394.82812 140.85518Q396.03125 140.85518 396.71875 141.48018Q397.40625 142.10518 397.40625 143.15205Q397.40625 144.40205 395.79688 146.15205L393.51562 148.6208L397.79688 148.6208L397.79688 149.51143ZM404.71875 141.58955L401.1875 149.51143L400.04688 149.51143L403.5625 141.8708L398.95312 141.8708L398.95312 140.98018L404.71875 140.98018L404.71875 141.58955ZM409.76562 149.51143L408.6875 149.51143L408.6875 142.29268L406.5 143.08955L406.5 142.10518L409.60938 140.9333L409.76562 140.9333L409.76562 149.51143Z" fill-rule="nonzero"/><path fill="#f05f40" d="M397.79688 149.51143L392.20312 149.51143L392.20312 148.73018L395.15625 145.44893Q395.8125 144.69893 396.0625 144.2458Q396.3125 143.77705 396.3125 143.27705Q396.3125 142.60518 395.90625 142.1833Q395.51562 141.7458 394.82812 141.7458Q394.03125 141.7458 393.57812 142.21455Q393.125 142.66768 393.125 143.4958L392.04688 143.4958Q392.04688 142.3083 392.79688 141.58955Q393.5625 140.85518 394.82812 140.85518Q396.03125 140.85518 396.71875 141.48018Q397.40625 142.10518 397.40625 143.15205Q397.40625 144.40205 395.79688 146.15205L393.51562 148.6208L397.79688 148.6208L397.79688 149.51143ZM404.71875 141.58955L401.1875 149.51143L400.04688 149.51143L403.5625 141.8708L398.95312 141.8708L398.95312 140.98018L404.71875 140.98018L404.71875 141.58955ZM409.76562 149.51143L408.6875 149.51143L408.6875 142.29268L406.5 143.08955L406.5 142.10518L409.60938 140.9333L409.76562 140.9333L409.76562 149.51143Z" fill-rule="nonzero"/><path stroke="#ffffff" stroke-width="3.0" stroke-linejoin="round" stroke-linecap="round" d="M288.28125 148.43343L289.09375 148.43343Q289.875 148.4178 290.3125 148.02718Q290.75 147.63655 290.75 146.96468Q290.75 145.46468 289.25 145.46468Q288.54688 145.46468 288.125 145.87093Q287.71875 146.27718 287.71875 146.93343L286.625 146.93343Q286.625 145.9178 287.35938 145.24593Q288.10938 144.57405 289.25 144.57405Q290.45312 144.57405 291.14062 145.21468Q291.82812 145.8553 291.82812 146.99593Q291.82812 147.55843 291.46875 148.07405Q291.10938 148.58968 290.48438 148.8553Q291.1875 149.07405 291.5625 149.58968Q291.95312 150.1053 291.95312 150.8553Q291.95312 151.99593 291.20312 152.68343Q290.45312 153.3553 289.25 153.3553Q288.0625 153.3553 287.29688 152.69905Q286.54688 152.0428 286.54688 150.9803L287.64062 150.9803Q287.64062 151.65218 288.07812 152.05843Q288.51562 152.46468 289.26562 152.46468Q290.04688 152.46468 290.45312 152.05843Q290.875 151.63655 290.875 150.87093Q290.875 150.13655 290.42188 149.74593Q289.96875 149.33968 289.09375 149.32405L288.28125 149.32405L288.28125 148.43343ZM297.96875 144.69905L297.96875 145.6053L297.76562 145.6053Q296.5 145.63655 295.75 146.37093Q295.0 147.08968 294.875 148.40218Q295.5625 147.63655 296.71875 147.63655Q297.82812 147.63655 298.5 148.4178Q299.17188 149.19905 299.17188 150.44905Q299.17188 151.76155 298.45312 152.55843Q297.73438 153.3553 296.51562 153.3553Q295.29688 153.3553 294.53125 152.4178Q293.78125 151.46468 293.78125 149.9803L293.78125 149.57405Q293.78125 147.21468 294.78125 145.96468Q295.78125 144.71468 297.76562 144.69905L297.96875 144.69905ZM296.54688 148.5428Q295.98438 148.5428 295.51562 148.87093Q295.04688 149.19905 294.85938 149.71468L294.85938 150.1053Q294.85938 151.1678 295.32812 151.80843Q295.8125 152.44905 296.51562 152.44905Q297.25 152.44905 297.67188 151.9178Q298.09375 151.37093 298.09375 150.49593Q298.09375 149.62093 297.67188 149.08968Q297.25 148.5428 296.54688 148.5428Z" fill-rule="nonzero"/><path fill="#f05f40" d="M288.28125 148.43343L289.09375 148.43343Q289.875 148.4178 290.3125 148.02718Q290.75 147.63655 290.75 146.96468Q290.75 145.46468 289.25 145.46468Q288.54688 145.46468 288.125 145.87093Q287.71875 146.27718 287.71875 146.93343L286.625 146.93343Q286.625 145.9178 287.35938 145.24593Q288.10938 144.57405 289.25 144.57405Q290.45312 144.57405 291.14062 145.21468Q291.82812 145.8553 291.82812 146.99593Q291.82812 147.55843 291.46875 148.07405Q291.10938 148.58968 290.48438 148.8553Q291.1875 149.07405 291.5625 149.58968Q291.95312 150.1053 291.95312 150.8553Q291.95312 151.99593 291.20312 152.68343Q290.45312 153.3553 289.25 153.3553Q288.0625 153.3553 287.29688 152.69905Q286.54688 152.0428 286.54688 150.9803L287.64062 150.9803Q287.64062 151.65218 288.07812 152.05843Q288.51562 152.46468 289.26562 152.46468Q290.04688 152.46468 290.45312 152.05843Q290.875 151.63655 290.875 150.87093Q290.875 150.13655 290.42188 149.74593Q289.96875 149.33968 289.09375 149.32405L288.28125 149.32405L288.28125 148.43343ZM297.96875 144.69905L297.96875 145.6053L297.76562 145.6053Q296.5 145.63655 295.75 146.37093Q295.0 147.08968 294.875 148.40218Q295.5625 147.63655 296.71875 147.63655Q297.82812 147.63655 298.5 148.4178Q299.17188 149.19905 299.17188 150.44905Q299.17188 151.76155 298.45312 152.55843Q297.73438 153.3553 296.51562 153.3553Q295.29688 153.3553 294.53125 152.4178Q293.78125 151.46468 293.78125 149.9803L293.78125 149.57405Q293.78125 147.21468 294.78125 145.96468Q295.78125 144.71468 297.76562 144.69905L297.96875 144.69905ZM296.54688 148.5428Q295.98438 148.5428 295.51562 148.87093Q295.04688 149.19905 294.85938 149.71468L294.85938 150.1053Q294.85938 151.1678 295.32812 151.80843Q295.8125 152.44905 296.51562 152.44905Q297.25 152.44905 297.67188 151.9178Q298.09375 151.37093 298.09375 150.49593Q298.09375 149.62093 297.67188 149.08968Q297.25 148.5428 296.54688 148.5428Z" fill-rule="nonzero"/><path stroke="#ffffff" stroke-width="3.0" stroke-linejoin="round" stroke-linecap="round" d="M183.29688 153.4835L177.70312 153.4835L177.70312 152.70226L180.65625 149.421Q181.3125 148.671 181.5625 148.21788Q181.8125 147.74913 181.8125 147.24913Q181.8125 146.57726 181.40625 146.15538Q181.01562 145.71788 180.32812 145.71788Q179.53125 145.71788 179.07812 146.18663Q178.625 146.63976 178.625 147.46788L177.54688 147.46788Q177.54688 146.28038 178.29688 145.56163Q179.0625 144.82726 180.32812 144.82726Q181.53125 144.82726 182.21875 145.45226Q182.90625 146.07726 182.90625 147.12413Q182.90625 148.37413 181.29688 150.12413L179.01562 152.59288L183.29688 152.59288L183.29688 153.4835ZM190.0625 149.84288Q190.0625 151.74913 189.40625 152.68663Q188.76562 153.6085 187.375 153.6085Q186.01562 153.6085 185.35938 152.70226Q184.70312 151.796 184.67188 149.9835L184.67188 148.546Q184.67188 146.65538 185.3125 145.74913Q185.96875 144.82726 187.35938 144.82726Q188.73438 144.82726 189.39062 145.71788Q190.04688 146.59288 190.0625 148.43663L190.0625 149.84288ZM188.96875 148.3585Q188.96875 146.9835 188.57812 146.3585Q188.20312 145.71788 187.35938 145.71788Q186.53125 145.71788 186.14062 146.3585Q185.76562 146.9835 185.76562 148.28038L185.76562 150.01476Q185.76562 151.38976 186.15625 152.06163Q186.5625 152.71788 187.375 152.71788Q188.17188 152.71788 188.5625 152.09288Q188.95312 151.46788 188.96875 150.13976L188.96875 148.3585Z" fill-rule="nonzero"/><path fill="#f05f40" d="M183.29688 153.4835L177.70312 153.4835L177.70312 152.70226L180.65625 149.421Q181.3125 148.671 181.5625 148.21788Q181.8125 147.74913 181.8125 147.24913Q181.8125 146.57726 181.40625 146.15538Q181.01562 145.71788 180.32812 145.71788Q179.53125 145.71788 179.07812 146.18663Q178.625 146.63976 178.625 147.46788L177.54688 147.46788Q177.54688 146.28038 178.29688 145.56163Q179.0625 144.82726 180.32812 144.82726Q181.53125 144.82726 182.21875 145.45226Q182.90625 146.07726 182.90625 147.12413Q182.90625 148.37413 181.29688 150.12413L179.01562 152.59288L183.29688 152.59288L183.29688 153.4835ZM190.0625 149.84288Q190.0625 151.74913 189.40625 152.68663Q188.76562 153.6085 187.375 153.6085Q186.01562 153.6085 185.35938 152.70226Q184.70312 151.796 184.67188 149.9835L184.67188 148.546Q184.67188 146.65538 185.3125 145.74913Q185.96875 144.82726 187.35938 144.82726Q188.73438 144.82726 189.39062 145.71788Q190.04688 146.59288 190.0625 148.43663L190.0625 149.84288ZM188.96875 148.3585Q188.96875 146.9835 188.57812 146.3585Q188.20312 145.71788 187.35938 145.71788Q186.53125 145.71788 186.14062 146.3585Q185.76562 146.9835 185.76562 148.28038L185.76562 150.01476Q185.76562 151.38976 186.15625 152.06163Q186.5625 152.71788 187.375 152.71788Q188.17188 152.71788 188.5625 152.09288Q188.95312 151.46788 188.96875 150.13976L188.96875 148.3585Z" fill-rule="nonzero"/><path fill="#000000" d="M31.200003 169.42188L16.887503 169.42188L16.887503 163.07812Q16.887503 161.17188 17.278128 160.17188Q17.653128 159.17188 18.637503 158.57812Q19.606253 157.98438 20.793753 157.98438Q22.309378 157.98438 23.356253 158.96875Q24.403128 159.95312 24.684378 162.01562Q25.043753 161.26562 25.403128 160.875Q26.153128 160.04688 27.309378 159.29688L31.200003 156.8125L31.200003 159.1875L28.215628 161.09375Q26.934378 161.92188 26.246878 162.45312Q25.559378 162.98438 25.293753 163.42188Q25.012503 163.84375 24.903128 164.28125Q24.840628 164.60938 24.840628 165.32812L24.840628 167.53125L31.200003 167.53125L31.200003 169.42188ZM23.200003 167.53125L23.200003 163.45312Q23.200003 162.15625 22.934378 161.4375Q22.668753 160.70312 22.075003 160.32812Q21.481253 159.9375 20.793753 159.9375Q19.778128 159.9375 19.121878 160.67188Q18.465628 161.40625 18.465628 163.0L18.465628 167.53125L23.200003 167.53125ZM27.856253 148.57812L28.090628 146.76562Q29.668753 147.1875 30.559378 148.35938Q31.434378 149.51562 31.434378 151.32812Q31.434378 153.59375 30.043753 154.9375Q28.637503 156.26562 26.106253 156.26562Q23.481253 156.26562 22.043753 154.92188Q20.590628 153.57812 20.590628 151.42188Q20.590628 149.34375 22.012503 148.03125Q23.418753 146.70312 25.996878 146.70312Q26.153128 146.70312 26.465628 146.71875L26.465628 154.45312Q28.168753 154.35938 29.075003 153.48438Q29.981253 152.60938 29.981253 151.3125Q29.981253 150.34375 29.481253 149.67188Q28.965628 148.98438 27.856253 148.57812ZM25.012503 154.35938L25.012503 148.5625Q23.715628 148.67188 23.059378 149.21875Q22.043753 150.0625 22.043753 151.40625Q22.043753 152.60938 22.856253 153.4375Q23.653128 154.26562 25.012503 154.35938ZM28.106253 145.39062L27.825003 143.64062Q28.871878 143.5 29.434378 142.82812Q29.981253 142.15625 29.981253 140.95312Q29.981253 139.75 29.496878 139.17188Q28.996878 138.57812 28.340628 138.57812Q27.746878 138.57812 27.403128 139.09375Q27.168753 139.45312 26.809378 140.89062Q26.309378 142.82812 25.965628 143.57812Q25.606253 144.3125 24.981253 144.70312Q24.340628 145.09375 23.575003 145.09375Q22.887503 145.09375 22.293753 144.78125Q21.700003 144.45312 21.309378 143.90625Q21.012503 143.5 20.809378 142.79688Q20.590628 142.07812 20.590628 141.26562Q20.590628 140.04688 20.950003 139.125Q21.293753 138.20312 21.903128 137.76562Q22.496878 137.32812 23.496878 137.15625L23.731253 138.875Q22.934378 139.0 22.496878 139.5625Q22.043753 140.125 22.043753 141.14062Q22.043753 142.35938 22.450003 142.875Q22.840628 143.39062 23.371878 143.39062Q23.715628 143.39062 23.996878 143.17188Q24.278128 142.96875 24.465628 142.5Q24.559378 142.23438 24.903128 140.95312Q25.403128 139.07812 25.731253 138.34375Q26.043753 137.60938 26.653128 137.1875Q27.246878 136.76562 28.153128 136.76562Q29.028128 136.76562 29.809378 137.28125Q30.590628 137.79688 31.012503 138.76562Q31.434378 139.73438 31.434378 140.95312Q31.434378 142.96875 30.590628 144.03125Q29.746878 145.09375 28.106253 145.39062ZM35.168755 134.6875L20.825003 134.6875L20.825003 133.07812L22.168753 133.07812Q21.387503 132.51562 20.996878 131.8125Q20.590628 131.09375 20.590628 130.07812Q20.590628 128.75 21.278128 127.734375Q21.965628 126.71875 23.215628 126.203125Q24.450003 125.671875 25.934378 125.671875Q27.528128 125.671875 28.809378 126.25Q30.075003 126.8125 30.762503 127.90625Q31.434378 129.0 31.434378 130.20312Q31.434378 131.07812 31.059378 131.78125Q30.684378 132.46875 30.121878 132.92188L35.168755 132.92188L35.168755 134.6875ZM26.075003 133.09375Q28.075003 133.09375 29.028128 132.28125Q29.981253 131.46875 29.981253 130.3125Q29.981253 129.14062 28.996878 128.3125Q28.012503 127.46875 25.918753 127.46875Q23.950003 127.46875 22.965628 128.29688Q21.965628 129.10938 21.965628 130.23438Q21.965628 131.35938 23.028128 132.23438Q24.075003 133.09375 26.075003 133.09375ZM26.012503 124.328125Q23.137503 124.328125 21.746878 122.734375Q20.590628 121.390625 20.590628 119.46875Q20.590628 117.328125 21.996878 115.984375Q23.403128 114.625 25.871878 114.625Q27.871878 114.625 29.028128 115.21875Q30.168753 115.8125 30.809378 116.96875Q31.434378 118.109375 31.434378 119.46875Q31.434378 121.65625 30.043753 123.0Q28.637503 124.328125 26.012503 124.328125ZM26.012503 122.53125Q28.012503 122.53125 28.996878 121.671875Q29.981253 120.796875 29.981253 119.46875Q29.981253 118.15625 28.996878 117.296875Q27.996878 116.421875 25.950003 116.421875Q24.028128 116.421875 23.043753 117.296875Q22.043753 118.171875 22.043753 119.46875Q22.043753 120.796875 23.043753 121.671875Q24.028128 122.53125 26.012503 122.53125ZM31.200003 112.6875L20.825003 112.6875L20.825003 111.09375L22.309378 111.09375Q20.590628 109.953125 20.590628 107.796875Q20.590628 106.859375 20.934378 106.078125Q21.262503 105.28125 21.809378 104.890625Q22.356253 104.5 23.106253 104.34375Q23.606253 104.25 24.825003 104.25L31.200003 104.25L31.200003 106.015625L24.887503 106.015625Q23.809378 106.015625 23.278128 106.21875Q22.746878 106.421875 22.434378 106.953125Q22.121878 107.46875 22.121878 108.171875Q22.121878 109.296875 22.840628 110.109375Q23.543753 110.921875 25.528128 110.921875L31.200003 110.921875L31.200003 112.6875ZM28.106253 103.390625L27.825003 101.640625Q28.871878 101.5 29.434378 100.828125Q29.981253 100.15625 29.981253 98.953125Q29.981253 97.75 29.496878 97.171875Q28.996878 96.578125 28.340628 96.578125Q27.746878 96.578125 27.403128 97.09375Q27.168753 97.453125 26.809378 98.890625Q26.309378 100.828125 25.965628 101.578125Q25.606253 102.3125 24.981253 102.703125Q24.340628 103.09375 23.575003 103.09375Q22.887503 103.09375 22.293753 102.78125Q21.700003 102.453125 21.309378 101.90625Q21.012503 101.5 20.809378 100.796875Q20.590628 100.078125 20.590628 99.265625Q20.590628 98.046875 20.950003 97.125Q21.293753 96.203125 21.903128 95.765625Q22.496878 95.328125 23.496878 95.15625L23.731253 96.875Q22.934378 97.0 22.496878 97.5625Q22.043753 98.125 22.043753 99.140625Q22.043753 100.359375 22.450003 100.875Q22.840628 101.390625 23.371878 101.390625Q23.715628 101.390625 23.996878 101.171875Q24.278128 100.96875 24.465628 100.5Q24.559378 100.234375 24.903128 98.953125Q25.403128 97.078125 25.731253 96.34375Q26.043753 95.609375 26.653128 95.1875Q27.246878 94.765625 28.153128 94.765625Q29.028128 94.765625 29.809378 95.28125Q30.590628 95.796875 31.012503 96.765625Q31.434378 97.734375 31.434378 98.953125Q31.434378 100.96875 30.590628 102.03125Q29.746878 103.09375 28.106253 103.390625ZM27.856253 85.578125L28.090628 83.765625Q29.668753 84.1875 30.559378 85.359375Q31.434378 86.515625 31.434378 88.328125Q31.434378 90.59375 30.043753 91.9375Q28.637503 93.265625 26.106253 93.265625Q23.481253 93.265625 22.043753 91.921875Q20.590628 90.578125 20.590628 88.421875Q20.590628 86.34375 22.012503 85.03125Q23.418753 83.703125 25.996878 83.703125Q26.153128 83.703125 26.465628 83.71875L26.465628 91.453125Q28.168753 91.359375 29.075003 90.484375Q29.981253 89.609375 29.981253 88.3125Q29.981253 87.34375 29.481253 86.671875Q28.965628 85.984375 27.856253 85.578125ZM25.012503 91.359375L25.012503 85.5625Q23.715628 85.671875 23.059378 86.21875Q22.043753 87.0625 22.043753 88.40625Q22.043753 89.609375 22.856253 90.4375Q23.653128 91.265625 25.012503 91.359375ZM28.106253 82.390625L27.825003 80.640625Q28.871878 80.5 29.434378 79.828125Q29.981253 79.15625 29.981253 77.953125Q29.981253 76.75 29.496878 76.171875Q28.996878 75.578125 28.340628 75.578125Q27.746878 75.578125 27.403128 76.09375Q27.168753 76.453125 26.809378 77.890625Q26.309378 79.828125 25.965628 80.578125Q25.606253 81.3125 24.981253 81.703125Q24.340628 82.09375 23.575003 82.09375Q22.887503 82.09375 22.293753 81.78125Q21.700003 81.453125 21.309378 80.90625Q21.012503 80.5 20.809378 79.796875Q20.590628 79.078125 20.590628 78.265625Q20.590628 77.046875 20.950003 76.125Q21.293753 75.203125 21.903128 74.765625Q22.496878 74.328125 23.496878 74.15625L23.731253 75.875Q22.934378 76.0 22.496878 76.5625Q22.043753 77.125 22.043753 78.140625Q22.043753 79.359375 22.450003 79.875Q22.840628 80.390625 23.371878 80.390625Q23.715628 80.390625 23.996878 80.171875Q24.278128 79.96875 24.465628 79.5Q24.559378 79.234375 24.903128 77.953125Q25.403128 76.078125 25.731253 75.34375Q26.043753 74.609375 26.653128 74.1875Q27.246878 73.765625 28.153128 73.765625Q29.028128 73.765625 29.809378 74.28125Q30.590628 74.796875 31.012503 75.765625Q31.434378 76.734375 31.434378 77.953125Q31.434378 79.96875 30.590628 81.03125Q29.746878 82.09375 28.106253 82.390625Z" fill-rule="nonzero"/><path fill="#000000" d="M100.02812 150.7375Q100.02812 148.20625 100.54375 146.65938Q101.075 145.09688 102.10625 144.26875Q103.1375 143.425 104.7 143.425Q105.85625 143.425 106.71562 143.89375Q107.59062 144.34688 108.15312 145.22188Q108.71562 146.09688 109.04375 147.3625Q109.37187 148.6125 109.37187 150.7375Q109.37187 153.25313 108.84062 154.8Q108.325 156.34688 107.29375 157.20625Q106.27812 158.05 104.7 158.05Q102.62187 158.05 101.45 156.56563Q100.02812 154.76875 100.02812 150.7375ZM101.84062 150.7375Q101.84062 154.26875 102.65312 155.44063Q103.48125 156.59688 104.7 156.59688Q105.90312 156.59688 106.73125 155.425Q107.55937 154.25313 107.55937 150.7375Q107.55937 147.20625 106.73125 146.05Q105.90312 144.87813 104.68437 144.87813Q103.46562 144.87813 102.74687 145.90938Q101.84062 147.20625 101.84062 150.7375Z" fill-rule="nonzero"/><path fill="#000000" d="M76.2625 124.4625L76.2625 126.15L66.80937 126.15Q66.79375 125.50938 67.0125 124.93125Q67.37187 123.9625 68.16875 123.025Q68.96562 122.0875 70.46562 120.85313Q72.80937 118.94688 73.62187 117.8375Q74.45 116.7125 74.45 115.7125Q74.45 114.66563 73.7 113.94688Q72.95 113.22813 71.74687 113.22813Q70.48125 113.22813 69.71562 113.99375Q68.95 114.75938 68.95 116.10313L67.1375 115.91563Q67.325 113.9 68.52812 112.8375Q69.74687 111.775 71.79375 111.775Q73.84062 111.775 75.04375 112.91563Q76.24687 114.05625 76.24687 115.74375Q76.24687 116.60313 75.8875 117.44688Q75.54375 118.275 74.73125 119.19688Q73.91875 120.10313 72.02812 121.7125Q70.43437 123.04063 69.98125 123.50938Q69.54375 123.97813 69.24687 124.4625L76.2625 124.4625ZM78.02812 119.0875Q78.02812 116.55625 78.54375 115.00938Q79.075 113.44688 80.10625 112.61875Q81.1375 111.775 82.7 111.775Q83.85625 111.775 84.71562 112.24375Q85.59062 112.69688 86.15312 113.57188Q86.71562 114.44688 87.04375 115.7125Q87.37187 116.9625 87.37187 119.0875Q87.37187 121.60313 86.84062 123.15Q86.325 124.69688 85.29375 125.55625Q84.27812 126.4 82.7 126.4Q80.62187 126.4 79.45 124.91563Q78.02812 123.11875 78.02812 119.0875ZM79.84062 119.0875Q79.84062 122.61875 80.65312 123.79063Q81.48125 124.94688 82.7 124.94688Q83.90312 124.94688 84.73125 123.775Q85.55937 122.60313 85.55937 119.0875Q85.55937 115.55625 84.73125 114.4Q83.90312 113.22813 82.68437 113.22813Q81.46562 113.22813 80.74687 114.25938Q79.84062 115.55625 79.84062 119.0875ZM89.02812 119.0875Q89.02812 116.55625 89.54375 115.00938Q90.075 113.44688 91.10625 112.61875Q92.1375 111.775 93.7 111.775Q94.85625 111.775 95.71562 112.24375Q96.59062 112.69688 97.15312 113.57188Q97.71562 114.44688 98.04375 115.7125Q98.37187 116.9625 98.37187 119.0875Q98.37187 121.60313 97.84062 123.15Q97.325 124.69688 96.29375 125.55625Q95.27812 126.4 93.7 126.4Q91.62187 126.4 90.45 124.91563Q89.02812 123.11875 89.02812 119.0875ZM90.84062 119.0875Q90.84062 122.61875 91.65312 123.79063Q92.48125 124.94688 93.7 124.94688Q94.90312 124.94688 95.73125 123.775Q96.55937 122.60313 96.55937 119.0875Q96.55937 115.55625 95.73125 114.4Q94.90312 113.22813 93.68437 113.22813Q92.46562 113.22813 91.74687 114.25938Q90.84062 115.55625 90.84062 119.0875ZM100.02812 119.0875Q100.02812 116.55625 100.54375 115.00938Q101.075 113.44688 102.10625 112.61875Q103.1375 111.775 104.7 111.775Q105.85625 111.775 106.71562 112.24375Q107.59062 112.69688 108.15312 113.57188Q108.71562 114.44688 109.04375 115.7125Q109.37187 116.9625 109.37187 119.0875Q109.37187 121.60313 108.84062 123.15Q108.325 124.69688 107.29375 125.55625Q106.27812 126.4 104.7 126.4Q102.62187 126.4 101.45 124.91563Q100.02812 123.11875 100.02812 119.0875ZM101.84062 119.0875Q101.84062 122.61875 102.65312 123.79063Q103.48125 124.94688 104.7 124.94688Q105.90312 124.94688 106.73125 123.775Q107.55937 122.60313 107.55937 119.0875Q107.55937 115.55625 106.73125 114.4Q105.90312 113.22813 104.68437 113.22813Q103.46562 113.22813 102.74687 114.25938Q101.84062 115.55625 101.84062 119.0875Z" fill-rule="nonzero"/><path fill="#000000" d="M72.66875 94.5L72.66875 91.078125L66.45 91.078125L66.45 89.453125L72.98125 80.1875L74.41875 80.1875L74.41875 89.453125L76.35625 89.453125L76.35625 91.078125L74.41875 91.078125L74.41875 94.5L72.66875 94.5ZM72.66875 89.453125L72.66875 83.0L68.18437 89.453125L72.66875 89.453125ZM78.02812 87.4375Q78.02812 84.90625 78.54375 83.359375Q79.075 81.796875 80.10625 80.96875Q81.1375 80.125 82.7 80.125Q83.85625 80.125 84.71562 80.59375Q85.59062 81.046875 86.15312 81.921875Q86.71562 82.796875 87.04375 84.0625Q87.37187 85.3125 87.37187 87.4375Q87.37187 89.953125 86.84062 91.5Q86.325 93.046875 85.29375 93.90625Q84.27812 94.75 82.7 94.75Q80.62187 94.75 79.45 93.265625Q78.02812 91.46875 78.02812 87.4375ZM79.84062 87.4375Q79.84062 90.96875 80.65312 92.140625Q81.48125 93.296875 82.7 93.296875Q83.90312 93.296875 84.73125 92.125Q85.55937 90.953125 85.55937 87.4375Q85.55937 83.90625 84.73125 82.75Q83.90312 81.578125 82.68437 81.578125Q81.46562 81.578125 80.74687 82.609375Q79.84062 83.90625 79.84062 87.4375ZM89.02812 87.4375Q89.02812 84.90625 89.54375 83.359375Q90.075 81.796875 91.10625 80.96875Q92.1375 80.125 93.7 80.125Q94.85625 80.125 95.71562 80.59375Q96.59062 81.046875 97.15312 81.921875Q97.71562 82.796875 98.04375 84.0625Q98.37187 85.3125 98.37187 87.4375Q98.37187 89.953125 97.84062 91.5Q97.325 93.046875 96.29375 93.90625Q95.27812 94.75 93.7 94.75Q91.62187 94.75 90.45 93.265625Q89.02812 91.46875 89.02812 87.4375ZM90.84062 87.4375Q90.84062 90.96875 91.65312 92.140625Q92.48125 93.296875 93.7 93.296875Q94.90312 93.296875 95.73125 92.125Q96.55937 90.953125 96.55937 87.4375Q96.55937 83.90625 95.73125 82.75Q94.90312 81.578125 93.68437 81.578125Q92.46562 81.578125 91.74687 82.609375Q90.84062 83.90625 90.84062 87.4375ZM100.02812 87.4375Q100.02812 84.90625 100.54375 83.359375Q101.075 81.796875 102.10625 80.96875Q103.1375 80.125 104.7 80.125Q105.85625 80.125 106.71562 80.59375Q107.59062 81.046875 108.15312 81.921875Q108.71562 82.796875 109.04375 84.0625Q109.37187 85.3125 109.37187 87.4375Q109.37187 89.953125 108.84062 91.5Q108.325 93.046875 107.29375 93.90625Q106.27812 94.75 104.7 94.75Q102.62187 94.75 101.45 93.265625Q100.02812 91.46875 100.02812 87.4375ZM101.84062 87.4375Q101.84062 90.96875 102.65312 92.140625Q103.48125 93.296875 104.7 93.296875Q105.90312 93.296875 106.73125 92.125Q107.55937 90.953125 107.55937 87.4375Q107.55937 83.90625 106.73125 82.75Q105.90312 81.578125 104.68437 81.578125Q103.46562 81.578125 102.74687 82.609375Q101.84062 83.90625 101.84062 87.4375Z" fill-rule="nonzero"/><path fill="#000000" d="M76.15312 52.0375L74.40312 52.178123Q74.16875 51.146873 73.74687 50.678123Q73.02812 49.9125 71.98125 49.9125Q71.1375 49.9125 70.5125 50.38125Q69.68437 50.990623 69.2 52.1625Q68.71562 53.31875 68.7 55.459373Q69.34062 54.50625 70.24687 54.0375Q71.16875 53.56875 72.18437 53.56875Q73.93437 53.56875 75.16875 54.865623Q76.40312 56.146873 76.40312 58.19375Q76.40312 59.553123 75.825 60.709373Q75.24687 61.865623 74.23125 62.490623Q73.21562 63.1 71.91875 63.1Q69.73125 63.1 68.34062 61.490623Q66.95 59.865623 66.95 56.146873Q66.95 52.00625 68.48125 50.115623Q69.825 48.475 72.09062 48.475Q73.77812 48.475 74.85625 49.428123Q75.93437 50.365623 76.15312 52.0375ZM68.98125 58.209373Q68.98125 59.115623 69.35625 59.94375Q69.74687 60.771873 70.43437 61.209373Q71.1375 61.646873 71.8875 61.646873Q73.0125 61.646873 73.80937 60.75625Q74.60625 59.85 74.60625 58.303123Q74.60625 56.81875 73.80937 55.975Q73.02812 55.115623 71.825 55.115623Q70.6375 55.115623 69.80937 55.975Q68.98125 56.81875 68.98125 58.209373ZM78.02812 55.7875Q78.02812 53.25625 78.54375 51.709373Q79.075 50.146873 80.10625 49.31875Q81.1375 48.475 82.7 48.475Q83.85625 48.475 84.71562 48.94375Q85.59062 49.396873 86.15312 50.271873Q86.71562 51.146873 87.04375 52.4125Q87.37187 53.6625 87.37187 55.7875Q87.37187 58.303123 86.84062 59.85Q86.325 61.396873 85.29375 62.25625Q84.27812 63.1 82.7 63.1Q80.62187 63.1 79.45 61.615623Q78.02812 59.81875 78.02812 55.7875ZM79.84062 55.7875Q79.84062 59.31875 80.65312 60.490623Q81.48125 61.646873 82.7 61.646873Q83.90312 61.646873 84.73125 60.475Q85.55937 59.303123 85.55937 55.7875Q85.55937 52.25625 84.73125 51.1Q83.90312 49.928123 82.68437 49.928123Q81.46562 49.928123 80.74687 50.959373Q79.84062 52.25625 79.84062 55.7875ZM89.02812 55.7875Q89.02812 53.25625 89.54375 51.709373Q90.075 50.146873 91.10625 49.31875Q92.1375 48.475 93.7 48.475Q94.85625 48.475 95.71562 48.94375Q96.59062 49.396873 97.15312 50.271873Q97.71562 51.146873 98.04375 52.4125Q98.37187 53.6625 98.37187 55.7875Q98.37187 58.303123 97.84062 59.85Q97.325 61.396873 96.29375 62.25625Q95.27812 63.1 93.7 63.1Q91.62187 63.1 90.45 61.615623Q89.02812 59.81875 89.02812 55.7875ZM90.84062 55.7875Q90.84062 59.31875 91.65312 60.490623Q92.48125 61.646873 93.7 61.646873Q94.90312 61.646873 95.73125 60.475Q96.55937 59.303123 96.55937 55.7875Q96.55937 52.25625 95.73125 51.1Q94.90312 49.928123 93.68437 49.928123Q92.46562 49.928123 91.74687 50.959373Q90.84062 52.25625 90.84062 55.7875ZM100.02812 55.7875Q100.02812 53.25625 100.54375 51.709373Q101.075 50.146873 102.10625 49.31875Q103.1375 48.475 104.7 48.475Q105.85625 48.475 106.71562 48.94375Q107.59062 49.396873 108.15312 50.271873Q108.71562 51.146873 109.04375 52.4125Q109.37187 53.6625 109.37187 55.7875Q109.37187 58.303123 108.84062 59.85Q108.325 61.396873 107.29375 62.25625Q106.27812 63.1 104.7 63.1Q102.62187 63.1 101.45 61.615623Q100.02812 59.81875 100.02812 55.7875ZM101.84062 55.7875Q101.84062 59.31875 102.65312 60.490623Q103.48125 61.646873 104.7 61.646873Q105.90312 61.646873 106.73125 60.475Q107.55937 59.303123 107.55937 55.7875Q107.55937 52.25625 106.73125 51.1Q105.90312 49.928123 104.68437 49.928123Q103.46562 49.928123 102.74687 50.959373Q101.84062 52.25625 101.84062 55.7875Z" fill-rule="nonzero"/><path fill="#000000" d="M69.73125 23.434376Q68.6375 23.028126 68.10625 22.29375Q67.59062 21.54375 67.59062 20.5125Q67.59062 18.95 68.71562 17.8875Q69.84062 16.825 71.7 16.825Q73.575 16.825 74.71562 17.91875Q75.85625 18.996876 75.85625 20.559376Q75.85625 21.559376 75.325 22.29375Q74.80937 23.028126 73.74687 23.434376Q75.075 23.871876 75.7625 24.825Q76.45 25.778126 76.45 27.10625Q76.45 28.95 75.1375 30.2Q73.84062 31.45 71.73125 31.45Q69.60625 31.45 68.30937 30.2Q67.0125 28.934376 67.0125 27.059376Q67.0125 25.66875 67.71562 24.73125Q68.43437 23.778126 69.73125 23.434376ZM69.3875 20.45Q69.3875 21.465626 70.04375 22.121876Q70.7 22.7625 71.73125 22.7625Q72.74687 22.7625 73.40312 22.121876Q74.05937 21.48125 74.05937 20.559376Q74.05937 19.590626 73.3875 18.934376Q72.71562 18.2625 71.71562 18.2625Q70.71562 18.2625 70.04375 18.91875Q69.3875 19.559376 69.3875 20.45ZM68.825 27.075Q68.825 27.825 69.16875 28.528126Q69.52812 29.23125 70.23125 29.621876Q70.93437 29.996876 71.74687 29.996876Q73.0125 29.996876 73.825 29.184376Q74.65312 28.371876 74.65312 27.121876Q74.65312 25.85625 73.80937 25.028126Q72.96562 24.2 71.68437 24.2Q70.45 24.2 69.6375 25.028126Q68.825 25.840626 68.825 27.075ZM78.02812 24.1375Q78.02812 21.60625 78.54375 20.059376Q79.075 18.496876 80.10625 17.66875Q81.1375 16.825 82.7 16.825Q83.85625 16.825 84.71562 17.29375Q85.59062 17.746876 86.15312 18.621876Q86.71562 19.496876 87.04375 20.7625Q87.37187 22.0125 87.37187 24.1375Q87.37187 26.653126 86.84062 28.2Q86.325 29.746876 85.29375 30.60625Q84.27812 31.45 82.7 31.45Q80.62187 31.45 79.45 29.965626Q78.02812 28.16875 78.02812 24.1375ZM79.84062 24.1375Q79.84062 27.66875 80.65312 28.840626Q81.48125 29.996876 82.7 29.996876Q83.90312 29.996876 84.73125 28.825Q85.55937 27.653126 85.55937 24.1375Q85.55937 20.60625 84.73125 19.45Q83.90312 18.278126 82.68437 18.278126Q81.46562 18.278126 80.74687 19.309376Q79.84062 20.60625 79.84062 24.1375ZM89.02812 24.1375Q89.02812 21.60625 89.54375 20.059376Q90.075 18.496876 91.10625 17.66875Q92.1375 16.825 93.7 16.825Q94.85625 16.825 95.71562 17.29375Q96.59062 17.746876 97.15312 18.621876Q97.71562 19.496876 98.04375 20.7625Q98.37187 22.0125 98.37187 24.1375Q98.37187 26.653126 97.84062 28.2Q97.325 29.746876 96.29375 30.60625Q95.27812 31.45 93.7 31.45Q91.62187 31.45 90.45 29.965626Q89.02812 28.16875 89.02812 24.1375ZM90.84062 24.1375Q90.84062 27.66875 91.65312 28.840626Q92.48125 29.996876 93.7 29.996876Q94.90312 29.996876 95.73125 28.825Q96.55937 27.653126 96.55937 24.1375Q96.55937 20.60625 95.73125 19.45Q94.90312 18.278126 93.68437 18.278126Q92.46562 18.278126 91.74687 19.309376Q90.84062 20.60625 90.84062 24.1375ZM100.02812 24.1375Q100.02812 21.60625 100.54375 20.059376Q101.075 18.496876 102.10625 17.66875Q103.1375 16.825 104.7 16.825Q105.85625 16.825 106.71562 17.29375Q107.59062 17.746876 108.15312 18.621876Q108.71562 19.496876 109.04375 20.7625Q109.37187 22.0125 109.37187 24.1375Q109.37187 26.653126 108.84062 28.2Q108.325 29.746876 107.29375 30.60625Q106.27812 31.45 104.7 31.45Q102.62187 31.45 101.45 29.965626Q100.02812 28.16875 100.02812 24.1375ZM101.84062 24.1375Q101.84062 27.66875 102.65312 28.840626Q103.48125 29.996876 104.7 29.996876Q105.90312 29.996876 106.73125 28.825Q107.55937 27.653126 107.55937 24.1375Q107.55937 20.60625 106.73125 19.45Q105.90312 18.278126 104.68437 18.278126Q103.46562 18.278126 102.74687 19.309376Q101.84062 20.60625 101.84062 24.1375Z" fill-rule="nonzero"/><path fill="#000000" d="M583.453 198.20625L585.23425 198.05Q585.35925 199.1125 585.8124 199.8Q586.2811 200.4875 587.2499 200.925Q588.23425 201.34688 589.4686 201.34688Q590.54675 201.34688 591.3749 201.03438Q592.203 200.70625 592.60925 200.14375Q593.0155 199.58125 593.0155 198.90938Q593.0155 198.2375 592.6249 197.7375Q592.23425 197.2375 591.3436 196.89375Q590.7655 196.65938 588.7811 196.19063Q586.8124 195.72188 586.0311 195.3Q584.9999 194.76875 584.4999 193.97188Q583.9999 193.175 583.9999 192.19063Q583.9999 191.09688 584.60925 190.15938Q585.2186 189.22188 586.4061 188.7375Q587.5936 188.2375 589.0311 188.2375Q590.6249 188.2375 591.8436 188.75313Q593.0624 189.26875 593.703 190.26875Q594.35925 191.25313 594.4061 192.51875L592.5936 192.65938Q592.453 191.3 591.60925 190.6125Q590.7655 189.90938 589.10925 189.90938Q587.3905 189.90938 586.5936 190.55Q585.8124 191.175 585.8124 192.05Q585.8124 192.83125 586.3749 193.33125Q586.92175 193.83125 589.23425 194.34688Q591.54675 194.8625 592.4061 195.25313Q593.6561 195.83125 594.2499 196.72188Q594.8436 197.59688 594.8436 198.75313Q594.8436 199.89375 594.1874 200.90938Q593.5311 201.925 592.29675 202.4875Q591.078 203.05 589.54675 203.05Q587.60925 203.05 586.29675 202.4875Q584.98425 201.90938 584.23425 200.76875Q583.48425 199.62813 583.453 198.20625ZM600.703 201.22188L600.953 202.78438Q600.2186 202.94063 599.6249 202.94063Q598.67175 202.94063 598.1405 202.64375Q597.6249 202.33125 597.4061 201.84688Q597.1874 201.34688 597.1874 199.76875L597.1874 193.8L595.9061 193.8L595.9061 192.425L597.1874 192.425L597.1874 189.8625L598.9374 188.8L598.9374 192.425L600.703 192.425L600.703 193.8L598.9374 193.8L598.9374 199.8625Q598.9374 200.6125 599.0311 200.83125Q599.1249 201.03438 599.328 201.175Q599.54675 201.3 599.9374 201.3Q600.2186 201.3 600.703 201.22188ZM602.8436 202.8L602.8436 192.425L604.42175 192.425L604.42175 194.00313Q605.0311 192.89375 605.54675 192.55Q606.0624 192.19063 606.67175 192.19063Q607.5624 192.19063 608.48425 192.75313L607.8749 194.39375Q607.23425 194.00313 606.5936 194.00313Q606.0155 194.00313 605.54675 194.3625Q605.0936 194.70625 604.8905 195.31563Q604.60925 196.25313 604.60925 197.3625L604.60925 202.8L602.8436 202.8ZM609.2186 197.6125Q609.2186 194.7375 610.8124 193.34688Q612.1561 192.19063 614.078 192.19063Q616.2186 192.19063 617.5624 193.59688Q618.92175 195.00313 618.92175 197.47188Q618.92175 199.47188 618.328 200.62813Q617.73425 201.76875 616.578 202.40938Q615.4374 203.03438 614.078 203.03438Q611.8905 203.03438 610.54675 201.64375Q609.2186 200.2375 609.2186 197.6125ZM611.0155 197.6125Q611.0155 199.6125 611.8749 200.59688Q612.7499 201.58125 614.078 201.58125Q615.3905 201.58125 616.2499 200.59688Q617.1249 199.59688 617.1249 197.55Q617.1249 195.62813 616.2499 194.64375Q615.3749 193.64375 614.078 193.64375Q612.7499 193.64375 611.8749 194.64375Q611.0155 195.62813 611.0155 197.6125ZM620.85925 202.8L620.85925 192.425L622.453 192.425L622.453 193.90938Q623.5936 192.19063 625.7499 192.19063Q626.6874 192.19063 627.4686 192.53438Q628.2655 192.8625 628.6561 193.40938Q629.04675 193.95625 629.203 194.70625Q629.29675 195.20625 629.29675 196.425L629.29675 202.8L627.5311 202.8L627.5311 196.4875Q627.5311 195.40938 627.328 194.87813Q627.1249 194.34688 626.5936 194.03438Q626.078 193.72188 625.3749 193.72188Q624.2499 193.72188 623.4374 194.44063Q622.6249 195.14375 622.6249 197.12813L622.6249 202.8L620.85925 202.8ZM630.54675 203.65938L632.2499 203.90938Q632.35925 204.70625 632.8436 205.06563Q633.4999 205.55 634.6405 205.55Q635.85925 205.55 636.5155 205.06563Q637.1874 204.58125 637.42175 203.70625Q637.5624 203.15938 637.54675 201.44063Q636.3905 202.8 634.67175 202.8Q632.5311 202.8 631.35925 201.25313Q630.1874 199.70625 630.1874 197.55Q630.1874 196.06563 630.7186 194.81563Q631.2655 193.56563 632.2811 192.87813Q633.3124 192.19063 634.6874 192.19063Q636.5155 192.19063 637.7186 193.675L637.7186 192.425L639.328 192.425L639.328 201.39375Q639.328 203.81563 638.828 204.81563Q638.3436 205.83125 637.2655 206.40938Q636.203 207.00313 634.6405 207.00313Q632.79675 207.00313 631.6405 206.175Q630.4999 205.34688 630.54675 203.65938ZM631.9999 197.425Q631.9999 199.47188 632.8124 200.40938Q633.6249 201.34688 634.8436 201.34688Q636.04675 201.34688 636.85925 200.40938Q637.6874 199.47188 637.6874 197.4875Q637.6874 195.58125 636.8436 194.6125Q635.9999 193.64375 634.8124 193.64375Q633.6405 193.64375 632.8124 194.59688Q631.9999 195.55 631.9999 197.425ZM641.828 202.8L641.828 188.4875L643.578 188.4875L643.578 202.8L641.828 202.8ZM645.7811 206.8L645.5936 205.14375Q646.17175 205.3 646.5936 205.3Q647.1874 205.3 647.5311 205.09688Q647.8905 204.90938 648.10925 204.56563Q648.2811 204.3 648.6561 203.25313Q648.703 203.09688 648.8124 202.81563L644.8749 192.425L646.7655 192.425L648.92175 198.44063Q649.3436 199.58125 649.67175 200.83125Q649.98425 199.62813 650.3905 198.47188L652.60925 192.425L654.3749 192.425L650.42175 202.97188Q649.79675 204.69063 649.4374 205.33125Q648.9686 206.20625 648.35925 206.59688Q647.7655 207.00313 646.92175 207.00313Q646.4061 207.00313 645.7811 206.8Z" fill-rule="nonzero"/><path fill="#000000" d="M592.0155 226.8L597.5155 212.4875L599.5624 212.4875L605.42175 226.8L603.2655 226.8L601.5936 222.45625L595.60925 222.45625L594.0311 226.8L592.0155 226.8ZM596.1561 220.925L600.9999 220.925L599.5155 216.95625Q598.828 215.14375 598.4999 213.9875Q598.2186 215.3625 597.7186 216.72188L596.1561 220.925ZM606.04675 227.65938L607.7499 227.90938Q607.85925 228.70625 608.3436 229.06563Q608.9999 229.55 610.1405 229.55Q611.35925 229.55 612.0155 229.06563Q612.6874 228.58125 612.92175 227.70625Q613.0624 227.15938 613.04675 225.44063Q611.8905 226.8 610.17175 226.8Q608.0311 226.8 606.85925 225.25313Q605.6874 223.70625 605.6874 221.55Q605.6874 220.06563 606.2186 218.81563Q606.7655 217.56563 607.7811 216.87813Q608.8124 216.19063 610.1874 216.19063Q612.0155 216.19063 613.2186 217.675L613.2186 216.425L614.828 216.425L614.828 225.39375Q614.828 227.81563 614.328 228.81563Q613.8436 229.83125 612.7655 230.40938Q611.703 231.00313 610.1405 231.00313Q608.29675 231.00313 607.1405 230.175Q605.9999 229.34688 606.04675 227.65938ZM607.4999 221.425Q607.4999 223.47188 608.3124 224.40938Q609.1249 225.34688 610.3436 225.34688Q611.54675 225.34688 612.35925 224.40938Q613.1874 223.47188 613.1874 221.4875Q613.1874 219.58125 612.3436 218.6125Q611.4999 217.64375 610.3124 217.64375Q609.1405 217.64375 608.3124 218.59688Q607.4999 219.55 607.4999 221.425ZM617.3436 226.8L617.3436 216.425L618.92175 216.425L618.92175 218.00313Q619.5311 216.89375 620.04675 216.55Q620.5624 216.19063 621.17175 216.19063Q622.0624 216.19063 622.98425 216.75313L622.3749 218.39375Q621.73425 218.00313 621.0936 218.00313Q620.5155 218.00313 620.04675 218.3625Q619.5936 218.70625 619.3905 219.31563Q619.10925 220.25313 619.10925 221.3625L619.10925 226.8L617.3436 226.8ZM631.4686 223.45625L633.2811 223.69063Q632.85925 225.26875 631.6874 226.15938Q630.5311 227.03438 628.7186 227.03438Q626.453 227.03438 625.10925 225.64375Q623.7811 224.2375 623.7811 221.70625Q623.7811 219.08125 625.1249 217.64375Q626.4686 216.19063 628.6249 216.19063Q630.703 216.19063 632.0155 217.6125Q633.3436 219.01875 633.3436 221.59688Q633.3436 221.75313 633.328 222.06563L625.5936 222.06563Q625.6874 223.76875 626.5624 224.675Q627.4374 225.58125 628.73425 225.58125Q629.703 225.58125 630.3749 225.08125Q631.0624 224.56563 631.4686 223.45625ZM625.6874 220.6125L631.48425 220.6125Q631.3749 219.31563 630.828 218.65938Q629.98425 217.64375 628.6405 217.64375Q627.4374 217.64375 626.60925 218.45625Q625.7811 219.25313 625.6874 220.6125ZM642.4686 223.45625L644.2811 223.69063Q643.85925 225.26875 642.6874 226.15938Q641.5311 227.03438 639.7186 227.03438Q637.453 227.03438 636.10925 225.64375Q634.7811 224.2375 634.7811 221.70625Q634.7811 219.08125 636.1249 217.64375Q637.4686 216.19063 639.6249 216.19063Q641.703 216.19063 643.0155 217.6125Q644.3436 219.01875 644.3436 221.59688Q644.3436 221.75313 644.328 222.06563L636.5936 222.06563Q636.6874 223.76875 637.5624 224.675Q638.4374 225.58125 639.73425 225.58125Q640.703 225.58125 641.3749 225.08125Q642.0624 224.56563 642.4686 223.45625ZM636.6874 220.6125L642.48425 220.6125Q642.3749 219.31563 641.828 218.65938Q640.98425 217.64375 639.6405 217.64375Q638.4374 217.64375 637.60925 218.45625Q636.7811 219.25313 636.6874 220.6125Z" fill-rule="nonzero"/><path fill="#000000" d="M483.49213 202.8L488.99213 188.4875L491.039 188.4875L496.89838 202.8L494.74213 202.8L493.07025 198.45625L487.08588 198.45625L485.50775 202.8L483.49213 202.8ZM487.63275 196.925L492.4765 196.925L490.99213 192.95625Q490.30463 191.14375 489.9765 189.9875Q489.69525 191.3625 489.19525 192.72188L487.63275 196.925ZM497.52338 203.65938L499.2265 203.90938Q499.33588 204.70625 499.82025 205.06563Q500.4765 205.55 501.61713 205.55Q502.83588 205.55 503.49213 205.06563Q504.164 204.58125 504.39838 203.70625Q504.539 203.15938 504.52338 201.44063Q503.36713 202.8 501.64838 202.8Q499.50775 202.8 498.33588 201.25313Q497.164 199.70625 497.164 197.55Q497.164 196.06563 497.69525 194.81563Q498.24213 193.56563 499.25775 192.87813Q500.289 192.19063 501.664 192.19063Q503.49213 192.19063 504.69525 193.675L504.69525 192.425L506.30463 192.425L506.30463 201.39375Q506.30463 203.81563 505.80463 204.81563Q505.32025 205.83125 504.24213 206.40938Q503.17963 207.00313 501.61713 207.00313Q499.77338 207.00313 498.61713 206.175Q497.4765 205.34688 497.52338 203.65938ZM498.9765 197.425Q498.9765 199.47188 499.789 200.40938Q500.6015 201.34688 501.82025 201.34688Q503.02338 201.34688 503.83588 200.40938Q504.664 199.47188 504.664 197.4875Q504.664 195.58125 503.82025 194.6125Q502.9765 193.64375 501.789 193.64375Q500.61713 193.64375 499.789 194.59688Q498.9765 195.55 498.9765 197.425ZM508.82025 202.8L508.82025 192.425L510.39838 192.425L510.39838 194.00313Q511.00775 192.89375 511.52338 192.55Q512.039 192.19063 512.6484 192.19063Q513.539 192.19063 514.4609 192.75313L513.8515 194.39375Q513.2109 194.00313 512.57025 194.00313Q511.99213 194.00313 511.52338 194.3625Q511.07025 194.70625 510.86713 195.31563Q510.58588 196.25313 510.58588 197.3625L510.58588 202.8L508.82025 202.8ZM522.94525 199.45625L524.75775 199.69063Q524.3359 201.26875 523.164 202.15938Q522.00775 203.03438 520.19525 203.03438Q517.9296 203.03438 516.5859 201.64375Q515.25775 200.2375 515.25775 197.70625Q515.25775 195.08125 516.6015 193.64375Q517.94525 192.19063 520.1015 192.19063Q522.1796 192.19063 523.4921 193.6125Q524.82025 195.01875 524.82025 197.59688Q524.82025 197.75313 524.8046 198.06563L517.07025 198.06563Q517.164 199.76875 518.039 200.675Q518.914 201.58125 520.2109 201.58125Q521.1796 201.58125 521.8515 201.08125Q522.539 200.56563 522.94525 199.45625ZM517.164 196.6125L522.9609 196.6125Q522.8515 195.31563 522.3046 194.65938Q521.4609 193.64375 520.1171 193.64375Q518.914 193.64375 518.0859 194.45625Q517.25775 195.25313 517.164 196.6125ZM533.94525 199.45625L535.75775 199.69063Q535.3359 201.26875 534.164 202.15938Q533.00775 203.03438 531.19525 203.03438Q528.9296 203.03438 527.5859 201.64375Q526.25775 200.2375 526.25775 197.70625Q526.25775 195.08125 527.6015 193.64375Q528.94525 192.19063 531.1015 192.19063Q533.1796 192.19063 534.4921 193.6125Q535.82025 195.01875 535.82025 197.59688Q535.82025 197.75313 535.8046 198.06563L528.07025 198.06563Q528.164 199.76875 529.039 200.675Q529.914 201.58125 531.2109 201.58125Q532.1796 201.58125 532.8515 201.08125Q533.539 200.56563 533.94525 199.45625ZM528.164 196.6125L533.9609 196.6125Q533.8515 195.31563 533.3046 194.65938Q532.4609 193.64375 531.1171 193.64375Q529.914 193.64375 529.0859 194.45625Q528.25775 195.25313 528.164 196.6125Z" fill-rule="nonzero"/><path fill="#000000" d="M372.03125 202.8L372.03125 188.4875L373.96875 188.4875L381.48438 199.72188L381.48438 188.4875L383.29688 188.4875L383.29688 202.8L381.35938 202.8L373.84375 191.55L373.84375 202.8L372.03125 202.8ZM391.92188 199.45625L393.73438 199.69063Q393.3125 201.26875 392.14062 202.15938Q390.98438 203.03438 389.17188 203.03438Q386.90625 203.03438 385.5625 201.64375Q384.23438 200.2375 384.23438 197.70625Q384.23438 195.08125 385.57812 193.64375Q386.92188 192.19063 389.07812 192.19063Q391.15625 192.19063 392.46875 193.6125Q393.79688 195.01875 393.79688 197.59688Q393.79688 197.75313 393.78125 198.06563L386.04688 198.06563Q386.14062 199.76875 387.01562 200.675Q387.89062 201.58125 389.1875 201.58125Q390.15625 201.58125 390.82812 201.08125Q391.51562 200.56563 391.92188 199.45625ZM386.14062 196.6125L391.9375 196.6125Q391.82812 195.31563 391.28125 194.65938Q390.4375 193.64375 389.09375 193.64375Q387.89062 193.64375 387.0625 194.45625Q386.23438 195.25313 386.14062 196.6125ZM402.60938 202.8L402.60938 201.26875Q401.40625 203.03438 399.32812 203.03438Q398.40625 203.03438 397.60938 202.69063Q396.8125 202.33125 396.42188 201.8Q396.04688 201.26875 395.89062 200.4875Q395.78125 199.97188 395.78125 198.84688L395.78125 192.425L397.53125 192.425L397.53125 198.175Q397.53125 199.55 397.64062 200.03438Q397.8125 200.72188 398.34375 201.12813Q398.89062 201.51875 399.67188 201.51875Q400.46875 201.51875 401.15625 201.1125Q401.85938 200.70625 402.14062 200.01875Q402.4375 199.31563 402.4375 197.9875L402.4375 192.425L404.1875 192.425L404.1875 202.8L402.60938 202.8ZM409.65625 201.22188L409.90625 202.78438Q409.17188 202.94063 408.57812 202.94063Q407.625 202.94063 407.09375 202.64375Q406.57812 202.33125 406.35938 201.84688Q406.14062 201.34688 406.14062 199.76875L406.14062 193.8L404.85938 193.8L404.85938 192.425L406.14062 192.425L406.14062 189.8625L407.89062 188.8L407.89062 192.425L409.65625 192.425L409.65625 193.8L407.89062 193.8L407.89062 199.8625Q407.89062 200.6125 407.98438 200.83125Q408.07812 201.03438 408.28125 201.175Q408.5 201.3 408.89062 201.3Q409.17188 201.3 409.65625 201.22188ZM411.79688 202.8L411.79688 192.425L413.375 192.425L413.375 194.00313Q413.98438 192.89375 414.5 192.55Q415.01562 192.19063 415.625 192.19063Q416.51562 192.19063 417.4375 192.75313L416.82812 194.39375Q416.1875 194.00313 415.54688 194.00313Q414.96875 194.00313 414.5 194.3625Q414.04688 194.70625 413.84375 195.31563Q413.5625 196.25313 413.5625 197.3625L413.5625 202.8L411.79688 202.8ZM425.59375 201.51875Q424.60938 202.34688 423.70312 202.69063Q422.79688 203.03438 421.76562 203.03438Q420.0625 203.03438 419.14062 202.20625Q418.21875 201.3625 418.21875 200.06563Q418.21875 199.3 418.5625 198.675Q418.92188 198.05 419.48438 197.675Q420.04688 197.28438 420.75 197.08125Q421.26562 196.95625 422.3125 196.81563Q424.4375 196.56563 425.4375 196.22188Q425.45312 195.8625 425.45312 195.75313Q425.45312 194.69063 424.95312 194.2375Q424.28125 193.64375 422.95312 193.64375Q421.70312 193.64375 421.10938 194.08125Q420.53125 194.51875 420.25 195.62813L418.53125 195.39375Q418.76562 194.28438 419.29688 193.6125Q419.82812 192.925 420.84375 192.56563Q421.85938 192.19063 423.20312 192.19063Q424.53125 192.19063 425.35938 192.50313Q426.1875 192.81563 426.57812 193.3Q426.96875 193.76875 427.125 194.4875Q427.21875 194.94063 427.21875 196.1125L427.21875 198.45625Q427.21875 200.90938 427.32812 201.56563Q427.4375 202.20625 427.78125 202.8L425.9375 202.8Q425.67188 202.25313 425.59375 201.51875ZM425.4375 197.59688Q424.48438 197.9875 422.5625 198.25313Q421.48438 198.40938 421.03125 198.6125Q420.59375 198.8 420.34375 199.175Q420.09375 199.55 420.09375 200.01875Q420.09375 200.72188 420.625 201.19063Q421.15625 201.65938 422.1875 201.65938Q423.20312 201.65938 423.98438 201.22188Q424.78125 200.76875 425.15625 200.00313Q425.4375 199.39375 425.4375 198.2375L425.4375 197.59688ZM429.78125 202.8L429.78125 188.4875L431.53125 188.4875L431.53125 202.8L429.78125 202.8Z" fill-rule="nonzero"/><path fill="#000000" d="M255.02351 202.8L255.02351 188.4875L259.94537 188.4875Q261.61725 188.4875 262.50787 188.69063Q263.72662 188.97188 264.60162 189.70625Q265.72662 190.675 266.28912 192.15938Q266.85162 193.64375 266.85162 195.56563Q266.85162 197.19063 266.47662 198.45625Q266.10162 199.70625 265.49225 200.53438Q264.8985 201.3625 264.19537 201.84688Q263.49225 202.31563 262.49225 202.56563Q261.49225 202.8 260.17975 202.8L255.02351 202.8ZM256.91412 201.1125L259.97662 201.1125Q261.38287 201.1125 262.17975 200.84688Q262.99225 200.58125 263.47662 200.09688Q264.1485 199.425 264.5235 198.3Q264.8985 197.15938 264.8985 195.53438Q264.8985 193.28438 264.16412 192.08125Q263.42975 190.87813 262.36725 190.47188Q261.61725 190.175 259.92975 190.175L256.91412 190.175L256.91412 201.1125ZM268.80475 190.50313L268.80475 188.4875L270.57037 188.4875L270.57037 190.50313L268.80475 190.50313ZM268.80475 202.8L268.80475 192.425L270.57037 192.425L270.57037 202.8L268.80475 202.8ZM272.086 199.70625L273.836 199.425Q273.97662 200.47188 274.6485 201.03438Q275.32037 201.58125 276.5235 201.58125Q277.72662 201.58125 278.30475 201.09688Q278.8985 200.59688 278.8985 199.94063Q278.8985 199.34688 278.38287 199.00313Q278.0235 198.76875 276.586 198.40938Q274.6485 197.90938 273.8985 197.56563Q273.16412 197.20625 272.7735 196.58125Q272.38287 195.94063 272.38287 195.175Q272.38287 194.4875 272.69537 193.89375Q273.0235 193.3 273.57037 192.90938Q273.97662 192.6125 274.67975 192.40938Q275.3985 192.19063 276.211 192.19063Q277.42975 192.19063 278.35162 192.55Q279.2735 192.89375 279.711 193.50313Q280.1485 194.09688 280.32037 195.09688L278.60162 195.33125Q278.47662 194.53438 277.91412 194.09688Q277.35162 193.64375 276.336 193.64375Q275.11725 193.64375 274.60162 194.05Q274.086 194.44063 274.086 194.97188Q274.086 195.31563 274.30475 195.59688Q274.50787 195.87813 274.97662 196.06563Q275.24225 196.15938 276.5235 196.50313Q278.3985 197.00313 279.13287 197.33125Q279.86725 197.64375 280.28912 198.25313Q280.711 198.84688 280.711 199.75313Q280.711 200.62813 280.19537 201.40938Q279.67975 202.19063 278.711 202.6125Q277.74225 203.03438 276.5235 203.03438Q274.50787 203.03438 273.44537 202.19063Q272.38287 201.34688 272.086 199.70625ZM289.57037 201.51875Q288.586 202.34688 287.67975 202.69063Q286.7735 203.03438 285.74225 203.03438Q284.03912 203.03438 283.11725 202.20625Q282.19537 201.3625 282.19537 200.06563Q282.19537 199.3 282.53912 198.675Q282.8985 198.05 283.461 197.675Q284.0235 197.28438 284.72662 197.08125Q285.24225 196.95625 286.28912 196.81563Q288.41412 196.56563 289.41412 196.22188Q289.42975 195.8625 289.42975 195.75313Q289.42975 194.69063 288.92975 194.2375Q288.25787 193.64375 286.92975 193.64375Q285.67975 193.64375 285.086 194.08125Q284.50787 194.51875 284.22662 195.62813L282.50787 195.39375Q282.74225 194.28438 283.2735 193.6125Q283.80475 192.925 284.82037 192.56563Q285.836 192.19063 287.17975 192.19063Q288.50787 192.19063 289.336 192.50313Q290.16412 192.81563 290.55475 193.3Q290.94537 193.76875 291.10162 194.4875Q291.19537 194.94063 291.19537 196.1125L291.19537 198.45625Q291.19537 200.90938 291.30475 201.56563Q291.41412 202.20625 291.75787 202.8L289.91412 202.8Q289.6485 202.25313 289.57037 201.51875ZM289.41412 197.59688Q288.461 197.9875 286.53912 198.25313Q285.461 198.40938 285.00787 198.6125Q284.57037 198.8 284.32037 199.175Q284.07037 199.55 284.07037 200.01875Q284.07037 200.72188 284.60162 201.19063Q285.13287 201.65938 286.16412 201.65938Q287.17975 201.65938 287.961 201.22188Q288.75787 200.76875 289.13287 200.00313Q289.41412 199.39375 289.41412 198.2375L289.41412 197.59688ZM293.47662 203.65938L295.17975 203.90938Q295.28912 204.70625 295.7735 205.06563Q296.42975 205.55 297.57037 205.55Q298.78912 205.55 299.44537 205.06563Q300.11725 204.58125 300.35162 203.70625Q300.49225 203.15938 300.47662 201.44063Q299.32037 202.8 297.60162 202.8Q295.461 202.8 294.28912 201.25313Q293.11725 199.70625 293.11725 197.55Q293.11725 196.06563 293.6485 194.81563Q294.19537 193.56563 295.211 192.87813Q296.24225 192.19063 297.61725 192.19063Q299.44537 192.19063 300.6485 193.675L300.6485 192.425L302.25787 192.425L302.25787 201.39375Q302.25787 203.81563 301.75787 204.81563Q301.2735 205.83125 300.19537 206.40938Q299.13287 207.00313 297.57037 207.00313Q295.72662 207.00313 294.57037 206.175Q293.42975 205.34688 293.47662 203.65938ZM294.92975 197.425Q294.92975 199.47188 295.74225 200.40938Q296.55475 201.34688 297.7735 201.34688Q298.97662 201.34688 299.78912 200.40938Q300.61725 199.47188 300.61725 197.4875Q300.61725 195.58125 299.7735 194.6125Q298.92975 193.64375 297.74225 193.64375Q296.57037 193.64375 295.74225 194.59688Q294.92975 195.55 294.92975 197.425ZM304.7735 202.8L304.7735 192.425L306.35162 192.425L306.35162 194.00313Q306.961 192.89375 307.47662 192.55Q307.99225 192.19063 308.60162 192.19063Q309.49225 192.19063 310.41412 192.75313L309.80475 194.39375Q309.16412 194.00313 308.5235 194.00313Q307.94537 194.00313 307.47662 194.3625Q307.0235 194.70625 306.82037 195.31563Q306.53912 196.25313 306.53912 197.3625L306.53912 202.8L304.7735 202.8ZM318.8985 199.45625L320.711 199.69063Q320.28912 201.26875 319.11725 202.15938Q317.961 203.03438 316.1485 203.03438Q313.88287 203.03438 312.53912 201.64375Q311.211 200.2375 311.211 197.70625Q311.211 195.08125 312.55475 193.64375Q313.8985 192.19063 316.05475 192.19063Q318.13287 192.19063 319.44537 193.6125Q320.7735 195.01875 320.7735 197.59688Q320.7735 197.75313 320.75787 198.06563L313.0235 198.06563Q313.11725 199.76875 313.99225 200.675Q314.86725 201.58125 316.16412 201.58125Q317.13287 201.58125 317.80475 201.08125Q318.49225 200.56563 318.8985 199.45625ZM313.11725 196.6125L318.91412 196.6125Q318.80475 195.31563 318.25787 194.65938Q317.41412 193.64375 316.07037 193.64375Q314.86725 193.64375 314.03912 194.45625Q313.211 195.25313 313.11725 196.6125ZM329.8985 199.45625L331.711 199.69063Q331.28912 201.26875 330.11725 202.15938Q328.961 203.03438 327.1485 203.03438Q324.88287 203.03438 323.53912 201.64375Q322.211 200.2375 322.211 197.70625Q322.211 195.08125 323.55475 193.64375Q324.8985 192.19063 327.05475 192.19063Q329.13287 192.19063 330.44537 193.6125Q331.7735 195.01875 331.7735 197.59688Q331.7735 197.75313 331.75787 198.06563L324.0235 198.06563Q324.11725 199.76875 324.99225 200.675Q325.86725 201.58125 327.16412 201.58125Q328.13287 201.58125 328.80475 201.08125Q329.49225 200.56563 329.8985 199.45625ZM324.11725 196.6125L329.91412 196.6125Q329.80475 195.31563 329.25787 194.65938Q328.41412 193.64375 327.07037 193.64375Q325.86725 193.64375 325.03912 194.45625Q324.211 195.25313 324.11725 196.6125Z" fill-rule="nonzero"/><path fill="#000000" d="M149.35953 198.20625L151.14078 198.05Q151.26578 199.1125 151.7189 199.8Q152.18765 200.4875 153.1564 200.925Q154.14078 201.34688 155.37515 201.34688Q156.45328 201.34688 157.2814 201.03438Q158.10953 200.70625 158.51578 200.14375Q158.92203 199.58125 158.92203 198.90938Q158.92203 198.2375 158.5314 197.7375Q158.14078 197.2375 157.25015 196.89375Q156.67203 196.65938 154.68765 196.19063Q152.7189 195.72188 151.93765 195.3Q150.9064 194.76875 150.4064 193.97188Q149.9064 193.175 149.9064 192.19063Q149.9064 191.09688 150.51578 190.15938Q151.12515 189.22188 152.31265 188.7375Q153.50015 188.2375 154.93765 188.2375Q156.5314 188.2375 157.75015 188.75313Q158.9689 189.26875 159.60953 190.26875Q160.26578 191.25313 160.31265 192.51875L158.50015 192.65938Q158.35953 191.3 157.51578 190.6125Q156.67203 189.90938 155.01578 189.90938Q153.29703 189.90938 152.50015 190.55Q151.7189 191.175 151.7189 192.05Q151.7189 192.83125 152.2814 193.33125Q152.82828 193.83125 155.14078 194.34688Q157.45328 194.8625 158.31265 195.25313Q159.56265 195.83125 160.1564 196.72188Q160.75015 197.59688 160.75015 198.75313Q160.75015 199.89375 160.0939 200.90938Q159.43765 201.925 158.20328 202.4875Q156.98453 203.05 155.45328 203.05Q153.51578 203.05 152.20328 202.4875Q150.89078 201.90938 150.14078 200.76875Q149.39078 199.62813 149.35953 198.20625ZM166.60953 201.22188L166.85953 202.78438Q166.12515 202.94063 165.5314 202.94063Q164.57828 202.94063 164.04703 202.64375Q163.5314 202.33125 163.31265 201.84688Q163.0939 201.34688 163.0939 199.76875L163.0939 193.8L161.81265 193.8L161.81265 192.425L163.0939 192.425L163.0939 189.8625L164.8439 188.8L164.8439 192.425L166.60953 192.425L166.60953 193.8L164.8439 193.8L164.8439 199.8625Q164.8439 200.6125 164.93765 200.83125Q165.0314 201.03438 165.23453 201.175Q165.45328 201.3 165.8439 201.3Q166.12515 201.3 166.60953 201.22188ZM168.75015 202.8L168.75015 192.425L170.32828 192.425L170.32828 194.00313Q170.93765 192.89375 171.45328 192.55Q171.9689 192.19063 172.57828 192.19063Q173.4689 192.19063 174.39078 192.75313L173.7814 194.39375Q173.14078 194.00313 172.50015 194.00313Q171.92203 194.00313 171.45328 194.3625Q171.00015 194.70625 170.79703 195.31563Q170.51578 196.25313 170.51578 197.3625L170.51578 202.8L168.75015 202.8ZM175.12515 197.6125Q175.12515 194.7375 176.7189 193.34688Q178.06265 192.19063 179.98453 192.19063Q182.12515 192.19063 183.4689 193.59688Q184.82828 195.00313 184.82828 197.47188Q184.82828 199.47188 184.23453 200.62813Q183.64078 201.76875 182.48453 202.40938Q181.3439 203.03438 179.98453 203.03438Q177.79703 203.03438 176.45328 201.64375Q175.12515 200.2375 175.12515 197.6125ZM176.92203 197.6125Q176.92203 199.6125 177.7814 200.59688Q178.6564 201.58125 179.98453 201.58125Q181.29703 201.58125 182.1564 200.59688Q183.0314 199.59688 183.0314 197.55Q183.0314 195.62813 182.1564 194.64375Q181.2814 193.64375 179.98453 193.64375Q178.6564 193.64375 177.7814 194.64375Q176.92203 195.62813 176.92203 197.6125ZM186.76578 202.8L186.76578 192.425L188.35953 192.425L188.35953 193.90938Q189.50015 192.19063 191.6564 192.19063Q192.5939 192.19063 193.37515 192.53438Q194.17203 192.8625 194.56265 193.40938Q194.95328 193.95625 195.10953 194.70625Q195.20328 195.20625 195.20328 196.425L195.20328 202.8L193.43765 202.8L193.43765 196.4875Q193.43765 195.40938 193.23453 194.87813Q193.0314 194.34688 192.50015 194.03438Q191.98453 193.72188 191.2814 193.72188Q190.1564 193.72188 189.3439 194.44063Q188.5314 195.14375 188.5314 197.12813L188.5314 202.8L186.76578 202.8ZM196.45328 203.65938L198.1564 203.90938Q198.26578 204.70625 198.75015 205.06563Q199.4064 205.55 200.54703 205.55Q201.76578 205.55 202.42203 205.06563Q203.0939 204.58125 203.32828 203.70625Q203.4689 203.15938 203.45328 201.44063Q202.29703 202.8 200.57828 202.8Q198.43765 202.8 197.26578 201.25313Q196.0939 199.70625 196.0939 197.55Q196.0939 196.06563 196.62515 194.81563Q197.17203 193.56563 198.18765 192.87813Q199.2189 192.19063 200.5939 192.19063Q202.42203 192.19063 203.62515 193.675L203.62515 192.425L205.23453 192.425L205.23453 201.39375Q205.23453 203.81563 204.73453 204.81563Q204.25015 205.83125 203.17203 206.40938Q202.10953 207.00313 200.54703 207.00313Q198.70328 207.00313 197.54703 206.175Q196.4064 205.34688 196.45328 203.65938ZM197.9064 197.425Q197.9064 199.47188 198.7189 200.40938Q199.5314 201.34688 200.75015 201.34688Q201.95328 201.34688 202.76578 200.40938Q203.5939 199.47188 203.5939 197.4875Q203.5939 195.58125 202.75015 194.6125Q201.9064 193.64375 200.7189 193.64375Q199.54703 193.64375 198.7189 194.59688Q197.9064 195.55 197.9064 197.425ZM207.73453 202.8L207.73453 188.4875L209.48453 188.4875L209.48453 202.8L207.73453 202.8ZM211.68765 206.8L211.50015 205.14375Q212.07828 205.3 212.50015 205.3Q213.0939 205.3 213.43765 205.09688Q213.79703 204.90938 214.01578 204.56563Q214.18765 204.3 214.56265 203.25313Q214.60953 203.09688 214.7189 202.81563L210.7814 192.425L212.67203 192.425L214.82828 198.44063Q215.25015 199.58125 215.57828 200.83125Q215.89078 199.62813 216.29703 198.47188L218.51578 192.425L220.2814 192.425L216.32828 202.97188Q215.70328 204.69063 215.3439 205.33125Q214.87515 206.20625 214.26578 206.59688Q213.67203 207.00313 212.82828 207.00313Q212.31265 207.00313 211.68765 206.8Z" fill-rule="nonzero"/><path fill="#000000" d="M146.50015 226.8L146.50015 212.4875L151.42203 212.4875Q153.0939 212.4875 153.98453 212.69063Q155.20328 212.97188 156.07828 213.70625Q157.20328 214.675 157.76578 216.15938Q158.32828 217.64375 158.32828 219.56563Q158.32828 221.19063 157.95328 222.45625Q157.57828 223.70625 156.9689 224.53438Q156.37515 225.3625 155.67203 225.84688Q154.9689 226.31563 153.9689 226.56563Q152.9689 226.8 151.6564 226.8L146.50015 226.8ZM148.39078 225.1125L151.45328 225.1125Q152.85953 225.1125 153.6564 224.84688Q154.4689 224.58125 154.95328 224.09688Q155.62515 223.425 156.00015 222.3Q156.37515 221.15938 156.37515 219.53438Q156.37515 217.28438 155.64078 216.08125Q154.9064 214.87813 153.8439 214.47188Q153.0939 214.175 151.4064 214.175L148.39078 214.175L148.39078 225.1125ZM160.2814 214.50313L160.2814 212.4875L162.04703 212.4875L162.04703 214.50313L160.2814 214.50313ZM160.2814 226.8L160.2814 216.425L162.04703 216.425L162.04703 226.8L160.2814 226.8ZM163.56265 223.70625L165.31265 223.425Q165.45328 224.47188 166.12515 225.03438Q166.79703 225.58125 168.00015 225.58125Q169.20328 225.58125 169.7814 225.09688Q170.37515 224.59688 170.37515 223.94063Q170.37515 223.34688 169.85953 223.00313Q169.50015 222.76875 168.06265 222.40938Q166.12515 221.90938 165.37515 221.56563Q164.64078 221.20625 164.25015 220.58125Q163.85953 219.94063 163.85953 219.175Q163.85953 218.4875 164.17203 217.89375Q164.50015 217.3 165.04703 216.90938Q165.45328 216.6125 166.1564 216.40938Q166.87515 216.19063 167.68765 216.19063Q168.9064 216.19063 169.82828 216.55Q170.75015 216.89375 171.18765 217.50313Q171.62515 218.09688 171.79703 219.09688L170.07828 219.33125Q169.95328 218.53438 169.39078 218.09688Q168.82828 217.64375 167.81265 217.64375Q166.5939 217.64375 166.07828 218.05Q165.56265 218.44063 165.56265 218.97188Q165.56265 219.31563 165.7814 219.59688Q165.98453 219.87813 166.45328 220.06563Q166.7189 220.15938 168.00015 220.50313Q169.87515 221.00313 170.60953 221.33125Q171.3439 221.64375 171.76578 222.25313Q172.18765 222.84688 172.18765 223.75313Q172.18765 224.62813 171.67203 225.40938Q171.1564 226.19063 170.18765 226.6125Q169.2189 227.03438 168.00015 227.03438Q165.98453 227.03438 164.92203 226.19063Q163.85953 225.34688 163.56265 223.70625ZM181.04703 225.51875Q180.06265 226.34688 179.1564 226.69063Q178.25015 227.03438 177.2189 227.03438Q175.51578 227.03438 174.5939 226.20625Q173.67203 225.3625 173.67203 224.06563Q173.67203 223.3 174.01578 222.675Q174.37515 222.05 174.93765 221.675Q175.50015 221.28438 176.20328 221.08125Q176.7189 220.95625 177.76578 220.81563Q179.89078 220.56563 180.89078 220.22188Q180.9064 219.8625 180.9064 219.75313Q180.9064 218.69063 180.4064 218.2375Q179.73453 217.64375 178.4064 217.64375Q177.1564 217.64375 176.56265 218.08125Q175.98453 218.51875 175.70328 219.62813L173.98453 219.39375Q174.2189 218.28438 174.75015 217.6125Q175.2814 216.925 176.29703 216.56563Q177.31265 216.19063 178.6564 216.19063Q179.98453 216.19063 180.81265 216.50313Q181.64078 216.81563 182.0314 217.3Q182.42203 217.76875 182.57828 218.4875Q182.67203 218.94063 182.67203 220.1125L182.67203 222.45625Q182.67203 224.90938 182.7814 225.56563Q182.89078 226.20625 183.23453 226.8L181.39078 226.8Q181.12515 226.25313 181.04703 225.51875ZM180.89078 221.59688Q179.93765 221.9875 178.01578 222.25313Q176.93765 222.40938 176.48453 222.6125Q176.04703 222.8 175.79703 223.175Q175.54703 223.55 175.54703 224.01875Q175.54703 224.72188 176.07828 225.19063Q176.60953 225.65938 177.64078 225.65938Q178.6564 225.65938 179.43765 225.22188Q180.23453 224.76875 180.60953 224.00313Q180.89078 223.39375 180.89078 222.2375L180.89078 221.59688ZM184.95328 227.65938L186.6564 227.90938Q186.76578 228.70625 187.25015 229.06563Q187.9064 229.55 189.04703 229.55Q190.26578 229.55 190.92203 229.06563Q191.5939 228.58125 191.82828 227.70625Q191.9689 227.15938 191.95328 225.44063Q190.79703 226.8 189.07828 226.8Q186.93765 226.8 185.76578 225.25313Q184.5939 223.70625 184.5939 221.55Q184.5939 220.06563 185.12515 218.81563Q185.67203 217.56563 186.68765 216.87813Q187.7189 216.19063 189.0939 216.19063Q190.92203 216.19063 192.12515 217.675L192.12515 216.425L193.73453 216.425L193.73453 225.39375Q193.73453 227.81563 193.23453 228.81563Q192.75015 229.83125 191.67203 230.40938Q190.60953 231.00313 189.04703 231.00313Q187.20328 231.00313 186.04703 230.175Q184.9064 229.34688 184.95328 227.65938ZM186.4064 221.425Q186.4064 223.47188 187.2189 224.40938Q188.0314 225.34688 189.25015 225.34688Q190.45328 225.34688 191.26578 224.40938Q192.0939 223.47188 192.0939 221.4875Q192.0939 219.58125 191.25015 218.6125Q190.4064 217.64375 189.2189 217.64375Q188.04703 217.64375 187.2189 218.59688Q186.4064 219.55 186.4064 221.425ZM196.25015 226.8L196.25015 216.425L197.82828 216.425L197.82828 218.00313Q198.43765 216.89375 198.95328 216.55Q199.4689 216.19063 200.07828 216.19063Q200.9689 216.19063 201.89078 216.75313L201.2814 218.39375Q200.64078 218.00313 200.00015 218.00313Q199.42203 218.00313 198.95328 218.3625Q198.50015 218.70625 198.29703 219.31563Q198.01578 220.25313 198.01578 221.3625L198.01578 226.8L196.25015 226.8ZM210.37515 223.45625L212.18765 223.69063Q211.76578 225.26875 210.5939 226.15938Q209.43765 227.03438 207.62515 227.03438Q205.35953 227.03438 204.01578 225.64375Q202.68765 224.2375 202.68765 221.70625Q202.68765 219.08125 204.0314 217.64375Q205.37515 216.19063 207.5314 216.19063Q209.60953 216.19063 210.92203 217.6125Q212.25015 219.01875 212.25015 221.59688Q212.25015 221.75313 212.23453 222.06563L204.50015 222.06563Q204.5939 223.76875 205.4689 224.675Q206.3439 225.58125 207.64078 225.58125Q208.60953 225.58125 209.2814 225.08125Q209.9689 224.56563 210.37515 223.45625ZM204.5939 220.6125L210.39078 220.6125Q210.2814 219.31563 209.73453 218.65938Q208.89078 217.64375 207.54703 217.64375Q206.3439 217.64375 205.51578 218.45625Q204.68765 219.25313 204.5939 220.6125ZM221.37515 223.45625L223.18765 223.69063Q222.76578 225.26875 221.5939 226.15938Q220.43765 227.03438 218.62515 227.03438Q216.35953 227.03438 215.01578 225.64375Q213.68765 224.2375 213.68765 221.70625Q213.68765 219.08125 215.0314 217.64375Q216.37515 216.19063 218.5314 216.19063Q220.60953 216.19063 221.92203 217.6125Q223.25015 219.01875 223.25015 221.59688Q223.25015 221.75313 223.23453 222.06563L215.50015 222.06563Q215.5939 223.76875 216.4689 224.675Q217.3439 225.58125 218.64078 225.58125Q219.60953 225.58125 220.2814 225.08125Q220.9689 224.56563 221.37515 223.45625ZM215.5939 220.6125L221.39078 220.6125Q221.2814 219.31563 220.73453 218.65938Q219.89078 217.64375 218.54703 217.64375Q217.3439 217.64375 216.51578 218.45625Q215.68765 219.25313 215.5939 220.6125Z" fill-rule="nonzero"/></svg>