<svg version="1.1" viewBox="0.0 0.0 692.0 286.0" fill="none" stroke="none" stroke-linecap="square" stroke-miterlimit="10" width="692" height="286" xmlns:xlink="http://www.w3.org/1999/xlink" xmlns="http://www.w3.org/2000/svg"><path fill="#ffffff" d="M0 0L692.0 0L692.0 286.0L0 286.0L0 0Z" fill-rule="nonzero"/><path stroke="#333333" stroke-width="1.0" stroke-linecap="butt" d="M134.5 196.5L677.5 196.5" fill-rule="nonzero"/><path fill="#eeeeee" d="M112.5 218.5L134.5 197.5L677.5 197.5L655.5 218.5Z" fill-rule="nonzero"/><path stroke="#cccccc" stroke-width="1.0" stroke-linecap="butt" d="M134.5 153.5L677.5 153.5" fill-rule="nonzero"/><path stroke="#cccccc" stroke-width="1.0" stroke-linecap="butt" d="M134.5 111.5L677.5 111.5" fill-rule="nonzero"/><path stroke="#cccccc" stroke-width="1.0" stroke-linecap="butt" d="M134.5 68.5L677.5 68.5" fill-rule="nonzero"/><path stroke="#cccccc" stroke-width="1.0" stroke-linecap="butt" d="M134.5 25.5L677.5 25.5" fill-rule="nonzero"/><clipPath id="id_0"><path d="M112.3 25.3L677.7 25.3L677.7 218.7L112.3 218.7L112.3 25.3Z" clip-rule="nonzero"/></clipPath><path fill="#636363" clip-path="url(#id_0)" d="M227.0 195.0L227.0 197.0L210.0 214.0L210.0 212.0Z" fill-rule="nonzero"/><path fill="#adadad" clip-path="url(#id_0)" d="M210.0 212.0L141.0 212.0L158.0 195.0L227.0 195.0Z" fill-rule="nonzero"/><path stroke="#000000" stroke-width="2.0" stroke-linecap="butt" stroke-opacity="0.0" clip-path="url(#id_0)" d="M210.0 214.0L141.0 214.0L141.0 212.0L210.0 212.0Z" fill-rule="nonzero"/><path fill="#999999" clip-path="url(#id_0)" d="M210.0 214.0L141.0 214.0L141.0 212.0L210.0 212.0Z" fill-rule="nonzero"/><path fill="#7c6d69" clip-path="url(#id_0)" d="M333.0 192.0L333.0 197.0L316.0 214.0L316.0 209.0Z" fill-rule="nonzero"/><path fill="#ccb9b5" clip-path="url(#id_0)" d="M316.0 209.0L247.0 209.0L264.0 192.0L333.0 192.0Z" fill-rule="nonzero"/><path stroke="#000000" stroke-width="2.0" stroke-linecap="butt" stroke-opacity="0.0" clip-path="url(#id_0)" d="M316.0 214.0L247.0 214.0L247.0 209.0L316.0 209.0Z" fill-rule="nonzero"/><path fill="#bfa7a2" clip-path="url(#id_0)" d="M316.0 214.0L247.0 214.0L247.0 209.0L316.0 209.0Z" fill-rule="nonzero"/><path fill="#9e7b74" clip-path="url(#id_0)" d="M439.0 172.0L439.0 197.0L422.0 214.0L422.0 189.0Z" fill-rule="nonzero"/><path fill="#f5cac1" clip-path="url(#id_0)" d="M422.0 189.0L353.0 189.0L370.0 172.0L439.0 172.0Z" fill-rule="nonzero"/><path stroke="#000000" stroke-width="2.0" stroke-linecap="butt" stroke-opacity="0.0" clip-path="url(#id_0)" d="M422.0 214.0L353.0 214.0L353.0 189.0L422.0 189.0Z" fill-rule="nonzero"/><path fill="#f3bdb2" clip-path="url(#id_0)" d="M422.0 214.0L353.0 214.0L353.0 189.0L422.0 189.0Z" fill-rule="nonzero"/><path fill="#9d5a4b" clip-path="url(#id_0)" d="M544.0 84.0L544.0 197.0L527.0 214.0L527.0 101.0Z" fill-rule="nonzero"/><path fill="#f4a190" clip-path="url(#id_0)" d="M527.0 101.0L458.0 101.0L475.0 84.0L544.0 84.0Z" fill-rule="nonzero"/><path stroke="#000000" stroke-width="2.0" stroke-linecap="butt" stroke-opacity="0.0" clip-path="url(#id_0)" d="M527.0 214.0L458.0 214.0L458.0 101.0L527.0 101.0Z" fill-rule="nonzero"/><path fill="#f18a74" clip-path="url(#id_0)" d="M527.0 214.0L458.0 214.0L458.0 101.0L527.0 101.0Z" fill-rule="nonzero"/><path fill="#9c3e2a" clip-path="url(#id_0)" d="M650.0 35.0L650.0 197.0L633.0 214.0L633.0 52.0Z" fill-rule="nonzero"/><path fill="#f37f66" clip-path="url(#id_0)" d="M633.0 52.0L564.0 52.0L581.0 35.0L650.0 35.0Z" fill-rule="nonzero"/><path stroke="#000000" stroke-width="2.0" stroke-linecap="butt" stroke-opacity="0.0" clip-path="url(#id_0)" d="M633.0 214.0L564.0 214.0L564.0 52.0L633.0 52.0Z" fill-rule="nonzero"/><path fill="#f05f40" clip-path="url(#id_0)" d="M633.0 214.0L564.0 214.0L564.0 52.0L633.0 52.0Z" fill-rule="nonzero"/><path stroke="#ffffff" stroke-width="3.0" stroke-linejoin="round" stroke-linecap="round" d="M171.40625 189.3288L169.76562 189.3288L169.76562 178.48505L166.5 179.68817L166.5 178.21942L171.15625 176.46942L171.40625 176.46942L171.40625 189.3288ZM182.4375 176.5163L182.4375 177.90692L182.14062 177.90692Q180.25 177.93817 179.125 179.03192Q178.0 180.11005 177.82812 182.09442Q178.82812 180.93817 180.57812 180.93817Q182.25 180.93817 183.25 182.12567Q184.25 183.29755 184.25 185.15692Q184.25 187.12567 183.17188 188.31317Q182.09375 189.50067 180.28125 189.50067Q178.45312 189.50067 177.29688 188.09442Q176.15625 186.68817 176.15625 184.4538L176.15625 183.8288Q176.15625 180.29755 177.65625 178.43817Q179.17188 176.56317 182.15625 176.5163L182.4375 176.5163ZM180.3125 182.28192Q179.46875 182.28192 178.76562 182.79755Q178.0625 183.29755 177.79688 184.04755L177.79688 184.6413Q177.79688 186.21942 178.5 187.18817Q179.21875 188.15692 180.28125 188.15692Q181.375 188.15692 182.0 187.36005Q182.64062 186.54755 182.64062 185.23505Q182.64062 183.90692 182.0 183.09442Q181.35938 182.28192 180.3125 182.28192Z" fill-rule="nonzero"/><path fill="#999999" d="M171.40625 189.3288L169.76562 189.3288L169.76562 178.48505L166.5 179.68817L166.5 178.21942L171.15625 176.46942L171.40625 176.46942L171.40625 189.3288ZM182.4375 176.5163L182.4375 177.90692L182.14062 177.90692Q180.25 177.93817 179.125 179.03192Q178.0 180.11005 177.82812 182.09442Q178.82812 180.93817 180.57812 180.93817Q182.25 180.93817 183.25 182.12567Q184.25 183.29755 184.25 185.15692Q184.25 187.12567 183.17188 188.31317Q182.09375 189.50067 180.28125 189.50067Q178.45312 189.50067 177.29688 188.09442Q176.15625 186.68817 176.15625 184.4538L176.15625 183.8288Q176.15625 180.29755 177.65625 178.43817Q179.17188 176.56317 182.15625 176.5163L182.4375 176.5163ZM180.3125 182.28192Q179.46875 182.28192 178.76562 182.79755Q178.0625 183.29755 177.79688 184.04755L177.79688 184.6413Q177.79688 186.21942 178.5 187.18817Q179.21875 188.15692 180.28125 188.15692Q181.375 188.15692 182.0 187.36005Q182.64062 186.54755 182.64062 185.23505Q182.64062 183.90692 182.0 183.09442Q181.35938 182.28192 180.3125 182.28192Z" fill-rule="nonzero"/><path stroke="#ffffff" stroke-width="3.0" stroke-linejoin="round" stroke-linecap="round" d="M272.8125 179.65033L273.46875 173.27533L280.01562 173.27533L280.01562 174.77533L274.84375 174.77533L274.45312 178.2597Q275.39062 177.71283 276.59375 177.71283Q278.34375 177.71283 279.35938 178.86908Q280.39062 180.02533 280.39062 181.99408Q280.39062 183.97845 279.32812 185.11908Q278.26562 186.24408 276.34375 186.24408Q274.64062 186.24408 273.5625 185.30658Q272.5 184.36908 272.35938 182.71283L273.89062 182.71283Q274.04688 183.80658 274.67188 184.36908Q275.3125 184.91595 276.34375 184.91595Q277.48438 184.91595 278.125 184.15033Q278.76562 183.36908 278.76562 182.0097Q278.76562 180.72845 278.0625 179.9472Q277.375 179.16595 276.21875 179.16595Q275.15625 179.16595 274.54688 179.6347L274.10938 179.99408L272.8125 179.65033ZM288.92188 181.77533L290.70312 181.77533L290.70312 183.10345L288.92188 183.10345L288.92188 186.0722L287.29688 186.0722L287.29688 183.10345L281.46875 183.10345L281.46875 182.15033L287.20312 173.27533L288.92188 173.27533L288.92188 181.77533ZM283.3125 181.77533L287.29688 181.77533L287.29688 175.49408L287.09375 175.85345L283.3125 181.77533Z" fill-rule="nonzero"/><path fill="#bfa7a2" d="M272.8125 179.65033L273.46875 173.27533L280.01562 173.27533L280.01562 174.77533L274.84375 174.77533L274.45312 178.2597Q275.39062 177.71283 276.59375 177.71283Q278.34375 177.71283 279.35938 178.86908Q280.39062 180.02533 280.39062 181.99408Q280.39062 183.97845 279.32812 185.11908Q278.26562 186.24408 276.34375 186.24408Q274.64062 186.24408 273.5625 185.30658Q272.5 184.36908 272.35938 182.71283L273.89062 182.71283Q274.04688 183.80658 274.67188 184.36908Q275.3125 184.91595 276.34375 184.91595Q277.48438 184.91595 278.125 184.15033Q278.76562 183.36908 278.76562 182.0097Q278.76562 180.72845 278.0625 179.9472Q277.375 179.16595 276.21875 179.16595Q275.15625 179.16595 274.54688 179.6347L274.10938 179.99408L272.8125 179.65033ZM288.92188 181.77533L290.70312 181.77533L290.70312 183.10345L288.92188 183.10345L288.92188 186.0722L287.29688 186.0722L287.29688 183.10345L281.46875 183.10345L281.46875 182.15033L287.20312 173.27533L288.92188 173.27533L288.92188 181.77533ZM283.3125 181.77533L287.29688 181.77533L287.29688 175.49408L287.09375 175.85345L283.3125 181.77533Z" fill-rule="nonzero"/><path fill="#f3bdb2" d="M381.45312 166.4469L373.0625 166.4469L373.0625 165.27502L377.5 160.35315Q378.48438 159.24377 378.84375 158.54065Q379.21875 157.83752 379.21875 157.08752Q379.21875 156.08752 378.60938 155.4469Q378.01562 154.80627 377.0 154.80627Q375.78125 154.80627 375.10938 155.5094Q374.4375 156.1969 374.4375 157.41565L372.8125 157.41565Q372.8125 155.65002 373.95312 154.5719Q375.09375 153.47815 377.0 153.47815Q378.78125 153.47815 379.8125 154.41565Q380.85938 155.35315 380.85938 156.90002Q380.85938 158.79065 378.45312 161.40002L375.03125 165.11877L381.45312 165.11877L381.45312 166.4469ZM390.82812 156.99377Q390.82812 157.9469 390.3125 158.6969Q389.8125 159.4469 388.95312 159.86877Q389.95312 160.29065 390.53125 161.11877Q391.125 161.9469 391.125 162.99377Q391.125 164.65002 390.0 165.6344Q388.875 166.61877 387.04688 166.61877Q385.20312 166.61877 384.09375 165.6344Q382.98438 164.65002 382.98438 162.99377Q382.98438 161.96252 383.54688 161.1344Q384.125 160.29065 385.125 159.85315Q384.26562 159.43127 383.76562 158.68127Q383.28125 157.93127 383.28125 156.99377Q383.28125 155.36877 384.3125 154.43127Q385.35938 153.47815 387.04688 153.47815Q388.73438 153.47815 389.78125 154.43127Q390.82812 155.36877 390.82812 156.99377ZM389.5 162.96252Q389.5 161.8844 388.8125 161.21252Q388.14062 160.52502 387.03125 160.52502Q385.9375 160.52502 385.26562 161.1969Q384.60938 161.86877 384.60938 162.96252Q384.60938 164.04065 385.25 164.66565Q385.90625 165.29065 387.04688 165.29065Q388.20312 165.29065 388.84375 164.66565Q389.5 164.04065 389.5 162.96252ZM387.04688 154.80627Q386.09375 154.80627 385.5 155.40002Q384.90625 155.99377 384.90625 157.0094Q384.90625 157.99377 385.48438 158.60315Q386.07812 159.1969 387.04688 159.1969Q388.03125 159.1969 388.60938 158.60315Q389.20312 157.99377 389.20312 157.02502Q389.20312 156.04065 388.59375 155.43127Q387.98438 154.80627 387.04688 154.80627ZM395.42188 159.2594L396.65625 159.2594Q397.79688 159.24377 398.45312 158.65002Q399.125 158.05627 399.125 157.05627Q399.125 154.80627 396.875 154.80627Q395.82812 154.80627 395.1875 155.41565Q394.5625 156.0094 394.5625 157.0094L392.9375 157.0094Q392.9375 155.49377 394.04688 154.49377Q395.17188 153.47815 396.875 153.47815Q398.6875 153.47815 399.71875 154.43127Q400.75 155.3844 400.75 157.08752Q400.75 157.93127 400.20312 158.71252Q399.67188 159.49377 398.73438 159.8844Q399.78125 160.21252 400.35938 160.99377Q400.9375 161.7594 400.9375 162.8844Q400.9375 164.60315 399.8125 165.61877Q398.6875 166.61877 396.875 166.61877Q395.07812 166.61877 393.95312 165.65002Q392.82812 164.66565 392.82812 163.0719L394.46875 163.0719Q394.46875 164.08752 395.125 164.6969Q395.78125 165.29065 396.89062 165.29065Q398.0625 165.29065 398.6875 164.68127Q399.3125 164.0719 399.3125 162.91565Q399.3125 161.79065 398.625 161.1969Q397.9375 160.60315 396.65625 160.58752L395.42188 160.58752L395.42188 159.2594Z" fill-rule="nonzero"/><path stroke="#ffffff" stroke-width="3.0" stroke-linejoin="round" stroke-linecap="round" d="M478.40625 77.6617L476.76562 77.6617L476.76562 66.81795L473.5 68.02107L473.5 66.55232L478.15625 64.80232L478.40625 64.80232L478.40625 77.6617ZM485.42188 70.4742L486.65625 70.4742Q487.79688 70.45857 488.45312 69.86482Q489.125 69.27107 489.125 68.27107Q489.125 66.02107 486.875 66.02107Q485.82812 66.02107 485.1875 66.63045Q484.5625 67.2242 484.5625 68.2242L482.9375 68.2242Q482.9375 66.70857 484.04688 65.70857Q485.17188 64.69295 486.875 64.69295Q488.6875 64.69295 489.71875 65.64607Q490.75 66.5992 490.75 68.30232Q490.75 69.14607 490.20312 69.92732Q489.67188 70.70857 488.73438 71.0992Q489.78125 71.42732 490.35938 72.20857Q490.9375 72.9742 490.9375 74.0992Q490.9375 75.81795 489.8125 76.83357Q488.6875 77.83357 486.875 77.83357Q485.07812 77.83357 483.95312 76.86482Q482.82812 75.88045 482.82812 74.2867L484.46875 74.2867Q484.46875 75.30232 485.125 75.9117Q485.78125 76.50545 486.89062 76.50545Q488.0625 76.50545 488.6875 75.89607Q489.3125 75.2867 489.3125 74.13045Q489.3125 73.00545 488.625 72.4117Q487.9375 71.81795 486.65625 71.80232L485.42188 71.80232L485.42188 70.4742ZM498.40625 77.6617L496.76562 77.6617L496.76562 66.81795L493.5 68.02107L493.5 66.55232L498.15625 64.80232L498.40625 64.80232L498.40625 77.6617ZM509.29688 72.0367Q508.78125 72.64607 508.07812 73.02107Q507.375 73.38045 506.53125 73.38045Q505.42188 73.38045 504.59375 72.83357Q503.78125 72.2867 503.32812 71.30232Q502.875 70.31795 502.875 69.11482Q502.875 67.83357 503.35938 66.80232Q503.85938 65.77107 504.75 65.23982Q505.64062 64.69295 506.84375 64.69295Q508.73438 64.69295 509.82812 66.11482Q510.9375 67.52107 510.9375 69.9742L510.9375 70.45857Q510.9375 74.19295 509.45312 75.9117Q507.98438 77.63045 505.0 77.67732L504.6875 77.67732L504.6875 76.30232L505.03125 76.30232Q507.03125 76.27107 508.10938 75.25545Q509.20312 74.23982 509.29688 72.0367ZM506.79688 72.0367Q507.60938 72.0367 508.29688 71.5367Q508.98438 71.0367 509.29688 70.30232L509.29688 69.64607Q509.29688 68.05232 508.60938 67.05232Q507.92188 66.0367 506.85938 66.0367Q505.78125 66.0367 505.125 66.86482Q504.48438 67.69295 504.48438 69.0367Q504.48438 70.33357 505.10938 71.19295Q505.73438 72.0367 506.79688 72.0367Z" fill-rule="nonzero"/><path fill="#f18a74" d="M478.40625 77.6617L476.76562 77.6617L476.76562 66.81795L473.5 68.02107L473.5 66.55232L478.15625 64.80232L478.40625 64.80232L478.40625 77.6617ZM485.42188 70.4742L486.65625 70.4742Q487.79688 70.45857 488.45312 69.86482Q489.125 69.27107 489.125 68.27107Q489.125 66.02107 486.875 66.02107Q485.82812 66.02107 485.1875 66.63045Q484.5625 67.2242 484.5625 68.2242L482.9375 68.2242Q482.9375 66.70857 484.04688 65.70857Q485.17188 64.69295 486.875 64.69295Q488.6875 64.69295 489.71875 65.64607Q490.75 66.5992 490.75 68.30232Q490.75 69.14607 490.20312 69.92732Q489.67188 70.70857 488.73438 71.0992Q489.78125 71.42732 490.35938 72.20857Q490.9375 72.9742 490.9375 74.0992Q490.9375 75.81795 489.8125 76.83357Q488.6875 77.83357 486.875 77.83357Q485.07812 77.83357 483.95312 76.86482Q482.82812 75.88045 482.82812 74.2867L484.46875 74.2867Q484.46875 75.30232 485.125 75.9117Q485.78125 76.50545 486.89062 76.50545Q488.0625 76.50545 488.6875 75.89607Q489.3125 75.2867 489.3125 74.13045Q489.3125 73.00545 488.625 72.4117Q487.9375 71.81795 486.65625 71.80232L485.42188 71.80232L485.42188 70.4742ZM498.40625 77.6617L496.76562 77.6617L496.76562 66.81795L493.5 68.02107L493.5 66.55232L498.15625 64.80232L498.40625 64.80232L498.40625 77.6617ZM509.29688 72.0367Q508.78125 72.64607 508.07812 73.02107Q507.375 73.38045 506.53125 73.38045Q505.42188 73.38045 504.59375 72.83357Q503.78125 72.2867 503.32812 71.30232Q502.875 70.31795 502.875 69.11482Q502.875 67.83357 503.35938 66.80232Q503.85938 65.77107 504.75 65.23982Q505.64062 64.69295 506.84375 64.69295Q508.73438 64.69295 509.82812 66.11482Q510.9375 67.52107 510.9375 69.9742L510.9375 70.45857Q510.9375 74.19295 509.45312 75.9117Q507.98438 77.63045 505.0 77.67732L504.6875 77.67732L504.6875 76.30232L505.03125 76.30232Q507.03125 76.27107 508.10938 75.25545Q509.20312 74.23982 509.29688 72.0367ZM506.79688 72.0367Q507.60938 72.0367 508.29688 71.5367Q508.98438 71.0367 509.29688 70.30232L509.29688 69.64607Q509.29688 68.05232 508.60938 67.05232Q507.92188 66.0367 506.85938 66.0367Q505.78125 66.0367 505.125 66.86482Q504.48438 67.69295 504.48438 69.0367Q504.48438 70.33357 505.10938 71.19295Q505.73438 72.0367 506.79688 72.0367Z" fill-rule="nonzero"/><path stroke="#ffffff" stroke-width="3.0" stroke-linejoin="round" stroke-linecap="round" d="M584.40625 28.9841L582.7656 28.9841L582.7656 18.14035L579.5 19.343475L579.5 17.874725L584.15625 16.124725L584.40625 16.124725L584.40625 28.9841ZM596.8281 19.530975Q596.8281 20.4841 596.3125 21.2341Q595.8125 21.9841 594.9531 22.405975Q595.9531 22.82785 596.53125 23.655975Q597.125 24.4841 597.125 25.530975Q597.125 27.187225 596.0 28.1716Q594.875 29.155975 593.0469 29.155975Q591.2031 29.155975 590.09375 28.1716Q588.9844 27.187225 588.9844 25.530975Q588.9844 24.499725 589.5469 23.6716Q590.125 22.82785 591.125 22.39035Q590.2656 21.968475 589.7656 21.218475Q589.28125 20.468475 589.28125 19.530975Q589.28125 17.905975 590.3125 16.968475Q591.3594 16.01535 593.0469 16.01535Q594.7344 16.01535 595.78125 16.968475Q596.8281 17.905975 596.8281 19.530975ZM595.5 25.499725Q595.5 24.4216 594.8125 23.749725Q594.1406 23.062225 593.03125 23.062225Q591.9375 23.062225 591.2656 23.7341Q590.6094 24.405975 590.6094 25.499725Q590.6094 26.57785 591.25 27.20285Q591.90625 27.82785 593.0469 27.82785Q594.2031 27.82785 594.84375 27.20285Q595.5 26.57785 595.5 25.499725ZM593.0469 17.343475Q592.09375 17.343475 591.5 17.937225Q590.90625 18.530975 590.90625 19.5466Q590.90625 20.530975 591.4844 21.14035Q592.0781 21.7341 593.0469 21.7341Q594.03125 21.7341 594.6094 21.14035Q595.2031 20.530975 595.2031 19.562225Q595.2031 18.57785 594.59375 17.968475Q593.9844 17.343475 593.0469 17.343475ZM606.8281 19.530975Q606.8281 20.4841 606.3125 21.2341Q605.8125 21.9841 604.9531 22.405975Q605.9531 22.82785 606.53125 23.655975Q607.125 24.4841 607.125 25.530975Q607.125 27.187225 606.0 28.1716Q604.875 29.155975 603.0469 29.155975Q601.2031 29.155975 600.09375 28.1716Q598.9844 27.187225 598.9844 25.530975Q598.9844 24.499725 599.5469 23.6716Q600.125 22.82785 601.125 22.39035Q600.2656 21.968475 599.7656 21.218475Q599.28125 20.468475 599.28125 19.530975Q599.28125 17.905975 600.3125 16.968475Q601.3594 16.01535 603.0469 16.01535Q604.7344 16.01535 605.78125 16.968475Q606.8281 17.905975 606.8281 19.530975ZM605.5 25.499725Q605.5 24.4216 604.8125 23.749725Q604.1406 23.062225 603.03125 23.062225Q601.9375 23.062225 601.2656 23.7341Q600.6094 24.405975 600.6094 25.499725Q600.6094 26.57785 601.25 27.20285Q601.90625 27.82785 603.0469 27.82785Q604.2031 27.82785 604.84375 27.20285Q605.5 26.57785 605.5 25.499725ZM603.0469 17.343475Q602.09375 17.343475 601.5 17.937225Q600.90625 18.530975 600.90625 19.5466Q600.90625 20.530975 601.4844 21.14035Q602.0781 21.7341 603.0469 21.7341Q604.03125 21.7341 604.6094 21.14035Q605.2031 20.530975 605.2031 19.562225Q605.2031 18.57785 604.59375 17.968475Q603.9844 17.343475 603.0469 17.343475ZM617.3281 17.093475L612.03125 28.9841L610.3281 28.9841L615.6094 17.51535L608.6719 17.51535L608.6719 16.187225L617.3281 16.187225L617.3281 17.093475Z" fill-rule="nonzero"/><path fill="#f05f40" d="M584.40625 28.9841L582.7656 28.9841L582.7656 18.14035L579.5 19.343475L579.5 17.874725L584.15625 16.124725L584.40625 16.124725L584.40625 28.9841ZM596.8281 19.530975Q596.8281 20.4841 596.3125 21.2341Q595.8125 21.9841 594.9531 22.405975Q595.9531 22.82785 596.53125 23.655975Q597.125 24.4841 597.125 25.530975Q597.125 27.187225 596.0 28.1716Q594.875 29.155975 593.0469 29.155975Q591.2031 29.155975 590.09375 28.1716Q588.9844 27.187225 588.9844 25.530975Q588.9844 24.499725 589.5469 23.6716Q590.125 22.82785 591.125 22.39035Q590.2656 21.968475 589.7656 21.218475Q589.28125 20.468475 589.28125 19.530975Q589.28125 17.905975 590.3125 16.968475Q591.3594 16.01535 593.0469 16.01535Q594.7344 16.01535 595.78125 16.968475Q596.8281 17.905975 596.8281 19.530975ZM595.5 25.499725Q595.5 24.4216 594.8125 23.749725Q594.1406 23.062225 593.03125 23.062225Q591.9375 23.062225 591.2656 23.7341Q590.6094 24.405975 590.6094 25.499725Q590.6094 26.57785 591.25 27.20285Q591.90625 27.82785 593.0469 27.82785Q594.2031 27.82785 594.84375 27.20285Q595.5 26.57785 595.5 25.499725ZM593.0469 17.343475Q592.09375 17.343475 591.5 17.937225Q590.90625 18.530975 590.90625 19.5466Q590.90625 20.530975 591.4844 21.14035Q592.0781 21.7341 593.0469 21.7341Q594.03125 21.7341 594.6094 21.14035Q595.2031 20.530975 595.2031 19.562225Q595.2031 18.57785 594.59375 17.968475Q593.9844 17.343475 593.0469 17.343475ZM606.8281 19.530975Q606.8281 20.4841 606.3125 21.2341Q605.8125 21.9841 604.9531 22.405975Q605.9531 22.82785 606.53125 23.655975Q607.125 24.4841 607.125 25.530975Q607.125 27.187225 606.0 28.1716Q604.875 29.155975 603.0469 29.155975Q601.2031 29.155975 600.09375 28.1716Q598.9844 27.187225 598.9844 25.530975Q598.9844 24.499725 599.5469 23.6716Q600.125 22.82785 601.125 22.39035Q600.2656 21.968475 599.7656 21.218475Q599.28125 20.468475 599.28125 19.530975Q599.28125 17.905975 600.3125 16.968475Q601.3594 16.01535 603.0469 16.01535Q604.7344 16.01535 605.78125 16.968475Q606.8281 17.905975 606.8281 19.530975ZM605.5 25.499725Q605.5 24.4216 604.8125 23.749725Q604.1406 23.062225 603.03125 23.062225Q601.9375 23.062225 601.2656 23.7341Q600.6094 24.405975 600.6094 25.499725Q600.6094 26.57785 601.25 27.20285Q601.90625 27.82785 603.0469 27.82785Q604.2031 27.82785 604.84375 27.20285Q605.5 26.57785 605.5 25.499725ZM603.0469 17.343475Q602.09375 17.343475 601.5 17.937225Q600.90625 18.530975 600.90625 19.5466Q600.90625 20.530975 601.4844 21.14035Q602.0781 21.7341 603.0469 21.7341Q604.03125 21.7341 604.6094 21.14035Q605.2031 20.530975 605.2031 19.562225Q605.2031 18.57785 604.59375 17.968475Q603.9844 17.343475 603.0469 17.343475ZM617.3281 17.093475L612.03125 28.9841L610.3281 28.9841L615.6094 17.51535L608.6719 17.51535L608.6719 16.187225L617.3281 16.187225L617.3281 17.093475Z" fill-rule="nonzero"/><path fill="#000000" d="M26.128138 180.82812L26.128138 183.82812L31.300013 183.82812L31.300013 185.51562L18.503138 185.51562L18.503138 181.28125Q18.503138 179.125 19.487513 177.96875Q20.471888 176.79688 22.346888 176.79688Q23.550013 176.79688 24.440638 177.45312Q25.315638 178.09375 25.768763 179.23438L31.190638 176.23438L31.300013 176.23438L31.300013 178.04688L26.128138 180.82812ZM24.737513 183.82812L24.737513 181.23438Q24.737513 179.98438 24.096888 179.23438Q23.440638 178.48438 22.346888 178.48438Q21.159388 178.48438 20.534388 179.20312Q19.893763 179.90625 19.893763 181.25L19.893763 183.82812L24.737513 183.82812ZM31.471888 170.82812Q31.471888 172.75 30.206263 173.96875Q28.940638 175.1875 26.815638 175.1875L26.503138 175.1875Q25.096888 175.1875 23.987513 174.64062Q22.878138 174.09375 22.253138 173.125Q21.612513 172.15625 21.612513 171.03125Q21.612513 169.17188 22.831263 168.14062Q24.050013 167.10938 26.331263 167.10938L27.003138 167.10938L27.003138 173.5625Q28.409388 173.51562 29.284388 172.73438Q30.143763 171.95312 30.143763 170.73438Q30.143763 169.875 29.800013 169.28125Q29.440638 168.67188 28.862513 168.23438L29.643763 167.23438Q31.471888 168.4375 31.471888 170.82812ZM22.956263 171.03125Q22.956263 172.01562 23.675013 172.6875Q24.378138 173.34375 25.675013 173.5L25.675013 168.73438L25.550013 168.73438Q24.315638 168.8125 23.643763 169.40625Q22.956263 170.0 22.956263 171.03125ZM28.784388 159.23438Q28.112513 159.23438 27.753138 159.73438Q27.393763 160.21875 27.128138 161.45312Q26.862513 162.6875 26.503138 163.42188Q26.128138 164.14062 25.612513 164.5Q25.096888 164.84375 24.393763 164.84375Q23.237513 164.84375 22.425013 163.85938Q21.612513 162.85938 21.612513 161.32812Q21.612513 159.70312 22.456263 158.70312Q23.284388 157.6875 24.581263 157.6875L24.581263 159.32812Q23.909388 159.32812 23.440638 159.90625Q22.956263 160.46875 22.956263 161.32812Q22.956263 162.21875 23.346888 162.71875Q23.721888 163.21875 24.346888 163.21875Q24.940638 163.21875 25.237513 162.75Q25.534388 162.28125 25.815638 161.0625Q26.081263 159.84375 26.456263 159.09375Q26.831263 158.32812 27.362513 157.96875Q27.893763 157.60938 28.659388 157.60938Q29.940638 157.60938 30.706263 158.625Q31.471888 159.64062 31.471888 161.26562Q31.471888 162.40625 31.065638 163.29688Q30.659388 164.17188 29.940638 164.67188Q29.221888 165.17188 28.378138 165.17188L28.378138 163.53125Q29.190638 163.5 29.675013 162.89062Q30.143763 162.26562 30.143763 161.26562Q30.143763 160.34375 29.768763 159.79688Q29.393763 159.23438 28.784388 159.23438ZM26.643763 147.73438Q28.815638 147.73438 30.143763 148.73438Q31.471888 149.71875 31.471888 151.42188Q31.471888 153.15625 30.378138 154.14062L34.95626 154.14062L34.95626 155.76562L21.784388 155.76562L21.784388 154.28125L22.846888 154.20312Q21.612513 153.21875 21.612513 151.4375Q21.612513 149.73438 22.909388 148.73438Q24.190638 147.73438 26.503138 147.73438L26.643763 147.73438ZM26.471888 149.35938Q24.862513 149.35938 23.925013 150.04688Q22.987513 150.73438 22.987513 151.92188Q22.987513 153.40625 24.300013 154.14062L28.846888 154.14062Q30.143763 153.40625 30.143763 151.90625Q30.143763 150.73438 29.221888 150.04688Q28.300013 149.35938 26.471888 149.35938ZM26.456263 146.20312Q25.065638 146.20312 23.956263 145.65625Q22.831263 145.09375 22.221888 144.125Q21.612513 143.14062 21.612513 141.89062Q21.612513 139.9375 22.956263 138.75Q24.300013 137.54688 26.534388 137.54688L26.643763 137.54688Q28.034388 137.54688 29.143763 138.07812Q30.237513 138.60938 30.862513 139.59375Q31.471888 140.57812 31.471888 141.85938Q31.471888 143.79688 30.128138 145.0Q28.784388 146.20312 26.565638 146.20312L26.456263 146.20312ZM26.643763 144.5625Q28.237513 144.5625 29.190638 143.82812Q30.143763 143.09375 30.143763 141.85938Q30.143763 140.625 29.175013 139.90625Q28.206263 139.17188 26.456263 139.17188Q24.893763 139.17188 23.925013 139.92188Q22.956263 140.65625 22.956263 141.89062Q22.956263 143.09375 23.909388 143.82812Q24.862513 144.5625 26.643763 144.5625ZM21.784388 134.23438L22.987513 134.17188Q21.612513 133.09375 21.612513 131.32812Q21.612513 128.3125 25.018763 128.29688L31.300013 128.29688L31.300013 129.92188L25.003138 129.92188Q23.971888 129.92188 23.487513 130.39062Q22.987513 130.84375 22.987513 131.82812Q22.987513 132.60938 23.409388 133.21875Q23.831263 133.8125 24.518763 134.14062L31.300013 134.14062L31.300013 135.76562L21.784388 135.76562L21.784388 134.23438ZM28.784388 120.234375Q28.112513 120.234375 27.753138 120.734375Q27.393763 121.21875 27.128138 122.453125Q26.862513 123.6875 26.503138 124.421875Q26.128138 125.140625 25.612513 125.5Q25.096888 125.84375 24.393763 125.84375Q23.237513 125.84375 22.425013 124.859375Q21.612513 123.859375 21.612513 122.328125Q21.612513 120.703125 22.456263 119.703125Q23.284388 118.6875 24.581263 118.6875L24.581263 120.328125Q23.909388 120.328125 23.440638 120.90625Q22.956263 121.46875 22.956263 122.328125Q22.956263 123.21875 23.346888 123.71875Q23.721888 124.21875 24.346888 124.21875Q24.940638 124.21875 25.237513 123.75Q25.534388 123.28125 25.815638 122.0625Q26.081263 120.84375 26.456263 120.09375Q26.831263 119.328125 27.362513 118.96875Q27.893763 118.609375 28.659388 118.609375Q29.940638 118.609375 30.706263 119.625Q31.471888 120.640625 31.471888 122.265625Q31.471888 123.40625 31.065638 124.296875Q30.659388 125.171875 29.940638 125.671875Q29.221888 126.171875 28.378138 126.171875L28.378138 124.53125Q29.190638 124.5 29.675013 123.890625Q30.143763 123.265625 30.143763 122.265625Q30.143763 121.34375 29.768763 120.796875Q29.393763 120.234375 28.784388 120.234375ZM31.471888 112.828125Q31.471888 114.75 30.206263 115.96875Q28.940638 117.1875 26.815638 117.1875L26.503138 117.1875Q25.096888 117.1875 23.987513 116.640625Q22.878138 116.09375 22.253138 115.125Q21.612513 114.15625 21.612513 113.03125Q21.612513 111.171875 22.831263 110.140625Q24.050013 109.109375 26.331263 109.109375L27.003138 109.109375L27.003138 115.5625Q28.409388 115.515625 29.284388 114.734375Q30.143763 113.953125 30.143763 112.734375Q30.143763 111.875 29.800013 111.28125Q29.440638 110.671875 28.862513 110.234375L29.643763 109.234375Q31.471888 110.4375 31.471888 112.828125ZM22.956263 113.03125Q22.956263 114.015625 23.675013 114.6875Q24.378138 115.34375 25.675013 115.5L25.675013 110.734375L25.550013 110.734375Q24.315638 110.8125 23.643763 111.40625Q22.956263 112.0 22.956263 113.03125ZM28.784388 101.234375Q28.112513 101.234375 27.753138 101.734375Q27.393763 102.21875 27.128138 103.453125Q26.862513 104.6875 26.503138 105.421875Q26.128138 106.140625 25.612513 106.5Q25.096888 106.84375 24.393763 106.84375Q23.237513 106.84375 22.425013 105.859375Q21.612513 104.859375 21.612513 103.328125Q21.612513 101.703125 22.456263 100.703125Q23.284388 99.6875 24.581263 99.6875L24.581263 101.328125Q23.909388 101.328125 23.440638 101.90625Q22.956263 102.46875 22.956263 103.328125Q22.956263 104.21875 23.346888 104.71875Q23.721888 105.21875 24.346888 105.21875Q24.940638 105.21875 25.237513 104.75Q25.534388 104.28125 25.815638 103.0625Q26.081263 101.84375 26.456263 101.09375Q26.831263 100.328125 27.362513 99.96875Q27.893763 99.609375 28.659388 99.609375Q29.940638 99.609375 30.706263 100.625Q31.471888 101.640625 31.471888 103.265625Q31.471888 104.40625 31.065638 105.296875Q30.659388 106.171875 29.940638 106.671875Q29.221888 107.171875 28.378138 107.171875L28.378138 105.53125Q29.190638 105.5 29.675013 104.890625Q30.143763 104.265625 30.143763 103.265625Q30.143763 102.34375 29.768763 101.796875Q29.393763 101.234375 28.784388 101.234375Z" fill-rule="nonzero"/><path fill="#000000" d="M102.39375 197.24687Q102.39375 200.09062 101.40938 201.48125Q100.44063 202.87187 98.3625 202.87187Q96.31563 202.87187 95.33125 201.5125Q94.34688 200.15312 94.31563 197.46562L94.31563 195.29375Q94.31563 192.46562 95.28438 191.10625Q96.26875 189.73125 98.34688 189.73125Q100.40938 189.73125 101.37813 191.05937Q102.3625 192.37187 102.39375 195.1375L102.39375 197.24687ZM100.76875 195.0125Q100.76875 192.95 100.175 192.0125Q99.59688 191.05937 98.34688 191.05937Q97.09688 191.05937 96.51875 192.0125Q95.95625 192.95 95.94063 194.8875L95.94063 197.49687Q95.94063 199.575 96.53438 200.55937Q97.14375 201.54375 98.3625 201.54375Q99.56563 201.54375 100.14375 200.62187Q100.7375 199.68437 100.76875 197.68437L100.76875 195.0125Z" fill-rule="nonzero"/><path fill="#000000" d="M75.1125 153.42813L75.76875 147.05313L82.31563 147.05313L82.31563 148.55313L77.14375 148.55313L76.75313 152.0375Q77.69063 151.49063 78.89375 151.49063Q80.64375 151.49063 81.65938 152.64688Q82.69063 153.80313 82.69063 155.77188Q82.69063 157.75626 81.62813 158.89688Q80.56563 160.02188 78.64375 160.02188Q76.94063 160.02188 75.8625 159.08438Q74.8 158.14688 74.65938 156.49063L76.19063 156.49063Q76.34688 157.58438 76.97188 158.14688Q77.6125 158.69376 78.64375 158.69376Q79.78438 158.69376 80.425 157.92813Q81.06563 157.14688 81.06563 155.7875Q81.06563 154.50626 80.3625 153.725Q79.675 152.94376 78.51875 152.94376Q77.45625 152.94376 76.84688 153.4125L76.40938 153.77188L75.1125 153.42813ZM92.39375 154.39688Q92.39375 157.24063 91.40938 158.63126Q90.44063 160.02188 88.3625 160.02188Q86.31563 160.02188 85.33125 158.6625Q84.34688 157.30313 84.31563 154.61563L84.31563 152.44376Q84.31563 149.61563 85.28438 148.25626Q86.26875 146.88126 88.34688 146.88126Q90.40938 146.88126 91.37813 148.20938Q92.3625 149.52188 92.39375 152.2875L92.39375 154.39688ZM90.76875 152.1625Q90.76875 150.1 90.175 149.1625Q89.59688 148.20938 88.34688 148.20938Q87.09688 148.20938 86.51875 149.1625Q85.95625 150.1 85.94063 152.0375L85.94063 154.64688Q85.94063 156.725 86.53438 157.70938Q87.14375 158.69376 88.3625 158.69376Q89.56563 158.69376 90.14375 157.77188Q90.7375 156.83438 90.76875 154.83438L90.76875 152.1625ZM102.39375 154.39688Q102.39375 157.24063 101.40938 158.63126Q100.44063 160.02188 98.3625 160.02188Q96.31563 160.02188 95.33125 158.6625Q94.34688 157.30313 94.31563 154.61563L94.31563 152.44376Q94.31563 149.61563 95.28438 148.25626Q96.26875 146.88126 98.34688 146.88126Q100.40938 146.88126 101.37813 148.20938Q102.3625 149.52188 102.39375 152.2875L102.39375 154.39688ZM100.76875 152.1625Q100.76875 150.1 100.175 149.1625Q99.59688 148.20938 98.34688 148.20938Q97.09688 148.20938 96.51875 149.1625Q95.95625 150.1 95.94063 152.0375L95.94063 154.64688Q95.94063 156.725 96.53438 157.70938Q97.14375 158.69376 98.3625 158.69376Q99.56563 158.69376 100.14375 157.77188Q100.7375 156.83438 100.76875 154.83438L100.76875 152.1625Z" fill-rule="nonzero"/><path fill="#000000" d="M69.70625 117.0L68.06563 117.0L68.06563 106.15625L64.8 107.359375L64.8 105.890625L69.45625 104.140625L69.70625 104.140625L69.70625 117.0ZM82.39375 111.546875Q82.39375 114.390625 81.40938 115.78125Q80.44063 117.171875 78.3625 117.171875Q76.31563 117.171875 75.33125 115.8125Q74.34688 114.453125 74.31563 111.765625L74.31563 109.59375Q74.31563 106.765625 75.28438 105.40625Q76.26875 104.03125 78.34688 104.03125Q80.40938 104.03125 81.37813 105.359375Q82.3625 106.671875 82.39375 109.4375L82.39375 111.546875ZM80.76875 109.3125Q80.76875 107.25 80.175 106.3125Q79.59688 105.359375 78.34688 105.359375Q77.09688 105.359375 76.51875 106.3125Q75.95625 107.25 75.94063 109.1875L75.94063 111.796875Q75.94063 113.875 76.53438 114.859375Q77.14375 115.84375 78.3625 115.84375Q79.56563 115.84375 80.14375 114.921875Q80.7375 113.984375 80.76875 111.984375L80.76875 109.3125ZM92.39375 111.546875Q92.39375 114.390625 91.40938 115.78125Q90.44063 117.171875 88.3625 117.171875Q86.31563 117.171875 85.33125 115.8125Q84.34688 114.453125 84.31563 111.765625L84.31563 109.59375Q84.31563 106.765625 85.28438 105.40625Q86.26875 104.03125 88.34688 104.03125Q90.40938 104.03125 91.37813 105.359375Q92.3625 106.671875 92.39375 109.4375L92.39375 111.546875ZM90.76875 109.3125Q90.76875 107.25 90.175 106.3125Q89.59688 105.359375 88.34688 105.359375Q87.09688 105.359375 86.51875 106.3125Q85.95625 107.25 85.94063 109.1875L85.94063 111.796875Q85.94063 113.875 86.53438 114.859375Q87.14375 115.84375 88.3625 115.84375Q89.56563 115.84375 90.14375 114.921875Q90.7375 113.984375 90.76875 111.984375L90.76875 109.3125ZM102.39375 111.546875Q102.39375 114.390625 101.40938 115.78125Q100.44063 117.171875 98.3625 117.171875Q96.31563 117.171875 95.33125 115.8125Q94.34688 114.453125 94.31563 111.765625L94.31563 109.59375Q94.31563 106.765625 95.28438 105.40625Q96.26875 104.03125 98.34688 104.03125Q100.40938 104.03125 101.37813 105.359375Q102.3625 106.671875 102.39375 109.4375L102.39375 111.546875ZM100.76875 109.3125Q100.76875 107.25 100.175 106.3125Q99.59688 105.359375 98.34688 105.359375Q97.09688 105.359375 96.51875 106.3125Q95.95625 107.25 95.94063 109.1875L95.94063 111.796875Q95.94063 113.875 96.53438 114.859375Q97.14375 115.84375 98.3625 115.84375Q99.56563 115.84375 100.14375 114.921875Q100.7375 113.984375 100.76875 111.984375L100.76875 109.3125Z" fill-rule="nonzero"/><path fill="#000000" d="M69.70625 74.15L68.06563 74.15L68.06563 63.30625L64.8 64.50938L64.8 63.040627L69.45625 61.290627L69.70625 61.290627L69.70625 74.15ZM75.1125 67.72813L75.76875 61.353127L82.31563 61.353127L82.31563 62.853127L77.14375 62.853127L76.75313 66.3375Q77.69063 65.79063 78.89375 65.79063Q80.64375 65.79063 81.65938 66.94688Q82.69063 68.10313 82.69063 70.07188Q82.69063 72.05625 81.62813 73.19688Q80.56563 74.32188 78.64375 74.32188Q76.94063 74.32188 75.8625 73.38438Q74.8 72.44688 74.65938 70.79063L76.19063 70.79063Q76.34688 71.88438 76.97188 72.44688Q77.6125 72.99375 78.64375 72.99375Q79.78438 72.99375 80.425 72.22813Q81.06563 71.44688 81.06563 70.0875Q81.06563 68.80625 80.3625 68.025Q79.675 67.24375 78.51875 67.24375Q77.45625 67.24375 76.84688 67.7125L76.40938 68.07188L75.1125 67.72813ZM92.39375 68.69688Q92.39375 71.54063 91.40938 72.93125Q90.44063 74.32188 88.3625 74.32188Q86.31563 74.32188 85.33125 72.9625Q84.34688 71.60313 84.31563 68.91563L84.31563 66.74375Q84.31563 63.915627 85.28438 62.55625Q86.26875 61.18125 88.34688 61.18125Q90.40938 61.18125 91.37813 62.509377Q92.3625 63.821877 92.39375 66.5875L92.39375 68.69688ZM90.76875 66.4625Q90.76875 64.4 90.175 63.4625Q89.59688 62.509377 88.34688 62.509377Q87.09688 62.509377 86.51875 63.4625Q85.95625 64.4 85.94063 66.3375L85.94063 68.94688Q85.94063 71.025 86.53438 72.00938Q87.14375 72.99375 88.3625 72.99375Q89.56563 72.99375 90.14375 72.07188Q90.7375 71.13438 90.76875 69.13438L90.76875 66.4625ZM102.39375 68.69688Q102.39375 71.54063 101.40938 72.93125Q100.44063 74.32188 98.3625 74.32188Q96.31563 74.32188 95.33125 72.9625Q94.34688 71.60313 94.31563 68.91563L94.31563 66.74375Q94.31563 63.915627 95.28438 62.55625Q96.26875 61.18125 98.34688 61.18125Q100.40938 61.18125 101.37813 62.509377Q102.3625 63.821877 102.39375 66.5875L102.39375 68.69688ZM100.76875 66.4625Q100.76875 64.4 100.175 63.4625Q99.59688 62.509377 98.34688 62.509377Q97.09688 62.509377 96.51875 63.4625Q95.95625 64.4 95.94063 66.3375L95.94063 68.94688Q95.94063 71.025 96.53438 72.00938Q97.14375 72.99375 98.3625 72.99375Q99.56563 72.99375 100.14375 72.07188Q100.7375 71.13438 100.76875 69.13438L100.76875 66.4625Z" fill-rule="nonzero"/><path fill="#000000" d="M72.75313 31.3L64.3625 31.3L64.3625 30.128124L68.8 25.20625Q69.78438 24.096874 70.14375 23.39375Q70.51875 22.690624 70.51875 21.940624Q70.51875 20.940624 69.90938 20.3Q69.31563 19.659374 68.3 19.659374Q67.08125 19.659374 66.40938 20.3625Q65.7375 21.05 65.7375 22.26875L64.1125 22.26875Q64.1125 20.503124 65.25313 19.425Q66.39375 18.33125 68.3 18.33125Q70.08125 18.33125 71.1125 19.26875Q72.15938 20.20625 72.15938 21.753124Q72.15938 23.64375 69.75313 26.253124L66.33125 29.971874L72.75313 29.971874L72.75313 31.3ZM82.39375 25.846874Q82.39375 28.690624 81.40938 30.08125Q80.44063 31.471874 78.3625 31.471874Q76.31563 31.471874 75.33125 30.1125Q74.34688 28.753124 74.31563 26.065624L74.31563 23.89375Q74.31563 21.065624 75.28438 19.70625Q76.26875 18.33125 78.34688 18.33125Q80.40938 18.33125 81.37813 19.659374Q82.3625 20.971874 82.39375 23.7375L82.39375 25.846874ZM80.76875 23.6125Q80.76875 21.55 80.175 20.6125Q79.59688 19.659374 78.34688 19.659374Q77.09688 19.659374 76.51875 20.6125Q75.95625 21.55 75.94063 23.4875L75.94063 26.096874Q75.94063 28.175 76.53438 29.159374Q77.14375 30.14375 78.3625 30.14375Q79.56563 30.14375 80.14375 29.221874Q80.7375 28.284374 80.76875 26.284374L80.76875 23.6125ZM92.39375 25.846874Q92.39375 28.690624 91.40938 30.08125Q90.44063 31.471874 88.3625 31.471874Q86.31563 31.471874 85.33125 30.1125Q84.34688 28.753124 84.31563 26.065624L84.31563 23.89375Q84.31563 21.065624 85.28438 19.70625Q86.26875 18.33125 88.34688 18.33125Q90.40938 18.33125 91.37813 19.659374Q92.3625 20.971874 92.39375 23.7375L92.39375 25.846874ZM90.76875 23.6125Q90.76875 21.55 90.175 20.6125Q89.59688 19.659374 88.34688 19.659374Q87.09688 19.659374 86.51875 20.6125Q85.95625 21.55 85.94063 23.4875L85.94063 26.096874Q85.94063 28.175 86.53438 29.159374Q87.14375 30.14375 88.3625 30.14375Q89.56563 30.14375 90.14375 29.221874Q90.7375 28.284374 90.76875 26.284374L90.76875 23.6125ZM102.39375 25.846874Q102.39375 28.690624 101.40938 30.08125Q100.44063 31.471874 98.3625 31.471874Q96.31563 31.471874 95.33125 30.1125Q94.34688 28.753124 94.31563 26.065624L94.31563 23.89375Q94.31563 21.065624 95.28438 19.70625Q96.26875 18.33125 98.34688 18.33125Q100.40938 18.33125 101.37813 19.659374Q102.3625 20.971874 102.39375 23.7375L102.39375 25.846874ZM100.76875 23.6125Q100.76875 21.55 100.175 20.6125Q99.59688 19.659374 98.34688 19.659374Q97.09688 19.659374 96.51875 20.6125Q95.95625 21.55 95.94063 23.4875L95.94063 26.096874Q95.94063 28.175 96.53438 29.159374Q97.14375 30.14375 98.3625 30.14375Q99.56563 30.14375 100.14375 29.221874Q100.7375 28.284374 100.76875 26.284374L100.76875 23.6125Z" fill-rule="nonzero"/><path fill="#000000" d="M147.38551 238.99687Q145.21364 238.37187 144.22926 237.46562Q143.24489 236.55937 143.24489 235.21562Q143.24489 233.7 144.44801 232.71562Q145.66676 231.73125 147.58864 231.73125Q148.91676 231.73125 149.94801 232.24687Q150.97926 232.74687 151.54176 233.65312Q152.10426 234.54375 152.10426 235.60625L150.41676 235.60625Q150.41676 234.45 149.66676 233.79375Q148.93239 233.12187 147.58864 233.12187Q146.33864 233.12187 145.63551 233.66875Q144.94801 234.21562 144.94801 235.18437Q144.94801 235.96562 145.60426 236.5125Q146.27614 237.05937 147.86989 237.5125Q149.46364 237.95 150.35426 238.49687Q151.26051 239.02812 151.69801 239.74687Q152.13551 240.46562 152.13551 241.45Q152.13551 242.99687 150.91676 243.93437Q149.71364 244.87187 147.68239 244.87187Q146.36989 244.87187 145.21364 244.37187Q144.07301 243.87187 143.44801 242.99687Q142.83864 242.10625 142.83864 240.99687L144.54176 240.99687Q144.54176 242.15312 145.38551 242.825Q146.24489 243.49687 147.68239 243.49687Q149.01051 243.49687 149.72926 242.95Q150.44801 242.40312 150.44801 241.46562Q150.44801 240.52812 149.77614 240.0125Q149.11989 239.49687 147.38551 238.99687ZM156.57301 232.8875L156.57301 235.18437L158.35426 235.18437L158.35426 236.45L156.57301 236.45L156.57301 242.34062Q156.57301 242.91875 156.80739 243.2Q157.04176 243.48125 157.61989 243.48125Q157.90114 243.48125 158.38551 243.3875L158.38551 244.7Q157.74489 244.87187 157.15114 244.87187Q156.05739 244.87187 155.49489 244.21562Q154.94801 243.55937 154.94801 242.34062L154.94801 236.45L153.21364 236.45L153.21364 235.18437L154.94801 235.18437L154.94801 232.8875L156.57301 232.8875ZM164.96364 236.65312Q164.58864 236.59062 164.16676 236.59062Q162.55739 236.59062 161.99489 237.95L161.99489 244.7L160.36989 244.7L160.36989 235.18437L161.94801 235.18437L161.97926 236.29375Q162.77614 235.0125 164.24489 235.0125Q164.71364 235.0125 164.96364 235.1375L164.96364 236.65312ZM165.93239 239.85625Q165.93239 238.46562 166.47926 237.35625Q167.04176 236.23125 168.01051 235.62187Q168.99489 235.0125 170.24489 235.0125Q172.19801 235.0125 173.38551 236.35625Q174.58864 237.7 174.58864 239.93437L174.58864 240.04375Q174.58864 241.43437 174.05739 242.54375Q173.52614 243.6375 172.54176 244.2625Q171.55739 244.87187 170.27614 244.87187Q168.33864 244.87187 167.13551 243.52812Q165.93239 242.18437 165.93239 239.96562L165.93239 239.85625ZM167.57301 240.04375Q167.57301 241.6375 168.30739 242.59062Q169.04176 243.54375 170.27614 243.54375Q171.51051 243.54375 172.22926 242.575Q172.96364 241.60625 172.96364 239.85625Q172.96364 238.29375 172.21364 237.325Q171.47926 236.35625 170.24489 236.35625Q169.04176 236.35625 168.30739 237.30937Q167.57301 238.2625 167.57301 240.04375ZM177.90114 235.18437L177.96364 236.3875Q179.04176 235.0125 180.80739 235.0125Q183.82301 235.0125 183.83864 238.41875L183.83864 244.7L182.21364 244.7L182.21364 238.40312Q182.21364 237.37187 181.74489 236.8875Q181.29176 236.3875 180.30739 236.3875Q179.52614 236.3875 178.91676 236.80937Q178.32301 237.23125 177.99489 237.91875L177.99489 244.7L176.36989 244.7L176.36989 235.18437L177.90114 235.18437ZM185.97926 239.87187Q185.97926 237.6375 187.01051 236.325Q188.04176 235.0125 189.72926 235.0125Q191.47926 235.0125 192.44801 236.24687L192.52614 235.18437L194.01051 235.18437L194.01051 244.46562Q194.01051 246.325 192.91676 247.3875Q191.82301 248.45 189.97926 248.45Q188.94801 248.45 187.96364 247.99687Q186.97926 247.55937 186.46364 246.79375L187.30739 245.825Q188.35426 247.12187 189.86989 247.12187Q191.05739 247.12187 191.71364 246.45Q192.38551 245.77812 192.38551 244.575L192.38551 243.74687Q191.40114 244.87187 189.71364 244.87187Q188.04176 244.87187 187.01051 243.52812Q185.97926 242.18437 185.97926 239.87187ZM187.61989 240.04375Q187.61989 241.65312 188.27614 242.575Q188.93239 243.49687 190.11989 243.49687Q191.65114 243.49687 192.38551 242.09062L192.38551 237.7625Q191.63551 236.3875 190.13551 236.3875Q188.94801 236.3875 188.27614 237.325Q187.61989 238.24687 187.61989 240.04375ZM198.13551 244.7L196.51051 244.7L196.51051 231.2L198.13551 231.2L198.13551 244.7ZM203.47926 242.325L205.69801 235.18437L207.43239 235.18437L203.60426 246.16875Q202.72926 248.54375 200.79176 248.54375L200.47926 248.5125L199.86989 248.40312L199.86989 247.075L200.30739 247.12187Q201.13551 247.12187 201.58864 246.77812Q202.05739 246.45 202.35426 245.55937L202.72926 244.59062L199.32301 235.18437L201.10426 235.18437L203.47926 242.325Z" fill-rule="nonzero"/><path fill="#000000" d="M141.11989 266.7L141.11989 253.90314L144.72926 253.90314Q146.40114 253.90314 147.68239 254.63751Q148.96364 255.37189 149.66676 256.7469Q150.36989 258.10626 150.36989 259.8719L150.36989 260.6844Q150.36989 262.4969 149.66676 263.85626Q148.97926 265.21564 147.68239 265.95Q146.38551 266.6844 144.66676 266.7L141.11989 266.7ZM142.80739 255.29376L142.80739 265.325L144.58864 265.325Q146.54176 265.325 147.61989 264.10626Q148.71364 262.8875 148.71364 260.65314L148.71364 259.90314Q148.71364 257.73126 147.68239 256.52814Q146.65114 255.30939 144.77614 255.29376L142.80739 255.29376ZM154.63551 266.7L153.01051 266.7L153.01051 257.1844L154.63551 257.1844L154.63551 266.7ZM152.86989 254.66876Q152.86989 254.27814 153.10426 254.01251Q153.35426 253.73126 153.82301 253.73126Q154.30739 253.73126 154.55739 254.01251Q154.80739 254.27814 154.80739 254.66876Q154.80739 255.05939 154.55739 255.32501Q154.30739 255.59064 153.82301 255.59064Q153.35426 255.59064 153.10426 255.32501Q152.86989 255.05939 152.86989 254.66876ZM162.40114 264.1844Q162.40114 263.5125 161.90114 263.15314Q161.41676 262.79376 160.18239 262.52814Q158.94801 262.2625 158.21364 261.90314Q157.49489 261.52814 157.13551 261.0125Q156.79176 260.4969 156.79176 259.79376Q156.79176 258.6375 157.77614 257.825Q158.77614 257.0125 160.30739 257.0125Q161.93239 257.0125 162.93239 257.85626Q163.94801 258.6844 163.94801 259.98126L162.30739 259.98126Q162.30739 259.3094 161.72926 258.84064Q161.16676 258.35626 160.30739 258.35626Q159.41676 258.35626 158.91676 258.7469Q158.41676 259.1219 158.41676 259.7469Q158.41676 260.34064 158.88551 260.6375Q159.35426 260.9344 160.57301 261.21564Q161.79176 261.48126 162.54176 261.85626Q163.30739 262.23126 163.66676 262.7625Q164.02614 263.29376 164.02614 264.0594Q164.02614 265.34064 163.01051 266.10626Q161.99489 266.8719 160.36989 266.8719Q159.22926 266.8719 158.33864 266.46564Q157.46364 266.0594 156.96364 265.34064Q156.46364 264.6219 156.46364 263.77814L158.10426 263.77814Q158.13551 264.59064 158.74489 265.075Q159.36989 265.54376 160.36989 265.54376Q161.29176 265.54376 161.83864 265.16876Q162.40114 264.79376 162.40114 264.1844ZM171.74489 266.7Q171.60426 266.41876 171.51051 265.7Q170.36989 266.8719 168.80739 266.8719Q167.40114 266.8719 166.49489 266.075Q165.58864 265.27814 165.58864 264.0594Q165.58864 262.575 166.71364 261.7625Q167.85426 260.9344 169.90114 260.9344L171.47926 260.9344L171.47926 260.1844Q171.47926 259.34064 170.96364 258.84064Q170.46364 258.325 169.46364 258.325Q168.60426 258.325 168.01051 258.7625Q167.41676 259.2 167.41676 259.825L165.79176 259.825Q165.79176 259.1219 166.29176 258.46564Q166.79176 257.79376 167.65114 257.40314Q168.52614 257.0125 169.57301 257.0125Q171.21364 257.0125 172.13551 257.84064Q173.07301 258.65314 173.10426 260.10626L173.10426 264.48126Q173.10426 265.77814 173.44801 266.5594L173.44801 266.7L171.74489 266.7ZM169.04176 265.46564Q169.80739 265.46564 170.49489 265.075Q171.18239 264.66876 171.47926 264.04376L171.47926 262.09064L170.21364 262.09064Q167.21364 262.09064 167.21364 263.84064Q167.21364 264.60626 167.72926 265.04376Q168.24489 265.46564 169.04176 265.46564ZM175.47926 261.8719Q175.47926 259.6375 176.51051 258.325Q177.54176 257.0125 179.22926 257.0125Q180.97926 257.0125 181.94801 258.2469L182.02614 257.1844L183.51051 257.1844L183.51051 266.46564Q183.51051 268.325 182.41676 269.3875Q181.32301 270.45 179.47926 270.45Q178.44801 270.45 177.46364 269.9969Q176.47926 269.5594 175.96364 268.79376L176.80739 267.825Q177.85426 269.1219 179.36989 269.1219Q180.55739 269.1219 181.21364 268.45Q181.88551 267.77814 181.88551 266.575L181.88551 265.7469Q180.90114 266.8719 179.21364 266.8719Q177.54176 266.8719 176.51051 265.52814Q175.47926 264.1844 175.47926 261.8719ZM177.11989 262.04376Q177.11989 263.65314 177.77614 264.575Q178.43239 265.4969 179.61989 265.4969Q181.15114 265.4969 181.88551 264.09064L181.88551 259.7625Q181.13551 258.3875 179.63551 258.3875Q178.44801 258.3875 177.77614 259.325Q177.11989 260.2469 177.11989 262.04376ZM190.46364 258.65314Q190.08864 258.59064 189.66676 258.59064Q188.05739 258.59064 187.49489 259.95L187.49489 266.7L185.86989 266.7L185.86989 257.1844L187.44801 257.1844L187.47926 258.29376Q188.27614 257.0125 189.74489 257.0125Q190.21364 257.0125 190.46364 257.1375L190.46364 258.65314ZM195.80739 266.8719Q193.88551 266.8719 192.66676 265.60626Q191.44801 264.34064 191.44801 262.21564L191.44801 261.90314Q191.44801 260.4969 191.99489 259.3875Q192.54176 258.27814 193.51051 257.65314Q194.47926 257.0125 195.60426 257.0125Q197.46364 257.0125 198.49489 258.23126Q199.52614 259.45 199.52614 261.73126L199.52614 262.40314L193.07301 262.40314Q193.11989 263.8094 193.90114 264.6844Q194.68239 265.54376 195.90114 265.54376Q196.76051 265.54376 197.35426 265.2Q197.96364 264.84064 198.40114 264.2625L199.40114 265.04376Q198.19801 266.8719 195.80739 266.8719ZM195.60426 258.35626Q194.61989 258.35626 193.94801 259.075Q193.29176 259.77814 193.13551 261.075L197.90114 261.075L197.90114 260.95Q197.82301 259.71564 197.22926 259.04376Q196.63551 258.35626 195.60426 258.35626ZM205.80739 266.8719Q203.88551 266.8719 202.66676 265.60626Q201.44801 264.34064 201.44801 262.21564L201.44801 261.90314Q201.44801 260.4969 201.99489 259.3875Q202.54176 258.27814 203.51051 257.65314Q204.47926 257.0125 205.60426 257.0125Q207.46364 257.0125 208.49489 258.23126Q209.52614 259.45 209.52614 261.73126L209.52614 262.40314L203.07301 262.40314Q203.11989 263.8094 203.90114 264.6844Q204.68239 265.54376 205.90114 265.54376Q206.76051 265.54376 207.35426 265.2Q207.96364 264.84064 208.40114 264.2625L209.40114 265.04376Q208.19801 266.8719 205.80739 266.8719ZM205.60426 258.35626Q204.61989 258.35626 203.94801 259.075Q203.29176 259.77814 203.13551 261.075L207.90114 261.075L207.90114 260.95Q207.82301 259.71564 207.22926 259.04376Q206.63551 258.35626 205.60426 258.35626Z" fill-rule="nonzero"/><path fill="#000000" d="M246.80214 244.7L246.80214 231.90312L250.41151 231.90312Q252.08339 231.90312 253.36464 232.6375Q254.64589 233.37187 255.34901 234.74687Q256.05212 236.10625 256.05212 237.87187L256.05212 238.68437Q256.05212 240.49687 255.34901 241.85625Q254.66151 243.21562 253.36464 243.95Q252.06776 244.68437 250.34901 244.7L246.80214 244.7ZM248.48964 233.29375L248.48964 243.325L250.27089 243.325Q252.22401 243.325 253.30214 242.10625Q254.39589 240.8875 254.39589 238.65312L254.39589 237.90312Q254.39589 235.73125 253.36464 234.52812Q252.33339 233.30937 250.45839 233.29375L248.48964 233.29375ZM260.31775 244.7L258.69275 244.7L258.69275 235.18437L260.31775 235.18437L260.31775 244.7ZM258.55212 232.66875Q258.55212 232.27812 258.7865 232.0125Q259.0365 231.73125 259.50525 231.73125Q259.98962 231.73125 260.23962 232.0125Q260.48962 232.27812 260.48962 232.66875Q260.48962 233.05937 260.23962 233.325Q259.98962 233.59062 259.50525 233.59062Q259.0365 233.59062 258.7865 233.325Q258.55212 233.05937 258.55212 232.66875ZM268.08337 242.18437Q268.08337 241.5125 267.58337 241.15312Q267.099 240.79375 265.86462 240.52812Q264.63025 240.2625 263.89587 239.90312Q263.17712 239.52812 262.81775 239.0125Q262.474 238.49687 262.474 237.79375Q262.474 236.6375 263.45837 235.825Q264.45837 235.0125 265.98962 235.0125Q267.61462 235.0125 268.61462 235.85625Q269.63025 236.68437 269.63025 237.98125L267.98962 237.98125Q267.98962 237.30937 267.4115 236.84062Q266.849 236.35625 265.98962 236.35625Q265.099 236.35625 264.599 236.74687Q264.099 237.12187 264.099 237.74687Q264.099 238.34062 264.56775 238.6375Q265.0365 238.93437 266.25525 239.21562Q267.474 239.48125 268.224 239.85625Q268.98962 240.23125 269.349 240.7625Q269.70837 241.29375 269.70837 242.05937Q269.70837 243.34062 268.69275 244.10625Q267.67712 244.87187 266.05212 244.87187Q264.9115 244.87187 264.02087 244.46562Q263.14587 244.05937 262.64587 243.34062Q262.14587 242.62187 262.14587 241.77812L263.7865 241.77812Q263.81775 242.59062 264.42712 243.075Q265.05212 243.54375 266.05212 243.54375Q266.974 243.54375 267.52087 243.16875Q268.08337 242.79375 268.08337 242.18437ZM277.42712 244.7Q277.2865 244.41875 277.19275 243.7Q276.05212 244.87187 274.48962 244.87187Q273.08337 244.87187 272.17712 244.075Q271.27087 243.27812 271.27087 242.05937Q271.27087 240.575 272.39587 239.7625Q273.5365 238.93437 275.58337 238.93437L277.1615 238.93437L277.1615 238.18437Q277.1615 237.34062 276.64587 236.84062Q276.14587 236.325 275.14587 236.325Q274.2865 236.325 273.69275 236.7625Q273.099 237.2 273.099 237.825L271.474 237.825Q271.474 237.12187 271.974 236.46562Q272.474 235.79375 273.33337 235.40312Q274.20837 235.0125 275.25525 235.0125Q276.89587 235.0125 277.81775 235.84062Q278.75525 236.65312 278.7865 238.10625L278.7865 242.48125Q278.7865 243.77812 279.13025 244.55937L279.13025 244.7L277.42712 244.7ZM274.724 243.46562Q275.48962 243.46562 276.17712 243.075Q276.86462 242.66875 277.1615 242.04375L277.1615 240.09062L275.89587 240.09062Q272.89587 240.09062 272.89587 241.84062Q272.89587 242.60625 273.4115 243.04375Q273.92712 243.46562 274.724 243.46562ZM281.1615 239.87187Q281.1615 237.6375 282.19275 236.325Q283.224 235.0125 284.9115 235.0125Q286.6615 235.0125 287.63025 236.24687L287.70837 235.18437L289.19275 235.18437L289.19275 244.46562Q289.19275 246.325 288.099 247.3875Q287.00525 248.45 285.1615 248.45Q284.13025 248.45 283.14587 247.99687Q282.1615 247.55937 281.64587 246.79375L282.48962 245.825Q283.5365 247.12187 285.05212 247.12187Q286.23962 247.12187 286.89587 246.45Q287.56775 245.77812 287.56775 244.575L287.56775 243.74687Q286.58337 244.87187 284.89587 244.87187Q283.224 244.87187 282.19275 243.52812Q281.1615 242.18437 281.1615 239.87187ZM282.80212 240.04375Q282.80212 241.65312 283.45837 242.575Q284.11462 243.49687 285.30212 243.49687Q286.83337 243.49687 287.56775 242.09062L287.56775 237.7625Q286.81775 236.3875 285.31775 236.3875Q284.13025 236.3875 283.45837 237.325Q282.80212 238.24687 282.80212 240.04375ZM296.14587 236.65312Q295.77087 236.59062 295.349 236.59062Q293.73962 236.59062 293.17712 237.95L293.17712 244.7L291.55212 244.7L291.55212 235.18437L293.13025 235.18437L293.1615 236.29375Q293.95837 235.0125 295.42712 235.0125Q295.89587 235.0125 296.14587 235.1375L296.14587 236.65312ZM301.48962 244.87187Q299.56775 244.87187 298.349 243.60625Q297.13025 242.34062 297.13025 240.21562L297.13025 239.90312Q297.13025 238.49687 297.67712 237.3875Q298.224 236.27812 299.19275 235.65312Q300.1615 235.0125 301.2865 235.0125Q303.14587 235.0125 304.17712 236.23125Q305.20837 237.45 305.20837 239.73125L305.20837 240.40312L298.75525 240.40312Q298.80212 241.80937 299.58337 242.68437Q300.36462 243.54375 301.58337 243.54375Q302.44275 243.54375 303.0365 243.2Q303.64587 242.84062 304.08337 242.2625L305.08337 243.04375Q303.88025 244.87187 301.48962 244.87187ZM301.2865 236.35625Q300.30212 236.35625 299.63025 237.075Q298.974 237.77812 298.81775 239.075L303.58337 239.075L303.58337 238.95Q303.50525 237.71562 302.9115 237.04375Q302.31775 236.35625 301.2865 236.35625ZM311.48962 244.87187Q309.56775 244.87187 308.349 243.60625Q307.13025 242.34062 307.13025 240.21562L307.13025 239.90312Q307.13025 238.49687 307.67712 237.3875Q308.224 236.27812 309.19275 235.65312Q310.1615 235.0125 311.2865 235.0125Q313.14587 235.0125 314.17712 236.23125Q315.20837 237.45 315.20837 239.73125L315.20837 240.40312L308.75525 240.40312Q308.80212 241.80937 309.58337 242.68437Q310.36462 243.54375 311.58337 243.54375Q312.44275 243.54375 313.0365 243.2Q313.64587 242.84062 314.08337 242.2625L315.08337 243.04375Q313.88025 244.87187 311.48962 244.87187ZM311.2865 236.35625Q310.30212 236.35625 309.63025 237.075Q308.974 237.77812 308.81775 239.075L313.58337 239.075L313.58337 238.95Q313.50525 237.71562 312.9115 237.04375Q312.31775 236.35625 311.2865 236.35625Z" fill-rule="nonzero"/><path fill="#000000" d="M368.32812 244.7L366.625 244.7L360.1875 234.84062L360.1875 244.7L358.48438 244.7L358.48438 231.90312L360.1875 231.90312L366.64062 241.80937L366.64062 231.90312L368.32812 231.90312L368.32812 244.7ZM375.17188 244.87187Q373.25 244.87187 372.03125 243.60625Q370.8125 242.34062 370.8125 240.21562L370.8125 239.90312Q370.8125 238.49687 371.35938 237.3875Q371.90625 236.27812 372.875 235.65312Q373.84375 235.0125 374.96875 235.0125Q376.82812 235.0125 377.85938 236.23125Q378.89062 237.45 378.89062 239.73125L378.89062 240.40312L372.4375 240.40312Q372.48438 241.80937 373.26562 242.68437Q374.04688 243.54375 375.26562 243.54375Q376.125 243.54375 376.71875 243.2Q377.32812 242.84062 377.76562 242.2625L378.76562 243.04375Q377.5625 244.87187 375.17188 244.87187ZM374.96875 236.35625Q373.98438 236.35625 373.3125 237.075Q372.65625 237.77812 372.5 239.075L377.26562 239.075L377.26562 238.95Q377.1875 237.71562 376.59375 237.04375Q376.0 236.35625 374.96875 236.35625ZM387.10938 243.7625Q386.15625 244.87187 384.3125 244.87187Q382.79688 244.87187 382.0 243.99687Q381.20312 243.10625 381.20312 241.37187L381.20312 235.18437L382.82812 235.18437L382.82812 241.34062Q382.82812 243.49687 384.57812 243.49687Q386.4375 243.49687 387.0625 242.10625L387.0625 235.18437L388.6875 235.18437L388.6875 244.7L387.14062 244.7L387.10938 243.7625ZM393.4375 232.8875L393.4375 235.18437L395.21875 235.18437L395.21875 236.45L393.4375 236.45L393.4375 242.34062Q393.4375 242.91875 393.67188 243.2Q393.90625 243.48125 394.48438 243.48125Q394.76562 243.48125 395.25 243.3875L395.25 244.7Q394.60938 244.87187 394.01562 244.87187Q392.92188 244.87187 392.35938 244.21562Q391.8125 243.55937 391.8125 242.34062L391.8125 236.45L390.07812 236.45L390.07812 235.18437L391.8125 235.18437L391.8125 232.8875L393.4375 232.8875ZM401.82812 236.65312Q401.45312 236.59062 401.03125 236.59062Q399.42188 236.59062 398.85938 237.95L398.85938 244.7L397.23438 244.7L397.23438 235.18437L398.8125 235.18437L398.84375 236.29375Q399.64062 235.0125 401.10938 235.0125Q401.57812 235.0125 401.82812 235.1375L401.82812 236.65312ZM409.10938 244.7Q408.96875 244.41875 408.875 243.7Q407.73438 244.87187 406.17188 244.87187Q404.76562 244.87187 403.85938 244.075Q402.95312 243.27812 402.95312 242.05937Q402.95312 240.575 404.07812 239.7625Q405.21875 238.93437 407.26562 238.93437L408.84375 238.93437L408.84375 238.18437Q408.84375 237.34062 408.32812 236.84062Q407.82812 236.325 406.82812 236.325Q405.96875 236.325 405.375 236.7625Q404.78125 237.2 404.78125 237.825L403.15625 237.825Q403.15625 237.12187 403.65625 236.46562Q404.15625 235.79375 405.01562 235.40312Q405.89062 235.0125 406.9375 235.0125Q408.57812 235.0125 409.5 235.84062Q410.4375 236.65312 410.46875 238.10625L410.46875 242.48125Q410.46875 243.77812 410.8125 244.55937L410.8125 244.7L409.10938 244.7ZM406.40625 243.46562Q407.17188 243.46562 407.85938 243.075Q408.54688 242.66875 408.84375 242.04375L408.84375 240.09062L407.57812 240.09062Q404.57812 240.09062 404.57812 241.84062Q404.57812 242.60625 405.09375 243.04375Q405.60938 243.46562 406.40625 243.46562ZM415.0 244.7L413.375 244.7L413.375 231.2L415.0 231.2L415.0 244.7Z" fill-rule="nonzero"/><path fill="#000000" d="M476.72913 241.35625L471.36975 241.35625L470.16663 244.7L468.43225 244.7L473.32288 231.90312L474.79163 231.90312L479.68225 244.7L477.9635 244.7L476.72913 241.35625ZM471.88538 239.96562L476.22913 239.96562L474.05725 233.98125L471.88538 239.96562ZM481.026 239.87187Q481.026 237.6375 482.05725 236.325Q483.0885 235.0125 484.776 235.0125Q486.526 235.0125 487.49475 236.24687L487.57288 235.18437L489.05725 235.18437L489.05725 244.46562Q489.05725 246.325 487.9635 247.3875Q486.86975 248.45 485.026 248.45Q483.99475 248.45 483.01038 247.99687Q482.026 247.55937 481.51038 246.79375L482.35413 245.825Q483.401 247.12187 484.91663 247.12187Q486.10413 247.12187 486.76038 246.45Q487.43225 245.77812 487.43225 244.575L487.43225 243.74687Q486.44788 244.87187 484.76038 244.87187Q483.0885 244.87187 482.05725 243.52812Q481.026 242.18437 481.026 239.87187ZM482.66663 240.04375Q482.66663 241.65312 483.32288 242.575Q483.97913 243.49687 485.16663 243.49687Q486.69788 243.49687 487.43225 242.09062L487.43225 237.7625Q486.68225 236.3875 485.18225 236.3875Q483.99475 236.3875 483.32288 237.325Q482.66663 238.24687 482.66663 240.04375ZM496.01038 236.65312Q495.63538 236.59062 495.2135 236.59062Q493.60413 236.59062 493.04163 237.95L493.04163 244.7L491.41663 244.7L491.41663 235.18437L492.99475 235.18437L493.026 236.29375Q493.82288 235.0125 495.29163 235.0125Q495.76038 235.0125 496.01038 235.1375L496.01038 236.65312ZM501.35413 244.87187Q499.43225 244.87187 498.2135 243.60625Q496.99475 242.34062 496.99475 240.21562L496.99475 239.90312Q496.99475 238.49687 497.54163 237.3875Q498.0885 236.27812 499.05725 235.65312Q500.026 235.0125 501.151 235.0125Q503.01038 235.0125 504.04163 236.23125Q505.07288 237.45 505.07288 239.73125L505.07288 240.40312L498.61975 240.40312Q498.66663 241.80937 499.44788 242.68437Q500.22913 243.54375 501.44788 243.54375Q502.30725 243.54375 502.901 243.2Q503.51038 242.84062 503.94788 242.2625L504.94788 243.04375Q503.74475 244.87187 501.35413 244.87187ZM501.151 236.35625Q500.16663 236.35625 499.49475 237.075Q498.8385 237.77812 498.68225 239.075L503.44788 239.075L503.44788 238.95Q503.36975 237.71562 502.776 237.04375Q502.18225 236.35625 501.151 236.35625ZM511.35413 244.87187Q509.43225 244.87187 508.2135 243.60625Q506.99475 242.34062 506.99475 240.21562L506.99475 239.90312Q506.99475 238.49687 507.54163 237.3875Q508.0885 236.27812 509.05725 235.65312Q510.026 235.0125 511.151 235.0125Q513.0104 235.0125 514.0416 236.23125Q515.0729 237.45 515.0729 239.73125L515.0729 240.40312L508.61975 240.40312Q508.66663 241.80937 509.44788 242.68437Q510.22913 243.54375 511.44788 243.54375Q512.30725 243.54375 512.901 243.2Q513.5104 242.84062 513.9479 242.2625L514.9479 243.04375Q513.74475 244.87187 511.35413 244.87187ZM511.151 236.35625Q510.16663 236.35625 509.49475 237.075Q508.8385 237.77812 508.68225 239.075L513.4479 239.075L513.4479 238.95Q513.36975 237.71562 512.776 237.04375Q512.18225 236.35625 511.151 236.35625Z" fill-rule="nonzero"/><path fill="#000000" d="M570.1145 238.99687Q567.9426 238.37187 566.95825 237.46562Q565.9739 236.55937 565.9739 235.21562Q565.9739 233.7 567.177 232.71562Q568.39575 231.73125 570.3176 231.73125Q571.64575 231.73125 572.677 232.24687Q573.70825 232.74687 574.27075 233.65312Q574.83325 234.54375 574.83325 235.60625L573.14575 235.60625Q573.14575 234.45 572.39575 233.79375Q571.6614 233.12187 570.3176 233.12187Q569.0676 233.12187 568.3645 233.66875Q567.677 234.21562 567.677 235.18437Q567.677 235.96562 568.33325 236.5125Q569.0051 237.05937 570.5989 237.5125Q572.1926 237.95 573.08325 238.49687Q573.9895 239.02812 574.427 239.74687Q574.8645 240.46562 574.8645 241.45Q574.8645 242.99687 573.64575 243.93437Q572.4426 244.87187 570.4114 244.87187Q569.0989 244.87187 567.9426 244.37187Q566.802 243.87187 566.177 242.99687Q565.5676 242.10625 565.5676 240.99687L567.27075 240.99687Q567.27075 242.15312 568.1145 242.825Q568.9739 243.49687 570.4114 243.49687Q571.7395 243.49687 572.45825 242.95Q573.177 242.40312 573.177 241.46562Q573.177 240.52812 572.5051 240.0125Q571.8489 239.49687 570.1145 238.99687ZM579.302 232.8875L579.302 235.18437L581.08325 235.18437L581.08325 236.45L579.302 236.45L579.302 242.34062Q579.302 242.91875 579.5364 243.2Q579.77075 243.48125 580.3489 243.48125Q580.6301 243.48125 581.1145 243.3875L581.1145 244.7Q580.4739 244.87187 579.8801 244.87187Q578.7864 244.87187 578.2239 244.21562Q577.677 243.55937 577.677 242.34062L577.677 236.45L575.9426 236.45L575.9426 235.18437L577.677 235.18437L577.677 232.8875L579.302 232.8875ZM587.6926 236.65312Q587.3176 236.59062 586.89575 236.59062Q585.2864 236.59062 584.7239 237.95L584.7239 244.7L583.0989 244.7L583.0989 235.18437L584.677 235.18437L584.70825 236.29375Q585.5051 235.0125 586.9739 235.0125Q587.4426 235.0125 587.6926 235.1375L587.6926 236.65312ZM588.6614 239.85625Q588.6614 238.46562 589.20825 237.35625Q589.77075 236.23125 590.7395 235.62187Q591.7239 235.0125 592.9739 235.0125Q594.927 235.0125 596.1145 236.35625Q597.3176 237.7 597.3176 239.93437L597.3176 240.04375Q597.3176 241.43437 596.7864 242.54375Q596.2551 243.6375 595.27075 244.2625Q594.2864 244.87187 593.0051 244.87187Q591.0676 244.87187 589.8645 243.52812Q588.6614 242.18437 588.6614 239.96562L588.6614 239.85625ZM590.302 240.04375Q590.302 241.6375 591.0364 242.59062Q591.77075 243.54375 593.0051 243.54375Q594.2395 243.54375 594.95825 242.575Q595.6926 241.60625 595.6926 239.85625Q595.6926 238.29375 594.9426 237.325Q594.20825 236.35625 592.9739 236.35625Q591.77075 236.35625 591.0364 237.30937Q590.302 238.2625 590.302 240.04375ZM600.6301 235.18437L600.6926 236.3875Q601.77075 235.0125 603.5364 235.0125Q606.552 235.0125 606.5676 238.41875L606.5676 244.7L604.9426 244.7L604.9426 238.40312Q604.9426 237.37187 604.4739 236.8875Q604.02075 236.3875 603.0364 236.3875Q602.2551 236.3875 601.64575 236.80937Q601.052 237.23125 600.7239 237.91875L600.7239 244.7L599.0989 244.7L599.0989 235.18437L600.6301 235.18437ZM608.70825 239.87187Q608.70825 237.6375 609.7395 236.325Q610.77075 235.0125 612.45825 235.0125Q614.20825 235.0125 615.177 236.24687L615.2551 235.18437L616.7395 235.18437L616.7395 244.46562Q616.7395 246.325 615.64575 247.3875Q614.552 248.45 612.70825 248.45Q611.677 248.45 610.6926 247.99687Q609.70825 247.55937 609.1926 246.79375L610.0364 245.825Q611.08325 247.12187 612.5989 247.12187Q613.7864 247.12187 614.4426 246.45Q615.1145 245.77812 615.1145 244.575L615.1145 243.74687Q614.1301 244.87187 612.4426 244.87187Q610.77075 244.87187 609.7395 243.52812Q608.70825 242.18437 608.70825 239.87187ZM610.3489 240.04375Q610.3489 241.65312 611.0051 242.575Q611.6614 243.49687 612.8489 243.49687Q614.3801 243.49687 615.1145 242.09062L615.1145 237.7625Q614.3645 236.3875 612.8645 236.3875Q611.677 236.3875 611.0051 237.325Q610.3489 238.24687 610.3489 240.04375ZM620.8645 244.7L619.2395 244.7L619.2395 231.2L620.8645 231.2L620.8645 244.7ZM626.20825 242.325L628.427 235.18437L630.1614 235.18437L626.33325 246.16875Q625.45825 248.54375 623.52075 248.54375L623.20825 248.5125L622.5989 248.40312L622.5989 247.075L623.0364 247.12187Q623.8645 247.12187 624.3176 246.77812Q624.7864 246.45 625.08325 245.55937L625.45825 244.59062L622.052 235.18437L623.83325 235.18437L626.20825 242.325Z" fill-rule="nonzero"/><path fill="#000000" d="M582.4114 263.35626L577.052 263.35626L575.8489 266.7L574.1145 266.7L579.0051 253.90314L580.4739 253.90314L585.3645 266.7L583.64575 266.7L582.4114 263.35626ZM577.5676 261.96564L581.9114 261.96564L579.7395 255.98126L577.5676 261.96564ZM586.70825 261.8719Q586.70825 259.6375 587.7395 258.325Q588.77075 257.0125 590.45825 257.0125Q592.20825 257.0125 593.177 258.2469L593.2551 257.1844L594.7395 257.1844L594.7395 266.46564Q594.7395 268.325 593.64575 269.3875Q592.552 270.45 590.70825 270.45Q589.677 270.45 588.6926 269.9969Q587.70825 269.5594 587.1926 268.79376L588.0364 267.825Q589.08325 269.1219 590.5989 269.1219Q591.7864 269.1219 592.4426 268.45Q593.1145 267.77814 593.1145 266.575L593.1145 265.7469Q592.1301 266.8719 590.4426 266.8719Q588.77075 266.8719 587.7395 265.52814Q586.70825 264.1844 586.70825 261.8719ZM588.3489 262.04376Q588.3489 263.65314 589.0051 264.575Q589.6614 265.4969 590.8489 265.4969Q592.3801 265.4969 593.1145 264.09064L593.1145 259.7625Q592.3645 258.3875 590.8645 258.3875Q589.677 258.3875 589.0051 259.325Q588.3489 260.2469 588.3489 262.04376ZM601.6926 258.65314Q601.3176 258.59064 600.89575 258.59064Q599.2864 258.59064 598.7239 259.95L598.7239 266.7L597.0989 266.7L597.0989 257.1844L598.677 257.1844L598.70825 258.29376Q599.5051 257.0125 600.9739 257.0125Q601.4426 257.0125 601.6926 257.1375L601.6926 258.65314ZM607.0364 266.8719Q605.1145 266.8719 603.89575 265.60626Q602.677 264.34064 602.677 262.21564L602.677 261.90314Q602.677 260.4969 603.2239 259.3875Q603.77075 258.27814 604.7395 257.65314Q605.70825 257.0125 606.83325 257.0125Q608.6926 257.0125 609.7239 258.23126Q610.7551 259.45 610.7551 261.73126L610.7551 262.40314L604.302 262.40314Q604.3489 263.8094 605.1301 264.6844Q605.9114 265.54376 607.1301 265.54376Q607.9895 265.54376 608.58325 265.2Q609.1926 264.84064 609.6301 264.2625L610.6301 265.04376Q609.427 266.8719 607.0364 266.8719ZM606.83325 258.35626Q605.8489 258.35626 605.177 259.075Q604.52075 259.77814 604.3645 261.075L609.1301 261.075L609.1301 260.95Q609.052 259.71564 608.45825 259.04376Q607.8645 258.35626 606.83325 258.35626ZM617.0364 266.8719Q615.1145 266.8719 613.89575 265.60626Q612.677 264.34064 612.677 262.21564L612.677 261.90314Q612.677 260.4969 613.2239 259.3875Q613.77075 258.27814 614.7395 257.65314Q615.70825 257.0125 616.83325 257.0125Q618.6926 257.0125 619.7239 258.23126Q620.7551 259.45 620.7551 261.73126L620.7551 262.40314L614.302 262.40314Q614.3489 263.8094 615.1301 264.6844Q615.9114 265.54376 617.1301 265.54376Q617.9895 265.54376 618.58325 265.2Q619.1926 264.84064 619.6301 264.2625L620.6301 265.04376Q619.427 266.8719 617.0364 266.8719ZM616.83325 258.35626Q615.8489 258.35626 615.177 259.075Q614.52075 259.77814 614.3645 261.075L619.1301 261.075L619.1301 260.95Q619.052 259.71564 618.45825 259.04376Q617.8645 258.35626 616.83325 258.35626Z" fill-rule="nonzero"/></svg>