<svg version="1.1" viewBox="0.0 0.0 718.0 244.0" fill="none" stroke="none" stroke-linecap="square" stroke-miterlimit="10" width="718" height="244" xmlns:xlink="http://www.w3.org/1999/xlink" xmlns="http://www.w3.org/2000/svg"><path fill="#ffffff" d="M0 0L718.0 0L718.0 244.0L0 244.0L0 0Z" fill-rule="nonzero"/><path stroke="#333333" stroke-width="1.0" stroke-linecap="butt" d="M137.5 172.5L705.5 172.5" fill-rule="nonzero"/><path stroke="#cccccc" stroke-width="1.0" stroke-linecap="butt" d="M137.5 123.5L705.5 123.5" fill-rule="nonzero"/><path stroke="#cccccc" stroke-width="1.0" stroke-linecap="butt" d="M137.5 74.5L705.5 74.5" fill-rule="nonzero"/><path stroke="#cccccc" stroke-width="1.0" stroke-linecap="butt" d="M137.5 26.5L705.5 26.5" fill-rule="nonzero"/><clipPath id="id_0"><path d="M137.2 26.2L705.8 26.2L705.8 172.3L137.2 172.3L137.2 26.2Z" clip-rule="nonzero"/></clipPath><path stroke="#000000" stroke-width="2.0" stroke-linecap="butt" stroke-opacity="0.0" clip-path="url(#id_0)" d="M669.0 172.0L600.0 172.0L600.0 50.0C600.0 48.89543 600.89545 48.0 602.0 48.0L667.0 48.0C668.10455 48.0 669.0 48.89543 669.0 50.0Z" fill-rule="nonzero"/><path fill="#f05f40" clip-path="url(#id_0)" d="M669.0 172.0L600.0 172.0L600.0 50.0C600.0 48.89543 600.89545 48.0 602.0 48.0L667.0 48.0C668.10455 48.0 669.0 48.89543 669.0 50.0Z" fill-rule="nonzero"/><path stroke="#000000" stroke-width="2.0" stroke-linecap="butt" stroke-opacity="0.0" clip-path="url(#id_0)" d="M563.0 172.0L494.0 172.0L494.0 89.0C494.0 87.89543 494.89542 87.0 496.0 87.0L561.0 87.0C562.10455 87.0 563.0 87.89543 563.0 89.0Z" fill-rule="nonzero"/><path fill="#f05f40" clip-path="url(#id_0)" d="M563.0 172.0L494.0 172.0L494.0 89.0C494.0 87.89543 494.89542 87.0 496.0 87.0L561.0 87.0C562.10455 87.0 563.0 87.89543 563.0 89.0Z" fill-rule="nonzero"/><path stroke="#000000" stroke-width="2.0" stroke-linecap="butt" stroke-opacity="0.0" clip-path="url(#id_0)" d="M457.0 172.0L388.0 172.0L388.0 155.0C388.0 153.89543 388.89542 153.0 390.0 153.0L455.0 153.0C456.10458 153.0 457.0 153.89543 457.0 155.0Z" fill-rule="nonzero"/><path fill="#f05f40" clip-path="url(#id_0)" d="M457.0 172.0L388.0 172.0L388.0 155.0C388.0 153.89543 388.89542 153.0 390.0 153.0L455.0 153.0C456.10458 153.0 457.0 153.89543 457.0 155.0Z" fill-rule="nonzero"/><path stroke="#000000" stroke-width="2.0" stroke-linecap="butt" stroke-opacity="0.0" clip-path="url(#id_0)" d="M350.0 172.0L281.0 172.0L281.0 170.5C281.0 169.67157 281.67157 169.0 282.5 169.0L348.5 169.0C349.32843 169.0 350.0 169.67157 350.0 170.5Z" fill-rule="nonzero"/><path fill="#f05f40" clip-path="url(#id_0)" d="M350.0 172.0L281.0 172.0L281.0 170.5C281.0 169.67157 281.67157 169.0 282.5 169.0L348.5 169.0C349.32843 169.0 350.0 169.67157 350.0 170.5Z" fill-rule="nonzero"/><path stroke="#000000" stroke-width="2.0" stroke-linecap="butt" stroke-opacity="0.0" clip-path="url(#id_0)" d="M244.0 172.0L175.0 172.0L175.0 171.5C175.0 171.22386 175.22386 171.0 175.5 171.0L243.5 171.0C243.77614 171.0 244.0 171.22386 244.0 171.5Z" fill-rule="nonzero"/><path fill="#f05f40" clip-path="url(#id_0)" d="M244.0 172.0L175.0 172.0L175.0 171.5C175.0 171.22386 175.22386 171.0 175.5 171.0L243.5 171.0C243.77614 171.0 244.0 171.22386 244.0 171.5Z" fill-rule="nonzero"/><path stroke="#f05f40" stroke-width="3.0" stroke-linejoin="round" stroke-linecap="round" d="M621.2031 60.1224L621.6406 55.8724L626.0156 55.8724L626.0156 56.8724L622.5625 56.8724L622.2969 59.200523Q622.9375 58.825523 623.7344 58.825523Q624.8906 58.825523 625.5781 59.606773Q626.2656 60.3724 626.2656 61.6849Q626.2656 62.9974 625.5469 63.763023Q624.84375 64.52865 623.5625 64.52865Q622.4375 64.52865 621.71875 63.90365Q621.0 63.263023 620.90625 62.15365L621.9219 62.15365Q622.03125 62.888023 622.4531 63.263023Q622.875 63.638023 623.5625 63.638023Q624.3125 63.638023 624.75 63.1224Q625.1875 62.606773 625.1875 61.700523Q625.1875 60.84115 624.71875 60.325523Q624.25 59.8099 623.46875 59.8099Q622.7656 59.8099 622.3594 60.106773L622.0781 60.34115L621.2031 60.1224ZM631.2656 64.40365L630.1875 64.40365L630.1875 57.1849L628.0 57.981773L628.0 56.9974L631.1094 55.825523L631.2656 55.825523L631.2656 64.40365ZM640.2969 64.40365L634.7031 64.40365L634.7031 63.6224L637.65625 60.34115Q638.3125 59.59115 638.5625 59.138023Q638.8125 58.669273 638.8125 58.169273Q638.8125 57.4974 638.40625 57.075523Q638.0156 56.638023 637.3281 56.638023Q636.53125 56.638023 636.0781 57.106773Q635.625 57.5599 635.625 58.388023L634.5469 58.388023Q634.5469 57.200523 635.2969 56.481773Q636.0625 55.7474 637.3281 55.7474Q638.53125 55.7474 639.21875 56.3724Q639.90625 56.9974 639.90625 58.044273Q639.90625 59.294273 638.2969 61.044273L636.0156 63.513023L640.2969 63.513023L640.2969 64.40365ZM645.2656 64.40365L644.1875 64.40365L644.1875 57.1849L642.0 57.981773L642.0 56.9974L645.1094 55.825523L645.2656 55.825523L645.2656 64.40365Z" fill-rule="nonzero"/><path fill="#000000" d="M621.2031 60.1224L621.6406 55.8724L626.0156 55.8724L626.0156 56.8724L622.5625 56.8724L622.2969 59.200523Q622.9375 58.825523 623.7344 58.825523Q624.8906 58.825523 625.5781 59.606773Q626.2656 60.3724 626.2656 61.6849Q626.2656 62.9974 625.5469 63.763023Q624.84375 64.52865 623.5625 64.52865Q622.4375 64.52865 621.71875 63.90365Q621.0 63.263023 620.90625 62.15365L621.9219 62.15365Q622.03125 62.888023 622.4531 63.263023Q622.875 63.638023 623.5625 63.638023Q624.3125 63.638023 624.75 63.1224Q625.1875 62.606773 625.1875 61.700523Q625.1875 60.84115 624.71875 60.325523Q624.25 59.8099 623.46875 59.8099Q622.7656 59.8099 622.3594 60.106773L622.0781 60.34115L621.2031 60.1224ZM631.2656 64.40365L630.1875 64.40365L630.1875 57.1849L628.0 57.981773L628.0 56.9974L631.1094 55.825523L631.2656 55.825523L631.2656 64.40365ZM640.2969 64.40365L634.7031 64.40365L634.7031 63.6224L637.65625 60.34115Q638.3125 59.59115 638.5625 59.138023Q638.8125 58.669273 638.8125 58.169273Q638.8125 57.4974 638.40625 57.075523Q638.0156 56.638023 637.3281 56.638023Q636.53125 56.638023 636.0781 57.106773Q635.625 57.5599 635.625 58.388023L634.5469 58.388023Q634.5469 57.200523 635.2969 56.481773Q636.0625 55.7474 637.3281 55.7474Q638.53125 55.7474 639.21875 56.3724Q639.90625 56.9974 639.90625 58.044273Q639.90625 59.294273 638.2969 61.044273L636.0156 63.513023L640.2969 63.513023L640.2969 64.40365ZM645.2656 64.40365L644.1875 64.40365L644.1875 57.1849L642.0 57.981773L642.0 56.9974L645.1094 55.825523L645.2656 55.825523L645.2656 64.40365Z" fill-rule="nonzero"/><path stroke="#f05f40" stroke-width="3.0" stroke-linejoin="round" stroke-linecap="round" d="M516.28125 98.85898L517.09375 98.85898Q517.875 98.84335 518.3125 98.45273Q518.75 98.0621 518.75 97.39023Q518.75 95.89023 517.25 95.89023Q516.5469 95.89023 516.125 96.29648Q515.71875 96.70273 515.71875 97.35898L514.625 97.35898Q514.625 96.34335 515.3594 95.67148Q516.1094 94.9996 517.25 94.9996Q518.4531 94.9996 519.1406 95.64023Q519.8281 96.28085 519.8281 97.42148Q519.8281 97.98398 519.46875 98.4996Q519.1094 99.01523 518.4844 99.28085Q519.1875 99.4996 519.5625 100.01523Q519.9531 100.53085 519.9531 101.28085Q519.9531 102.42148 519.2031 103.10898Q518.4531 103.78085 517.25 103.78085Q516.0625 103.78085 515.2969 103.1246Q514.5469 102.46835 514.5469 101.40585L515.6406 101.40585Q515.6406 102.07773 516.0781 102.48398Q516.5156 102.89023 517.2656 102.89023Q518.0469 102.89023 518.4531 102.48398Q518.875 102.0621 518.875 101.29648Q518.875 100.5621 518.4219 100.17148Q517.96875 99.76523 517.09375 99.7496L516.28125 99.7496L516.28125 98.85898ZM522.2031 99.3746L522.6406 95.1246L527.0156 95.1246L527.0156 96.1246L523.5625 96.1246L523.2969 98.45273Q523.9375 98.07773 524.7344 98.07773Q525.8906 98.07773 526.5781 98.85898Q527.2656 99.6246 527.2656 100.9371Q527.2656 102.2496 526.5469 103.01523Q525.84375 103.78085 524.5625 103.78085Q523.4375 103.78085 522.71875 103.15585Q522.0 102.51523 521.90625 101.40585L522.9219 101.40585Q523.03125 102.14023 523.4531 102.51523Q523.875 102.89023 524.5625 102.89023Q525.3125 102.89023 525.75 102.3746Q526.1875 101.85898 526.1875 100.95273Q526.1875 100.09335 525.71875 99.57773Q525.25 99.0621 524.46875 99.0621Q523.7656 99.0621 523.3594 99.35898L523.0781 99.59335L522.2031 99.3746ZM534.0625 100.01523Q534.0625 101.92148 533.40625 102.85898Q532.7656 103.78085 531.375 103.78085Q530.0156 103.78085 529.3594 102.8746Q528.7031 101.96835 528.6719 100.15585L528.6719 98.71835Q528.6719 96.82773 529.3125 95.92148Q529.96875 94.9996 531.3594 94.9996Q532.7344 94.9996 533.3906 95.89023Q534.0469 96.76523 534.0625 98.60898L534.0625 100.01523ZM532.96875 98.53085Q532.96875 97.15585 532.5781 96.53085Q532.2031 95.89023 531.3594 95.89023Q530.53125 95.89023 530.1406 96.53085Q529.7656 97.15585 529.7656 98.45273L529.7656 100.1871Q529.7656 101.5621 530.15625 102.23398Q530.5625 102.89023 531.375 102.89023Q532.1719 102.89023 532.5625 102.26523Q532.9531 101.64023 532.96875 100.3121L532.96875 98.53085ZM539.8594 99.90585Q539.53125 100.3121 539.0469 100.5621Q538.5781 100.79648 538.0156 100.79648Q537.28125 100.79648 536.7344 100.4371Q536.1875 100.07773 535.8906 99.42148Q535.59375 98.7496 535.59375 97.95273Q535.59375 97.10898 535.90625 96.42148Q536.2344 95.73398 536.8281 95.3746Q537.4375 94.9996 538.2344 94.9996Q539.5 94.9996 540.21875 95.95273Q540.9531 96.90585 540.9531 98.53085L540.9531 98.84335Q540.9531 101.34335 539.96875 102.48398Q538.9844 103.6246 537.0 103.65585L536.78125 103.65585L536.78125 102.7496L537.0156 102.7496Q538.3594 102.71835 539.0781 102.04648Q539.7969 101.3746 539.8594 99.90585ZM538.1875 99.90585Q538.7344 99.90585 539.1875 99.57773Q539.65625 99.23398 539.875 98.7496L539.875 98.3121Q539.875 97.2496 539.40625 96.57773Q538.9375 95.90585 538.2344 95.90585Q537.5156 95.90585 537.0781 96.45273Q536.65625 96.9996 536.65625 97.90585Q536.65625 98.78085 537.0625 99.34335Q537.4844 99.90585 538.1875 99.90585Z" fill-rule="nonzero"/><path fill="#000000" d="M516.28125 98.85898L517.09375 98.85898Q517.875 98.84335 518.3125 98.45273Q518.75 98.0621 518.75 97.39023Q518.75 95.89023 517.25 95.89023Q516.5469 95.89023 516.125 96.29648Q515.71875 96.70273 515.71875 97.35898L514.625 97.35898Q514.625 96.34335 515.3594 95.67148Q516.1094 94.9996 517.25 94.9996Q518.4531 94.9996 519.1406 95.64023Q519.8281 96.28085 519.8281 97.42148Q519.8281 97.98398 519.46875 98.4996Q519.1094 99.01523 518.4844 99.28085Q519.1875 99.4996 519.5625 100.01523Q519.9531 100.53085 519.9531 101.28085Q519.9531 102.42148 519.2031 103.10898Q518.4531 103.78085 517.25 103.78085Q516.0625 103.78085 515.2969 103.1246Q514.5469 102.46835 514.5469 101.40585L515.6406 101.40585Q515.6406 102.07773 516.0781 102.48398Q516.5156 102.89023 517.2656 102.89023Q518.0469 102.89023 518.4531 102.48398Q518.875 102.0621 518.875 101.29648Q518.875 100.5621 518.4219 100.17148Q517.96875 99.76523 517.09375 99.7496L516.28125 99.7496L516.28125 98.85898ZM522.2031 99.3746L522.6406 95.1246L527.0156 95.1246L527.0156 96.1246L523.5625 96.1246L523.2969 98.45273Q523.9375 98.07773 524.7344 98.07773Q525.8906 98.07773 526.5781 98.85898Q527.2656 99.6246 527.2656 100.9371Q527.2656 102.2496 526.5469 103.01523Q525.84375 103.78085 524.5625 103.78085Q523.4375 103.78085 522.71875 103.15585Q522.0 102.51523 521.90625 101.40585L522.9219 101.40585Q523.03125 102.14023 523.4531 102.51523Q523.875 102.89023 524.5625 102.89023Q525.3125 102.89023 525.75 102.3746Q526.1875 101.85898 526.1875 100.95273Q526.1875 100.09335 525.71875 99.57773Q525.25 99.0621 524.46875 99.0621Q523.7656 99.0621 523.3594 99.35898L523.0781 99.59335L522.2031 99.3746ZM534.0625 100.01523Q534.0625 101.92148 533.40625 102.85898Q532.7656 103.78085 531.375 103.78085Q530.0156 103.78085 529.3594 102.8746Q528.7031 101.96835 528.6719 100.15585L528.6719 98.71835Q528.6719 96.82773 529.3125 95.92148Q529.96875 94.9996 531.3594 94.9996Q532.7344 94.9996 533.3906 95.89023Q534.0469 96.76523 534.0625 98.60898L534.0625 100.01523ZM532.96875 98.53085Q532.96875 97.15585 532.5781 96.53085Q532.2031 95.89023 531.3594 95.89023Q530.53125 95.89023 530.1406 96.53085Q529.7656 97.15585 529.7656 98.45273L529.7656 100.1871Q529.7656 101.5621 530.15625 102.23398Q530.5625 102.89023 531.375 102.89023Q532.1719 102.89023 532.5625 102.26523Q532.9531 101.64023 532.96875 100.3121L532.96875 98.53085ZM539.8594 99.90585Q539.53125 100.3121 539.0469 100.5621Q538.5781 100.79648 538.0156 100.79648Q537.28125 100.79648 536.7344 100.4371Q536.1875 100.07773 535.8906 99.42148Q535.59375 98.7496 535.59375 97.95273Q535.59375 97.10898 535.90625 96.42148Q536.2344 95.73398 536.8281 95.3746Q537.4375 94.9996 538.2344 94.9996Q539.5 94.9996 540.21875 95.95273Q540.9531 96.90585 540.9531 98.53085L540.9531 98.84335Q540.9531 101.34335 539.96875 102.48398Q538.9844 103.6246 537.0 103.65585L536.78125 103.65585L536.78125 102.7496L537.0156 102.7496Q538.3594 102.71835 539.0781 102.04648Q539.7969 101.3746 539.8594 99.90585ZM538.1875 99.90585Q538.7344 99.90585 539.1875 99.57773Q539.65625 99.23398 539.875 98.7496L539.875 98.3121Q539.875 97.2496 539.40625 96.57773Q538.9375 95.90585 538.2344 95.90585Q537.5156 95.90585 537.0781 96.45273Q536.65625 96.9996 536.65625 97.90585Q536.65625 98.78085 537.0625 99.34335Q537.4844 99.90585 538.1875 99.90585Z" fill-rule="nonzero"/><path stroke="#f05f40" stroke-width="3.0" stroke-linejoin="round" stroke-linecap="round" d="M417.39062 160.6014Q417.39062 161.24202 417.04688 161.74202Q416.70312 162.24202 416.14062 162.52327Q416.79688 162.80452 417.1875 163.36702Q417.57812 163.9139 417.57812 164.61702Q417.57812 165.71077 416.82812 166.38264Q416.09375 167.0389 414.875 167.0389Q413.64062 167.0389 412.89062 166.38264Q412.15625 165.71077 412.15625 164.61702Q412.15625 163.9139 412.53125 163.36702Q412.90625 162.80452 413.57812 162.52327Q413.01562 162.24202 412.6875 161.74202Q412.35938 161.24202 412.35938 160.6014Q412.35938 159.52327 413.04688 158.89827Q413.73438 158.25764 414.875 158.25764Q416.0 158.25764 416.6875 158.89827Q417.39062 159.52327 417.39062 160.6014ZM416.5 164.58577Q416.5 163.86702 416.04688 163.42952Q415.59375 162.9764 414.85938 162.9764Q414.125 162.9764 413.67188 163.42952Q413.23438 163.86702 413.23438 164.6014Q413.23438 165.32014 413.67188 165.74202Q414.10938 166.14827 414.875 166.14827Q415.625 166.14827 416.0625 165.7264Q416.5 165.30452 416.5 164.58577ZM414.875 159.14827Q414.23438 159.14827 413.82812 159.55452Q413.4375 159.94514 413.4375 160.63264Q413.4375 161.27327 413.82812 161.67952Q414.21875 162.08577 414.85938 162.08577Q415.51562 162.08577 415.90625 161.67952Q416.29688 161.27327 416.29688 160.63264Q416.29688 159.9764 415.89062 159.57014Q415.48438 159.14827 414.875 159.14827ZM422.76562 166.9139L421.6875 166.9139L421.6875 159.69514L419.5 160.49202L419.5 159.50764L422.60938 158.33577L422.76562 158.33577L422.76562 166.9139ZM431.79688 166.9139L426.20312 166.9139L426.20312 166.13264L429.15625 162.8514Q429.8125 162.1014 430.0625 161.64827Q430.3125 161.17952 430.3125 160.67952Q430.3125 160.00764 429.90625 159.58577Q429.51562 159.14827 428.82812 159.14827Q428.03125 159.14827 427.57812 159.61702Q427.125 160.07014 427.125 160.89827L426.04688 160.89827Q426.04688 159.71077 426.79688 158.99202Q427.5625 158.25764 428.82812 158.25764Q430.03125 158.25764 430.71875 158.88264Q431.40625 159.50764 431.40625 160.55452Q431.40625 161.80452 429.79688 163.55452L427.51562 166.02327L431.79688 166.02327L431.79688 166.9139Z" fill-rule="nonzero"/><path fill="#000000" d="M417.39062 160.6014Q417.39062 161.24202 417.04688 161.74202Q416.70312 162.24202 416.14062 162.52327Q416.79688 162.80452 417.1875 163.36702Q417.57812 163.9139 417.57812 164.61702Q417.57812 165.71077 416.82812 166.38264Q416.09375 167.0389 414.875 167.0389Q413.64062 167.0389 412.89062 166.38264Q412.15625 165.71077 412.15625 164.61702Q412.15625 163.9139 412.53125 163.36702Q412.90625 162.80452 413.57812 162.52327Q413.01562 162.24202 412.6875 161.74202Q412.35938 161.24202 412.35938 160.6014Q412.35938 159.52327 413.04688 158.89827Q413.73438 158.25764 414.875 158.25764Q416.0 158.25764 416.6875 158.89827Q417.39062 159.52327 417.39062 160.6014ZM416.5 164.58577Q416.5 163.86702 416.04688 163.42952Q415.59375 162.9764 414.85938 162.9764Q414.125 162.9764 413.67188 163.42952Q413.23438 163.86702 413.23438 164.6014Q413.23438 165.32014 413.67188 165.74202Q414.10938 166.14827 414.875 166.14827Q415.625 166.14827 416.0625 165.7264Q416.5 165.30452 416.5 164.58577ZM414.875 159.14827Q414.23438 159.14827 413.82812 159.55452Q413.4375 159.94514 413.4375 160.63264Q413.4375 161.27327 413.82812 161.67952Q414.21875 162.08577 414.85938 162.08577Q415.51562 162.08577 415.90625 161.67952Q416.29688 161.27327 416.29688 160.63264Q416.29688 159.9764 415.89062 159.57014Q415.48438 159.14827 414.875 159.14827ZM422.76562 166.9139L421.6875 166.9139L421.6875 159.69514L419.5 160.49202L419.5 159.50764L422.60938 158.33577L422.76562 158.33577L422.76562 166.9139ZM431.79688 166.9139L426.20312 166.9139L426.20312 166.13264L429.15625 162.8514Q429.8125 162.1014 430.0625 161.64827Q430.3125 161.17952 430.3125 160.67952Q430.3125 160.00764 429.90625 159.58577Q429.51562 159.14827 428.82812 159.14827Q428.03125 159.14827 427.57812 159.61702Q427.125 160.07014 427.125 160.89827L426.04688 160.89827Q426.04688 159.71077 426.79688 158.99202Q427.5625 158.25764 428.82812 158.25764Q430.03125 158.25764 430.71875 158.88264Q431.40625 159.50764 431.40625 160.55452Q431.40625 161.80452 429.79688 163.55452L427.51562 166.02327L431.79688 166.02327L431.79688 166.9139Z" fill-rule="nonzero"/><path stroke="#ffffff" stroke-width="3.0" stroke-linejoin="round" stroke-linecap="round" d="M308.76562 154.0371L307.6875 154.0371L307.6875 146.81834L305.5 147.61522L305.5 146.63084L308.60938 145.45897L308.76562 145.45897L308.76562 154.0371ZM313.78125 149.24022L314.59375 149.24022Q315.375 149.2246 315.8125 148.83397Q316.25 148.44334 316.25 147.77147Q316.25 146.27147 314.75 146.27147Q314.04688 146.27147 313.625 146.67772Q313.21875 147.08397 313.21875 147.74022L312.125 147.74022Q312.125 146.7246 312.85938 146.05272Q313.60938 145.38084 314.75 145.38084Q315.95312 145.38084 316.64062 146.02147Q317.32812 146.6621 317.32812 147.80272Q317.32812 148.36522 316.96875 148.88084Q316.60938 149.39647 315.98438 149.6621Q316.6875 149.88084 317.0625 150.39647Q317.45312 150.9121 317.45312 151.6621Q317.45312 152.80272 316.70312 153.49022Q315.95312 154.1621 314.75 154.1621Q313.5625 154.1621 312.79688 153.50584Q312.04688 152.8496 312.04688 151.7871L313.14062 151.7871Q313.14062 152.45897 313.57812 152.86522Q314.01562 153.27147 314.76562 153.27147Q315.54688 153.27147 315.95312 152.86522Q316.375 152.44334 316.375 151.67772Q316.375 150.94334 315.92188 150.55272Q315.46875 150.14647 314.59375 150.13084L313.78125 150.13084L313.78125 149.24022ZM323.78125 151.17772L324.96875 151.17772L324.96875 152.05272L323.78125 152.05272L323.78125 154.0371L322.70312 154.0371L322.70312 152.05272L318.8125 152.05272L318.8125 151.4121L322.625 145.50584L323.78125 145.50584L323.78125 151.17772ZM320.04688 151.17772L322.70312 151.17772L322.70312 146.99022L322.5625 147.2246L320.04688 151.17772Z" fill-rule="nonzero"/><path fill="#f05f40" d="M308.76562 154.0371L307.6875 154.0371L307.6875 146.81834L305.5 147.61522L305.5 146.63084L308.60938 145.45897L308.76562 145.45897L308.76562 154.0371ZM313.78125 149.24022L314.59375 149.24022Q315.375 149.2246 315.8125 148.83397Q316.25 148.44334 316.25 147.77147Q316.25 146.27147 314.75 146.27147Q314.04688 146.27147 313.625 146.67772Q313.21875 147.08397 313.21875 147.74022L312.125 147.74022Q312.125 146.7246 312.85938 146.05272Q313.60938 145.38084 314.75 145.38084Q315.95312 145.38084 316.64062 146.02147Q317.32812 146.6621 317.32812 147.80272Q317.32812 148.36522 316.96875 148.88084Q316.60938 149.39647 315.98438 149.6621Q316.6875 149.88084 317.0625 150.39647Q317.45312 150.9121 317.45312 151.6621Q317.45312 152.80272 316.70312 153.49022Q315.95312 154.1621 314.75 154.1621Q313.5625 154.1621 312.79688 153.50584Q312.04688 152.8496 312.04688 151.7871L313.14062 151.7871Q313.14062 152.45897 313.57812 152.86522Q314.01562 153.27147 314.76562 153.27147Q315.54688 153.27147 315.95312 152.86522Q316.375 152.44334 316.375 151.67772Q316.375 150.94334 315.92188 150.55272Q315.46875 150.14647 314.59375 150.13084L313.78125 150.13084L313.78125 149.24022ZM323.78125 151.17772L324.96875 151.17772L324.96875 152.05272L323.78125 152.05272L323.78125 154.0371L322.70312 154.0371L322.70312 152.05272L318.8125 152.05272L318.8125 151.4121L322.625 145.50584L323.78125 145.50584L323.78125 151.17772ZM320.04688 151.17772L322.70312 151.17772L322.70312 146.99022L322.5625 147.2246L320.04688 151.17772Z" fill-rule="nonzero"/><path stroke="#ffffff" stroke-width="3.0" stroke-linejoin="round" stroke-linecap="round" d="M206.96875 147.2347L206.96875 148.14095L206.76562 148.14095Q205.5 148.1722 204.75 148.90657Q204.0 149.62532 203.875 150.93782Q204.5625 150.1722 205.71875 150.1722Q206.82812 150.1722 207.5 150.95345Q208.17188 151.7347 208.17188 152.9847Q208.17188 154.2972 207.45312 155.09407Q206.73438 155.89095 205.51562 155.89095Q204.29688 155.89095 203.53125 154.95345Q202.78125 154.00032 202.78125 152.51595L202.78125 152.1097Q202.78125 149.75032 203.78125 148.50032Q204.78125 147.25032 206.76562 147.2347L206.96875 147.2347ZM205.54688 151.07845Q204.98438 151.07845 204.51562 151.40657Q204.04688 151.7347 203.85938 152.25032L203.85938 152.64095Q203.85938 153.70345 204.32812 154.34407Q204.8125 154.9847 205.51562 154.9847Q206.25 154.9847 206.67188 154.45345Q207.09375 153.90657 207.09375 153.03157Q207.09375 152.15657 206.67188 151.62532Q206.25 151.07845 205.54688 151.07845ZM211.28125 150.96907L212.09375 150.96907Q212.875 150.95345 213.3125 150.56282Q213.75 150.1722 213.75 149.50032Q213.75 148.00032 212.25 148.00032Q211.54688 148.00032 211.125 148.40657Q210.71875 148.81282 210.71875 149.46907L209.625 149.46907Q209.625 148.45345 210.35938 147.78157Q211.10938 147.1097 212.25 147.1097Q213.45312 147.1097 214.14062 147.75032Q214.82812 148.39095 214.82812 149.53157Q214.82812 150.09407 214.46875 150.6097Q214.10938 151.12532 213.48438 151.39095Q214.1875 151.6097 214.5625 152.12532Q214.95312 152.64095 214.95312 153.39095Q214.95312 154.53157 214.20312 155.21907Q213.45312 155.89095 212.25 155.89095Q211.0625 155.89095 210.29688 155.2347Q209.54688 154.57845 209.54688 153.51595L210.64062 153.51595Q210.64062 154.18782 211.07812 154.59407Q211.51562 155.00032 212.26562 155.00032Q213.04688 155.00032 213.45312 154.59407Q213.875 154.1722 213.875 153.40657Q213.875 152.6722 213.42188 152.28157Q212.96875 151.87532 212.09375 151.8597L211.28125 151.8597L211.28125 150.96907Z" fill-rule="nonzero"/><path fill="#f05f40" d="M206.96875 147.2347L206.96875 148.14095L206.76562 148.14095Q205.5 148.1722 204.75 148.90657Q204.0 149.62532 203.875 150.93782Q204.5625 150.1722 205.71875 150.1722Q206.82812 150.1722 207.5 150.95345Q208.17188 151.7347 208.17188 152.9847Q208.17188 154.2972 207.45312 155.09407Q206.73438 155.89095 205.51562 155.89095Q204.29688 155.89095 203.53125 154.95345Q202.78125 154.00032 202.78125 152.51595L202.78125 152.1097Q202.78125 149.75032 203.78125 148.50032Q204.78125 147.25032 206.76562 147.2347L206.96875 147.2347ZM205.54688 151.07845Q204.98438 151.07845 204.51562 151.40657Q204.04688 151.7347 203.85938 152.25032L203.85938 152.64095Q203.85938 153.70345 204.32812 154.34407Q204.8125 154.9847 205.51562 154.9847Q206.25 154.9847 206.67188 154.45345Q207.09375 153.90657 207.09375 153.03157Q207.09375 152.15657 206.67188 151.62532Q206.25 151.07845 205.54688 151.07845ZM211.28125 150.96907L212.09375 150.96907Q212.875 150.95345 213.3125 150.56282Q213.75 150.1722 213.75 149.50032Q213.75 148.00032 212.25 148.00032Q211.54688 148.00032 211.125 148.40657Q210.71875 148.81282 210.71875 149.46907L209.625 149.46907Q209.625 148.45345 210.35938 147.78157Q211.10938 147.1097 212.25 147.1097Q213.45312 147.1097 214.14062 147.75032Q214.82812 148.39095 214.82812 149.53157Q214.82812 150.09407 214.46875 150.6097Q214.10938 151.12532 213.48438 151.39095Q214.1875 151.6097 214.5625 152.12532Q214.95312 152.64095 214.95312 153.39095Q214.95312 154.53157 214.20312 155.21907Q213.45312 155.89095 212.25 155.89095Q211.0625 155.89095 210.29688 155.2347Q209.54688 154.57845 209.54688 153.51595L210.64062 153.51595Q210.64062 154.18782 211.07812 154.59407Q211.51562 155.00032 212.26562 155.00032Q213.04688 155.00032 213.45312 154.59407Q213.875 154.1722 213.875 153.40657Q213.875 152.6722 213.42188 152.28157Q212.96875 151.87532 212.09375 151.8597L211.28125 151.8597L211.28125 150.96907Z" fill-rule="nonzero"/><path fill="#000000" d="M31.200003 169.42188L16.887503 169.42188L16.887503 163.07812Q16.887503 161.17188 17.278128 160.17188Q17.653128 159.17188 18.637503 158.57812Q19.606253 157.98438 20.793753 157.98438Q22.309378 157.98438 23.356253 158.96875Q24.403128 159.95312 24.684378 162.01562Q25.043753 161.26562 25.403128 160.875Q26.153128 160.04688 27.309378 159.29688L31.200003 156.8125L31.200003 159.1875L28.215628 161.09375Q26.934378 161.92188 26.246878 162.45312Q25.559378 162.98438 25.293753 163.42188Q25.012503 163.84375 24.903128 164.28125Q24.840628 164.60938 24.840628 165.32812L24.840628 167.53125L31.200003 167.53125L31.200003 169.42188ZM23.200003 167.53125L23.200003 163.45312Q23.200003 162.15625 22.934378 161.4375Q22.668753 160.70312 22.075003 160.32812Q21.481253 159.9375 20.793753 159.9375Q19.778128 159.9375 19.121878 160.67188Q18.465628 161.40625 18.465628 163.0L18.465628 167.53125L23.200003 167.53125ZM27.856253 148.57812L28.090628 146.76562Q29.668753 147.1875 30.559378 148.35938Q31.434378 149.51562 31.434378 151.32812Q31.434378 153.59375 30.043753 154.9375Q28.637503 156.26562 26.106253 156.26562Q23.481253 156.26562 22.043753 154.92188Q20.590628 153.57812 20.590628 151.42188Q20.590628 149.34375 22.012503 148.03125Q23.418753 146.70312 25.996878 146.70312Q26.153128 146.70312 26.465628 146.71875L26.465628 154.45312Q28.168753 154.35938 29.075003 153.48438Q29.981253 152.60938 29.981253 151.3125Q29.981253 150.34375 29.481253 149.67188Q28.965628 148.98438 27.856253 148.57812ZM25.012503 154.35938L25.012503 148.5625Q23.715628 148.67188 23.059378 149.21875Q22.043753 150.0625 22.043753 151.40625Q22.043753 152.60938 22.856253 153.4375Q23.653128 154.26562 25.012503 154.35938ZM28.106253 145.39062L27.825003 143.64062Q28.871878 143.5 29.434378 142.82812Q29.981253 142.15625 29.981253 140.95312Q29.981253 139.75 29.496878 139.17188Q28.996878 138.57812 28.340628 138.57812Q27.746878 138.57812 27.403128 139.09375Q27.168753 139.45312 26.809378 140.89062Q26.309378 142.82812 25.965628 143.57812Q25.606253 144.3125 24.981253 144.70312Q24.340628 145.09375 23.575003 145.09375Q22.887503 145.09375 22.293753 144.78125Q21.700003 144.45312 21.309378 143.90625Q21.012503 143.5 20.809378 142.79688Q20.590628 142.07812 20.590628 141.26562Q20.590628 140.04688 20.950003 139.125Q21.293753 138.20312 21.903128 137.76562Q22.496878 137.32812 23.496878 137.15625L23.731253 138.875Q22.934378 139.0 22.496878 139.5625Q22.043753 140.125 22.043753 141.14062Q22.043753 142.35938 22.450003 142.875Q22.840628 143.39062 23.371878 143.39062Q23.715628 143.39062 23.996878 143.17188Q24.278128 142.96875 24.465628 142.5Q24.559378 142.23438 24.903128 140.95312Q25.403128 139.07812 25.731253 138.34375Q26.043753 137.60938 26.653128 137.1875Q27.246878 136.76562 28.153128 136.76562Q29.028128 136.76562 29.809378 137.28125Q30.590628 137.79688 31.012503 138.76562Q31.434378 139.73438 31.434378 140.95312Q31.434378 142.96875 30.590628 144.03125Q29.746878 145.09375 28.106253 145.39062ZM35.168755 134.6875L20.825003 134.6875L20.825003 133.07812L22.168753 133.07812Q21.387503 132.51562 20.996878 131.8125Q20.590628 131.09375 20.590628 130.07812Q20.590628 128.75 21.278128 127.734375Q21.965628 126.71875 23.215628 126.203125Q24.450003 125.671875 25.934378 125.671875Q27.528128 125.671875 28.809378 126.25Q30.075003 126.8125 30.762503 127.90625Q31.434378 129.0 31.434378 130.20312Q31.434378 131.07812 31.059378 131.78125Q30.684378 132.46875 30.121878 132.92188L35.168755 132.92188L35.168755 134.6875ZM26.075003 133.09375Q28.075003 133.09375 29.028128 132.28125Q29.981253 131.46875 29.981253 130.3125Q29.981253 129.14062 28.996878 128.3125Q28.012503 127.46875 25.918753 127.46875Q23.950003 127.46875 22.965628 128.29688Q21.965628 129.10938 21.965628 130.23438Q21.965628 131.35938 23.028128 132.23438Q24.075003 133.09375 26.075003 133.09375ZM26.012503 124.328125Q23.137503 124.328125 21.746878 122.734375Q20.590628 121.390625 20.590628 119.46875Q20.590628 117.328125 21.996878 115.984375Q23.403128 114.625 25.871878 114.625Q27.871878 114.625 29.028128 115.21875Q30.168753 115.8125 30.809378 116.96875Q31.434378 118.109375 31.434378 119.46875Q31.434378 121.65625 30.043753 123.0Q28.637503 124.328125 26.012503 124.328125ZM26.012503 122.53125Q28.012503 122.53125 28.996878 121.671875Q29.981253 120.796875 29.981253 119.46875Q29.981253 118.15625 28.996878 117.296875Q27.996878 116.421875 25.950003 116.421875Q24.028128 116.421875 23.043753 117.296875Q22.043753 118.171875 22.043753 119.46875Q22.043753 120.796875 23.043753 121.671875Q24.028128 122.53125 26.012503 122.53125ZM31.200003 112.6875L20.825003 112.6875L20.825003 111.09375L22.309378 111.09375Q20.590628 109.953125 20.590628 107.796875Q20.590628 106.859375 20.934378 106.078125Q21.262503 105.28125 21.809378 104.890625Q22.356253 104.5 23.106253 104.34375Q23.606253 104.25 24.825003 104.25L31.200003 104.25L31.200003 106.015625L24.887503 106.015625Q23.809378 106.015625 23.278128 106.21875Q22.746878 106.421875 22.434378 106.953125Q22.121878 107.46875 22.121878 108.171875Q22.121878 109.296875 22.840628 110.109375Q23.543753 110.921875 25.528128 110.921875L31.200003 110.921875L31.200003 112.6875ZM28.106253 103.390625L27.825003 101.640625Q28.871878 101.5 29.434378 100.828125Q29.981253 100.15625 29.981253 98.953125Q29.981253 97.75 29.496878 97.171875Q28.996878 96.578125 28.340628 96.578125Q27.746878 96.578125 27.403128 97.09375Q27.168753 97.453125 26.809378 98.890625Q26.309378 100.828125 25.965628 101.578125Q25.606253 102.3125 24.981253 102.703125Q24.340628 103.09375 23.575003 103.09375Q22.887503 103.09375 22.293753 102.78125Q21.700003 102.453125 21.309378 101.90625Q21.012503 101.5 20.809378 100.796875Q20.590628 100.078125 20.590628 99.265625Q20.590628 98.046875 20.950003 97.125Q21.293753 96.203125 21.903128 95.765625Q22.496878 95.328125 23.496878 95.15625L23.731253 96.875Q22.934378 97.0 22.496878 97.5625Q22.043753 98.125 22.043753 99.140625Q22.043753 100.359375 22.450003 100.875Q22.840628 101.390625 23.371878 101.390625Q23.715628 101.390625 23.996878 101.171875Q24.278128 100.96875 24.465628 100.5Q24.559378 100.234375 24.903128 98.953125Q25.403128 97.078125 25.731253 96.34375Q26.043753 95.609375 26.653128 95.1875Q27.246878 94.765625 28.153128 94.765625Q29.028128 94.765625 29.809378 95.28125Q30.590628 95.796875 31.012503 96.765625Q31.434378 97.734375 31.434378 98.953125Q31.434378 100.96875 30.590628 102.03125Q29.746878 103.09375 28.106253 103.390625ZM27.856253 85.578125L28.090628 83.765625Q29.668753 84.1875 30.559378 85.359375Q31.434378 86.515625 31.434378 88.328125Q31.434378 90.59375 30.043753 91.9375Q28.637503 93.265625 26.106253 93.265625Q23.481253 93.265625 22.043753 91.921875Q20.590628 90.578125 20.590628 88.421875Q20.590628 86.34375 22.012503 85.03125Q23.418753 83.703125 25.996878 83.703125Q26.153128 83.703125 26.465628 83.71875L26.465628 91.453125Q28.168753 91.359375 29.075003 90.484375Q29.981253 89.609375 29.981253 88.3125Q29.981253 87.34375 29.481253 86.671875Q28.965628 85.984375 27.856253 85.578125ZM25.012503 91.359375L25.012503 85.5625Q23.715628 85.671875 23.059378 86.21875Q22.043753 87.0625 22.043753 88.40625Q22.043753 89.609375 22.856253 90.4375Q23.653128 91.265625 25.012503 91.359375ZM28.106253 82.390625L27.825003 80.640625Q28.871878 80.5 29.434378 79.828125Q29.981253 79.15625 29.981253 77.953125Q29.981253 76.75 29.496878 76.171875Q28.996878 75.578125 28.340628 75.578125Q27.746878 75.578125 27.403128 76.09375Q27.168753 76.453125 26.809378 77.890625Q26.309378 79.828125 25.965628 80.578125Q25.606253 81.3125 24.981253 81.703125Q24.340628 82.09375 23.575003 82.09375Q22.887503 82.09375 22.293753 81.78125Q21.700003 81.453125 21.309378 80.90625Q21.012503 80.5 20.809378 79.796875Q20.590628 79.078125 20.590628 78.265625Q20.590628 77.046875 20.950003 76.125Q21.293753 75.203125 21.903128 74.765625Q22.496878 74.328125 23.496878 74.15625L23.731253 75.875Q22.934378 76.0 22.496878 76.5625Q22.043753 77.125 22.043753 78.140625Q22.043753 79.359375 22.450003 79.875Q22.840628 80.390625 23.371878 80.390625Q23.715628 80.390625 23.996878 80.171875Q24.278128 79.96875 24.465628 79.5Q24.559378 79.234375 24.903128 77.953125Q25.403128 76.078125 25.731253 75.34375Q26.043753 74.609375 26.653128 74.1875Q27.246878 73.765625 28.153128 73.765625Q29.028128 73.765625 29.809378 74.28125Q30.590628 74.796875 31.012503 75.765625Q31.434378 76.734375 31.434378 77.953125Q31.434378 79.96875 30.590628 81.03125Q29.746878 82.09375 28.106253 82.390625Z" fill-rule="nonzero"/><path fill="#000000" d="M113.2 171.83125Q113.2 168.78438 113.825 166.925Q114.45 165.06563 115.68437 164.06563Q116.91875 163.05 118.79375 163.05Q120.18437 163.05 121.21562 163.6125Q122.2625 164.15938 122.93437 165.20625Q123.62187 166.25313 124.0125 167.76875Q124.40312 169.26875 124.40312 171.83125Q124.40312 174.84688 123.77812 176.70625Q123.15312 178.56563 121.91875 179.58125Q120.68437 180.59688 118.79375 180.59688Q116.30937 180.59688 114.90312 178.81563Q113.2 176.65938 113.2 171.83125ZM115.37187 171.83125Q115.37187 176.05 116.35625 177.45625Q117.34062 178.8625 118.79375 178.8625Q120.24687 178.8625 121.23125 177.45625Q122.23125 176.05 122.23125 171.83125Q122.23125 167.58125 121.23125 166.19063Q120.24687 164.8 118.77812 164.8Q117.325 164.8 116.45 166.01875Q115.37187 167.59688 115.37187 171.83125Z" fill-rule="nonzero"/><path fill="#000000" d="M78.27812 129.56876L78.27812 131.6L66.93437 131.6Q66.90312 130.83438 67.16875 130.13126Q67.60625 128.975 68.55937 127.850006Q69.5125 126.725006 71.325 125.24063Q74.12187 122.943756 75.10625 121.61563Q76.09062 120.27188 76.09062 119.068756Q76.09062 117.818756 75.18437 116.95938Q74.29375 116.100006 72.85625 116.100006Q71.34062 116.100006 70.41875 117.02188Q69.5125 117.92813 69.49687 119.537506L67.325 119.318756Q67.54375 116.89688 68.99687 115.631256Q70.45 114.350006 72.90312 114.350006Q75.37187 114.350006 76.80937 115.725006Q78.2625 117.08438 78.2625 119.11563Q78.2625 120.14688 77.84062 121.14688Q77.41875 122.14688 76.43437 123.256256Q75.46562 124.350006 73.18437 126.27188Q71.29375 127.86563 70.74687 128.42813Q70.21562 128.99063 69.85625 129.56876L78.27812 129.56876ZM81.34062 131.6L81.34062 129.19376L83.73125 129.19376L83.73125 131.6Q83.73125 132.92813 83.2625 133.74063Q82.79375 134.55313 81.77812 135.00626L81.2 134.1Q81.85625 133.80313 82.16875 133.225Q82.49687 132.6625 82.52812 131.6L81.34062 131.6ZM87.2 123.131256Q87.2 120.08438 87.825 118.225006Q88.45 116.36563 89.68437 115.36563Q90.91875 114.350006 92.79375 114.350006Q94.18437 114.350006 95.21562 114.912506Q96.2625 115.45938 96.93437 116.506256Q97.62187 117.55313 98.0125 119.068756Q98.40312 120.568756 98.40312 123.131256Q98.40312 126.14688 97.77812 128.00626Q97.15312 129.86563 95.91875 130.88126Q94.68437 131.89688 92.79375 131.89688Q90.30937 131.89688 88.90312 130.11563Q87.2 127.95938 87.2 123.131256ZM89.37187 123.131256Q89.37187 127.350006 90.35625 128.75626Q91.34062 130.1625 92.79375 130.1625Q94.24687 130.1625 95.23125 128.75626Q96.23125 127.350006 96.23125 123.131256Q96.23125 118.881256 95.23125 117.49063Q94.24687 116.100006 92.77812 116.100006Q91.325 116.100006 90.45 117.318756Q89.37187 118.89688 89.37187 123.131256ZM100.2 123.131256Q100.2 120.08438 100.825 118.225006Q101.45 116.36563 102.68437 115.36563Q103.91875 114.350006 105.79375 114.350006Q107.18437 114.350006 108.21562 114.912506Q109.2625 115.45938 109.93437 116.506256Q110.62187 117.55313 111.0125 119.068756Q111.40312 120.568756 111.40312 123.131256Q111.40312 126.14688 110.77812 128.00626Q110.15312 129.86563 108.91875 130.88126Q107.68437 131.89688 105.79375 131.89688Q103.30937 131.89688 101.90312 130.11563Q100.2 127.95938 100.2 123.131256ZM102.37187 123.131256Q102.37187 127.350006 103.35625 128.75626Q104.34062 130.1625 105.79375 130.1625Q107.24687 130.1625 108.23125 128.75626Q109.23125 127.350006 109.23125 123.131256Q109.23125 118.881256 108.23125 117.49063Q107.24687 116.100006 105.77812 116.100006Q104.325 116.100006 103.45 117.318756Q102.37187 118.89688 102.37187 123.131256ZM113.2 123.131256Q113.2 120.08438 113.825 118.225006Q114.45 116.36563 115.68437 115.36563Q116.91875 114.350006 118.79375 114.350006Q120.18437 114.350006 121.21562 114.912506Q122.2625 115.45938 122.93437 116.506256Q123.62187 117.55313 124.0125 119.068756Q124.40312 120.568756 124.40312 123.131256Q124.40312 126.14688 123.77812 128.00626Q123.15312 129.86563 121.91875 130.88126Q120.68437 131.89688 118.79375 131.89688Q116.30937 131.89688 114.90312 130.11563Q113.2 127.95938 113.2 123.131256ZM115.37187 123.131256Q115.37187 127.350006 116.35625 128.75626Q117.34062 130.1625 118.79375 130.1625Q120.24687 130.1625 121.23125 128.75626Q122.23125 127.350006 122.23125 123.131256Q122.23125 118.881256 121.23125 117.49063Q120.24687 116.100006 118.77812 116.100006Q117.325 116.100006 116.45 117.318756Q115.37187 118.89688 115.37187 123.131256Z" fill-rule="nonzero"/><path fill="#000000" d="M73.96562 82.9L73.96562 78.79063L66.5125 78.79063L66.5125 76.85313L74.34062 65.7125L76.075 65.7125L76.075 76.85313L78.3875 76.85313L78.3875 78.79063L76.075 78.79063L76.075 82.9L73.96562 82.9ZM73.96562 76.85313L73.96562 69.10313L68.575 76.85313L73.96562 76.85313ZM81.34062 82.9L81.34062 80.49375L83.73125 80.49375L83.73125 82.9Q83.73125 84.22813 83.2625 85.04063Q82.79375 85.85313 81.77812 86.30625L81.2 85.4Q81.85625 85.10313 82.16875 84.525Q82.49687 83.9625 82.52812 82.9L81.34062 82.9ZM87.2 74.43125Q87.2 71.38438 87.825 69.525Q88.45 67.66563 89.68437 66.66563Q90.91875 65.65 92.79375 65.65Q94.18437 65.65 95.21562 66.2125Q96.2625 66.75938 96.93437 67.80625Q97.62187 68.85313 98.0125 70.36875Q98.40312 71.86875 98.40312 74.43125Q98.40312 77.44688 97.77812 79.30625Q97.15312 81.16563 95.91875 82.18125Q94.68437 83.19688 92.79375 83.19688Q90.30937 83.19688 88.90312 81.41563Q87.2 79.25938 87.2 74.43125ZM89.37187 74.43125Q89.37187 78.65 90.35625 80.05625Q91.34062 81.4625 92.79375 81.4625Q94.24687 81.4625 95.23125 80.05625Q96.23125 78.65 96.23125 74.43125Q96.23125 70.18125 95.23125 68.79063Q94.24687 67.4 92.77812 67.4Q91.325 67.4 90.45 68.61875Q89.37187 70.19688 89.37187 74.43125ZM100.2 74.43125Q100.2 71.38438 100.825 69.525Q101.45 67.66563 102.68437 66.66563Q103.91875 65.65 105.79375 65.65Q107.18437 65.65 108.21562 66.2125Q109.2625 66.75938 109.93437 67.80625Q110.62187 68.85313 111.0125 70.36875Q111.40312 71.86875 111.40312 74.43125Q111.40312 77.44688 110.77812 79.30625Q110.15312 81.16563 108.91875 82.18125Q107.68437 83.19688 105.79375 83.19688Q103.30937 83.19688 101.90312 81.41563Q100.2 79.25938 100.2 74.43125ZM102.37187 74.43125Q102.37187 78.65 103.35625 80.05625Q104.34062 81.4625 105.79375 81.4625Q107.24687 81.4625 108.23125 80.05625Q109.23125 78.65 109.23125 74.43125Q109.23125 70.18125 108.23125 68.79063Q107.24687 67.4 105.77812 67.4Q104.325 67.4 103.45 68.61875Q102.37187 70.19688 102.37187 74.43125ZM113.2 74.43125Q113.2 71.38438 113.825 69.525Q114.45 67.66563 115.68437 66.66563Q116.91875 65.65 118.79375 65.65Q120.18437 65.65 121.21562 66.2125Q122.2625 66.75938 122.93437 67.80625Q123.62187 68.85313 124.0125 70.36875Q124.40312 71.86875 124.40312 74.43125Q124.40312 77.44688 123.77812 79.30625Q123.15312 81.16563 121.91875 82.18125Q120.68437 83.19688 118.79375 83.19688Q116.30937 83.19688 114.90312 81.41563Q113.2 79.25938 113.2 74.43125ZM115.37187 74.43125Q115.37187 78.65 116.35625 80.05625Q117.34062 81.4625 118.79375 81.4625Q120.24687 81.4625 121.23125 80.05625Q122.23125 78.65 122.23125 74.43125Q122.23125 70.18125 121.23125 68.79063Q120.24687 67.4 118.77812 67.4Q117.325 67.4 116.45 68.61875Q115.37187 70.19688 115.37187 74.43125Z" fill-rule="nonzero"/><path fill="#000000" d="M78.1375 21.23125L76.04375 21.3875Q75.7625 20.153126 75.24687 19.590626Q74.3875 18.684376 73.1375 18.684376Q72.1375 18.684376 71.37187 19.246876Q70.37187 19.965626 69.79375 21.371876Q69.23125 22.7625 69.2 25.340626Q69.96562 24.184376 71.05937 23.621876Q72.16875 23.059376 73.37187 23.059376Q75.48125 23.059376 76.96562 24.60625Q78.45 26.153126 78.45 28.621876Q78.45 30.23125 77.74687 31.621876Q77.05937 33.0125 75.84062 33.7625Q74.62187 34.496876 73.075 34.496876Q70.43437 34.496876 68.7625 32.559376Q67.10625 30.60625 67.10625 26.153126Q67.10625 21.184376 68.95 18.91875Q70.54375 16.95 73.2625 16.95Q75.29375 16.95 76.59062 18.090626Q77.8875 19.215626 78.1375 21.23125ZM69.52812 28.6375Q69.52812 29.715626 69.98125 30.715626Q70.45 31.715626 71.27812 32.246876Q72.12187 32.7625 73.02812 32.7625Q74.37187 32.7625 75.325 31.684376Q76.29375 30.60625 76.29375 28.746876Q76.29375 26.965626 75.34062 25.95Q74.3875 24.91875 72.95 24.91875Q71.52812 24.91875 70.52812 25.95Q69.52812 26.965626 69.52812 28.6375ZM81.34062 34.2L81.34062 31.79375L83.73125 31.79375L83.73125 34.2Q83.73125 35.528126 83.2625 36.340626Q82.79375 37.153126 81.77812 37.60625L81.2 36.7Q81.85625 36.403126 82.16875 35.825Q82.49687 35.2625 82.52812 34.2L81.34062 34.2ZM87.2 25.73125Q87.2 22.684376 87.825 20.825Q88.45 18.965626 89.68437 17.965626Q90.91875 16.95 92.79375 16.95Q94.18437 16.95 95.21562 17.5125Q96.2625 18.059376 96.93437 19.10625Q97.62187 20.153126 98.0125 21.66875Q98.40312 23.16875 98.40312 25.73125Q98.40312 28.746876 97.77812 30.60625Q97.15312 32.465626 95.91875 33.48125Q94.68437 34.496876 92.79375 34.496876Q90.30937 34.496876 88.90312 32.715626Q87.2 30.559376 87.2 25.73125ZM89.37187 25.73125Q89.37187 29.95 90.35625 31.35625Q91.34062 32.7625 92.79375 32.7625Q94.24687 32.7625 95.23125 31.35625Q96.23125 29.95 96.23125 25.73125Q96.23125 21.48125 95.23125 20.090626Q94.24687 18.7 92.77812 18.7Q91.325 18.7 90.45 19.91875Q89.37187 21.496876 89.37187 25.73125ZM100.2 25.73125Q100.2 22.684376 100.825 20.825Q101.45 18.965626 102.68437 17.965626Q103.91875 16.95 105.79375 16.95Q107.18437 16.95 108.21562 17.5125Q109.2625 18.059376 109.93437 19.10625Q110.62187 20.153126 111.0125 21.66875Q111.40312 23.16875 111.40312 25.73125Q111.40312 28.746876 110.77812 30.60625Q110.15312 32.465626 108.91875 33.48125Q107.68437 34.496876 105.79375 34.496876Q103.30937 34.496876 101.90312 32.715626Q100.2 30.559376 100.2 25.73125ZM102.37187 25.73125Q102.37187 29.95 103.35625 31.35625Q104.34062 32.7625 105.79375 32.7625Q107.24687 32.7625 108.23125 31.35625Q109.23125 29.95 109.23125 25.73125Q109.23125 21.48125 108.23125 20.090626Q107.24687 18.7 105.77812 18.7Q104.325 18.7 103.45 19.91875Q102.37187 21.496876 102.37187 25.73125ZM113.2 25.73125Q113.2 22.684376 113.825 20.825Q114.45 18.965626 115.68437 17.965626Q116.91875 16.95 118.79375 16.95Q120.18437 16.95 121.21562 17.5125Q122.2625 18.059376 122.93437 19.10625Q123.62187 20.153126 124.0125 21.66875Q124.40312 23.16875 124.40312 25.73125Q124.40312 28.746876 123.77812 30.60625Q123.15312 32.465626 121.91875 33.48125Q120.68437 34.496876 118.79375 34.496876Q116.30937 34.496876 114.90312 32.715626Q113.2 30.559376 113.2 25.73125ZM115.37187 25.73125Q115.37187 29.95 116.35625 31.35625Q117.34062 32.7625 118.79375 32.7625Q120.24687 32.7625 121.23125 31.35625Q122.23125 29.95 122.23125 25.73125Q122.23125 21.48125 121.23125 20.090626Q120.24687 18.7 118.77812 18.7Q117.325 18.7 116.45 19.91875Q115.37187 21.496876 115.37187 25.73125Z" fill-rule="nonzero"/><path fill="#000000" d="M596.9982 196.97188L598.8732 196.8Q599.01385 197.94063 599.4982 198.65938Q599.9826 199.37813 601.01385 199.83125Q602.0451 200.26875 603.32635 200.26875Q604.45135 200.26875 605.32635 199.94063Q606.20135 199.59688 606.6232 199.00313Q607.0607 198.40938 607.0607 197.72188Q607.0607 197.01875 606.63885 196.4875Q606.2326 195.95625 605.2951 195.59688Q604.6857 195.3625 602.6076 194.8625Q600.5451 194.3625 599.717 193.925Q598.63885 193.3625 598.1076 192.53438Q597.57635 191.69063 597.57635 190.65938Q597.57635 189.51875 598.217 188.53438Q598.8732 187.53438 600.1076 187.03438Q601.3576 186.51875 602.8732 186.51875Q604.5451 186.51875 605.8107 187.05Q607.092 187.58125 607.7795 188.62813Q608.467 189.675 608.51385 191.00313L606.6076 191.14375Q606.45135 189.72188 605.5607 189.00313Q604.6857 188.26875 602.95135 188.26875Q601.1545 188.26875 600.32635 188.925Q599.4982 189.58125 599.4982 190.51875Q599.4982 191.33125 600.07635 191.84688Q600.6545 192.37813 603.07635 192.925Q605.4982 193.47188 606.4045 193.87813Q607.717 194.4875 608.342 195.425Q608.967 196.34688 608.967 197.55Q608.967 198.75313 608.2795 199.81563Q607.592 200.87813 606.3107 201.47188Q605.0295 202.05 603.4201 202.05Q601.3732 202.05 599.9826 201.45625Q598.6076 200.8625 597.82635 199.675Q597.0451 198.47188 596.9982 196.97188ZM615.4826 200.14375L615.7482 201.78438Q614.967 201.94063 614.342 201.94063Q613.342 201.94063 612.7795 201.62813Q612.2326 201.3 611.9982 200.78438Q611.7795 200.26875 611.7795 198.6125L611.7795 192.34688L610.4357 192.34688L610.4357 190.90938L611.7795 190.90938L611.7795 188.20625L613.6232 187.1125L613.6232 190.90938L615.4826 190.90938L615.4826 192.34688L613.6232 192.34688L613.6232 198.70625Q613.6232 199.50313 613.717 199.7375Q613.8107 199.95625 614.0295 200.09688Q614.2482 200.22188 614.6701 200.22188Q614.967 200.22188 615.4826 200.14375ZM617.4201 201.8L617.4201 190.90938L619.092 190.90938L619.092 192.56563Q619.717 191.40938 620.2482 191.03438Q620.7951 190.65938 621.45135 190.65938Q622.3732 190.65938 623.342 191.25313L622.70135 192.97188Q622.0295 192.56563 621.3576 192.56563Q620.7482 192.56563 620.26385 192.94063Q619.7795 193.3 619.57635 193.94063Q619.26385 194.925 619.26385 196.09688L619.26385 201.8L617.4201 201.8ZM623.76385 196.3625Q623.76385 193.33125 625.4357 191.87813Q626.842 190.65938 628.8576 190.65938Q631.1076 190.65938 632.5295 192.14375Q633.967 193.6125 633.967 196.20625Q633.967 198.3 633.32635 199.50313Q632.70135 200.70625 631.4982 201.37813Q630.2951 202.05 628.8576 202.05Q626.57635 202.05 625.1701 200.58125Q623.76385 199.1125 623.76385 196.3625ZM625.6545 196.3625Q625.6545 198.44063 626.5607 199.4875Q627.4826 200.53438 628.8576 200.53438Q630.2326 200.53438 631.13885 199.4875Q632.0607 198.44063 632.0607 196.3Q632.0607 194.26875 631.13885 193.2375Q630.2326 192.19063 628.8576 192.19063Q627.4826 192.19063 626.5607 193.2375Q625.6545 194.26875 625.6545 196.3625ZM636.45135 201.8L636.45135 190.90938L638.1076 190.90938L638.1076 192.45625Q639.3107 190.65938 641.57635 190.65938Q642.5607 190.65938 643.3732 191.01875Q644.20135 191.37813 644.6076 191.95625Q645.0295 192.51875 645.1857 193.31563Q645.2951 193.81563 645.2951 195.09688L645.2951 201.8L643.45135 201.8L643.45135 195.175Q643.45135 194.05 643.2326 193.4875Q643.01385 192.925 642.467 192.59688Q641.9201 192.26875 641.1857 192.26875Q639.9982 192.26875 639.13885 193.01875Q638.2951 193.75313 638.2951 195.84688L638.2951 201.8L636.45135 201.8ZM647.1076 202.70625L648.9045 202.97188Q649.01385 203.8 649.5295 204.175Q650.217 204.69063 651.4045 204.69063Q652.6857 204.69063 653.3732 204.175Q654.07635 203.65938 654.32635 202.7375Q654.467 202.175 654.45135 200.37813Q653.2482 201.8 651.45135 201.8Q649.20135 201.8 647.967 200.19063Q646.7326 198.56563 646.7326 196.3Q646.7326 194.7375 647.2951 193.425Q647.8732 192.09688 648.9357 191.37813Q650.01385 190.65938 651.45135 190.65938Q653.38885 190.65938 654.63885 192.22188L654.63885 190.90938L656.342 190.90938L656.342 200.31563Q656.342 202.8625 655.8107 203.925Q655.2951 204.9875 654.1701 205.59688Q653.0607 206.22188 651.4201 206.22188Q649.467 206.22188 648.26385 205.34688Q647.0607 204.47188 647.1076 202.70625ZM648.63885 196.15938Q648.63885 198.3 649.4826 199.28438Q650.342 200.26875 651.6232 200.26875Q652.88885 200.26875 653.7482 199.3Q654.6076 198.31563 654.6076 196.22188Q654.6076 194.22188 653.717 193.20625Q652.842 192.19063 651.592 192.19063Q650.3576 192.19063 649.4982 193.19063Q648.63885 194.19063 648.63885 196.15938ZM658.4045 201.8L658.4045 186.76875L660.2482 186.76875L660.2482 201.8L658.4045 201.8ZM662.3576 205.9875L662.1545 204.26875Q662.76385 204.425 663.217 204.425Q663.82635 204.425 664.1857 204.22188Q664.5607 204.01875 664.8107 203.64375Q664.9826 203.3625 665.3732 202.26875Q665.4201 202.1125 665.5295 201.81563L661.4045 190.90938L663.38885 190.90938L665.6545 197.22188Q666.092 198.40938 666.45135 199.7375Q666.76385 198.47188 667.20135 197.25313L669.5295 190.90938L671.3732 190.90938L667.2326 201.9875Q666.5607 203.78438 666.20135 204.45625Q665.70135 205.3625 665.0607 205.78438Q664.4357 206.22188 663.5451 206.22188Q663.01385 206.22188 662.3576 205.9875Z" fill-rule="nonzero"/><path fill="#000000" d="M606.5295 226.8L612.3107 211.76875L614.45135 211.76875L620.592 226.8L618.32635 226.8L616.57635 222.25313L610.2951 222.25313L608.63885 226.8L606.5295 226.8ZM610.8732 220.62813L615.967 220.62813L614.38885 216.45625Q613.6701 214.56563 613.32635 213.34688Q613.0451 214.8 612.51385 216.22188L610.8732 220.62813ZM620.6076 227.70625L622.4045 227.97188Q622.51385 228.8 623.0295 229.175Q623.717 229.69063 624.9045 229.69063Q626.1857 229.69063 626.8732 229.175Q627.57635 228.65938 627.82635 227.7375Q627.967 227.175 627.95135 225.37813Q626.7482 226.8 624.95135 226.8Q622.70135 226.8 621.467 225.19063Q620.2326 223.56563 620.2326 221.3Q620.2326 219.7375 620.7951 218.425Q621.3732 217.09688 622.4357 216.37813Q623.51385 215.65938 624.95135 215.65938Q626.88885 215.65938 628.13885 217.22188L628.13885 215.90938L629.842 215.90938L629.842 225.31563Q629.842 227.8625 629.3107 228.925Q628.7951 229.9875 627.6701 230.59688Q626.5607 231.22188 624.9201 231.22188Q622.967 231.22188 621.76385 230.34688Q620.5607 229.47188 620.6076 227.70625ZM622.13885 221.15938Q622.13885 223.3 622.9826 224.28438Q623.842 225.26875 625.1232 225.26875Q626.38885 225.26875 627.2482 224.3Q628.1076 223.31563 628.1076 221.22188Q628.1076 219.22188 627.217 218.20625Q626.342 217.19063 625.092 217.19063Q623.8576 217.19063 622.9982 218.19063Q622.13885 219.19063 622.13885 221.15938ZM631.9201 226.8L631.9201 215.90938L633.592 215.90938L633.592 217.56563Q634.217 216.40938 634.7482 216.03438Q635.2951 215.65938 635.95135 215.65938Q636.8732 215.65938 637.842 216.25313L637.20135 217.97188Q636.5295 217.56563 635.8576 217.56563Q635.2482 217.56563 634.76385 217.94063Q634.2795 218.3 634.07635 218.94063Q633.76385 219.925 633.76385 221.09688L633.76385 226.8L631.9201 226.8ZM646.4045 223.3L648.3107 223.53438Q647.8576 225.20625 646.63885 226.12813Q645.4201 227.05 643.51385 227.05Q641.1232 227.05 639.717 225.58125Q638.32635 224.09688 638.32635 221.44063Q638.32635 218.70625 639.7326 217.19063Q641.1545 215.65938 643.4201 215.65938Q645.6076 215.65938 646.9826 217.15938Q648.3732 218.64375 648.3732 221.33125Q648.3732 221.50313 648.3576 221.83125L640.2326 221.83125Q640.342 223.62813 641.2482 224.58125Q642.1701 225.53438 643.5295 225.53438Q644.5451 225.53438 645.26385 225.00313Q645.9826 224.45625 646.4045 223.3ZM640.342 220.31563L646.4201 220.31563Q646.2951 218.94063 645.717 218.25313Q644.842 217.175 643.4357 217.175Q642.1701 217.175 641.2951 218.03438Q640.4357 218.87813 640.342 220.31563ZM658.4045 223.3L660.3107 223.53438Q659.8576 225.20625 658.63885 226.12813Q657.4201 227.05 655.51385 227.05Q653.1232 227.05 651.717 225.58125Q650.32635 224.09688 650.32635 221.44063Q650.32635 218.70625 651.7326 217.19063Q653.1545 215.65938 655.4201 215.65938Q657.6076 215.65938 658.9826 217.15938Q660.3732 218.64375 660.3732 221.33125Q660.3732 221.50313 660.3576 221.83125L652.2326 221.83125Q652.342 223.62813 653.2482 224.58125Q654.1701 225.53438 655.5295 225.53438Q656.5451 225.53438 657.26385 225.00313Q657.9826 224.45625 658.4045 223.3ZM652.342 220.31563L658.4201 220.31563Q658.2951 218.94063 657.717 218.25313Q656.842 217.175 655.4357 217.175Q654.1701 217.175 653.2951 218.03438Q652.4357 218.87813 652.342 220.31563Z" fill-rule="nonzero"/><path fill="#000000" d="M500.2491 201.8L506.03036 186.76875L508.171 186.76875L514.31165 201.8L512.046 201.8L510.296 197.25313L504.01474 197.25313L502.3585 201.8L500.2491 201.8ZM504.59286 195.62813L509.6866 195.62813L508.1085 191.45625Q507.38974 189.56563 507.046 188.34688Q506.76474 189.8 506.2335 191.22188L504.59286 195.62813ZM514.3273 202.70625L516.12415 202.97188Q516.2335 203.8 516.74915 204.175Q517.43665 204.69063 518.62415 204.69063Q519.9054 204.69063 520.5929 204.175Q521.296 203.65938 521.546 202.7375Q521.68665 202.175 521.671 200.37813Q520.4679 201.8 518.671 201.8Q516.421 201.8 515.18665 200.19063Q513.9523 198.56563 513.9523 196.3Q513.9523 194.7375 514.5148 193.425Q515.0929 192.09688 516.1554 191.37813Q517.2335 190.65938 518.671 190.65938Q520.6085 190.65938 521.8585 192.22188L521.8585 190.90938L523.56165 190.90938L523.56165 200.31563Q523.56165 202.8625 523.0304 203.925Q522.5148 204.9875 521.3898 205.59688Q520.2804 206.22188 518.6398 206.22188Q516.68665 206.22188 515.4835 205.34688Q514.2804 204.47188 514.3273 202.70625ZM515.8585 196.15938Q515.8585 198.3 516.7023 199.28438Q517.56165 200.26875 518.8429 200.26875Q520.1085 200.26875 520.9679 199.3Q521.8273 198.31563 521.8273 196.22188Q521.8273 194.22188 520.93665 193.20625Q520.06165 192.19063 518.81165 192.19063Q517.5773 192.19063 516.7179 193.19063Q515.8585 194.19063 515.8585 196.15938ZM525.6398 201.8L525.6398 190.90938L527.31165 190.90938L527.31165 192.56563Q527.93665 191.40938 528.4679 191.03438Q529.0148 190.65938 529.671 190.65938Q530.5929 190.65938 531.56165 191.25313L530.921 192.97188Q530.24915 192.56563 529.5773 192.56563Q528.9679 192.56563 528.4835 192.94063Q527.99915 193.3 527.796 193.94063Q527.4835 194.925 527.4835 196.09688L527.4835 201.8L525.6398 201.8ZM540.12415 198.3L542.0304 198.53438Q541.5773 200.20625 540.3585 201.12813Q539.1398 202.05 537.2335 202.05Q534.8429 202.05 533.43665 200.58125Q532.046 199.09688 532.046 196.44063Q532.046 193.70625 533.4523 192.19063Q534.87415 190.65938 537.1398 190.65938Q539.3273 190.65938 540.7023 192.15938Q542.0929 193.64375 542.0929 196.33125Q542.0929 196.50313 542.0773 196.83125L533.9523 196.83125Q534.06165 198.62813 534.9679 199.58125Q535.8898 200.53438 537.24915 200.53438Q538.2648 200.53438 538.9835 200.00313Q539.7023 199.45625 540.12415 198.3ZM534.06165 195.31563L540.1398 195.31563Q540.0148 193.94063 539.43665 193.25313Q538.56165 192.175 537.1554 192.175Q535.8898 192.175 535.0148 193.03438Q534.1554 193.87813 534.06165 195.31563ZM552.12415 198.3L554.0304 198.53438Q553.5773 200.20625 552.3585 201.12813Q551.1398 202.05 549.2335 202.05Q546.8429 202.05 545.43665 200.58125Q544.046 199.09688 544.046 196.44063Q544.046 193.70625 545.4523 192.19063Q546.87415 190.65938 549.1398 190.65938Q551.3273 190.65938 552.7023 192.15938Q554.0929 193.64375 554.0929 196.33125Q554.0929 196.50313 554.0773 196.83125L545.9523 196.83125Q546.06165 198.62813 546.9679 199.58125Q547.8898 200.53438 549.24915 200.53438Q550.2648 200.53438 550.9835 200.00313Q551.7023 199.45625 552.12415 198.3ZM546.06165 195.31563L552.1398 195.31563Q552.0148 193.94063 551.43665 193.25313Q550.56165 192.175 549.1554 192.175Q547.8898 192.175 547.0148 193.03438Q546.1554 193.87813 546.06165 195.31563Z" fill-rule="nonzero"/><path fill="#000000" d="M390.09375 201.8L390.09375 186.76875L392.14062 186.76875L400.03125 198.56563L400.03125 186.76875L401.9375 186.76875L401.9375 201.8L399.90625 201.8L392.0 189.9875L392.0 201.8L390.09375 201.8ZM411.34375 198.3L413.25 198.53438Q412.79688 200.20625 411.57812 201.12813Q410.35938 202.05 408.45312 202.05Q406.0625 202.05 404.65625 200.58125Q403.26562 199.09688 403.26562 196.44063Q403.26562 193.70625 404.67188 192.19063Q406.09375 190.65938 408.35938 190.65938Q410.54688 190.65938 411.92188 192.15938Q413.3125 193.64375 413.3125 196.33125Q413.3125 196.50313 413.29688 196.83125L405.17188 196.83125Q405.28125 198.62813 406.1875 199.58125Q407.10938 200.53438 408.46875 200.53438Q409.48438 200.53438 410.20312 200.00313Q410.92188 199.45625 411.34375 198.3ZM405.28125 195.31563L411.35938 195.31563Q411.23438 193.94063 410.65625 193.25313Q409.78125 192.175 408.375 192.175Q407.10938 192.175 406.23438 193.03438Q405.375 193.87813 405.28125 195.31563ZM423.01562 201.8L423.01562 200.20625Q421.75 202.05 419.5625 202.05Q418.60938 202.05 417.76562 201.675Q416.9375 201.3 416.53125 200.75313Q416.125 200.19063 415.95312 199.37813Q415.84375 198.83125 415.84375 197.65938L415.84375 190.90938L417.6875 190.90938L417.6875 196.95625Q417.6875 198.39375 417.79688 198.89375Q417.96875 199.62813 418.53125 200.05Q419.10938 200.45625 419.9375 200.45625Q420.76562 200.45625 421.48438 200.03438Q422.21875 199.6125 422.51562 198.87813Q422.82812 198.14375 422.82812 196.7375L422.82812 190.90938L424.67188 190.90938L424.67188 201.8L423.01562 201.8ZM430.92188 200.14375L431.1875 201.78438Q430.40625 201.94063 429.78125 201.94063Q428.78125 201.94063 428.21875 201.62813Q427.67188 201.3 427.4375 200.78438Q427.21875 200.26875 427.21875 198.6125L427.21875 192.34688L425.875 192.34688L425.875 190.90938L427.21875 190.90938L427.21875 188.20625L429.0625 187.1125L429.0625 190.90938L430.92188 190.90938L430.92188 192.34688L429.0625 192.34688L429.0625 198.70625Q429.0625 199.50313 429.15625 199.7375Q429.25 199.95625 429.46875 200.09688Q429.6875 200.22188 430.10938 200.22188Q430.40625 200.22188 430.92188 200.14375ZM432.85938 201.8L432.85938 190.90938L434.53125 190.90938L434.53125 192.56563Q435.15625 191.40938 435.6875 191.03438Q436.23438 190.65938 436.89062 190.65938Q437.8125 190.65938 438.78125 191.25313L438.14062 192.97188Q437.46875 192.56563 436.79688 192.56563Q436.1875 192.56563 435.70312 192.94063Q435.21875 193.3 435.01562 193.94063Q434.70312 194.925 434.70312 196.09688L434.70312 201.8L432.85938 201.8ZM446.98438 200.45625Q445.96875 201.33125 445.01562 201.69063Q444.0625 202.05 442.98438 202.05Q441.1875 202.05 440.21875 201.175Q439.26562 200.3 439.26562 198.925Q439.26562 198.12813 439.625 197.47188Q439.98438 196.8 440.57812 196.40938Q441.17188 196.00313 441.90625 195.8Q442.45312 195.65938 443.54688 195.51875Q445.78125 195.25313 446.84375 194.89375Q446.84375 194.50313 446.84375 194.40938Q446.84375 193.28438 446.32812 192.81563Q445.60938 192.19063 444.21875 192.19063Q442.92188 192.19063 442.29688 192.64375Q441.67188 193.09688 441.375 194.26875L439.57812 194.01875Q439.82812 192.8625 440.39062 192.15938Q440.95312 191.44063 442.01562 191.05Q443.07812 190.65938 444.48438 190.65938Q445.89062 190.65938 446.75 190.9875Q447.625 191.31563 448.03125 191.81563Q448.45312 192.31563 448.60938 193.08125Q448.70312 193.55 448.70312 194.76875L448.70312 197.2375Q448.70312 199.81563 448.8125 200.50313Q448.9375 201.175 449.28125 201.8L447.35938 201.8Q447.07812 201.22188 446.98438 200.45625ZM446.84375 196.33125Q445.82812 196.7375 443.82812 197.03438Q442.6875 197.19063 442.20312 197.40938Q441.73438 197.6125 441.48438 198.00313Q441.23438 198.39375 441.23438 198.87813Q441.23438 199.6125 441.78125 200.1125Q442.34375 200.59688 443.42188 200.59688Q444.48438 200.59688 445.3125 200.12813Q446.15625 199.65938 446.54688 198.8625Q446.84375 198.2375 446.84375 197.01875L446.84375 196.33125ZM451.84375 201.8L451.84375 186.76875L453.6875 186.76875L453.6875 201.8L451.84375 201.8Z" fill-rule="nonzero"/><path fill="#000000" d="M274.34464 201.8L274.34464 186.76875L279.5165 186.76875Q281.2665 186.76875 282.1884 186.9875Q283.48526 187.28438 284.3915 188.06563Q285.59464 189.06563 286.17276 190.62813Q286.7665 192.19063 286.7665 194.20625Q286.7665 195.90938 286.36026 197.2375Q285.96964 198.56563 285.34464 199.44063Q284.71964 200.3 283.96964 200.8Q283.23526 201.28438 282.17276 201.55Q281.1259 201.8 279.7665 201.8L274.34464 201.8ZM276.329 200.01875L279.53214 200.01875Q281.03214 200.01875 281.8759 199.75313Q282.71964 199.47188 283.21964 198.97188Q283.92276 198.26875 284.3134 197.08125Q284.71964 195.87813 284.71964 194.175Q284.71964 191.81563 283.9384 190.55Q283.17276 189.28438 282.0634 188.84688Q281.2665 188.53438 279.48526 188.53438L276.329 188.53438L276.329 200.01875ZM289.11026 188.89375L289.11026 186.76875L290.954 186.76875L290.954 188.89375L289.11026 188.89375ZM289.11026 201.8L289.11026 190.90938L290.954 190.90938L290.954 201.8L289.11026 201.8ZM293.36026 198.55L295.1884 198.26875Q295.34464 199.3625 296.04776 199.95625Q296.7509 200.53438 298.0165 200.53438Q299.28214 200.53438 299.8915 200.01875Q300.5165 199.4875 300.5165 198.8Q300.5165 198.175 299.96964 197.81563Q299.59464 197.56563 298.079 197.19063Q296.04776 196.675 295.2665 196.3Q294.48526 195.925 294.079 195.26875Q293.67276 194.59688 293.67276 193.8Q293.67276 193.08125 294.0009 192.45625Q294.34464 191.83125 294.90714 191.425Q295.34464 191.1125 296.079 190.89375Q296.829 190.65938 297.6884 190.65938Q298.96964 190.65938 299.9384 191.03438Q300.90714 191.40938 301.36026 192.03438Q301.829 192.65938 302.0009 193.72188L300.1884 193.97188Q300.079 193.12813 299.48526 192.65938Q298.8915 192.175 297.8134 192.175Q296.54776 192.175 296.0009 192.59688Q295.454 193.01875 295.454 193.58125Q295.454 193.94063 295.6884 194.2375Q295.90714 194.53438 296.3915 194.72188Q296.67276 194.83125 298.0165 195.19063Q299.98526 195.72188 300.7509 196.05Q301.53214 196.37813 301.96964 197.01875Q302.40714 197.65938 302.40714 198.59688Q302.40714 199.51875 301.86026 200.34688Q301.329 201.15938 300.3134 201.6125Q299.29776 202.05 298.0165 202.05Q295.8915 202.05 294.78214 201.175Q293.67276 200.28438 293.36026 198.55ZM312.204 200.45625Q311.1884 201.33125 310.23526 201.69063Q309.28214 202.05 308.204 202.05Q306.40714 202.05 305.4384 201.175Q304.48526 200.3 304.48526 198.925Q304.48526 198.12813 304.84464 197.47188Q305.204 196.8 305.79776 196.40938Q306.3915 196.00313 307.1259 195.8Q307.67276 195.65938 308.7665 195.51875Q311.0009 195.25313 312.0634 194.89375Q312.0634 194.50313 312.0634 194.40938Q312.0634 193.28438 311.54776 192.81563Q310.829 192.19063 309.4384 192.19063Q308.1415 192.19063 307.5165 192.64375Q306.8915 193.09688 306.59464 194.26875L304.79776 194.01875Q305.04776 192.8625 305.61026 192.15938Q306.17276 191.44063 307.23526 191.05Q308.29776 190.65938 309.704 190.65938Q311.11026 190.65938 311.96964 190.9875Q312.84464 191.31563 313.2509 191.81563Q313.67276 192.31563 313.829 193.08125Q313.92276 193.55 313.92276 194.76875L313.92276 197.2375Q313.92276 199.81563 314.03214 200.50313Q314.15714 201.175 314.5009 201.8L312.579 201.8Q312.29776 201.22188 312.204 200.45625ZM312.0634 196.33125Q311.04776 196.7375 309.04776 197.03438Q307.90714 197.19063 307.42276 197.40938Q306.954 197.6125 306.704 198.00313Q306.454 198.39375 306.454 198.87813Q306.454 199.6125 307.0009 200.1125Q307.5634 200.59688 308.6415 200.59688Q309.704 200.59688 310.53214 200.12813Q311.3759 199.65938 311.7665 198.8625Q312.0634 198.2375 312.0634 197.01875L312.0634 196.33125ZM316.7665 202.70625L318.5634 202.97188Q318.67276 203.8 319.1884 204.175Q319.8759 204.69063 321.0634 204.69063Q322.34464 204.69063 323.03214 204.175Q323.73526 203.65938 323.98526 202.7375Q324.1259 202.175 324.11026 200.37813Q322.90714 201.8 321.11026 201.8Q318.86026 201.8 317.6259 200.19063Q316.3915 198.56563 316.3915 196.3Q316.3915 194.7375 316.954 193.425Q317.53214 192.09688 318.59464 191.37813Q319.67276 190.65938 321.11026 190.65938Q323.04776 190.65938 324.29776 192.22188L324.29776 190.90938L326.0009 190.90938L326.0009 200.31563Q326.0009 202.8625 325.46964 203.925Q324.954 204.9875 323.829 205.59688Q322.71964 206.22188 321.079 206.22188Q319.1259 206.22188 317.92276 205.34688Q316.71964 204.47188 316.7665 202.70625ZM318.29776 196.15938Q318.29776 198.3 319.1415 199.28438Q320.0009 200.26875 321.28214 200.26875Q322.54776 200.26875 323.40714 199.3Q324.2665 198.31563 324.2665 196.22188Q324.2665 194.22188 323.3759 193.20625Q322.5009 192.19063 321.2509 192.19063Q320.0165 192.19063 319.15714 193.19063Q318.29776 194.19063 318.29776 196.15938ZM328.079 201.8L328.079 190.90938L329.7509 190.90938L329.7509 192.56563Q330.3759 191.40938 330.90714 191.03438Q331.454 190.65938 332.11026 190.65938Q333.03214 190.65938 334.0009 191.25313L333.36026 192.97188Q332.6884 192.56563 332.0165 192.56563Q331.40714 192.56563 330.92276 192.94063Q330.4384 193.3 330.23526 193.94063Q329.92276 194.925 329.92276 196.09688L329.92276 201.8L328.079 201.8ZM342.5634 198.3L344.46964 198.53438Q344.0165 200.20625 342.79776 201.12813Q341.579 202.05 339.67276 202.05Q337.28214 202.05 335.8759 200.58125Q334.48526 199.09688 334.48526 196.44063Q334.48526 193.70625 335.8915 192.19063Q337.3134 190.65938 339.579 190.65938Q341.7665 190.65938 343.1415 192.15938Q344.53214 193.64375 344.53214 196.33125Q344.53214 196.50313 344.5165 196.83125L336.3915 196.83125Q336.5009 198.62813 337.40714 199.58125Q338.329 200.53438 339.6884 200.53438Q340.704 200.53438 341.42276 200.00313Q342.1415 199.45625 342.5634 198.3ZM336.5009 195.31563L342.579 195.31563Q342.454 193.94063 341.8759 193.25313Q341.0009 192.175 339.59464 192.175Q338.329 192.175 337.454 193.03438Q336.59464 193.87813 336.5009 195.31563ZM354.5634 198.3L356.46964 198.53438Q356.0165 200.20625 354.79776 201.12813Q353.579 202.05 351.67276 202.05Q349.28214 202.05 347.8759 200.58125Q346.48526 199.09688 346.48526 196.44063Q346.48526 193.70625 347.8915 192.19063Q349.3134 190.65938 351.579 190.65938Q353.7665 190.65938 355.1415 192.15938Q356.53214 193.64375 356.53214 196.33125Q356.53214 196.50313 356.5165 196.83125L348.3915 196.83125Q348.5009 198.62813 349.40714 199.58125Q350.329 200.53438 351.6884 200.53438Q352.704 200.53438 353.42276 200.00313Q354.1415 199.45625 354.5634 198.3ZM348.5009 195.31563L354.579 195.31563Q354.454 193.94063 353.8759 193.25313Q353.0009 192.175 351.59464 192.175Q350.329 192.175 349.454 193.03438Q348.59464 193.87813 348.5009 195.31563Z" fill-rule="nonzero"/><path fill="#000000" d="M171.87675 196.97188L173.75175 196.8Q173.89238 197.94063 174.37675 198.65938Q174.86113 199.37813 175.89238 199.83125Q176.92363 200.26875 178.20488 200.26875Q179.32988 200.26875 180.20488 199.94063Q181.07988 199.59688 181.50175 199.00313Q181.93925 198.40938 181.93925 197.72188Q181.93925 197.01875 181.51738 196.4875Q181.11113 195.95625 180.17363 195.59688Q179.56425 195.3625 177.48613 194.8625Q175.42363 194.3625 174.5955 193.925Q173.51738 193.3625 172.98613 192.53438Q172.45488 191.69063 172.45488 190.65938Q172.45488 189.51875 173.0955 188.53438Q173.75175 187.53438 174.98613 187.03438Q176.23613 186.51875 177.75175 186.51875Q179.42363 186.51875 180.68925 187.05Q181.9705 187.58125 182.658 188.62813Q183.3455 189.675 183.39238 191.00313L181.48613 191.14375Q181.32988 189.72188 180.43925 189.00313Q179.56425 188.26875 177.82988 188.26875Q176.033 188.26875 175.20488 188.925Q174.37675 189.58125 174.37675 190.51875Q174.37675 191.33125 174.95488 191.84688Q175.533 192.37813 177.95488 192.925Q180.37675 193.47188 181.283 193.87813Q182.5955 194.4875 183.2205 195.425Q183.8455 196.34688 183.8455 197.55Q183.8455 198.75313 183.158 199.81563Q182.4705 200.87813 181.18925 201.47188Q179.908 202.05 178.29863 202.05Q176.25175 202.05 174.86113 201.45625Q173.48613 200.8625 172.70488 199.675Q171.92363 198.47188 171.87675 196.97188ZM190.36113 200.14375L190.62675 201.78438Q189.8455 201.94063 189.2205 201.94063Q188.2205 201.94063 187.658 201.62813Q187.11113 201.3 186.87675 200.78438Q186.658 200.26875 186.658 198.6125L186.658 192.34688L185.31425 192.34688L185.31425 190.90938L186.658 190.90938L186.658 188.20625L188.50175 187.1125L188.50175 190.90938L190.36113 190.90938L190.36113 192.34688L188.50175 192.34688L188.50175 198.70625Q188.50175 199.50313 188.5955 199.7375Q188.68925 199.95625 188.908 200.09688Q189.12675 200.22188 189.54863 200.22188Q189.8455 200.22188 190.36113 200.14375ZM192.29863 201.8L192.29863 190.90938L193.9705 190.90938L193.9705 192.56563Q194.5955 191.40938 195.12675 191.03438Q195.67363 190.65938 196.32988 190.65938Q197.25175 190.65938 198.2205 191.25313L197.57988 192.97188Q196.908 192.56563 196.23613 192.56563Q195.62675 192.56563 195.14238 192.94063Q194.658 193.3 194.45488 193.94063Q194.14238 194.925 194.14238 196.09688L194.14238 201.8L192.29863 201.8ZM198.64238 196.3625Q198.64238 193.33125 200.31425 191.87813Q201.7205 190.65938 203.73613 190.65938Q205.98613 190.65938 207.408 192.14375Q208.8455 193.6125 208.8455 196.20625Q208.8455 198.3 208.20488 199.50313Q207.57988 200.70625 206.37675 201.37813Q205.17363 202.05 203.73613 202.05Q201.45488 202.05 200.04863 200.58125Q198.64238 199.1125 198.64238 196.3625ZM200.533 196.3625Q200.533 198.44063 201.43925 199.4875Q202.36113 200.53438 203.73613 200.53438Q205.11113 200.53438 206.01738 199.4875Q206.93925 198.44063 206.93925 196.3Q206.93925 194.26875 206.01738 193.2375Q205.11113 192.19063 203.73613 192.19063Q202.36113 192.19063 201.43925 193.2375Q200.533 194.26875 200.533 196.3625ZM211.32988 201.8L211.32988 190.90938L212.98613 190.90938L212.98613 192.45625Q214.18925 190.65938 216.45488 190.65938Q217.43925 190.65938 218.25175 191.01875Q219.07988 191.37813 219.48613 191.95625Q219.908 192.51875 220.06425 193.31563Q220.17363 193.81563 220.17363 195.09688L220.17363 201.8L218.32988 201.8L218.32988 195.175Q218.32988 194.05 218.11113 193.4875Q217.89238 192.925 217.3455 192.59688Q216.79863 192.26875 216.06425 192.26875Q214.87675 192.26875 214.01738 193.01875Q213.17363 193.75313 213.17363 195.84688L213.17363 201.8L211.32988 201.8ZM221.98613 202.70625L223.783 202.97188Q223.89238 203.8 224.408 204.175Q225.0955 204.69063 226.283 204.69063Q227.56425 204.69063 228.25175 204.175Q228.95488 203.65938 229.20488 202.7375Q229.3455 202.175 229.32988 200.37813Q228.12675 201.8 226.32988 201.8Q224.07988 201.8 222.8455 200.19063Q221.61113 198.56563 221.61113 196.3Q221.61113 194.7375 222.17363 193.425Q222.75175 192.09688 223.81425 191.37813Q224.89238 190.65938 226.32988 190.65938Q228.26738 190.65938 229.51738 192.22188L229.51738 190.90938L231.2205 190.90938L231.2205 200.31563Q231.2205 202.8625 230.68925 203.925Q230.17363 204.9875 229.04863 205.59688Q227.93925 206.22188 226.29863 206.22188Q224.3455 206.22188 223.14238 205.34688Q221.93925 204.47188 221.98613 202.70625ZM223.51738 196.15938Q223.51738 198.3 224.36113 199.28438Q225.2205 200.26875 226.50175 200.26875Q227.76738 200.26875 228.62675 199.3Q229.48613 198.31563 229.48613 196.22188Q229.48613 194.22188 228.5955 193.20625Q227.7205 192.19063 226.4705 192.19063Q225.23613 192.19063 224.37675 193.19063Q223.51738 194.19063 223.51738 196.15938ZM233.283 201.8L233.283 186.76875L235.12675 186.76875L235.12675 201.8L233.283 201.8ZM237.23613 205.9875L237.033 204.26875Q237.64238 204.425 238.0955 204.425Q238.70488 204.425 239.06425 204.22188Q239.43925 204.01875 239.68925 203.64375Q239.86113 203.3625 240.25175 202.26875Q240.29863 202.1125 240.408 201.81563L236.283 190.90938L238.26738 190.90938L240.533 197.22188Q240.9705 198.40938 241.32988 199.7375Q241.64238 198.47188 242.07988 197.25313L244.408 190.90938L246.25175 190.90938L242.11113 201.9875Q241.43925 203.78438 241.07988 204.45625Q240.57988 205.3625 239.93925 205.78438Q239.31425 206.22188 238.42363 206.22188Q237.89238 206.22188 237.23613 205.9875Z" fill-rule="nonzero"/><path fill="#000000" d="M168.06425 226.8L168.06425 211.76875L173.23613 211.76875Q174.98613 211.76875 175.908 211.9875Q177.20488 212.28438 178.11113 213.06563Q179.31425 214.06563 179.89238 215.62813Q180.48613 217.19063 180.48613 219.20625Q180.48613 220.90938 180.07988 222.2375Q179.68925 223.56563 179.06425 224.44063Q178.43925 225.3 177.68925 225.8Q176.95488 226.28438 175.89238 226.55Q174.8455 226.8 173.48613 226.8L168.06425 226.8ZM170.04863 225.01875L173.25175 225.01875Q174.75175 225.01875 175.5955 224.75313Q176.43925 224.47188 176.93925 223.97188Q177.64238 223.26875 178.033 222.08125Q178.43925 220.87813 178.43925 219.175Q178.43925 216.81563 177.658 215.55Q176.89238 214.28438 175.783 213.84688Q174.98613 213.53438 173.20488 213.53438L170.04863 213.53438L170.04863 225.01875ZM182.82988 213.89375L182.82988 211.76875L184.67363 211.76875L184.67363 213.89375L182.82988 213.89375ZM182.82988 226.8L182.82988 215.90938L184.67363 215.90938L184.67363 226.8L182.82988 226.8ZM187.07988 223.55L188.908 223.26875Q189.06425 224.3625 189.76738 224.95625Q190.4705 225.53438 191.73613 225.53438Q193.00175 225.53438 193.61113 225.01875Q194.23613 224.4875 194.23613 223.8Q194.23613 223.175 193.68925 222.81563Q193.31425 222.56563 191.79863 222.19063Q189.76738 221.675 188.98613 221.3Q188.20488 220.925 187.79863 220.26875Q187.39238 219.59688 187.39238 218.8Q187.39238 218.08125 187.7205 217.45625Q188.06425 216.83125 188.62675 216.425Q189.06425 216.1125 189.79863 215.89375Q190.54863 215.65938 191.408 215.65938Q192.68925 215.65938 193.658 216.03438Q194.62675 216.40938 195.07988 217.03438Q195.54863 217.65938 195.7205 218.72188L193.908 218.97188Q193.79863 218.12813 193.20488 217.65938Q192.61113 217.175 191.533 217.175Q190.26738 217.175 189.7205 217.59688Q189.17363 218.01875 189.17363 218.58125Q189.17363 218.94063 189.408 219.2375Q189.62675 219.53438 190.11113 219.72188Q190.39238 219.83125 191.73613 220.19063Q193.70488 220.72188 194.4705 221.05Q195.25175 221.37813 195.68925 222.01875Q196.12675 222.65938 196.12675 223.59688Q196.12675 224.51875 195.57988 225.34688Q195.04863 226.15938 194.033 226.6125Q193.01738 227.05 191.73613 227.05Q189.61113 227.05 188.50175 226.175Q187.39238 225.28438 187.07988 223.55ZM205.92363 225.45625Q204.908 226.33125 203.95488 226.69063Q203.00175 227.05 201.92363 227.05Q200.12675 227.05 199.158 226.175Q198.20488 225.3 198.20488 223.925Q198.20488 223.12813 198.56425 222.47188Q198.92363 221.8 199.51738 221.40938Q200.11113 221.00313 200.8455 220.8Q201.39238 220.65938 202.48613 220.51875Q204.7205 220.25313 205.783 219.89375Q205.783 219.50313 205.783 219.40938Q205.783 218.28438 205.26738 217.81563Q204.54863 217.19063 203.158 217.19063Q201.86113 217.19063 201.23613 217.64375Q200.61113 218.09688 200.31425 219.26875L198.51738 219.01875Q198.76738 217.8625 199.32988 217.15938Q199.89238 216.44063 200.95488 216.05Q202.01738 215.65938 203.42363 215.65938Q204.82988 215.65938 205.68925 215.9875Q206.56425 216.31563 206.9705 216.81563Q207.39238 217.31563 207.54863 218.08125Q207.64238 218.55 207.64238 219.76875L207.64238 222.2375Q207.64238 224.81563 207.75175 225.50313Q207.87675 226.175 208.2205 226.8L206.29863 226.8Q206.01738 226.22188 205.92363 225.45625ZM205.783 221.33125Q204.76738 221.7375 202.76738 222.03438Q201.62675 222.19063 201.14238 222.40938Q200.67363 222.6125 200.42363 223.00313Q200.17363 223.39375 200.17363 223.87813Q200.17363 224.6125 200.7205 225.1125Q201.283 225.59688 202.36113 225.59688Q203.42363 225.59688 204.25175 225.12813Q205.0955 224.65938 205.48613 223.8625Q205.783 223.2375 205.783 222.01875L205.783 221.33125ZM210.48613 227.70625L212.283 227.97188Q212.39238 228.8 212.908 229.175Q213.5955 229.69063 214.783 229.69063Q216.06425 229.69063 216.75175 229.175Q217.45488 228.65938 217.70488 227.7375Q217.8455 227.175 217.82988 225.37813Q216.62675 226.8 214.82988 226.8Q212.57988 226.8 211.3455 225.19063Q210.11113 223.56563 210.11113 221.3Q210.11113 219.7375 210.67363 218.425Q211.25175 217.09688 212.31425 216.37813Q213.39238 215.65938 214.82988 215.65938Q216.76738 215.65938 218.01738 217.22188L218.01738 215.90938L219.7205 215.90938L219.7205 225.31563Q219.7205 227.8625 219.18925 228.925Q218.67363 229.9875 217.54863 230.59688Q216.43925 231.22188 214.79863 231.22188Q212.8455 231.22188 211.64238 230.34688Q210.43925 229.47188 210.48613 227.70625ZM212.01738 221.15938Q212.01738 223.3 212.86113 224.28438Q213.7205 225.26875 215.00175 225.26875Q216.26738 225.26875 217.12675 224.3Q217.98613 223.31563 217.98613 221.22188Q217.98613 219.22188 217.0955 218.20625Q216.2205 217.19063 214.9705 217.19063Q213.73613 217.19063 212.87675 218.19063Q212.01738 219.19063 212.01738 221.15938ZM221.79863 226.8L221.79863 215.90938L223.4705 215.90938L223.4705 217.56563Q224.0955 216.40938 224.62675 216.03438Q225.17363 215.65938 225.82988 215.65938Q226.75175 215.65938 227.7205 216.25313L227.07988 217.97188Q226.408 217.56563 225.73613 217.56563Q225.12675 217.56563 224.64238 217.94063Q224.158 218.3 223.95488 218.94063Q223.64238 219.925 223.64238 221.09688L223.64238 226.8L221.79863 226.8ZM236.283 223.3L238.18925 223.53438Q237.73613 225.20625 236.51738 226.12813Q235.29863 227.05 233.39238 227.05Q231.00175 227.05 229.5955 225.58125Q228.20488 224.09688 228.20488 221.44063Q228.20488 218.70625 229.61113 217.19063Q231.033 215.65938 233.29863 215.65938Q235.48613 215.65938 236.86113 217.15938Q238.25175 218.64375 238.25175 221.33125Q238.25175 221.50313 238.23613 221.83125L230.11113 221.83125Q230.2205 223.62813 231.12675 224.58125Q232.04863 225.53438 233.408 225.53438Q234.42363 225.53438 235.14238 225.00313Q235.86113 224.45625 236.283 223.3ZM230.2205 220.31563L236.29863 220.31563Q236.17363 218.94063 235.5955 218.25313Q234.7205 217.175 233.31425 217.175Q232.04863 217.175 231.17363 218.03438Q230.31425 218.87813 230.2205 220.31563ZM248.283 223.3L250.18925 223.53438Q249.73613 225.20625 248.51738 226.12813Q247.29863 227.05 245.39238 227.05Q243.00175 227.05 241.5955 225.58125Q240.20488 224.09688 240.20488 221.44063Q240.20488 218.70625 241.61113 217.19063Q243.033 215.65938 245.29863 215.65938Q247.48613 215.65938 248.86113 217.15938Q250.25175 218.64375 250.25175 221.33125Q250.25175 221.50313 250.23613 221.83125L242.11113 221.83125Q242.2205 223.62813 243.12675 224.58125Q244.04863 225.53438 245.408 225.53438Q246.42363 225.53438 247.14238 225.00313Q247.86113 224.45625 248.283 223.3ZM242.2205 220.31563L248.29863 220.31563Q248.17363 218.94063 247.5955 218.25313Q246.7205 217.175 245.31425 217.175Q244.04863 217.175 243.17363 218.03438Q242.31425 218.87813 242.2205 220.31563Z" fill-rule="nonzero"/></svg>