<svg version="1.1" viewBox="0.0 0.0 692.0 286.0" fill="none" stroke="none" stroke-linecap="square" stroke-miterlimit="10" width="692" height="286" xmlns:xlink="http://www.w3.org/1999/xlink" xmlns="http://www.w3.org/2000/svg"><path fill="#ffffff" d="M0 0L692.0 0L692.0 286.0L0 286.0L0 0Z" fill-rule="nonzero"/><path stroke="#333333" stroke-width="1.0" stroke-linecap="butt" d="M144.5 191.5L677.5 191.5" fill-rule="nonzero"/><path fill="#eeeeee" d="M122.5 213.5L144.5 192.5L677.5 192.5L655.5 213.5Z" fill-rule="nonzero"/><path stroke="#cccccc" stroke-width="1.0" stroke-linecap="butt" d="M144.5 136.5L677.5 136.5" fill-rule="nonzero"/><path stroke="#cccccc" stroke-width="1.0" stroke-linecap="butt" d="M144.5 81.5L677.5 81.5" fill-rule="nonzero"/><path stroke="#cccccc" stroke-width="1.0" stroke-linecap="butt" d="M144.5 26.5L677.5 26.5" fill-rule="nonzero"/><clipPath id="id_0"><path d="M122.3 26.3L677.7 26.3L677.7 213.7L122.3 213.7L122.3 26.3Z" clip-rule="nonzero"/></clipPath><path fill="#850000" clip-path="url(#id_0)" d="M235.0 188.0L235.0 192.0L218.0 209.0L218.0 205.0Z" fill-rule="nonzero"/><path fill="#d63333" clip-path="url(#id_0)" d="M218.0 205.0L151.0 205.0L168.0 188.0L235.0 188.0Z" fill-rule="nonzero"/><path stroke="#000000" stroke-width="2.0" stroke-linecap="butt" stroke-opacity="0.0" clip-path="url(#id_0)" d="M218.0 209.0L151.0 209.0L151.0 205.0L218.0 205.0Z" fill-rule="nonzero"/><path fill="#cc0000" clip-path="url(#id_0)" d="M218.0 209.0L151.0 209.0L151.0 205.0L218.0 205.0Z" fill-rule="nonzero"/><path fill="#965e24" clip-path="url(#id_0)" d="M339.0 181.0L339.0 192.0L322.0 209.0L322.0 198.0Z" fill-rule="nonzero"/><path fill="#eba760" clip-path="url(#id_0)" d="M322.0 198.0L255.0 198.0L272.0 181.0L339.0 181.0Z" fill-rule="nonzero"/><path stroke="#000000" stroke-width="2.0" stroke-linecap="butt" stroke-opacity="0.0" clip-path="url(#id_0)" d="M322.0 209.0L255.0 209.0L255.0 198.0L322.0 198.0Z" fill-rule="nonzero"/><path fill="#e69138" clip-path="url(#id_0)" d="M322.0 209.0L255.0 209.0L255.0 198.0L322.0 198.0Z" fill-rule="nonzero"/><path fill="#636363" clip-path="url(#id_0)" d="M443.0 144.0L443.0 192.0L426.0 209.0L426.0 161.0Z" fill-rule="nonzero"/><path fill="#adadad" clip-path="url(#id_0)" d="M426.0 161.0L359.0 161.0L376.0 144.0L443.0 144.0Z" fill-rule="nonzero"/><path stroke="#000000" stroke-width="2.0" stroke-linecap="butt" stroke-opacity="0.0" clip-path="url(#id_0)" d="M426.0 209.0L359.0 209.0L359.0 161.0L426.0 161.0Z" fill-rule="nonzero"/><path fill="#999999" clip-path="url(#id_0)" d="M426.0 209.0L359.0 209.0L359.0 161.0L426.0 161.0Z" fill-rule="nonzero"/><path fill="#274e8c" clip-path="url(#id_0)" d="M546.0 33.0L546.0 192.0L529.0 209.0L529.0 50.0Z" fill-rule="nonzero"/><path fill="#6393e0" clip-path="url(#id_0)" d="M529.0 50.0L462.0 50.0L479.0 33.0L546.0 33.0Z" fill-rule="nonzero"/><path stroke="#000000" stroke-width="2.0" stroke-linecap="butt" stroke-opacity="0.0" clip-path="url(#id_0)" d="M529.0 209.0L462.0 209.0L462.0 50.0L529.0 50.0Z" fill-rule="nonzero"/><path fill="#3c78d8" clip-path="url(#id_0)" d="M529.0 209.0L462.0 209.0L462.0 50.0L529.0 50.0Z" fill-rule="nonzero"/><path fill="#456d33" clip-path="url(#id_0)" d="M650.0 77.0L650.0 192.0L633.0 209.0L633.0 94.0Z" fill-rule="nonzero"/><path fill="#88b972" clip-path="url(#id_0)" d="M633.0 94.0L566.0 94.0L583.0 77.0L650.0 77.0Z" fill-rule="nonzero"/><path stroke="#000000" stroke-width="2.0" stroke-linecap="butt" stroke-opacity="0.0" clip-path="url(#id_0)" d="M633.0 209.0L566.0 209.0L566.0 94.0L633.0 94.0Z" fill-rule="nonzero"/><path fill="#6aa84f" clip-path="url(#id_0)" d="M633.0 209.0L566.0 209.0L566.0 94.0L633.0 94.0Z" fill-rule="nonzero"/><path stroke="#ffffff" stroke-width="3.0" stroke-linejoin="round" stroke-linecap="round" d="M181.625 174.00137L181.625 175.23575L181.35938 175.23575Q179.67188 175.267 178.67188 176.23575Q177.67188 177.2045 177.51562 178.9545Q178.40625 177.92325 179.96875 177.92325Q181.45312 177.92325 182.32812 178.97012Q183.21875 180.017 183.21875 181.67325Q183.21875 183.43887 182.26562 184.50137Q181.3125 185.54825 179.70312 185.54825Q178.0625 185.54825 177.04688 184.29825Q176.03125 183.03262 176.03125 181.06387L176.03125 180.50137Q176.03125 177.36075 177.375 175.7045Q178.71875 174.04825 181.35938 174.00137L181.625 174.00137ZM179.71875 179.12637Q178.98438 179.12637 178.35938 179.5795Q177.73438 180.017 177.48438 180.68887L177.48438 181.22012Q177.48438 182.62637 178.10938 183.48575Q178.75 184.34512 179.70312 184.34512Q180.67188 184.34512 181.23438 183.62637Q181.79688 182.90762 181.79688 181.75137Q181.79688 180.5795 181.21875 179.86075Q180.65625 179.12637 179.71875 179.12637ZM192.07812 180.53262Q192.07812 183.0795 191.20312 184.31387Q190.34375 185.54825 188.5 185.54825Q186.6875 185.54825 185.8125 184.34512Q184.9375 183.12637 184.90625 180.73575L184.90625 178.79825Q184.90625 176.29825 185.76562 175.0795Q186.64062 173.86075 188.48438 173.86075Q190.32812 173.86075 191.1875 175.03262Q192.0625 176.2045 192.07812 178.65762L192.07812 180.53262ZM190.64062 178.56387Q190.64062 176.72012 190.125 175.892Q189.60938 175.04825 188.48438 175.04825Q187.375 175.04825 186.85938 175.892Q186.35938 176.72012 186.34375 178.4545L186.34375 180.767Q186.34375 182.61075 186.875 183.48575Q187.42188 184.36075 188.5 184.36075Q189.57812 184.36075 190.09375 183.53262Q190.60938 182.7045 190.64062 180.92325L190.64062 178.56387Z" fill-rule="nonzero"/><path fill="#000000" d="M181.625 174.00137L181.625 175.23575L181.35938 175.23575Q179.67188 175.267 178.67188 176.23575Q177.67188 177.2045 177.51562 178.9545Q178.40625 177.92325 179.96875 177.92325Q181.45312 177.92325 182.32812 178.97012Q183.21875 180.017 183.21875 181.67325Q183.21875 183.43887 182.26562 184.50137Q181.3125 185.54825 179.70312 185.54825Q178.0625 185.54825 177.04688 184.29825Q176.03125 183.03262 176.03125 181.06387L176.03125 180.50137Q176.03125 177.36075 177.375 175.7045Q178.71875 174.04825 181.35938 174.00137L181.625 174.00137ZM179.71875 179.12637Q178.98438 179.12637 178.35938 179.5795Q177.73438 180.017 177.48438 180.68887L177.48438 181.22012Q177.48438 182.62637 178.10938 183.48575Q178.75 184.34512 179.70312 184.34512Q180.67188 184.34512 181.23438 183.62637Q181.79688 182.90762 181.79688 181.75137Q181.79688 180.5795 181.21875 179.86075Q180.65625 179.12637 179.71875 179.12637ZM192.07812 180.53262Q192.07812 183.0795 191.20312 184.31387Q190.34375 185.54825 188.5 185.54825Q186.6875 185.54825 185.8125 184.34512Q184.9375 183.12637 184.90625 180.73575L184.90625 178.79825Q184.90625 176.29825 185.76562 175.0795Q186.64062 173.86075 188.48438 173.86075Q190.32812 173.86075 191.1875 175.03262Q192.0625 176.2045 192.07812 178.65762L192.07812 180.53262ZM190.64062 178.56387Q190.64062 176.72012 190.125 175.892Q189.60938 175.04825 188.48438 175.04825Q187.375 175.04825 186.85938 175.892Q186.35938 176.72012 186.34375 178.4545L186.34375 180.767Q186.34375 182.61075 186.875 183.48575Q187.42188 184.36075 188.5 184.36075Q189.57812 184.36075 190.09375 183.53262Q190.60938 182.7045 190.64062 180.92325L190.64062 178.56387Z" fill-rule="nonzero"/><path stroke="#ffffff" stroke-width="3.0" stroke-linejoin="round" stroke-linecap="round" d="M280.20312 177.89386L278.75 177.89386L278.75 168.25323L275.82812 169.33136L275.82812 168.01886L279.96875 166.45636L280.20312 166.45636L280.20312 177.89386ZM289.98438 172.89386Q289.53125 173.42511 288.90625 173.75323Q288.28125 174.08136 287.53125 174.08136Q286.54688 174.08136 285.8125 173.59698Q285.07812 173.11261 284.67188 172.23761Q284.28125 171.36261 284.28125 170.30011Q284.28125 169.15948 284.71875 168.25323Q285.15625 167.33136 285.95312 166.84698Q286.75 166.36261 287.8125 166.36261Q289.5 166.36261 290.46875 167.62823Q291.4375 168.87823 291.4375 171.06573L291.4375 171.48761Q291.4375 174.80011 290.125 176.33136Q288.8125 177.86261 286.17188 177.90948L285.89062 177.90948L285.89062 176.67511L286.1875 176.67511Q287.98438 176.64386 288.9375 175.75323Q289.90625 174.84698 289.98438 172.89386ZM287.76562 172.89386Q288.48438 172.89386 289.09375 172.45636Q289.71875 172.00323 290.0 171.34698L290.0 170.76886Q290.0 169.34698 289.375 168.45636Q288.76562 167.56573 287.8125 167.56573Q286.85938 167.56573 286.28125 168.30011Q285.70312 169.01886 285.70312 170.22198Q285.70312 171.37823 286.26562 172.14386Q286.82812 172.89386 287.76562 172.89386ZM299.125 166.50323L299.125 167.73761L298.85938 167.73761Q297.17188 167.76886 296.17188 168.73761Q295.17188 169.70636 295.01562 171.45636Q295.90625 170.42511 297.46875 170.42511Q298.95312 170.42511 299.82812 171.47198Q300.71875 172.51886 300.71875 174.17511Q300.71875 175.94073 299.76562 177.00323Q298.8125 178.05011 297.20312 178.05011Q295.5625 178.05011 294.54688 176.80011Q293.53125 175.53448 293.53125 173.56573L293.53125 173.00323Q293.53125 169.86261 294.875 168.20636Q296.21875 166.55011 298.85938 166.50323L299.125 166.50323ZM297.21875 171.62823Q296.48438 171.62823 295.85938 172.08136Q295.23438 172.51886 294.98438 173.19073L294.98438 173.72198Q294.98438 175.12823 295.60938 175.98761Q296.25 176.84698 297.20312 176.84698Q298.17188 176.84698 298.73438 176.12823Q299.29688 175.40948 299.29688 174.25323Q299.29688 173.08136 298.71875 172.36261Q298.15625 171.62823 297.21875 171.62823Z" fill-rule="nonzero"/><path fill="#000000" d="M280.20312 177.89386L278.75 177.89386L278.75 168.25323L275.82812 169.33136L275.82812 168.01886L279.96875 166.45636L280.20312 166.45636L280.20312 177.89386ZM289.98438 172.89386Q289.53125 173.42511 288.90625 173.75323Q288.28125 174.08136 287.53125 174.08136Q286.54688 174.08136 285.8125 173.59698Q285.07812 173.11261 284.67188 172.23761Q284.28125 171.36261 284.28125 170.30011Q284.28125 169.15948 284.71875 168.25323Q285.15625 167.33136 285.95312 166.84698Q286.75 166.36261 287.8125 166.36261Q289.5 166.36261 290.46875 167.62823Q291.4375 168.87823 291.4375 171.06573L291.4375 171.48761Q291.4375 174.80011 290.125 176.33136Q288.8125 177.86261 286.17188 177.90948L285.89062 177.90948L285.89062 176.67511L286.1875 176.67511Q287.98438 176.64386 288.9375 175.75323Q289.90625 174.84698 289.98438 172.89386ZM287.76562 172.89386Q288.48438 172.89386 289.09375 172.45636Q289.71875 172.00323 290.0 171.34698L290.0 170.76886Q290.0 169.34698 289.375 168.45636Q288.76562 167.56573 287.8125 167.56573Q286.85938 167.56573 286.28125 168.30011Q285.70312 169.01886 285.70312 170.22198Q285.70312 171.37823 286.26562 172.14386Q286.82812 172.89386 287.76562 172.89386ZM299.125 166.50323L299.125 167.73761L298.85938 167.73761Q297.17188 167.76886 296.17188 168.73761Q295.17188 169.70636 295.01562 171.45636Q295.90625 170.42511 297.46875 170.42511Q298.95312 170.42511 299.82812 171.47198Q300.71875 172.51886 300.71875 174.17511Q300.71875 175.94073 299.76562 177.00323Q298.8125 178.05011 297.20312 178.05011Q295.5625 178.05011 294.54688 176.80011Q293.53125 175.53448 293.53125 173.56573L293.53125 173.00323Q293.53125 169.86261 294.875 168.20636Q296.21875 166.55011 298.85938 166.50323L299.125 166.50323ZM297.21875 171.62823Q296.48438 171.62823 295.85938 172.08136Q295.23438 172.51886 294.98438 173.19073L294.98438 173.72198Q294.98438 175.12823 295.60938 175.98761Q296.25 176.84698 297.20312 176.84698Q298.17188 176.84698 298.73438 176.12823Q299.29688 175.40948 299.29688 174.25323Q299.29688 173.08136 298.71875 172.36261Q298.15625 171.62823 297.21875 171.62823Z" fill-rule="nonzero"/><path stroke="#ffffff" stroke-width="3.0" stroke-linejoin="round" stroke-linecap="round" d="M386.34375 132.27261Q386.34375 133.11636 385.89062 133.78824Q385.45312 134.44449 384.6875 134.81949Q385.57812 135.21011 386.09375 135.94449Q386.60938 136.67886 386.60938 137.60074Q386.60938 139.08511 385.60938 139.96011Q384.625 140.83511 383.0 140.83511Q381.35938 140.83511 380.35938 139.96011Q379.375 139.06949 379.375 137.60074Q379.375 136.67886 379.875 135.94449Q380.39062 135.19449 381.28125 134.81949Q380.51562 134.44449 380.07812 133.78824Q379.64062 133.11636 379.64062 132.27261Q379.64062 130.83511 380.5625 129.99136Q381.48438 129.14761 383.0 129.14761Q384.5 129.14761 385.42188 129.99136Q386.34375 130.83511 386.34375 132.27261ZM385.17188 137.56949Q385.17188 136.61636 384.5625 136.02261Q383.95312 135.41324 382.96875 135.41324Q382.0 135.41324 381.40625 136.00699Q380.82812 136.60074 380.82812 137.56949Q380.82812 138.53824 381.39062 139.10074Q381.96875 139.64761 383.0 139.64761Q384.01562 139.64761 384.59375 139.10074Q385.17188 138.53824 385.17188 137.56949ZM383.0 130.33511Q382.14062 130.33511 381.60938 130.86636Q381.09375 131.38199 381.09375 132.28824Q381.09375 133.16324 381.60938 133.69449Q382.125 134.22574 382.98438 134.22574Q383.85938 134.22574 384.375 133.69449Q384.90625 133.16324 384.90625 132.30386Q384.90625 131.42886 384.35938 130.88199Q383.82812 130.33511 383.0 130.33511ZM395.79688 130.11636L391.07812 140.67886L389.5625 140.67886L394.26562 130.49136L388.10938 130.49136L388.10938 129.30386L395.79688 129.30386L395.79688 130.11636ZM402.20312 140.67886L400.75 140.67886L400.75 131.03824L397.82812 132.11636L397.82812 130.80386L401.96875 129.24136L402.20312 129.24136L402.20312 140.67886Z" fill-rule="nonzero"/><path fill="#000000" d="M386.34375 132.27261Q386.34375 133.11636 385.89062 133.78824Q385.45312 134.44449 384.6875 134.81949Q385.57812 135.21011 386.09375 135.94449Q386.60938 136.67886 386.60938 137.60074Q386.60938 139.08511 385.60938 139.96011Q384.625 140.83511 383.0 140.83511Q381.35938 140.83511 380.35938 139.96011Q379.375 139.06949 379.375 137.60074Q379.375 136.67886 379.875 135.94449Q380.39062 135.19449 381.28125 134.81949Q380.51562 134.44449 380.07812 133.78824Q379.64062 133.11636 379.64062 132.27261Q379.64062 130.83511 380.5625 129.99136Q381.48438 129.14761 383.0 129.14761Q384.5 129.14761 385.42188 129.99136Q386.34375 130.83511 386.34375 132.27261ZM385.17188 137.56949Q385.17188 136.61636 384.5625 136.02261Q383.95312 135.41324 382.96875 135.41324Q382.0 135.41324 381.40625 136.00699Q380.82812 136.60074 380.82812 137.56949Q380.82812 138.53824 381.39062 139.10074Q381.96875 139.64761 383.0 139.64761Q384.01562 139.64761 384.59375 139.10074Q385.17188 138.53824 385.17188 137.56949ZM383.0 130.33511Q382.14062 130.33511 381.60938 130.86636Q381.09375 131.38199 381.09375 132.28824Q381.09375 133.16324 381.60938 133.69449Q382.125 134.22574 382.98438 134.22574Q383.85938 134.22574 384.375 133.69449Q384.90625 133.16324 384.90625 132.30386Q384.90625 131.42886 384.35938 130.88199Q383.82812 130.33511 383.0 130.33511ZM395.79688 130.11636L391.07812 140.67886L389.5625 140.67886L394.26562 130.49136L388.10938 130.49136L388.10938 129.30386L395.79688 129.30386L395.79688 130.11636ZM402.20312 140.67886L400.75 140.67886L400.75 131.03824L397.82812 132.11636L397.82812 130.80386L401.96875 129.24136L402.20312 129.24136L402.20312 140.67886Z" fill-rule="nonzero"/><path stroke="#ffffff" stroke-width="3.0" stroke-linejoin="round" stroke-linecap="round" d="M485.40625 29.695467L477.95312 29.695467L477.95312 28.648592L481.89062 24.273592Q482.76562 23.289217 483.09375 22.664217Q483.42188 22.039217 483.42188 21.382967Q483.42188 20.492342 482.875 19.929842Q482.34375 19.351717 481.45312 19.351717Q480.375 19.351717 479.76562 19.961092Q479.17188 20.570467 479.17188 21.664217L477.73438 21.664217Q477.73438 20.101717 478.73438 19.132967Q479.75 18.164217 481.45312 18.164217Q483.03125 18.164217 483.95312 18.992342Q484.875 19.820467 484.875 21.211092Q484.875 22.882967 482.73438 25.211092L479.6875 28.507967L485.40625 28.507967L485.40625 29.695467ZM493.84375 21.289217Q493.84375 22.132967 493.39062 22.804842Q492.95312 23.461092 492.1875 23.836092Q493.07812 24.226717 493.59375 24.961092Q494.10938 25.695467 494.10938 26.617342Q494.10938 28.101717 493.10938 28.976717Q492.125 29.851717 490.5 29.851717Q488.85938 29.851717 487.85938 28.976717Q486.875 28.086092 486.875 26.617342Q486.875 25.695467 487.375 24.961092Q487.89062 24.211092 488.78125 23.836092Q488.01562 23.461092 487.57812 22.804842Q487.14062 22.132967 487.14062 21.289217Q487.14062 19.851717 488.0625 19.007967Q488.98438 18.164217 490.5 18.164217Q492.0 18.164217 492.92188 19.007967Q493.84375 19.851717 493.84375 21.289217ZM492.67188 26.586092Q492.67188 25.632967 492.0625 25.039217Q491.45312 24.429842 490.46875 24.429842Q489.5 24.429842 488.90625 25.023592Q488.32812 25.617342 488.32812 26.586092Q488.32812 27.554842 488.89062 28.117342Q489.46875 28.664217 490.5 28.664217Q491.51562 28.664217 492.09375 28.117342Q492.67188 27.554842 492.67188 26.586092ZM490.5 19.351717Q489.64062 19.351717 489.10938 19.882967Q488.59375 20.398592 488.59375 21.304842Q488.59375 22.179842 489.10938 22.711092Q489.625 23.242342 490.48438 23.242342Q491.35938 23.242342 491.875 22.711092Q492.40625 22.179842 492.40625 21.320467Q492.40625 20.445467 491.85938 19.898592Q491.32812 19.351717 490.5 19.351717ZM502.84375 21.289217Q502.84375 22.132967 502.39062 22.804842Q501.95312 23.461092 501.1875 23.836092Q502.07812 24.226717 502.59375 24.961092Q503.10938 25.695467 503.10938 26.617342Q503.10938 28.101717 502.10938 28.976717Q501.125 29.851717 499.5 29.851717Q497.85938 29.851717 496.85938 28.976717Q495.875 28.086092 495.875 26.617342Q495.875 25.695467 496.375 24.961092Q496.89062 24.211092 497.78125 23.836092Q497.01562 23.461092 496.57812 22.804842Q496.14062 22.132967 496.14062 21.289217Q496.14062 19.851717 497.0625 19.007967Q497.98438 18.164217 499.5 18.164217Q501.0 18.164217 501.92188 19.007967Q502.84375 19.851717 502.84375 21.289217ZM501.67188 26.586092Q501.67188 25.632967 501.0625 25.039217Q500.45312 24.429842 499.46875 24.429842Q498.5 24.429842 497.90625 25.023592Q497.32812 25.617342 497.32812 26.586092Q497.32812 27.554842 497.89062 28.117342Q498.46875 28.664217 499.5 28.664217Q500.51562 28.664217 501.09375 28.117342Q501.67188 27.554842 501.67188 26.586092ZM499.5 19.351717Q498.64062 19.351717 498.10938 19.882967Q497.59375 20.398592 497.59375 21.304842Q497.59375 22.179842 498.10938 22.711092Q498.625 23.242342 499.48438 23.242342Q500.35938 23.242342 500.875 22.711092Q501.40625 22.179842 501.40625 21.320467Q501.40625 20.445467 500.85938 19.898592Q500.32812 19.351717 499.5 19.351717ZM511.04688 25.867342L512.625 25.867342L512.625 27.054842L511.04688 27.054842L511.04688 29.695467L509.59375 29.695467L509.59375 27.054842L504.42188 27.054842L504.42188 26.195467L509.51562 18.320467L511.04688 18.320467L511.04688 25.867342ZM506.0625 25.867342L509.59375 25.867342L509.59375 20.289217L509.42188 20.601717L506.0625 25.867342Z" fill-rule="nonzero"/><path fill="#000000" d="M485.40625 29.695467L477.95312 29.695467L477.95312 28.648592L481.89062 24.273592Q482.76562 23.289217 483.09375 22.664217Q483.42188 22.039217 483.42188 21.382967Q483.42188 20.492342 482.875 19.929842Q482.34375 19.351717 481.45312 19.351717Q480.375 19.351717 479.76562 19.961092Q479.17188 20.570467 479.17188 21.664217L477.73438 21.664217Q477.73438 20.101717 478.73438 19.132967Q479.75 18.164217 481.45312 18.164217Q483.03125 18.164217 483.95312 18.992342Q484.875 19.820467 484.875 21.211092Q484.875 22.882967 482.73438 25.211092L479.6875 28.507967L485.40625 28.507967L485.40625 29.695467ZM493.84375 21.289217Q493.84375 22.132967 493.39062 22.804842Q492.95312 23.461092 492.1875 23.836092Q493.07812 24.226717 493.59375 24.961092Q494.10938 25.695467 494.10938 26.617342Q494.10938 28.101717 493.10938 28.976717Q492.125 29.851717 490.5 29.851717Q488.85938 29.851717 487.85938 28.976717Q486.875 28.086092 486.875 26.617342Q486.875 25.695467 487.375 24.961092Q487.89062 24.211092 488.78125 23.836092Q488.01562 23.461092 487.57812 22.804842Q487.14062 22.132967 487.14062 21.289217Q487.14062 19.851717 488.0625 19.007967Q488.98438 18.164217 490.5 18.164217Q492.0 18.164217 492.92188 19.007967Q493.84375 19.851717 493.84375 21.289217ZM492.67188 26.586092Q492.67188 25.632967 492.0625 25.039217Q491.45312 24.429842 490.46875 24.429842Q489.5 24.429842 488.90625 25.023592Q488.32812 25.617342 488.32812 26.586092Q488.32812 27.554842 488.89062 28.117342Q489.46875 28.664217 490.5 28.664217Q491.51562 28.664217 492.09375 28.117342Q492.67188 27.554842 492.67188 26.586092ZM490.5 19.351717Q489.64062 19.351717 489.10938 19.882967Q488.59375 20.398592 488.59375 21.304842Q488.59375 22.179842 489.10938 22.711092Q489.625 23.242342 490.48438 23.242342Q491.35938 23.242342 491.875 22.711092Q492.40625 22.179842 492.40625 21.320467Q492.40625 20.445467 491.85938 19.898592Q491.32812 19.351717 490.5 19.351717ZM502.84375 21.289217Q502.84375 22.132967 502.39062 22.804842Q501.95312 23.461092 501.1875 23.836092Q502.07812 24.226717 502.59375 24.961092Q503.10938 25.695467 503.10938 26.617342Q503.10938 28.101717 502.10938 28.976717Q501.125 29.851717 499.5 29.851717Q497.85938 29.851717 496.85938 28.976717Q495.875 28.086092 495.875 26.617342Q495.875 25.695467 496.375 24.961092Q496.89062 24.211092 497.78125 23.836092Q497.01562 23.461092 496.57812 22.804842Q496.14062 22.132967 496.14062 21.289217Q496.14062 19.851717 497.0625 19.007967Q497.98438 18.164217 499.5 18.164217Q501.0 18.164217 501.92188 19.007967Q502.84375 19.851717 502.84375 21.289217ZM501.67188 26.586092Q501.67188 25.632967 501.0625 25.039217Q500.45312 24.429842 499.46875 24.429842Q498.5 24.429842 497.90625 25.023592Q497.32812 25.617342 497.32812 26.586092Q497.32812 27.554842 497.89062 28.117342Q498.46875 28.664217 499.5 28.664217Q500.51562 28.664217 501.09375 28.117342Q501.67188 27.554842 501.67188 26.586092ZM499.5 19.351717Q498.64062 19.351717 498.10938 19.882967Q497.59375 20.398592 497.59375 21.304842Q497.59375 22.179842 498.10938 22.711092Q498.625 23.242342 499.48438 23.242342Q500.35938 23.242342 500.875 22.711092Q501.40625 22.179842 501.40625 21.320467Q501.40625 20.445467 500.85938 19.898592Q500.32812 19.351717 499.5 19.351717ZM511.04688 25.867342L512.625 25.867342L512.625 27.054842L511.04688 27.054842L511.04688 29.695467L509.59375 29.695467L509.59375 27.054842L504.42188 27.054842L504.42188 26.195467L509.51562 18.320467L511.04688 18.320467L511.04688 25.867342ZM506.0625 25.867342L509.59375 25.867342L509.59375 20.289217L509.42188 20.601717L506.0625 25.867342Z" fill-rule="nonzero"/><path stroke="#ffffff" stroke-width="3.0" stroke-linejoin="round" stroke-linecap="round" d="M589.40625 74.0778L581.9531 74.0778L581.9531 73.03092L585.8906 68.65592Q586.7656 67.67155 587.09375 67.04655Q587.4219 66.42155 587.4219 65.7653Q587.4219 64.87467 586.875 64.31217Q586.34375 63.73405 585.4531 63.73405Q584.375 63.73405 583.7656 64.34342Q583.1719 64.9528 583.1719 66.04655L581.7344 66.04655Q581.7344 64.48405 582.7344 63.5153Q583.75 62.54655 585.4531 62.54655Q587.03125 62.54655 587.9531 63.374676Q588.875 64.2028 588.875 65.59342Q588.875 67.2653 586.7344 69.59342L583.6875 72.8903L589.40625 72.8903L589.40625 74.0778ZM598.0781 69.21842Q598.0781 71.7653 597.2031 72.99967Q596.34375 74.23405 594.5 74.23405Q592.6875 74.23405 591.8125 73.03092Q590.9375 71.81217 590.90625 69.42155L590.90625 67.48405Q590.90625 64.98405 591.7656 63.7653Q592.6406 62.54655 594.4844 62.54655Q596.3281 62.54655 597.1875 63.718426Q598.0625 64.8903 598.0781 67.34342L598.0781 69.21842ZM596.6406 67.24967Q596.6406 65.40592 596.125 64.5778Q595.6094 63.73405 594.4844 63.73405Q593.375 63.73405 592.8594 64.5778Q592.3594 65.40592 592.34375 67.1403L592.34375 69.4528Q592.34375 71.29655 592.875 72.17155Q593.4219 73.04655 594.5 73.04655Q595.5781 73.04655 596.09375 72.21842Q596.6094 71.3903 596.6406 69.60905L596.6406 67.24967ZM607.2969 63.5153L602.5781 74.0778L601.0625 74.0778L605.7656 63.8903L599.6094 63.8903L599.6094 62.7028L607.2969 62.7028L607.2969 63.5153ZM614.4844 69.0778Q614.03125 69.60905 613.40625 69.93717Q612.78125 70.2653 612.03125 70.2653Q611.0469 70.2653 610.3125 69.78092Q609.5781 69.29655 609.1719 68.42155Q608.78125 67.54655 608.78125 66.48405Q608.78125 65.34342 609.21875 64.43717Q609.65625 63.5153 610.4531 63.030926Q611.25 62.54655 612.3125 62.54655Q614.0 62.54655 614.96875 63.812176Q615.9375 65.06217 615.9375 67.24967L615.9375 67.67155Q615.9375 70.98405 614.625 72.5153Q613.3125 74.04655 610.6719 74.09342L610.3906 74.09342L610.3906 72.85905L610.6875 72.85905Q612.4844 72.8278 613.4375 71.93717Q614.40625 71.03092 614.4844 69.0778ZM612.2656 69.0778Q612.9844 69.0778 613.59375 68.6403Q614.21875 68.18717 614.5 67.53092L614.5 66.9528Q614.5 65.53092 613.875 64.6403Q613.2656 63.749676 612.3125 63.749676Q611.3594 63.749676 610.78125 64.48405Q610.2031 65.2028 610.2031 66.40592Q610.2031 67.56217 610.7656 68.3278Q611.3281 69.0778 612.2656 69.0778Z" fill-rule="nonzero"/><path fill="#000000" d="M589.40625 74.0778L581.9531 74.0778L581.9531 73.03092L585.8906 68.65592Q586.7656 67.67155 587.09375 67.04655Q587.4219 66.42155 587.4219 65.7653Q587.4219 64.87467 586.875 64.31217Q586.34375 63.734047 585.4531 63.734047Q584.375 63.734047 583.7656 64.34342Q583.1719 64.9528 583.1719 66.04655L581.7344 66.04655Q581.7344 64.48405 582.7344 63.515297Q583.75 62.546547 585.4531 62.546547Q587.03125 62.546547 587.9531 63.374672Q588.875 64.2028 588.875 65.59342Q588.875 67.2653 586.7344 69.59342L583.6875 72.8903L589.40625 72.8903L589.40625 74.0778ZM598.0781 69.21842Q598.0781 71.7653 597.2031 72.99967Q596.34375 74.23405 594.5 74.23405Q592.6875 74.23405 591.8125 73.03092Q590.9375 71.81217 590.90625 69.42155L590.90625 67.48405Q590.90625 64.98405 591.7656 63.765297Q592.6406 62.546547 594.4844 62.546547Q596.3281 62.546547 597.1875 63.718422Q598.0625 64.8903 598.0781 67.34342L598.0781 69.21842ZM596.6406 67.24967Q596.6406 65.40592 596.125 64.5778Q595.6094 63.734047 594.4844 63.734047Q593.375 63.734047 592.8594 64.5778Q592.3594 65.40592 592.34375 67.1403L592.34375 69.4528Q592.34375 71.29655 592.875 72.17155Q593.4219 73.04655 594.5 73.04655Q595.5781 73.04655 596.09375 72.21842Q596.6094 71.3903 596.6406 69.60905L596.6406 67.24967ZM607.2969 63.515297L602.5781 74.0778L601.0625 74.0778L605.7656 63.890297L599.6094 63.890297L599.6094 62.702797L607.2969 62.702797L607.2969 63.515297ZM614.4844 69.0778Q614.03125 69.60905 613.40625 69.93717Q612.78125 70.2653 612.03125 70.2653Q611.0469 70.2653 610.3125 69.78092Q609.5781 69.29655 609.1719 68.42155Q608.78125 67.54655 608.78125 66.48405Q608.78125 65.34342 609.21875 64.43717Q609.65625 63.515297 610.4531 63.030922Q611.25 62.546547 612.3125 62.546547Q614.0 62.546547 614.96875 63.812172Q615.9375 65.06217 615.9375 67.24967L615.9375 67.67155Q615.9375 70.98405 614.625 72.5153Q613.3125 74.04655 610.6719 74.09342L610.3906 74.09342L610.3906 72.85905L610.6875 72.85905Q612.4844 72.8278 613.4375 71.93717Q614.40625 71.03092 614.4844 69.0778ZM612.2656 69.0778Q612.9844 69.0778 613.59375 68.6403Q614.21875 68.18717 614.5 67.53092L614.5 66.9528Q614.5 65.53092 613.875 64.6403Q613.2656 63.749672 612.3125 63.749672Q611.3594 63.749672 610.78125 64.48405Q610.2031 65.2028 610.2031 66.40592Q610.2031 67.56217 610.7656 68.3278Q611.3281 69.0778 612.2656 69.0778Z" fill-rule="nonzero"/><path fill="#000000" d="M27.550013 184.64062L27.550013 187.96875L33.30001 187.96875L33.30001 189.85938L19.081263 189.85938L19.081263 185.15625Q19.081263 182.75 20.175013 181.45312Q21.268763 180.15625 23.362513 180.15625Q24.690638 180.15625 25.675013 180.875Q26.659388 181.59375 27.143763 182.875L33.17501 179.53125L33.30001 179.53125L33.30001 181.54688L27.550013 184.64062ZM26.018763 187.96875L26.018763 185.09375Q26.018763 183.70312 25.300013 182.875Q24.565638 182.04688 23.362513 182.04688Q22.034388 182.04688 21.331263 182.84375Q20.628138 183.625 20.628138 185.10938L20.628138 187.96875L26.018763 187.96875ZM33.503136 173.75Q33.503136 175.89062 32.096886 177.25Q30.675013 178.59375 28.315638 178.59375L27.971888 178.59375Q26.409388 178.59375 25.175013 178.0Q23.940638 177.39062 23.237513 176.3125Q22.534388 175.23438 22.534388 173.96875Q22.534388 171.90625 23.893763 170.76562Q25.253138 169.625 27.784388 169.625L28.534388 169.625L28.534388 176.78125Q30.096888 176.75 31.065638 175.875Q32.01876 175.0 32.01876 173.65625Q32.01876 172.6875 31.628138 172.03125Q31.237513 171.35938 30.596888 170.85938L31.456263 169.76562Q33.503136 171.09375 33.503136 173.75ZM24.018763 173.96875Q24.018763 175.0625 24.815638 175.8125Q25.612513 176.54688 27.050013 176.71875L27.050013 171.4375L26.909388 171.4375Q25.534388 171.51562 24.784388 172.1875Q24.018763 172.84375 24.018763 173.96875ZM30.503138 160.98438Q29.768763 160.98438 29.362513 161.53125Q28.956263 162.07812 28.659388 163.45312Q28.362513 164.82812 27.956263 165.64062Q27.550013 166.4375 26.987513 166.82812Q26.409388 167.20312 25.628138 167.20312Q24.331263 167.20312 23.440638 166.10938Q22.534388 165.01562 22.534388 163.29688Q22.534388 161.5 23.471888 160.39062Q24.393763 159.26562 25.831263 159.26562L25.831263 161.09375Q25.096888 161.09375 24.565638 161.71875Q24.018763 162.34375 24.018763 163.29688Q24.018763 164.29688 24.456263 164.85938Q24.878138 165.40625 25.581263 165.40625Q26.221888 165.40625 26.565638 164.89062Q26.893763 164.375 27.206263 163.01562Q27.503138 161.65625 27.925013 160.82812Q28.331263 159.98438 28.925013 159.57812Q29.518763 159.17188 30.362513 159.17188Q31.784388 159.17188 32.64376 160.3125Q33.503136 161.4375 33.503136 163.25Q33.503136 164.51562 33.05001 165.5Q32.596886 166.46875 31.800013 167.03125Q30.987513 167.57812 30.050013 167.57812L30.050013 165.76562Q30.956263 165.71875 31.487513 165.04688Q32.01876 164.35938 32.01876 163.25Q32.01876 162.21875 31.612513 161.60938Q31.190638 160.98438 30.503138 160.98438ZM28.128138 148.20312Q30.550013 148.20312 32.034386 149.3125Q33.503136 150.40625 33.503136 152.29688Q33.503136 154.21875 32.26876 155.32812L37.36251 155.32812L37.36251 157.125L22.737513 157.125L22.737513 155.48438L23.909388 155.39062Q22.534388 154.29688 22.534388 152.32812Q22.534388 150.42188 23.971888 149.3125Q25.409388 148.20312 27.971888 148.20312L28.128138 148.20312ZM27.925013 150.01562Q26.143763 150.01562 25.112513 150.78125Q24.065638 151.53125 24.065638 152.85938Q24.065638 154.5 25.518763 155.32812L30.581263 155.32812Q32.01876 154.51562 32.01876 152.84375Q32.01876 151.54688 30.987513 150.78125Q29.956263 150.01562 27.925013 150.01562ZM27.925013 146.60938Q26.362513 146.60938 25.128138 146.0Q23.878138 145.39062 23.206263 144.3125Q22.534388 143.21875 22.534388 141.8125Q22.534388 139.65625 24.034388 138.32812Q25.518763 136.98438 28.003138 136.98438L28.128138 136.98438Q29.675013 136.98438 30.909388 137.57812Q32.128136 138.17188 32.815636 139.28125Q33.503136 140.375 33.503136 141.79688Q33.503136 143.9375 32.003136 145.28125Q30.503138 146.60938 28.050013 146.60938L27.925013 146.60938ZM28.128138 144.79688Q29.893763 144.79688 30.956263 143.98438Q32.01876 143.15625 32.01876 141.79688Q32.01876 140.42188 30.940638 139.60938Q29.862513 138.79688 27.925013 138.79688Q26.175013 138.79688 25.096888 139.625Q24.018763 140.45312 24.018763 141.8125Q24.018763 143.15625 25.081263 143.98438Q26.143763 144.79688 28.128138 144.79688ZM22.737513 133.42188L24.065638 133.35938Q22.534388 132.15625 22.534388 130.20312Q22.534388 126.84375 26.315638 126.828125L33.30001 126.828125L33.30001 128.625L26.300013 128.625Q25.159388 128.64062 24.612513 129.15625Q24.065638 129.65625 24.065638 130.75Q24.065638 131.625 24.534388 132.29688Q25.003138 132.95312 25.768763 133.32812L33.30001 133.32812L33.30001 135.125L22.737513 135.125L22.737513 133.42188ZM30.503138 117.984375Q29.768763 117.984375 29.362513 118.53125Q28.956263 119.078125 28.659388 120.453125Q28.362513 121.828125 27.956263 122.640625Q27.550013 123.4375 26.987513 123.828125Q26.409388 124.203125 25.628138 124.203125Q24.331263 124.203125 23.440638 123.109375Q22.534388 122.015625 22.534388 120.296875Q22.534388 118.5 23.471888 117.390625Q24.393763 116.265625 25.831263 116.265625L25.831263 118.09375Q25.096888 118.09375 24.565638 118.71875Q24.018763 119.34375 24.018763 120.296875Q24.018763 121.296875 24.456263 121.859375Q24.878138 122.40625 25.581263 122.40625Q26.221888 122.40625 26.565638 121.890625Q26.893763 121.375 27.206263 120.015625Q27.503138 118.65625 27.925013 117.828125Q28.331263 116.984375 28.925013 116.578125Q29.518763 116.171875 30.362513 116.171875Q31.784388 116.171875 32.64376 117.3125Q33.503136 118.4375 33.503136 120.25Q33.503136 121.515625 33.05001 122.5Q32.596886 123.46875 31.800013 124.03125Q30.987513 124.578125 30.050013 124.578125L30.050013 122.765625Q30.956263 122.71875 31.487513 122.046875Q32.01876 121.359375 32.01876 120.25Q32.01876 119.21875 31.612513 118.609375Q31.190638 117.984375 30.503138 117.984375ZM33.503136 109.75Q33.503136 111.890625 32.096886 113.25Q30.675013 114.59375 28.315638 114.59375L27.971888 114.59375Q26.409388 114.59375 25.175013 114.0Q23.940638 113.390625 23.237513 112.3125Q22.534388 111.234375 22.534388 109.96875Q22.534388 107.90625 23.893763 106.765625Q25.253138 105.625 27.784388 105.625L28.534388 105.625L28.534388 112.78125Q30.096888 112.75 31.065638 111.875Q32.01876 111.0 32.01876 109.65625Q32.01876 108.6875 31.628138 108.03125Q31.237513 107.359375 30.596888 106.859375L31.456263 105.765625Q33.503136 107.09375 33.503136 109.75ZM24.018763 109.96875Q24.018763 111.0625 24.815638 111.8125Q25.612513 112.546875 27.050013 112.71875L27.050013 107.4375L26.909388 107.4375Q25.534388 107.515625 24.784388 108.1875Q24.018763 108.84375 24.018763 109.96875ZM30.503138 96.984375Q29.768763 96.984375 29.362513 97.53125Q28.956263 98.078125 28.659388 99.453125Q28.362513 100.828125 27.956263 101.640625Q27.550013 102.4375 26.987513 102.828125Q26.409388 103.203125 25.628138 103.203125Q24.331263 103.203125 23.440638 102.109375Q22.534388 101.015625 22.534388 99.296875Q22.534388 97.5 23.471888 96.390625Q24.393763 95.265625 25.831263 95.265625L25.831263 97.09375Q25.096888 97.09375 24.565638 97.71875Q24.018763 98.34375 24.018763 99.296875Q24.018763 100.296875 24.456263 100.859375Q24.878138 101.40625 25.581263 101.40625Q26.221888 101.40625 26.565638 100.890625Q26.893763 100.375 27.206263 99.015625Q27.503138 97.65625 27.925013 96.828125Q28.331263 95.984375 28.925013 95.578125Q29.518763 95.171875 30.362513 95.171875Q31.784388 95.171875 32.64376 96.3125Q33.503136 97.4375 33.503136 99.25Q33.503136 100.515625 33.05001 101.5Q32.596886 102.46875 31.800013 103.03125Q30.987513 103.578125 30.050013 103.578125L30.050013 101.765625Q30.956263 101.71875 31.487513 101.046875Q32.01876 100.359375 32.01876 99.25Q32.01876 98.21875 31.612513 97.609375Q31.190638 96.984375 30.503138 96.984375Z" fill-rule="nonzero"/><path fill="#000000" d="M111.39375 192.6375Q111.39375 195.80937 110.31563 197.35625Q109.2375 198.90312 106.925 198.90312Q104.64375 198.90312 103.55 197.3875Q102.45625 195.87187 102.425 192.87187L102.425 190.46562Q102.425 187.325 103.50313 185.80937Q104.59688 184.27812 106.90938 184.27812Q109.20625 184.27812 110.28438 185.7625Q111.3625 187.23125 111.39375 190.29375L111.39375 192.6375ZM109.59688 190.16875Q109.59688 187.87187 108.94063 186.825Q108.3 185.7625 106.90938 185.7625Q105.51875 185.7625 104.87813 186.80937Q104.25313 187.85625 104.2375 190.02812L104.2375 192.91875Q104.2375 195.21562 104.89375 196.325Q105.56563 197.41875 106.925 197.41875Q108.26875 197.41875 108.90938 196.3875Q109.56563 195.35625 109.59688 193.12187L109.59688 190.16875Z" fill-rule="nonzero"/><path fill="#000000" d="M75.425 143.56667L73.59688 143.56667L73.59688 131.51979L69.95625 132.86354L69.95625 131.22292L75.14375 129.28542L75.425 129.28542L75.425 143.56667ZM89.39375 137.50417Q89.39375 140.67604 88.31563 142.22292Q87.2375 143.76979 84.925 143.76979Q82.64375 143.76979 81.55 142.25417Q80.45625 140.73854 80.425 137.73854L80.425 135.33229Q80.425 132.19167 81.50313 130.67604Q82.59688 129.14479 84.90938 129.14479Q87.20625 129.14479 88.28438 130.62917Q89.3625 132.09792 89.39375 135.16042L89.39375 137.50417ZM87.59688 135.03542Q87.59688 132.73854 86.94063 131.69167Q86.3 130.62917 84.90938 130.62917Q83.51875 130.62917 82.87813 131.67604Q82.25313 132.72292 82.2375 134.89479L82.2375 137.78542Q82.2375 140.08229 82.89375 141.19167Q83.56563 142.28542 84.925 142.28542Q86.26875 142.28542 86.90938 141.25417Q87.56563 140.22292 87.59688 137.98854L87.59688 135.03542ZM100.39375 137.50417Q100.39375 140.67604 99.31563 142.22292Q98.2375 143.76979 95.925 143.76979Q93.64375 143.76979 92.55 142.25417Q91.45625 140.73854 91.425 137.73854L91.425 135.33229Q91.425 132.19167 92.50313 130.67604Q93.59688 129.14479 95.90938 129.14479Q98.20625 129.14479 99.28438 130.62917Q100.3625 132.09792 100.39375 135.16042L100.39375 137.50417ZM98.59688 135.03542Q98.59688 132.73854 97.94063 131.69167Q97.3 130.62917 95.90938 130.62917Q94.51875 130.62917 93.87813 131.67604Q93.25313 132.72292 93.2375 134.89479L93.2375 137.78542Q93.2375 140.08229 93.89375 141.19167Q94.56563 142.28542 95.925 142.28542Q97.26875 142.28542 97.90938 141.25417Q98.56563 140.22292 98.59688 137.98854L98.59688 135.03542ZM111.39375 137.50417Q111.39375 140.67604 110.31563 142.22292Q109.2375 143.76979 106.925 143.76979Q104.64375 143.76979 103.55 142.25417Q102.45625 140.73854 102.425 137.73854L102.425 135.33229Q102.425 132.19167 103.50313 130.67604Q104.59688 129.14479 106.90938 129.14479Q109.20625 129.14479 110.28438 130.62917Q111.3625 132.09792 111.39375 135.16042L111.39375 137.50417ZM109.59688 135.03542Q109.59688 132.73854 108.94063 131.69167Q108.3 130.62917 106.90938 130.62917Q105.51875 130.62917 104.87813 131.67604Q104.25313 132.72292 104.2375 134.89479L104.2375 137.78542Q104.2375 140.08229 104.89375 141.19167Q105.56563 142.28542 106.925 142.28542Q108.26875 142.28542 108.90938 141.25417Q109.56563 140.22292 109.59688 137.98854L109.59688 135.03542Z" fill-rule="nonzero"/><path fill="#000000" d="M78.8 88.433334L69.4875 88.433334L69.4875 87.13646L74.40938 81.66771Q75.50313 80.41771 75.90938 79.652084Q76.33125 78.870834 76.33125 78.04271Q76.33125 76.933334 75.65938 76.214584Q74.9875 75.495834 73.8625 75.495834Q72.50313 75.495834 71.75313 76.277084Q71.01875 77.04271 71.01875 78.402084L69.20625 78.402084Q69.20625 76.433334 70.47188 75.23021Q71.7375 74.01146 73.8625 74.01146Q75.84688 74.01146 76.9875 75.058334Q78.14375 76.10521 78.14375 77.82396Q78.14375 79.933334 75.47188 82.82396L71.65938 86.964584L78.8 86.964584L78.8 88.433334ZM89.39375 82.370834Q89.39375 85.54271 88.31563 87.089584Q87.2375 88.63646 84.925 88.63646Q82.64375 88.63646 81.55 87.120834Q80.45625 85.60521 80.425 82.60521L80.425 80.19896Q80.425 77.058334 81.50313 75.54271Q82.59688 74.01146 84.90938 74.01146Q87.20625 74.01146 88.28438 75.495834Q89.3625 76.964584 89.39375 80.027084L89.39375 82.370834ZM87.59688 79.902084Q87.59688 77.60521 86.94063 76.558334Q86.3 75.495834 84.90938 75.495834Q83.51875 75.495834 82.87813 76.54271Q82.25313 77.589584 82.2375 79.76146L82.2375 82.652084Q82.2375 84.94896 82.89375 86.058334Q83.56563 87.152084 84.925 87.152084Q86.26875 87.152084 86.90938 86.120834Q87.56563 85.089584 87.59688 82.85521L87.59688 79.902084ZM100.39375 82.370834Q100.39375 85.54271 99.31563 87.089584Q98.2375 88.63646 95.925 88.63646Q93.64375 88.63646 92.55 87.120834Q91.45625 85.60521 91.425 82.60521L91.425 80.19896Q91.425 77.058334 92.50313 75.54271Q93.59688 74.01146 95.90938 74.01146Q98.20625 74.01146 99.28438 75.495834Q100.3625 76.964584 100.39375 80.027084L100.39375 82.370834ZM98.59688 79.902084Q98.59688 77.60521 97.94063 76.558334Q97.3 75.495834 95.90938 75.495834Q94.51875 75.495834 93.87813 76.54271Q93.25313 77.589584 93.2375 79.76146L93.2375 82.652084Q93.2375 84.94896 93.89375 86.058334Q94.56563 87.152084 95.925 87.152084Q97.26875 87.152084 97.90938 86.120834Q98.56563 85.089584 98.59688 82.85521L98.59688 79.902084ZM111.39375 82.370834Q111.39375 85.54271 110.31563 87.089584Q109.2375 88.63646 106.925 88.63646Q104.64375 88.63646 103.55 87.120834Q102.45625 85.60521 102.425 82.60521L102.425 80.19896Q102.425 77.058334 103.50313 75.54271Q104.59688 74.01146 106.90938 74.01146Q109.20625 74.01146 110.28438 75.495834Q111.3625 76.964584 111.39375 80.027084L111.39375 82.370834ZM109.59688 79.902084Q109.59688 77.60521 108.94063 76.558334Q108.3 75.495834 106.90938 75.495834Q105.51875 75.495834 104.87813 76.54271Q104.25313 77.589584 104.2375 79.76146L104.2375 82.652084Q104.2375 84.94896 104.89375 86.058334Q105.56563 87.152084 106.925 87.152084Q108.26875 87.152084 108.90938 86.120834Q109.56563 85.089584 109.59688 82.85521L109.59688 79.902084Z" fill-rule="nonzero"/><path fill="#000000" d="M72.1125 25.315624L73.47188 25.315624Q74.75313 25.284374 75.47188 24.64375Q76.20625 23.9875 76.20625 22.8625Q76.20625 20.3625 73.72188 20.3625Q72.55 20.3625 71.84688 21.034374Q71.15938 21.70625 71.15938 22.815624L69.34688 22.815624Q69.34688 21.128124 70.58125 20.003124Q71.81563 18.878124 73.72188 18.878124Q75.7375 18.878124 76.87813 19.95625Q78.01875 21.01875 78.01875 22.909374Q78.01875 23.83125 77.40938 24.70625Q76.81563 25.58125 75.78438 26.003124Q76.95625 26.378124 77.59688 27.2375Q78.2375 28.096874 78.2375 29.33125Q78.2375 31.253124 76.9875 32.378124Q75.7375 33.503124 73.72188 33.503124Q71.72188 33.503124 70.47188 32.425Q69.22188 31.33125 69.22188 29.55L71.03438 29.55Q71.03438 30.675 71.76875 31.346874Q72.50313 32.01875 73.7375 32.01875Q75.03438 32.01875 75.72188 31.346874Q76.425 30.659374 76.425 29.378124Q76.425 28.128124 75.65938 27.471874Q74.90938 26.8 73.47188 26.784374L72.1125 26.784374L72.1125 25.315624ZM89.39375 27.2375Q89.39375 30.409374 88.31563 31.95625Q87.2375 33.503124 84.925 33.503124Q82.64375 33.503124 81.55 31.9875Q80.45625 30.471874 80.425 27.471874L80.425 25.065624Q80.425 21.925 81.50313 20.409374Q82.59688 18.878124 84.90938 18.878124Q87.20625 18.878124 88.28438 20.3625Q89.3625 21.83125 89.39375 24.89375L89.39375 27.2375ZM87.59688 24.76875Q87.59688 22.471874 86.94063 21.425Q86.3 20.3625 84.90938 20.3625Q83.51875 20.3625 82.87813 21.409374Q82.25313 22.45625 82.2375 24.628124L82.2375 27.51875Q82.2375 29.815624 82.89375 30.925Q83.56563 32.01875 84.925 32.01875Q86.26875 32.01875 86.90938 30.9875Q87.56563 29.95625 87.59688 27.721874L87.59688 24.76875ZM100.39375 27.2375Q100.39375 30.409374 99.31563 31.95625Q98.2375 33.503124 95.925 33.503124Q93.64375 33.503124 92.55 31.9875Q91.45625 30.471874 91.425 27.471874L91.425 25.065624Q91.425 21.925 92.50313 20.409374Q93.59688 18.878124 95.90938 18.878124Q98.20625 18.878124 99.28438 20.3625Q100.3625 21.83125 100.39375 24.89375L100.39375 27.2375ZM98.59688 24.76875Q98.59688 22.471874 97.94063 21.425Q97.3 20.3625 95.90938 20.3625Q94.51875 20.3625 93.87813 21.409374Q93.25313 22.45625 93.2375 24.628124L93.2375 27.51875Q93.2375 29.815624 93.89375 30.925Q94.56563 32.01875 95.925 32.01875Q97.26875 32.01875 97.90938 30.9875Q98.56563 29.95625 98.59688 27.721874L98.59688 24.76875ZM111.39375 27.2375Q111.39375 30.409374 110.31563 31.95625Q109.2375 33.503124 106.925 33.503124Q104.64375 33.503124 103.55 31.9875Q102.45625 30.471874 102.425 27.471874L102.425 25.065624Q102.425 21.925 103.50313 20.409374Q104.59688 18.878124 106.90938 18.878124Q109.20625 18.878124 110.28438 20.3625Q111.3625 21.83125 111.39375 24.89375L111.39375 27.2375ZM109.59688 24.76875Q109.59688 22.471874 108.94063 21.425Q108.3 20.3625 106.90938 20.3625Q105.51875 20.3625 104.87813 21.409374Q104.25313 22.45625 104.2375 24.628124L104.2375 27.51875Q104.2375 29.815624 104.89375 30.925Q105.56563 32.01875 106.925 32.01875Q108.26875 32.01875 108.90938 30.9875Q109.56563 29.95625 109.59688 27.721874L109.59688 24.76875Z" fill-rule="nonzero"/><path fill="#000000" d="M153.21758 236.35625Q150.7957 235.66875 149.70195 234.66875Q148.6082 233.65312 148.6082 232.16875Q148.6082 230.48125 149.95195 229.3875Q151.2957 228.27812 153.43633 228.27812Q154.90508 228.27812 156.0457 228.85625Q157.20195 229.41875 157.82695 230.41875Q158.45195 231.40312 158.45195 232.59062L156.57695 232.59062Q156.57695 231.30937 155.74883 230.575Q154.93633 229.825 153.43633 229.825Q152.0457 229.825 151.26445 230.43437Q150.49883 231.04375 150.49883 232.1375Q150.49883 232.99687 151.2332 233.60625Q151.96758 234.2 153.7332 234.7Q155.51445 235.2 156.51445 235.80937Q157.51445 236.40312 157.99883 237.2Q158.4832 237.99687 158.4832 239.09062Q158.4832 240.80937 157.13945 241.85625Q155.7957 242.90312 153.53008 242.90312Q152.07695 242.90312 150.7957 242.34062Q149.53008 241.77812 148.84258 240.80937Q148.15508 239.825 148.15508 238.575L150.0457 238.575Q150.0457 239.87187 150.99883 240.62187Q151.95195 241.35625 153.53008 241.35625Q155.01445 241.35625 155.81133 240.7625Q156.6082 240.15312 156.6082 239.10625Q156.6082 238.05937 155.87383 237.49687Q155.13945 236.91875 153.21758 236.35625ZM163.18633 229.575L163.18633 232.1375L165.1707 232.1375L165.1707 233.52812L163.18633 233.52812L163.18633 240.075Q163.18633 240.71562 163.45195 241.04375Q163.71758 241.35625 164.3582 241.35625Q164.6707 241.35625 165.21758 241.23125L165.21758 242.7Q164.49883 242.90312 163.82695 242.90312Q162.62383 242.90312 161.99883 242.16875Q161.38945 241.43437 161.38945 240.075L161.38945 233.52812L159.46758 233.52812L159.46758 232.1375L161.38945 232.1375L161.38945 229.575L163.18633 229.575ZM172.84258 233.74687Q172.43633 233.68437 171.96758 233.68437Q170.18633 233.68437 169.5457 235.2L169.5457 242.7L167.74883 242.7L167.74883 232.1375L169.49883 232.1375L169.53008 233.35625Q170.4207 231.93437 172.0457 231.93437Q172.57695 231.93437 172.84258 232.075L172.84258 233.74687ZM174.26445 237.325Q174.26445 235.7625 174.87383 234.52812Q175.4832 233.27812 176.56133 232.60625Q177.65508 231.93437 179.06133 231.93437Q181.21758 231.93437 182.5457 233.43437Q183.88945 234.91875 183.88945 237.40312L183.88945 237.52812Q183.88945 239.075 183.2957 240.30937Q182.70195 241.52812 181.59258 242.21562Q180.49883 242.90312 179.07695 242.90312Q176.93633 242.90312 175.59258 241.40312Q174.26445 239.90312 174.26445 237.45L174.26445 237.325ZM176.07695 237.52812Q176.07695 239.29375 176.88945 240.35625Q177.71758 241.41875 179.07695 241.41875Q180.45195 241.41875 181.26445 240.34062Q182.07695 239.2625 182.07695 237.325Q182.07695 235.575 181.24883 234.49687Q180.4207 233.41875 179.06133 233.41875Q177.71758 233.41875 176.88945 234.48125Q176.07695 235.54375 176.07695 237.52812ZM187.45195 232.1375L187.51445 233.46562Q188.71758 231.93437 190.6707 231.93437Q194.03008 231.93437 194.0457 235.71562L194.0457 242.7L192.24883 242.7L192.24883 235.7Q192.2332 234.55937 191.71758 234.0125Q191.21758 233.46562 190.12383 233.46562Q189.24883 233.46562 188.57695 233.93437Q187.9207 234.40312 187.5457 235.16875L187.5457 242.7L185.74883 242.7L185.74883 232.1375L187.45195 232.1375ZM196.31133 237.325Q196.31133 234.85625 197.45195 233.40312Q198.59258 231.93437 200.4832 231.93437Q202.4207 231.93437 203.49883 233.30937L203.59258 232.1375L205.2332 232.1375L205.2332 242.45Q205.2332 244.49687 204.01445 245.66875Q202.81133 246.85625 200.74883 246.85625Q199.6082 246.85625 198.51445 246.37187Q197.4207 245.8875 196.84258 245.02812L197.78008 243.95Q198.95195 245.3875 200.62383 245.3875Q201.95195 245.3875 202.68633 244.6375Q203.4207 243.90312 203.4207 242.55937L203.4207 241.6375Q202.34258 242.90312 200.46758 242.90312Q198.6082 242.90312 197.45195 241.40312Q196.31133 239.90312 196.31133 237.325ZM198.12383 237.52812Q198.12383 239.325 198.8582 240.34062Q199.59258 241.35625 200.90508 241.35625Q202.62383 241.35625 203.4207 239.80937L203.4207 234.98125Q202.59258 233.46562 200.93633 233.46562Q199.6082 233.46562 198.8582 234.49687Q198.12383 235.52812 198.12383 237.52812ZM209.70195 242.7L207.90508 242.7L207.90508 227.7L209.70195 227.7L209.70195 242.7ZM216.20195 240.05937L218.65508 232.1375L220.59258 232.1375L216.34258 244.325Q215.3582 246.96562 213.21758 246.96562L212.87383 246.93437L212.20195 246.80937L212.20195 245.34062L212.68633 245.3875Q213.6082 245.3875 214.1082 245.0125Q214.62383 244.6375 214.95195 243.65312L215.3582 242.575L211.59258 232.1375L213.56133 232.1375L216.20195 240.05937Z" fill-rule="nonzero"/><path fill="#000000" d="M146.03008 266.7L146.03008 252.48126L150.0457 252.48126Q151.88945 252.48126 153.31133 253.30939Q154.74883 254.12189 155.51445 255.63751Q156.2957 257.15314 156.31133 259.10626L156.31133 260.0125Q156.31133 262.02814 155.53008 263.54376Q154.74883 265.0594 153.31133 265.8719Q151.87383 266.6844 149.96758 266.7L146.03008 266.7ZM147.90508 254.02814L147.90508 265.16876L149.87383 265.16876Q152.0457 265.16876 153.24883 263.825Q154.45195 262.46564 154.45195 259.98126L154.45195 259.15314Q154.45195 256.73126 153.31133 255.38751Q152.1707 254.04376 150.09258 254.02814L147.90508 254.02814ZM160.70195 266.7L158.90508 266.7L158.90508 256.1375L160.70195 256.1375L160.70195 266.7ZM158.74883 253.32501Q158.74883 252.88751 159.01445 252.59064Q159.2957 252.27814 159.81133 252.27814Q160.34258 252.27814 160.6082 252.59064Q160.88945 252.88751 160.88945 253.32501Q160.88945 253.76251 160.6082 254.05939Q160.34258 254.35626 159.81133 254.35626Q159.2957 254.35626 159.01445 254.05939Q158.74883 253.76251 158.74883 253.32501ZM169.88945 263.90314Q169.88945 263.16876 169.34258 262.7625Q168.7957 262.35626 167.4207 262.0594Q166.0457 261.7625 165.2332 261.35626Q164.43633 260.95 164.0457 260.3875Q163.6707 259.8094 163.6707 259.02814Q163.6707 257.73126 164.76445 256.84064Q165.8582 255.93439 167.57695 255.93439Q169.37383 255.93439 170.4832 256.8719Q171.6082 257.79376 171.6082 259.23126L169.78008 259.23126Q169.78008 258.4969 169.15508 257.96564Q168.53008 257.41876 167.57695 257.41876Q166.57695 257.41876 166.01445 257.85626Q165.46758 258.27814 165.46758 258.98126Q165.46758 259.6219 165.9832 259.96564Q166.49883 260.29376 167.8582 260.60626Q169.21758 260.90314 170.0457 261.325Q170.88945 261.73126 171.2957 262.325Q171.70195 262.91876 171.70195 263.7625Q171.70195 265.1844 170.56133 266.04376Q169.43633 266.90314 167.62383 266.90314Q166.3582 266.90314 165.37383 266.45Q164.40508 265.9969 163.84258 265.2Q163.2957 264.3875 163.2957 263.45L165.1082 263.45Q165.15508 264.35626 165.82695 264.8875Q166.51445 265.41876 167.62383 265.41876Q168.65508 265.41876 169.26445 265.0125Q169.88945 264.59064 169.88945 263.90314ZM180.26445 266.7Q180.1082 266.3875 180.01445 265.59064Q178.74883 266.90314 176.99883 266.90314Q175.43633 266.90314 174.43633 266.0125Q173.43633 265.1219 173.43633 263.7625Q173.43633 262.1219 174.68633 261.21564Q175.95195 260.29376 178.21758 260.29376L179.9832 260.29376L179.9832 259.46564Q179.9832 258.5125 179.40508 257.95Q178.84258 257.3875 177.74883 257.3875Q176.78008 257.3875 176.12383 257.8875Q175.46758 258.3719 175.46758 259.0594L173.65508 259.0594Q173.65508 258.27814 174.21758 257.54376Q174.78008 256.79376 175.7332 256.3719Q176.70195 255.93439 177.8582 255.93439Q179.68633 255.93439 180.71758 256.85626Q181.74883 257.7625 181.7957 259.3719L181.7957 264.23126Q181.7957 265.6844 182.15508 266.54376L182.15508 266.7L180.26445 266.7ZM177.26445 265.325Q178.12383 265.325 178.87383 264.8875Q179.63945 264.45 179.9832 263.7469L179.9832 261.575L178.56133 261.575Q175.24883 261.575 175.24883 263.5125Q175.24883 264.3719 175.81133 264.85626Q176.37383 265.325 177.26445 265.325ZM184.31133 261.325Q184.31133 258.85626 185.45195 257.40314Q186.59258 255.93439 188.4832 255.93439Q190.4207 255.93439 191.49883 257.3094L191.59258 256.1375L193.2332 256.1375L193.2332 266.45Q193.2332 268.4969 192.01445 269.66876Q190.81133 270.85626 188.74883 270.85626Q187.6082 270.85626 186.51445 270.3719Q185.4207 269.8875 184.84258 269.02814L185.78008 267.95Q186.95195 269.3875 188.62383 269.3875Q189.95195 269.3875 190.68633 268.6375Q191.4207 267.90314 191.4207 266.5594L191.4207 265.6375Q190.34258 266.90314 188.46758 266.90314Q186.6082 266.90314 185.45195 265.40314Q184.31133 263.90314 184.31133 261.325ZM186.12383 261.52814Q186.12383 263.325 186.8582 264.34064Q187.59258 265.35626 188.90508 265.35626Q190.62383 265.35626 191.4207 263.8094L191.4207 258.98126Q190.59258 257.46564 188.93633 257.46564Q187.6082 257.46564 186.8582 258.4969Q186.12383 259.52814 186.12383 261.52814ZM200.84258 257.7469Q200.43633 257.6844 199.96758 257.6844Q198.18633 257.6844 197.5457 259.2L197.5457 266.7L195.74883 266.7L195.74883 256.1375L197.49883 256.1375L197.53008 257.35626Q198.4207 255.93439 200.0457 255.93439Q200.57695 255.93439 200.84258 256.075L200.84258 257.7469ZM207.12383 266.90314Q204.9832 266.90314 203.62383 265.4969Q202.28008 264.075 202.28008 261.71564L202.28008 261.3719Q202.28008 259.8094 202.87383 258.575Q203.4832 257.34064 204.56133 256.6375Q205.63945 255.93439 206.90508 255.93439Q208.96758 255.93439 210.1082 257.29376Q211.24883 258.65314 211.24883 261.1844L211.24883 261.9344L204.09258 261.9344Q204.12383 263.4969 204.99883 264.46564Q205.87383 265.41876 207.21758 265.41876Q208.18633 265.41876 208.84258 265.02814Q209.51445 264.6375 210.01445 263.9969L211.1082 264.85626Q209.78008 266.90314 207.12383 266.90314ZM206.90508 257.41876Q205.81133 257.41876 205.06133 258.21564Q204.32695 259.0125 204.15508 260.45L209.43633 260.45L209.43633 260.3094Q209.3582 258.9344 208.68633 258.1844Q208.03008 257.41876 206.90508 257.41876ZM218.12383 266.90314Q215.9832 266.90314 214.62383 265.4969Q213.28008 264.075 213.28008 261.71564L213.28008 261.3719Q213.28008 259.8094 213.87383 258.575Q214.4832 257.34064 215.56133 256.6375Q216.63945 255.93439 217.90508 255.93439Q219.96758 255.93439 221.1082 257.29376Q222.24883 258.65314 222.24883 261.1844L222.24883 261.9344L215.09258 261.9344Q215.12383 263.4969 215.99883 264.46564Q216.87383 265.41876 218.21758 265.41876Q219.18633 265.41876 219.84258 265.02814Q220.51445 264.6375 221.01445 263.9969L222.1082 264.85626Q220.78008 266.90314 218.12383 266.90314ZM217.90508 257.41876Q216.81133 257.41876 216.06133 258.21564Q215.32695 259.0125 215.15508 260.45L220.43633 260.45L220.43633 260.3094Q220.3582 258.9344 219.68633 258.1844Q219.03008 257.41876 217.90508 257.41876Z" fill-rule="nonzero"/><path fill="#000000" d="M249.84317 242.7L249.84317 228.48125L253.8588 228.48125Q255.70255 228.48125 257.12442 229.30937Q258.56192 230.12187 259.32755 231.6375Q260.1088 233.15312 260.12442 235.10625L260.12442 236.0125Q260.12442 238.02812 259.34317 239.54375Q258.56192 241.05937 257.12442 241.87187Q255.68692 242.68437 253.78067 242.7L249.84317 242.7ZM251.71817 230.02812L251.71817 241.16875L253.68692 241.16875Q255.8588 241.16875 257.06192 239.825Q258.26505 238.46562 258.26505 235.98125L258.26505 235.15312Q258.26505 232.73125 257.12442 231.3875Q255.9838 230.04375 253.90567 230.02812L251.71817 230.02812ZM264.51505 242.7L262.71817 242.7L262.71817 232.1375L264.51505 232.1375L264.51505 242.7ZM262.56192 229.325Q262.56192 228.8875 262.82755 228.59062Q263.1088 228.27812 263.62442 228.27812Q264.15567 228.27812 264.4213 228.59062Q264.70255 228.8875 264.70255 229.325Q264.70255 229.7625 264.4213 230.05937Q264.15567 230.35625 263.62442 230.35625Q263.1088 230.35625 262.82755 230.05937Q262.56192 229.7625 262.56192 229.325ZM273.70255 239.90312Q273.70255 239.16875 273.15567 238.7625Q272.6088 238.35625 271.2338 238.05937Q269.8588 237.7625 269.0463 237.35625Q268.24942 236.95 267.8588 236.3875Q267.4838 235.80937 267.4838 235.02812Q267.4838 233.73125 268.57755 232.84062Q269.6713 231.93437 271.39005 231.93437Q273.18692 231.93437 274.2963 232.87187Q275.4213 233.79375 275.4213 235.23125L273.59317 235.23125Q273.59317 234.49687 272.96817 233.96562Q272.34317 233.41875 271.39005 233.41875Q270.39005 233.41875 269.82755 233.85625Q269.28067 234.27812 269.28067 234.98125Q269.28067 235.62187 269.7963 235.96562Q270.31192 236.29375 271.6713 236.60625Q273.03067 236.90312 273.8588 237.325Q274.70255 237.73125 275.1088 238.325Q275.51505 238.91875 275.51505 239.7625Q275.51505 241.18437 274.37442 242.04375Q273.24942 242.90312 271.43692 242.90312Q270.1713 242.90312 269.18692 242.45Q268.21817 241.99687 267.65567 241.2Q267.1088 240.3875 267.1088 239.45L268.9213 239.45Q268.96817 240.35625 269.64005 240.8875Q270.32755 241.41875 271.43692 241.41875Q272.46817 241.41875 273.07755 241.0125Q273.70255 240.59062 273.70255 239.90312ZM284.07755 242.7Q283.9213 242.3875 283.82755 241.59062Q282.56192 242.90312 280.81192 242.90312Q279.24942 242.90312 278.24942 242.0125Q277.24942 241.12187 277.24942 239.7625Q277.24942 238.12187 278.49942 237.21562Q279.76505 236.29375 282.03067 236.29375L283.7963 236.29375L283.7963 235.46562Q283.7963 234.5125 283.21817 233.95Q282.65567 233.3875 281.56192 233.3875Q280.59317 233.3875 279.93692 233.8875Q279.28067 234.37187 279.28067 235.05937L277.46817 235.05937Q277.46817 234.27812 278.03067 233.54375Q278.59317 232.79375 279.5463 232.37187Q280.51505 231.93437 281.6713 231.93437Q283.49942 231.93437 284.53067 232.85625Q285.56192 233.7625 285.6088 235.37187L285.6088 240.23125Q285.6088 241.68437 285.96817 242.54375L285.96817 242.7L284.07755 242.7ZM281.07755 241.325Q281.93692 241.325 282.68692 240.8875Q283.45255 240.45 283.7963 239.74687L283.7963 237.575L282.37442 237.575Q279.06192 237.575 279.06192 239.5125Q279.06192 240.37187 279.62442 240.85625Q280.18692 241.325 281.07755 241.325ZM288.12442 237.325Q288.12442 234.85625 289.26505 233.40312Q290.40567 231.93437 292.2963 231.93437Q294.2338 231.93437 295.31192 233.30937L295.40567 232.1375L297.0463 232.1375L297.0463 242.45Q297.0463 244.49687 295.82755 245.66875Q294.62442 246.85625 292.56192 246.85625Q291.4213 246.85625 290.32755 246.37187Q289.2338 245.8875 288.65567 245.02812L289.59317 243.95Q290.76505 245.3875 292.43692 245.3875Q293.76505 245.3875 294.49942 244.6375Q295.2338 243.90312 295.2338 242.55937L295.2338 241.6375Q294.15567 242.90312 292.28067 242.90312Q290.4213 242.90312 289.26505 241.40312Q288.12442 239.90312 288.12442 237.325ZM289.93692 237.52812Q289.93692 239.325 290.6713 240.34062Q291.40567 241.35625 292.71817 241.35625Q294.43692 241.35625 295.2338 239.80937L295.2338 234.98125Q294.40567 233.46562 292.74942 233.46562Q291.4213 233.46562 290.6713 234.49687Q289.93692 235.52812 289.93692 237.52812ZM304.65567 233.74687Q304.24942 233.68437 303.78067 233.68437Q301.99942 233.68437 301.3588 235.2L301.3588 242.7L299.56192 242.7L299.56192 232.1375L301.31192 232.1375L301.34317 233.35625Q302.2338 231.93437 303.8588 231.93437Q304.39005 231.93437 304.65567 232.075L304.65567 233.74687ZM310.93692 242.90312Q308.7963 242.90312 307.43692 241.49687Q306.09317 240.075 306.09317 237.71562L306.09317 237.37187Q306.09317 235.80937 306.68692 234.575Q307.2963 233.34062 308.37442 232.6375Q309.45255 231.93437 310.71817 231.93437Q312.78067 231.93437 313.9213 233.29375Q315.06192 234.65312 315.06192 237.18437L315.06192 237.93437L307.90567 237.93437Q307.93692 239.49687 308.81192 240.46562Q309.68692 241.41875 311.03067 241.41875Q311.99942 241.41875 312.65567 241.02812Q313.32755 240.6375 313.82755 239.99687L314.9213 240.85625Q313.59317 242.90312 310.93692 242.90312ZM310.71817 233.41875Q309.62442 233.41875 308.87442 234.21562Q308.14005 235.0125 307.96817 236.45L313.24942 236.45L313.24942 236.30937Q313.1713 234.93437 312.49942 234.18437Q311.84317 233.41875 310.71817 233.41875ZM321.93692 242.90312Q319.7963 242.90312 318.43692 241.49687Q317.09317 240.075 317.09317 237.71562L317.09317 237.37187Q317.09317 235.80937 317.68692 234.575Q318.2963 233.34062 319.37442 232.6375Q320.45255 231.93437 321.71817 231.93437Q323.78067 231.93437 324.9213 233.29375Q326.06192 234.65312 326.06192 237.18437L326.06192 237.93437L318.90567 237.93437Q318.93692 239.49687 319.81192 240.46562Q320.68692 241.41875 322.03067 241.41875Q322.99942 241.41875 323.65567 241.02812Q324.32755 240.6375 324.82755 239.99687L325.9213 240.85625Q324.59317 242.90312 321.93692 242.90312ZM321.71817 233.41875Q320.62442 233.41875 319.87442 234.21562Q319.14005 235.0125 318.96817 236.45L324.24942 236.45L324.24942 236.30937Q324.1713 234.93437 323.49942 234.18437Q322.84317 233.41875 321.71817 233.41875Z" fill-rule="nonzero"/><path fill="#000000" d="M371.07812 242.7L369.1875 242.7L362.03125 231.74687L362.03125 242.7L360.15625 242.7L360.15625 228.48125L362.03125 228.48125L369.21875 239.48125L369.21875 228.48125L371.07812 228.48125L371.07812 242.7ZM378.25 242.90312Q376.10938 242.90312 374.75 241.49687Q373.40625 240.075 373.40625 237.71562L373.40625 237.37187Q373.40625 235.80937 374.0 234.575Q374.60938 233.34062 375.6875 232.6375Q376.76562 231.93437 378.03125 231.93437Q380.09375 231.93437 381.23438 233.29375Q382.375 234.65312 382.375 237.18437L382.375 237.93437L375.21875 237.93437Q375.25 239.49687 376.125 240.46562Q377.0 241.41875 378.34375 241.41875Q379.3125 241.41875 379.96875 241.02812Q380.64062 240.6375 381.14062 239.99687L382.23438 240.85625Q380.90625 242.90312 378.25 242.90312ZM378.03125 233.41875Q376.9375 233.41875 376.1875 234.21562Q375.45312 235.0125 375.28125 236.45L380.5625 236.45L380.5625 236.30937Q380.48438 234.93437 379.8125 234.18437Q379.15625 233.41875 378.03125 233.41875ZM391.39062 241.65312Q390.34375 242.90312 388.29688 242.90312Q386.60938 242.90312 385.71875 241.91875Q384.84375 240.93437 384.82812 239.0125L384.82812 232.1375L386.64062 232.1375L386.64062 238.96562Q386.64062 241.35625 388.59375 241.35625Q390.65625 241.35625 391.34375 239.825L391.34375 232.1375L393.15625 232.1375L393.15625 242.7L391.4375 242.7L391.39062 241.65312ZM398.3125 229.575L398.3125 232.1375L400.29688 232.1375L400.29688 233.52812L398.3125 233.52812L398.3125 240.075Q398.3125 240.71562 398.57812 241.04375Q398.84375 241.35625 399.48438 241.35625Q399.79688 241.35625 400.34375 241.23125L400.34375 242.7Q399.625 242.90312 398.95312 242.90312Q397.75 242.90312 397.125 242.16875Q396.51562 241.43437 396.51562 240.075L396.51562 233.52812L394.59375 233.52812L394.59375 232.1375L396.51562 232.1375L396.51562 229.575L398.3125 229.575ZM407.96875 233.74687Q407.5625 233.68437 407.09375 233.68437Q405.3125 233.68437 404.67188 235.2L404.67188 242.7L402.875 242.7L402.875 232.1375L404.625 232.1375L404.65625 233.35625Q405.54688 231.93437 407.17188 231.93437Q407.70312 231.93437 407.96875 232.075L407.96875 233.74687ZM416.39062 242.7Q416.23438 242.3875 416.14062 241.59062Q414.875 242.90312 413.125 242.90312Q411.5625 242.90312 410.5625 242.0125Q409.5625 241.12187 409.5625 239.7625Q409.5625 238.12187 410.8125 237.21562Q412.07812 236.29375 414.34375 236.29375L416.10938 236.29375L416.10938 235.46562Q416.10938 234.5125 415.53125 233.95Q414.96875 233.3875 413.875 233.3875Q412.90625 233.3875 412.25 233.8875Q411.59375 234.37187 411.59375 235.05937L409.78125 235.05937Q409.78125 234.27812 410.34375 233.54375Q410.90625 232.79375 411.85938 232.37187Q412.82812 231.93437 413.98438 231.93437Q415.8125 231.93437 416.84375 232.85625Q417.875 233.7625 417.92188 235.37187L417.92188 240.23125Q417.92188 241.68437 418.28125 242.54375L418.28125 242.7L416.39062 242.7ZM413.39062 241.325Q414.25 241.325 415.0 240.8875Q415.76562 240.45 416.10938 239.74687L416.10938 237.575L414.6875 237.575Q411.375 237.575 411.375 239.5125Q411.375 240.37187 411.9375 240.85625Q412.5 241.325 413.39062 241.325ZM422.82812 242.7L421.03125 242.7L421.03125 227.7L422.82812 227.7L422.82812 242.7Z" fill-rule="nonzero"/><path fill="#000000" d="M478.31308 238.98125L472.35995 238.98125L471.0162 242.7L469.09433 242.7L474.5162 228.48125L476.15683 228.48125L481.59433 242.7L479.67245 242.7L478.31308 238.98125ZM472.92245 237.45L477.7662 237.45L475.34433 230.79375L472.92245 237.45ZM482.75058 237.325Q482.75058 234.85625 483.8912 233.40312Q485.03183 231.93437 486.92245 231.93437Q488.85995 231.93437 489.93808 233.30937L490.03183 232.1375L491.67245 232.1375L491.67245 242.45Q491.67245 244.49687 490.4537 245.66875Q489.25058 246.85625 487.18808 246.85625Q486.04745 246.85625 484.9537 246.37187Q483.85995 245.8875 483.28183 245.02812L484.21933 243.95Q485.3912 245.3875 487.06308 245.3875Q488.3912 245.3875 489.12558 244.6375Q489.85995 243.90312 489.85995 242.55937L489.85995 241.6375Q488.78183 242.90312 486.90683 242.90312Q485.04745 242.90312 483.8912 241.40312Q482.75058 239.90312 482.75058 237.325ZM484.56308 237.52812Q484.56308 239.325 485.29745 240.34062Q486.03183 241.35625 487.34433 241.35625Q489.06308 241.35625 489.85995 239.80937L489.85995 234.98125Q489.03183 233.46562 487.37558 233.46562Q486.04745 233.46562 485.29745 234.49687Q484.56308 235.52812 484.56308 237.52812ZM499.28183 233.74687Q498.87558 233.68437 498.40683 233.68437Q496.62558 233.68437 495.98495 235.2L495.98495 242.7L494.18808 242.7L494.18808 232.1375L495.93808 232.1375L495.96933 233.35625Q496.85995 231.93437 498.48495 231.93437Q499.0162 231.93437 499.28183 232.075L499.28183 233.74687ZM505.56308 242.90312Q503.42245 242.90312 502.06308 241.49687Q500.71933 240.075 500.71933 237.71562L500.71933 237.37187Q500.71933 235.80937 501.31308 234.575Q501.92245 233.34062 503.00058 232.6375Q504.0787 231.93437 505.34433 231.93437Q507.40683 231.93437 508.54745 233.29375Q509.68808 234.65312 509.68808 237.18437L509.68808 237.93437L502.53183 237.93437Q502.56308 239.49687 503.43808 240.46562Q504.31308 241.41875 505.65683 241.41875Q506.62558 241.41875 507.28183 241.02812Q507.9537 240.6375 508.4537 239.99687L509.54745 240.85625Q508.21933 242.90312 505.56308 242.90312ZM505.34433 233.41875Q504.25058 233.41875 503.50058 234.21562Q502.7662 235.0125 502.59433 236.45L507.87558 236.45L507.87558 236.30937Q507.79745 234.93437 507.12558 234.18437Q506.46933 233.41875 505.34433 233.41875ZM516.5631 242.90312Q514.4225 242.90312 513.0631 241.49687Q511.71933 240.075 511.71933 237.71562L511.71933 237.37187Q511.71933 235.80937 512.3131 234.575Q512.9225 233.34062 514.0006 232.6375Q515.07874 231.93437 516.34436 231.93437Q518.40686 231.93437 519.5475 233.29375Q520.6881 234.65312 520.6881 237.18437L520.6881 237.93437L513.53186 237.93437Q513.5631 239.49687 514.4381 240.46562Q515.3131 241.41875 516.65686 241.41875Q517.6256 241.41875 518.28186 241.02812Q518.95374 240.6375 519.45374 239.99687L520.5475 240.85625Q519.21936 242.90312 516.5631 242.90312ZM516.34436 233.41875Q515.2506 233.41875 514.5006 234.21562Q513.76624 235.0125 513.59436 236.45L518.8756 236.45L518.8756 236.30937Q518.7975 234.93437 518.1256 234.18437Q517.46936 233.41875 516.34436 233.41875Z" fill-rule="nonzero"/><path fill="#000000" d="M568.4699 236.35625Q566.04803 235.66875 564.9543 234.66875Q563.86053 233.65312 563.86053 232.16875Q563.86053 230.48125 565.2043 229.3875Q566.54803 228.27812 568.68866 228.27812Q570.1574 228.27812 571.29803 228.85625Q572.4543 229.41875 573.0793 230.41875Q573.7043 231.40312 573.7043 232.59062L571.8293 232.59062Q571.8293 231.30937 571.00116 230.575Q570.18866 229.825 568.68866 229.825Q567.29803 229.825 566.5168 230.43437Q565.75116 231.04375 565.75116 232.1375Q565.75116 232.99687 566.48553 233.60625Q567.2199 234.2 568.98553 234.7Q570.7668 235.2 571.7668 235.80937Q572.7668 236.40312 573.25116 237.2Q573.73553 237.99687 573.73553 239.09062Q573.73553 240.80937 572.3918 241.85625Q571.04803 242.90312 568.7824 242.90312Q567.3293 242.90312 566.04803 242.34062Q564.7824 241.77812 564.0949 240.80937Q563.4074 239.825 563.4074 238.575L565.29803 238.575Q565.29803 239.87187 566.25116 240.62187Q567.2043 241.35625 568.7824 241.35625Q570.2668 241.35625 571.06366 240.7625Q571.86053 240.15312 571.86053 239.10625Q571.86053 238.05937 571.12616 237.49687Q570.3918 236.91875 568.4699 236.35625ZM578.43866 229.575L578.43866 232.1375L580.42303 232.1375L580.42303 233.52812L578.43866 233.52812L578.43866 240.075Q578.43866 240.71562 578.7043 241.04375Q578.9699 241.35625 579.61053 241.35625Q579.92303 241.35625 580.4699 241.23125L580.4699 242.7Q579.75116 242.90312 579.0793 242.90312Q577.87616 242.90312 577.25116 242.16875Q576.6418 241.43437 576.6418 240.075L576.6418 233.52812L574.7199 233.52812L574.7199 232.1375L576.6418 232.1375L576.6418 229.575L578.43866 229.575ZM588.0949 233.74687Q587.68866 233.68437 587.2199 233.68437Q585.43866 233.68437 584.79803 235.2L584.79803 242.7L583.00116 242.7L583.00116 232.1375L584.75116 232.1375L584.7824 233.35625Q585.67303 231.93437 587.29803 231.93437Q587.8293 231.93437 588.0949 232.075L588.0949 233.74687ZM589.5168 237.325Q589.5168 235.7625 590.12616 234.52812Q590.73553 233.27812 591.81366 232.60625Q592.9074 231.93437 594.31366 231.93437Q596.4699 231.93437 597.79803 233.43437Q599.1418 234.91875 599.1418 237.40312L599.1418 237.52812Q599.1418 239.075 598.54803 240.30937Q597.9543 241.52812 596.8449 242.21562Q595.75116 242.90312 594.3293 242.90312Q592.18866 242.90312 590.8449 241.40312Q589.5168 239.90312 589.5168 237.45L589.5168 237.325ZM591.3293 237.52812Q591.3293 239.29375 592.1418 240.35625Q592.9699 241.41875 594.3293 241.41875Q595.7043 241.41875 596.5168 240.34062Q597.3293 239.2625 597.3293 237.325Q597.3293 235.575 596.50116 234.49687Q595.67303 233.41875 594.31366 233.41875Q592.9699 233.41875 592.1418 234.48125Q591.3293 235.54375 591.3293 237.52812ZM602.7043 232.1375L602.7668 233.46562Q603.9699 231.93437 605.92303 231.93437Q609.2824 231.93437 609.29803 235.71562L609.29803 242.7L607.50116 242.7L607.50116 235.7Q607.48553 234.55937 606.9699 234.0125Q606.4699 233.46562 605.37616 233.46562Q604.50116 233.46562 603.8293 233.93437Q603.17303 234.40312 602.79803 235.16875L602.79803 242.7L601.00116 242.7L601.00116 232.1375L602.7043 232.1375ZM611.56366 237.325Q611.56366 234.85625 612.7043 233.40312Q613.8449 231.93437 615.73553 231.93437Q617.67303 231.93437 618.75116 233.30937L618.8449 232.1375L620.48553 232.1375L620.48553 242.45Q620.48553 244.49687 619.2668 245.66875Q618.06366 246.85625 616.00116 246.85625Q614.86053 246.85625 613.7668 246.37187Q612.67303 245.8875 612.0949 245.02812L613.0324 243.95Q614.2043 245.3875 615.87616 245.3875Q617.2043 245.3875 617.93866 244.6375Q618.67303 243.90312 618.67303 242.55937L618.67303 241.6375Q617.5949 242.90312 615.7199 242.90312Q613.86053 242.90312 612.7043 241.40312Q611.56366 239.90312 611.56366 237.325ZM613.37616 237.52812Q613.37616 239.325 614.11053 240.34062Q614.8449 241.35625 616.1574 241.35625Q617.87616 241.35625 618.67303 239.80937L618.67303 234.98125Q617.8449 233.46562 616.18866 233.46562Q614.86053 233.46562 614.11053 234.49687Q613.37616 235.52812 613.37616 237.52812ZM624.9543 242.7L623.1574 242.7L623.1574 227.7L624.9543 227.7L624.9543 242.7ZM631.4543 240.05937L633.9074 232.1375L635.8449 232.1375L631.5949 244.325Q630.61053 246.96562 628.4699 246.96562L628.12616 246.93437L627.4543 246.80937L627.4543 245.34062L627.93866 245.3875Q628.86053 245.3875 629.36053 245.0125Q629.87616 244.6375 630.2043 243.65312L630.61053 242.575L626.8449 232.1375L628.81366 232.1375L631.4543 240.05937Z" fill-rule="nonzero"/><path fill="#000000" d="M582.12616 262.98126L576.17303 262.98126L574.8293 266.7L572.9074 266.7L578.3293 252.48126L579.9699 252.48126L585.4074 266.7L583.48553 266.7L582.12616 262.98126ZM576.73553 261.45L581.5793 261.45L579.1574 254.79376L576.73553 261.45ZM586.56366 261.325Q586.56366 258.85626 587.7043 257.40314Q588.8449 255.93439 590.73553 255.93439Q592.67303 255.93439 593.75116 257.3094L593.8449 256.1375L595.48553 256.1375L595.48553 266.45Q595.48553 268.4969 594.2668 269.66876Q593.06366 270.85626 591.00116 270.85626Q589.86053 270.85626 588.7668 270.3719Q587.67303 269.8875 587.0949 269.02814L588.0324 267.95Q589.2043 269.3875 590.87616 269.3875Q592.2043 269.3875 592.93866 268.6375Q593.67303 267.90314 593.67303 266.5594L593.67303 265.6375Q592.5949 266.90314 590.7199 266.90314Q588.86053 266.90314 587.7043 265.40314Q586.56366 263.90314 586.56366 261.325ZM588.37616 261.52814Q588.37616 263.325 589.11053 264.34064Q589.8449 265.35626 591.1574 265.35626Q592.87616 265.35626 593.67303 263.8094L593.67303 258.98126Q592.8449 257.46564 591.18866 257.46564Q589.86053 257.46564 589.11053 258.4969Q588.37616 259.52814 588.37616 261.52814ZM603.0949 257.7469Q602.68866 257.6844 602.2199 257.6844Q600.43866 257.6844 599.79803 259.2L599.79803 266.7L598.00116 266.7L598.00116 256.1375L599.75116 256.1375L599.7824 257.35626Q600.67303 255.93439 602.29803 255.93439Q602.8293 255.93439 603.0949 256.075L603.0949 257.7469ZM609.37616 266.90314Q607.23553 266.90314 605.87616 265.4969Q604.5324 264.075 604.5324 261.71564L604.5324 261.3719Q604.5324 259.8094 605.12616 258.575Q605.73553 257.34064 606.81366 256.6375Q607.8918 255.93439 609.1574 255.93439Q611.2199 255.93439 612.36053 257.29376Q613.50116 258.65314 613.50116 261.1844L613.50116 261.9344L606.3449 261.9344Q606.37616 263.4969 607.25116 264.46564Q608.12616 265.41876 609.4699 265.41876Q610.43866 265.41876 611.0949 265.02814Q611.7668 264.6375 612.2668 263.9969L613.36053 264.85626Q612.0324 266.90314 609.37616 266.90314ZM609.1574 257.41876Q608.06366 257.41876 607.31366 258.21564Q606.5793 259.0125 606.4074 260.45L611.68866 260.45L611.68866 260.3094Q611.61053 258.9344 610.93866 258.1844Q610.2824 257.41876 609.1574 257.41876ZM620.37616 266.90314Q618.23553 266.90314 616.87616 265.4969Q615.5324 264.075 615.5324 261.71564L615.5324 261.3719Q615.5324 259.8094 616.12616 258.575Q616.73553 257.34064 617.81366 256.6375Q618.8918 255.93439 620.1574 255.93439Q622.2199 255.93439 623.36053 257.29376Q624.50116 258.65314 624.50116 261.1844L624.50116 261.9344L617.3449 261.9344Q617.37616 263.4969 618.25116 264.46564Q619.12616 265.41876 620.4699 265.41876Q621.43866 265.41876 622.0949 265.02814Q622.7668 264.6375 623.2668 263.9969L624.36053 264.85626Q623.0324 266.90314 620.37616 266.90314ZM620.1574 257.41876Q619.06366 257.41876 618.31366 258.21564Q617.5793 259.0125 617.4074 260.45L622.68866 260.45L622.68866 260.3094Q622.61053 258.9344 621.93866 258.1844Q621.2824 257.41876 620.1574 257.41876Z" fill-rule="nonzero"/></svg>