<svg version="1.1" viewBox="0.0 0.0 892.0 350.0" fill="none" stroke="none" stroke-linecap="square" stroke-miterlimit="10" width="892" height="350" xmlns:xlink="http://www.w3.org/1999/xlink" xmlns="http://www.w3.org/2000/svg"><path fill="#ffffff" d="M0 0L892.0 0L892.0 350.0L0 350.0L0 0Z" fill-rule="nonzero"/><path stroke="#333333" stroke-width="1.0" stroke-linecap="butt" d="M142.5 229.5L874.5 229.5" fill-rule="nonzero"/><path fill="#eeeeee" d="M114.5 257.5L142.5 230.5L874.5 230.5L846.5 257.5Z" fill-rule="nonzero"/><path stroke="#cccccc" stroke-width="1.0" stroke-linecap="butt" d="M142.5 162.5L874.5 162.5" fill-rule="nonzero"/><path stroke="#cccccc" stroke-width="1.0" stroke-linecap="butt" d="M142.5 96.5L874.5 96.5" fill-rule="nonzero"/><path stroke="#cccccc" stroke-width="1.0" stroke-linecap="butt" d="M142.5 29.5L874.5 29.5" fill-rule="nonzero"/><clipPath id="id_0"><path d="M114.5 29.5L874.5 29.5L874.5 257.5L114.5 257.5L114.5 29.5Z" clip-rule="nonzero"/></clipPath><path fill="#607f51" clip-path="url(#id_0)" d="M268.0 227.0L268.0 230.0L245.0 253.0L245.0 250.0Z" fill-rule="nonzero"/><path fill="#a9d097" clip-path="url(#id_0)" d="M245.0 250.0L153.0 250.0L176.0 227.0L268.0 227.0Z" fill-rule="nonzero"/><path stroke="#000000" stroke-width="2.0" stroke-linecap="butt" stroke-opacity="0.0" clip-path="url(#id_0)" d="M245.0 253.0L153.0 253.0L153.0 250.0L245.0 250.0Z" fill-rule="nonzero"/><path fill="#93c47d" clip-path="url(#id_0)" d="M245.0 253.0L153.0 253.0L153.0 250.0L245.0 250.0Z" fill-rule="nonzero"/><path fill="#607f51" clip-path="url(#id_0)" d="M410.0 219.0L410.0 230.0L387.0 253.0L387.0 242.0Z" fill-rule="nonzero"/><path fill="#a9d097" clip-path="url(#id_0)" d="M387.0 242.0L295.0 242.0L318.0 219.0L410.0 219.0Z" fill-rule="nonzero"/><path stroke="#000000" stroke-width="2.0" stroke-linecap="butt" stroke-opacity="0.0" clip-path="url(#id_0)" d="M387.0 253.0L295.0 253.0L295.0 242.0L387.0 242.0Z" fill-rule="nonzero"/><path fill="#93c47d" clip-path="url(#id_0)" d="M387.0 253.0L295.0 253.0L295.0 242.0L387.0 242.0Z" fill-rule="nonzero"/><path fill="#607f51" clip-path="url(#id_0)" d="M552.0 150.0L552.0 230.0L529.0 253.0L529.0 173.0Z" fill-rule="nonzero"/><path fill="#a9d097" clip-path="url(#id_0)" d="M529.0 173.0L437.0 173.0L460.0 150.0L552.0 150.0Z" fill-rule="nonzero"/><path stroke="#000000" stroke-width="2.0" stroke-linecap="butt" stroke-opacity="0.0" clip-path="url(#id_0)" d="M529.0 253.0L437.0 253.0L437.0 173.0L529.0 173.0Z" fill-rule="nonzero"/><path fill="#93c47d" clip-path="url(#id_0)" d="M529.0 253.0L437.0 253.0L437.0 173.0L529.0 173.0Z" fill-rule="nonzero"/><path fill="#607f51" clip-path="url(#id_0)" d="M694.0 52.0L694.0 230.0L671.0 253.0L671.0 75.0Z" fill-rule="nonzero"/><path fill="#a9d097" clip-path="url(#id_0)" d="M671.0 75.0L579.0 75.0L602.0 52.0L694.0 52.0Z" fill-rule="nonzero"/><path stroke="#000000" stroke-width="2.0" stroke-linecap="butt" stroke-opacity="0.0" clip-path="url(#id_0)" d="M671.0 253.0L579.0 253.0L579.0 75.0L671.0 75.0Z" fill-rule="nonzero"/><path fill="#93c47d" clip-path="url(#id_0)" d="M671.0 253.0L579.0 253.0L579.0 75.0L671.0 75.0Z" fill-rule="nonzero"/><path fill="#607f51" clip-path="url(#id_0)" d="M836.0 150.0L836.0 230.0L813.0 253.0L813.0 173.0Z" fill-rule="nonzero"/><path fill="#a9d097" clip-path="url(#id_0)" d="M813.0 173.0L721.0 173.0L744.0 150.0L836.0 150.0Z" fill-rule="nonzero"/><path stroke="#000000" stroke-width="2.0" stroke-linecap="butt" stroke-opacity="0.0" clip-path="url(#id_0)" d="M813.0 253.0L721.0 253.0L721.0 173.0L813.0 173.0Z" fill-rule="nonzero"/><path fill="#93c47d" clip-path="url(#id_0)" d="M813.0 253.0L721.0 253.0L721.0 173.0L813.0 173.0Z" fill-rule="nonzero"/><path stroke="#ffffff" stroke-width="3.0" stroke-linejoin="round" stroke-linecap="round" d="M203.07812 229.83333L195.28125 229.83333L195.28125 228.28645L198.95312 224.36458Q199.71875 223.53645 200.07812 222.92708Q200.4375 222.30208 200.4375 221.73958Q200.4375 220.98958 200.04688 220.55208Q199.67188 220.11458 198.96875 220.11458Q198.20312 220.11458 197.75 220.64583Q197.3125 221.17708 197.3125 222.03645L195.04688 222.03645Q195.04688 220.98958 195.54688 220.1302Q196.04688 219.27083 196.95312 218.78645Q197.85938 218.30208 199.0 218.30208Q200.76562 218.30208 201.73438 219.14583Q202.70312 219.98958 202.70312 221.52083Q202.70312 222.36458 202.26562 223.23958Q201.82812 224.11458 200.76562 225.28645L198.1875 228.0052L203.07812 228.0052L203.07812 229.83333Z" fill-rule="nonzero"/><path fill="#93c47d" d="M203.07812 229.83333L195.28125 229.83333L195.28125 228.28645L198.95312 224.36458Q199.71875 223.53645 200.07812 222.92708Q200.4375 222.30208 200.4375 221.73958Q200.4375 220.98958 200.04688 220.55208Q199.67188 220.11458 198.96875 220.11458Q198.20312 220.11458 197.75 220.64583Q197.3125 221.17708 197.3125 222.03645L195.04688 222.03645Q195.04688 220.98958 195.54688 220.1302Q196.04688 219.27083 196.95312 218.78645Q197.85938 218.30208 199.0 218.30208Q200.76562 218.30208 201.73438 219.14583Q202.70312 219.98958 202.70312 221.52083Q202.70312 222.36458 202.26562 223.23958Q201.82812 224.11458 200.76562 225.28645L198.1875 228.0052L203.07812 228.0052L203.07812 229.83333Z" fill-rule="nonzero"/><path stroke="#ffffff" stroke-width="3.0" stroke-linejoin="round" stroke-linecap="round" d="M344.6875 213.47395Q344.6875 214.30208 344.26562 214.9427Q343.85938 215.58333 343.14062 215.97395Q343.96875 216.36458 344.45312 217.0677Q344.9375 217.77083 344.9375 218.70833Q344.9375 220.22395 343.90625 221.11458Q342.875 221.98958 341.09375 221.98958Q339.32812 221.98958 338.28125 221.11458Q337.25 220.22395 337.25 218.70833Q337.25 217.77083 337.73438 217.0677Q338.21875 216.36458 339.03125 215.97395Q338.3125 215.58333 337.89062 214.9427Q337.48438 214.30208 337.48438 213.47395Q337.48438 212.02083 338.45312 211.16145Q339.42188 210.30208 341.09375 210.30208Q342.75 210.30208 343.71875 211.16145Q344.6875 212.0052 344.6875 213.47395ZM342.67188 218.55208Q342.67188 217.80208 342.23438 217.36458Q341.8125 216.91145 341.07812 216.91145Q340.35938 216.91145 339.92188 217.36458Q339.5 217.80208 339.5 218.55208Q339.5 219.27083 339.92188 219.72395Q340.34375 220.16145 341.09375 220.16145Q341.82812 220.16145 342.25 219.73958Q342.67188 219.30208 342.67188 218.55208ZM342.4375 213.58333Q342.4375 212.92708 342.07812 212.52083Q341.73438 212.11458 341.09375 212.11458Q340.45312 212.11458 340.09375 212.5052Q339.75 212.89583 339.75 213.58333Q339.75 214.27083 340.09375 214.6927Q340.45312 215.09895 341.09375 215.09895Q341.73438 215.09895 342.07812 214.6927Q342.4375 214.27083 342.4375 213.58333Z" fill-rule="nonzero"/><path fill="#93c47d" d="M344.6875 213.47395Q344.6875 214.30208 344.26562 214.9427Q343.85938 215.58333 343.14062 215.97395Q343.96875 216.36458 344.45312 217.0677Q344.9375 217.77083 344.9375 218.70833Q344.9375 220.22395 343.90625 221.11458Q342.875 221.98958 341.09375 221.98958Q339.32812 221.98958 338.28125 221.11458Q337.25 220.22395 337.25 218.70833Q337.25 217.77083 337.73438 217.0677Q338.21875 216.36458 339.03125 215.97395Q338.3125 215.58333 337.89062 214.9427Q337.48438 214.30208 337.48438 213.47395Q337.48438 212.02083 338.45312 211.16145Q339.42188 210.30208 341.09375 210.30208Q342.75 210.30208 343.71875 211.16145Q344.6875 212.0052 344.6875 213.47395ZM342.67188 218.55208Q342.67188 217.80208 342.23438 217.36458Q341.8125 216.91145 341.07812 216.91145Q340.35938 216.91145 339.92188 217.36458Q339.5 217.80208 339.5 218.55208Q339.5 219.27083 339.92188 219.72395Q340.34375 220.16145 341.09375 220.16145Q341.82812 220.16145 342.25 219.73958Q342.67188 219.30208 342.67188 218.55208ZM342.4375 213.58333Q342.4375 212.92708 342.07812 212.52083Q341.73438 212.11458 341.09375 212.11458Q340.45312 212.11458 340.09375 212.5052Q339.75 212.89583 339.75 213.58333Q339.75 214.27083 340.09375 214.6927Q340.45312 215.09895 341.09375 215.09895Q341.73438 215.09895 342.07812 214.6927Q342.4375 214.27083 342.4375 213.58333Z" fill-rule="nonzero"/><path stroke="#93c47d" stroke-width="3.0" stroke-linejoin="round" stroke-linecap="round" d="M480.90625 182.4L480.90625 184.25937L480.6875 184.25937Q479.15625 184.29062 478.21875 185.07187Q477.28125 185.8375 477.09375 187.2125Q478.0 186.29062 479.39062 186.29062Q480.875 186.29062 481.75 187.35312Q482.625 188.41562 482.625 190.15Q482.625 191.25937 482.14062 192.16562Q481.65625 193.05624 480.78125 193.55624Q479.90625 194.05624 478.79688 194.05624Q477.0 194.05624 475.89062 192.80624Q474.78125 191.55624 474.78125 189.4625L474.78125 188.65Q474.78125 186.80624 475.48438 185.38437Q476.1875 183.9625 477.48438 183.19687Q478.79688 182.41562 480.53125 182.4L480.90625 182.4ZM478.70312 188.10312Q478.15625 188.10312 477.70312 188.38437Q477.26562 188.66562 477.04688 189.13437L477.04688 189.82187Q477.04688 190.9625 477.48438 191.60312Q477.9375 192.22812 478.75 192.22812Q479.46875 192.22812 479.92188 191.66562Q480.375 191.0875 480.375 190.16562Q480.375 189.24374 479.92188 188.68124Q479.46875 188.10312 478.70312 188.10312ZM491.4375 189.19687Q491.4375 191.55624 490.45312 192.80624Q489.48438 194.05624 487.59375 194.05624Q485.73438 194.05624 484.75 192.8375Q483.76562 191.60312 483.75 189.30624L483.75 187.2125Q483.75 184.8375 484.73438 183.60312Q485.71875 182.36874 487.57812 182.36874Q489.4375 182.36874 490.42188 183.5875Q491.40625 184.80624 491.4375 187.10312L491.4375 189.19687ZM489.17188 186.9Q489.17188 185.47812 488.78125 184.8375Q488.40625 184.19687 487.57812 184.19687Q486.78125 184.19687 486.40625 184.80624Q486.03125 185.41562 486.0 186.72812L486.0 189.49374Q486.0 190.88437 486.375 191.55624Q486.76562 192.22812 487.59375 192.22812Q488.42188 192.22812 488.78125 191.5875Q489.15625 190.93124 489.17188 189.60312L489.17188 186.9Z" fill-rule="nonzero"/><path fill="#000000" d="M480.90625 182.4L480.90625 184.25937L480.6875 184.25937Q479.15625 184.29062 478.21875 185.07187Q477.28125 185.8375 477.09375 187.2125Q478.0 186.29062 479.39062 186.29062Q480.875 186.29062 481.75 187.35312Q482.625 188.41562 482.625 190.15Q482.625 191.25937 482.14062 192.16562Q481.65625 193.05624 480.78125 193.55624Q479.90625 194.05624 478.79688 194.05624Q477.0 194.05624 475.89062 192.80624Q474.78125 191.55624 474.78125 189.4625L474.78125 188.65Q474.78125 186.80624 475.48438 185.38437Q476.1875 183.9625 477.48438 183.19687Q478.79688 182.41562 480.53125 182.4L480.90625 182.4ZM478.70312 188.10312Q478.15625 188.10312 477.70312 188.38437Q477.26562 188.66562 477.04688 189.13437L477.04688 189.82187Q477.04688 190.9625 477.48438 191.60312Q477.9375 192.22812 478.75 192.22812Q479.46875 192.22812 479.92188 191.66562Q480.375 191.0875 480.375 190.16562Q480.375 189.24374 479.92188 188.68124Q479.46875 188.10312 478.70312 188.10312ZM491.4375 189.19687Q491.4375 191.55624 490.45312 192.80624Q489.48438 194.05624 487.59375 194.05624Q485.73438 194.05624 484.75 192.8375Q483.76562 191.60312 483.75 189.30624L483.75 187.2125Q483.75 184.8375 484.73438 183.60312Q485.71875 182.36874 487.57812 182.36874Q489.4375 182.36874 490.42188 183.5875Q491.40625 184.80624 491.4375 187.10312L491.4375 189.19687ZM489.17188 186.9Q489.17188 185.47812 488.78125 184.8375Q488.40625 184.19687 487.57812 184.19687Q486.78125 184.19687 486.40625 184.80624Q486.03125 185.41562 486.0 186.72812L486.0 189.49374Q486.0 190.88437 486.375 191.55624Q486.76562 192.22812 487.59375 192.22812Q488.42188 192.22812 488.78125 191.5875Q489.15625 190.93124 489.17188 189.60312L489.17188 186.9Z" fill-rule="nonzero"/><path stroke="#93c47d" stroke-width="3.0" stroke-linejoin="round" stroke-linecap="round" d="M617.7656 96.566666L615.5 96.566666L615.5 87.86354L612.8125 88.691666L612.8125 86.86354L617.5156 85.17604L617.7656 85.17604L617.7656 96.566666ZM623.5781 89.879166L624.78125 89.879166Q625.6406 89.879166 626.0469 89.45729Q626.46875 89.01979 626.46875 88.30104Q626.46875 87.61354 626.0469 87.23854Q625.6406 86.847916 624.9219 86.847916Q624.28125 86.847916 623.84375 87.20729Q623.40625 87.566666 623.40625 88.129166L621.1406 88.129166Q621.1406 87.23854 621.625 86.535416Q622.1094 85.83229 622.96875 85.441666Q623.8281 85.035416 624.875 85.035416Q626.6719 85.035416 627.6875 85.89479Q628.71875 86.754166 628.71875 88.26979Q628.71875 89.05104 628.2344 89.70729Q627.7656 90.36354 627.0 90.722916Q627.9531 91.066666 628.4219 91.754166Q628.90625 92.441666 628.90625 93.379166Q628.90625 94.89479 627.7969 95.816666Q626.6875 96.722916 624.875 96.722916Q623.1719 96.722916 622.0781 95.83229Q621.0 94.92604 621.0 93.441666L623.2656 93.441666Q623.2656 94.08229 623.7344 94.48854Q624.21875 94.89479 624.9219 94.89479Q625.7344 94.89479 626.1875 94.472916Q626.6406 94.05104 626.6406 93.347916Q626.6406 91.64479 624.7656 91.64479L623.5781 91.64479L623.5781 89.879166ZM632.5781 89.879166L633.78125 89.879166Q634.6406 89.879166 635.0469 89.45729Q635.46875 89.01979 635.46875 88.30104Q635.46875 87.61354 635.0469 87.23854Q634.6406 86.847916 633.9219 86.847916Q633.28125 86.847916 632.84375 87.20729Q632.40625 87.566666 632.40625 88.129166L630.1406 88.129166Q630.1406 87.23854 630.625 86.535416Q631.1094 85.83229 631.96875 85.441666Q632.8281 85.035416 633.875 85.035416Q635.6719 85.035416 636.6875 85.89479Q637.71875 86.754166 637.71875 88.26979Q637.71875 89.05104 637.2344 89.70729Q636.7656 90.36354 636.0 90.722916Q636.9531 91.066666 637.4219 91.754166Q637.90625 92.441666 637.90625 93.379166Q637.90625 94.89479 636.7969 95.816666Q635.6875 96.722916 633.875 96.722916Q632.1719 96.722916 631.0781 95.83229Q630.0 94.92604 630.0 93.441666L632.2656 93.441666Q632.2656 94.08229 632.7344 94.48854Q633.21875 94.89479 633.9219 94.89479Q634.7344 94.89479 635.1875 94.472916Q635.6406 94.05104 635.6406 93.347916Q635.6406 91.64479 633.7656 91.64479L632.5781 91.64479L632.5781 89.879166Z" fill-rule="nonzero"/><path fill="#000000" d="M617.7656 96.566666L615.5 96.566666L615.5 87.86354L612.8125 88.691666L612.8125 86.86354L617.5156 85.17604L617.7656 85.17604L617.7656 96.566666ZM623.5781 89.879166L624.78125 89.879166Q625.6406 89.879166 626.0469 89.45729Q626.46875 89.01979 626.46875 88.30104Q626.46875 87.61354 626.0469 87.23854Q625.6406 86.847916 624.9219 86.847916Q624.28125 86.847916 623.84375 87.20729Q623.40625 87.566666 623.40625 88.129166L621.1406 88.129166Q621.1406 87.23854 621.625 86.535416Q622.1094 85.83229 622.96875 85.441666Q623.8281 85.035416 624.875 85.035416Q626.6719 85.035416 627.6875 85.89479Q628.71875 86.754166 628.71875 88.26979Q628.71875 89.05104 628.2344 89.70729Q627.7656 90.36354 627.0 90.722916Q627.9531 91.066666 628.4219 91.754166Q628.90625 92.441666 628.90625 93.379166Q628.90625 94.89479 627.7969 95.816666Q626.6875 96.722916 624.875 96.722916Q623.1719 96.722916 622.0781 95.83229Q621.0 94.92604 621.0 93.441666L623.2656 93.441666Q623.2656 94.08229 623.7344 94.48854Q624.21875 94.89479 624.9219 94.89479Q625.7344 94.89479 626.1875 94.472916Q626.6406 94.05104 626.6406 93.347916Q626.6406 91.64479 624.7656 91.64479L623.5781 91.64479L623.5781 89.879166ZM632.5781 89.879166L633.78125 89.879166Q634.6406 89.879166 635.0469 89.45729Q635.46875 89.01979 635.46875 88.30104Q635.46875 87.61354 635.0469 87.23854Q634.6406 86.847916 633.9219 86.847916Q633.28125 86.847916 632.84375 87.20729Q632.40625 87.566666 632.40625 88.129166L630.1406 88.129166Q630.1406 87.23854 630.625 86.535416Q631.1094 85.83229 631.96875 85.441666Q632.8281 85.035416 633.875 85.035416Q635.6719 85.035416 636.6875 85.89479Q637.71875 86.754166 637.71875 88.26979Q637.71875 89.05104 637.2344 89.70729Q636.7656 90.36354 636.0 90.722916Q636.9531 91.066666 637.4219 91.754166Q637.90625 92.441666 637.90625 93.379166Q637.90625 94.89479 636.7969 95.816666Q635.6875 96.722916 633.875 96.722916Q632.1719 96.722916 631.0781 95.83229Q630.0 94.92604 630.0 93.441666L632.2656 93.441666Q632.2656 94.08229 632.7344 94.48854Q633.21875 94.89479 633.9219 94.89479Q634.7344 94.89479 635.1875 94.472916Q635.6406 94.05104 635.6406 93.347916Q635.6406 91.64479 633.7656 91.64479L632.5781 91.64479L632.5781 89.879166Z" fill-rule="nonzero"/><path stroke="#93c47d" stroke-width="3.0" stroke-linejoin="round" stroke-linecap="round" d="M764.90625 182.4L764.90625 184.25937L764.6875 184.25937Q763.15625 184.29062 762.21875 185.07187Q761.28125 185.8375 761.09375 187.2125Q762.0 186.29062 763.3906 186.29062Q764.875 186.29062 765.75 187.35312Q766.625 188.41562 766.625 190.15Q766.625 191.25937 766.1406 192.16562Q765.65625 193.05624 764.78125 193.55624Q763.90625 194.05624 762.7969 194.05624Q761.0 194.05624 759.8906 192.80624Q758.78125 191.55624 758.78125 189.4625L758.78125 188.65Q758.78125 186.80624 759.4844 185.38437Q760.1875 183.9625 761.4844 183.19687Q762.7969 182.41562 764.53125 182.4L764.90625 182.4ZM762.7031 188.10312Q762.15625 188.10312 761.7031 188.38437Q761.2656 188.66562 761.0469 189.13437L761.0469 189.82187Q761.0469 190.9625 761.4844 191.60312Q761.9375 192.22812 762.75 192.22812Q763.46875 192.22812 763.9219 191.66562Q764.375 191.0875 764.375 190.16562Q764.375 189.24374 763.9219 188.68124Q763.46875 188.10312 762.7031 188.10312ZM775.4375 189.19687Q775.4375 191.55624 774.4531 192.80624Q773.4844 194.05624 771.59375 194.05624Q769.7344 194.05624 768.75 192.8375Q767.7656 191.60312 767.75 189.30624L767.75 187.2125Q767.75 184.8375 768.7344 183.60312Q769.71875 182.36874 771.5781 182.36874Q773.4375 182.36874 774.4219 183.5875Q775.40625 184.80624 775.4375 187.10312L775.4375 189.19687ZM773.1719 186.9Q773.1719 185.47812 772.78125 184.8375Q772.40625 184.19687 771.5781 184.19687Q770.78125 184.19687 770.40625 184.80624Q770.03125 185.41562 770.0 186.72812L770.0 189.49374Q770.0 190.88437 770.375 191.55624Q770.7656 192.22812 771.59375 192.22812Q772.4219 192.22812 772.78125 191.5875Q773.15625 190.93124 773.1719 189.60312L773.1719 186.9Z" fill-rule="nonzero"/><path fill="#000000" d="M764.90625 182.4L764.90625 184.25937L764.6875 184.25937Q763.15625 184.29062 762.21875 185.07187Q761.28125 185.8375 761.09375 187.2125Q762.0 186.29062 763.3906 186.29062Q764.875 186.29062 765.75 187.35312Q766.625 188.41562 766.625 190.15Q766.625 191.25937 766.1406 192.16562Q765.65625 193.05624 764.78125 193.55624Q763.90625 194.05624 762.7969 194.05624Q761.0 194.05624 759.8906 192.80624Q758.78125 191.55624 758.78125 189.4625L758.78125 188.65Q758.78125 186.80624 759.4844 185.38437Q760.1875 183.9625 761.4844 183.19687Q762.7969 182.41562 764.53125 182.4L764.90625 182.4ZM762.7031 188.10312Q762.15625 188.10312 761.7031 188.38437Q761.2656 188.66562 761.0469 189.13437L761.0469 189.82187Q761.0469 190.9625 761.4844 191.60312Q761.9375 192.22812 762.75 192.22812Q763.46875 192.22812 763.9219 191.66562Q764.375 191.0875 764.375 190.16562Q764.375 189.24374 763.9219 188.68124Q763.46875 188.10312 762.7031 188.10312ZM775.4375 189.19687Q775.4375 191.55624 774.4531 192.80624Q773.4844 194.05624 771.59375 194.05624Q769.7344 194.05624 768.75 192.8375Q767.7656 191.60312 767.75 189.30624L767.75 187.2125Q767.75 184.8375 768.7344 183.60312Q769.71875 182.36874 771.5781 182.36874Q773.4375 182.36874 774.4219 183.5875Q775.40625 184.80624 775.4375 187.10312L775.4375 189.19687ZM773.1719 186.9Q773.1719 185.47812 772.78125 184.8375Q772.40625 184.19687 771.5781 184.19687Q770.78125 184.19687 770.40625 184.80624Q770.03125 185.41562 770.0 186.72812L770.0 189.49374Q770.0 190.88437 770.375 191.55624Q770.7656 192.22812 771.59375 192.22812Q772.4219 192.22812 772.78125 191.5875Q773.15625 190.93124 773.1719 189.60312L773.1719 186.9Z" fill-rule="nonzero"/><path fill="#000000" d="M30.75 216.64062L30.75 219.96875L36.5 219.96875L36.5 221.85938L22.28125 221.85938L22.28125 217.15625Q22.28125 214.75 23.375 213.45312Q24.46875 212.15625 26.5625 212.15625Q27.890625 212.15625 28.875 212.875Q29.859375 213.59375 30.34375 214.875L36.375 211.53125L36.5 211.53125L36.5 213.54688L30.75 216.64062ZM29.21875 219.96875L29.21875 217.09375Q29.21875 215.70312 28.5 214.875Q27.765625 214.04688 26.5625 214.04688Q25.234375 214.04688 24.53125 214.84375Q23.828125 215.625 23.828125 217.10938L23.828125 219.96875L29.21875 219.96875ZM36.703125 205.75Q36.703125 207.89062 35.296875 209.25Q33.875 210.59375 31.515625 210.59375L31.171875 210.59375Q29.609375 210.59375 28.375 210.0Q27.140625 209.39062 26.4375 208.3125Q25.734375 207.23438 25.734375 205.96875Q25.734375 203.90625 27.09375 202.76562Q28.453125 201.625 30.984375 201.625L31.734375 201.625L31.734375 208.78125Q33.296875 208.75 34.265625 207.875Q35.21875 207.0 35.21875 205.65625Q35.21875 204.6875 34.828125 204.03125Q34.4375 203.35938 33.796875 202.85938L34.65625 201.76562Q36.703125 203.09375 36.703125 205.75ZM27.21875 205.96875Q27.21875 207.0625 28.015625 207.8125Q28.8125 208.54688 30.25 208.71875L30.25 203.4375L30.109375 203.4375Q28.734375 203.51562 27.984375 204.1875Q27.21875 204.84375 27.21875 205.96875ZM33.703125 192.98438Q32.96875 192.98438 32.5625 193.53125Q32.15625 194.07812 31.859375 195.45312Q31.5625 196.82812 31.15625 197.64062Q30.75 198.4375 30.1875 198.82812Q29.609375 199.20312 28.828125 199.20312Q27.53125 199.20312 26.640625 198.10938Q25.734375 197.01562 25.734375 195.29688Q25.734375 193.5 26.671875 192.39062Q27.59375 191.26562 29.03125 191.26562L29.03125 193.09375Q28.296875 193.09375 27.765625 193.71875Q27.21875 194.34375 27.21875 195.29688Q27.21875 196.29688 27.65625 196.85938Q28.078125 197.40625 28.78125 197.40625Q29.421875 197.40625 29.765625 196.89062Q30.09375 196.375 30.40625 195.01562Q30.703125 193.65625 31.125 192.82812Q31.53125 191.98438 32.125 191.57812Q32.71875 191.17188 33.5625 191.17188Q34.984375 191.17188 35.84375 192.3125Q36.703125 193.4375 36.703125 195.25Q36.703125 196.51562 36.25 197.5Q35.796875 198.46875 35.0 199.03125Q34.1875 199.57812 33.25 199.57812L33.25 197.76562Q34.15625 197.71875 34.6875 197.04688Q35.21875 196.35938 35.21875 195.25Q35.21875 194.21875 34.8125 193.60938Q34.390625 192.98438 33.703125 192.98438ZM31.328125 180.20312Q33.75 180.20312 35.234375 181.3125Q36.703125 182.40625 36.703125 184.29688Q36.703125 186.21875 35.46875 187.32812L40.5625 187.32812L40.5625 189.125L25.9375 189.125L25.9375 187.48438L27.109375 187.39062Q25.734375 186.29688 25.734375 184.32812Q25.734375 182.42188 27.171875 181.3125Q28.609375 180.20312 31.171875 180.20312L31.328125 180.20312ZM31.125 182.01562Q29.34375 182.01562 28.3125 182.78125Q27.265625 183.53125 27.265625 184.85938Q27.265625 186.5 28.71875 187.32812L33.78125 187.32812Q35.21875 186.51562 35.21875 184.84375Q35.21875 183.54688 34.1875 182.78125Q33.15625 182.01562 31.125 182.01562ZM31.125 178.60938Q29.5625 178.60938 28.328125 178.0Q27.078125 177.39062 26.40625 176.3125Q25.734375 175.21875 25.734375 173.8125Q25.734375 171.65625 27.234375 170.32812Q28.71875 168.98438 31.203125 168.98438L31.328125 168.98438Q32.875 168.98438 34.109375 169.57812Q35.328125 170.17188 36.015625 171.28125Q36.703125 172.375 36.703125 173.79688Q36.703125 175.9375 35.203125 177.28125Q33.703125 178.60938 31.25 178.60938L31.125 178.60938ZM31.328125 176.79688Q33.09375 176.79688 34.15625 175.98438Q35.21875 175.15625 35.21875 173.79688Q35.21875 172.42188 34.140625 171.60938Q33.0625 170.79688 31.125 170.79688Q29.375 170.79688 28.296875 171.625Q27.21875 172.45312 27.21875 173.8125Q27.21875 175.15625 28.28125 175.98438Q29.34375 176.79688 31.328125 176.79688ZM25.9375 165.42188L27.265625 165.35938Q25.734375 164.15625 25.734375 162.20312Q25.734375 158.84375 29.515625 158.82812L36.5 158.82812L36.5 160.625L29.5 160.625Q28.359375 160.64062 27.8125 161.15625Q27.265625 161.65625 27.265625 162.75Q27.265625 163.625 27.734375 164.29688Q28.203125 164.95312 28.96875 165.32812L36.5 165.32812L36.5 167.125L25.9375 167.125L25.9375 165.42188ZM33.703125 149.98438Q32.96875 149.98438 32.5625 150.53125Q32.15625 151.07812 31.859375 152.45312Q31.5625 153.82812 31.15625 154.64062Q30.75 155.4375 30.1875 155.82812Q29.609375 156.20312 28.828125 156.20312Q27.53125 156.20312 26.640625 155.10938Q25.734375 154.01562 25.734375 152.29688Q25.734375 150.5 26.671875 149.39062Q27.59375 148.26562 29.03125 148.26562L29.03125 150.09375Q28.296875 150.09375 27.765625 150.71875Q27.21875 151.34375 27.21875 152.29688Q27.21875 153.29688 27.65625 153.85938Q28.078125 154.40625 28.78125 154.40625Q29.421875 154.40625 29.765625 153.89062Q30.09375 153.375 30.40625 152.01562Q30.703125 150.65625 31.125 149.82812Q31.53125 148.98438 32.125 148.57812Q32.71875 148.17188 33.5625 148.17188Q34.984375 148.17188 35.84375 149.3125Q36.703125 150.4375 36.703125 152.25Q36.703125 153.51562 36.25 154.5Q35.796875 155.46875 35.0 156.03125Q34.1875 156.57812 33.25 156.57812L33.25 154.76562Q34.15625 154.71875 34.6875 154.04688Q35.21875 153.35938 35.21875 152.25Q35.21875 151.21875 34.8125 150.60938Q34.390625 149.98438 33.703125 149.98438ZM36.703125 141.75Q36.703125 143.89062 35.296875 145.25Q33.875 146.59375 31.515625 146.59375L31.171875 146.59375Q29.609375 146.59375 28.375 146.0Q27.140625 145.39062 26.4375 144.3125Q25.734375 143.23438 25.734375 141.96875Q25.734375 139.90625 27.09375 138.76562Q28.453125 137.625 30.984375 137.625L31.734375 137.625L31.734375 144.78125Q33.296875 144.75 34.265625 143.875Q35.21875 143.0 35.21875 141.65625Q35.21875 140.6875 34.828125 140.03125Q34.4375 139.35938 33.796875 138.85938L34.65625 137.76562Q36.703125 139.09375 36.703125 141.75ZM27.21875 141.96875Q27.21875 143.0625 28.015625 143.8125Q28.8125 144.54688 30.25 144.71875L30.25 139.4375L30.109375 139.4375Q28.734375 139.51562 27.984375 140.1875Q27.21875 140.84375 27.21875 141.96875ZM33.703125 128.98438Q32.96875 128.98438 32.5625 129.53125Q32.15625 130.07812 31.859375 131.45312Q31.5625 132.82812 31.15625 133.64062Q30.75 134.4375 30.1875 134.82812Q29.609375 135.20312 28.828125 135.20312Q27.53125 135.20312 26.640625 134.10938Q25.734375 133.01562 25.734375 131.29688Q25.734375 129.5 26.671875 128.39062Q27.59375 127.265625 29.03125 127.265625L29.03125 129.09375Q28.296875 129.09375 27.765625 129.71875Q27.21875 130.34375 27.21875 131.29688Q27.21875 132.29688 27.65625 132.85938Q28.078125 133.40625 28.78125 133.40625Q29.421875 133.40625 29.765625 132.89062Q30.09375 132.375 30.40625 131.01562Q30.703125 129.65625 31.125 128.82812Q31.53125 127.984375 32.125 127.578125Q32.71875 127.171875 33.5625 127.171875Q34.984375 127.171875 35.84375 128.3125Q36.703125 129.4375 36.703125 131.25Q36.703125 132.51562 36.25 133.5Q35.796875 134.46875 35.0 135.03125Q34.1875 135.57812 33.25 135.57812L33.25 133.76562Q34.15625 133.71875 34.6875 133.04688Q35.21875 132.35938 35.21875 131.25Q35.21875 130.21875 34.8125 129.60938Q34.390625 128.98438 33.703125 128.98438Z" fill-rule="nonzero"/><path fill="#000000" d="M103.59375 230.4375Q103.59375 233.60938 102.515625 235.15625Q101.4375 236.70312 99.125 236.70312Q96.84375 236.70312 95.75 235.1875Q94.65625 233.67188 94.625 230.67188L94.625 228.26562Q94.625 225.125 95.703125 223.60938Q96.796875 222.07812 99.109375 222.07812Q101.40625 222.07812 102.484375 223.5625Q103.5625 225.03125 103.59375 228.09375L103.59375 230.4375ZM101.796875 227.96875Q101.796875 225.67188 101.140625 224.625Q100.5 223.5625 99.109375 223.5625Q97.71875 223.5625 97.078125 224.60938Q96.453125 225.65625 96.4375 227.82812L96.4375 230.71875Q96.4375 233.01562 97.09375 234.125Q97.765625 235.21875 99.125 235.21875Q100.46875 235.21875 101.109375 234.1875Q101.765625 233.15625 101.796875 230.92188L101.796875 227.96875Z" fill-rule="nonzero"/><path fill="#000000" d="M84.515625 162.70833L85.234375 155.61458L92.515625 155.61458L92.515625 157.28645L86.765625 157.28645L86.34375 161.16145Q87.390625 160.55208 88.71875 160.55208Q90.65625 160.55208 91.796875 161.83333Q92.9375 163.11458 92.9375 165.30208Q92.9375 167.5052 91.75 168.77083Q90.5625 170.03645 88.4375 170.03645Q86.546875 170.03645 85.359375 168.98958Q84.171875 167.9427 84.0 166.09895L85.71875 166.09895Q85.875 167.3177 86.578125 167.9427Q87.28125 168.55208 88.4375 168.55208Q89.703125 168.55208 90.421875 167.6927Q91.140625 166.83333 91.140625 165.3177Q91.140625 163.89583 90.359375 163.03645Q89.578125 162.16145 88.296875 162.16145Q87.109375 162.16145 86.4375 162.67708L85.953125 163.0677L84.515625 162.70833ZM103.59375 163.77083Q103.59375 166.9427 102.515625 168.48958Q101.4375 170.03645 99.125 170.03645Q96.84375 170.03645 95.75 168.52083Q94.65625 167.0052 94.625 164.0052L94.625 161.59895Q94.625 158.45833 95.703125 156.9427Q96.796875 155.41145 99.109375 155.41145Q101.40625 155.41145 102.484375 156.89583Q103.5625 158.36458 103.59375 161.42708L103.59375 163.77083ZM101.796875 161.30208Q101.796875 159.0052 101.140625 157.95833Q100.5 156.89583 99.109375 156.89583Q97.71875 156.89583 97.078125 157.9427Q96.453125 158.98958 96.4375 161.16145L96.4375 164.05208Q96.4375 166.34895 97.09375 167.45833Q97.765625 168.55208 99.125 168.55208Q100.46875 168.55208 101.109375 167.52083Q101.765625 166.48958 101.796875 164.2552L101.796875 161.30208Z" fill-rule="nonzero"/><path fill="#000000" d="M78.625 103.166664L76.796875 103.166664L76.796875 91.11979L73.15625 92.46354L73.15625 90.822914L78.34375 88.885414L78.625 88.885414L78.625 103.166664ZM92.59375 97.104164Q92.59375 100.27604 91.515625 101.822914Q90.4375 103.36979 88.125 103.36979Q85.84375 103.36979 84.75 101.854164Q83.65625 100.33854 83.625 97.33854L83.625 94.93229Q83.625 91.791664 84.703125 90.27604Q85.796875 88.74479 88.109375 88.74479Q90.40625 88.74479 91.484375 90.229164Q92.5625 91.697914 92.59375 94.760414L92.59375 97.104164ZM90.796875 94.635414Q90.796875 92.33854 90.140625 91.291664Q89.5 90.229164 88.109375 90.229164Q86.71875 90.229164 86.078125 91.27604Q85.453125 92.322914 85.4375 94.49479L85.4375 97.385414Q85.4375 99.68229 86.09375 100.791664Q86.765625 101.885414 88.125 101.885414Q89.46875 101.885414 90.109375 100.854164Q90.765625 99.822914 90.796875 97.58854L90.796875 94.635414ZM103.59375 97.104164Q103.59375 100.27604 102.515625 101.822914Q101.4375 103.36979 99.125 103.36979Q96.84375 103.36979 95.75 101.854164Q94.65625 100.33854 94.625 97.33854L94.625 94.93229Q94.625 91.791664 95.703125 90.27604Q96.796875 88.74479 99.109375 88.74479Q101.40625 88.74479 102.484375 90.229164Q103.5625 91.697914 103.59375 94.760414L103.59375 97.104164ZM101.796875 94.635414Q101.796875 92.33854 101.140625 91.291664Q100.5 90.229164 99.109375 90.229164Q97.71875 90.229164 97.078125 91.27604Q96.453125 92.322914 96.4375 94.49479L96.4375 97.385414Q96.4375 99.68229 97.09375 100.791664Q97.765625 101.885414 99.125 101.885414Q100.46875 101.885414 101.109375 100.854164Q101.765625 99.822914 101.796875 97.58854L101.796875 94.635414Z" fill-rule="nonzero"/><path fill="#000000" d="M78.625 36.5L76.796875 36.5L76.796875 24.453125L73.15625 25.796875L73.15625 24.15625L78.34375 22.21875L78.625 22.21875L78.625 36.5ZM84.515625 29.375L85.234375 22.28125L92.515625 22.28125L92.515625 23.953125L86.765625 23.953125L86.34375 27.828125Q87.390625 27.21875 88.71875 27.21875Q90.65625 27.21875 91.796875 28.5Q92.9375 29.78125 92.9375 31.96875Q92.9375 34.171875 91.75 35.4375Q90.5625 36.703125 88.4375 36.703125Q86.546875 36.703125 85.359375 35.65625Q84.171875 34.609375 84.0 32.765625L85.71875 32.765625Q85.875 33.984375 86.578125 34.609375Q87.28125 35.21875 88.4375 35.21875Q89.703125 35.21875 90.421875 34.359375Q91.140625 33.5 91.140625 31.984375Q91.140625 30.5625 90.359375 29.703125Q89.578125 28.828125 88.296875 28.828125Q87.109375 28.828125 86.4375 29.34375L85.953125 29.734375L84.515625 29.375ZM103.59375 30.4375Q103.59375 33.609375 102.515625 35.15625Q101.4375 36.703125 99.125 36.703125Q96.84375 36.703125 95.75 35.1875Q94.65625 33.671875 94.625 30.671875L94.625 28.265625Q94.625 25.125 95.703125 23.609375Q96.796875 22.078125 99.109375 22.078125Q101.40625 22.078125 102.484375 23.5625Q103.5625 25.03125 103.59375 28.09375L103.59375 30.4375ZM101.796875 27.96875Q101.796875 25.671875 101.140625 24.625Q100.5 23.5625 99.109375 23.5625Q97.71875 23.5625 97.078125 24.609375Q96.453125 25.65625 96.4375 27.828125L96.4375 30.71875Q96.4375 33.015625 97.09375 34.125Q97.765625 35.21875 99.125 35.21875Q100.46875 35.21875 101.109375 34.1875Q101.765625 33.15625 101.796875 30.921875L101.796875 27.96875Z" fill-rule="nonzero"/><path fill="#000000" d="M170.55972 270.70312L174.7316 281.14062L178.9191 270.70312L181.1066 270.70312L181.1066 283.5L179.4191 283.5L179.4191 278.51562L179.57535 273.14062L175.37222 283.5L174.09097 283.5L169.88785 273.15625L170.05972 278.51562L170.05972 283.5L168.37222 283.5L168.37222 270.70312L170.55972 270.70312ZM185.88785 283.5L184.26285 283.5L184.26285 273.98438L185.88785 273.98438L185.88785 283.5ZM184.12222 271.46875Q184.12222 271.07812 184.3566 270.8125Q184.6066 270.53125 185.07535 270.53125Q185.55972 270.53125 185.80972 270.8125Q186.05972 271.07812 186.05972 271.46875Q186.05972 271.85938 185.80972 272.125Q185.55972 272.39062 185.07535 272.39062Q184.6066 272.39062 184.3566 272.125Q184.12222 271.85938 184.12222 271.46875ZM189.65347 273.98438L189.71597 275.1875Q190.7941 273.8125 192.55972 273.8125Q195.57535 273.8125 195.59097 277.21875L195.59097 283.5L193.96597 283.5L193.96597 277.20312Q193.96597 276.17188 193.49722 275.6875Q193.0441 275.1875 192.05972 275.1875Q191.27847 275.1875 190.6691 275.60938Q190.07535 276.03125 189.74722 276.71875L189.74722 283.5L188.12222 283.5L188.12222 273.98438L189.65347 273.98438ZM199.88785 283.5L198.26285 283.5L198.26285 273.98438L199.88785 273.98438L199.88785 283.5ZM198.12222 271.46875Q198.12222 271.07812 198.3566 270.8125Q198.6066 270.53125 199.07535 270.53125Q199.55972 270.53125 199.80972 270.8125Q200.05972 271.07812 200.05972 271.46875Q200.05972 271.85938 199.80972 272.125Q199.55972 272.39062 199.07535 272.39062Q198.6066 272.39062 198.3566 272.125Q198.12222 271.85938 198.12222 271.46875ZM203.65347 273.98438L203.68472 275.04688Q204.7316 273.8125 206.51285 273.8125Q208.51285 273.8125 209.2316 275.34375Q209.70035 274.65625 210.46597 274.23438Q211.2316 273.8125 212.26285 273.8125Q215.38785 273.8125 215.45035 277.125L215.45035 283.5L213.80972 283.5L213.80972 277.21875Q213.80972 276.20312 213.34097 275.70312Q212.88785 275.1875 211.7941 275.1875Q210.88785 275.1875 210.27847 275.73438Q209.68472 276.28125 209.59097 277.1875L209.59097 283.5L207.95035 283.5L207.95035 277.26562Q207.95035 275.1875 205.9191 275.1875Q204.32535 275.1875 203.7316 276.5625L203.7316 283.5L202.1066 283.5L202.1066 273.98438L203.65347 273.98438ZM223.99722 283.5Q223.8566 283.21875 223.76285 282.5Q222.62222 283.67188 221.05972 283.67188Q219.65347 283.67188 218.74722 282.875Q217.84097 282.07812 217.84097 280.85938Q217.84097 279.375 218.96597 278.5625Q220.1066 277.73438 222.15347 277.73438L223.7316 277.73438L223.7316 276.98438Q223.7316 276.14062 223.21597 275.64062Q222.71597 275.125 221.71597 275.125Q220.8566 275.125 220.26285 275.5625Q219.6691 276.0 219.6691 276.625L218.0441 276.625Q218.0441 275.92188 218.5441 275.26562Q219.0441 274.59375 219.90347 274.20312Q220.77847 273.8125 221.82535 273.8125Q223.46597 273.8125 224.38785 274.64062Q225.32535 275.45312 225.3566 276.90625L225.3566 281.28125Q225.3566 282.57812 225.70035 283.35938L225.70035 283.5L223.99722 283.5ZM221.2941 282.26562Q222.05972 282.26562 222.74722 281.875Q223.43472 281.46875 223.7316 280.84375L223.7316 278.89062L222.46597 278.89062Q219.46597 278.89062 219.46597 280.64062Q219.46597 281.40625 219.9816 281.84375Q220.49722 282.26562 221.2941 282.26562ZM229.88785 283.5L228.26285 283.5L228.26285 270.0L229.88785 270.0L229.88785 283.5Z" fill-rule="nonzero"/><path fill="#000000" d="M159.12222 299.54688L157.55972 301.17188L157.55972 305.5L155.87222 305.5L155.87222 292.70312L157.55972 292.70312L157.55972 299.03125L163.24722 292.70312L165.2941 292.70312L160.24722 298.35938L165.68472 305.5L163.65347 305.5L159.12222 299.54688ZM168.15347 295.98438L168.21597 297.1875Q169.2941 295.8125 171.05972 295.8125Q174.07535 295.8125 174.09097 299.21875L174.09097 305.5L172.46597 305.5L172.46597 299.20312Q172.46597 298.17188 171.99722 297.6875Q171.5441 297.1875 170.55972 297.1875Q169.77847 297.1875 169.1691 297.60938Q168.57535 298.03125 168.24722 298.71875L168.24722 305.5L166.62222 305.5L166.62222 295.98438L168.15347 295.98438ZM176.18472 300.65625Q176.18472 299.26562 176.7316 298.15625Q177.2941 297.03125 178.26285 296.42188Q179.24722 295.8125 180.49722 295.8125Q182.45035 295.8125 183.63785 297.15625Q184.84097 298.5 184.84097 300.73438L184.84097 300.84375Q184.84097 302.23438 184.30972 303.34375Q183.77847 304.4375 182.7941 305.0625Q181.80972 305.67188 180.52847 305.67188Q178.59097 305.67188 177.38785 304.32812Q176.18472 302.98438 176.18472 300.76562L176.18472 300.65625ZM177.82535 300.84375Q177.82535 302.4375 178.55972 303.39062Q179.2941 304.34375 180.52847 304.34375Q181.76285 304.34375 182.4816 303.375Q183.21597 302.40625 183.21597 300.65625Q183.21597 299.09375 182.46597 298.125Q181.7316 297.15625 180.49722 297.15625Q179.2941 297.15625 178.55972 298.10938Q177.82535 299.0625 177.82535 300.84375ZM195.0441 303.26562L196.87222 295.98438L198.49722 295.98438L195.7316 305.5L194.40347 305.5L192.09097 298.29688L189.84097 305.5L188.52847 305.5L185.76285 295.98438L187.38785 295.98438L189.26285 303.10938L191.46597 295.98438L192.77847 295.98438L195.0441 303.26562ZM202.38785 305.5L200.76285 305.5L200.76285 292.0L202.38785 292.0L202.38785 305.5ZM208.55972 305.67188Q206.63785 305.67188 205.4191 304.40625Q204.20035 303.14062 204.20035 301.01562L204.20035 300.70312Q204.20035 299.29688 204.74722 298.1875Q205.2941 297.07812 206.26285 296.45312Q207.2316 295.8125 208.3566 295.8125Q210.21597 295.8125 211.24722 297.03125Q212.27847 298.25 212.27847 300.53125L212.27847 301.20312L205.82535 301.20312Q205.87222 302.60938 206.65347 303.48438Q207.43472 304.34375 208.65347 304.34375Q209.51285 304.34375 210.1066 304.0Q210.71597 303.64062 211.15347 303.0625L212.15347 303.84375Q210.95035 305.67188 208.55972 305.67188ZM208.3566 297.15625Q207.37222 297.15625 206.70035 297.875Q206.0441 298.57812 205.88785 299.875L210.65347 299.875L210.65347 299.75Q210.57535 298.51562 209.9816 297.84375Q209.38785 297.15625 208.3566 297.15625ZM214.21597 300.67188Q214.21597 298.48438 215.24722 297.15625Q216.2941 295.8125 217.9816 295.8125Q219.65347 295.8125 220.62222 296.95312L220.62222 292.0L222.24722 292.0L222.24722 305.5L220.74722 305.5L220.6691 304.48438Q219.70035 305.67188 217.96597 305.67188Q216.30972 305.67188 215.26285 304.32812Q214.21597 302.96875 214.21597 300.78125L214.21597 300.67188ZM215.8566 300.84375Q215.8566 302.46875 216.51285 303.39062Q217.18472 304.29688 218.3566 304.29688Q219.90347 304.29688 220.62222 302.90625L220.62222 298.53125Q219.88785 297.1875 218.38785 297.1875Q217.18472 297.1875 216.51285 298.125Q215.8566 299.04688 215.8566 300.84375ZM224.2316 300.67188Q224.2316 298.4375 225.26285 297.125Q226.2941 295.8125 227.9816 295.8125Q229.7316 295.8125 230.70035 297.04688L230.77847 295.98438L232.26285 295.98438L232.26285 305.26562Q232.26285 307.125 231.1691 308.1875Q230.07535 309.25 228.2316 309.25Q227.20035 309.25 226.21597 308.79688Q225.2316 308.35938 224.71597 307.59375L225.55972 306.625Q226.6066 307.92188 228.12222 307.92188Q229.30972 307.92188 229.96597 307.25Q230.63785 306.57812 230.63785 305.375L230.63785 304.54688Q229.65347 305.67188 227.96597 305.67188Q226.2941 305.67188 225.26285 304.32812Q224.2316 302.98438 224.2316 300.67188ZM225.87222 300.84375Q225.87222 302.45312 226.52847 303.375Q227.18472 304.29688 228.37222 304.29688Q229.90347 304.29688 230.63785 302.89062L230.63785 298.5625Q229.88785 297.1875 228.38785 297.1875Q227.20035 297.1875 226.52847 298.125Q225.87222 299.04688 225.87222 300.84375ZM238.55972 305.67188Q236.63785 305.67188 235.4191 304.40625Q234.20035 303.14062 234.20035 301.01562L234.20035 300.70312Q234.20035 299.29688 234.74722 298.1875Q235.2941 297.07812 236.26285 296.45312Q237.2316 295.8125 238.3566 295.8125Q240.21597 295.8125 241.24722 297.03125Q242.27847 298.25 242.27847 300.53125L242.27847 301.20312L235.82535 301.20312Q235.87222 302.60938 236.65347 303.48438Q237.43472 304.34375 238.65347 304.34375Q239.51285 304.34375 240.1066 304.0Q240.71597 303.64062 241.15347 303.0625L242.15347 303.84375Q240.95035 305.67188 238.55972 305.67188ZM238.3566 297.15625Q237.37222 297.15625 236.70035 297.875Q236.0441 298.57812 235.88785 299.875L240.65347 299.875L240.65347 299.75Q240.57535 298.51562 239.9816 297.84375Q239.38785 297.15625 238.3566 297.15625Z" fill-rule="nonzero"/><path fill="#000000" d="M345.39706 283.5L337.00644 283.5L337.00644 282.32812L341.44394 277.40625Q342.4283 276.29688 342.7877 275.59375Q343.1627 274.89062 343.1627 274.14062Q343.1627 273.14062 342.5533 272.5Q341.95956 271.85938 340.94394 271.85938Q339.7252 271.85938 339.0533 272.5625Q338.38144 273.25 338.38144 274.46875L336.75644 274.46875Q336.75644 272.70312 337.89706 271.625Q339.0377 270.53125 340.94394 270.53125Q342.7252 270.53125 343.75644 271.46875Q344.8033 272.40625 344.8033 273.95312Q344.8033 275.84375 342.39706 278.45312L338.9752 282.17188L345.39706 282.17188L345.39706 283.5Z" fill-rule="nonzero"/><path fill="#000000" d="M481.42188 276.3125L482.65625 276.3125Q483.79688 276.29688 484.45312 275.70312Q485.125 275.10938 485.125 274.10938Q485.125 271.85938 482.875 271.85938Q481.82812 271.85938 481.1875 272.46875Q480.5625 273.0625 480.5625 274.0625L478.9375 274.0625Q478.9375 272.54688 480.04688 271.54688Q481.17188 270.53125 482.875 270.53125Q484.6875 270.53125 485.71875 271.48438Q486.75 272.4375 486.75 274.14062Q486.75 274.98438 486.20312 275.76562Q485.67188 276.54688 484.73438 276.9375Q485.78125 277.26562 486.35938 278.04688Q486.9375 278.8125 486.9375 279.9375Q486.9375 281.65625 485.8125 282.67188Q484.6875 283.67188 482.875 283.67188Q481.07812 283.67188 479.95312 282.70312Q478.82812 281.71875 478.82812 280.125L480.46875 280.125Q480.46875 281.14062 481.125 281.75Q481.78125 282.34375 482.89062 282.34375Q484.0625 282.34375 484.6875 281.73438Q485.3125 281.125 485.3125 279.96875Q485.3125 278.84375 484.625 278.25Q483.9375 277.65625 482.65625 277.64062L481.42188 277.64062L481.42188 276.3125Z" fill-rule="nonzero"/><path fill="#000000" d="M627.97797 279.20312L629.7592 279.20312L629.7592 280.53125L627.97797 280.53125L627.97797 283.5L626.35297 283.5L626.35297 280.53125L620.52484 280.53125L620.52484 279.57812L626.2592 270.70312L627.97797 270.70312L627.97797 279.20312ZM622.3686 279.20312L626.35297 279.20312L626.35297 272.92188L626.14984 273.28125L622.3686 279.20312Z" fill-rule="nonzero"/><path fill="#000000" d="M745.8621 277.79688Q743.69025 277.17188 742.7059 276.26562Q741.7215 275.35938 741.7215 274.01562Q741.7215 272.5 742.9246 271.51562Q744.1434 270.53125 746.06525 270.53125Q747.3934 270.53125 748.4246 271.04688Q749.4559 271.54688 750.0184 272.45312Q750.5809 273.34375 750.5809 274.40625L748.8934 274.40625Q748.8934 273.25 748.1434 272.59375Q747.409 271.92188 746.06525 271.92188Q744.81525 271.92188 744.1121 272.46875Q743.4246 273.01562 743.4246 273.98438Q743.4246 274.76562 744.0809 275.3125Q744.75275 275.85938 746.3465 276.3125Q747.94025 276.75 748.8309 277.29688Q749.7371 277.82812 750.1746 278.54688Q750.6121 279.26562 750.6121 280.25Q750.6121 281.79688 749.3934 282.73438Q748.19025 283.67188 746.159 283.67188Q744.8465 283.67188 743.69025 283.17188Q742.5496 282.67188 741.9246 281.79688Q741.31525 280.90625 741.31525 279.79688L743.0184 279.79688Q743.0184 280.95312 743.8621 281.625Q744.7215 282.29688 746.159 282.29688Q747.4871 282.29688 748.2059 281.75Q748.9246 281.20312 748.9246 280.26562Q748.9246 279.32812 748.25275 278.8125Q747.5965 278.29688 745.8621 277.79688ZM755.0496 271.6875L755.0496 273.98438L756.8309 273.98438L756.8309 275.25L755.0496 275.25L755.0496 281.14062Q755.0496 281.71875 755.284 282.0Q755.5184 282.28125 756.0965 282.28125Q756.37775 282.28125 756.8621 282.1875L756.8621 283.5Q756.2215 283.67188 755.62775 283.67188Q754.534 283.67188 753.9715 283.01562Q753.4246 282.35938 753.4246 281.14062L753.4246 275.25L751.69025 275.25L751.69025 273.98438L753.4246 273.98438L753.4246 271.6875L755.0496 271.6875ZM763.44025 275.45312Q763.06525 275.39062 762.6434 275.39062Q761.034 275.39062 760.4715 276.75L760.4715 283.5L758.8465 283.5L758.8465 273.98438L760.4246 273.98438L760.4559 275.09375Q761.25275 273.8125 762.7215 273.8125Q763.19025 273.8125 763.44025 273.9375L763.44025 275.45312ZM764.409 278.65625Q764.409 277.26562 764.9559 276.15625Q765.5184 275.03125 766.4871 274.42188Q767.4715 273.8125 768.7215 273.8125Q770.6746 273.8125 771.8621 275.15625Q773.06525 276.5 773.06525 278.73438L773.06525 278.84375Q773.06525 280.23438 772.534 281.34375Q772.00275 282.4375 771.0184 283.0625Q770.034 283.67188 768.75275 283.67188Q766.81525 283.67188 765.6121 282.32812Q764.409 280.98438 764.409 278.76562L764.409 278.65625ZM766.0496 278.84375Q766.0496 280.4375 766.784 281.39062Q767.5184 282.34375 768.75275 282.34375Q769.9871 282.34375 770.7059 281.375Q771.44025 280.40625 771.44025 278.65625Q771.44025 277.09375 770.69025 276.125Q769.9559 275.15625 768.7215 275.15625Q767.5184 275.15625 766.784 276.10938Q766.0496 277.0625 766.0496 278.84375ZM776.37775 273.98438L776.44025 275.1875Q777.5184 273.8125 779.284 273.8125Q782.2996 273.8125 782.31525 277.21875L782.31525 283.5L780.69025 283.5L780.69025 277.20312Q780.69025 276.17188 780.2215 275.6875Q779.7684 275.1875 778.784 275.1875Q778.00275 275.1875 777.3934 275.60938Q776.7996 276.03125 776.4715 276.71875L776.4715 283.5L774.8465 283.5L774.8465 273.98438L776.37775 273.98438ZM784.4559 278.67188Q784.4559 276.4375 785.4871 275.125Q786.5184 273.8125 788.2059 273.8125Q789.9559 273.8125 790.9246 275.04688L791.00275 273.98438L792.4871 273.98438L792.4871 283.26562Q792.4871 285.125 791.3934 286.1875Q790.2996 287.25 788.4559 287.25Q787.4246 287.25 786.44025 286.79688Q785.4559 286.35938 784.94025 285.59375L785.784 284.625Q786.8309 285.92188 788.3465 285.92188Q789.534 285.92188 790.19025 285.25Q790.8621 284.57812 790.8621 283.375L790.8621 282.54688Q789.87775 283.67188 788.19025 283.67188Q786.5184 283.67188 785.4871 282.32812Q784.4559 280.98438 784.4559 278.67188ZM786.0965 278.84375Q786.0965 280.45312 786.75275 281.375Q787.409 282.29688 788.5965 282.29688Q790.12775 282.29688 790.8621 280.89062L790.8621 276.5625Q790.1121 275.1875 788.6121 275.1875Q787.4246 275.1875 786.75275 276.125Q786.0965 277.04688 786.0965 278.84375Z" fill-rule="nonzero"/><path fill="#000000" d="M732.5184 301.4375Q732.2684 303.46875 731.00275 304.57812Q729.75275 305.67188 727.659 305.67188Q725.3934 305.67188 724.0184 304.04688Q722.659 302.42188 722.659 299.70312L722.659 298.46875Q722.659 296.6875 723.2996 295.34375Q723.94025 293.98438 725.0965 293.26562Q726.2684 292.53125 727.81525 292.53125Q729.8465 292.53125 731.0809 293.67188Q732.31525 294.79688 732.5184 296.8125L730.81525 296.8125Q730.5965 295.28125 729.8621 294.60938Q729.12775 293.92188 727.81525 293.92188Q726.19025 293.92188 725.2684 295.125Q724.3621 296.3125 724.3621 298.51562L724.3621 299.75Q724.3621 301.82812 725.2215 303.0625Q726.0965 304.29688 727.659 304.29688Q729.06525 304.29688 729.81525 303.65625Q730.56525 303.01562 730.81525 301.4375L732.5184 301.4375ZM734.409 300.65625Q734.409 299.26562 734.9559 298.15625Q735.5184 297.03125 736.4871 296.42188Q737.4715 295.8125 738.7215 295.8125Q740.6746 295.8125 741.8621 297.15625Q743.06525 298.5 743.06525 300.73438L743.06525 300.84375Q743.06525 302.23438 742.534 303.34375Q742.00275 304.4375 741.0184 305.0625Q740.034 305.67188 738.75275 305.67188Q736.81525 305.67188 735.6121 304.32812Q734.409 302.98438 734.409 300.76562L734.409 300.65625ZM736.0496 300.84375Q736.0496 302.4375 736.784 303.39062Q737.5184 304.34375 738.75275 304.34375Q739.9871 304.34375 740.7059 303.375Q741.44025 302.40625 741.44025 300.65625Q741.44025 299.09375 740.69025 298.125Q739.9559 297.15625 738.7215 297.15625Q737.5184 297.15625 736.784 298.10938Q736.0496 299.0625 736.0496 300.84375ZM746.37775 295.98438L746.44025 297.1875Q747.5184 295.8125 749.284 295.8125Q752.2996 295.8125 752.31525 299.21875L752.31525 305.5L750.69025 305.5L750.69025 299.20312Q750.69025 298.17188 750.2215 297.6875Q749.7684 297.1875 748.784 297.1875Q748.00275 297.1875 747.3934 297.60938Q746.7996 298.03125 746.4715 298.71875L746.4715 305.5L744.8465 305.5L744.8465 295.98438L746.37775 295.98438ZM758.659 304.34375Q759.534 304.34375 760.1746 303.82812Q760.8309 303.29688 760.8934 302.5L762.44025 302.5Q762.3934 303.3125 761.87775 304.0625Q761.3621 304.79688 760.4871 305.23438Q759.62775 305.67188 758.659 305.67188Q756.7215 305.67188 755.56525 304.375Q754.4246 303.07812 754.4246 300.82812L754.4246 300.5625Q754.4246 299.17188 754.9246 298.09375Q755.44025 297.01562 756.3934 296.42188Q757.3465 295.8125 758.6434 295.8125Q760.25275 295.8125 761.2996 296.78125Q762.3621 297.73438 762.44025 299.26562L760.8934 299.26562Q760.8309 298.34375 760.19025 297.75Q759.56525 297.15625 758.6434 297.15625Q757.409 297.15625 756.7215 298.04688Q756.0496 298.9375 756.0496 300.625L756.0496 300.92188Q756.0496 302.57812 756.7215 303.46875Q757.3934 304.34375 758.659 304.34375ZM767.784 305.67188Q765.8621 305.67188 764.6434 304.40625Q763.4246 303.14062 763.4246 301.01562L763.4246 300.70312Q763.4246 299.29688 763.9715 298.1875Q764.5184 297.07812 765.4871 296.45312Q766.4559 295.8125 767.5809 295.8125Q769.44025 295.8125 770.4715 297.03125Q771.50275 298.25 771.50275 300.53125L771.50275 301.20312L765.0496 301.20312Q765.0965 302.60938 765.87775 303.48438Q766.659 304.34375 767.87775 304.34375Q768.7371 304.34375 769.3309 304.0Q769.94025 303.64062 770.37775 303.0625L771.37775 303.84375Q770.1746 305.67188 767.784 305.67188ZM767.5809 297.15625Q766.5965 297.15625 765.9246 297.875Q765.2684 298.57812 765.1121 299.875L769.87775 299.875L769.87775 299.75Q769.7996 298.51562 769.2059 297.84375Q768.6121 297.15625 767.5809 297.15625ZM781.87775 300.84375Q781.87775 303.01562 780.87775 304.34375Q779.8934 305.67188 778.19025 305.67188Q776.4559 305.67188 775.4715 304.57812L775.4715 309.15625L773.8465 309.15625L773.8465 295.98438L775.3309 295.98438L775.409 297.04688Q776.3934 295.8125 778.1746 295.8125Q779.87775 295.8125 780.87775 297.10938Q781.87775 298.39062 781.87775 300.70312L781.87775 300.84375ZM780.25275 300.67188Q780.25275 299.0625 779.56525 298.125Q778.87775 297.1875 777.69025 297.1875Q776.2059 297.1875 775.4715 298.5L775.4715 303.04688Q776.2059 304.34375 777.7059 304.34375Q778.87775 304.34375 779.56525 303.42188Q780.25275 302.5 780.25275 300.67188ZM786.0496 293.6875L786.0496 295.98438L787.8309 295.98438L787.8309 297.25L786.0496 297.25L786.0496 303.14062Q786.0496 303.71875 786.284 304.0Q786.5184 304.28125 787.0965 304.28125Q787.37775 304.28125 787.8621 304.1875L787.8621 305.5Q787.2215 305.67188 786.62775 305.67188Q785.534 305.67188 784.9715 305.01562Q784.4246 304.35938 784.4246 303.14062L784.4246 297.25L782.69025 297.25L782.69025 295.98438L784.4246 295.98438L784.4246 293.6875L786.0496 293.6875ZM795.7215 304.5625Q794.7684 305.67188 792.9246 305.67188Q791.409 305.67188 790.6121 304.79688Q789.81525 303.90625 789.81525 302.17188L789.81525 295.98438L791.44025 295.98438L791.44025 302.14062Q791.44025 304.29688 793.19025 304.29688Q795.0496 304.29688 795.6746 302.90625L795.6746 295.98438L797.2996 295.98438L797.2996 305.5L795.75275 305.5L795.7215 304.5625ZM805.7215 305.5Q805.5809 305.21875 805.4871 304.5Q804.3465 305.67188 802.784 305.67188Q801.37775 305.67188 800.4715 304.875Q799.56525 304.07812 799.56525 302.85938Q799.56525 301.375 800.69025 300.5625Q801.8309 299.73438 803.87775 299.73438L805.4559 299.73438L805.4559 298.98438Q805.4559 298.14062 804.94025 297.64062Q804.44025 297.125 803.44025 297.125Q802.5809 297.125 801.9871 297.5625Q801.3934 298.0 801.3934 298.625L799.7684 298.625Q799.7684 297.92188 800.2684 297.26562Q800.7684 296.59375 801.62775 296.20312Q802.50275 295.8125 803.5496 295.8125Q805.19025 295.8125 806.1121 296.64062Q807.0496 297.45312 807.0809 298.90625L807.0809 303.28125Q807.0809 304.57812 807.4246 305.35938L807.4246 305.5L805.7215 305.5ZM803.0184 304.26562Q803.784 304.26562 804.4715 303.875Q805.159 303.46875 805.4559 302.84375L805.4559 300.89062L804.19025 300.89062Q801.19025 300.89062 801.19025 302.64062Q801.19025 303.40625 801.7059 303.84375Q802.2215 304.26562 803.0184 304.26562ZM811.6121 305.5L809.9871 305.5L809.9871 292.0L811.6121 292.0L811.6121 305.5Z" fill-rule="nonzero"/><path fill="#000000" d="M719.1121 314.70312L719.1121 323.40625Q719.0965 325.21875 717.9715 326.375Q716.8465 327.51562 714.909 327.65625L714.4559 327.67188Q712.3621 327.67188 711.1121 326.54688Q709.8621 325.40625 709.8465 323.42188L709.8465 314.70312L711.5184 314.70312L711.5184 323.375Q711.5184 324.75 712.284 325.53125Q713.0496 326.29688 714.4559 326.29688Q715.8934 326.29688 716.6434 325.53125Q717.409 324.76562 717.409 323.375L717.409 314.70312L719.1121 314.70312ZM723.37775 317.98438L723.44025 319.1875Q724.5184 317.8125 726.284 317.8125Q729.2996 317.8125 729.31525 321.21875L729.31525 327.5L727.69025 327.5L727.69025 321.20312Q727.69025 320.17188 727.2215 319.6875Q726.7684 319.1875 725.784 319.1875Q725.00275 319.1875 724.3934 319.60938Q723.7996 320.03125 723.4715 320.71875L723.4715 327.5L721.8465 327.5L721.8465 317.98438L723.37775 317.98438ZM731.44025 322.67188Q731.44025 320.48438 732.4715 319.15625Q733.5184 317.8125 735.2059 317.8125Q736.87775 317.8125 737.8465 318.95312L737.8465 314.0L739.4715 314.0L739.4715 327.5L737.9715 327.5L737.8934 326.48438Q736.9246 327.67188 735.19025 327.67188Q733.534 327.67188 732.4871 326.32812Q731.44025 324.96875 731.44025 322.78125L731.44025 322.67188ZM733.0809 322.84375Q733.0809 324.46875 733.7371 325.39062Q734.409 326.29688 735.5809 326.29688Q737.12775 326.29688 737.8465 324.90625L737.8465 320.53125Q737.1121 319.1875 735.6121 319.1875Q734.409 319.1875 733.7371 320.125Q733.0809 321.04688 733.0809 322.84375ZM745.784 327.67188Q743.8621 327.67188 742.6434 326.40625Q741.4246 325.14062 741.4246 323.01562L741.4246 322.70312Q741.4246 321.29688 741.9715 320.1875Q742.5184 319.07812 743.4871 318.45312Q744.4559 317.8125 745.5809 317.8125Q747.44025 317.8125 748.4715 319.03125Q749.50275 320.25 749.50275 322.53125L749.50275 323.20312L743.0496 323.20312Q743.0965 324.60938 743.87775 325.48438Q744.659 326.34375 745.87775 326.34375Q746.7371 326.34375 747.3309 326.0Q747.94025 325.64062 748.37775 325.0625L749.37775 325.84375Q748.1746 327.67188 745.784 327.67188ZM745.5809 319.15625Q744.5965 319.15625 743.9246 319.875Q743.2684 320.57812 743.1121 321.875L747.87775 321.875L747.87775 321.75Q747.7996 320.51562 747.2059 319.84375Q746.6121 319.15625 745.5809 319.15625ZM756.44025 319.45312Q756.06525 319.39062 755.6434 319.39062Q754.034 319.39062 753.4715 320.75L753.4715 327.5L751.8465 327.5L751.8465 317.98438L753.4246 317.98438L753.4559 319.09375Q754.25275 317.8125 755.7215 317.8125Q756.19025 317.8125 756.44025 317.9375L756.44025 319.45312ZM763.37775 324.98438Q763.37775 324.3125 762.87775 323.95312Q762.3934 323.59375 761.159 323.32812Q759.9246 323.0625 759.19025 322.70312Q758.4715 322.32812 758.1121 321.8125Q757.7684 321.29688 757.7684 320.59375Q757.7684 319.4375 758.75275 318.625Q759.75275 317.8125 761.284 317.8125Q762.909 317.8125 763.909 318.65625Q764.9246 319.48438 764.9246 320.78125L763.284 320.78125Q763.284 320.10938 762.7059 319.64062Q762.1434 319.15625 761.284 319.15625Q760.3934 319.15625 759.8934 319.54688Q759.3934 319.92188 759.3934 320.54688Q759.3934 321.14062 759.8621 321.4375Q760.3309 321.73438 761.5496 322.01562Q762.7684 322.28125 763.5184 322.65625Q764.284 323.03125 764.6434 323.5625Q765.00275 324.09375 765.00275 324.85938Q765.00275 326.14062 763.9871 326.90625Q762.9715 327.67188 761.3465 327.67188Q760.2059 327.67188 759.31525 327.26562Q758.44025 326.85938 757.94025 326.14062Q757.44025 325.42188 757.44025 324.57812L759.0809 324.57812Q759.1121 325.39062 759.7215 325.875Q760.3465 326.34375 761.3465 326.34375Q762.2684 326.34375 762.81525 325.96875Q763.37775 325.59375 763.37775 324.98438ZM769.0496 315.6875L769.0496 317.98438L770.8309 317.98438L770.8309 319.25L769.0496 319.25L769.0496 325.14062Q769.0496 325.71875 769.284 326.0Q769.5184 326.28125 770.0965 326.28125Q770.37775 326.28125 770.8621 326.1875L770.8621 327.5Q770.2215 327.67188 769.62775 327.67188Q768.534 327.67188 767.9715 327.01562Q767.4246 326.35938 767.4246 325.14062L767.4246 319.25L765.69025 319.25L765.69025 317.98438L767.4246 317.98438L767.4246 315.6875L769.0496 315.6875ZM778.7215 327.5Q778.5809 327.21875 778.4871 326.5Q777.3465 327.67188 775.784 327.67188Q774.37775 327.67188 773.4715 326.875Q772.56525 326.07812 772.56525 324.85938Q772.56525 323.375 773.69025 322.5625Q774.8309 321.73438 776.87775 321.73438L778.4559 321.73438L778.4559 320.98438Q778.4559 320.14062 777.94025 319.64062Q777.44025 319.125 776.44025 319.125Q775.5809 319.125 774.9871 319.5625Q774.3934 320.0 774.3934 320.625L772.7684 320.625Q772.7684 319.92188 773.2684 319.26562Q773.7684 318.59375 774.62775 318.20312Q775.50275 317.8125 776.5496 317.8125Q778.19025 317.8125 779.1121 318.64062Q780.0496 319.45312 780.0809 320.90625L780.0809 325.28125Q780.0809 326.57812 780.4246 327.35938L780.4246 327.5L778.7215 327.5ZM776.0184 326.26562Q776.784 326.26562 777.4715 325.875Q778.159 325.46875 778.4559 324.84375L778.4559 322.89062L777.19025 322.89062Q774.19025 322.89062 774.19025 324.64062Q774.19025 325.40625 774.7059 325.84375Q775.2215 326.26562 776.0184 326.26562ZM784.37775 317.98438L784.44025 319.1875Q785.5184 317.8125 787.284 317.8125Q790.2996 317.8125 790.31525 321.21875L790.31525 327.5L788.69025 327.5L788.69025 321.20312Q788.69025 320.17188 788.2215 319.6875Q787.7684 319.1875 786.784 319.1875Q786.00275 319.1875 785.3934 319.60938Q784.7996 320.03125 784.4715 320.71875L784.4715 327.5L782.8465 327.5L782.8465 317.98438L784.37775 317.98438ZM792.44025 322.67188Q792.44025 320.48438 793.4715 319.15625Q794.5184 317.8125 796.2059 317.8125Q797.87775 317.8125 798.8465 318.95312L798.8465 314.0L800.4715 314.0L800.4715 327.5L798.9715 327.5L798.8934 326.48438Q797.9246 327.67188 796.19025 327.67188Q794.534 327.67188 793.4871 326.32812Q792.44025 324.96875 792.44025 322.78125L792.44025 322.67188ZM794.0809 322.84375Q794.0809 324.46875 794.7371 325.39062Q795.409 326.29688 796.5809 326.29688Q798.12775 326.29688 798.8465 324.90625L798.8465 320.53125Q798.1121 319.1875 796.6121 319.1875Q795.409 319.1875 794.7371 320.125Q794.0809 321.04688 794.0809 322.84375ZM804.6121 327.5L802.9871 327.5L802.9871 317.98438L804.6121 317.98438L804.6121 327.5ZM802.8465 315.46875Q802.8465 315.07812 803.0809 314.8125Q803.3309 314.53125 803.7996 314.53125Q804.284 314.53125 804.534 314.8125Q804.784 315.07812 804.784 315.46875Q804.784 315.85938 804.534 316.125Q804.284 316.39062 803.7996 316.39062Q803.3309 316.39062 803.0809 316.125Q802.8465 315.85938 802.8465 315.46875ZM808.37775 317.98438L808.44025 319.1875Q809.5184 317.8125 811.284 317.8125Q814.2996 317.8125 814.31525 321.21875L814.31525 327.5L812.69025 327.5L812.69025 321.20312Q812.69025 320.17188 812.2215 319.6875Q811.7684 319.1875 810.784 319.1875Q810.00275 319.1875 809.3934 319.60938Q808.7996 320.03125 808.4715 320.71875L808.4715 327.5L806.8465 327.5L806.8465 317.98438L808.37775 317.98438ZM816.4559 322.67188Q816.4559 320.4375 817.4871 319.125Q818.5184 317.8125 820.2059 317.8125Q821.9559 317.8125 822.9246 319.04688L823.00275 317.98438L824.4871 317.98438L824.4871 327.26562Q824.4871 329.125 823.3934 330.1875Q822.2996 331.25 820.4559 331.25Q819.4246 331.25 818.44025 330.79688Q817.4559 330.35938 816.94025 329.59375L817.784 328.625Q818.8309 329.92188 820.3465 329.92188Q821.534 329.92188 822.19025 329.25Q822.8621 328.57812 822.8621 327.375L822.8621 326.54688Q821.87775 327.67188 820.19025 327.67188Q818.5184 327.67188 817.4871 326.32812Q816.4559 324.98438 816.4559 322.67188ZM818.0965 322.84375Q818.0965 324.45312 818.75275 325.375Q819.409 326.29688 820.5965 326.29688Q822.12775 326.29688 822.8621 324.89062L822.8621 320.5625Q822.1121 319.1875 820.6121 319.1875Q819.4246 319.1875 818.75275 320.125Q818.0965 321.04688 818.0965 322.84375Z" fill-rule="nonzero"/></svg>