<svg version="1.1" viewBox="0.0 0.0 718.0 244.0" fill="none" stroke="none" stroke-linecap="square" stroke-miterlimit="10" width="718" height="244" xmlns:xlink="http://www.w3.org/1999/xlink" xmlns="http://www.w3.org/2000/svg"><path fill="#ffffff" d="M0 0L718.0 0L718.0 244.0L0 244.0L0 0Z" fill-rule="nonzero"/><path stroke="#333333" stroke-width="1.0" stroke-linecap="butt" d="M120.5 173.5L705.5 173.5" fill-rule="nonzero"/><path stroke="#cccccc" stroke-width="1.0" stroke-linecap="butt" d="M120.5 136.5L705.5 136.5" fill-rule="nonzero"/><path stroke="#cccccc" stroke-width="1.0" stroke-linecap="butt" d="M120.5 99.5L705.5 99.5" fill-rule="nonzero"/><path stroke="#cccccc" stroke-width="1.0" stroke-linecap="butt" d="M120.5 61.5L705.5 61.5" fill-rule="nonzero"/><path stroke="#cccccc" stroke-width="1.0" stroke-linecap="butt" d="M120.5 24.5L705.5 24.5" fill-rule="nonzero"/><clipPath id="id_0"><path d="M120.2 24.2L705.8 24.2L705.8 173.8L120.2 173.8L120.2 24.2Z" clip-rule="nonzero"/></clipPath><path stroke="#000000" stroke-width="2.0" stroke-linecap="butt" stroke-opacity="0.0" clip-path="url(#id_0)" d="M668.0 174.0L597.0 174.0L597.0 35.0C597.0 33.89543 597.89545 33.0 599.0 33.0L666.0 33.0C667.10455 33.0 668.0 33.89543 668.0 35.0Z" fill-rule="nonzero"/><path fill="#f05f40" clip-path="url(#id_0)" d="M668.0 174.0L597.0 174.0L597.0 35.0C597.0 33.89543 597.89545 33.0 599.0 33.0L666.0 33.0C667.10455 33.0 668.0 33.89543 668.0 35.0Z" fill-rule="nonzero"/><path stroke="#000000" stroke-width="2.0" stroke-linecap="butt" stroke-opacity="0.0" clip-path="url(#id_0)" d="M558.0 174.0L487.0 174.0L487.0 78.0C487.0 76.89543 487.89542 76.0 489.0 76.0L556.0 76.0C557.10455 76.0 558.0 76.89543 558.0 78.0Z" fill-rule="nonzero"/><path fill="#f05f40" clip-path="url(#id_0)" d="M558.0 174.0L487.0 174.0L487.0 78.0C487.0 76.89543 487.89542 76.0 489.0 76.0L556.0 76.0C557.10455 76.0 558.0 76.89543 558.0 78.0Z" fill-rule="nonzero"/><path stroke="#000000" stroke-width="2.0" stroke-linecap="butt" stroke-opacity="0.0" clip-path="url(#id_0)" d="M449.0 174.0L378.0 174.0L378.0 155.0C378.0 153.89543 378.89542 153.0 380.0 153.0L447.0 153.0C448.10458 153.0 449.0 153.89543 449.0 155.0Z" fill-rule="nonzero"/><path fill="#f05f40" clip-path="url(#id_0)" d="M449.0 174.0L378.0 174.0L378.0 155.0C378.0 153.89543 378.89542 153.0 380.0 153.0L447.0 153.0C448.10458 153.0 449.0 153.89543 449.0 155.0Z" fill-rule="nonzero"/><path stroke="#000000" stroke-width="2.0" stroke-linecap="butt" stroke-opacity="0.0" clip-path="url(#id_0)" d="M340.0 174.0L269.0 174.0L269.0 172.0C269.0 170.89543 269.89542 170.0 271.0 170.0L338.0 170.0C339.10458 170.0 340.0 170.89543 340.0 172.0Z" fill-rule="nonzero"/><path fill="#f05f40" clip-path="url(#id_0)" d="M340.0 174.0L269.0 174.0L269.0 172.0C269.0 170.89543 269.89542 170.0 271.0 170.0L338.0 170.0C339.10458 170.0 340.0 170.89543 340.0 172.0Z" fill-rule="nonzero"/><path stroke="#000000" stroke-width="2.0" stroke-linecap="butt" stroke-opacity="0.0" clip-path="url(#id_0)" d="M230.0 174.0L159.0 174.0L159.0 173.5C159.0 173.22386 159.22386 173.0 159.5 173.0L229.5 173.0C229.77614 173.0 230.0 173.22386 230.0 173.5Z" fill-rule="nonzero"/><path fill="#f05f40" clip-path="url(#id_0)" d="M230.0 174.0L159.0 174.0L159.0 173.5C159.0 173.22386 159.22386 173.0 159.5 173.0L229.5 173.0C229.77614 173.0 230.0 173.22386 230.0 173.5Z" fill-rule="nonzero"/><path stroke="#f05f40" stroke-width="3.0" stroke-linejoin="round" stroke-linecap="round" d="M622.2656 49.7516L621.1875 49.7516L621.1875 42.53285L619.0 43.329723L619.0 42.34535L622.1094 41.173473L622.2656 41.173473L622.2656 49.7516ZM630.8906 43.4391Q630.8906 44.079723 630.5469 44.579723Q630.2031 45.079723 629.6406 45.360973Q630.2969 45.642223 630.6875 46.204723Q631.0781 46.7516 631.0781 47.454723Q631.0781 48.548473 630.3281 49.22035Q629.59375 49.8766 628.375 49.8766Q627.1406 49.8766 626.3906 49.22035Q625.65625 48.548473 625.65625 47.454723Q625.65625 46.7516 626.03125 46.204723Q626.40625 45.642223 627.0781 45.360973Q626.5156 45.079723 626.1875 44.579723Q625.8594 44.079723 625.8594 43.4391Q625.8594 42.360973 626.5469 41.735973Q627.2344 41.09535 628.375 41.09535Q629.5 41.09535 630.1875 41.735973Q630.8906 42.360973 630.8906 43.4391ZM630.0 47.423473Q630.0 46.704723 629.5469 46.267223Q629.09375 45.8141 628.3594 45.8141Q627.625 45.8141 627.1719 46.267223Q626.7344 46.704723 626.7344 47.4391Q626.7344 48.15785 627.1719 48.579723Q627.6094 48.985973 628.375 48.985973Q629.125 48.985973 629.5625 48.5641Q630.0 48.142223 630.0 47.423473ZM628.375 41.985973Q627.7344 41.985973 627.3281 42.392223Q626.9375 42.78285 626.9375 43.47035Q626.9375 44.110973 627.3281 44.517223Q627.71875 44.923473 628.3594 44.923473Q629.0156 44.923473 629.40625 44.517223Q629.7969 44.110973 629.7969 43.47035Q629.7969 42.8141 629.3906 42.40785Q628.9844 41.985973 628.375 41.985973ZM637.8906 43.4391Q637.8906 44.079723 637.5469 44.579723Q637.2031 45.079723 636.6406 45.360973Q637.2969 45.642223 637.6875 46.204723Q638.0781 46.7516 638.0781 47.454723Q638.0781 48.548473 637.3281 49.22035Q636.59375 49.8766 635.375 49.8766Q634.1406 49.8766 633.3906 49.22035Q632.65625 48.548473 632.65625 47.454723Q632.65625 46.7516 633.03125 46.204723Q633.40625 45.642223 634.0781 45.360973Q633.5156 45.079723 633.1875 44.579723Q632.8594 44.079723 632.8594 43.4391Q632.8594 42.360973 633.5469 41.735973Q634.2344 41.09535 635.375 41.09535Q636.5 41.09535 637.1875 41.735973Q637.8906 42.360973 637.8906 43.4391ZM637.0 47.423473Q637.0 46.704723 636.5469 46.267223Q636.09375 45.8141 635.3594 45.8141Q634.625 45.8141 634.1719 46.267223Q633.7344 46.704723 633.7344 47.4391Q633.7344 48.15785 634.1719 48.579723Q634.6094 48.985973 635.375 48.985973Q636.125 48.985973 636.5625 48.5641Q637.0 48.142223 637.0 47.423473ZM635.375 41.985973Q634.7344 41.985973 634.3281 42.392223Q633.9375 42.78285 633.9375 43.47035Q633.9375 44.110973 634.3281 44.517223Q634.71875 44.923473 635.3594 44.923473Q636.0156 44.923473 636.40625 44.517223Q636.7969 44.110973 636.7969 43.47035Q636.7969 42.8141 636.3906 42.40785Q635.9844 41.985973 635.375 41.985973ZM641.28125 44.954723L642.09375 44.954723Q642.875 44.9391 643.3125 44.548473Q643.75 44.15785 643.75 43.485973Q643.75 41.985973 642.25 41.985973Q641.5469 41.985973 641.125 42.392223Q640.71875 42.798473 640.71875 43.454723L639.625 43.454723Q639.625 42.4391 640.3594 41.767223Q641.1094 41.09535 642.25 41.09535Q643.4531 41.09535 644.1406 41.735973Q644.8281 42.3766 644.8281 43.517223Q644.8281 44.079723 644.46875 44.59535Q644.1094 45.110973 643.4844 45.3766Q644.1875 45.59535 644.5625 46.110973Q644.9531 46.6266 644.9531 47.3766Q644.9531 48.517223 644.2031 49.204723Q643.4531 49.8766 642.25 49.8766Q641.0625 49.8766 640.2969 49.22035Q639.5469 48.5641 639.5469 47.5016L640.6406 47.5016Q640.6406 48.173473 641.0781 48.579723Q641.5156 48.985973 642.2656 48.985973Q643.0469 48.985973 643.4531 48.579723Q643.875 48.15785 643.875 47.392223Q643.875 46.65785 643.4219 46.267223Q642.96875 45.860973 642.09375 45.84535L641.28125 45.84535L641.28125 44.954723Z" fill-rule="nonzero"/><path fill="#000000" d="M622.2656 49.7516L621.1875 49.7516L621.1875 42.53285L619.0 43.329723L619.0 42.34535L622.1094 41.173473L622.2656 41.173473L622.2656 49.7516ZM630.8906 43.4391Q630.8906 44.079723 630.5469 44.579723Q630.2031 45.079723 629.6406 45.360973Q630.2969 45.642223 630.6875 46.204723Q631.0781 46.7516 631.0781 47.454723Q631.0781 48.548473 630.3281 49.22035Q629.59375 49.8766 628.375 49.8766Q627.1406 49.8766 626.3906 49.22035Q625.65625 48.548473 625.65625 47.454723Q625.65625 46.7516 626.03125 46.204723Q626.40625 45.642223 627.0781 45.360973Q626.5156 45.079723 626.1875 44.579723Q625.8594 44.079723 625.8594 43.4391Q625.8594 42.360973 626.5469 41.735973Q627.2344 41.09535 628.375 41.09535Q629.5 41.09535 630.1875 41.735973Q630.8906 42.360973 630.8906 43.4391ZM630.0 47.423473Q630.0 46.704723 629.5469 46.267223Q629.09375 45.8141 628.3594 45.8141Q627.625 45.8141 627.1719 46.267223Q626.7344 46.704723 626.7344 47.4391Q626.7344 48.15785 627.1719 48.579723Q627.6094 48.985973 628.375 48.985973Q629.125 48.985973 629.5625 48.5641Q630.0 48.142223 630.0 47.423473ZM628.375 41.985973Q627.7344 41.985973 627.3281 42.392223Q626.9375 42.78285 626.9375 43.47035Q626.9375 44.110973 627.3281 44.517223Q627.71875 44.923473 628.3594 44.923473Q629.0156 44.923473 629.40625 44.517223Q629.7969 44.110973 629.7969 43.47035Q629.7969 42.8141 629.3906 42.40785Q628.9844 41.985973 628.375 41.985973ZM637.8906 43.4391Q637.8906 44.079723 637.5469 44.579723Q637.2031 45.079723 636.6406 45.360973Q637.2969 45.642223 637.6875 46.204723Q638.0781 46.7516 638.0781 47.454723Q638.0781 48.548473 637.3281 49.22035Q636.59375 49.8766 635.375 49.8766Q634.1406 49.8766 633.3906 49.22035Q632.65625 48.548473 632.65625 47.454723Q632.65625 46.7516 633.03125 46.204723Q633.40625 45.642223 634.0781 45.360973Q633.5156 45.079723 633.1875 44.579723Q632.8594 44.079723 632.8594 43.4391Q632.8594 42.360973 633.5469 41.735973Q634.2344 41.09535 635.375 41.09535Q636.5 41.09535 637.1875 41.735973Q637.8906 42.360973 637.8906 43.4391ZM637.0 47.423473Q637.0 46.704723 636.5469 46.267223Q636.09375 45.8141 635.3594 45.8141Q634.625 45.8141 634.1719 46.267223Q633.7344 46.704723 633.7344 47.4391Q633.7344 48.15785 634.1719 48.579723Q634.6094 48.985973 635.375 48.985973Q636.125 48.985973 636.5625 48.5641Q637.0 48.142223 637.0 47.423473ZM635.375 41.985973Q634.7344 41.985973 634.3281 42.392223Q633.9375 42.78285 633.9375 43.47035Q633.9375 44.110973 634.3281 44.517223Q634.71875 44.923473 635.3594 44.923473Q636.0156 44.923473 636.40625 44.517223Q636.7969 44.110973 636.7969 43.47035Q636.7969 42.8141 636.3906 42.40785Q635.9844 41.985973 635.375 41.985973ZM641.28125 44.954723L642.09375 44.954723Q642.875 44.9391 643.3125 44.548473Q643.75 44.15785 643.75 43.485973Q643.75 41.985973 642.25 41.985973Q641.5469 41.985973 641.125 42.392223Q640.71875 42.798473 640.71875 43.454723L639.625 43.454723Q639.625 42.4391 640.3594 41.767223Q641.1094 41.09535 642.25 41.09535Q643.4531 41.09535 644.1406 41.735973Q644.8281 42.3766 644.8281 43.517223Q644.8281 44.079723 644.46875 44.59535Q644.1094 45.110973 643.4844 45.3766Q644.1875 45.59535 644.5625 46.110973Q644.9531 46.6266 644.9531 47.3766Q644.9531 48.517223 644.2031 49.204723Q643.4531 49.8766 642.25 49.8766Q641.0625 49.8766 640.2969 49.22035Q639.5469 48.5641 639.5469 47.5016L640.6406 47.5016Q640.6406 48.173473 641.0781 48.579723Q641.5156 48.985973 642.2656 48.985973Q643.0469 48.985973 643.4531 48.579723Q643.875 48.15785 643.875 47.392223Q643.875 46.65785 643.4219 46.267223Q642.96875 45.860973 642.09375 45.84535L641.28125 45.84535L641.28125 44.954723Z" fill-rule="nonzero"/><path stroke="#f05f40" stroke-width="3.0" stroke-linejoin="round" stroke-linecap="round" d="M512.2656 92.3128L511.1875 92.3128L511.1875 85.09405L509.0 85.89092L509.0 84.90655L512.1094 83.73467L512.2656 83.73467L512.2656 92.3128ZM517.28125 87.51592L518.09375 87.51592Q518.875 87.5003 519.3125 87.10967Q519.75 86.71905 519.75 86.04717Q519.75 84.54717 518.25 84.54717Q517.5469 84.54717 517.125 84.95342Q516.71875 85.35967 516.71875 86.01592L515.625 86.01592Q515.625 85.0003 516.3594 84.32842Q517.1094 83.65655 518.25 83.65655Q519.4531 83.65655 520.1406 84.29717Q520.8281 84.9378 520.8281 86.07842Q520.8281 86.64092 520.46875 87.15655Q520.1094 87.67217 519.4844 87.9378Q520.1875 88.15655 520.5625 88.67217Q520.9531 89.1878 520.9531 89.9378Q520.9531 91.07842 520.2031 91.76592Q519.4531 92.4378 518.25 92.4378Q517.0625 92.4378 516.2969 91.78155Q515.5469 91.1253 515.5469 90.0628L516.6406 90.0628Q516.6406 90.73467 517.0781 91.14092Q517.5156 91.54717 518.2656 91.54717Q519.0469 91.54717 519.4531 91.14092Q519.875 90.71905 519.875 89.95342Q519.875 89.21905 519.4219 88.82842Q518.96875 88.42217 518.09375 88.40655L517.28125 88.40655L517.28125 87.51592ZM526.2656 92.3128L525.1875 92.3128L525.1875 85.09405L523.0 85.89092L523.0 84.90655L526.1094 83.73467L526.2656 83.73467L526.2656 92.3128ZM534.28125 89.45342L535.46875 89.45342L535.46875 90.32842L534.28125 90.32842L534.28125 92.3128L533.2031 92.3128L533.2031 90.32842L529.3125 90.32842L529.3125 89.6878L533.125 83.78155L534.28125 83.78155L534.28125 89.45342ZM530.5469 89.45342L533.2031 89.45342L533.2031 85.26592L533.0625 85.5003L530.5469 89.45342Z" fill-rule="nonzero"/><path fill="#000000" d="M512.2656 92.3128L511.1875 92.3128L511.1875 85.09405L509.0 85.89092L509.0 84.90655L512.1094 83.73467L512.2656 83.73467L512.2656 92.3128ZM517.28125 87.51592L518.09375 87.51592Q518.875 87.5003 519.3125 87.10967Q519.75 86.71905 519.75 86.04717Q519.75 84.54717 518.25 84.54717Q517.5469 84.54717 517.125 84.95342Q516.71875 85.35967 516.71875 86.01592L515.625 86.01592Q515.625 85.0003 516.3594 84.32842Q517.1094 83.65655 518.25 83.65655Q519.4531 83.65655 520.1406 84.29717Q520.8281 84.9378 520.8281 86.07842Q520.8281 86.64092 520.46875 87.15655Q520.1094 87.67217 519.4844 87.9378Q520.1875 88.15655 520.5625 88.67217Q520.9531 89.1878 520.9531 89.9378Q520.9531 91.07842 520.2031 91.76592Q519.4531 92.4378 518.25 92.4378Q517.0625 92.4378 516.2969 91.78155Q515.5469 91.1253 515.5469 90.0628L516.6406 90.0628Q516.6406 90.73467 517.0781 91.14092Q517.5156 91.54717 518.2656 91.54717Q519.0469 91.54717 519.4531 91.14092Q519.875 90.71905 519.875 89.95342Q519.875 89.21905 519.4219 88.82842Q518.96875 88.42217 518.09375 88.40655L517.28125 88.40655L517.28125 87.51592ZM526.2656 92.3128L525.1875 92.3128L525.1875 85.09405L523.0 85.89092L523.0 84.90655L526.1094 83.73467L526.2656 83.73467L526.2656 92.3128ZM534.28125 89.45342L535.46875 89.45342L535.46875 90.32842L534.28125 90.32842L534.28125 92.3128L533.2031 92.3128L533.2031 90.32842L529.3125 90.32842L529.3125 89.6878L533.125 83.78155L534.28125 83.78155L534.28125 89.45342ZM530.5469 89.45342L533.2031 89.45342L533.2031 85.26592L533.0625 85.5003L530.5469 89.45342Z" fill-rule="nonzero"/><path stroke="#f05f40" stroke-width="3.0" stroke-linejoin="round" stroke-linecap="round" d="M408.79688 167.828L403.20312 167.828L403.20312 167.04675L406.15625 163.7655Q406.8125 163.0155 407.0625 162.56238Q407.3125 162.09363 407.3125 161.59363Q407.3125 160.92175 406.90625 160.49988Q406.51562 160.06238 405.82812 160.06238Q405.03125 160.06238 404.57812 160.53113Q404.125 160.98425 404.125 161.81238L403.04688 161.81238Q403.04688 160.62488 403.79688 159.90613Q404.5625 159.17175 405.82812 159.17175Q407.03125 159.17175 407.71875 159.79675Q408.40625 160.42175 408.40625 161.46863Q408.40625 162.71863 406.79688 164.46863L404.51562 166.93738L408.79688 166.93738L408.79688 167.828ZM415.39062 161.5155Q415.39062 162.15613 415.04688 162.65613Q414.70312 163.15613 414.14062 163.43738Q414.79688 163.71863 415.1875 164.28113Q415.57812 164.828 415.57812 165.53113Q415.57812 166.62488 414.82812 167.29675Q414.09375 167.953 412.875 167.953Q411.64062 167.953 410.89062 167.29675Q410.15625 166.62488 410.15625 165.53113Q410.15625 164.828 410.53125 164.28113Q410.90625 163.71863 411.57812 163.43738Q411.01562 163.15613 410.6875 162.65613Q410.35938 162.15613 410.35938 161.5155Q410.35938 160.43738 411.04688 159.81238Q411.73438 159.17175 412.875 159.17175Q414.0 159.17175 414.6875 159.81238Q415.39062 160.43738 415.39062 161.5155ZM414.5 165.49988Q414.5 164.78113 414.04688 164.34363Q413.59375 163.8905 412.85938 163.8905Q412.125 163.8905 411.67188 164.34363Q411.23438 164.78113 411.23438 165.5155Q411.23438 166.23425 411.67188 166.65613Q412.10938 167.06238 412.875 167.06238Q413.625 167.06238 414.0625 166.6405Q414.5 166.21863 414.5 165.49988ZM412.875 160.06238Q412.23438 160.06238 411.82812 160.46863Q411.4375 160.85925 411.4375 161.54675Q411.4375 162.18738 411.82812 162.59363Q412.21875 162.99988 412.85938 162.99988Q413.51562 162.99988 413.90625 162.59363Q414.29688 162.18738 414.29688 161.54675Q414.29688 160.8905 413.89062 160.48425Q413.48438 160.06238 412.875 160.06238ZM422.5625 164.18738Q422.5625 166.09363 421.90625 167.03113Q421.26562 167.953 419.875 167.953Q418.51562 167.953 417.85938 167.04675Q417.20312 166.1405 417.17188 164.328L417.17188 162.8905Q417.17188 160.99988 417.8125 160.09363Q418.46875 159.17175 419.85938 159.17175Q421.23438 159.17175 421.89062 160.06238Q422.54688 160.93738 422.5625 162.78113L422.5625 164.18738ZM421.46875 162.703Q421.46875 161.328 421.07812 160.703Q420.70312 160.06238 419.85938 160.06238Q419.03125 160.06238 418.64062 160.703Q418.26562 161.328 418.26562 162.62488L418.26562 164.35925Q418.26562 165.73425 418.65625 166.40613Q419.0625 167.06238 419.875 167.06238Q420.67188 167.06238 421.0625 166.43738Q421.45312 165.81238 421.46875 164.48425L421.46875 162.703Z" fill-rule="nonzero"/><path fill="#000000" d="M408.79688 167.828L403.20312 167.828L403.20312 167.04675L406.15625 163.7655Q406.8125 163.0155 407.0625 162.56238Q407.3125 162.09363 407.3125 161.59363Q407.3125 160.92175 406.90625 160.49988Q406.51562 160.06238 405.82812 160.06238Q405.03125 160.06238 404.57812 160.53113Q404.125 160.98425 404.125 161.81238L403.04688 161.81238Q403.04688 160.62488 403.79688 159.90613Q404.5625 159.17175 405.82812 159.17175Q407.03125 159.17175 407.71875 159.79675Q408.40625 160.42175 408.40625 161.46863Q408.40625 162.71863 406.79688 164.46863L404.51562 166.93738L408.79688 166.93738L408.79688 167.828ZM415.39062 161.5155Q415.39062 162.15613 415.04688 162.65613Q414.70312 163.15613 414.14062 163.43738Q414.79688 163.71863 415.1875 164.28113Q415.57812 164.828 415.57812 165.53113Q415.57812 166.62488 414.82812 167.29675Q414.09375 167.953 412.875 167.953Q411.64062 167.953 410.89062 167.29675Q410.15625 166.62488 410.15625 165.53113Q410.15625 164.828 410.53125 164.28113Q410.90625 163.71863 411.57812 163.43738Q411.01562 163.15613 410.6875 162.65613Q410.35938 162.15613 410.35938 161.5155Q410.35938 160.43738 411.04688 159.81238Q411.73438 159.17175 412.875 159.17175Q414.0 159.17175 414.6875 159.81238Q415.39062 160.43738 415.39062 161.5155ZM414.5 165.49988Q414.5 164.78113 414.04688 164.34363Q413.59375 163.8905 412.85938 163.8905Q412.125 163.8905 411.67188 164.34363Q411.23438 164.78113 411.23438 165.5155Q411.23438 166.23425 411.67188 166.65613Q412.10938 167.06238 412.875 167.06238Q413.625 167.06238 414.0625 166.6405Q414.5 166.21863 414.5 165.49988ZM412.875 160.06238Q412.23438 160.06238 411.82812 160.46863Q411.4375 160.85925 411.4375 161.54675Q411.4375 162.18738 411.82812 162.59363Q412.21875 162.99988 412.85938 162.99988Q413.51562 162.99988 413.90625 162.59363Q414.29688 162.18738 414.29688 161.54675Q414.29688 160.8905 413.89062 160.48425Q413.48438 160.06238 412.875 160.06238ZM422.5625 164.18738Q422.5625 166.09363 421.90625 167.03113Q421.26562 167.953 419.875 167.953Q418.51562 167.953 417.85938 167.04675Q417.20312 166.1405 417.17188 164.328L417.17188 162.8905Q417.17188 160.99988 417.8125 160.09363Q418.46875 159.17175 419.85938 159.17175Q421.23438 159.17175 421.89062 160.06238Q422.54688 160.93738 422.5625 162.78113L422.5625 164.18738ZM421.46875 162.703Q421.46875 161.328 421.07812 160.703Q420.70312 160.06238 419.85938 160.06238Q419.03125 160.06238 418.64062 160.703Q418.26562 161.328 418.26562 162.62488L418.26562 164.35925Q418.26562 165.73425 418.65625 166.40613Q419.0625 167.06238 419.875 167.06238Q420.67188 167.06238 421.0625 166.43738Q421.45312 165.81238 421.46875 164.48425L421.46875 162.703Z" fill-rule="nonzero"/><path stroke="#ffffff" stroke-width="3.0" stroke-linejoin="round" stroke-linecap="round" d="M298.20312 150.55435L298.64062 146.30435L303.01562 146.30435L303.01562 147.30435L299.5625 147.30435L299.29688 149.63248Q299.9375 149.25748 300.73438 149.25748Q301.89062 149.25748 302.57812 150.03873Q303.26562 150.80435 303.26562 152.11685Q303.26562 153.42935 302.54688 154.19498Q301.84375 154.9606 300.5625 154.9606Q299.4375 154.9606 298.71875 154.3356Q298.0 153.69498 297.90625 152.5856L298.92188 152.5856Q299.03125 153.31998 299.45312 153.69498Q299.875 154.06998 300.5625 154.06998Q301.3125 154.06998 301.75 153.55435Q302.1875 153.03873 302.1875 152.13248Q302.1875 151.2731 301.71875 150.75748Q301.25 150.24185 300.46875 150.24185Q299.76562 150.24185 299.35938 150.53873L299.07812 150.7731L298.20312 150.55435ZM306.28125 150.03873L307.09375 150.03873Q307.875 150.0231 308.3125 149.63248Q308.75 149.24185 308.75 148.56998Q308.75 147.06998 307.25 147.06998Q306.54688 147.06998 306.125 147.47623Q305.71875 147.88248 305.71875 148.53873L304.625 148.53873Q304.625 147.5231 305.35938 146.85123Q306.10938 146.17935 307.25 146.17935Q308.45312 146.17935 309.14062 146.81998Q309.82812 147.4606 309.82812 148.60123Q309.82812 149.16373 309.46875 149.67935Q309.10938 150.19498 308.48438 150.4606Q309.1875 150.67935 309.5625 151.19498Q309.95312 151.7106 309.95312 152.4606Q309.95312 153.60123 309.20312 154.28873Q308.45312 154.9606 307.25 154.9606Q306.0625 154.9606 305.29688 154.30435Q304.54688 153.6481 304.54688 152.5856L305.64062 152.5856Q305.64062 153.25748 306.07812 153.66373Q306.51562 154.06998 307.26562 154.06998Q308.04688 154.06998 308.45312 153.66373Q308.875 153.24185 308.875 152.47623Q308.875 151.74185 308.42188 151.35123Q307.96875 150.94498 307.09375 150.92935L306.28125 150.92935L306.28125 150.03873Z" fill-rule="nonzero"/><path fill="#f05f40" d="M298.20312 150.55435L298.64062 146.30435L303.01562 146.30435L303.01562 147.30435L299.5625 147.30435L299.29688 149.63248Q299.9375 149.25748 300.73438 149.25748Q301.89062 149.25748 302.57812 150.03873Q303.26562 150.80435 303.26562 152.11685Q303.26562 153.42935 302.54688 154.19498Q301.84375 154.9606 300.5625 154.9606Q299.4375 154.9606 298.71875 154.3356Q298.0 153.69498 297.90625 152.5856L298.92188 152.5856Q299.03125 153.31998 299.45312 153.69498Q299.875 154.06998 300.5625 154.06998Q301.3125 154.06998 301.75 153.55435Q302.1875 153.03873 302.1875 152.13248Q302.1875 151.2731 301.71875 150.75748Q301.25 150.24185 300.46875 150.24185Q299.76562 150.24185 299.35938 150.53873L299.07812 150.7731L298.20312 150.55435ZM306.28125 150.03873L307.09375 150.03873Q307.875 150.0231 308.3125 149.63248Q308.75 149.24185 308.75 148.56998Q308.75 147.06998 307.25 147.06998Q306.54688 147.06998 306.125 147.47623Q305.71875 147.88248 305.71875 148.53873L304.625 148.53873Q304.625 147.5231 305.35938 146.85123Q306.10938 146.17935 307.25 146.17935Q308.45312 146.17935 309.14062 146.81998Q309.82812 147.4606 309.82812 148.60123Q309.82812 149.16373 309.46875 149.67935Q309.10938 150.19498 308.48438 150.4606Q309.1875 150.67935 309.5625 151.19498Q309.95312 151.7106 309.95312 152.4606Q309.95312 153.60123 309.20312 154.28873Q308.45312 154.9606 307.25 154.9606Q306.0625 154.9606 305.29688 154.30435Q304.54688 153.6481 304.54688 152.5856L305.64062 152.5856Q305.64062 153.25748 306.07812 153.66373Q306.51562 154.06998 307.26562 154.06998Q308.04688 154.06998 308.45312 153.66373Q308.875 153.24185 308.875 152.47623Q308.875 151.74185 308.42188 151.35123Q307.96875 150.94498 307.09375 150.92935L306.28125 150.92935L306.28125 150.03873Z" fill-rule="nonzero"/><path stroke="#ffffff" stroke-width="3.0" stroke-linejoin="round" stroke-linecap="round" d="M191.26562 157.678L190.1875 157.678L190.1875 150.45924L188.0 151.25612L188.0 150.27174L191.10938 149.09987L191.26562 149.09987L191.26562 157.678ZM195.20312 153.39674L195.64062 149.14674L200.01562 149.14674L200.01562 150.14674L196.5625 150.14674L196.29688 152.47487Q196.9375 152.09987 197.73438 152.09987Q198.89062 152.09987 199.57812 152.88112Q200.26562 153.64674 200.26562 154.95924Q200.26562 156.27174 199.54688 157.03737Q198.84375 157.803 197.5625 157.803Q196.4375 157.803 195.71875 157.178Q195.0 156.53737 194.90625 155.428L195.92188 155.428Q196.03125 156.16237 196.45312 156.53737Q196.875 156.91237 197.5625 156.91237Q198.3125 156.91237 198.75 156.39674Q199.1875 155.88112 199.1875 154.97487Q199.1875 154.1155 198.71875 153.59987Q198.25 153.08424 197.46875 153.08424Q196.76562 153.08424 196.35938 153.38112L196.07812 153.6155L195.20312 153.39674Z" fill-rule="nonzero"/><path fill="#f05f40" d="M191.26562 157.678L190.1875 157.678L190.1875 150.45924L188.0 151.25612L188.0 150.27174L191.10938 149.09987L191.26562 149.09987L191.26562 157.678ZM195.20312 153.39674L195.64062 149.14674L200.01562 149.14674L200.01562 150.14674L196.5625 150.14674L196.29688 152.47487Q196.9375 152.09987 197.73438 152.09987Q198.89062 152.09987 199.57812 152.88112Q200.26562 153.64674 200.26562 154.95924Q200.26562 156.27174 199.54688 157.03737Q198.84375 157.803 197.5625 157.803Q196.4375 157.803 195.71875 157.178Q195.0 156.53737 194.90625 155.428L195.92188 155.428Q196.03125 156.16237 196.45312 156.53737Q196.875 156.91237 197.5625 156.91237Q198.3125 156.91237 198.75 156.39674Q199.1875 155.88112 199.1875 154.97487Q199.1875 154.1155 198.71875 153.59987Q198.25 153.08424 197.46875 153.08424Q196.76562 153.08424 196.35938 153.38112L196.07812 153.6155L195.20312 153.39674Z" fill-rule="nonzero"/><path fill="#000000" d="M31.200003 169.42188L16.887503 169.42188L16.887503 163.07812Q16.887503 161.17188 17.278128 160.17188Q17.653128 159.17188 18.637503 158.57812Q19.606253 157.98438 20.793753 157.98438Q22.309378 157.98438 23.356253 158.96875Q24.403128 159.95312 24.684378 162.01562Q25.043753 161.26562 25.403128 160.875Q26.153128 160.04688 27.309378 159.29688L31.200003 156.8125L31.200003 159.1875L28.215628 161.09375Q26.934378 161.92188 26.246878 162.45312Q25.559378 162.98438 25.293753 163.42188Q25.012503 163.84375 24.903128 164.28125Q24.840628 164.60938 24.840628 165.32812L24.840628 167.53125L31.200003 167.53125L31.200003 169.42188ZM23.200003 167.53125L23.200003 163.45312Q23.200003 162.15625 22.934378 161.4375Q22.668753 160.70312 22.075003 160.32812Q21.481253 159.9375 20.793753 159.9375Q19.778128 159.9375 19.121878 160.67188Q18.465628 161.40625 18.465628 163.0L18.465628 167.53125L23.200003 167.53125ZM27.856253 148.57812L28.090628 146.76562Q29.668753 147.1875 30.559378 148.35938Q31.434378 149.51562 31.434378 151.32812Q31.434378 153.59375 30.043753 154.9375Q28.637503 156.26562 26.106253 156.26562Q23.481253 156.26562 22.043753 154.92188Q20.590628 153.57812 20.590628 151.42188Q20.590628 149.34375 22.012503 148.03125Q23.418753 146.70312 25.996878 146.70312Q26.153128 146.70312 26.465628 146.71875L26.465628 154.45312Q28.168753 154.35938 29.075003 153.48438Q29.981253 152.60938 29.981253 151.3125Q29.981253 150.34375 29.481253 149.67188Q28.965628 148.98438 27.856253 148.57812ZM25.012503 154.35938L25.012503 148.5625Q23.715628 148.67188 23.059378 149.21875Q22.043753 150.0625 22.043753 151.40625Q22.043753 152.60938 22.856253 153.4375Q23.653128 154.26562 25.012503 154.35938ZM28.106253 145.39062L27.825003 143.64062Q28.871878 143.5 29.434378 142.82812Q29.981253 142.15625 29.981253 140.95312Q29.981253 139.75 29.496878 139.17188Q28.996878 138.57812 28.340628 138.57812Q27.746878 138.57812 27.403128 139.09375Q27.168753 139.45312 26.809378 140.89062Q26.309378 142.82812 25.965628 143.57812Q25.606253 144.3125 24.981253 144.70312Q24.340628 145.09375 23.575003 145.09375Q22.887503 145.09375 22.293753 144.78125Q21.700003 144.45312 21.309378 143.90625Q21.012503 143.5 20.809378 142.79688Q20.590628 142.07812 20.590628 141.26562Q20.590628 140.04688 20.950003 139.125Q21.293753 138.20312 21.903128 137.76562Q22.496878 137.32812 23.496878 137.15625L23.731253 138.875Q22.934378 139.0 22.496878 139.5625Q22.043753 140.125 22.043753 141.14062Q22.043753 142.35938 22.450003 142.875Q22.840628 143.39062 23.371878 143.39062Q23.715628 143.39062 23.996878 143.17188Q24.278128 142.96875 24.465628 142.5Q24.559378 142.23438 24.903128 140.95312Q25.403128 139.07812 25.731253 138.34375Q26.043753 137.60938 26.653128 137.1875Q27.246878 136.76562 28.153128 136.76562Q29.028128 136.76562 29.809378 137.28125Q30.590628 137.79688 31.012503 138.76562Q31.434378 139.73438 31.434378 140.95312Q31.434378 142.96875 30.590628 144.03125Q29.746878 145.09375 28.106253 145.39062ZM35.168755 134.6875L20.825003 134.6875L20.825003 133.07812L22.168753 133.07812Q21.387503 132.51562 20.996878 131.8125Q20.590628 131.09375 20.590628 130.07812Q20.590628 128.75 21.278128 127.734375Q21.965628 126.71875 23.215628 126.203125Q24.450003 125.671875 25.934378 125.671875Q27.528128 125.671875 28.809378 126.25Q30.075003 126.8125 30.762503 127.90625Q31.434378 129.0 31.434378 130.20312Q31.434378 131.07812 31.059378 131.78125Q30.684378 132.46875 30.121878 132.92188L35.168755 132.92188L35.168755 134.6875ZM26.075003 133.09375Q28.075003 133.09375 29.028128 132.28125Q29.981253 131.46875 29.981253 130.3125Q29.981253 129.14062 28.996878 128.3125Q28.012503 127.46875 25.918753 127.46875Q23.950003 127.46875 22.965628 128.29688Q21.965628 129.10938 21.965628 130.23438Q21.965628 131.35938 23.028128 132.23438Q24.075003 133.09375 26.075003 133.09375ZM26.012503 124.328125Q23.137503 124.328125 21.746878 122.734375Q20.590628 121.390625 20.590628 119.46875Q20.590628 117.328125 21.996878 115.984375Q23.403128 114.625 25.871878 114.625Q27.871878 114.625 29.028128 115.21875Q30.168753 115.8125 30.809378 116.96875Q31.434378 118.109375 31.434378 119.46875Q31.434378 121.65625 30.043753 123.0Q28.637503 124.328125 26.012503 124.328125ZM26.012503 122.53125Q28.012503 122.53125 28.996878 121.671875Q29.981253 120.796875 29.981253 119.46875Q29.981253 118.15625 28.996878 117.296875Q27.996878 116.421875 25.950003 116.421875Q24.028128 116.421875 23.043753 117.296875Q22.043753 118.171875 22.043753 119.46875Q22.043753 120.796875 23.043753 121.671875Q24.028128 122.53125 26.012503 122.53125ZM31.200003 112.6875L20.825003 112.6875L20.825003 111.09375L22.309378 111.09375Q20.590628 109.953125 20.590628 107.796875Q20.590628 106.859375 20.934378 106.078125Q21.262503 105.28125 21.809378 104.890625Q22.356253 104.5 23.106253 104.34375Q23.606253 104.25 24.825003 104.25L31.200003 104.25L31.200003 106.015625L24.887503 106.015625Q23.809378 106.015625 23.278128 106.21875Q22.746878 106.421875 22.434378 106.953125Q22.121878 107.46875 22.121878 108.171875Q22.121878 109.296875 22.840628 110.109375Q23.543753 110.921875 25.528128 110.921875L31.200003 110.921875L31.200003 112.6875ZM28.106253 103.390625L27.825003 101.640625Q28.871878 101.5 29.434378 100.828125Q29.981253 100.15625 29.981253 98.953125Q29.981253 97.75 29.496878 97.171875Q28.996878 96.578125 28.340628 96.578125Q27.746878 96.578125 27.403128 97.09375Q27.168753 97.453125 26.809378 98.890625Q26.309378 100.828125 25.965628 101.578125Q25.606253 102.3125 24.981253 102.703125Q24.340628 103.09375 23.575003 103.09375Q22.887503 103.09375 22.293753 102.78125Q21.700003 102.453125 21.309378 101.90625Q21.012503 101.5 20.809378 100.796875Q20.590628 100.078125 20.590628 99.265625Q20.590628 98.046875 20.950003 97.125Q21.293753 96.203125 21.903128 95.765625Q22.496878 95.328125 23.496878 95.15625L23.731253 96.875Q22.934378 97.0 22.496878 97.5625Q22.043753 98.125 22.043753 99.140625Q22.043753 100.359375 22.450003 100.875Q22.840628 101.390625 23.371878 101.390625Q23.715628 101.390625 23.996878 101.171875Q24.278128 100.96875 24.465628 100.5Q24.559378 100.234375 24.903128 98.953125Q25.403128 97.078125 25.731253 96.34375Q26.043753 95.609375 26.653128 95.1875Q27.246878 94.765625 28.153128 94.765625Q29.028128 94.765625 29.809378 95.28125Q30.590628 95.796875 31.012503 96.765625Q31.434378 97.734375 31.434378 98.953125Q31.434378 100.96875 30.590628 102.03125Q29.746878 103.09375 28.106253 103.390625ZM27.856253 85.578125L28.090628 83.765625Q29.668753 84.1875 30.559378 85.359375Q31.434378 86.515625 31.434378 88.328125Q31.434378 90.59375 30.043753 91.9375Q28.637503 93.265625 26.106253 93.265625Q23.481253 93.265625 22.043753 91.921875Q20.590628 90.578125 20.590628 88.421875Q20.590628 86.34375 22.012503 85.03125Q23.418753 83.703125 25.996878 83.703125Q26.153128 83.703125 26.465628 83.71875L26.465628 91.453125Q28.168753 91.359375 29.075003 90.484375Q29.981253 89.609375 29.981253 88.3125Q29.981253 87.34375 29.481253 86.671875Q28.965628 85.984375 27.856253 85.578125ZM25.012503 91.359375L25.012503 85.5625Q23.715628 85.671875 23.059378 86.21875Q22.043753 87.0625 22.043753 88.40625Q22.043753 89.609375 22.856253 90.4375Q23.653128 91.265625 25.012503 91.359375ZM28.106253 82.390625L27.825003 80.640625Q28.871878 80.5 29.434378 79.828125Q29.981253 79.15625 29.981253 77.953125Q29.981253 76.75 29.496878 76.171875Q28.996878 75.578125 28.340628 75.578125Q27.746878 75.578125 27.403128 76.09375Q27.168753 76.453125 26.809378 77.890625Q26.309378 79.828125 25.965628 80.578125Q25.606253 81.3125 24.981253 81.703125Q24.340628 82.09375 23.575003 82.09375Q22.887503 82.09375 22.293753 81.78125Q21.700003 81.453125 21.309378 80.90625Q21.012503 80.5 20.809378 79.796875Q20.590628 79.078125 20.590628 78.265625Q20.590628 77.046875 20.950003 76.125Q21.293753 75.203125 21.903128 74.765625Q22.496878 74.328125 23.496878 74.15625L23.731253 75.875Q22.934378 76.0 22.496878 76.5625Q22.043753 77.125 22.043753 78.140625Q22.043753 79.359375 22.450003 79.875Q22.840628 80.390625 23.371878 80.390625Q23.715628 80.390625 23.996878 80.171875Q24.278128 79.96875 24.465628 79.5Q24.559378 79.234375 24.903128 77.953125Q25.403128 76.078125 25.731253 75.34375Q26.043753 74.609375 26.653128 74.1875Q27.246878 73.765625 28.153128 73.765625Q29.028128 73.765625 29.809378 74.28125Q30.590628 74.796875 31.012503 75.765625Q31.434378 76.734375 31.434378 77.953125Q31.434378 79.96875 30.590628 81.03125Q29.746878 82.09375 28.106253 82.390625Z" fill-rule="nonzero"/><path fill="#000000" d="M100.02812 173.7375Q100.02812 171.20625 100.54375 169.65938Q101.075 168.09688 102.10625 167.26875Q103.1375 166.425 104.7 166.425Q105.85625 166.425 106.71562 166.89375Q107.59062 167.34688 108.15312 168.22188Q108.71562 169.09688 109.04375 170.3625Q109.37187 171.6125 109.37187 173.7375Q109.37187 176.25313 108.84062 177.8Q108.325 179.34688 107.29375 180.20625Q106.27812 181.05 104.7 181.05Q102.62187 181.05 101.45 179.56563Q100.02812 177.76875 100.02812 173.7375ZM101.84062 173.7375Q101.84062 177.26875 102.65312 178.44063Q103.48125 179.59688 104.7 179.59688Q105.90312 179.59688 106.73125 178.425Q107.55937 177.25313 107.55937 173.7375Q107.55937 170.20625 106.73125 169.05Q105.90312 167.87813 104.68437 167.87813Q103.46562 167.87813 102.74687 168.90938Q101.84062 170.20625 101.84062 173.7375Z" fill-rule="nonzero"/><path fill="#000000" d="M78.02812 139.65L79.87187 139.49374Q80.075 140.8375 80.825 141.525Q81.575 142.19687 82.6375 142.19687Q83.90312 142.19687 84.77812 141.24374Q85.65312 140.29062 85.65312 138.69687Q85.65312 137.19687 84.80937 136.3375Q83.96562 135.4625 82.60625 135.4625Q81.74687 135.4625 81.05937 135.85312Q80.3875 136.22812 79.99687 136.85312L78.34062 136.63437L79.73125 129.275L86.85625 129.275L86.85625 130.9625L81.1375 130.9625L80.37187 134.80624Q81.65312 133.9 83.075 133.9Q84.95 133.9 86.23125 135.2125Q87.52812 136.50937 87.52812 138.54062Q87.52812 140.49374 86.3875 141.9Q85.0125 143.65 82.6375 143.65Q80.68437 143.65 79.43437 142.55624Q78.2 141.4625 78.02812 139.65ZM89.02812 136.3375Q89.02812 133.80624 89.54375 132.25937Q90.075 130.69687 91.10625 129.86874Q92.1375 129.025 93.7 129.025Q94.85625 129.025 95.71562 129.49374Q96.59062 129.94687 97.15312 130.82187Q97.71562 131.69687 98.04375 132.9625Q98.37187 134.2125 98.37187 136.3375Q98.37187 138.85312 97.84062 140.4Q97.325 141.94687 96.29375 142.80624Q95.27812 143.65 93.7 143.65Q91.62187 143.65 90.45 142.16562Q89.02812 140.36874 89.02812 136.3375ZM90.84062 136.3375Q90.84062 139.86874 91.65312 141.04062Q92.48125 142.19687 93.7 142.19687Q94.90312 142.19687 95.73125 141.025Q96.55937 139.85312 96.55937 136.3375Q96.55937 132.80624 95.73125 131.65Q94.90312 130.47812 93.68437 130.47812Q92.46562 130.47812 91.74687 131.50937Q90.84062 132.80624 90.84062 136.3375ZM100.02812 136.3375Q100.02812 133.80624 100.54375 132.25937Q101.075 130.69687 102.10625 129.86874Q103.1375 129.025 104.7 129.025Q105.85625 129.025 106.71562 129.49374Q107.59062 129.94687 108.15312 130.82187Q108.71562 131.69687 109.04375 132.9625Q109.37187 134.2125 109.37187 136.3375Q109.37187 138.85312 108.84062 140.4Q108.325 141.94687 107.29375 142.80624Q106.27812 143.65 104.7 143.65Q102.62187 143.65 101.45 142.16562Q100.02812 140.36874 100.02812 136.3375ZM101.84062 136.3375Q101.84062 139.86874 102.65312 141.04062Q103.48125 142.19687 104.7 142.19687Q105.90312 142.19687 106.73125 141.025Q107.55937 139.85312 107.55937 136.3375Q107.55937 132.80624 106.73125 131.65Q105.90312 130.47812 104.68437 130.47812Q103.46562 130.47812 102.74687 131.50937Q101.84062 132.80624 101.84062 136.3375Z" fill-rule="nonzero"/><path fill="#000000" d="M73.65312 106.0L71.8875 106.0L71.8875 94.796875Q71.2625 95.40625 70.23125 96.015625Q69.2 96.609375 68.37187 96.921875L68.37187 95.21875Q69.85625 94.53125 70.95 93.546875Q72.05937 92.546875 72.5125 91.625L73.65312 91.625L73.65312 106.0ZM78.02812 98.9375Q78.02812 96.40625 78.54375 94.859375Q79.075 93.296875 80.10625 92.46875Q81.1375 91.625 82.7 91.625Q83.85625 91.625 84.71562 92.09375Q85.59062 92.546875 86.15312 93.421875Q86.71562 94.296875 87.04375 95.5625Q87.37187 96.8125 87.37187 98.9375Q87.37187 101.453125 86.84062 103.0Q86.325 104.546875 85.29375 105.40625Q84.27812 106.25 82.7 106.25Q80.62187 106.25 79.45 104.765625Q78.02812 102.96875 78.02812 98.9375ZM79.84062 98.9375Q79.84062 102.46875 80.65312 103.640625Q81.48125 104.796875 82.7 104.796875Q83.90312 104.796875 84.73125 103.625Q85.55937 102.453125 85.55937 98.9375Q85.55937 95.40625 84.73125 94.25Q83.90312 93.078125 82.68437 93.078125Q81.46562 93.078125 80.74687 94.109375Q79.84062 95.40625 79.84062 98.9375ZM89.02812 98.9375Q89.02812 96.40625 89.54375 94.859375Q90.075 93.296875 91.10625 92.46875Q92.1375 91.625 93.7 91.625Q94.85625 91.625 95.71562 92.09375Q96.59062 92.546875 97.15312 93.421875Q97.71562 94.296875 98.04375 95.5625Q98.37187 96.8125 98.37187 98.9375Q98.37187 101.453125 97.84062 103.0Q97.325 104.546875 96.29375 105.40625Q95.27812 106.25 93.7 106.25Q91.62187 106.25 90.45 104.765625Q89.02812 102.96875 89.02812 98.9375ZM90.84062 98.9375Q90.84062 102.46875 91.65312 103.640625Q92.48125 104.796875 93.7 104.796875Q94.90312 104.796875 95.73125 103.625Q96.55937 102.453125 96.55937 98.9375Q96.55937 95.40625 95.73125 94.25Q94.90312 93.078125 93.68437 93.078125Q92.46562 93.078125 91.74687 94.109375Q90.84062 95.40625 90.84062 98.9375ZM100.02812 98.9375Q100.02812 96.40625 100.54375 94.859375Q101.075 93.296875 102.10625 92.46875Q103.1375 91.625 104.7 91.625Q105.85625 91.625 106.71562 92.09375Q107.59062 92.546875 108.15312 93.421875Q108.71562 94.296875 109.04375 95.5625Q109.37187 96.8125 109.37187 98.9375Q109.37187 101.453125 108.84062 103.0Q108.325 104.546875 107.29375 105.40625Q106.27812 106.25 104.7 106.25Q102.62187 106.25 101.45 104.765625Q100.02812 102.96875 100.02812 98.9375ZM101.84062 98.9375Q101.84062 102.46875 102.65312 103.640625Q103.48125 104.796875 104.7 104.796875Q105.90312 104.796875 106.73125 103.625Q107.55937 102.453125 107.55937 98.9375Q107.55937 95.40625 106.73125 94.25Q105.90312 93.078125 104.68437 93.078125Q103.46562 93.078125 102.74687 94.109375Q101.84062 95.40625 101.84062 98.9375Z" fill-rule="nonzero"/><path fill="#000000" d="M73.65312 68.6L71.8875 68.6L71.8875 57.396873Q71.2625 58.00625 70.23125 58.615623Q69.2 59.209373 68.37187 59.521873L68.37187 57.81875Q69.85625 57.13125 70.95 56.146873Q72.05937 55.146873 72.5125 54.225L73.65312 54.225L73.65312 68.6ZM78.02812 64.85L79.87187 64.69375Q80.075 66.0375 80.825 66.725Q81.575 67.39687 82.6375 67.39687Q83.90312 67.39687 84.77812 66.44375Q85.65312 65.49062 85.65312 63.896873Q85.65312 62.396873 84.80937 61.5375Q83.96562 60.6625 82.60625 60.6625Q81.74687 60.6625 81.05937 61.053123Q80.3875 61.428123 79.99687 62.053123L78.34062 61.834373L79.73125 54.475L86.85625 54.475L86.85625 56.1625L81.1375 56.1625L80.37187 60.00625Q81.65312 59.1 83.075 59.1Q84.95 59.1 86.23125 60.4125Q87.52812 61.709373 87.52812 63.740623Q87.52812 65.69375 86.3875 67.1Q85.0125 68.85 82.6375 68.85Q80.68437 68.85 79.43437 67.75625Q78.2 66.6625 78.02812 64.85ZM89.02812 61.5375Q89.02812 59.00625 89.54375 57.459373Q90.075 55.896873 91.10625 55.06875Q92.1375 54.225 93.7 54.225Q94.85625 54.225 95.71562 54.69375Q96.59062 55.146873 97.15312 56.021873Q97.71562 56.896873 98.04375 58.1625Q98.37187 59.4125 98.37187 61.5375Q98.37187 64.05312 97.84062 65.6Q97.325 67.14687 96.29375 68.00625Q95.27812 68.85 93.7 68.85Q91.62187 68.85 90.45 67.36562Q89.02812 65.56875 89.02812 61.5375ZM90.84062 61.5375Q90.84062 65.06875 91.65312 66.24062Q92.48125 67.39687 93.7 67.39687Q94.90312 67.39687 95.73125 66.225Q96.55937 65.05312 96.55937 61.5375Q96.55937 58.00625 95.73125 56.85Q94.90312 55.678123 93.68437 55.678123Q92.46562 55.678123 91.74687 56.709373Q90.84062 58.00625 90.84062 61.5375ZM100.02812 61.5375Q100.02812 59.00625 100.54375 57.459373Q101.075 55.896873 102.10625 55.06875Q103.1375 54.225 104.7 54.225Q105.85625 54.225 106.71562 54.69375Q107.59062 55.146873 108.15312 56.021873Q108.71562 56.896873 109.04375 58.1625Q109.37187 59.4125 109.37187 61.5375Q109.37187 64.05312 108.84062 65.6Q108.325 67.14687 107.29375 68.00625Q106.27812 68.85 104.7 68.85Q102.62187 68.85 101.45 67.36562Q100.02812 65.56875 100.02812 61.5375ZM101.84062 61.5375Q101.84062 65.06875 102.65312 66.24062Q103.48125 67.39687 104.7 67.39687Q105.90312 67.39687 106.73125 66.225Q107.55937 65.05312 107.55937 61.5375Q107.55937 58.00625 106.73125 56.85Q105.90312 55.678123 104.68437 55.678123Q103.46562 55.678123 102.74687 56.709373Q101.84062 58.00625 101.84062 61.5375Z" fill-rule="nonzero"/><path fill="#000000" d="M76.2625 29.5125L76.2625 31.2L66.80937 31.2Q66.79375 30.559376 67.0125 29.98125Q67.37187 29.0125 68.16875 28.075Q68.96562 27.1375 70.46562 25.903126Q72.80937 23.996876 73.62187 22.8875Q74.45 21.7625 74.45 20.7625Q74.45 19.715626 73.7 18.996876Q72.95 18.278126 71.74687 18.278126Q70.48125 18.278126 69.71562 19.04375Q68.95 19.809376 68.95 21.153126L67.1375 20.965626Q67.325 18.95 68.52812 17.8875Q69.74687 16.825 71.79375 16.825Q73.84062 16.825 75.04375 17.965626Q76.24687 19.10625 76.24687 20.79375Q76.24687 21.653126 75.8875 22.496876Q75.54375 23.325 74.73125 24.246876Q73.91875 25.153126 72.02812 26.7625Q70.43437 28.090626 69.98125 28.559376Q69.54375 29.028126 69.24687 29.5125L76.2625 29.5125ZM78.02812 24.1375Q78.02812 21.60625 78.54375 20.059376Q79.075 18.496876 80.10625 17.66875Q81.1375 16.825 82.7 16.825Q83.85625 16.825 84.71562 17.29375Q85.59062 17.746876 86.15312 18.621876Q86.71562 19.496876 87.04375 20.7625Q87.37187 22.0125 87.37187 24.1375Q87.37187 26.653126 86.84062 28.2Q86.325 29.746876 85.29375 30.60625Q84.27812 31.45 82.7 31.45Q80.62187 31.45 79.45 29.965626Q78.02812 28.16875 78.02812 24.1375ZM79.84062 24.1375Q79.84062 27.66875 80.65312 28.840626Q81.48125 29.996876 82.7 29.996876Q83.90312 29.996876 84.73125 28.825Q85.55937 27.653126 85.55937 24.1375Q85.55937 20.60625 84.73125 19.45Q83.90312 18.278126 82.68437 18.278126Q81.46562 18.278126 80.74687 19.309376Q79.84062 20.60625 79.84062 24.1375ZM89.02812 24.1375Q89.02812 21.60625 89.54375 20.059376Q90.075 18.496876 91.10625 17.66875Q92.1375 16.825 93.7 16.825Q94.85625 16.825 95.71562 17.29375Q96.59062 17.746876 97.15312 18.621876Q97.71562 19.496876 98.04375 20.7625Q98.37187 22.0125 98.37187 24.1375Q98.37187 26.653126 97.84062 28.2Q97.325 29.746876 96.29375 30.60625Q95.27812 31.45 93.7 31.45Q91.62187 31.45 90.45 29.965626Q89.02812 28.16875 89.02812 24.1375ZM90.84062 24.1375Q90.84062 27.66875 91.65312 28.840626Q92.48125 29.996876 93.7 29.996876Q94.90312 29.996876 95.73125 28.825Q96.55937 27.653126 96.55937 24.1375Q96.55937 20.60625 95.73125 19.45Q94.90312 18.278126 93.68437 18.278126Q92.46562 18.278126 91.74687 19.309376Q90.84062 20.60625 90.84062 24.1375ZM100.02812 24.1375Q100.02812 21.60625 100.54375 20.059376Q101.075 18.496876 102.10625 17.66875Q103.1375 16.825 104.7 16.825Q105.85625 16.825 106.71562 17.29375Q107.59062 17.746876 108.15312 18.621876Q108.71562 19.496876 109.04375 20.7625Q109.37187 22.0125 109.37187 24.1375Q109.37187 26.653126 108.84062 28.2Q108.325 29.746876 107.29375 30.60625Q106.27812 31.45 104.7 31.45Q102.62187 31.45 101.45 29.965626Q100.02812 28.16875 100.02812 24.1375ZM101.84062 24.1375Q101.84062 27.66875 102.65312 28.840626Q103.48125 29.996876 104.7 29.996876Q105.90312 29.996876 106.73125 28.825Q107.55937 27.653126 107.55937 24.1375Q107.55937 20.60625 106.73125 19.45Q105.90312 18.278126 104.68437 18.278126Q103.46562 18.278126 102.74687 19.309376Q101.84062 20.60625 101.84062 24.1375Z" fill-rule="nonzero"/><path fill="#000000" d="M596.82214 198.20625L598.6034 198.05Q598.7284 199.1125 599.1815 199.8Q599.65027 200.4875 600.619 200.925Q601.6034 201.34688 602.83777 201.34688Q603.9159 201.34688 604.744 201.03438Q605.57214 200.70625 605.9784 200.14375Q606.38464 199.58125 606.38464 198.90938Q606.38464 198.2375 605.994 197.7375Q605.6034 197.2375 604.71277 196.89375Q604.13464 196.65938 602.15027 196.19063Q600.1815 195.72188 599.40027 195.3Q598.369 194.76875 597.869 193.97188Q597.369 193.175 597.369 192.19063Q597.369 191.09688 597.9784 190.15938Q598.58777 189.22188 599.77527 188.7375Q600.96277 188.2375 602.40027 188.2375Q603.994 188.2375 605.21277 188.75313Q606.4315 189.26875 607.07214 190.26875Q607.7284 191.25313 607.77527 192.51875L605.96277 192.65938Q605.82214 191.3 604.9784 190.6125Q604.13464 189.90938 602.4784 189.90938Q600.75964 189.90938 599.96277 190.55Q599.1815 191.175 599.1815 192.05Q599.1815 192.83125 599.744 193.33125Q600.2909 193.83125 602.6034 194.34688Q604.9159 194.8625 605.77527 195.25313Q607.02527 195.83125 607.619 196.72188Q608.21277 197.59688 608.21277 198.75313Q608.21277 199.89375 607.5565 200.90938Q606.90027 201.925 605.6659 202.4875Q604.44714 203.05 602.9159 203.05Q600.9784 203.05 599.6659 202.4875Q598.3534 201.90938 597.6034 200.76875Q596.8534 199.62813 596.82214 198.20625ZM614.07214 201.22188L614.32214 202.78438Q613.58777 202.94063 612.994 202.94063Q612.0409 202.94063 611.50964 202.64375Q610.994 202.33125 610.77527 201.84688Q610.5565 201.34688 610.5565 199.76875L610.5565 193.8L609.27527 193.8L609.27527 192.425L610.5565 192.425L610.5565 189.8625L612.3065 188.8L612.3065 192.425L614.07214 192.425L614.07214 193.8L612.3065 193.8L612.3065 199.8625Q612.3065 200.6125 612.40027 200.83125Q612.494 201.03438 612.69714 201.175Q612.9159 201.3 613.3065 201.3Q613.58777 201.3 614.07214 201.22188ZM616.21277 202.8L616.21277 192.425L617.7909 192.425L617.7909 194.00313Q618.40027 192.89375 618.9159 192.55Q619.4315 192.19063 620.0409 192.19063Q620.9315 192.19063 621.8534 192.75313L621.244 194.39375Q620.6034 194.00313 619.96277 194.00313Q619.38464 194.00313 618.9159 194.3625Q618.46277 194.70625 618.25964 195.31563Q617.9784 196.25313 617.9784 197.3625L617.9784 202.8L616.21277 202.8ZM622.58777 197.6125Q622.58777 194.7375 624.1815 193.34688Q625.52527 192.19063 627.44714 192.19063Q629.58777 192.19063 630.9315 193.59688Q632.2909 195.00313 632.2909 197.47188Q632.2909 199.47188 631.69714 200.62813Q631.1034 201.76875 629.94714 202.40938Q628.8065 203.03438 627.44714 203.03438Q625.25964 203.03438 623.9159 201.64375Q622.58777 200.2375 622.58777 197.6125ZM624.38464 197.6125Q624.38464 199.6125 625.244 200.59688Q626.119 201.58125 627.44714 201.58125Q628.75964 201.58125 629.619 200.59688Q630.494 199.59688 630.494 197.55Q630.494 195.62813 629.619 194.64375Q628.744 193.64375 627.44714 193.64375Q626.119 193.64375 625.244 194.64375Q624.38464 195.62813 624.38464 197.6125ZM634.2284 202.8L634.2284 192.425L635.82214 192.425L635.82214 193.90938Q636.96277 192.19063 639.119 192.19063Q640.0565 192.19063 640.83777 192.53438Q641.63464 192.8625 642.02527 193.40938Q642.4159 193.95625 642.57214 194.70625Q642.6659 195.20625 642.6659 196.425L642.6659 202.8L640.90027 202.8L640.90027 196.4875Q640.90027 195.40938 640.69714 194.87813Q640.494 194.34688 639.96277 194.03438Q639.44714 193.72188 638.744 193.72188Q637.619 193.72188 636.8065 194.44063Q635.994 195.14375 635.994 197.12813L635.994 202.8L634.2284 202.8ZM643.9159 203.65938L645.619 203.90938Q645.7284 204.70625 646.21277 205.06563Q646.869 205.55 648.00964 205.55Q649.2284 205.55 649.88464 205.06563Q650.5565 204.58125 650.7909 203.70625Q650.9315 203.15938 650.9159 201.44063Q649.75964 202.8 648.0409 202.8Q645.90027 202.8 644.7284 201.25313Q643.5565 199.70625 643.5565 197.55Q643.5565 196.06563 644.08777 194.81563Q644.63464 193.56563 645.65027 192.87813Q646.6815 192.19063 648.0565 192.19063Q649.88464 192.19063 651.08777 193.675L651.08777 192.425L652.69714 192.425L652.69714 201.39375Q652.69714 203.81563 652.19714 204.81563Q651.71277 205.83125 650.63464 206.40938Q649.57214 207.00313 648.00964 207.00313Q646.1659 207.00313 645.00964 206.175Q643.869 205.34688 643.9159 203.65938ZM645.369 197.425Q645.369 199.47188 646.1815 200.40938Q646.994 201.34688 648.21277 201.34688Q649.4159 201.34688 650.2284 200.40938Q651.0565 199.47188 651.0565 197.4875Q651.0565 195.58125 650.21277 194.6125Q649.369 193.64375 648.1815 193.64375Q647.00964 193.64375 646.1815 194.59688Q645.369 195.55 645.369 197.425ZM655.19714 202.8L655.19714 188.4875L656.94714 188.4875L656.94714 202.8L655.19714 202.8ZM659.15027 206.8L658.96277 205.14375Q659.5409 205.3 659.96277 205.3Q660.5565 205.3 660.90027 205.09688Q661.25964 204.90938 661.4784 204.56563Q661.65027 204.3 662.02527 203.25313Q662.07214 203.09688 662.1815 202.81563L658.244 192.425L660.13464 192.425L662.2909 198.44063Q662.71277 199.58125 663.0409 200.83125Q663.3534 199.62813 663.75964 198.47188L665.9784 192.425L667.744 192.425L663.7909 202.97188Q663.1659 204.69063 662.8065 205.33125Q662.33777 206.20625 661.7284 206.59688Q661.13464 207.00313 660.2909 207.00313Q659.77527 207.00313 659.15027 206.8Z" fill-rule="nonzero"/><path fill="#000000" d="M605.38464 226.8L610.88464 212.4875L612.9315 212.4875L618.7909 226.8L616.63464 226.8L614.96277 222.45625L608.9784 222.45625L607.40027 226.8L605.38464 226.8ZM609.52527 220.925L614.369 220.925L612.88464 216.95625Q612.19714 215.14375 611.869 213.9875Q611.58777 215.3625 611.08777 216.72188L609.52527 220.925ZM619.4159 227.65938L621.119 227.90938Q621.2284 228.70625 621.71277 229.06563Q622.369 229.55 623.50964 229.55Q624.7284 229.55 625.38464 229.06563Q626.0565 228.58125 626.2909 227.70625Q626.4315 227.15938 626.4159 225.44063Q625.25964 226.8 623.5409 226.8Q621.40027 226.8 620.2284 225.25313Q619.0565 223.70625 619.0565 221.55Q619.0565 220.06563 619.58777 218.81563Q620.13464 217.56563 621.15027 216.87813Q622.1815 216.19063 623.5565 216.19063Q625.38464 216.19063 626.58777 217.675L626.58777 216.425L628.19714 216.425L628.19714 225.39375Q628.19714 227.81563 627.69714 228.81563Q627.21277 229.83125 626.13464 230.40938Q625.07214 231.00313 623.50964 231.00313Q621.6659 231.00313 620.50964 230.175Q619.369 229.34688 619.4159 227.65938ZM620.869 221.425Q620.869 223.47188 621.6815 224.40938Q622.494 225.34688 623.71277 225.34688Q624.9159 225.34688 625.7284 224.40938Q626.5565 223.47188 626.5565 221.4875Q626.5565 219.58125 625.71277 218.6125Q624.869 217.64375 623.6815 217.64375Q622.50964 217.64375 621.6815 218.59688Q620.869 219.55 620.869 221.425ZM630.71277 226.8L630.71277 216.425L632.2909 216.425L632.2909 218.00313Q632.90027 216.89375 633.4159 216.55Q633.9315 216.19063 634.5409 216.19063Q635.4315 216.19063 636.3534 216.75313L635.744 218.39375Q635.1034 218.00313 634.46277 218.00313Q633.88464 218.00313 633.4159 218.3625Q632.96277 218.70625 632.75964 219.31563Q632.4784 220.25313 632.4784 221.3625L632.4784 226.8L630.71277 226.8ZM644.83777 223.45625L646.65027 223.69063Q646.2284 225.26875 645.0565 226.15938Q643.90027 227.03438 642.08777 227.03438Q639.82214 227.03438 638.4784 225.64375Q637.15027 224.2375 637.15027 221.70625Q637.15027 219.08125 638.494 217.64375Q639.83777 216.19063 641.994 216.19063Q644.07214 216.19063 645.38464 217.6125Q646.71277 219.01875 646.71277 221.59688Q646.71277 221.75313 646.69714 222.06563L638.96277 222.06563Q639.0565 223.76875 639.9315 224.675Q640.8065 225.58125 642.1034 225.58125Q643.07214 225.58125 643.744 225.08125Q644.4315 224.56563 644.83777 223.45625ZM639.0565 220.6125L644.8534 220.6125Q644.744 219.31563 644.19714 218.65938Q643.3534 217.64375 642.00964 217.64375Q640.8065 217.64375 639.9784 218.45625Q639.15027 219.25313 639.0565 220.6125ZM655.83777 223.45625L657.65027 223.69063Q657.2284 225.26875 656.0565 226.15938Q654.90027 227.03438 653.08777 227.03438Q650.82214 227.03438 649.4784 225.64375Q648.15027 224.2375 648.15027 221.70625Q648.15027 219.08125 649.494 217.64375Q650.83777 216.19063 652.994 216.19063Q655.07214 216.19063 656.38464 217.6125Q657.71277 219.01875 657.71277 221.59688Q657.71277 221.75313 657.69714 222.06563L649.96277 222.06563Q650.0565 223.76875 650.9315 224.675Q651.8065 225.58125 653.1034 225.58125Q654.07214 225.58125 654.744 225.08125Q655.4315 224.56563 655.83777 223.45625ZM650.0565 220.6125L655.8534 220.6125Q655.744 219.31563 655.19714 218.65938Q654.3534 217.64375 653.00964 217.64375Q651.8065 217.64375 650.9784 218.45625Q650.15027 219.25313 650.0565 220.6125Z" fill-rule="nonzero"/><path fill="#000000" d="M495.9267 202.8L501.4267 188.4875L503.47357 188.4875L509.33295 202.8L507.1767 202.8L505.50482 198.45625L499.52045 198.45625L497.94232 202.8L495.9267 202.8ZM500.06732 196.925L504.91107 196.925L503.4267 192.95625Q502.7392 191.14375 502.41107 189.9875Q502.12982 191.3625 501.62982 192.72188L500.06732 196.925ZM509.95795 203.65938L511.66107 203.90938Q511.77045 204.70625 512.2548 205.06563Q512.9111 205.55 514.0517 205.55Q515.27045 205.55 515.9267 205.06563Q516.5986 204.58125 516.83295 203.70625Q516.9736 203.15938 516.95795 201.44063Q515.8017 202.8 514.08295 202.8Q511.94232 202.8 510.77045 201.25313Q509.59857 199.70625 509.59857 197.55Q509.59857 196.06563 510.12982 194.81563Q510.6767 193.56563 511.69232 192.87813Q512.7236 192.19063 514.0986 192.19063Q515.9267 192.19063 517.1298 193.675L517.1298 192.425L518.7392 192.425L518.7392 201.39375Q518.7392 203.81563 518.2392 204.81563Q517.7548 205.83125 516.6767 206.40938Q515.6142 207.00313 514.0517 207.00313Q512.20795 207.00313 511.0517 206.175Q509.91107 205.34688 509.95795 203.65938ZM511.41107 197.425Q511.41107 199.47188 512.2236 200.40938Q513.0361 201.34688 514.2548 201.34688Q515.45795 201.34688 516.27045 200.40938Q517.0986 199.47188 517.0986 197.4875Q517.0986 195.58125 516.2548 194.6125Q515.4111 193.64375 514.2236 193.64375Q513.0517 193.64375 512.2236 194.59688Q511.41107 195.55 511.41107 197.425ZM521.2548 202.8L521.2548 192.425L522.83295 192.425L522.83295 194.00313Q523.4423 192.89375 523.95795 192.55Q524.4736 192.19063 525.08295 192.19063Q525.9736 192.19063 526.89545 192.75313L526.2861 194.39375Q525.64545 194.00313 525.0048 194.00313Q524.4267 194.00313 523.95795 194.3625Q523.5048 194.70625 523.3017 195.31563Q523.02045 196.25313 523.02045 197.3625L523.02045 202.8L521.2548 202.8ZM535.3798 199.45625L537.1923 199.69063Q536.77045 201.26875 535.5986 202.15938Q534.4423 203.03438 532.6298 203.03438Q530.3642 203.03438 529.02045 201.64375Q527.6923 200.2375 527.6923 197.70625Q527.6923 195.08125 529.0361 193.64375Q530.3798 192.19063 532.5361 192.19063Q534.6142 192.19063 535.9267 193.6125Q537.2548 195.01875 537.2548 197.59688Q537.2548 197.75313 537.2392 198.06563L529.5048 198.06563Q529.5986 199.76875 530.4736 200.675Q531.3486 201.58125 532.64545 201.58125Q533.6142 201.58125 534.2861 201.08125Q534.9736 200.56563 535.3798 199.45625ZM529.5986 196.6125L535.39545 196.6125Q535.2861 195.31563 534.7392 194.65938Q533.89545 193.64375 532.5517 193.64375Q531.3486 193.64375 530.52045 194.45625Q529.6923 195.25313 529.5986 196.6125ZM546.3798 199.45625L548.1923 199.69063Q547.77045 201.26875 546.5986 202.15938Q545.4423 203.03438 543.6298 203.03438Q541.3642 203.03438 540.02045 201.64375Q538.6923 200.2375 538.6923 197.70625Q538.6923 195.08125 540.0361 193.64375Q541.3798 192.19063 543.5361 192.19063Q545.6142 192.19063 546.9267 193.6125Q548.2548 195.01875 548.2548 197.59688Q548.2548 197.75313 548.2392 198.06563L540.5048 198.06563Q540.5986 199.76875 541.4736 200.675Q542.3486 201.58125 543.64545 201.58125Q544.6142 201.58125 545.2861 201.08125Q545.9736 200.56563 546.3798 199.45625ZM540.5986 196.6125L546.39545 196.6125Q546.2861 195.31563 545.7392 194.65938Q544.89545 193.64375 543.5517 193.64375Q542.3486 193.64375 541.52045 194.45625Q540.6923 195.25313 540.5986 196.6125Z" fill-rule="nonzero"/><path fill="#000000" d="M383.53125 202.8L383.53125 188.4875L385.46875 188.4875L392.98438 199.72188L392.98438 188.4875L394.79688 188.4875L394.79688 202.8L392.85938 202.8L385.34375 191.55L385.34375 202.8L383.53125 202.8ZM403.42188 199.45625L405.23438 199.69063Q404.8125 201.26875 403.64062 202.15938Q402.48438 203.03438 400.67188 203.03438Q398.40625 203.03438 397.0625 201.64375Q395.73438 200.2375 395.73438 197.70625Q395.73438 195.08125 397.07812 193.64375Q398.42188 192.19063 400.57812 192.19063Q402.65625 192.19063 403.96875 193.6125Q405.29688 195.01875 405.29688 197.59688Q405.29688 197.75313 405.28125 198.06563L397.54688 198.06563Q397.64062 199.76875 398.51562 200.675Q399.39062 201.58125 400.6875 201.58125Q401.65625 201.58125 402.32812 201.08125Q403.01562 200.56563 403.42188 199.45625ZM397.64062 196.6125L403.4375 196.6125Q403.32812 195.31563 402.78125 194.65938Q401.9375 193.64375 400.59375 193.64375Q399.39062 193.64375 398.5625 194.45625Q397.73438 195.25313 397.64062 196.6125ZM414.10938 202.8L414.10938 201.26875Q412.90625 203.03438 410.82812 203.03438Q409.90625 203.03438 409.10938 202.69063Q408.3125 202.33125 407.92188 201.8Q407.54688 201.26875 407.39062 200.4875Q407.28125 199.97188 407.28125 198.84688L407.28125 192.425L409.03125 192.425L409.03125 198.175Q409.03125 199.55 409.14062 200.03438Q409.3125 200.72188 409.84375 201.12813Q410.39062 201.51875 411.17188 201.51875Q411.96875 201.51875 412.65625 201.1125Q413.35938 200.70625 413.64062 200.01875Q413.9375 199.31563 413.9375 197.9875L413.9375 192.425L415.6875 192.425L415.6875 202.8L414.10938 202.8ZM421.15625 201.22188L421.40625 202.78438Q420.67188 202.94063 420.07812 202.94063Q419.125 202.94063 418.59375 202.64375Q418.07812 202.33125 417.85938 201.84688Q417.64062 201.34688 417.64062 199.76875L417.64062 193.8L416.35938 193.8L416.35938 192.425L417.64062 192.425L417.64062 189.8625L419.39062 188.8L419.39062 192.425L421.15625 192.425L421.15625 193.8L419.39062 193.8L419.39062 199.8625Q419.39062 200.6125 419.48438 200.83125Q419.57812 201.03438 419.78125 201.175Q420.0 201.3 420.39062 201.3Q420.67188 201.3 421.15625 201.22188ZM423.29688 202.8L423.29688 192.425L424.875 192.425L424.875 194.00313Q425.48438 192.89375 426.0 192.55Q426.51562 192.19063 427.125 192.19063Q428.01562 192.19063 428.9375 192.75313L428.32812 194.39375Q427.6875 194.00313 427.04688 194.00313Q426.46875 194.00313 426.0 194.3625Q425.54688 194.70625 425.34375 195.31563Q425.0625 196.25313 425.0625 197.3625L425.0625 202.8L423.29688 202.8ZM437.09375 201.51875Q436.10938 202.34688 435.20312 202.69063Q434.29688 203.03438 433.26562 203.03438Q431.5625 203.03438 430.64062 202.20625Q429.71875 201.3625 429.71875 200.06563Q429.71875 199.3 430.0625 198.675Q430.42188 198.05 430.98438 197.675Q431.54688 197.28438 432.25 197.08125Q432.76562 196.95625 433.8125 196.81563Q435.9375 196.56563 436.9375 196.22188Q436.95312 195.8625 436.95312 195.75313Q436.95312 194.69063 436.45312 194.2375Q435.78125 193.64375 434.45312 193.64375Q433.20312 193.64375 432.60938 194.08125Q432.03125 194.51875 431.75 195.62813L430.03125 195.39375Q430.26562 194.28438 430.79688 193.6125Q431.32812 192.925 432.34375 192.56563Q433.35938 192.19063 434.70312 192.19063Q436.03125 192.19063 436.85938 192.50313Q437.6875 192.81563 438.07812 193.3Q438.46875 193.76875 438.625 194.4875Q438.71875 194.94063 438.71875 196.1125L438.71875 198.45625Q438.71875 200.90938 438.82812 201.56563Q438.9375 202.20625 439.28125 202.8L437.4375 202.8Q437.17188 202.25313 437.09375 201.51875ZM436.9375 197.59688Q435.98438 197.9875 434.0625 198.25313Q432.98438 198.40938 432.53125 198.6125Q432.09375 198.8 431.84375 199.175Q431.59375 199.55 431.59375 200.01875Q431.59375 200.72188 432.125 201.19063Q432.65625 201.65938 433.6875 201.65938Q434.70312 201.65938 435.48438 201.22188Q436.28125 200.76875 436.65625 200.00313Q436.9375 199.39375 436.9375 198.2375L436.9375 197.59688ZM441.28125 202.8L441.28125 188.4875L443.03125 188.4875L443.03125 202.8L441.28125 202.8Z" fill-rule="nonzero"/><path fill="#000000" d="M265.58893 202.8L265.58893 188.4875L270.5108 188.4875Q272.18268 188.4875 273.0733 188.69063Q274.29205 188.97188 275.16705 189.70625Q276.29205 190.675 276.85455 192.15938Q277.41705 193.64375 277.41705 195.56563Q277.41705 197.19063 277.04205 198.45625Q276.66705 199.70625 276.05768 200.53438Q275.46393 201.3625 274.7608 201.84688Q274.05768 202.31563 273.05768 202.56563Q272.05768 202.8 270.74518 202.8L265.58893 202.8ZM267.47955 201.1125L270.54205 201.1125Q271.9483 201.1125 272.74518 200.84688Q273.55768 200.58125 274.04205 200.09688Q274.71393 199.425 275.08893 198.3Q275.46393 197.15938 275.46393 195.53438Q275.46393 193.28438 274.72955 192.08125Q273.99518 190.87813 272.93268 190.47188Q272.18268 190.175 270.49518 190.175L267.47955 190.175L267.47955 201.1125ZM279.37018 190.50313L279.37018 188.4875L281.1358 188.4875L281.1358 190.50313L279.37018 190.50313ZM279.37018 202.8L279.37018 192.425L281.1358 192.425L281.1358 202.8L279.37018 202.8ZM282.65143 199.70625L284.40143 199.425Q284.54205 200.47188 285.21393 201.03438Q285.8858 201.58125 287.08893 201.58125Q288.29205 201.58125 288.87018 201.09688Q289.46393 200.59688 289.46393 199.94063Q289.46393 199.34688 288.9483 199.00313Q288.58893 198.76875 287.15143 198.40938Q285.21393 197.90938 284.46393 197.56563Q283.72955 197.20625 283.33893 196.58125Q282.9483 195.94063 282.9483 195.175Q282.9483 194.4875 283.2608 193.89375Q283.58893 193.3 284.1358 192.90938Q284.54205 192.6125 285.24518 192.40938Q285.96393 192.19063 286.77643 192.19063Q287.99518 192.19063 288.91705 192.55Q289.83893 192.89375 290.27643 193.50313Q290.71393 194.09688 290.8858 195.09688L289.16705 195.33125Q289.04205 194.53438 288.47955 194.09688Q287.91705 193.64375 286.90143 193.64375Q285.68268 193.64375 285.16705 194.05Q284.65143 194.44063 284.65143 194.97188Q284.65143 195.31563 284.87018 195.59688Q285.0733 195.87813 285.54205 196.06563Q285.80768 196.15938 287.08893 196.50313Q288.96393 197.00313 289.6983 197.33125Q290.43268 197.64375 290.85455 198.25313Q291.27643 198.84688 291.27643 199.75313Q291.27643 200.62813 290.7608 201.40938Q290.24518 202.19063 289.27643 202.6125Q288.30768 203.03438 287.08893 203.03438Q285.0733 203.03438 284.0108 202.19063Q282.9483 201.34688 282.65143 199.70625ZM300.1358 201.51875Q299.15143 202.34688 298.24518 202.69063Q297.33893 203.03438 296.30768 203.03438Q294.60455 203.03438 293.68268 202.20625Q292.7608 201.3625 292.7608 200.06563Q292.7608 199.3 293.10455 198.675Q293.46393 198.05 294.02643 197.675Q294.58893 197.28438 295.29205 197.08125Q295.80768 196.95625 296.85455 196.81563Q298.97955 196.56563 299.97955 196.22188Q299.99518 195.8625 299.99518 195.75313Q299.99518 194.69063 299.49518 194.2375Q298.8233 193.64375 297.49518 193.64375Q296.24518 193.64375 295.65143 194.08125Q295.0733 194.51875 294.79205 195.62813L293.0733 195.39375Q293.30768 194.28438 293.83893 193.6125Q294.37018 192.925 295.3858 192.56563Q296.40143 192.19063 297.74518 192.19063Q299.0733 192.19063 299.90143 192.50313Q300.72955 192.81563 301.12018 193.3Q301.5108 193.76875 301.66705 194.4875Q301.7608 194.94063 301.7608 196.1125L301.7608 198.45625Q301.7608 200.90938 301.87018 201.56563Q301.97955 202.20625 302.3233 202.8L300.47955 202.8Q300.21393 202.25313 300.1358 201.51875ZM299.97955 197.59688Q299.02643 197.9875 297.10455 198.25313Q296.02643 198.40938 295.5733 198.6125Q295.1358 198.8 294.8858 199.175Q294.6358 199.55 294.6358 200.01875Q294.6358 200.72188 295.16705 201.19063Q295.6983 201.65938 296.72955 201.65938Q297.74518 201.65938 298.52643 201.22188Q299.3233 200.76875 299.6983 200.00313Q299.97955 199.39375 299.97955 198.2375L299.97955 197.59688ZM304.04205 203.65938L305.74518 203.90938Q305.85455 204.70625 306.33893 205.06563Q306.99518 205.55 308.1358 205.55Q309.35455 205.55 310.0108 205.06563Q310.68268 204.58125 310.91705 203.70625Q311.05768 203.15938 311.04205 201.44063Q309.8858 202.8 308.16705 202.8Q306.02643 202.8 304.85455 201.25313Q303.68268 199.70625 303.68268 197.55Q303.68268 196.06563 304.21393 194.81563Q304.7608 193.56563 305.77643 192.87813Q306.80768 192.19063 308.18268 192.19063Q310.0108 192.19063 311.21393 193.675L311.21393 192.425L312.8233 192.425L312.8233 201.39375Q312.8233 203.81563 312.3233 204.81563Q311.83893 205.83125 310.7608 206.40938Q309.6983 207.00313 308.1358 207.00313Q306.29205 207.00313 305.1358 206.175Q303.99518 205.34688 304.04205 203.65938ZM305.49518 197.425Q305.49518 199.47188 306.30768 200.40938Q307.12018 201.34688 308.33893 201.34688Q309.54205 201.34688 310.35455 200.40938Q311.18268 199.47188 311.18268 197.4875Q311.18268 195.58125 310.33893 194.6125Q309.49518 193.64375 308.30768 193.64375Q307.1358 193.64375 306.30768 194.59688Q305.49518 195.55 305.49518 197.425ZM315.33893 202.8L315.33893 192.425L316.91705 192.425L316.91705 194.00313Q317.52643 192.89375 318.04205 192.55Q318.55768 192.19063 319.16705 192.19063Q320.05768 192.19063 320.97955 192.75313L320.37018 194.39375Q319.72955 194.00313 319.08893 194.00313Q318.5108 194.00313 318.04205 194.3625Q317.58893 194.70625 317.3858 195.31563Q317.10455 196.25313 317.10455 197.3625L317.10455 202.8L315.33893 202.8ZM329.46393 199.45625L331.27643 199.69063Q330.85455 201.26875 329.68268 202.15938Q328.52643 203.03438 326.71393 203.03438Q324.4483 203.03438 323.10455 201.64375Q321.77643 200.2375 321.77643 197.70625Q321.77643 195.08125 323.12018 193.64375Q324.46393 192.19063 326.62018 192.19063Q328.6983 192.19063 330.0108 193.6125Q331.33893 195.01875 331.33893 197.59688Q331.33893 197.75313 331.3233 198.06563L323.58893 198.06563Q323.68268 199.76875 324.55768 200.675Q325.43268 201.58125 326.72955 201.58125Q327.6983 201.58125 328.37018 201.08125Q329.05768 200.56563 329.46393 199.45625ZM323.68268 196.6125L329.47955 196.6125Q329.37018 195.31563 328.8233 194.65938Q327.97955 193.64375 326.6358 193.64375Q325.43268 193.64375 324.60455 194.45625Q323.77643 195.25313 323.68268 196.6125ZM340.46393 199.45625L342.27643 199.69063Q341.85455 201.26875 340.68268 202.15938Q339.52643 203.03438 337.71393 203.03438Q335.4483 203.03438 334.10455 201.64375Q332.77643 200.2375 332.77643 197.70625Q332.77643 195.08125 334.12018 193.64375Q335.46393 192.19063 337.62018 192.19063Q339.6983 192.19063 341.0108 193.6125Q342.33893 195.01875 342.33893 197.59688Q342.33893 197.75313 342.3233 198.06563L334.58893 198.06563Q334.68268 199.76875 335.55768 200.675Q336.43268 201.58125 337.72955 201.58125Q338.6983 201.58125 339.37018 201.08125Q340.05768 200.56563 340.46393 199.45625ZM334.68268 196.6125L340.47955 196.6125Q340.37018 195.31563 339.8233 194.65938Q338.97955 193.64375 337.6358 193.64375Q336.43268 193.64375 335.60455 194.45625Q334.77643 195.25313 334.68268 196.6125Z" fill-rule="nonzero"/><path fill="#000000" d="M158.99036 198.20625L160.7716 198.05Q160.8966 199.1125 161.34973 199.8Q161.81848 200.4875 162.78723 200.925Q163.7716 201.34688 165.00598 201.34688Q166.0841 201.34688 166.91223 201.03438Q167.74036 200.70625 168.1466 200.14375Q168.55286 199.58125 168.55286 198.90938Q168.55286 198.2375 168.16223 197.7375Q167.7716 197.2375 166.88098 196.89375Q166.30286 196.65938 164.31848 196.19063Q162.34973 195.72188 161.56848 195.3Q160.53723 194.76875 160.03723 193.97188Q159.53723 193.175 159.53723 192.19063Q159.53723 191.09688 160.1466 190.15938Q160.75598 189.22188 161.94348 188.7375Q163.13098 188.2375 164.56848 188.2375Q166.16223 188.2375 167.38098 188.75313Q168.59973 189.26875 169.24036 190.26875Q169.8966 191.25313 169.94348 192.51875L168.13098 192.65938Q167.99036 191.3 167.1466 190.6125Q166.30286 189.90938 164.6466 189.90938Q162.92786 189.90938 162.13098 190.55Q161.34973 191.175 161.34973 192.05Q161.34973 192.83125 161.91223 193.33125Q162.4591 193.83125 164.7716 194.34688Q167.0841 194.8625 167.94348 195.25313Q169.19348 195.83125 169.78723 196.72188Q170.38098 197.59688 170.38098 198.75313Q170.38098 199.89375 169.72473 200.90938Q169.06848 201.925 167.8341 202.4875Q166.61536 203.05 165.0841 203.05Q163.1466 203.05 161.8341 202.4875Q160.5216 201.90938 159.7716 200.76875Q159.0216 199.62813 158.99036 198.20625ZM176.24036 201.22188L176.49036 202.78438Q175.75598 202.94063 175.16223 202.94063Q174.2091 202.94063 173.67786 202.64375Q173.16223 202.33125 172.94348 201.84688Q172.72473 201.34688 172.72473 199.76875L172.72473 193.8L171.44348 193.8L171.44348 192.425L172.72473 192.425L172.72473 189.8625L174.47473 188.8L174.47473 192.425L176.24036 192.425L176.24036 193.8L174.47473 193.8L174.47473 199.8625Q174.47473 200.6125 174.56848 200.83125Q174.66223 201.03438 174.86536 201.175Q175.0841 201.3 175.47473 201.3Q175.75598 201.3 176.24036 201.22188ZM178.38098 202.8L178.38098 192.425L179.9591 192.425L179.9591 194.00313Q180.56848 192.89375 181.0841 192.55Q181.59973 192.19063 182.2091 192.19063Q183.09973 192.19063 184.0216 192.75313L183.41223 194.39375Q182.7716 194.00313 182.13098 194.00313Q181.55286 194.00313 181.0841 194.3625Q180.63098 194.70625 180.42786 195.31563Q180.1466 196.25313 180.1466 197.3625L180.1466 202.8L178.38098 202.8ZM184.75598 197.6125Q184.75598 194.7375 186.34973 193.34688Q187.69348 192.19063 189.61536 192.19063Q191.75598 192.19063 193.09973 193.59688Q194.4591 195.00313 194.4591 197.47188Q194.4591 199.47188 193.86536 200.62813Q193.2716 201.76875 192.11536 202.40938Q190.97473 203.03438 189.61536 203.03438Q187.42786 203.03438 186.0841 201.64375Q184.75598 200.2375 184.75598 197.6125ZM186.55286 197.6125Q186.55286 199.6125 187.41223 200.59688Q188.28723 201.58125 189.61536 201.58125Q190.92786 201.58125 191.78723 200.59688Q192.66223 199.59688 192.66223 197.55Q192.66223 195.62813 191.78723 194.64375Q190.91223 193.64375 189.61536 193.64375Q188.28723 193.64375 187.41223 194.64375Q186.55286 195.62813 186.55286 197.6125ZM196.3966 202.8L196.3966 192.425L197.99036 192.425L197.99036 193.90938Q199.13098 192.19063 201.28723 192.19063Q202.22473 192.19063 203.00598 192.53438Q203.80286 192.8625 204.19348 193.40938Q204.5841 193.95625 204.74036 194.70625Q204.8341 195.20625 204.8341 196.425L204.8341 202.8L203.06848 202.8L203.06848 196.4875Q203.06848 195.40938 202.86536 194.87813Q202.66223 194.34688 202.13098 194.03438Q201.61536 193.72188 200.91223 193.72188Q199.78723 193.72188 198.97473 194.44063Q198.16223 195.14375 198.16223 197.12813L198.16223 202.8L196.3966 202.8ZM206.0841 203.65938L207.78723 203.90938Q207.8966 204.70625 208.38098 205.06563Q209.03723 205.55 210.17786 205.55Q211.3966 205.55 212.05286 205.06563Q212.72473 204.58125 212.9591 203.70625Q213.09973 203.15938 213.0841 201.44063Q211.92786 202.8 210.2091 202.8Q208.06848 202.8 206.8966 201.25313Q205.72473 199.70625 205.72473 197.55Q205.72473 196.06563 206.25598 194.81563Q206.80286 193.56563 207.81848 192.87813Q208.84973 192.19063 210.22473 192.19063Q212.05286 192.19063 213.25598 193.675L213.25598 192.425L214.86536 192.425L214.86536 201.39375Q214.86536 203.81563 214.36536 204.81563Q213.88098 205.83125 212.80286 206.40938Q211.74036 207.00313 210.17786 207.00313Q208.3341 207.00313 207.17786 206.175Q206.03723 205.34688 206.0841 203.65938ZM207.53723 197.425Q207.53723 199.47188 208.34973 200.40938Q209.16223 201.34688 210.38098 201.34688Q211.5841 201.34688 212.3966 200.40938Q213.22473 199.47188 213.22473 197.4875Q213.22473 195.58125 212.38098 194.6125Q211.53723 193.64375 210.34973 193.64375Q209.17786 193.64375 208.34973 194.59688Q207.53723 195.55 207.53723 197.425ZM217.36536 202.8L217.36536 188.4875L219.11536 188.4875L219.11536 202.8L217.36536 202.8ZM221.31848 206.8L221.13098 205.14375Q221.7091 205.3 222.13098 205.3Q222.72473 205.3 223.06848 205.09688Q223.42786 204.90938 223.6466 204.56563Q223.81848 204.3 224.19348 203.25313Q224.24036 203.09688 224.34973 202.81563L220.41223 192.425L222.30286 192.425L224.4591 198.44063Q224.88098 199.58125 225.2091 200.83125Q225.5216 199.62813 225.92786 198.47188L228.1466 192.425L229.91223 192.425L225.9591 202.97188Q225.3341 204.69063 224.97473 205.33125Q224.50598 206.20625 223.8966 206.59688Q223.30286 207.00313 222.4591 207.00313Q221.94348 207.00313 221.31848 206.8Z" fill-rule="nonzero"/><path fill="#000000" d="M156.13098 226.8L156.13098 212.4875L161.05286 212.4875Q162.72473 212.4875 163.61536 212.69063Q164.8341 212.97188 165.7091 213.70625Q166.8341 214.675 167.3966 216.15938Q167.9591 217.64375 167.9591 219.56563Q167.9591 221.19063 167.5841 222.45625Q167.2091 223.70625 166.59973 224.53438Q166.00598 225.3625 165.30286 225.84688Q164.59973 226.31563 163.59973 226.56563Q162.59973 226.8 161.28723 226.8L156.13098 226.8ZM158.0216 225.1125L161.0841 225.1125Q162.49036 225.1125 163.28723 224.84688Q164.09973 224.58125 164.5841 224.09688Q165.25598 223.425 165.63098 222.3Q166.00598 221.15938 166.00598 219.53438Q166.00598 217.28438 165.2716 216.08125Q164.53723 214.87813 163.47473 214.47188Q162.72473 214.175 161.03723 214.175L158.0216 214.175L158.0216 225.1125ZM169.91223 214.50313L169.91223 212.4875L171.67786 212.4875L171.67786 214.50313L169.91223 214.50313ZM169.91223 226.8L169.91223 216.425L171.67786 216.425L171.67786 226.8L169.91223 226.8ZM173.19348 223.70625L174.94348 223.425Q175.0841 224.47188 175.75598 225.03438Q176.42786 225.58125 177.63098 225.58125Q178.8341 225.58125 179.41223 225.09688Q180.00598 224.59688 180.00598 223.94063Q180.00598 223.34688 179.49036 223.00313Q179.13098 222.76875 177.69348 222.40938Q175.75598 221.90938 175.00598 221.56563Q174.2716 221.20625 173.88098 220.58125Q173.49036 219.94063 173.49036 219.175Q173.49036 218.4875 173.80286 217.89375Q174.13098 217.3 174.67786 216.90938Q175.0841 216.6125 175.78723 216.40938Q176.50598 216.19063 177.31848 216.19063Q178.53723 216.19063 179.4591 216.55Q180.38098 216.89375 180.81848 217.50313Q181.25598 218.09688 181.42786 219.09688L179.7091 219.33125Q179.5841 218.53438 179.0216 218.09688Q178.4591 217.64375 177.44348 217.64375Q176.22473 217.64375 175.7091 218.05Q175.19348 218.44063 175.19348 218.97188Q175.19348 219.31563 175.41223 219.59688Q175.61536 219.87813 176.0841 220.06563Q176.34973 220.15938 177.63098 220.50313Q179.50598 221.00313 180.24036 221.33125Q180.97473 221.64375 181.3966 222.25313Q181.81848 222.84688 181.81848 223.75313Q181.81848 224.62813 181.30286 225.40938Q180.78723 226.19063 179.81848 226.6125Q178.84973 227.03438 177.63098 227.03438Q175.61536 227.03438 174.55286 226.19063Q173.49036 225.34688 173.19348 223.70625ZM190.67786 225.51875Q189.69348 226.34688 188.78723 226.69063Q187.88098 227.03438 186.84973 227.03438Q185.1466 227.03438 184.22473 226.20625Q183.30286 225.3625 183.30286 224.06563Q183.30286 223.3 183.6466 222.675Q184.00598 222.05 184.56848 221.675Q185.13098 221.28438 185.8341 221.08125Q186.34973 220.95625 187.3966 220.81563Q189.5216 220.56563 190.5216 220.22188Q190.53723 219.8625 190.53723 219.75313Q190.53723 218.69063 190.03723 218.2375Q189.36536 217.64375 188.03723 217.64375Q186.78723 217.64375 186.19348 218.08125Q185.61536 218.51875 185.3341 219.62813L183.61536 219.39375Q183.84973 218.28438 184.38098 217.6125Q184.91223 216.925 185.92786 216.56563Q186.94348 216.19063 188.28723 216.19063Q189.61536 216.19063 190.44348 216.50313Q191.2716 216.81563 191.66223 217.3Q192.05286 217.76875 192.2091 218.4875Q192.30286 218.94063 192.30286 220.1125L192.30286 222.45625Q192.30286 224.90938 192.41223 225.56563Q192.5216 226.20625 192.86536 226.8L191.0216 226.8Q190.75598 226.25313 190.67786 225.51875ZM190.5216 221.59688Q189.56848 221.9875 187.6466 222.25313Q186.56848 222.40938 186.11536 222.6125Q185.67786 222.8 185.42786 223.175Q185.17786 223.55 185.17786 224.01875Q185.17786 224.72188 185.7091 225.19063Q186.24036 225.65938 187.2716 225.65938Q188.28723 225.65938 189.06848 225.22188Q189.86536 224.76875 190.24036 224.00313Q190.5216 223.39375 190.5216 222.2375L190.5216 221.59688ZM194.5841 227.65938L196.28723 227.90938Q196.3966 228.70625 196.88098 229.06563Q197.53723 229.55 198.67786 229.55Q199.8966 229.55 200.55286 229.06563Q201.22473 228.58125 201.4591 227.70625Q201.59973 227.15938 201.5841 225.44063Q200.42786 226.8 198.7091 226.8Q196.56848 226.8 195.3966 225.25313Q194.22473 223.70625 194.22473 221.55Q194.22473 220.06563 194.75598 218.81563Q195.30286 217.56563 196.31848 216.87813Q197.34973 216.19063 198.72473 216.19063Q200.55286 216.19063 201.75598 217.675L201.75598 216.425L203.36536 216.425L203.36536 225.39375Q203.36536 227.81563 202.86536 228.81563Q202.38098 229.83125 201.30286 230.40938Q200.24036 231.00313 198.67786 231.00313Q196.8341 231.00313 195.67786 230.175Q194.53723 229.34688 194.5841 227.65938ZM196.03723 221.425Q196.03723 223.47188 196.84973 224.40938Q197.66223 225.34688 198.88098 225.34688Q200.0841 225.34688 200.8966 224.40938Q201.72473 223.47188 201.72473 221.4875Q201.72473 219.58125 200.88098 218.6125Q200.03723 217.64375 198.84973 217.64375Q197.67786 217.64375 196.84973 218.59688Q196.03723 219.55 196.03723 221.425ZM205.88098 226.8L205.88098 216.425L207.4591 216.425L207.4591 218.00313Q208.06848 216.89375 208.5841 216.55Q209.09973 216.19063 209.7091 216.19063Q210.59973 216.19063 211.5216 216.75313L210.91223 218.39375Q210.2716 218.00313 209.63098 218.00313Q209.05286 218.00313 208.5841 218.3625Q208.13098 218.70625 207.92786 219.31563Q207.6466 220.25313 207.6466 221.3625L207.6466 226.8L205.88098 226.8ZM220.00598 223.45625L221.81848 223.69063Q221.3966 225.26875 220.22473 226.15938Q219.06848 227.03438 217.25598 227.03438Q214.99036 227.03438 213.6466 225.64375Q212.31848 224.2375 212.31848 221.70625Q212.31848 219.08125 213.66223 217.64375Q215.00598 216.19063 217.16223 216.19063Q219.24036 216.19063 220.55286 217.6125Q221.88098 219.01875 221.88098 221.59688Q221.88098 221.75313 221.86536 222.06563L214.13098 222.06563Q214.22473 223.76875 215.09973 224.675Q215.97473 225.58125 217.2716 225.58125Q218.24036 225.58125 218.91223 225.08125Q219.59973 224.56563 220.00598 223.45625ZM214.22473 220.6125L220.0216 220.6125Q219.91223 219.31563 219.36536 218.65938Q218.5216 217.64375 217.17786 217.64375Q215.97473 217.64375 215.1466 218.45625Q214.31848 219.25313 214.22473 220.6125ZM231.00598 223.45625L232.81848 223.69063Q232.3966 225.26875 231.22473 226.15938Q230.06848 227.03438 228.25598 227.03438Q225.99036 227.03438 224.6466 225.64375Q223.31848 224.2375 223.31848 221.70625Q223.31848 219.08125 224.66223 217.64375Q226.00598 216.19063 228.16223 216.19063Q230.24036 216.19063 231.55286 217.6125Q232.88098 219.01875 232.88098 221.59688Q232.88098 221.75313 232.86536 222.06563L225.13098 222.06563Q225.22473 223.76875 226.09973 224.675Q226.97473 225.58125 228.2716 225.58125Q229.24036 225.58125 229.91223 225.08125Q230.59973 224.56563 231.00598 223.45625ZM225.22473 220.6125L231.0216 220.6125Q230.91223 219.31563 230.36536 218.65938Q229.5216 217.64375 228.17786 217.64375Q226.97473 217.64375 226.1466 218.45625Q225.31848 219.25313 225.22473 220.6125Z" fill-rule="nonzero"/></svg>