<svg version="1.1" viewBox="0.0 0.0 875.0 350.0" fill="none" stroke="none" stroke-linecap="square" stroke-miterlimit="10" width="875" height="350" xmlns:xlink="http://www.w3.org/1999/xlink" xmlns="http://www.w3.org/2000/svg"><path fill="#ffffff" d="M0 0L875.0 0L875.0 350.0L0 350.0L0 0Z" fill-rule="nonzero"/><path stroke="#333333" stroke-width="1.0" stroke-linecap="butt" d="M142.5 222.5L857.5 222.5" fill-rule="nonzero"/><path fill="#eeeeee" d="M114.5 250.5L142.5 223.5L857.5 223.5L829.5 250.5Z" fill-rule="nonzero"/><path stroke="#cccccc" stroke-width="1.0" stroke-linecap="butt" d="M142.5 158.5L857.5 158.5" fill-rule="nonzero"/><path stroke="#cccccc" stroke-width="1.0" stroke-linecap="butt" d="M142.5 93.5L857.5 93.5" fill-rule="nonzero"/><path stroke="#cccccc" stroke-width="1.0" stroke-linecap="butt" d="M142.5 29.5L857.5 29.5" fill-rule="nonzero"/><clipPath id="id_0"><path d="M114.5 29.5L857.5 29.5L857.5 250.5L114.5 250.5L114.5 29.5Z" clip-rule="nonzero"/></clipPath><path fill="#924242" clip-path="url(#id_0)" d="M265.0 81.0L265.0 223.0L242.0 246.0L242.0 104.0Z" fill-rule="nonzero"/><path fill="#e68585" clip-path="url(#id_0)" d="M242.0 104.0L152.0 104.0L175.0 81.0L265.0 81.0Z" fill-rule="nonzero"/><path stroke="#000000" stroke-width="2.0" stroke-linecap="butt" stroke-opacity="0.0" clip-path="url(#id_0)" d="M242.0 246.0L152.0 246.0L152.0 104.0L242.0 104.0Z" fill-rule="nonzero"/><path fill="#e06666" clip-path="url(#id_0)" d="M242.0 246.0L152.0 246.0L152.0 104.0L242.0 104.0Z" fill-rule="nonzero"/><path fill="#924242" clip-path="url(#id_0)" d="M404.0 139.0L404.0 223.0L381.0 246.0L381.0 162.0Z" fill-rule="nonzero"/><path fill="#e68585" clip-path="url(#id_0)" d="M381.0 162.0L291.0 162.0L314.0 139.0L404.0 139.0Z" fill-rule="nonzero"/><path stroke="#000000" stroke-width="2.0" stroke-linecap="butt" stroke-opacity="0.0" clip-path="url(#id_0)" d="M381.0 246.0L291.0 246.0L291.0 162.0L381.0 162.0Z" fill-rule="nonzero"/><path fill="#e06666" clip-path="url(#id_0)" d="M381.0 246.0L291.0 246.0L291.0 162.0L381.0 162.0Z" fill-rule="nonzero"/><path fill="#924242" clip-path="url(#id_0)" d="M543.0 165.0L543.0 223.0L520.0 246.0L520.0 188.0Z" fill-rule="nonzero"/><path fill="#e68585" clip-path="url(#id_0)" d="M520.0 188.0L430.0 188.0L453.0 165.0L543.0 165.0Z" fill-rule="nonzero"/><path stroke="#000000" stroke-width="2.0" stroke-linecap="butt" stroke-opacity="0.0" clip-path="url(#id_0)" d="M520.0 246.0L430.0 246.0L430.0 188.0L520.0 188.0Z" fill-rule="nonzero"/><path fill="#e06666" clip-path="url(#id_0)" d="M520.0 246.0L430.0 246.0L430.0 188.0L520.0 188.0Z" fill-rule="nonzero"/><path fill="#924242" clip-path="url(#id_0)" d="M681.0 189.0L681.0 223.0L658.0 246.0L658.0 212.0Z" fill-rule="nonzero"/><path fill="#e68585" clip-path="url(#id_0)" d="M658.0 212.0L568.0 212.0L591.0 189.0L681.0 189.0Z" fill-rule="nonzero"/><path stroke="#000000" stroke-width="2.0" stroke-linecap="butt" stroke-opacity="0.0" clip-path="url(#id_0)" d="M658.0 246.0L568.0 246.0L568.0 212.0L658.0 212.0Z" fill-rule="nonzero"/><path fill="#e06666" clip-path="url(#id_0)" d="M658.0 246.0L568.0 246.0L568.0 212.0L658.0 212.0Z" fill-rule="nonzero"/><path fill="#924242" clip-path="url(#id_0)" d="M820.0 201.0L820.0 223.0L797.0 246.0L797.0 224.0Z" fill-rule="nonzero"/><path fill="#e68585" clip-path="url(#id_0)" d="M797.0 224.0L707.0 224.0L730.0 201.0L820.0 201.0Z" fill-rule="nonzero"/><path stroke="#000000" stroke-width="2.0" stroke-linecap="butt" stroke-opacity="0.0" clip-path="url(#id_0)" d="M797.0 246.0L707.0 246.0L707.0 224.0L797.0 224.0Z" fill-rule="nonzero"/><path fill="#e06666" clip-path="url(#id_0)" d="M797.0 246.0L707.0 246.0L707.0 224.0L797.0 224.0Z" fill-rule="nonzero"/><path stroke="#e06666" stroke-width="3.0" stroke-linejoin="round" stroke-linecap="round" d="M189.76562 125.36667L187.5 125.36667L187.5 116.66354L184.8125 117.49167L184.8125 115.66354L189.51562 113.97604L189.76562 113.97604L189.76562 125.36667ZM198.76562 125.36667L196.5 125.36667L196.5 116.66354L193.8125 117.49167L193.8125 115.66354L198.51562 113.97604L198.76562 113.97604L198.76562 125.36667ZM209.9375 120.66354Q209.9375 123.02292 208.95312 124.27292Q207.98438 125.52292 206.09375 125.52292Q204.23438 125.52292 203.25 124.30417Q202.26562 123.06979 202.25 120.77292L202.25 118.67917Q202.25 116.30417 203.23438 115.06979Q204.21875 113.83542 206.07812 113.83542Q207.9375 113.83542 208.92188 115.05417Q209.90625 116.27292 209.9375 118.56979L209.9375 120.66354ZM207.67188 118.36667Q207.67188 116.94479 207.28125 116.30417Q206.90625 115.66354 206.07812 115.66354Q205.28125 115.66354 204.90625 116.27292Q204.53125 116.88229 204.5 118.19479L204.5 120.96042Q204.5 122.35104 204.875 123.02292Q205.26562 123.69479 206.09375 123.69479Q206.92188 123.69479 207.28125 123.05417Q207.65625 122.39792 207.67188 121.06979L207.67188 118.36667Z" fill-rule="nonzero"/><path fill="#000000" d="M189.76562 125.36667L187.5 125.36667L187.5 116.66354L184.8125 117.49167L184.8125 115.66354L189.51562 113.97604L189.76562 113.97604L189.76562 125.36667ZM198.76562 125.36667L196.5 125.36667L196.5 116.66354L193.8125 117.49167L193.8125 115.66354L198.51562 113.97604L198.76562 113.97604L198.76562 125.36667ZM209.9375 120.66354Q209.9375 123.02292 208.95312 124.27292Q207.98438 125.52292 206.09375 125.52292Q204.23438 125.52292 203.25 124.30417Q202.26562 123.06979 202.25 120.77292L202.25 118.67917Q202.25 116.30417 203.23438 115.06979Q204.21875 113.83542 206.07812 113.83542Q207.9375 113.83542 208.92188 115.05417Q209.90625 116.27292 209.9375 118.56979L209.9375 120.66354ZM207.67188 118.36667Q207.67188 116.94479 207.28125 116.30417Q206.90625 115.66354 206.07812 115.66354Q205.28125 115.66354 204.90625 116.27292Q204.53125 116.88229 204.5 118.19479L204.5 120.96042Q204.5 122.35104 204.875 123.02292Q205.26562 123.69479 206.09375 123.69479Q206.92188 123.69479 207.28125 123.05417Q207.65625 122.39792 207.67188 121.06979L207.67188 118.36667Z" fill-rule="nonzero"/><path stroke="#e06666" stroke-width="3.0" stroke-linejoin="round" stroke-linecap="round" d="M333.90625 171.76666L333.90625 173.62604L333.6875 173.62604Q332.15625 173.65729 331.21875 174.43854Q330.28125 175.20416 330.09375 176.57916Q331.0 175.65729 332.39062 175.65729Q333.875 175.65729 334.75 176.71979Q335.625 177.78229 335.625 179.51666Q335.625 180.62604 335.14062 181.53229Q334.65625 182.42291 333.78125 182.92291Q332.90625 183.42291 331.79688 183.42291Q330.0 183.42291 328.89062 182.17291Q327.78125 180.92291 327.78125 178.82916L327.78125 178.01666Q327.78125 176.17291 328.48438 174.75104Q329.1875 173.32916 330.48438 172.56354Q331.79688 171.78229 333.53125 171.76666L333.90625 171.76666ZM331.70312 177.46979Q331.15625 177.46979 330.70312 177.75104Q330.26562 178.03229 330.04688 178.50104L330.04688 179.18854Q330.04688 180.32916 330.48438 180.96979Q330.9375 181.59479 331.75 181.59479Q332.46875 181.59479 332.92188 181.03229Q333.375 180.45416 333.375 179.53229Q333.375 178.61041 332.92188 178.04791Q332.46875 177.46979 331.70312 177.46979ZM337.10938 177.67291L337.76562 171.89166L344.14062 171.89166L344.14062 173.76666L339.625 173.76666L339.34375 176.21979Q340.14062 175.78229 341.04688 175.78229Q342.67188 175.78229 343.59375 176.79791Q344.51562 177.79791 344.51562 179.61041Q344.51562 180.71979 344.04688 181.59479Q343.59375 182.45416 342.71875 182.93854Q341.85938 183.42291 340.67188 183.42291Q339.64062 183.42291 338.75 183.00104Q337.875 182.57916 337.35938 181.82916Q336.85938 181.06354 336.82812 180.09479L339.0625 180.09479Q339.125 180.81354 339.54688 181.20416Q339.98438 181.59479 340.67188 181.59479Q341.4375 181.59479 341.84375 181.04791Q342.26562 180.50104 342.26562 179.48541Q342.26562 178.51666 341.78125 178.00104Q341.3125 177.48541 340.4375 177.48541Q339.625 177.48541 339.125 177.90729L338.90625 178.11041L337.10938 177.67291Z" fill-rule="nonzero"/><path fill="#000000" d="M333.90625 171.76666L333.90625 173.62604L333.6875 173.62604Q332.15625 173.65729 331.21875 174.43854Q330.28125 175.20416 330.09375 176.57916Q331.0 175.65729 332.39062 175.65729Q333.875 175.65729 334.75 176.71979Q335.625 177.78229 335.625 179.51666Q335.625 180.62604 335.14062 181.53229Q334.65625 182.42291 333.78125 182.92291Q332.90625 183.42291 331.79688 183.42291Q330.0 183.42291 328.89062 182.17291Q327.78125 180.92291 327.78125 178.82916L327.78125 178.01666Q327.78125 176.17291 328.48438 174.75104Q329.1875 173.32916 330.48438 172.56354Q331.79688 171.78229 333.53125 171.76666L333.90625 171.76666ZM331.70312 177.46979Q331.15625 177.46979 330.70312 177.75104Q330.26562 178.03229 330.04688 178.50104L330.04688 179.18854Q330.04688 180.32916 330.48438 180.96979Q330.9375 181.59479 331.75 181.59479Q332.46875 181.59479 332.92188 181.03229Q333.375 180.45416 333.375 179.53229Q333.375 178.61041 332.92188 178.04791Q332.46875 177.46979 331.70312 177.46979ZM337.10938 177.67291L337.76562 171.89166L344.14062 171.89166L344.14062 173.76666L339.625 173.76666L339.34375 176.21979Q340.14062 175.78229 341.04688 175.78229Q342.67188 175.78229 343.59375 176.79791Q344.51562 177.79791 344.51562 179.61041Q344.51562 180.71979 344.04688 181.59479Q343.59375 182.45416 342.71875 182.93854Q341.85938 183.42291 340.67188 183.42291Q339.64062 183.42291 338.75 183.00104Q337.875 182.57916 337.35938 181.82916Q336.85938 181.06354 336.82812 180.09479L339.0625 180.09479Q339.125 180.81354 339.54688 181.20416Q339.98438 181.59479 340.67188 181.59479Q341.4375 181.59479 341.84375 181.04791Q342.26562 180.50104 342.26562 179.48541Q342.26562 178.51666 341.78125 178.00104Q341.3125 177.48541 340.4375 177.48541Q339.625 177.48541 339.125 177.90729L338.90625 178.11041L337.10938 177.67291Z" fill-rule="nonzero"/><path stroke="#e06666" stroke-width="3.0" stroke-linejoin="round" stroke-linecap="round" d="M473.45312 204.71875L474.75 204.71875L474.75 206.53125L473.45312 206.53125L473.45312 209.0L471.20312 209.0L471.20312 206.53125L466.53125 206.53125L466.4375 205.10938L471.17188 197.625L473.45312 197.625L473.45312 204.71875ZM468.6875 204.71875L471.20312 204.71875L471.20312 200.70312L471.04688 200.95312L468.6875 204.71875ZM476.10938 203.40625L476.76562 197.625L483.14062 197.625L483.14062 199.5L478.625 199.5L478.34375 201.95312Q479.14062 201.51562 480.04688 201.51562Q481.67188 201.51562 482.59375 202.53125Q483.51562 203.53125 483.51562 205.34375Q483.51562 206.45312 483.04688 207.32812Q482.59375 208.1875 481.71875 208.67188Q480.85938 209.15625 479.67188 209.15625Q478.64062 209.15625 477.75 208.73438Q476.875 208.3125 476.35938 207.5625Q475.85938 206.79688 475.82812 205.82812L478.0625 205.82812Q478.125 206.54688 478.54688 206.9375Q478.98438 207.32812 479.67188 207.32812Q480.4375 207.32812 480.84375 206.78125Q481.26562 206.23438 481.26562 205.21875Q481.26562 204.25 480.78125 203.73438Q480.3125 203.21875 479.4375 203.21875Q478.625 203.21875 478.125 203.64062L477.90625 203.84375L476.10938 203.40625Z" fill-rule="nonzero"/><path fill="#000000" d="M473.45312 204.71875L474.75 204.71875L474.75 206.53125L473.45312 206.53125L473.45312 209.0L471.20312 209.0L471.20312 206.53125L466.53125 206.53125L466.4375 205.10938L471.17188 197.625L473.45312 197.625L473.45312 204.71875ZM468.6875 204.71875L471.20312 204.71875L471.20312 200.70312L471.04688 200.95312L468.6875 204.71875ZM476.10938 203.40625L476.76562 197.625L483.14062 197.625L483.14062 199.5L478.625 199.5L478.34375 201.95312Q479.14062 201.51562 480.04688 201.51562Q481.67188 201.51562 482.59375 202.53125Q483.51562 203.53125 483.51562 205.34375Q483.51562 206.45312 483.04688 207.32812Q482.59375 208.1875 481.71875 208.67188Q480.85938 209.15625 479.67188 209.15625Q478.64062 209.15625 477.75 208.73438Q476.875 208.3125 476.35938 207.5625Q475.85938 206.79688 475.82812 205.82812L478.0625 205.82812Q478.125 206.54688 478.54688 206.9375Q478.98438 207.32812 479.67188 207.32812Q480.4375 207.32812 480.84375 206.78125Q481.26562 206.23438 481.26562 205.21875Q481.26562 204.25 480.78125 203.73438Q480.3125 203.21875 479.4375 203.21875Q478.625 203.21875 478.125 203.64062L477.90625 203.84375L476.10938 203.40625Z" fill-rule="nonzero"/><path stroke="#e06666" stroke-width="3.0" stroke-linejoin="round" stroke-linecap="round" d="M612.5781 233.44667L604.78125 233.44667L604.78125 231.8998L608.4531 227.97792Q609.21875 227.1498 609.5781 226.54042Q609.9375 225.91542 609.9375 225.35292Q609.9375 224.60292 609.5469 224.16542Q609.1719 223.72792 608.46875 223.72792Q607.7031 223.72792 607.25 224.25917Q606.8125 224.79042 606.8125 225.6498L604.5469 225.6498Q604.5469 224.60292 605.0469 223.74355Q605.5469 222.88417 606.4531 222.3998Q607.3594 221.91542 608.5 221.91542Q610.2656 221.91542 611.2344 222.75917Q612.2031 223.60292 612.2031 225.13417Q612.2031 225.97792 611.7656 226.85292Q611.3281 227.72792 610.2656 228.8998L607.6875 231.61855L612.5781 231.61855L612.5781 233.44667ZM619.90625 221.94667L619.90625 223.80605L619.6875 223.80605Q618.15625 223.8373 617.21875 224.61855Q616.28125 225.38417 616.09375 226.75917Q617.0 225.8373 618.3906 225.8373Q619.875 225.8373 620.75 226.8998Q621.625 227.9623 621.625 229.69667Q621.625 230.80605 621.1406 231.7123Q620.65625 232.60292 619.78125 233.10292Q618.90625 233.60292 617.7969 233.60292Q616.0 233.60292 614.8906 232.35292Q613.78125 231.10292 613.78125 229.00917L613.78125 228.19667Q613.78125 226.35292 614.4844 224.93105Q615.1875 223.50917 616.4844 222.74355Q617.7969 221.9623 619.53125 221.94667L619.90625 221.94667ZM617.7031 227.6498Q617.15625 227.6498 616.7031 227.93105Q616.2656 228.2123 616.0469 228.68105L616.0469 229.36855Q616.0469 230.50917 616.4844 231.1498Q616.9375 231.7748 617.75 231.7748Q618.46875 231.7748 618.9219 231.2123Q619.375 230.63417 619.375 229.7123Q619.375 228.79042 618.9219 228.22792Q618.46875 227.6498 617.7031 227.6498Z" fill-rule="nonzero"/><path fill="#000000" d="M612.5781 233.44667L604.78125 233.44667L604.78125 231.8998L608.4531 227.97792Q609.21875 227.1498 609.5781 226.54042Q609.9375 225.91542 609.9375 225.35292Q609.9375 224.60292 609.5469 224.16542Q609.1719 223.72792 608.46875 223.72792Q607.7031 223.72792 607.25 224.25917Q606.8125 224.79042 606.8125 225.6498L604.5469 225.6498Q604.5469 224.60292 605.0469 223.74355Q605.5469 222.88417 606.4531 222.3998Q607.3594 221.91542 608.5 221.91542Q610.2656 221.91542 611.2344 222.75917Q612.2031 223.60292 612.2031 225.13417Q612.2031 225.97792 611.7656 226.85292Q611.3281 227.72792 610.2656 228.8998L607.6875 231.61855L612.5781 231.61855L612.5781 233.44667ZM619.90625 221.94667L619.90625 223.80605L619.6875 223.80605Q618.15625 223.8373 617.21875 224.61855Q616.28125 225.38417 616.09375 226.75917Q617.0 225.8373 618.3906 225.8373Q619.875 225.8373 620.75 226.8998Q621.625 227.9623 621.625 229.69667Q621.625 230.80605 621.1406 231.7123Q620.65625 232.60292 619.78125 233.10292Q618.90625 233.60292 617.7969 233.60292Q616.0 233.60292 614.8906 232.35292Q613.78125 231.10292 613.78125 229.00917L613.78125 228.19667Q613.78125 226.35292 614.4844 224.93105Q615.1875 223.50917 616.4844 222.74355Q617.7969 221.9623 619.53125 221.94667L619.90625 221.94667ZM617.7031 227.6498Q617.15625 227.6498 616.7031 227.93105Q616.2656 228.2123 616.0469 228.68105L616.0469 229.36855Q616.0469 230.50917 616.4844 231.1498Q616.9375 231.7748 617.75 231.7748Q618.46875 231.7748 618.9219 231.2123Q619.375 230.63417 619.375 229.7123Q619.375 228.79042 618.9219 228.22792Q618.46875 227.6498 617.7031 227.6498Z" fill-rule="nonzero"/><path stroke="#ffffff" stroke-width="3.0" stroke-linejoin="round" stroke-linecap="round" d="M749.2656 203.62666L747.0 203.62666L747.0 194.92354L744.3125 195.75166L744.3125 193.92354L749.0156 192.23604L749.2656 192.23604L749.2656 203.62666ZM760.5156 193.51729L756.1094 203.62666L753.7344 203.62666L758.1406 194.07979L752.4844 194.07979L752.4844 192.25166L760.5156 192.25166L760.5156 193.51729Z" fill-rule="nonzero"/><path fill="#e06666" d="M749.2656 203.62666L747.0 203.62666L747.0 194.92354L744.3125 195.75166L744.3125 193.92354L749.0156 192.23604L749.2656 192.23604L749.2656 203.62666ZM760.5156 193.51729L756.1094 203.62666L753.7344 203.62666L758.1406 194.07979L752.4844 194.07979L752.4844 192.25166L760.5156 192.25166L760.5156 193.51729Z" fill-rule="nonzero"/><path fill="#000000" d="M30.75 216.64062L30.75 219.96875L36.5 219.96875L36.5 221.85938L22.28125 221.85938L22.28125 217.15625Q22.28125 214.75 23.375 213.45312Q24.46875 212.15625 26.5625 212.15625Q27.890625 212.15625 28.875 212.875Q29.859375 213.59375 30.34375 214.875L36.375 211.53125L36.5 211.53125L36.5 213.54688L30.75 216.64062ZM29.21875 219.96875L29.21875 217.09375Q29.21875 215.70312 28.5 214.875Q27.765625 214.04688 26.5625 214.04688Q25.234375 214.04688 24.53125 214.84375Q23.828125 215.625 23.828125 217.10938L23.828125 219.96875L29.21875 219.96875ZM36.703125 205.75Q36.703125 207.89062 35.296875 209.25Q33.875 210.59375 31.515625 210.59375L31.171875 210.59375Q29.609375 210.59375 28.375 210.0Q27.140625 209.39062 26.4375 208.3125Q25.734375 207.23438 25.734375 205.96875Q25.734375 203.90625 27.09375 202.76562Q28.453125 201.625 30.984375 201.625L31.734375 201.625L31.734375 208.78125Q33.296875 208.75 34.265625 207.875Q35.21875 207.0 35.21875 205.65625Q35.21875 204.6875 34.828125 204.03125Q34.4375 203.35938 33.796875 202.85938L34.65625 201.76562Q36.703125 203.09375 36.703125 205.75ZM27.21875 205.96875Q27.21875 207.0625 28.015625 207.8125Q28.8125 208.54688 30.25 208.71875L30.25 203.4375L30.109375 203.4375Q28.734375 203.51562 27.984375 204.1875Q27.21875 204.84375 27.21875 205.96875ZM33.703125 192.98438Q32.96875 192.98438 32.5625 193.53125Q32.15625 194.07812 31.859375 195.45312Q31.5625 196.82812 31.15625 197.64062Q30.75 198.4375 30.1875 198.82812Q29.609375 199.20312 28.828125 199.20312Q27.53125 199.20312 26.640625 198.10938Q25.734375 197.01562 25.734375 195.29688Q25.734375 193.5 26.671875 192.39062Q27.59375 191.26562 29.03125 191.26562L29.03125 193.09375Q28.296875 193.09375 27.765625 193.71875Q27.21875 194.34375 27.21875 195.29688Q27.21875 196.29688 27.65625 196.85938Q28.078125 197.40625 28.78125 197.40625Q29.421875 197.40625 29.765625 196.89062Q30.09375 196.375 30.40625 195.01562Q30.703125 193.65625 31.125 192.82812Q31.53125 191.98438 32.125 191.57812Q32.71875 191.17188 33.5625 191.17188Q34.984375 191.17188 35.84375 192.3125Q36.703125 193.4375 36.703125 195.25Q36.703125 196.51562 36.25 197.5Q35.796875 198.46875 35.0 199.03125Q34.1875 199.57812 33.25 199.57812L33.25 197.76562Q34.15625 197.71875 34.6875 197.04688Q35.21875 196.35938 35.21875 195.25Q35.21875 194.21875 34.8125 193.60938Q34.390625 192.98438 33.703125 192.98438ZM31.328125 180.20312Q33.75 180.20312 35.234375 181.3125Q36.703125 182.40625 36.703125 184.29688Q36.703125 186.21875 35.46875 187.32812L40.5625 187.32812L40.5625 189.125L25.9375 189.125L25.9375 187.48438L27.109375 187.39062Q25.734375 186.29688 25.734375 184.32812Q25.734375 182.42188 27.171875 181.3125Q28.609375 180.20312 31.171875 180.20312L31.328125 180.20312ZM31.125 182.01562Q29.34375 182.01562 28.3125 182.78125Q27.265625 183.53125 27.265625 184.85938Q27.265625 186.5 28.71875 187.32812L33.78125 187.32812Q35.21875 186.51562 35.21875 184.84375Q35.21875 183.54688 34.1875 182.78125Q33.15625 182.01562 31.125 182.01562ZM31.125 178.60938Q29.5625 178.60938 28.328125 178.0Q27.078125 177.39062 26.40625 176.3125Q25.734375 175.21875 25.734375 173.8125Q25.734375 171.65625 27.234375 170.32812Q28.71875 168.98438 31.203125 168.98438L31.328125 168.98438Q32.875 168.98438 34.109375 169.57812Q35.328125 170.17188 36.015625 171.28125Q36.703125 172.375 36.703125 173.79688Q36.703125 175.9375 35.203125 177.28125Q33.703125 178.60938 31.25 178.60938L31.125 178.60938ZM31.328125 176.79688Q33.09375 176.79688 34.15625 175.98438Q35.21875 175.15625 35.21875 173.79688Q35.21875 172.42188 34.140625 171.60938Q33.0625 170.79688 31.125 170.79688Q29.375 170.79688 28.296875 171.625Q27.21875 172.45312 27.21875 173.8125Q27.21875 175.15625 28.28125 175.98438Q29.34375 176.79688 31.328125 176.79688ZM25.9375 165.42188L27.265625 165.35938Q25.734375 164.15625 25.734375 162.20312Q25.734375 158.84375 29.515625 158.82812L36.5 158.82812L36.5 160.625L29.5 160.625Q28.359375 160.64062 27.8125 161.15625Q27.265625 161.65625 27.265625 162.75Q27.265625 163.625 27.734375 164.29688Q28.203125 164.95312 28.96875 165.32812L36.5 165.32812L36.5 167.125L25.9375 167.125L25.9375 165.42188ZM33.703125 149.98438Q32.96875 149.98438 32.5625 150.53125Q32.15625 151.07812 31.859375 152.45312Q31.5625 153.82812 31.15625 154.64062Q30.75 155.4375 30.1875 155.82812Q29.609375 156.20312 28.828125 156.20312Q27.53125 156.20312 26.640625 155.10938Q25.734375 154.01562 25.734375 152.29688Q25.734375 150.5 26.671875 149.39062Q27.59375 148.26562 29.03125 148.26562L29.03125 150.09375Q28.296875 150.09375 27.765625 150.71875Q27.21875 151.34375 27.21875 152.29688Q27.21875 153.29688 27.65625 153.85938Q28.078125 154.40625 28.78125 154.40625Q29.421875 154.40625 29.765625 153.89062Q30.09375 153.375 30.40625 152.01562Q30.703125 150.65625 31.125 149.82812Q31.53125 148.98438 32.125 148.57812Q32.71875 148.17188 33.5625 148.17188Q34.984375 148.17188 35.84375 149.3125Q36.703125 150.4375 36.703125 152.25Q36.703125 153.51562 36.25 154.5Q35.796875 155.46875 35.0 156.03125Q34.1875 156.57812 33.25 156.57812L33.25 154.76562Q34.15625 154.71875 34.6875 154.04688Q35.21875 153.35938 35.21875 152.25Q35.21875 151.21875 34.8125 150.60938Q34.390625 149.98438 33.703125 149.98438ZM36.703125 141.75Q36.703125 143.89062 35.296875 145.25Q33.875 146.59375 31.515625 146.59375L31.171875 146.59375Q29.609375 146.59375 28.375 146.0Q27.140625 145.39062 26.4375 144.3125Q25.734375 143.23438 25.734375 141.96875Q25.734375 139.90625 27.09375 138.76562Q28.453125 137.625 30.984375 137.625L31.734375 137.625L31.734375 144.78125Q33.296875 144.75 34.265625 143.875Q35.21875 143.0 35.21875 141.65625Q35.21875 140.6875 34.828125 140.03125Q34.4375 139.35938 33.796875 138.85938L34.65625 137.76562Q36.703125 139.09375 36.703125 141.75ZM27.21875 141.96875Q27.21875 143.0625 28.015625 143.8125Q28.8125 144.54688 30.25 144.71875L30.25 139.4375L30.109375 139.4375Q28.734375 139.51562 27.984375 140.1875Q27.21875 140.84375 27.21875 141.96875ZM33.703125 128.98438Q32.96875 128.98438 32.5625 129.53125Q32.15625 130.07812 31.859375 131.45312Q31.5625 132.82812 31.15625 133.64062Q30.75 134.4375 30.1875 134.82812Q29.609375 135.20312 28.828125 135.20312Q27.53125 135.20312 26.640625 134.10938Q25.734375 133.01562 25.734375 131.29688Q25.734375 129.5 26.671875 128.39062Q27.59375 127.265625 29.03125 127.265625L29.03125 129.09375Q28.296875 129.09375 27.765625 129.71875Q27.21875 130.34375 27.21875 131.29688Q27.21875 132.29688 27.65625 132.85938Q28.078125 133.40625 28.78125 133.40625Q29.421875 133.40625 29.765625 132.89062Q30.09375 132.375 30.40625 131.01562Q30.703125 129.65625 31.125 128.82812Q31.53125 127.984375 32.125 127.578125Q32.71875 127.171875 33.5625 127.171875Q34.984375 127.171875 35.84375 128.3125Q36.703125 129.4375 36.703125 131.25Q36.703125 132.51562 36.25 133.5Q35.796875 134.46875 35.0 135.03125Q34.1875 135.57812 33.25 135.57812L33.25 133.76562Q34.15625 133.71875 34.6875 133.04688Q35.21875 132.35938 35.21875 131.25Q35.21875 130.21875 34.8125 129.60938Q34.390625 128.98438 33.703125 128.98438Z" fill-rule="nonzero"/><path fill="#000000" d="M103.59375 223.4375Q103.59375 226.60938 102.515625 228.15625Q101.4375 229.70312 99.125 229.70312Q96.84375 229.70312 95.75 228.1875Q94.65625 226.67188 94.625 223.67188L94.625 221.26562Q94.625 218.125 95.703125 216.60938Q96.796875 215.07812 99.109375 215.07812Q101.40625 215.07812 102.484375 216.5625Q103.5625 218.03125 103.59375 221.09375L103.59375 223.4375ZM101.796875 220.96875Q101.796875 218.67188 101.140625 217.625Q100.5 216.5625 99.109375 216.5625Q97.71875 216.5625 97.078125 217.60938Q96.453125 218.65625 96.4375 220.82812L96.4375 223.71875Q96.4375 226.01562 97.09375 227.125Q97.765625 228.21875 99.125 228.21875Q100.46875 228.21875 101.109375 227.1875Q101.765625 226.15625 101.796875 223.92188L101.796875 220.96875Z" fill-rule="nonzero"/><path fill="#000000" d="M84.515625 158.04167L85.234375 150.94792L92.515625 150.94792L92.515625 152.6198L86.765625 152.6198L86.34375 156.4948Q87.390625 155.88542 88.71875 155.88542Q90.65625 155.88542 91.796875 157.16667Q92.9375 158.44792 92.9375 160.63542Q92.9375 162.83855 91.75 164.10417Q90.5625 165.3698 88.4375 165.3698Q86.546875 165.3698 85.359375 164.32292Q84.171875 163.27605 84.0 161.4323L85.71875 161.4323Q85.875 162.65105 86.578125 163.27605Q87.28125 163.88542 88.4375 163.88542Q89.703125 163.88542 90.421875 163.02605Q91.140625 162.16667 91.140625 160.65105Q91.140625 159.22917 90.359375 158.3698Q89.578125 157.4948 88.296875 157.4948Q87.109375 157.4948 86.4375 158.01042L85.953125 158.40105L84.515625 158.04167ZM103.59375 159.10417Q103.59375 162.27605 102.515625 163.82292Q101.4375 165.3698 99.125 165.3698Q96.84375 165.3698 95.75 163.85417Q94.65625 162.33855 94.625 159.33855L94.625 156.9323Q94.625 153.79167 95.703125 152.27605Q96.796875 150.7448 99.109375 150.7448Q101.40625 150.7448 102.484375 152.22917Q103.5625 153.69792 103.59375 156.76042L103.59375 159.10417ZM101.796875 156.63542Q101.796875 154.33855 101.140625 153.29167Q100.5 152.22917 99.109375 152.22917Q97.71875 152.22917 97.078125 153.27605Q96.453125 154.32292 96.4375 156.4948L96.4375 159.38542Q96.4375 161.6823 97.09375 162.79167Q97.765625 163.88542 99.125 163.88542Q100.46875 163.88542 101.109375 162.85417Q101.765625 161.82292 101.796875 159.58855L101.796875 156.63542Z" fill-rule="nonzero"/><path fill="#000000" d="M78.625 100.833336L76.796875 100.833336L76.796875 88.78646L73.15625 90.13021L73.15625 88.489586L78.34375 86.552086L78.625 86.552086L78.625 100.833336ZM92.59375 94.770836Q92.59375 97.94271 91.515625 99.489586Q90.4375 101.03646 88.125 101.03646Q85.84375 101.03646 84.75 99.520836Q83.65625 98.00521 83.625 95.00521L83.625 92.59896Q83.625 89.458336 84.703125 87.94271Q85.796875 86.41146 88.109375 86.41146Q90.40625 86.41146 91.484375 87.895836Q92.5625 89.364586 92.59375 92.427086L92.59375 94.770836ZM90.796875 92.302086Q90.796875 90.00521 90.140625 88.958336Q89.5 87.895836 88.109375 87.895836Q86.71875 87.895836 86.078125 88.94271Q85.453125 89.989586 85.4375 92.16146L85.4375 95.052086Q85.4375 97.34896 86.09375 98.458336Q86.765625 99.552086 88.125 99.552086Q89.46875 99.552086 90.109375 98.520836Q90.765625 97.489586 90.796875 95.25521L90.796875 92.302086ZM103.59375 94.770836Q103.59375 97.94271 102.515625 99.489586Q101.4375 101.03646 99.125 101.03646Q96.84375 101.03646 95.75 99.520836Q94.65625 98.00521 94.625 95.00521L94.625 92.59896Q94.625 89.458336 95.703125 87.94271Q96.796875 86.41146 99.109375 86.41146Q101.40625 86.41146 102.484375 87.895836Q103.5625 89.364586 103.59375 92.427086L103.59375 94.770836ZM101.796875 92.302086Q101.796875 90.00521 101.140625 88.958336Q100.5 87.895836 99.109375 87.895836Q97.71875 87.895836 97.078125 88.94271Q96.453125 89.989586 96.4375 92.16146L96.4375 95.052086Q96.4375 97.34896 97.09375 98.458336Q97.765625 99.552086 99.125 99.552086Q100.46875 99.552086 101.109375 98.520836Q101.765625 97.489586 101.796875 95.25521L101.796875 92.302086Z" fill-rule="nonzero"/><path fill="#000000" d="M78.625 36.5L76.796875 36.5L76.796875 24.453125L73.15625 25.796875L73.15625 24.15625L78.34375 22.21875L78.625 22.21875L78.625 36.5ZM84.515625 29.375L85.234375 22.28125L92.515625 22.28125L92.515625 23.953125L86.765625 23.953125L86.34375 27.828125Q87.390625 27.21875 88.71875 27.21875Q90.65625 27.21875 91.796875 28.5Q92.9375 29.78125 92.9375 31.96875Q92.9375 34.171875 91.75 35.4375Q90.5625 36.703125 88.4375 36.703125Q86.546875 36.703125 85.359375 35.65625Q84.171875 34.609375 84.0 32.765625L85.71875 32.765625Q85.875 33.984375 86.578125 34.609375Q87.28125 35.21875 88.4375 35.21875Q89.703125 35.21875 90.421875 34.359375Q91.140625 33.5 91.140625 31.984375Q91.140625 30.5625 90.359375 29.703125Q89.578125 28.828125 88.296875 28.828125Q87.109375 28.828125 86.4375 29.34375L85.953125 29.734375L84.515625 29.375ZM103.59375 30.4375Q103.59375 33.609375 102.515625 35.15625Q101.4375 36.703125 99.125 36.703125Q96.84375 36.703125 95.75 35.1875Q94.65625 33.671875 94.625 30.671875L94.625 28.265625Q94.625 25.125 95.703125 23.609375Q96.796875 22.078125 99.109375 22.078125Q101.40625 22.078125 102.484375 23.5625Q103.5625 25.03125 103.59375 28.09375L103.59375 30.4375ZM101.796875 27.96875Q101.796875 25.671875 101.140625 24.625Q100.5 23.5625 99.109375 23.5625Q97.71875 23.5625 97.078125 24.609375Q96.453125 25.65625 96.4375 27.828125L96.4375 30.71875Q96.4375 33.015625 97.09375 34.125Q97.765625 35.21875 99.125 35.21875Q100.46875 35.21875 101.109375 34.1875Q101.765625 33.15625 101.796875 30.921875L101.796875 27.96875Z" fill-rule="nonzero"/><path fill="#000000" d="M164.82112 265.28125L169.46175 276.875L174.118 265.28125L176.53987 265.28125L176.53987 279.5L174.66487 279.5L174.66487 273.96875L174.85237 267.98438L170.1805 279.5L168.743 279.5L164.08675 268.01562L164.27425 273.96875L164.27425 279.5L162.39925 279.5L162.39925 265.28125L164.82112 265.28125ZM181.07112 279.5L179.27425 279.5L179.27425 268.9375L181.07112 268.9375L181.07112 279.5ZM179.118 266.125Q179.118 265.6875 179.38362 265.39062Q179.66487 265.07812 180.1805 265.07812Q180.71175 265.07812 180.97737 265.39062Q181.25862 265.6875 181.25862 266.125Q181.25862 266.5625 180.97737 266.85938Q180.71175 267.15625 180.1805 267.15625Q179.66487 267.15625 179.38362 266.85938Q179.118 266.5625 179.118 266.125ZM185.82112 268.9375L185.88362 270.26562Q187.08675 268.73438 189.03987 268.73438Q192.39925 268.73438 192.41487 272.51562L192.41487 279.5L190.618 279.5L190.618 272.5Q190.60237 271.35938 190.08675 270.8125Q189.58675 270.26562 188.493 270.26562Q187.618 270.26562 186.94612 270.73438Q186.28987 271.20312 185.91487 271.96875L185.91487 279.5L184.118 279.5L184.118 268.9375L185.82112 268.9375ZM197.07112 279.5L195.27425 279.5L195.27425 268.9375L197.07112 268.9375L197.07112 279.5ZM195.118 266.125Q195.118 265.6875 195.38362 265.39062Q195.66487 265.07812 196.1805 265.07812Q196.71175 265.07812 196.97737 265.39062Q197.25862 265.6875 197.25862 266.125Q197.25862 266.5625 196.97737 266.85938Q196.71175 267.15625 196.1805 267.15625Q195.66487 267.15625 195.38362 266.85938Q195.118 266.5625 195.118 266.125ZM201.8055 268.9375L201.85237 270.10938Q203.02425 268.73438 204.993 268.73438Q207.21175 268.73438 208.00862 270.4375Q208.53987 269.67188 209.38362 269.20312Q210.22737 268.73438 211.38362 268.73438Q214.85237 268.73438 214.91487 272.42188L214.91487 279.5L213.10237 279.5L213.10237 272.53125Q213.10237 271.39062 212.58675 270.82812Q212.07112 270.26562 210.85237 270.26562Q209.85237 270.26562 209.1805 270.875Q208.52425 271.46875 208.41487 272.48438L208.41487 279.5L206.60237 279.5L206.60237 272.57812Q206.60237 270.26562 204.33675 270.26562Q202.5555 270.26562 201.91487 271.78125L201.91487 279.5L200.10237 279.5L200.10237 268.9375L201.8055 268.9375ZM224.63362 279.5Q224.47737 279.1875 224.38362 278.39062Q223.118 279.70312 221.368 279.70312Q219.8055 279.70312 218.8055 278.8125Q217.8055 277.92188 217.8055 276.5625Q217.8055 274.92188 219.0555 274.01562Q220.32112 273.09375 222.58675 273.09375L224.35237 273.09375L224.35237 272.26562Q224.35237 271.3125 223.77425 270.75Q223.21175 270.1875 222.118 270.1875Q221.14925 270.1875 220.493 270.6875Q219.83675 271.17188 219.83675 271.85938L218.02425 271.85938Q218.02425 271.07812 218.58675 270.34375Q219.14925 269.59375 220.10237 269.17188Q221.07112 268.73438 222.22737 268.73438Q224.0555 268.73438 225.08675 269.65625Q226.118 270.5625 226.16487 272.17188L226.16487 277.03125Q226.16487 278.48438 226.52425 279.34375L226.52425 279.5L224.63362 279.5ZM221.63362 278.125Q222.493 278.125 223.243 277.6875Q224.00862 277.25 224.35237 276.54688L224.35237 274.375L222.9305 274.375Q219.618 274.375 219.618 276.3125Q219.618 277.17188 220.1805 277.65625Q220.743 278.125 221.63362 278.125ZM231.07112 279.5L229.27425 279.5L229.27425 264.5L231.07112 264.5L231.07112 279.5Z" fill-rule="nonzero"/><path fill="#000000" d="M152.50862 296.89062L150.77425 298.6875L150.77425 303.5L148.89925 303.5L148.89925 289.28125L150.77425 289.28125L150.77425 296.3125L157.08675 289.28125L159.35237 289.28125L153.75862 295.5625L159.78987 303.5L157.53987 303.5L152.50862 296.89062ZM163.32112 292.9375L163.38362 294.26562Q164.58675 292.73438 166.53987 292.73438Q169.89925 292.73438 169.91487 296.51562L169.91487 303.5L168.118 303.5L168.118 296.5Q168.10237 295.35938 167.58675 294.8125Q167.08675 294.26562 165.993 294.26562Q165.118 294.26562 164.44612 294.73438Q163.78987 295.20312 163.41487 295.96875L163.41487 303.5L161.618 303.5L161.618 292.9375L163.32112 292.9375ZM172.13362 298.125Q172.13362 296.5625 172.743 295.32812Q173.35237 294.07812 174.4305 293.40625Q175.52425 292.73438 176.9305 292.73438Q179.08675 292.73438 180.41487 294.23438Q181.75862 295.71875 181.75862 298.20312L181.75862 298.32812Q181.75862 299.875 181.16487 301.10938Q180.57112 302.32812 179.46175 303.01562Q178.368 303.70312 176.94612 303.70312Q174.8055 303.70312 173.46175 302.20312Q172.13362 300.70312 172.13362 298.25L172.13362 298.125ZM173.94612 298.32812Q173.94612 300.09375 174.75862 301.15625Q175.58675 302.21875 176.94612 302.21875Q178.32112 302.21875 179.13362 301.14062Q179.94612 300.0625 179.94612 298.125Q179.94612 296.375 179.118 295.29688Q178.28987 294.21875 176.9305 294.21875Q175.58675 294.21875 174.75862 295.28125Q173.94612 296.34375 173.94612 298.32812ZM192.96175 301.01562L194.993 292.9375L196.8055 292.9375L193.72737 303.5L192.25862 303.5L189.69612 295.48438L187.19612 303.5L185.72737 303.5L182.66487 292.9375L184.46175 292.9375L186.53987 300.84375L189.00862 292.9375L190.46175 292.9375L192.96175 301.01562ZM200.57112 303.5L198.77425 303.5L198.77425 288.5L200.57112 288.5L200.57112 303.5ZM207.993 303.70312Q205.85237 303.70312 204.493 302.29688Q203.14925 300.875 203.14925 298.51562L203.14925 298.17188Q203.14925 296.60938 203.743 295.375Q204.35237 294.14062 205.4305 293.4375Q206.50862 292.73438 207.77425 292.73438Q209.83675 292.73438 210.97737 294.09375Q212.118 295.45312 212.118 297.98438L212.118 298.73438L204.96175 298.73438Q204.993 300.29688 205.868 301.26562Q206.743 302.21875 208.08675 302.21875Q209.0555 302.21875 209.71175 301.82812Q210.38362 301.4375 210.88362 300.79688L211.97737 301.65625Q210.64925 303.70312 207.993 303.70312ZM207.77425 294.21875Q206.6805 294.21875 205.9305 295.01562Q205.19612 295.8125 205.02425 297.25L210.3055 297.25L210.3055 297.10938Q210.22737 295.73438 209.5555 294.98438Q208.89925 294.21875 207.77425 294.21875ZM214.16487 298.125Q214.16487 295.70312 215.32112 294.21875Q216.47737 292.73438 218.33675 292.73438Q220.19612 292.73438 221.27425 294.0L221.27425 288.5L223.08675 288.5L223.08675 303.5L221.4305 303.5L221.33675 302.35938Q220.25862 303.70312 218.32112 303.70312Q216.493 303.70312 215.32112 302.20312Q214.16487 300.6875 214.16487 298.26562L214.16487 298.125ZM215.97737 298.32812Q215.97737 300.125 216.71175 301.14062Q217.46175 302.15625 218.77425 302.15625Q220.493 302.15625 221.27425 300.625L221.27425 295.76562Q220.47737 294.26562 218.78987 294.26562Q217.46175 294.26562 216.71175 295.29688Q215.97737 296.32812 215.97737 298.32812ZM225.1805 298.125Q225.1805 295.65625 226.32112 294.20312Q227.46175 292.73438 229.35237 292.73438Q231.28987 292.73438 232.368 294.10938L232.46175 292.9375L234.10237 292.9375L234.10237 303.25Q234.10237 305.29688 232.88362 306.46875Q231.6805 307.65625 229.618 307.65625Q228.47737 307.65625 227.38362 307.17188Q226.28987 306.6875 225.71175 305.82812L226.64925 304.75Q227.82112 306.1875 229.493 306.1875Q230.82112 306.1875 231.5555 305.4375Q232.28987 304.70312 232.28987 303.35938L232.28987 302.4375Q231.21175 303.70312 229.33675 303.70312Q227.47737 303.70312 226.32112 302.20312Q225.1805 300.70312 225.1805 298.125ZM226.993 298.32812Q226.993 300.125 227.72737 301.14062Q228.46175 302.15625 229.77425 302.15625Q231.493 302.15625 232.28987 300.60938L232.28987 295.78125Q231.46175 294.26562 229.8055 294.26562Q228.47737 294.26562 227.72737 295.29688Q226.993 296.32812 226.993 298.32812ZM240.993 303.70312Q238.85237 303.70312 237.493 302.29688Q236.14925 300.875 236.14925 298.51562L236.14925 298.17188Q236.14925 296.60938 236.743 295.375Q237.35237 294.14062 238.4305 293.4375Q239.50862 292.73438 240.77425 292.73438Q242.83675 292.73438 243.97737 294.09375Q245.118 295.45312 245.118 297.98438L245.118 298.73438L237.96175 298.73438Q237.993 300.29688 238.868 301.26562Q239.743 302.21875 241.08675 302.21875Q242.0555 302.21875 242.71175 301.82812Q243.38362 301.4375 243.88362 300.79688L244.97737 301.65625Q243.64925 303.70312 240.993 303.70312ZM240.77425 294.21875Q239.6805 294.21875 238.9305 295.01562Q238.19612 295.8125 238.02425 297.25L243.3055 297.25L243.3055 297.10938Q243.22737 295.73438 242.5555 294.98438Q241.89925 294.21875 240.77425 294.21875Z" fill-rule="nonzero"/><path fill="#000000" d="M340.6215 279.5L331.309 279.5L331.309 278.20312L336.23087 272.73438Q337.32462 271.48438 337.73087 270.71875Q338.15274 269.9375 338.15274 269.10938Q338.15274 268.0 337.48087 267.28125Q336.809 266.5625 335.684 266.5625Q334.32462 266.5625 333.57462 267.34375Q332.84024 268.10938 332.84024 269.46875L331.02774 269.46875Q331.02774 267.5 332.29337 266.29688Q333.559 265.07812 335.684 265.07812Q337.66837 265.07812 338.809 266.125Q339.96524 267.17188 339.96524 268.89062Q339.96524 271.0 337.29337 273.89062L333.48087 278.03125L340.6215 278.03125L340.6215 279.5Z" fill-rule="nonzero"/><path fill="#000000" d="M472.8125 271.51562L474.17188 271.51562Q475.45312 271.48438 476.17188 270.84375Q476.90625 270.1875 476.90625 269.0625Q476.90625 266.5625 474.42188 266.5625Q473.25 266.5625 472.54688 267.23438Q471.85938 267.90625 471.85938 269.01562L470.04688 269.01562Q470.04688 267.32812 471.28125 266.20312Q472.51562 265.07812 474.42188 265.07812Q476.4375 265.07812 477.57812 266.15625Q478.71875 267.21875 478.71875 269.10938Q478.71875 270.03125 478.10938 270.90625Q477.51562 271.78125 476.48438 272.20312Q477.65625 272.57812 478.29688 273.4375Q478.9375 274.29688 478.9375 275.53125Q478.9375 277.45312 477.6875 278.57812Q476.4375 279.70312 474.42188 279.70312Q472.42188 279.70312 471.17188 278.625Q469.92188 277.53125 469.92188 275.75L471.73438 275.75Q471.73438 276.875 472.46875 277.54688Q473.20312 278.21875 474.4375 278.21875Q475.73438 278.21875 476.42188 277.54688Q477.125 276.85938 477.125 275.57812Q477.125 274.32812 476.35938 273.67188Q475.60938 273.0 474.17188 272.98438L472.8125 272.98438L472.8125 271.51562Z" fill-rule="nonzero"/><path fill="#000000" d="M616.691 274.71875L618.6597 274.71875L618.6597 276.20312L616.691 276.20312L616.691 279.5L614.8785 279.5L614.8785 276.20312L608.3941 276.20312L608.3941 275.14062L614.7691 265.28125L616.691 265.28125L616.691 274.71875ZM610.441 274.71875L614.8785 274.71875L614.8785 267.75L614.6597 268.14062L610.441 274.71875Z" fill-rule="nonzero"/><path fill="#000000" d="M728.60077 273.15625Q726.1789 272.46875 725.08514 271.46875Q723.9914 270.45312 723.9914 268.96875Q723.9914 267.28125 725.33514 266.1875Q726.6789 265.07812 728.8195 265.07812Q730.28827 265.07812 731.4289 265.65625Q732.58514 266.21875 733.21014 267.21875Q733.83514 268.20312 733.83514 269.39062L731.96014 269.39062Q731.96014 268.10938 731.132 267.375Q730.3195 266.625 728.8195 266.625Q727.4289 266.625 726.64764 267.23438Q725.882 267.84375 725.882 268.9375Q725.882 269.79688 726.6164 270.40625Q727.35077 271.0 729.1164 271.5Q730.89764 272.0 731.89764 272.60938Q732.89764 273.20312 733.382 274.0Q733.8664 274.79688 733.8664 275.89062Q733.8664 277.60938 732.52264 278.65625Q731.1789 279.70312 728.91327 279.70312Q727.46014 279.70312 726.1789 279.14062Q724.91327 278.57812 724.22577 277.60938Q723.53827 276.625 723.53827 275.375L725.4289 275.375Q725.4289 276.67188 726.382 277.42188Q727.33514 278.15625 728.91327 278.15625Q730.39764 278.15625 731.1945 277.5625Q731.9914 276.95312 731.9914 275.90625Q731.9914 274.85938 731.257 274.29688Q730.52264 273.71875 728.60077 273.15625ZM738.5695 266.375L738.5695 268.9375L740.5539 268.9375L740.5539 270.32812L738.5695 270.32812L738.5695 276.875Q738.5695 277.51562 738.83514 277.84375Q739.10077 278.15625 739.7414 278.15625Q740.0539 278.15625 740.60077 278.03125L740.60077 279.5Q739.882 279.70312 739.21014 279.70312Q738.007 279.70312 737.382 278.96875Q736.77264 278.23438 736.77264 276.875L736.77264 270.32812L734.85077 270.32812L734.85077 268.9375L736.77264 268.9375L736.77264 266.375L738.5695 266.375ZM748.22577 270.54688Q747.8195 270.48438 747.35077 270.48438Q745.5695 270.48438 744.9289 272.0L744.9289 279.5L743.132 279.5L743.132 268.9375L744.882 268.9375L744.91327 270.15625Q745.8039 268.73438 747.4289 268.73438Q747.96014 268.73438 748.22577 268.875L748.22577 270.54688ZM749.64764 274.125Q749.64764 272.5625 750.257 271.32812Q750.8664 270.07812 751.9445 269.40625Q753.03827 268.73438 754.4445 268.73438Q756.60077 268.73438 757.9289 270.23438Q759.27264 271.71875 759.27264 274.20312L759.27264 274.32812Q759.27264 275.875 758.6789 277.10938Q758.08514 278.32812 756.97577 279.01562Q755.882 279.70312 754.46014 279.70312Q752.3195 279.70312 750.97577 278.20312Q749.64764 276.70312 749.64764 274.25L749.64764 274.125ZM751.46014 274.32812Q751.46014 276.09375 752.27264 277.15625Q753.10077 278.21875 754.46014 278.21875Q755.83514 278.21875 756.64764 277.14062Q757.46014 276.0625 757.46014 274.125Q757.46014 272.375 756.632 271.29688Q755.8039 270.21875 754.4445 270.21875Q753.10077 270.21875 752.27264 271.28125Q751.46014 272.34375 751.46014 274.32812ZM762.83514 268.9375L762.89764 270.26562Q764.10077 268.73438 766.0539 268.73438Q769.41327 268.73438 769.4289 272.51562L769.4289 279.5L767.632 279.5L767.632 272.5Q767.6164 271.35938 767.10077 270.8125Q766.60077 270.26562 765.507 270.26562Q764.632 270.26562 763.96014 270.73438Q763.3039 271.20312 762.9289 271.96875L762.9289 279.5L761.132 279.5L761.132 268.9375L762.83514 268.9375ZM771.6945 274.125Q771.6945 271.65625 772.83514 270.20312Q773.97577 268.73438 775.8664 268.73438Q777.8039 268.73438 778.882 270.10938L778.97577 268.9375L780.6164 268.9375L780.6164 279.25Q780.6164 281.29688 779.39764 282.46875Q778.1945 283.65625 776.132 283.65625Q774.9914 283.65625 773.89764 283.17188Q772.8039 282.6875 772.22577 281.82812L773.16327 280.75Q774.33514 282.1875 776.007 282.1875Q777.33514 282.1875 778.0695 281.4375Q778.8039 280.70312 778.8039 279.35938L778.8039 278.4375Q777.72577 279.70312 775.85077 279.70312Q773.9914 279.70312 772.83514 278.20312Q771.6945 276.70312 771.6945 274.125ZM773.507 274.32812Q773.507 276.125 774.2414 277.14062Q774.97577 278.15625 776.28827 278.15625Q778.007 278.15625 778.8039 276.60938L778.8039 271.78125Q777.97577 270.26562 776.3195 270.26562Q774.9914 270.26562 774.2414 271.29688Q773.507 272.32812 773.507 274.32812Z" fill-rule="nonzero"/><path fill="#000000" d="M713.8664 298.98438Q713.60077 301.25 712.1945 302.48438Q710.8039 303.70312 708.47577 303.70312Q705.96014 303.70312 704.4289 301.89062Q702.91327 300.07812 702.91327 297.04688L702.91327 295.6875Q702.91327 293.70312 703.6164 292.20312Q704.33514 290.70312 705.632 289.89062Q706.9289 289.07812 708.64764 289.07812Q710.91327 289.07812 712.27264 290.34375Q713.64764 291.60938 713.8664 293.84375L711.97577 293.84375Q711.7414 292.15625 710.91327 291.39062Q710.10077 290.625 708.64764 290.625Q706.85077 290.625 705.8195 291.95312Q704.8039 293.28125 704.8039 295.73438L704.8039 297.10938Q704.8039 299.42188 705.77264 300.79688Q706.7414 302.15625 708.47577 302.15625Q710.03827 302.15625 710.8664 301.45312Q711.71014 300.75 711.97577 298.98438L713.8664 298.98438ZM715.64764 298.125Q715.64764 296.5625 716.257 295.32812Q716.8664 294.07812 717.9445 293.40625Q719.03827 292.73438 720.4445 292.73438Q722.60077 292.73438 723.9289 294.23438Q725.27264 295.71875 725.27264 298.20312L725.27264 298.32812Q725.27264 299.875 724.6789 301.10938Q724.08514 302.32812 722.97577 303.01562Q721.882 303.70312 720.46014 303.70312Q718.3195 303.70312 716.97577 302.20312Q715.64764 300.70312 715.64764 298.25L715.64764 298.125ZM717.46014 298.32812Q717.46014 300.09375 718.27264 301.15625Q719.10077 302.21875 720.46014 302.21875Q721.83514 302.21875 722.64764 301.14062Q723.46014 300.0625 723.46014 298.125Q723.46014 296.375 722.632 295.29688Q721.8039 294.21875 720.4445 294.21875Q719.10077 294.21875 718.27264 295.28125Q717.46014 296.34375 717.46014 298.32812ZM728.83514 292.9375L728.89764 294.26562Q730.10077 292.73438 732.0539 292.73438Q735.41327 292.73438 735.4289 296.51562L735.4289 303.5L733.632 303.5L733.632 296.5Q733.6164 295.35938 733.10077 294.8125Q732.60077 294.26562 731.507 294.26562Q730.632 294.26562 729.96014 294.73438Q729.3039 295.20312 728.9289 295.96875L728.9289 303.5L727.132 303.5L727.132 292.9375L728.83514 292.9375ZM742.3664 302.21875Q743.33514 302.21875 744.0539 301.64062Q744.77264 301.04688 744.85077 300.17188L746.5695 300.17188Q746.507 301.07812 745.9289 301.90625Q745.3664 302.71875 744.39764 303.21875Q743.4445 303.70312 742.3664 303.70312Q740.21014 303.70312 738.9289 302.26562Q737.66327 300.8125 737.66327 298.3125L737.66327 298.01562Q737.66327 296.46875 738.22577 295.26562Q738.78827 294.0625 739.85077 293.40625Q740.91327 292.73438 742.35077 292.73438Q744.132 292.73438 745.3039 293.79688Q746.4914 294.85938 746.5695 296.5625L744.85077 296.5625Q744.77264 295.54688 744.0695 294.89062Q743.382 294.21875 742.35077 294.21875Q740.97577 294.21875 740.21014 295.21875Q739.46014 296.20312 739.46014 298.07812L739.46014 298.42188Q739.46014 300.25 740.21014 301.23438Q740.96014 302.21875 742.3664 302.21875ZM752.507 303.70312Q750.3664 303.70312 749.007 302.29688Q747.66327 300.875 747.66327 298.51562L747.66327 298.17188Q747.66327 296.60938 748.257 295.375Q748.8664 294.14062 749.9445 293.4375Q751.02264 292.73438 752.28827 292.73438Q754.35077 292.73438 755.4914 294.09375Q756.632 295.45312 756.632 297.98438L756.632 298.73438L749.47577 298.73438Q749.507 300.29688 750.382 301.26562Q751.257 302.21875 752.60077 302.21875Q753.5695 302.21875 754.22577 301.82812Q754.89764 301.4375 755.39764 300.79688L756.4914 301.65625Q755.16327 303.70312 752.507 303.70312ZM752.28827 294.21875Q751.1945 294.21875 750.4445 295.01562Q749.71014 295.8125 749.53827 297.25L754.8195 297.25L754.8195 297.10938Q754.7414 295.73438 754.0695 294.98438Q753.41327 294.21875 752.28827 294.21875ZM768.0539 298.32812Q768.0539 300.75 766.9445 302.23438Q765.85077 303.70312 763.96014 303.70312Q762.03827 303.70312 760.9289 302.46875L760.9289 307.5625L759.132 307.5625L759.132 292.9375L760.77264 292.9375L760.8664 294.10938Q761.96014 292.73438 763.9289 292.73438Q765.83514 292.73438 766.9445 294.17188Q768.0539 295.60938 768.0539 298.17188L768.0539 298.32812ZM766.2414 298.125Q766.2414 296.34375 765.47577 295.3125Q764.72577 294.26562 763.39764 294.26562Q761.757 294.26562 760.9289 295.71875L760.9289 300.78125Q761.7414 302.21875 763.41327 302.21875Q764.71014 302.21875 765.47577 301.1875Q766.2414 300.15625 766.2414 298.125ZM772.5695 290.375L772.5695 292.9375L774.5539 292.9375L774.5539 294.32812L772.5695 294.32812L772.5695 300.875Q772.5695 301.51562 772.83514 301.84375Q773.10077 302.15625 773.7414 302.15625Q774.0539 302.15625 774.60077 302.03125L774.60077 303.5Q773.882 303.70312 773.21014 303.70312Q772.007 303.70312 771.382 302.96875Q770.77264 302.23438 770.77264 300.875L770.77264 294.32812L768.85077 294.32812L768.85077 292.9375L770.77264 292.9375L770.77264 290.375L772.5695 290.375ZM783.64764 302.45312Q782.60077 303.70312 780.5539 303.70312Q778.8664 303.70312 777.97577 302.71875Q777.10077 301.73438 777.08514 299.8125L777.08514 292.9375L778.89764 292.9375L778.89764 299.76562Q778.89764 302.15625 780.85077 302.15625Q782.91327 302.15625 783.60077 300.625L783.60077 292.9375L785.41327 292.9375L785.41327 303.5L783.6945 303.5L783.64764 302.45312ZM794.64764 303.5Q794.4914 303.1875 794.39764 302.39062Q793.132 303.70312 791.382 303.70312Q789.8195 303.70312 788.8195 302.8125Q787.8195 301.92188 787.8195 300.5625Q787.8195 298.92188 789.0695 298.01562Q790.33514 297.09375 792.60077 297.09375L794.3664 297.09375L794.3664 296.26562Q794.3664 295.3125 793.78827 294.75Q793.22577 294.1875 792.132 294.1875Q791.16327 294.1875 790.507 294.6875Q789.85077 295.17188 789.85077 295.85938L788.03827 295.85938Q788.03827 295.07812 788.60077 294.34375Q789.16327 293.59375 790.1164 293.17188Q791.08514 292.73438 792.2414 292.73438Q794.0695 292.73438 795.10077 293.65625Q796.132 294.5625 796.1789 296.17188L796.1789 301.03125Q796.1789 302.48438 796.53827 303.34375L796.53827 303.5L794.64764 303.5ZM791.64764 302.125Q792.507 302.125 793.257 301.6875Q794.02264 301.25 794.3664 300.54688L794.3664 298.375L792.9445 298.375Q789.632 298.375 789.632 300.3125Q789.632 301.17188 790.1945 301.65625Q790.757 302.125 791.64764 302.125ZM801.08514 303.5L799.28827 303.5L799.28827 288.5L801.08514 288.5L801.08514 303.5Z" fill-rule="nonzero"/><path fill="#000000" d="M698.91327 313.28125L698.91327 322.95312Q698.91327 324.95312 697.64764 326.23438Q696.39764 327.51562 694.257 327.67188L693.757 327.70312Q691.41327 327.70312 690.02264 326.4375Q688.64764 325.17188 688.632 322.96875L688.632 313.28125L690.47577 313.28125L690.47577 322.90625Q690.47577 324.45312 691.3195 325.3125Q692.1789 326.15625 693.757 326.15625Q695.35077 326.15625 696.1945 325.3125Q697.03827 324.46875 697.03827 322.92188L697.03827 313.28125L698.91327 313.28125ZM703.33514 316.9375L703.39764 318.26562Q704.60077 316.73438 706.5539 316.73438Q709.91327 316.73438 709.9289 320.51562L709.9289 327.5L708.132 327.5L708.132 320.5Q708.1164 319.35938 707.60077 318.8125Q707.10077 318.26562 706.007 318.26562Q705.132 318.26562 704.46014 318.73438Q703.8039 319.20312 703.4289 319.96875L703.4289 327.5L701.632 327.5L701.632 316.9375L703.33514 316.9375ZM712.1789 322.125Q712.1789 319.70312 713.33514 318.21875Q714.4914 316.73438 716.35077 316.73438Q718.21014 316.73438 719.28827 318.0L719.28827 312.5L721.10077 312.5L721.10077 327.5L719.4445 327.5L719.35077 326.35938Q718.27264 327.70312 716.33514 327.70312Q714.507 327.70312 713.33514 326.20312Q712.1789 324.6875 712.1789 322.26562L712.1789 322.125ZM713.9914 322.32812Q713.9914 324.125 714.72577 325.14062Q715.47577 326.15625 716.78827 326.15625Q718.507 326.15625 719.28827 324.625L719.28827 319.76562Q718.4914 318.26562 716.8039 318.26562Q715.47577 318.26562 714.72577 319.29688Q713.9914 320.32812 713.9914 322.32812ZM728.007 327.70312Q725.8664 327.70312 724.507 326.29688Q723.16327 324.875 723.16327 322.51562L723.16327 322.17188Q723.16327 320.60938 723.757 319.375Q724.3664 318.14062 725.4445 317.4375Q726.52264 316.73438 727.78827 316.73438Q729.85077 316.73438 730.9914 318.09375Q732.132 319.45312 732.132 321.98438L732.132 322.73438L724.97577 322.73438Q725.007 324.29688 725.882 325.26562Q726.757 326.21875 728.10077 326.21875Q729.0695 326.21875 729.72577 325.82812Q730.39764 325.4375 730.89764 324.79688L731.9914 325.65625Q730.66327 327.70312 728.007 327.70312ZM727.78827 318.21875Q726.6945 318.21875 725.9445 319.01562Q725.21014 319.8125 725.03827 321.25L730.3195 321.25L730.3195 321.10938Q730.2414 319.73438 729.5695 318.98438Q728.91327 318.21875 727.78827 318.21875ZM739.72577 318.54688Q739.3195 318.48438 738.85077 318.48438Q737.0695 318.48438 736.4289 320.0L736.4289 327.5L734.632 327.5L734.632 316.9375L736.382 316.9375L736.41327 318.15625Q737.3039 316.73438 738.9289 316.73438Q739.46014 316.73438 739.72577 316.875L739.72577 318.54688ZM747.77264 324.70312Q747.77264 323.96875 747.22577 323.5625Q746.6789 323.15625 745.3039 322.85938Q743.9289 322.5625 743.1164 322.15625Q742.3195 321.75 741.9289 321.1875Q741.5539 320.60938 741.5539 319.82812Q741.5539 318.53125 742.64764 317.64062Q743.7414 316.73438 745.46014 316.73438Q747.257 316.73438 748.3664 317.67188Q749.4914 318.59375 749.4914 320.03125L747.66327 320.03125Q747.66327 319.29688 747.03827 318.76562Q746.41327 318.21875 745.46014 318.21875Q744.46014 318.21875 743.89764 318.65625Q743.35077 319.07812 743.35077 319.78125Q743.35077 320.42188 743.8664 320.76562Q744.382 321.09375 745.7414 321.40625Q747.10077 321.70312 747.9289 322.125Q748.77264 322.53125 749.1789 323.125Q749.58514 323.71875 749.58514 324.5625Q749.58514 325.98438 748.4445 326.84375Q747.3195 327.70312 745.507 327.70312Q744.2414 327.70312 743.257 327.25Q742.28827 326.79688 741.72577 326.0Q741.1789 325.1875 741.1789 324.25L742.9914 324.25Q743.03827 325.15625 743.71014 325.6875Q744.39764 326.21875 745.507 326.21875Q746.53827 326.21875 747.14764 325.8125Q747.77264 325.39062 747.77264 324.70312ZM754.0695 314.375L754.0695 316.9375L756.0539 316.9375L756.0539 318.32812L754.0695 318.32812L754.0695 324.875Q754.0695 325.51562 754.33514 325.84375Q754.60077 326.15625 755.2414 326.15625Q755.5539 326.15625 756.10077 326.03125L756.10077 327.5Q755.382 327.70312 754.71014 327.70312Q753.507 327.70312 752.882 326.96875Q752.27264 326.23438 752.27264 324.875L752.27264 318.32812L750.35077 318.32812L750.35077 316.9375L752.27264 316.9375L752.27264 314.375L754.0695 314.375ZM765.14764 327.5Q764.9914 327.1875 764.89764 326.39062Q763.632 327.70312 761.882 327.70312Q760.3195 327.70312 759.3195 326.8125Q758.3195 325.92188 758.3195 324.5625Q758.3195 322.92188 759.5695 322.01562Q760.83514 321.09375 763.10077 321.09375L764.8664 321.09375L764.8664 320.26562Q764.8664 319.3125 764.28827 318.75Q763.72577 318.1875 762.632 318.1875Q761.66327 318.1875 761.007 318.6875Q760.35077 319.17188 760.35077 319.85938L758.53827 319.85938Q758.53827 319.07812 759.10077 318.34375Q759.66327 317.59375 760.6164 317.17188Q761.58514 316.73438 762.7414 316.73438Q764.5695 316.73438 765.60077 317.65625Q766.632 318.5625 766.6789 320.17188L766.6789 325.03125Q766.6789 326.48438 767.03827 327.34375L767.03827 327.5L765.14764 327.5ZM762.14764 326.125Q763.007 326.125 763.757 325.6875Q764.52264 325.25 764.8664 324.54688L764.8664 322.375L763.4445 322.375Q760.132 322.375 760.132 324.3125Q760.132 325.17188 760.6945 325.65625Q761.257 326.125 762.14764 326.125ZM771.33514 316.9375L771.39764 318.26562Q772.60077 316.73438 774.5539 316.73438Q777.91327 316.73438 777.9289 320.51562L777.9289 327.5L776.132 327.5L776.132 320.5Q776.1164 319.35938 775.60077 318.8125Q775.10077 318.26562 774.007 318.26562Q773.132 318.26562 772.46014 318.73438Q771.8039 319.20312 771.4289 319.96875L771.4289 327.5L769.632 327.5L769.632 316.9375L771.33514 316.9375ZM780.1789 322.125Q780.1789 319.70312 781.33514 318.21875Q782.4914 316.73438 784.35077 316.73438Q786.21014 316.73438 787.28827 318.0L787.28827 312.5L789.10077 312.5L789.10077 327.5L787.4445 327.5L787.35077 326.35938Q786.27264 327.70312 784.33514 327.70312Q782.507 327.70312 781.33514 326.20312Q780.1789 324.6875 780.1789 322.26562L780.1789 322.125ZM781.9914 322.32812Q781.9914 324.125 782.72577 325.14062Q783.47577 326.15625 784.78827 326.15625Q786.507 326.15625 787.28827 324.625L787.28827 319.76562Q786.4914 318.26562 784.8039 318.26562Q783.47577 318.26562 782.72577 319.29688Q781.9914 320.32812 781.9914 322.32812ZM793.58514 327.5L791.78827 327.5L791.78827 316.9375L793.58514 316.9375L793.58514 327.5ZM791.632 314.125Q791.632 313.6875 791.89764 313.39062Q792.1789 313.07812 792.6945 313.07812Q793.22577 313.07812 793.4914 313.39062Q793.77264 313.6875 793.77264 314.125Q793.77264 314.5625 793.4914 314.85938Q793.22577 315.15625 792.6945 315.15625Q792.1789 315.15625 791.89764 314.85938Q791.632 314.5625 791.632 314.125ZM798.33514 316.9375L798.39764 318.26562Q799.60077 316.73438 801.5539 316.73438Q804.91327 316.73438 804.9289 320.51562L804.9289 327.5L803.132 327.5L803.132 320.5Q803.1164 319.35938 802.60077 318.8125Q802.10077 318.26562 801.007 318.26562Q800.132 318.26562 799.46014 318.73438Q798.8039 319.20312 798.4289 319.96875L798.4289 327.5L796.632 327.5L796.632 316.9375L798.33514 316.9375ZM807.1945 322.125Q807.1945 319.65625 808.33514 318.20312Q809.47577 316.73438 811.3664 316.73438Q813.3039 316.73438 814.382 318.10938L814.47577 316.9375L816.1164 316.9375L816.1164 327.25Q816.1164 329.29688 814.89764 330.46875Q813.6945 331.65625 811.632 331.65625Q810.4914 331.65625 809.39764 331.17188Q808.3039 330.6875 807.72577 329.82812L808.66327 328.75Q809.83514 330.1875 811.507 330.1875Q812.83514 330.1875 813.5695 329.4375Q814.3039 328.70312 814.3039 327.35938L814.3039 326.4375Q813.22577 327.70312 811.35077 327.70312Q809.4914 327.70312 808.33514 326.20312Q807.1945 324.70312 807.1945 322.125ZM809.007 322.32812Q809.007 324.125 809.7414 325.14062Q810.47577 326.15625 811.78827 326.15625Q813.507 326.15625 814.3039 324.60938L814.3039 319.78125Q813.47577 318.26562 811.8195 318.26562Q810.4914 318.26562 809.7414 319.29688Q809.007 320.32812 809.007 322.32812Z" fill-rule="nonzero"/></svg>