<svg version="1.1" viewBox="0.0 0.0 718.0 244.0" fill="none" stroke="none" stroke-linecap="square" stroke-miterlimit="10" width="718" height="244" xmlns:xlink="http://www.w3.org/1999/xlink" xmlns="http://www.w3.org/2000/svg"><path fill="#ffffff" d="M0 0L718.0 0L718.0 244.0L0 244.0L0 0Z" fill-rule="nonzero"/><path stroke="#333333" stroke-width="1.0" stroke-linecap="butt" d="M159.5 150.5L705.5 150.5" fill-rule="nonzero"/><path fill="#eeeeee" d="M137.5 172.5L159.5 151.5L705.5 151.5L683.5 172.5Z" fill-rule="nonzero"/><path stroke="#cccccc" stroke-width="1.0" stroke-linecap="butt" d="M159.5 108.5L705.5 108.5" fill-rule="nonzero"/><path stroke="#cccccc" stroke-width="1.0" stroke-linecap="butt" d="M159.5 67.5L705.5 67.5" fill-rule="nonzero"/><path stroke="#cccccc" stroke-width="1.0" stroke-linecap="butt" d="M159.5 26.5L705.5 26.5" fill-rule="nonzero"/><clipPath id="id_0"><path d="M137.2 26.2L705.8 26.2L705.8 172.3L137.2 172.3L137.2 26.2Z" clip-rule="nonzero"/></clipPath><path fill="#9c3e2a" clip-path="url(#id_0)" d="M678.0 44.0L678.0 150.0L661.0 167.0L661.0 61.0Z" fill-rule="nonzero"/><path fill="#f37f66" clip-path="url(#id_0)" d="M661.0 61.0L592.0 61.0L609.0 44.0L678.0 44.0Z" fill-rule="nonzero"/><path stroke="#000000" stroke-width="2.0" stroke-linecap="butt" stroke-opacity="0.0" clip-path="url(#id_0)" d="M661.0 167.0L592.0 167.0L592.0 61.0L661.0 61.0Z" fill-rule="nonzero"/><path fill="#f05f40" clip-path="url(#id_0)" d="M661.0 167.0L592.0 167.0L592.0 61.0L661.0 61.0Z" fill-rule="nonzero"/><path fill="#9c3e2a" clip-path="url(#id_0)" d="M571.0 77.0L571.0 150.0L554.0 167.0L554.0 94.0Z" fill-rule="nonzero"/><path fill="#f37f66" clip-path="url(#id_0)" d="M554.0 94.0L485.0 94.0L502.0 77.0L571.0 77.0Z" fill-rule="nonzero"/><path stroke="#000000" stroke-width="2.0" stroke-linecap="butt" stroke-opacity="0.0" clip-path="url(#id_0)" d="M554.0 167.0L485.0 167.0L485.0 94.0L554.0 94.0Z" fill-rule="nonzero"/><path fill="#f05f40" clip-path="url(#id_0)" d="M554.0 167.0L485.0 167.0L485.0 94.0L554.0 94.0Z" fill-rule="nonzero"/><path fill="#9c3e2a" clip-path="url(#id_0)" d="M465.0 133.0L465.0 150.0L448.0 167.0L448.0 150.0Z" fill-rule="nonzero"/><path fill="#f37f66" clip-path="url(#id_0)" d="M448.0 150.0L379.0 150.0L396.0 133.0L465.0 133.0Z" fill-rule="nonzero"/><path stroke="#000000" stroke-width="2.0" stroke-linecap="butt" stroke-opacity="0.0" clip-path="url(#id_0)" d="M448.0 167.0L379.0 167.0L379.0 150.0L448.0 150.0Z" fill-rule="nonzero"/><path fill="#f05f40" clip-path="url(#id_0)" d="M448.0 167.0L379.0 167.0L379.0 150.0L448.0 150.0Z" fill-rule="nonzero"/><path fill="#9c3e2a" clip-path="url(#id_0)" d="M359.0 148.0L359.0 150.0L342.0 167.0L342.0 165.0Z" fill-rule="nonzero"/><path fill="#f37f66" clip-path="url(#id_0)" d="M342.0 165.0L273.0 165.0L290.0 148.0L359.0 148.0Z" fill-rule="nonzero"/><path stroke="#000000" stroke-width="2.0" stroke-linecap="butt" stroke-opacity="0.0" clip-path="url(#id_0)" d="M342.0 167.0L273.0 167.0L273.0 165.0L342.0 165.0Z" fill-rule="nonzero"/><path fill="#f05f40" clip-path="url(#id_0)" d="M342.0 167.0L273.0 167.0L273.0 165.0L342.0 165.0Z" fill-rule="nonzero"/><path fill="#9c3e2a" clip-path="url(#id_0)" d="M252.0 149.0L252.0 150.0L235.0 167.0L235.0 166.0Z" fill-rule="nonzero"/><path fill="#f37f66" clip-path="url(#id_0)" d="M235.0 166.0L166.0 166.0L183.0 149.0L252.0 149.0Z" fill-rule="nonzero"/><path stroke="#000000" stroke-width="2.0" stroke-linecap="butt" stroke-opacity="0.0" clip-path="url(#id_0)" d="M235.0 167.0L166.0 167.0L166.0 166.0L235.0 166.0Z" fill-rule="nonzero"/><path fill="#f05f40" clip-path="url(#id_0)" d="M235.0 167.0L166.0 167.0L166.0 166.0L235.0 166.0Z" fill-rule="nonzero"/><path stroke="#f05f40" stroke-width="3.0" stroke-linejoin="round" stroke-linecap="round" d="M613.2031 73.5271L613.6406 69.2771L618.0156 69.2771L618.0156 70.2771L614.5625 70.2771L614.2969 72.605225Q614.9375 72.230225 615.7344 72.230225Q616.8906 72.230225 617.5781 73.011475Q618.2656 73.7771 618.2656 75.0896Q618.2656 76.4021 617.5469 77.167725Q616.84375 77.93335 615.5625 77.93335Q614.4375 77.93335 613.71875 77.30835Q613.0 76.667725 612.90625 75.55835L613.9219 75.55835Q614.03125 76.292725 614.4531 76.667725Q614.875 77.042725 615.5625 77.042725Q616.3125 77.042725 616.75 76.5271Q617.1875 76.011475 617.1875 75.105225Q617.1875 74.24585 616.71875 73.730225Q616.25 73.2146 615.46875 73.2146Q614.7656 73.2146 614.3594 73.511475L614.0781 73.74585L613.2031 73.5271ZM623.2656 77.80835L622.1875 77.80835L622.1875 70.5896L620.0 71.386475L620.0 70.4021L623.1094 69.230225L623.2656 69.230225L623.2656 77.80835ZM628.28125 73.011475L629.09375 73.011475Q629.875 72.99585 630.3125 72.605225Q630.75 72.2146 630.75 71.542725Q630.75 70.042725 629.25 70.042725Q628.5469 70.042725 628.125 70.448975Q627.71875 70.855225 627.71875 71.511475L626.625 71.511475Q626.625 70.49585 627.3594 69.823975Q628.1094 69.1521 629.25 69.1521Q630.4531 69.1521 631.1406 69.792725Q631.8281 70.43335 631.8281 71.573975Q631.8281 72.136475 631.46875 72.6521Q631.1094 73.167725 630.4844 73.43335Q631.1875 73.6521 631.5625 74.167725Q631.9531 74.68335 631.9531 75.43335Q631.9531 76.573975 631.2031 77.261475Q630.4531 77.93335 629.25 77.93335Q628.0625 77.93335 627.2969 77.2771Q626.5469 76.62085 626.5469 75.55835L627.6406 75.55835Q627.6406 76.230225 628.0781 76.636475Q628.5156 77.042725 629.2656 77.042725Q630.0469 77.042725 630.4531 76.636475Q630.875 76.2146 630.875 75.448975Q630.875 74.7146 630.4219 74.323975Q629.96875 73.917725 629.09375 73.9021L628.28125 73.9021L628.28125 73.011475ZM637.8594 74.05835Q637.53125 74.4646 637.0469 74.7146Q636.5781 74.948975 636.0156 74.948975Q635.28125 74.948975 634.7344 74.5896Q634.1875 74.230225 633.8906 73.573975Q633.59375 72.9021 633.59375 72.105225Q633.59375 71.261475 633.90625 70.573975Q634.2344 69.886475 634.8281 69.5271Q635.4375 69.1521 636.2344 69.1521Q637.5 69.1521 638.21875 70.105225Q638.9531 71.05835 638.9531 72.68335L638.9531 72.99585Q638.9531 75.49585 637.96875 76.636475Q636.9844 77.7771 635.0 77.80835L634.78125 77.80835L634.78125 76.9021L635.0156 76.9021Q636.3594 76.87085 637.0781 76.198975Q637.7969 75.5271 637.8594 74.05835ZM636.1875 74.05835Q636.7344 74.05835 637.1875 73.730225Q637.65625 73.386475 637.875 72.9021L637.875 72.4646Q637.875 71.4021 637.40625 70.730225Q636.9375 70.05835 636.2344 70.05835Q635.5156 70.05835 635.0781 70.605225Q634.65625 71.1521 634.65625 72.05835Q634.65625 72.93335 635.0625 73.49585Q635.4844 74.05835 636.1875 74.05835Z" fill-rule="nonzero"/><path fill="#000000" d="M613.2031 73.5271L613.6406 69.2771L618.0156 69.2771L618.0156 70.2771L614.5625 70.2771L614.2969 72.605225Q614.9375 72.230225 615.7344 72.230225Q616.8906 72.230225 617.5781 73.011475Q618.2656 73.7771 618.2656 75.0896Q618.2656 76.4021 617.5469 77.167725Q616.84375 77.93335 615.5625 77.93335Q614.4375 77.93335 613.71875 77.30835Q613.0 76.667725 612.90625 75.55835L613.9219 75.55835Q614.03125 76.292725 614.4531 76.667725Q614.875 77.042725 615.5625 77.042725Q616.3125 77.042725 616.75 76.5271Q617.1875 76.011475 617.1875 75.105225Q617.1875 74.24585 616.71875 73.730225Q616.25 73.2146 615.46875 73.2146Q614.7656 73.2146 614.3594 73.511475L614.0781 73.74585L613.2031 73.5271ZM623.2656 77.80835L622.1875 77.80835L622.1875 70.5896L620.0 71.386475L620.0 70.4021L623.1094 69.230225L623.2656 69.230225L623.2656 77.80835ZM628.28125 73.011475L629.09375 73.011475Q629.875 72.99585 630.3125 72.605225Q630.75 72.2146 630.75 71.542725Q630.75 70.042725 629.25 70.042725Q628.5469 70.042725 628.125 70.448975Q627.71875 70.855225 627.71875 71.511475L626.625 71.511475Q626.625 70.49585 627.3594 69.823975Q628.1094 69.1521 629.25 69.1521Q630.4531 69.1521 631.1406 69.792725Q631.8281 70.43335 631.8281 71.573975Q631.8281 72.136475 631.46875 72.6521Q631.1094 73.167725 630.4844 73.43335Q631.1875 73.6521 631.5625 74.167725Q631.9531 74.68335 631.9531 75.43335Q631.9531 76.573975 631.2031 77.261475Q630.4531 77.93335 629.25 77.93335Q628.0625 77.93335 627.2969 77.2771Q626.5469 76.62085 626.5469 75.55835L627.6406 75.55835Q627.6406 76.230225 628.0781 76.636475Q628.5156 77.042725 629.2656 77.042725Q630.0469 77.042725 630.4531 76.636475Q630.875 76.2146 630.875 75.448975Q630.875 74.7146 630.4219 74.323975Q629.96875 73.917725 629.09375 73.9021L628.28125 73.9021L628.28125 73.011475ZM637.8594 74.05835Q637.53125 74.4646 637.0469 74.7146Q636.5781 74.948975 636.0156 74.948975Q635.28125 74.948975 634.7344 74.5896Q634.1875 74.230225 633.8906 73.573975Q633.59375 72.9021 633.59375 72.105225Q633.59375 71.261475 633.90625 70.573975Q634.2344 69.886475 634.8281 69.5271Q635.4375 69.1521 636.2344 69.1521Q637.5 69.1521 638.21875 70.105225Q638.9531 71.05835 638.9531 72.68335L638.9531 72.99585Q638.9531 75.49585 637.96875 76.636475Q636.9844 77.7771 635.0 77.80835L634.78125 77.80835L634.78125 76.9021L635.0156 76.9021Q636.3594 76.87085 637.0781 76.198975Q637.7969 75.5271 637.8594 74.05835ZM636.1875 74.05835Q636.7344 74.05835 637.1875 73.730225Q637.65625 73.386475 637.875 72.9021L637.875 72.4646Q637.875 71.4021 637.40625 70.730225Q636.9375 70.05835 636.2344 70.05835Q635.5156 70.05835 635.0781 70.605225Q634.65625 71.1521 634.65625 72.05835Q634.65625 72.93335 635.0625 73.49585Q635.4844 74.05835 636.1875 74.05835Z" fill-rule="nonzero"/><path stroke="#f05f40" stroke-width="3.0" stroke-linejoin="round" stroke-linecap="round" d="M507.28125 106.41506L508.09375 106.41506Q508.875 106.39944 509.3125 106.00881Q509.75 105.61819 509.75 104.94631Q509.75 103.44631 508.25 103.44631Q507.54688 103.44631 507.125 103.85256Q506.71875 104.25881 506.71875 104.91506L505.625 104.91506Q505.625 103.89944 506.35938 103.22756Q507.10938 102.55569 508.25 102.55569Q509.45312 102.55569 510.14062 103.19631Q510.82812 103.83694 510.82812 104.97756Q510.82812 105.54006 510.46875 106.05569Q510.10938 106.57131 509.48438 106.83694Q510.1875 107.05569 510.5625 107.57131Q510.95312 108.08694 510.95312 108.83694Q510.95312 109.97756 510.20312 110.66506Q509.45312 111.33694 508.25 111.33694Q507.0625 111.33694 506.29688 110.68069Q505.54688 110.02444 505.54688 108.96194L506.64062 108.96194Q506.64062 109.63381 507.07812 110.04006Q507.51562 110.44631 508.26562 110.44631Q509.04688 110.44631 509.45312 110.04006Q509.875 109.61819 509.875 108.85256Q509.875 108.11819 509.42188 107.72756Q508.96875 107.32131 508.09375 107.30569L507.28125 107.30569L507.28125 106.41506ZM513.2031 106.93069L513.6406 102.68069L518.0156 102.68069L518.0156 103.68069L514.5625 103.68069L514.2969 106.00881Q514.9375 105.63381 515.7344 105.63381Q516.8906 105.63381 517.5781 106.41506Q518.2656 107.18069 518.2656 108.49319Q518.2656 109.80569 517.5469 110.57131Q516.84375 111.33694 515.5625 111.33694Q514.4375 111.33694 513.71875 110.71194Q513.0 110.07131 512.90625 108.96194L513.9219 108.96194Q514.03125 109.69631 514.4531 110.07131Q514.875 110.44631 515.5625 110.44631Q516.3125 110.44631 516.75 109.93069Q517.1875 109.41506 517.1875 108.50881Q517.1875 107.64944 516.71875 107.13381Q516.25 106.61819 515.46875 106.61819Q514.7656 106.61819 514.3594 106.91506L514.0781 107.14944L513.2031 106.93069ZM525.2969 111.21194L519.7031 111.21194L519.7031 110.43069L522.65625 107.14944Q523.3125 106.39944 523.5625 105.94631Q523.8125 105.47756 523.8125 104.97756Q523.8125 104.30569 523.40625 103.88381Q523.0156 103.44631 522.3281 103.44631Q521.53125 103.44631 521.0781 103.91506Q520.625 104.36819 520.625 105.19631L519.5469 105.19631Q519.5469 104.00881 520.2969 103.29006Q521.0625 102.55569 522.3281 102.55569Q523.53125 102.55569 524.21875 103.18069Q524.90625 103.80569 524.90625 104.85256Q524.90625 106.10256 523.2969 107.85256L521.0156 110.32131L525.2969 110.32131L525.2969 111.21194ZM531.28125 108.35256L532.46875 108.35256L532.46875 109.22756L531.28125 109.22756L531.28125 111.21194L530.2031 111.21194L530.2031 109.22756L526.3125 109.22756L526.3125 108.58694L530.125 102.68069L531.28125 102.68069L531.28125 108.35256ZM527.5469 108.35256L530.2031 108.35256L530.2031 104.16506L530.0625 104.39944L527.5469 108.35256Z" fill-rule="nonzero"/><path fill="#000000" d="M507.28125 106.41506L508.09375 106.41506Q508.875 106.39944 509.3125 106.00881Q509.75 105.61819 509.75 104.94631Q509.75 103.44631 508.25 103.44631Q507.54688 103.44631 507.125 103.85256Q506.71875 104.25881 506.71875 104.91506L505.625 104.91506Q505.625 103.89944 506.35938 103.22756Q507.10938 102.55569 508.25 102.55569Q509.45312 102.55569 510.14062 103.19631Q510.82812 103.83694 510.82812 104.97756Q510.82812 105.54006 510.46875 106.05569Q510.10938 106.57131 509.48438 106.83694Q510.1875 107.05569 510.5625 107.57131Q510.95312 108.08694 510.95312 108.83694Q510.95312 109.97756 510.20312 110.66506Q509.45312 111.33694 508.25 111.33694Q507.0625 111.33694 506.29688 110.68069Q505.54688 110.02444 505.54688 108.96194L506.64062 108.96194Q506.64062 109.63381 507.07812 110.04006Q507.51562 110.44631 508.26562 110.44631Q509.04688 110.44631 509.45312 110.04006Q509.875 109.61819 509.875 108.85256Q509.875 108.11819 509.42188 107.72756Q508.96875 107.32131 508.09375 107.30569L507.28125 107.30569L507.28125 106.41506ZM513.2031 106.93069L513.6406 102.68069L518.0156 102.68069L518.0156 103.68069L514.5625 103.68069L514.2969 106.00881Q514.9375 105.63381 515.7344 105.63381Q516.8906 105.63381 517.5781 106.41506Q518.2656 107.18069 518.2656 108.49319Q518.2656 109.80569 517.5469 110.57131Q516.84375 111.33694 515.5625 111.33694Q514.4375 111.33694 513.71875 110.71194Q513.0 110.07131 512.90625 108.96194L513.9219 108.96194Q514.03125 109.69631 514.4531 110.07131Q514.875 110.44631 515.5625 110.44631Q516.3125 110.44631 516.75 109.93069Q517.1875 109.41506 517.1875 108.50881Q517.1875 107.64944 516.71875 107.13381Q516.25 106.61819 515.46875 106.61819Q514.7656 106.61819 514.3594 106.91506L514.0781 107.14944L513.2031 106.93069ZM525.2969 111.21194L519.7031 111.21194L519.7031 110.43069L522.65625 107.14944Q523.3125 106.39944 523.5625 105.94631Q523.8125 105.47756 523.8125 104.97756Q523.8125 104.30569 523.40625 103.88381Q523.0156 103.44631 522.3281 103.44631Q521.53125 103.44631 521.0781 103.91506Q520.625 104.36819 520.625 105.19631L519.5469 105.19631Q519.5469 104.00881 520.2969 103.29006Q521.0625 102.55569 522.3281 102.55569Q523.53125 102.55569 524.21875 103.18069Q524.90625 103.80569 524.90625 104.85256Q524.90625 106.10256 523.2969 107.85256L521.0156 110.32131L525.2969 110.32131L525.2969 111.21194ZM531.28125 108.35256L532.46875 108.35256L532.46875 109.22756L531.28125 109.22756L531.28125 111.21194L530.2031 111.21194L530.2031 109.22756L526.3125 109.22756L526.3125 108.58694L530.125 102.68069L531.28125 102.68069L531.28125 108.35256ZM527.5469 108.35256L530.2031 108.35256L530.2031 104.16506L530.0625 104.39944L527.5469 108.35256Z" fill-rule="nonzero"/><path stroke="#ffffff" stroke-width="3.0" stroke-linejoin="round" stroke-linecap="round" d="M408.39062 129.1099Q408.39062 129.75052 408.04688 130.25052Q407.70312 130.75052 407.14062 131.03177Q407.79688 131.31302 408.1875 131.87552Q408.57812 132.4224 408.57812 133.12552Q408.57812 134.21927 407.82812 134.89114Q407.09375 135.5474 405.875 135.5474Q404.64062 135.5474 403.89062 134.89114Q403.15625 134.21927 403.15625 133.12552Q403.15625 132.4224 403.53125 131.87552Q403.90625 131.31302 404.57812 131.03177Q404.01562 130.75052 403.6875 130.25052Q403.35938 129.75052 403.35938 129.1099Q403.35938 128.03177 404.04688 127.40678Q404.73438 126.76615 405.875 126.76615Q407.0 126.76615 407.6875 127.40678Q408.39062 128.03177 408.39062 129.1099ZM407.5 133.09427Q407.5 132.37552 407.04688 131.93802Q406.59375 131.4849 405.85938 131.4849Q405.125 131.4849 404.67188 131.93802Q404.23438 132.37552 404.23438 133.1099Q404.23438 133.82864 404.67188 134.25052Q405.10938 134.65677 405.875 134.65677Q406.625 134.65677 407.0625 134.2349Q407.5 133.81302 407.5 133.09427ZM405.875 127.65678Q405.23438 127.65678 404.82812 128.06302Q404.4375 128.45364 404.4375 129.14114Q404.4375 129.78177 404.82812 130.18802Q405.21875 130.59427 405.85938 130.59427Q406.51562 130.59427 406.90625 130.18802Q407.29688 129.78177 407.29688 129.14114Q407.29688 128.4849 406.89062 128.07864Q406.48438 127.65678 405.875 127.65678ZM413.76562 135.4224L412.6875 135.4224L412.6875 128.20364L410.5 129.00052L410.5 128.01614L413.60938 126.84428L413.76562 126.84428L413.76562 135.4224ZM421.46875 126.89115L421.46875 127.7974L421.26562 127.7974Q420.0 127.82865 419.25 128.56302Q418.5 129.28177 418.375 130.59427Q419.0625 129.82864 420.21875 129.82864Q421.32812 129.82864 422.0 130.6099Q422.67188 131.39114 422.67188 132.64114Q422.67188 133.95364 421.95312 134.75052Q421.23438 135.5474 420.01562 135.5474Q418.79688 135.5474 418.03125 134.6099Q417.28125 133.65677 417.28125 132.1724L417.28125 131.76614Q417.28125 129.40677 418.28125 128.15677Q419.28125 126.90678 421.26562 126.89115L421.46875 126.89115ZM420.04688 130.7349Q419.48438 130.7349 419.01562 131.06302Q418.54688 131.39114 418.35938 131.90677L418.35938 132.2974Q418.35938 133.3599 418.82812 134.00052Q419.3125 134.64114 420.01562 134.64114Q420.75 134.64114 421.17188 134.1099Q421.59375 133.56302 421.59375 132.68802Q421.59375 131.81302 421.17188 131.28177Q420.75 130.7349 420.04688 130.7349Z" fill-rule="nonzero"/><path fill="#f05f40" d="M408.39062 129.1099Q408.39062 129.75052 408.04688 130.25052Q407.70312 130.75052 407.14062 131.03177Q407.79688 131.31302 408.1875 131.87552Q408.57812 132.4224 408.57812 133.12552Q408.57812 134.21927 407.82812 134.89114Q407.09375 135.5474 405.875 135.5474Q404.64062 135.5474 403.89062 134.89114Q403.15625 134.21927 403.15625 133.12552Q403.15625 132.4224 403.53125 131.87552Q403.90625 131.31302 404.57812 131.03177Q404.01562 130.75052 403.6875 130.25052Q403.35938 129.75052 403.35938 129.1099Q403.35938 128.03177 404.04688 127.40677Q404.73438 126.76614 405.875 126.76614Q407.0 126.76614 407.6875 127.40677Q408.39062 128.03177 408.39062 129.1099ZM407.5 133.09427Q407.5 132.37552 407.04688 131.93802Q406.59375 131.4849 405.85938 131.4849Q405.125 131.4849 404.67188 131.93802Q404.23438 132.37552 404.23438 133.1099Q404.23438 133.82864 404.67188 134.25052Q405.10938 134.65677 405.875 134.65677Q406.625 134.65677 407.0625 134.2349Q407.5 133.81302 407.5 133.09427ZM405.875 127.65677Q405.23438 127.65677 404.82812 128.06302Q404.4375 128.45364 404.4375 129.14114Q404.4375 129.78177 404.82812 130.18802Q405.21875 130.59427 405.85938 130.59427Q406.51562 130.59427 406.90625 130.18802Q407.29688 129.78177 407.29688 129.14114Q407.29688 128.4849 406.89062 128.07864Q406.48438 127.65677 405.875 127.65677ZM413.76562 135.4224L412.6875 135.4224L412.6875 128.20364L410.5 129.00052L410.5 128.01614L413.60938 126.84427L413.76562 126.84427L413.76562 135.4224ZM421.46875 126.89114L421.46875 127.79739L421.26562 127.79739Q420.0 127.82864 419.25 128.56302Q418.5 129.28177 418.375 130.59427Q419.0625 129.82864 420.21875 129.82864Q421.32812 129.82864 422.0 130.6099Q422.67188 131.39114 422.67188 132.64114Q422.67188 133.95364 421.95312 134.75052Q421.23438 135.5474 420.01562 135.5474Q418.79688 135.5474 418.03125 134.6099Q417.28125 133.65677 417.28125 132.1724L417.28125 131.76614Q417.28125 129.40677 418.28125 128.15677Q419.28125 126.90677 421.26562 126.89114L421.46875 126.89114ZM420.04688 130.7349Q419.48438 130.7349 419.01562 131.06302Q418.54688 131.39114 418.35938 131.90677L418.35938 132.2974Q418.35938 133.3599 418.82812 134.00052Q419.3125 134.64114 420.01562 134.64114Q420.75 134.64114 421.17188 134.1099Q421.59375 133.56302 421.59375 132.68802Q421.59375 131.81302 421.17188 131.28177Q420.75 130.7349 420.04688 130.7349Z" fill-rule="nonzero"/><path stroke="#ffffff" stroke-width="3.0" stroke-linejoin="round" stroke-linecap="round" d="M300.76562 149.50775L299.6875 149.50775L299.6875 142.289L297.5 143.08588L297.5 142.1015L300.60938 140.92963L300.76562 140.92963L300.76562 149.50775ZM305.78125 144.71088L306.59375 144.71088Q307.375 144.69525 307.8125 144.30463Q308.25 143.914 308.25 143.24213Q308.25 141.74213 306.75 141.74213Q306.04688 141.74213 305.625 142.14838Q305.21875 142.55463 305.21875 143.21088L304.125 143.21088Q304.125 142.19525 304.85938 141.52338Q305.60938 140.8515 306.75 140.8515Q307.95312 140.8515 308.64062 141.49213Q309.32812 142.13275 309.32812 143.27338Q309.32812 143.83588 308.96875 144.3515Q308.60938 144.86713 307.98438 145.13275Q308.6875 145.3515 309.0625 145.86713Q309.45312 146.38275 309.45312 147.13275Q309.45312 148.27338 308.70312 148.96088Q307.95312 149.63275 306.75 149.63275Q305.5625 149.63275 304.79688 148.9765Q304.04688 148.32025 304.04688 147.25775L305.14062 147.25775Q305.14062 147.92963 305.57812 148.33588Q306.01562 148.74213 306.76562 148.74213Q307.54688 148.74213 307.95312 148.33588Q308.375 147.914 308.375 147.14838Q308.375 146.414 307.92188 146.02338Q307.46875 145.61713 306.59375 145.6015L305.78125 145.6015L305.78125 144.71088ZM311.70312 145.2265L312.14062 140.9765L316.51562 140.9765L316.51562 141.9765L313.0625 141.9765L312.79688 144.30463Q313.4375 143.92963 314.23438 143.92963Q315.39062 143.92963 316.07812 144.71088Q316.76562 145.4765 316.76562 146.789Q316.76562 148.1015 316.04688 148.86713Q315.34375 149.63275 314.0625 149.63275Q312.9375 149.63275 312.21875 149.00775Q311.5 148.36713 311.40625 147.25775L312.42188 147.25775Q312.53125 147.99213 312.95312 148.36713Q313.375 148.74213 314.0625 148.74213Q314.8125 148.74213 315.25 148.2265Q315.6875 147.71088 315.6875 146.80463Q315.6875 145.94525 315.21875 145.42963Q314.75 144.914 313.96875 144.914Q313.26562 144.914 312.85938 145.21088L312.57812 145.44525L311.70312 145.2265Z" fill-rule="nonzero"/><path fill="#f05f40" d="M300.76562 149.50775L299.6875 149.50775L299.6875 142.289L297.5 143.08588L297.5 142.1015L300.60938 140.92963L300.76562 140.92963L300.76562 149.50775ZM305.78125 144.71088L306.59375 144.71088Q307.375 144.69525 307.8125 144.30463Q308.25 143.914 308.25 143.24213Q308.25 141.74213 306.75 141.74213Q306.04688 141.74213 305.625 142.14838Q305.21875 142.55463 305.21875 143.21088L304.125 143.21088Q304.125 142.19525 304.85938 141.52338Q305.60938 140.8515 306.75 140.8515Q307.95312 140.8515 308.64062 141.49213Q309.32812 142.13275 309.32812 143.27338Q309.32812 143.83588 308.96875 144.3515Q308.60938 144.86713 307.98438 145.13275Q308.6875 145.3515 309.0625 145.86713Q309.45312 146.38275 309.45312 147.13275Q309.45312 148.27338 308.70312 148.96088Q307.95312 149.63275 306.75 149.63275Q305.5625 149.63275 304.79688 148.9765Q304.04688 148.32025 304.04688 147.25775L305.14062 147.25775Q305.14062 147.92963 305.57812 148.33588Q306.01562 148.74213 306.76562 148.74213Q307.54688 148.74213 307.95312 148.33588Q308.375 147.914 308.375 147.14838Q308.375 146.414 307.92188 146.02338Q307.46875 145.61713 306.59375 145.6015L305.78125 145.6015L305.78125 144.71088ZM311.70312 145.2265L312.14062 140.9765L316.51562 140.9765L316.51562 141.9765L313.0625 141.9765L312.79688 144.30463Q313.4375 143.92963 314.23438 143.92963Q315.39062 143.92963 316.07812 144.71088Q316.76562 145.4765 316.76562 146.789Q316.76562 148.1015 316.04688 148.86713Q315.34375 149.63275 314.0625 149.63275Q312.9375 149.63275 312.21875 149.00775Q311.5 148.36713 311.40625 147.25775L312.42188 147.25775Q312.53125 147.99213 312.95312 148.36713Q313.375 148.74213 314.0625 148.74213Q314.8125 148.74213 315.25 148.2265Q315.6875 147.71088 315.6875 146.80463Q315.6875 145.94525 315.21875 145.42963Q314.75 144.914 313.96875 144.914Q313.26562 144.914 312.85938 145.21088L312.57812 145.44525L311.70312 145.2265Z" fill-rule="nonzero"/><path stroke="#ffffff" stroke-width="3.0" stroke-linejoin="round" stroke-linecap="round" d="M197.96875 142.44502L197.96875 143.35127L197.76562 143.35127Q196.5 143.38252 195.75 144.1169Q195.0 144.83565 194.875 146.14815Q195.5625 145.38252 196.71875 145.38252Q197.82812 145.38252 198.5 146.16377Q199.17188 146.94502 199.17188 148.19502Q199.17188 149.50752 198.45312 150.3044Q197.73438 151.10127 196.51562 151.10127Q195.29688 151.10127 194.53125 150.16377Q193.78125 149.21065 193.78125 147.72627L193.78125 147.32002Q193.78125 144.96065 194.78125 143.71065Q195.78125 142.46065 197.76562 142.44502L197.96875 142.44502ZM196.54688 146.28877Q195.98438 146.28877 195.51562 146.6169Q195.04688 146.94502 194.85938 147.46065L194.85938 147.85127Q194.85938 148.91377 195.32812 149.5544Q195.8125 150.19502 196.51562 150.19502Q197.25 150.19502 197.67188 149.66377Q198.09375 149.1169 198.09375 148.2419Q198.09375 147.3669 197.67188 146.83565Q197.25 146.28877 196.54688 146.28877ZM205.28125 148.1169L206.46875 148.1169L206.46875 148.9919L205.28125 148.9919L205.28125 150.97627L204.20312 150.97627L204.20312 148.9919L200.3125 148.9919L200.3125 148.35127L204.125 142.44502L205.28125 142.44502L205.28125 148.1169ZM201.54688 148.1169L204.20312 148.1169L204.20312 143.9294L204.0625 144.16377L201.54688 148.1169Z" fill-rule="nonzero"/><path fill="#f05f40" d="M197.96875 142.44502L197.96875 143.35127L197.76562 143.35127Q196.5 143.38252 195.75 144.1169Q195.0 144.83565 194.875 146.14815Q195.5625 145.38252 196.71875 145.38252Q197.82812 145.38252 198.5 146.16377Q199.17188 146.94502 199.17188 148.19502Q199.17188 149.50752 198.45312 150.3044Q197.73438 151.10127 196.51562 151.10127Q195.29688 151.10127 194.53125 150.16377Q193.78125 149.21065 193.78125 147.72627L193.78125 147.32002Q193.78125 144.96065 194.78125 143.71065Q195.78125 142.46065 197.76562 142.44502L197.96875 142.44502ZM196.54688 146.28877Q195.98438 146.28877 195.51562 146.6169Q195.04688 146.94502 194.85938 147.46065L194.85938 147.85127Q194.85938 148.91377 195.32812 149.5544Q195.8125 150.19502 196.51562 150.19502Q197.25 150.19502 197.67188 149.66377Q198.09375 149.1169 198.09375 148.2419Q198.09375 147.3669 197.67188 146.83565Q197.25 146.28877 196.54688 146.28877ZM205.28125 148.1169L206.46875 148.1169L206.46875 148.9919L205.28125 148.9919L205.28125 150.97627L204.20312 150.97627L204.20312 148.9919L200.3125 148.9919L200.3125 148.35127L204.125 142.44502L205.28125 142.44502L205.28125 148.1169ZM201.54688 148.1169L204.20312 148.1169L204.20312 143.9294L204.0625 144.16377L201.54688 148.1169Z" fill-rule="nonzero"/><path fill="#000000" d="M31.200003 169.42188L16.887503 169.42188L16.887503 163.07812Q16.887503 161.17188 17.278128 160.17188Q17.653128 159.17188 18.637503 158.57812Q19.606253 157.98438 20.793753 157.98438Q22.309378 157.98438 23.356253 158.96875Q24.403128 159.95312 24.684378 162.01562Q25.043753 161.26562 25.403128 160.875Q26.153128 160.04688 27.309378 159.29688L31.200003 156.8125L31.200003 159.1875L28.215628 161.09375Q26.934378 161.92188 26.246878 162.45312Q25.559378 162.98438 25.293753 163.42188Q25.012503 163.84375 24.903128 164.28125Q24.840628 164.60938 24.840628 165.32812L24.840628 167.53125L31.200003 167.53125L31.200003 169.42188ZM23.200003 167.53125L23.200003 163.45312Q23.200003 162.15625 22.934378 161.4375Q22.668753 160.70312 22.075003 160.32812Q21.481253 159.9375 20.793753 159.9375Q19.778128 159.9375 19.121878 160.67188Q18.465628 161.40625 18.465628 163.0L18.465628 167.53125L23.200003 167.53125ZM27.856253 148.57812L28.090628 146.76562Q29.668753 147.1875 30.559378 148.35938Q31.434378 149.51562 31.434378 151.32812Q31.434378 153.59375 30.043753 154.9375Q28.637503 156.26562 26.106253 156.26562Q23.481253 156.26562 22.043753 154.92188Q20.590628 153.57812 20.590628 151.42188Q20.590628 149.34375 22.012503 148.03125Q23.418753 146.70312 25.996878 146.70312Q26.153128 146.70312 26.465628 146.71875L26.465628 154.45312Q28.168753 154.35938 29.075003 153.48438Q29.981253 152.60938 29.981253 151.3125Q29.981253 150.34375 29.481253 149.67188Q28.965628 148.98438 27.856253 148.57812ZM25.012503 154.35938L25.012503 148.5625Q23.715628 148.67188 23.059378 149.21875Q22.043753 150.0625 22.043753 151.40625Q22.043753 152.60938 22.856253 153.4375Q23.653128 154.26562 25.012503 154.35938ZM28.106253 145.39062L27.825003 143.64062Q28.871878 143.5 29.434378 142.82812Q29.981253 142.15625 29.981253 140.95312Q29.981253 139.75 29.496878 139.17188Q28.996878 138.57812 28.340628 138.57812Q27.746878 138.57812 27.403128 139.09375Q27.168753 139.45312 26.809378 140.89062Q26.309378 142.82812 25.965628 143.57812Q25.606253 144.3125 24.981253 144.70312Q24.340628 145.09375 23.575003 145.09375Q22.887503 145.09375 22.293753 144.78125Q21.700003 144.45312 21.309378 143.90625Q21.012503 143.5 20.809378 142.79688Q20.590628 142.07812 20.590628 141.26562Q20.590628 140.04688 20.950003 139.125Q21.293753 138.20312 21.903128 137.76562Q22.496878 137.32812 23.496878 137.15625L23.731253 138.875Q22.934378 139.0 22.496878 139.5625Q22.043753 140.125 22.043753 141.14062Q22.043753 142.35938 22.450003 142.875Q22.840628 143.39062 23.371878 143.39062Q23.715628 143.39062 23.996878 143.17188Q24.278128 142.96875 24.465628 142.5Q24.559378 142.23438 24.903128 140.95312Q25.403128 139.07812 25.731253 138.34375Q26.043753 137.60938 26.653128 137.1875Q27.246878 136.76562 28.153128 136.76562Q29.028128 136.76562 29.809378 137.28125Q30.590628 137.79688 31.012503 138.76562Q31.434378 139.73438 31.434378 140.95312Q31.434378 142.96875 30.590628 144.03125Q29.746878 145.09375 28.106253 145.39062ZM35.168755 134.6875L20.825003 134.6875L20.825003 133.07812L22.168753 133.07812Q21.387503 132.51562 20.996878 131.8125Q20.590628 131.09375 20.590628 130.07812Q20.590628 128.75 21.278128 127.734375Q21.965628 126.71875 23.215628 126.203125Q24.450003 125.671875 25.934378 125.671875Q27.528128 125.671875 28.809378 126.25Q30.075003 126.8125 30.762503 127.90625Q31.434378 129.0 31.434378 130.20312Q31.434378 131.07812 31.059378 131.78125Q30.684378 132.46875 30.121878 132.92188L35.168755 132.92188L35.168755 134.6875ZM26.075003 133.09375Q28.075003 133.09375 29.028128 132.28125Q29.981253 131.46875 29.981253 130.3125Q29.981253 129.14062 28.996878 128.3125Q28.012503 127.46875 25.918753 127.46875Q23.950003 127.46875 22.965628 128.29688Q21.965628 129.10938 21.965628 130.23438Q21.965628 131.35938 23.028128 132.23438Q24.075003 133.09375 26.075003 133.09375ZM26.012503 124.328125Q23.137503 124.328125 21.746878 122.734375Q20.590628 121.390625 20.590628 119.46875Q20.590628 117.328125 21.996878 115.984375Q23.403128 114.625 25.871878 114.625Q27.871878 114.625 29.028128 115.21875Q30.168753 115.8125 30.809378 116.96875Q31.434378 118.109375 31.434378 119.46875Q31.434378 121.65625 30.043753 123.0Q28.637503 124.328125 26.012503 124.328125ZM26.012503 122.53125Q28.012503 122.53125 28.996878 121.671875Q29.981253 120.796875 29.981253 119.46875Q29.981253 118.15625 28.996878 117.296875Q27.996878 116.421875 25.950003 116.421875Q24.028128 116.421875 23.043753 117.296875Q22.043753 118.171875 22.043753 119.46875Q22.043753 120.796875 23.043753 121.671875Q24.028128 122.53125 26.012503 122.53125ZM31.200003 112.6875L20.825003 112.6875L20.825003 111.09375L22.309378 111.09375Q20.590628 109.953125 20.590628 107.796875Q20.590628 106.859375 20.934378 106.078125Q21.262503 105.28125 21.809378 104.890625Q22.356253 104.5 23.106253 104.34375Q23.606253 104.25 24.825003 104.25L31.200003 104.25L31.200003 106.015625L24.887503 106.015625Q23.809378 106.015625 23.278128 106.21875Q22.746878 106.421875 22.434378 106.953125Q22.121878 107.46875 22.121878 108.171875Q22.121878 109.296875 22.840628 110.109375Q23.543753 110.921875 25.528128 110.921875L31.200003 110.921875L31.200003 112.6875ZM28.106253 103.390625L27.825003 101.640625Q28.871878 101.5 29.434378 100.828125Q29.981253 100.15625 29.981253 98.953125Q29.981253 97.75 29.496878 97.171875Q28.996878 96.578125 28.340628 96.578125Q27.746878 96.578125 27.403128 97.09375Q27.168753 97.453125 26.809378 98.890625Q26.309378 100.828125 25.965628 101.578125Q25.606253 102.3125 24.981253 102.703125Q24.340628 103.09375 23.575003 103.09375Q22.887503 103.09375 22.293753 102.78125Q21.700003 102.453125 21.309378 101.90625Q21.012503 101.5 20.809378 100.796875Q20.590628 100.078125 20.590628 99.265625Q20.590628 98.046875 20.950003 97.125Q21.293753 96.203125 21.903128 95.765625Q22.496878 95.328125 23.496878 95.15625L23.731253 96.875Q22.934378 97.0 22.496878 97.5625Q22.043753 98.125 22.043753 99.140625Q22.043753 100.359375 22.450003 100.875Q22.840628 101.390625 23.371878 101.390625Q23.715628 101.390625 23.996878 101.171875Q24.278128 100.96875 24.465628 100.5Q24.559378 100.234375 24.903128 98.953125Q25.403128 97.078125 25.731253 96.34375Q26.043753 95.609375 26.653128 95.1875Q27.246878 94.765625 28.153128 94.765625Q29.028128 94.765625 29.809378 95.28125Q30.590628 95.796875 31.012503 96.765625Q31.434378 97.734375 31.434378 98.953125Q31.434378 100.96875 30.590628 102.03125Q29.746878 103.09375 28.106253 103.390625ZM27.856253 85.578125L28.090628 83.765625Q29.668753 84.1875 30.559378 85.359375Q31.434378 86.515625 31.434378 88.328125Q31.434378 90.59375 30.043753 91.9375Q28.637503 93.265625 26.106253 93.265625Q23.481253 93.265625 22.043753 91.921875Q20.590628 90.578125 20.590628 88.421875Q20.590628 86.34375 22.012503 85.03125Q23.418753 83.703125 25.996878 83.703125Q26.153128 83.703125 26.465628 83.71875L26.465628 91.453125Q28.168753 91.359375 29.075003 90.484375Q29.981253 89.609375 29.981253 88.3125Q29.981253 87.34375 29.481253 86.671875Q28.965628 85.984375 27.856253 85.578125ZM25.012503 91.359375L25.012503 85.5625Q23.715628 85.671875 23.059378 86.21875Q22.043753 87.0625 22.043753 88.40625Q22.043753 89.609375 22.856253 90.4375Q23.653128 91.265625 25.012503 91.359375ZM28.106253 82.390625L27.825003 80.640625Q28.871878 80.5 29.434378 79.828125Q29.981253 79.15625 29.981253 77.953125Q29.981253 76.75 29.496878 76.171875Q28.996878 75.578125 28.340628 75.578125Q27.746878 75.578125 27.403128 76.09375Q27.168753 76.453125 26.809378 77.890625Q26.309378 79.828125 25.965628 80.578125Q25.606253 81.3125 24.981253 81.703125Q24.340628 82.09375 23.575003 82.09375Q22.887503 82.09375 22.293753 81.78125Q21.700003 81.453125 21.309378 80.90625Q21.012503 80.5 20.809378 79.796875Q20.590628 79.078125 20.590628 78.265625Q20.590628 77.046875 20.950003 76.125Q21.293753 75.203125 21.903128 74.765625Q22.496878 74.328125 23.496878 74.15625L23.731253 75.875Q22.934378 76.0 22.496878 76.5625Q22.043753 77.125 22.043753 78.140625Q22.043753 79.359375 22.450003 79.875Q22.840628 80.390625 23.371878 80.390625Q23.715628 80.390625 23.996878 80.171875Q24.278128 79.96875 24.465628 79.5Q24.559378 79.234375 24.903128 77.953125Q25.403128 76.078125 25.731253 75.34375Q26.043753 74.609375 26.653128 74.1875Q27.246878 73.765625 28.153128 73.765625Q29.028128 73.765625 29.809378 74.28125Q30.590628 74.796875 31.012503 75.765625Q31.434378 76.734375 31.434378 77.953125Q31.434378 79.96875 30.590628 81.03125Q29.746878 82.09375 28.106253 82.390625Z" fill-rule="nonzero"/><path fill="#000000" d="M113.2 149.83125Q113.2 146.78438 113.825 144.925Q114.45 143.06563 115.68437 142.06563Q116.91875 141.05 118.79375 141.05Q120.18437 141.05 121.21562 141.6125Q122.2625 142.15938 122.93437 143.20625Q123.62187 144.25313 124.0125 145.76875Q124.40312 147.26875 124.40312 149.83125Q124.40312 152.84688 123.77812 154.70625Q123.15312 156.56563 121.91875 157.58125Q120.68437 158.59688 118.79375 158.59688Q116.30937 158.59688 114.90312 156.81563Q113.2 154.65938 113.2 149.83125ZM115.37187 149.83125Q115.37187 154.05 116.35625 155.45625Q117.34062 156.8625 118.79375 156.8625Q120.24687 156.8625 121.23125 155.45625Q122.23125 154.05 122.23125 149.83125Q122.23125 145.58125 121.23125 144.19063Q120.24687 142.8 118.77812 142.8Q117.325 142.8 116.45 144.01875Q115.37187 145.59688 115.37187 149.83125Z" fill-rule="nonzero"/><path fill="#000000" d="M78.27812 114.902084L78.27812 116.933334L66.93437 116.933334Q66.90312 116.16771 67.16875 115.464584Q67.60625 114.308334 68.55937 113.183334Q69.5125 112.058334 71.325 110.57396Q74.12187 108.277084 75.10625 106.94896Q76.09062 105.60521 76.09062 104.402084Q76.09062 103.152084 75.18437 102.29271Q74.29375 101.433334 72.85625 101.433334Q71.34062 101.433334 70.41875 102.35521Q69.5125 103.26146 69.49687 104.870834L67.325 104.652084Q67.54375 102.23021 68.99687 100.964584Q70.45 99.683334 72.90312 99.683334Q75.37187 99.683334 76.80937 101.058334Q78.2625 102.41771 78.2625 104.44896Q78.2625 105.48021 77.84062 106.48021Q77.41875 107.48021 76.43437 108.589584Q75.46562 109.683334 73.18437 111.60521Q71.29375 113.19896 70.74687 113.76146Q70.21562 114.32396 69.85625 114.902084L78.27812 114.902084ZM81.34062 116.933334L81.34062 114.527084L83.73125 114.527084L83.73125 116.933334Q83.73125 118.26146 83.2625 119.07396Q82.79375 119.88646 81.77812 120.339584L81.2 119.433334Q81.85625 119.13646 82.16875 118.558334Q82.49687 117.995834 82.52812 116.933334L81.34062 116.933334ZM87.2 108.464584Q87.2 105.41771 87.825 103.558334Q88.45 101.69896 89.68437 100.69896Q90.91875 99.683334 92.79375 99.683334Q94.18437 99.683334 95.21562 100.245834Q96.2625 100.79271 96.93437 101.839584Q97.62187 102.88646 98.0125 104.402084Q98.40312 105.902084 98.40312 108.464584Q98.40312 111.48021 97.77812 113.339584Q97.15312 115.19896 95.91875 116.214584Q94.68437 117.23021 92.79375 117.23021Q90.30937 117.23021 88.90312 115.44896Q87.2 113.29271 87.2 108.464584ZM89.37187 108.464584Q89.37187 112.683334 90.35625 114.089584Q91.34062 115.495834 92.79375 115.495834Q94.24687 115.495834 95.23125 114.089584Q96.23125 112.683334 96.23125 108.464584Q96.23125 104.214584 95.23125 102.82396Q94.24687 101.433334 92.77812 101.433334Q91.325 101.433334 90.45 102.652084Q89.37187 104.23021 89.37187 108.464584ZM100.2 108.464584Q100.2 105.41771 100.825 103.558334Q101.45 101.69896 102.68437 100.69896Q103.91875 99.683334 105.79375 99.683334Q107.18437 99.683334 108.21562 100.245834Q109.2625 100.79271 109.93437 101.839584Q110.62187 102.88646 111.0125 104.402084Q111.40312 105.902084 111.40312 108.464584Q111.40312 111.48021 110.77812 113.339584Q110.15312 115.19896 108.91875 116.214584Q107.68437 117.23021 105.79375 117.23021Q103.30937 117.23021 101.90312 115.44896Q100.2 113.29271 100.2 108.464584ZM102.37187 108.464584Q102.37187 112.683334 103.35625 114.089584Q104.34062 115.495834 105.79375 115.495834Q107.24687 115.495834 108.23125 114.089584Q109.23125 112.683334 109.23125 108.464584Q109.23125 104.214584 108.23125 102.82396Q107.24687 101.433334 105.77812 101.433334Q104.325 101.433334 103.45 102.652084Q102.37187 104.23021 102.37187 108.464584ZM113.2 108.464584Q113.2 105.41771 113.825 103.558334Q114.45 101.69896 115.68437 100.69896Q116.91875 99.683334 118.79375 99.683334Q120.18437 99.683334 121.21562 100.245834Q122.2625 100.79271 122.93437 101.839584Q123.62187 102.88646 124.0125 104.402084Q124.40312 105.902084 124.40312 108.464584Q124.40312 111.48021 123.77812 113.339584Q123.15312 115.19896 121.91875 116.214584Q120.68437 117.23021 118.79375 117.23021Q116.30937 117.23021 114.90312 115.44896Q113.2 113.29271 113.2 108.464584ZM115.37187 108.464584Q115.37187 112.683334 116.35625 114.089584Q117.34062 115.495834 118.79375 115.495834Q120.24687 115.495834 121.23125 114.089584Q122.23125 112.683334 122.23125 108.464584Q122.23125 104.214584 121.23125 102.82396Q120.24687 101.433334 118.77812 101.433334Q117.325 101.433334 116.45 102.652084Q115.37187 104.23021 115.37187 108.464584Z" fill-rule="nonzero"/><path fill="#000000" d="M73.96562 75.566666L73.96562 71.45729L66.5125 71.45729L66.5125 69.51979L74.34062 58.379166L76.075 58.379166L76.075 69.51979L78.3875 69.51979L78.3875 71.45729L76.075 71.45729L76.075 75.566666L73.96562 75.566666ZM73.96562 69.51979L73.96562 61.76979L68.575 69.51979L73.96562 69.51979ZM81.34062 75.566666L81.34062 73.160416L83.73125 73.160416L83.73125 75.566666Q83.73125 76.89479 83.2625 77.70729Q82.79375 78.51979 81.77812 78.972916L81.2 78.066666Q81.85625 77.76979 82.16875 77.191666Q82.49687 76.629166 82.52812 75.566666L81.34062 75.566666ZM87.2 67.097916Q87.2 64.05104 87.825 62.191666Q88.45 60.33229 89.68437 59.33229Q90.91875 58.316666 92.79375 58.316666Q94.18437 58.316666 95.21562 58.879166Q96.2625 59.42604 96.93437 60.472916Q97.62187 61.51979 98.0125 63.035416Q98.40312 64.535416 98.40312 67.097916Q98.40312 70.11354 97.77812 71.972916Q97.15312 73.83229 95.91875 74.847916Q94.68437 75.86354 92.79375 75.86354Q90.30937 75.86354 88.90312 74.08229Q87.2 71.92604 87.2 67.097916ZM89.37187 67.097916Q89.37187 71.316666 90.35625 72.722916Q91.34062 74.129166 92.79375 74.129166Q94.24687 74.129166 95.23125 72.722916Q96.23125 71.316666 96.23125 67.097916Q96.23125 62.847916 95.23125 61.45729Q94.24687 60.066666 92.77812 60.066666Q91.325 60.066666 90.45 61.285416Q89.37187 62.86354 89.37187 67.097916ZM100.2 67.097916Q100.2 64.05104 100.825 62.191666Q101.45 60.33229 102.68437 59.33229Q103.91875 58.316666 105.79375 58.316666Q107.18437 58.316666 108.21562 58.879166Q109.2625 59.42604 109.93437 60.472916Q110.62187 61.51979 111.0125 63.035416Q111.40312 64.535416 111.40312 67.097916Q111.40312 70.11354 110.77812 71.972916Q110.15312 73.83229 108.91875 74.847916Q107.68437 75.86354 105.79375 75.86354Q103.30937 75.86354 101.90312 74.08229Q100.2 71.92604 100.2 67.097916ZM102.37187 67.097916Q102.37187 71.316666 103.35625 72.722916Q104.34062 74.129166 105.79375 74.129166Q107.24687 74.129166 108.23125 72.722916Q109.23125 71.316666 109.23125 67.097916Q109.23125 62.847916 108.23125 61.45729Q107.24687 60.066666 105.77812 60.066666Q104.325 60.066666 103.45 61.285416Q102.37187 62.86354 102.37187 67.097916ZM113.2 67.097916Q113.2 64.05104 113.825 62.191666Q114.45 60.33229 115.68437 59.33229Q116.91875 58.316666 118.79375 58.316666Q120.18437 58.316666 121.21562 58.879166Q122.2625 59.42604 122.93437 60.472916Q123.62187 61.51979 124.0125 63.035416Q124.40312 64.535416 124.40312 67.097916Q124.40312 70.11354 123.77812 71.972916Q123.15312 73.83229 121.91875 74.847916Q120.68437 75.86354 118.79375 75.86354Q116.30937 75.86354 114.90312 74.08229Q113.2 71.92604 113.2 67.097916ZM115.37187 67.097916Q115.37187 71.316666 116.35625 72.722916Q117.34062 74.129166 118.79375 74.129166Q120.24687 74.129166 121.23125 72.722916Q122.23125 71.316666 122.23125 67.097916Q122.23125 62.847916 121.23125 61.45729Q120.24687 60.066666 118.77812 60.066666Q117.325 60.066666 116.45 61.285416Q115.37187 62.86354 115.37187 67.097916Z" fill-rule="nonzero"/><path fill="#000000" d="M78.1375 21.23125L76.04375 21.3875Q75.7625 20.153126 75.24687 19.590626Q74.3875 18.684376 73.1375 18.684376Q72.1375 18.684376 71.37187 19.246876Q70.37187 19.965626 69.79375 21.371876Q69.23125 22.7625 69.2 25.340626Q69.96562 24.184376 71.05937 23.621876Q72.16875 23.059376 73.37187 23.059376Q75.48125 23.059376 76.96562 24.60625Q78.45 26.153126 78.45 28.621876Q78.45 30.23125 77.74687 31.621876Q77.05937 33.0125 75.84062 33.7625Q74.62187 34.496876 73.075 34.496876Q70.43437 34.496876 68.7625 32.559376Q67.10625 30.60625 67.10625 26.153126Q67.10625 21.184376 68.95 18.91875Q70.54375 16.95 73.2625 16.95Q75.29375 16.95 76.59062 18.090626Q77.8875 19.215626 78.1375 21.23125ZM69.52812 28.6375Q69.52812 29.715626 69.98125 30.715626Q70.45 31.715626 71.27812 32.246876Q72.12187 32.7625 73.02812 32.7625Q74.37187 32.7625 75.325 31.684376Q76.29375 30.60625 76.29375 28.746876Q76.29375 26.965626 75.34062 25.95Q74.3875 24.91875 72.95 24.91875Q71.52812 24.91875 70.52812 25.95Q69.52812 26.965626 69.52812 28.6375ZM81.34062 34.2L81.34062 31.79375L83.73125 31.79375L83.73125 34.2Q83.73125 35.528126 83.2625 36.340626Q82.79375 37.153126 81.77812 37.60625L81.2 36.7Q81.85625 36.403126 82.16875 35.825Q82.49687 35.2625 82.52812 34.2L81.34062 34.2ZM87.2 25.73125Q87.2 22.684376 87.825 20.825Q88.45 18.965626 89.68437 17.965626Q90.91875 16.95 92.79375 16.95Q94.18437 16.95 95.21562 17.5125Q96.2625 18.059376 96.93437 19.10625Q97.62187 20.153126 98.0125 21.66875Q98.40312 23.16875 98.40312 25.73125Q98.40312 28.746876 97.77812 30.60625Q97.15312 32.465626 95.91875 33.48125Q94.68437 34.496876 92.79375 34.496876Q90.30937 34.496876 88.90312 32.715626Q87.2 30.559376 87.2 25.73125ZM89.37187 25.73125Q89.37187 29.95 90.35625 31.35625Q91.34062 32.7625 92.79375 32.7625Q94.24687 32.7625 95.23125 31.35625Q96.23125 29.95 96.23125 25.73125Q96.23125 21.48125 95.23125 20.090626Q94.24687 18.7 92.77812 18.7Q91.325 18.7 90.45 19.91875Q89.37187 21.496876 89.37187 25.73125ZM100.2 25.73125Q100.2 22.684376 100.825 20.825Q101.45 18.965626 102.68437 17.965626Q103.91875 16.95 105.79375 16.95Q107.18437 16.95 108.21562 17.5125Q109.2625 18.059376 109.93437 19.10625Q110.62187 20.153126 111.0125 21.66875Q111.40312 23.16875 111.40312 25.73125Q111.40312 28.746876 110.77812 30.60625Q110.15312 32.465626 108.91875 33.48125Q107.68437 34.496876 105.79375 34.496876Q103.30937 34.496876 101.90312 32.715626Q100.2 30.559376 100.2 25.73125ZM102.37187 25.73125Q102.37187 29.95 103.35625 31.35625Q104.34062 32.7625 105.79375 32.7625Q107.24687 32.7625 108.23125 31.35625Q109.23125 29.95 109.23125 25.73125Q109.23125 21.48125 108.23125 20.090626Q107.24687 18.7 105.77812 18.7Q104.325 18.7 103.45 19.91875Q102.37187 21.496876 102.37187 25.73125ZM113.2 25.73125Q113.2 22.684376 113.825 20.825Q114.45 18.965626 115.68437 17.965626Q116.91875 16.95 118.79375 16.95Q120.18437 16.95 121.21562 17.5125Q122.2625 18.059376 122.93437 19.10625Q123.62187 20.153126 124.0125 21.66875Q124.40312 23.16875 124.40312 25.73125Q124.40312 28.746876 123.77812 30.60625Q123.15312 32.465626 121.91875 33.48125Q120.68437 34.496876 118.79375 34.496876Q116.30937 34.496876 114.90312 32.715626Q113.2 30.559376 113.2 25.73125ZM115.37187 25.73125Q115.37187 29.95 116.35625 31.35625Q117.34062 32.7625 118.79375 32.7625Q120.24687 32.7625 121.23125 31.35625Q122.23125 29.95 122.23125 25.73125Q122.23125 21.48125 121.23125 20.090626Q120.24687 18.7 118.77812 18.7Q117.325 18.7 116.45 19.91875Q115.37187 21.496876 115.37187 25.73125Z" fill-rule="nonzero"/><path fill="#000000" d="M588.4982 196.97188L590.3732 196.8Q590.51385 197.94063 590.9982 198.65938Q591.4826 199.37813 592.51385 199.83125Q593.5451 200.26875 594.82635 200.26875Q595.95135 200.26875 596.82635 199.94063Q597.70135 199.59688 598.1232 199.00313Q598.5607 198.40938 598.5607 197.72188Q598.5607 197.01875 598.13885 196.4875Q597.7326 195.95625 596.7951 195.59688Q596.1857 195.3625 594.1076 194.8625Q592.0451 194.3625 591.217 193.925Q590.13885 193.3625 589.6076 192.53438Q589.07635 191.69063 589.07635 190.65938Q589.07635 189.51875 589.717 188.53438Q590.3732 187.53438 591.6076 187.03438Q592.8576 186.51875 594.3732 186.51875Q596.0451 186.51875 597.3107 187.05Q598.592 187.58125 599.2795 188.62813Q599.967 189.675 600.01385 191.00313L598.1076 191.14375Q597.95135 189.72188 597.0607 189.00313Q596.1857 188.26875 594.45135 188.26875Q592.6545 188.26875 591.82635 188.925Q590.9982 189.58125 590.9982 190.51875Q590.9982 191.33125 591.57635 191.84688Q592.1545 192.37813 594.57635 192.925Q596.9982 193.47188 597.9045 193.87813Q599.217 194.4875 599.842 195.425Q600.467 196.34688 600.467 197.55Q600.467 198.75313 599.7795 199.81563Q599.092 200.87813 597.8107 201.47188Q596.5295 202.05 594.9201 202.05Q592.8732 202.05 591.4826 201.45625Q590.1076 200.8625 589.32635 199.675Q588.5451 198.47188 588.4982 196.97188ZM606.9826 200.14375L607.2482 201.78438Q606.467 201.94063 605.842 201.94063Q604.842 201.94063 604.2795 201.62813Q603.7326 201.3 603.4982 200.78438Q603.2795 200.26875 603.2795 198.6125L603.2795 192.34688L601.9357 192.34688L601.9357 190.90938L603.2795 190.90938L603.2795 188.20625L605.1232 187.1125L605.1232 190.90938L606.9826 190.90938L606.9826 192.34688L605.1232 192.34688L605.1232 198.70625Q605.1232 199.50313 605.217 199.7375Q605.3107 199.95625 605.5295 200.09688Q605.7482 200.22188 606.1701 200.22188Q606.467 200.22188 606.9826 200.14375ZM608.9201 201.8L608.9201 190.90938L610.592 190.90938L610.592 192.56563Q611.217 191.40938 611.7482 191.03438Q612.2951 190.65938 612.95135 190.65938Q613.8732 190.65938 614.842 191.25313L614.20135 192.97188Q613.5295 192.56563 612.8576 192.56563Q612.2482 192.56563 611.76385 192.94063Q611.2795 193.3 611.07635 193.94063Q610.76385 194.925 610.76385 196.09688L610.76385 201.8L608.9201 201.8ZM615.26385 196.3625Q615.26385 193.33125 616.9357 191.87813Q618.342 190.65938 620.3576 190.65938Q622.6076 190.65938 624.0295 192.14375Q625.467 193.6125 625.467 196.20625Q625.467 198.3 624.82635 199.50313Q624.20135 200.70625 622.9982 201.37813Q621.7951 202.05 620.3576 202.05Q618.07635 202.05 616.6701 200.58125Q615.26385 199.1125 615.26385 196.3625ZM617.1545 196.3625Q617.1545 198.44063 618.0607 199.4875Q618.9826 200.53438 620.3576 200.53438Q621.7326 200.53438 622.63885 199.4875Q623.5607 198.44063 623.5607 196.3Q623.5607 194.26875 622.63885 193.2375Q621.7326 192.19063 620.3576 192.19063Q618.9826 192.19063 618.0607 193.2375Q617.1545 194.26875 617.1545 196.3625ZM627.95135 201.8L627.95135 190.90938L629.6076 190.90938L629.6076 192.45625Q630.8107 190.65938 633.07635 190.65938Q634.0607 190.65938 634.8732 191.01875Q635.70135 191.37813 636.1076 191.95625Q636.5295 192.51875 636.6857 193.31563Q636.7951 193.81563 636.7951 195.09688L636.7951 201.8L634.95135 201.8L634.95135 195.175Q634.95135 194.05 634.7326 193.4875Q634.51385 192.925 633.967 192.59688Q633.4201 192.26875 632.6857 192.26875Q631.4982 192.26875 630.63885 193.01875Q629.7951 193.75313 629.7951 195.84688L629.7951 201.8L627.95135 201.8ZM638.6076 202.70625L640.4045 202.97188Q640.51385 203.8 641.0295 204.175Q641.717 204.69063 642.9045 204.69063Q644.1857 204.69063 644.8732 204.175Q645.57635 203.65938 645.82635 202.7375Q645.967 202.175 645.95135 200.37813Q644.7482 201.8 642.95135 201.8Q640.70135 201.8 639.467 200.19063Q638.2326 198.56563 638.2326 196.3Q638.2326 194.7375 638.7951 193.425Q639.3732 192.09688 640.4357 191.37813Q641.51385 190.65938 642.95135 190.65938Q644.88885 190.65938 646.13885 192.22188L646.13885 190.90938L647.842 190.90938L647.842 200.31563Q647.842 202.8625 647.3107 203.925Q646.7951 204.9875 645.6701 205.59688Q644.5607 206.22188 642.9201 206.22188Q640.967 206.22188 639.76385 205.34688Q638.5607 204.47188 638.6076 202.70625ZM640.13885 196.15938Q640.13885 198.3 640.9826 199.28438Q641.842 200.26875 643.1232 200.26875Q644.38885 200.26875 645.2482 199.3Q646.1076 198.31563 646.1076 196.22188Q646.1076 194.22188 645.217 193.20625Q644.342 192.19063 643.092 192.19063Q641.8576 192.19063 640.9982 193.19063Q640.13885 194.19063 640.13885 196.15938ZM649.9045 201.8L649.9045 186.76875L651.7482 186.76875L651.7482 201.8L649.9045 201.8ZM653.8576 205.9875L653.6545 204.26875Q654.26385 204.425 654.717 204.425Q655.32635 204.425 655.6857 204.22188Q656.0607 204.01875 656.3107 203.64375Q656.4826 203.3625 656.8732 202.26875Q656.9201 202.1125 657.0295 201.81563L652.9045 190.90938L654.88885 190.90938L657.1545 197.22188Q657.592 198.40938 657.95135 199.7375Q658.26385 198.47188 658.70135 197.25313L661.0295 190.90938L662.8732 190.90938L658.7326 201.9875Q658.0607 203.78438 657.70135 204.45625Q657.20135 205.3625 656.5607 205.78438Q655.9357 206.22188 655.0451 206.22188Q654.51385 206.22188 653.8576 205.9875Z" fill-rule="nonzero"/><path fill="#000000" d="M598.0295 226.8L603.8107 211.76875L605.95135 211.76875L612.092 226.8L609.82635 226.8L608.07635 222.25313L601.7951 222.25313L600.13885 226.8L598.0295 226.8ZM602.3732 220.62813L607.467 220.62813L605.88885 216.45625Q605.1701 214.56563 604.82635 213.34688Q604.5451 214.8 604.01385 216.22188L602.3732 220.62813ZM612.1076 227.70625L613.9045 227.97188Q614.01385 228.8 614.5295 229.175Q615.217 229.69063 616.4045 229.69063Q617.6857 229.69063 618.3732 229.175Q619.07635 228.65938 619.32635 227.7375Q619.467 227.175 619.45135 225.37813Q618.2482 226.8 616.45135 226.8Q614.20135 226.8 612.967 225.19063Q611.7326 223.56563 611.7326 221.3Q611.7326 219.7375 612.2951 218.425Q612.8732 217.09688 613.9357 216.37813Q615.01385 215.65938 616.45135 215.65938Q618.38885 215.65938 619.63885 217.22188L619.63885 215.90938L621.342 215.90938L621.342 225.31563Q621.342 227.8625 620.8107 228.925Q620.2951 229.9875 619.1701 230.59688Q618.0607 231.22188 616.4201 231.22188Q614.467 231.22188 613.26385 230.34688Q612.0607 229.47188 612.1076 227.70625ZM613.63885 221.15938Q613.63885 223.3 614.4826 224.28438Q615.342 225.26875 616.6232 225.26875Q617.88885 225.26875 618.7482 224.3Q619.6076 223.31563 619.6076 221.22188Q619.6076 219.22188 618.717 218.20625Q617.842 217.19063 616.592 217.19063Q615.3576 217.19063 614.4982 218.19063Q613.63885 219.19063 613.63885 221.15938ZM623.4201 226.8L623.4201 215.90938L625.092 215.90938L625.092 217.56563Q625.717 216.40938 626.2482 216.03438Q626.7951 215.65938 627.45135 215.65938Q628.3732 215.65938 629.342 216.25313L628.70135 217.97188Q628.0295 217.56563 627.3576 217.56563Q626.7482 217.56563 626.26385 217.94063Q625.7795 218.3 625.57635 218.94063Q625.26385 219.925 625.26385 221.09688L625.26385 226.8L623.4201 226.8ZM637.9045 223.3L639.8107 223.53438Q639.3576 225.20625 638.13885 226.12813Q636.9201 227.05 635.01385 227.05Q632.6232 227.05 631.217 225.58125Q629.82635 224.09688 629.82635 221.44063Q629.82635 218.70625 631.2326 217.19063Q632.6545 215.65938 634.9201 215.65938Q637.1076 215.65938 638.4826 217.15938Q639.8732 218.64375 639.8732 221.33125Q639.8732 221.50313 639.8576 221.83125L631.7326 221.83125Q631.842 223.62813 632.7482 224.58125Q633.6701 225.53438 635.0295 225.53438Q636.0451 225.53438 636.76385 225.00313Q637.4826 224.45625 637.9045 223.3ZM631.842 220.31563L637.9201 220.31563Q637.7951 218.94063 637.217 218.25313Q636.342 217.175 634.9357 217.175Q633.6701 217.175 632.7951 218.03438Q631.9357 218.87813 631.842 220.31563ZM649.9045 223.3L651.8107 223.53438Q651.3576 225.20625 650.13885 226.12813Q648.9201 227.05 647.01385 227.05Q644.6232 227.05 643.217 225.58125Q641.82635 224.09688 641.82635 221.44063Q641.82635 218.70625 643.2326 217.19063Q644.6545 215.65938 646.9201 215.65938Q649.1076 215.65938 650.4826 217.15938Q651.8732 218.64375 651.8732 221.33125Q651.8732 221.50313 651.8576 221.83125L643.7326 221.83125Q643.842 223.62813 644.7482 224.58125Q645.6701 225.53438 647.0295 225.53438Q648.0451 225.53438 648.76385 225.00313Q649.4826 224.45625 649.9045 223.3ZM643.842 220.31563L649.9201 220.31563Q649.7951 218.94063 649.217 218.25313Q648.342 217.175 646.9357 217.175Q645.6701 217.175 644.7951 218.03438Q643.9357 218.87813 643.842 220.31563Z" fill-rule="nonzero"/><path fill="#000000" d="M491.7491 201.8L497.53036 186.76875L499.671 186.76875L505.8116 201.8L503.546 201.8L501.796 197.25313L495.51474 197.25313L493.8585 201.8L491.7491 201.8ZM496.09286 195.62813L501.1866 195.62813L499.6085 191.45625Q498.88974 189.56563 498.546 188.34688Q498.26474 189.8 497.7335 191.22188L496.09286 195.62813ZM505.82724 202.70625L507.6241 202.97188Q507.7335 203.8 508.2491 204.175Q508.9366 204.69063 510.1241 204.69063Q511.40536 204.69063 512.0929 204.175Q512.796 203.65938 513.046 202.7375Q513.18665 202.175 513.171 200.37813Q511.96786 201.8 510.171 201.8Q507.921 201.8 506.6866 200.19063Q505.45224 198.56563 505.45224 196.3Q505.45224 194.7375 506.01474 193.425Q506.59286 192.09688 507.65536 191.37813Q508.7335 190.65938 510.171 190.65938Q512.1085 190.65938 513.3585 192.22188L513.3585 190.90938L515.06165 190.90938L515.06165 200.31563Q515.06165 202.8625 514.5304 203.925Q514.0148 204.9875 512.8898 205.59688Q511.78036 206.22188 510.13974 206.22188Q508.1866 206.22188 506.9835 205.34688Q505.78036 204.47188 505.82724 202.70625ZM507.3585 196.15938Q507.3585 198.3 508.20224 199.28438Q509.0616 200.26875 510.34286 200.26875Q511.6085 200.26875 512.4679 199.3Q513.3273 198.31563 513.3273 196.22188Q513.3273 194.22188 512.43665 193.20625Q511.5616 192.19063 510.3116 192.19063Q509.07724 192.19063 508.21786 193.19063Q507.3585 194.19063 507.3585 196.15938ZM517.1398 201.8L517.1398 190.90938L518.81165 190.90938L518.81165 192.56563Q519.43665 191.40938 519.9679 191.03438Q520.5148 190.65938 521.171 190.65938Q522.0929 190.65938 523.06165 191.25313L522.421 192.97188Q521.74915 192.56563 521.0773 192.56563Q520.4679 192.56563 519.9835 192.94063Q519.49915 193.3 519.296 193.94063Q518.9835 194.925 518.9835 196.09688L518.9835 201.8L517.1398 201.8ZM531.62415 198.3L533.5304 198.53438Q533.0773 200.20625 531.8585 201.12813Q530.6398 202.05 528.7335 202.05Q526.3429 202.05 524.93665 200.58125Q523.546 199.09688 523.546 196.44063Q523.546 193.70625 524.9523 192.19063Q526.37415 190.65938 528.6398 190.65938Q530.8273 190.65938 532.2023 192.15938Q533.5929 193.64375 533.5929 196.33125Q533.5929 196.50313 533.5773 196.83125L525.4523 196.83125Q525.56165 198.62813 526.4679 199.58125Q527.3898 200.53438 528.74915 200.53438Q529.7648 200.53438 530.4835 200.00313Q531.2023 199.45625 531.62415 198.3ZM525.56165 195.31563L531.6398 195.31563Q531.5148 193.94063 530.93665 193.25313Q530.06165 192.175 528.6554 192.175Q527.3898 192.175 526.5148 193.03438Q525.6554 193.87813 525.56165 195.31563ZM543.62415 198.3L545.5304 198.53438Q545.0773 200.20625 543.8585 201.12813Q542.6398 202.05 540.7335 202.05Q538.3429 202.05 536.93665 200.58125Q535.546 199.09688 535.546 196.44063Q535.546 193.70625 536.9523 192.19063Q538.37415 190.65938 540.6398 190.65938Q542.8273 190.65938 544.2023 192.15938Q545.5929 193.64375 545.5929 196.33125Q545.5929 196.50313 545.5773 196.83125L537.4523 196.83125Q537.56165 198.62813 538.4679 199.58125Q539.3898 200.53438 540.74915 200.53438Q541.7648 200.53438 542.4835 200.00313Q543.2023 199.45625 543.62415 198.3ZM537.56165 195.31563L543.6398 195.31563Q543.5148 193.94063 542.93665 193.25313Q542.06165 192.175 540.6554 192.175Q539.3898 192.175 538.5148 193.03438Q537.6554 193.87813 537.56165 195.31563Z" fill-rule="nonzero"/><path fill="#000000" d="M381.59375 201.8L381.59375 186.76875L383.64062 186.76875L391.53125 198.56563L391.53125 186.76875L393.4375 186.76875L393.4375 201.8L391.40625 201.8L383.5 189.9875L383.5 201.8L381.59375 201.8ZM402.84375 198.3L404.75 198.53438Q404.29688 200.20625 403.07812 201.12813Q401.85938 202.05 399.95312 202.05Q397.5625 202.05 396.15625 200.58125Q394.76562 199.09688 394.76562 196.44063Q394.76562 193.70625 396.17188 192.19063Q397.59375 190.65938 399.85938 190.65938Q402.04688 190.65938 403.42188 192.15938Q404.8125 193.64375 404.8125 196.33125Q404.8125 196.50313 404.79688 196.83125L396.67188 196.83125Q396.78125 198.62813 397.6875 199.58125Q398.60938 200.53438 399.96875 200.53438Q400.98438 200.53438 401.70312 200.00313Q402.42188 199.45625 402.84375 198.3ZM396.78125 195.31563L402.85938 195.31563Q402.73438 193.94063 402.15625 193.25313Q401.28125 192.175 399.875 192.175Q398.60938 192.175 397.73438 193.03438Q396.875 193.87813 396.78125 195.31563ZM414.51562 201.8L414.51562 200.20625Q413.25 202.05 411.0625 202.05Q410.10938 202.05 409.26562 201.675Q408.4375 201.3 408.03125 200.75313Q407.625 200.19063 407.45312 199.37813Q407.34375 198.83125 407.34375 197.65938L407.34375 190.90938L409.1875 190.90938L409.1875 196.95625Q409.1875 198.39375 409.29688 198.89375Q409.46875 199.62813 410.03125 200.05Q410.60938 200.45625 411.4375 200.45625Q412.26562 200.45625 412.98438 200.03438Q413.71875 199.6125 414.01562 198.87813Q414.32812 198.14375 414.32812 196.7375L414.32812 190.90938L416.17188 190.90938L416.17188 201.8L414.51562 201.8ZM422.42188 200.14375L422.6875 201.78438Q421.90625 201.94063 421.28125 201.94063Q420.28125 201.94063 419.71875 201.62813Q419.17188 201.3 418.9375 200.78438Q418.71875 200.26875 418.71875 198.6125L418.71875 192.34688L417.375 192.34688L417.375 190.90938L418.71875 190.90938L418.71875 188.20625L420.5625 187.1125L420.5625 190.90938L422.42188 190.90938L422.42188 192.34688L420.5625 192.34688L420.5625 198.70625Q420.5625 199.50313 420.65625 199.7375Q420.75 199.95625 420.96875 200.09688Q421.1875 200.22188 421.60938 200.22188Q421.90625 200.22188 422.42188 200.14375ZM424.35938 201.8L424.35938 190.90938L426.03125 190.90938L426.03125 192.56563Q426.65625 191.40938 427.1875 191.03438Q427.73438 190.65938 428.39062 190.65938Q429.3125 190.65938 430.28125 191.25313L429.64062 192.97188Q428.96875 192.56563 428.29688 192.56563Q427.6875 192.56563 427.20312 192.94063Q426.71875 193.3 426.51562 193.94063Q426.20312 194.925 426.20312 196.09688L426.20312 201.8L424.35938 201.8ZM438.48438 200.45625Q437.46875 201.33125 436.51562 201.69063Q435.5625 202.05 434.48438 202.05Q432.6875 202.05 431.71875 201.175Q430.76562 200.3 430.76562 198.925Q430.76562 198.12813 431.125 197.47188Q431.48438 196.8 432.07812 196.40938Q432.67188 196.00313 433.40625 195.8Q433.95312 195.65938 435.04688 195.51875Q437.28125 195.25313 438.34375 194.89375Q438.34375 194.50313 438.34375 194.40938Q438.34375 193.28438 437.82812 192.81563Q437.10938 192.19063 435.71875 192.19063Q434.42188 192.19063 433.79688 192.64375Q433.17188 193.09688 432.875 194.26875L431.07812 194.01875Q431.32812 192.8625 431.89062 192.15938Q432.45312 191.44063 433.51562 191.05Q434.57812 190.65938 435.98438 190.65938Q437.39062 190.65938 438.25 190.9875Q439.125 191.31563 439.53125 191.81563Q439.95312 192.31563 440.10938 193.08125Q440.20312 193.55 440.20312 194.76875L440.20312 197.2375Q440.20312 199.81563 440.3125 200.50313Q440.4375 201.175 440.78125 201.8L438.85938 201.8Q438.57812 201.22188 438.48438 200.45625ZM438.34375 196.33125Q437.32812 196.7375 435.32812 197.03438Q434.1875 197.19063 433.70312 197.40938Q433.23438 197.6125 432.98438 198.00313Q432.73438 198.39375 432.73438 198.87813Q432.73438 199.6125 433.28125 200.1125Q433.84375 200.59688 434.92188 200.59688Q435.98438 200.59688 436.8125 200.12813Q437.65625 199.65938 438.04688 198.8625Q438.34375 198.2375 438.34375 197.01875L438.34375 196.33125ZM443.34375 201.8L443.34375 186.76875L445.1875 186.76875L445.1875 201.8L443.34375 201.8Z" fill-rule="nonzero"/><path fill="#000000" d="M265.84464 201.8L265.84464 186.76875L271.0165 186.76875Q272.7665 186.76875 273.6884 186.9875Q274.98526 187.28438 275.8915 188.06563Q277.09464 189.06563 277.67276 190.62813Q278.2665 192.19063 278.2665 194.20625Q278.2665 195.90938 277.86026 197.2375Q277.46964 198.56563 276.84464 199.44063Q276.21964 200.3 275.46964 200.8Q274.73526 201.28438 273.67276 201.55Q272.6259 201.8 271.2665 201.8L265.84464 201.8ZM267.829 200.01875L271.03214 200.01875Q272.53214 200.01875 273.3759 199.75313Q274.21964 199.47188 274.71964 198.97188Q275.42276 198.26875 275.8134 197.08125Q276.21964 195.87813 276.21964 194.175Q276.21964 191.81563 275.4384 190.55Q274.67276 189.28438 273.5634 188.84688Q272.7665 188.53438 270.98526 188.53438L267.829 188.53438L267.829 200.01875ZM280.61026 188.89375L280.61026 186.76875L282.454 186.76875L282.454 188.89375L280.61026 188.89375ZM280.61026 201.8L280.61026 190.90938L282.454 190.90938L282.454 201.8L280.61026 201.8ZM284.86026 198.55L286.6884 198.26875Q286.84464 199.3625 287.54776 199.95625Q288.2509 200.53438 289.5165 200.53438Q290.78214 200.53438 291.3915 200.01875Q292.0165 199.4875 292.0165 198.8Q292.0165 198.175 291.46964 197.81563Q291.09464 197.56563 289.579 197.19063Q287.54776 196.675 286.7665 196.3Q285.98526 195.925 285.579 195.26875Q285.17276 194.59688 285.17276 193.8Q285.17276 193.08125 285.5009 192.45625Q285.84464 191.83125 286.40714 191.425Q286.84464 191.1125 287.579 190.89375Q288.329 190.65938 289.1884 190.65938Q290.46964 190.65938 291.4384 191.03438Q292.40714 191.40938 292.86026 192.03438Q293.329 192.65938 293.5009 193.72188L291.6884 193.97188Q291.579 193.12813 290.98526 192.65938Q290.3915 192.175 289.3134 192.175Q288.04776 192.175 287.5009 192.59688Q286.954 193.01875 286.954 193.58125Q286.954 193.94063 287.1884 194.2375Q287.40714 194.53438 287.8915 194.72188Q288.17276 194.83125 289.5165 195.19063Q291.48526 195.72188 292.2509 196.05Q293.03214 196.37813 293.46964 197.01875Q293.90714 197.65938 293.90714 198.59688Q293.90714 199.51875 293.36026 200.34688Q292.829 201.15938 291.8134 201.6125Q290.79776 202.05 289.5165 202.05Q287.3915 202.05 286.28214 201.175Q285.17276 200.28438 284.86026 198.55ZM303.704 200.45625Q302.6884 201.33125 301.73526 201.69063Q300.78214 202.05 299.704 202.05Q297.90714 202.05 296.9384 201.175Q295.98526 200.3 295.98526 198.925Q295.98526 198.12813 296.34464 197.47188Q296.704 196.8 297.29776 196.40938Q297.8915 196.00313 298.6259 195.8Q299.17276 195.65938 300.2665 195.51875Q302.5009 195.25313 303.5634 194.89375Q303.5634 194.50313 303.5634 194.40938Q303.5634 193.28438 303.04776 192.81563Q302.329 192.19063 300.9384 192.19063Q299.6415 192.19063 299.0165 192.64375Q298.3915 193.09688 298.09464 194.26875L296.29776 194.01875Q296.54776 192.8625 297.11026 192.15938Q297.67276 191.44063 298.73526 191.05Q299.79776 190.65938 301.204 190.65938Q302.61026 190.65938 303.46964 190.9875Q304.34464 191.31563 304.7509 191.81563Q305.17276 192.31563 305.329 193.08125Q305.42276 193.55 305.42276 194.76875L305.42276 197.2375Q305.42276 199.81563 305.53214 200.50313Q305.65714 201.175 306.0009 201.8L304.079 201.8Q303.79776 201.22188 303.704 200.45625ZM303.5634 196.33125Q302.54776 196.7375 300.54776 197.03438Q299.40714 197.19063 298.92276 197.40938Q298.454 197.6125 298.204 198.00313Q297.954 198.39375 297.954 198.87813Q297.954 199.6125 298.5009 200.1125Q299.0634 200.59688 300.1415 200.59688Q301.204 200.59688 302.03214 200.12813Q302.8759 199.65938 303.2665 198.8625Q303.5634 198.2375 303.5634 197.01875L303.5634 196.33125ZM308.2665 202.70625L310.0634 202.97188Q310.17276 203.8 310.6884 204.175Q311.3759 204.69063 312.5634 204.69063Q313.84464 204.69063 314.53214 204.175Q315.23526 203.65938 315.48526 202.7375Q315.6259 202.175 315.61026 200.37813Q314.40714 201.8 312.61026 201.8Q310.36026 201.8 309.1259 200.19063Q307.8915 198.56563 307.8915 196.3Q307.8915 194.7375 308.454 193.425Q309.03214 192.09688 310.09464 191.37813Q311.17276 190.65938 312.61026 190.65938Q314.54776 190.65938 315.79776 192.22188L315.79776 190.90938L317.5009 190.90938L317.5009 200.31563Q317.5009 202.8625 316.96964 203.925Q316.454 204.9875 315.329 205.59688Q314.21964 206.22188 312.579 206.22188Q310.6259 206.22188 309.42276 205.34688Q308.21964 204.47188 308.2665 202.70625ZM309.79776 196.15938Q309.79776 198.3 310.6415 199.28438Q311.5009 200.26875 312.78214 200.26875Q314.04776 200.26875 314.90714 199.3Q315.7665 198.31563 315.7665 196.22188Q315.7665 194.22188 314.8759 193.20625Q314.0009 192.19063 312.7509 192.19063Q311.5165 192.19063 310.65714 193.19063Q309.79776 194.19063 309.79776 196.15938ZM319.579 201.8L319.579 190.90938L321.2509 190.90938L321.2509 192.56563Q321.8759 191.40938 322.40714 191.03438Q322.954 190.65938 323.61026 190.65938Q324.53214 190.65938 325.5009 191.25313L324.86026 192.97188Q324.1884 192.56563 323.5165 192.56563Q322.90714 192.56563 322.42276 192.94063Q321.9384 193.3 321.73526 193.94063Q321.42276 194.925 321.42276 196.09688L321.42276 201.8L319.579 201.8ZM334.0634 198.3L335.96964 198.53438Q335.5165 200.20625 334.29776 201.12813Q333.079 202.05 331.17276 202.05Q328.78214 202.05 327.3759 200.58125Q325.98526 199.09688 325.98526 196.44063Q325.98526 193.70625 327.3915 192.19063Q328.8134 190.65938 331.079 190.65938Q333.2665 190.65938 334.6415 192.15938Q336.03214 193.64375 336.03214 196.33125Q336.03214 196.50313 336.0165 196.83125L327.8915 196.83125Q328.0009 198.62813 328.90714 199.58125Q329.829 200.53438 331.1884 200.53438Q332.204 200.53438 332.92276 200.00313Q333.6415 199.45625 334.0634 198.3ZM328.0009 195.31563L334.079 195.31563Q333.954 193.94063 333.3759 193.25313Q332.5009 192.175 331.09464 192.175Q329.829 192.175 328.954 193.03438Q328.09464 193.87813 328.0009 195.31563ZM346.0634 198.3L347.96964 198.53438Q347.5165 200.20625 346.29776 201.12813Q345.079 202.05 343.17276 202.05Q340.78214 202.05 339.3759 200.58125Q337.98526 199.09688 337.98526 196.44063Q337.98526 193.70625 339.3915 192.19063Q340.8134 190.65938 343.079 190.65938Q345.2665 190.65938 346.6415 192.15938Q348.03214 193.64375 348.03214 196.33125Q348.03214 196.50313 348.0165 196.83125L339.8915 196.83125Q340.0009 198.62813 340.90714 199.58125Q341.829 200.53438 343.1884 200.53438Q344.204 200.53438 344.92276 200.00313Q345.6415 199.45625 346.0634 198.3ZM340.0009 195.31563L346.079 195.31563Q345.954 193.94063 345.3759 193.25313Q344.5009 192.175 343.09464 192.175Q341.829 192.175 340.954 193.03438Q340.09464 193.87813 340.0009 195.31563Z" fill-rule="nonzero"/><path fill="#000000" d="M163.37675 196.97188L165.25175 196.8Q165.39238 197.94063 165.87675 198.65938Q166.36113 199.37813 167.39238 199.83125Q168.42363 200.26875 169.70488 200.26875Q170.82988 200.26875 171.70488 199.94063Q172.57988 199.59688 173.00175 199.00313Q173.43925 198.40938 173.43925 197.72188Q173.43925 197.01875 173.01738 196.4875Q172.61113 195.95625 171.67363 195.59688Q171.06425 195.3625 168.98613 194.8625Q166.92363 194.3625 166.0955 193.925Q165.01738 193.3625 164.48613 192.53438Q163.95488 191.69063 163.95488 190.65938Q163.95488 189.51875 164.5955 188.53438Q165.25175 187.53438 166.48613 187.03438Q167.73613 186.51875 169.25175 186.51875Q170.92363 186.51875 172.18925 187.05Q173.4705 187.58125 174.158 188.62813Q174.8455 189.675 174.89238 191.00313L172.98613 191.14375Q172.82988 189.72188 171.93925 189.00313Q171.06425 188.26875 169.32988 188.26875Q167.533 188.26875 166.70488 188.925Q165.87675 189.58125 165.87675 190.51875Q165.87675 191.33125 166.45488 191.84688Q167.033 192.37813 169.45488 192.925Q171.87675 193.47188 172.783 193.87813Q174.0955 194.4875 174.7205 195.425Q175.3455 196.34688 175.3455 197.55Q175.3455 198.75313 174.658 199.81563Q173.9705 200.87813 172.68925 201.47188Q171.408 202.05 169.79863 202.05Q167.75175 202.05 166.36113 201.45625Q164.98613 200.8625 164.20488 199.675Q163.42363 198.47188 163.37675 196.97188ZM181.86113 200.14375L182.12675 201.78438Q181.3455 201.94063 180.7205 201.94063Q179.7205 201.94063 179.158 201.62813Q178.61113 201.3 178.37675 200.78438Q178.158 200.26875 178.158 198.6125L178.158 192.34688L176.81425 192.34688L176.81425 190.90938L178.158 190.90938L178.158 188.20625L180.00175 187.1125L180.00175 190.90938L181.86113 190.90938L181.86113 192.34688L180.00175 192.34688L180.00175 198.70625Q180.00175 199.50313 180.0955 199.7375Q180.18925 199.95625 180.408 200.09688Q180.62675 200.22188 181.04863 200.22188Q181.3455 200.22188 181.86113 200.14375ZM183.79863 201.8L183.79863 190.90938L185.4705 190.90938L185.4705 192.56563Q186.0955 191.40938 186.62675 191.03438Q187.17363 190.65938 187.82988 190.65938Q188.75175 190.65938 189.7205 191.25313L189.07988 192.97188Q188.408 192.56563 187.73613 192.56563Q187.12675 192.56563 186.64238 192.94063Q186.158 193.3 185.95488 193.94063Q185.64238 194.925 185.64238 196.09688L185.64238 201.8L183.79863 201.8ZM190.14238 196.3625Q190.14238 193.33125 191.81425 191.87813Q193.2205 190.65938 195.23613 190.65938Q197.48613 190.65938 198.908 192.14375Q200.3455 193.6125 200.3455 196.20625Q200.3455 198.3 199.70488 199.50313Q199.07988 200.70625 197.87675 201.37813Q196.67363 202.05 195.23613 202.05Q192.95488 202.05 191.54863 200.58125Q190.14238 199.1125 190.14238 196.3625ZM192.033 196.3625Q192.033 198.44063 192.93925 199.4875Q193.86113 200.53438 195.23613 200.53438Q196.61113 200.53438 197.51738 199.4875Q198.43925 198.44063 198.43925 196.3Q198.43925 194.26875 197.51738 193.2375Q196.61113 192.19063 195.23613 192.19063Q193.86113 192.19063 192.93925 193.2375Q192.033 194.26875 192.033 196.3625ZM202.82988 201.8L202.82988 190.90938L204.48613 190.90938L204.48613 192.45625Q205.68925 190.65938 207.95488 190.65938Q208.93925 190.65938 209.75175 191.01875Q210.57988 191.37813 210.98613 191.95625Q211.408 192.51875 211.56425 193.31563Q211.67363 193.81563 211.67363 195.09688L211.67363 201.8L209.82988 201.8L209.82988 195.175Q209.82988 194.05 209.61113 193.4875Q209.39238 192.925 208.8455 192.59688Q208.29863 192.26875 207.56425 192.26875Q206.37675 192.26875 205.51738 193.01875Q204.67363 193.75313 204.67363 195.84688L204.67363 201.8L202.82988 201.8ZM213.48613 202.70625L215.283 202.97188Q215.39238 203.8 215.908 204.175Q216.5955 204.69063 217.783 204.69063Q219.06425 204.69063 219.75175 204.175Q220.45488 203.65938 220.70488 202.7375Q220.8455 202.175 220.82988 200.37813Q219.62675 201.8 217.82988 201.8Q215.57988 201.8 214.3455 200.19063Q213.11113 198.56563 213.11113 196.3Q213.11113 194.7375 213.67363 193.425Q214.25175 192.09688 215.31425 191.37813Q216.39238 190.65938 217.82988 190.65938Q219.76738 190.65938 221.01738 192.22188L221.01738 190.90938L222.7205 190.90938L222.7205 200.31563Q222.7205 202.8625 222.18925 203.925Q221.67363 204.9875 220.54863 205.59688Q219.43925 206.22188 217.79863 206.22188Q215.8455 206.22188 214.64238 205.34688Q213.43925 204.47188 213.48613 202.70625ZM215.01738 196.15938Q215.01738 198.3 215.86113 199.28438Q216.7205 200.26875 218.00175 200.26875Q219.26738 200.26875 220.12675 199.3Q220.98613 198.31563 220.98613 196.22188Q220.98613 194.22188 220.0955 193.20625Q219.2205 192.19063 217.9705 192.19063Q216.73613 192.19063 215.87675 193.19063Q215.01738 194.19063 215.01738 196.15938ZM224.783 201.8L224.783 186.76875L226.62675 186.76875L226.62675 201.8L224.783 201.8ZM228.73613 205.9875L228.533 204.26875Q229.14238 204.425 229.5955 204.425Q230.20488 204.425 230.56425 204.22188Q230.93925 204.01875 231.18925 203.64375Q231.36113 203.3625 231.75175 202.26875Q231.79863 202.1125 231.908 201.81563L227.783 190.90938L229.76738 190.90938L232.033 197.22188Q232.4705 198.40938 232.82988 199.7375Q233.14238 198.47188 233.57988 197.25313L235.908 190.90938L237.75175 190.90938L233.61113 201.9875Q232.93925 203.78438 232.57988 204.45625Q232.07988 205.3625 231.43925 205.78438Q230.81425 206.22188 229.92363 206.22188Q229.39238 206.22188 228.73613 205.9875Z" fill-rule="nonzero"/><path fill="#000000" d="M159.56425 226.8L159.56425 211.76875L164.73613 211.76875Q166.48613 211.76875 167.408 211.9875Q168.70488 212.28438 169.61113 213.06563Q170.81425 214.06563 171.39238 215.62813Q171.98613 217.19063 171.98613 219.20625Q171.98613 220.90938 171.57988 222.2375Q171.18925 223.56563 170.56425 224.44063Q169.93925 225.3 169.18925 225.8Q168.45488 226.28438 167.39238 226.55Q166.3455 226.8 164.98613 226.8L159.56425 226.8ZM161.54863 225.01875L164.75175 225.01875Q166.25175 225.01875 167.0955 224.75313Q167.93925 224.47188 168.43925 223.97188Q169.14238 223.26875 169.533 222.08125Q169.93925 220.87813 169.93925 219.175Q169.93925 216.81563 169.158 215.55Q168.39238 214.28438 167.283 213.84688Q166.48613 213.53438 164.70488 213.53438L161.54863 213.53438L161.54863 225.01875ZM174.32988 213.89375L174.32988 211.76875L176.17363 211.76875L176.17363 213.89375L174.32988 213.89375ZM174.32988 226.8L174.32988 215.90938L176.17363 215.90938L176.17363 226.8L174.32988 226.8ZM178.57988 223.55L180.408 223.26875Q180.56425 224.3625 181.26738 224.95625Q181.9705 225.53438 183.23613 225.53438Q184.50175 225.53438 185.11113 225.01875Q185.73613 224.4875 185.73613 223.8Q185.73613 223.175 185.18925 222.81563Q184.81425 222.56563 183.29863 222.19063Q181.26738 221.675 180.48613 221.3Q179.70488 220.925 179.29863 220.26875Q178.89238 219.59688 178.89238 218.8Q178.89238 218.08125 179.2205 217.45625Q179.56425 216.83125 180.12675 216.425Q180.56425 216.1125 181.29863 215.89375Q182.04863 215.65938 182.908 215.65938Q184.18925 215.65938 185.158 216.03438Q186.12675 216.40938 186.57988 217.03438Q187.04863 217.65938 187.2205 218.72188L185.408 218.97188Q185.29863 218.12813 184.70488 217.65938Q184.11113 217.175 183.033 217.175Q181.76738 217.175 181.2205 217.59688Q180.67363 218.01875 180.67363 218.58125Q180.67363 218.94063 180.908 219.2375Q181.12675 219.53438 181.61113 219.72188Q181.89238 219.83125 183.23613 220.19063Q185.20488 220.72188 185.9705 221.05Q186.75175 221.37813 187.18925 222.01875Q187.62675 222.65938 187.62675 223.59688Q187.62675 224.51875 187.07988 225.34688Q186.54863 226.15938 185.533 226.6125Q184.51738 227.05 183.23613 227.05Q181.11113 227.05 180.00175 226.175Q178.89238 225.28438 178.57988 223.55ZM197.42363 225.45625Q196.408 226.33125 195.45488 226.69063Q194.50175 227.05 193.42363 227.05Q191.62675 227.05 190.658 226.175Q189.70488 225.3 189.70488 223.925Q189.70488 223.12813 190.06425 222.47188Q190.42363 221.8 191.01738 221.40938Q191.61113 221.00313 192.3455 220.8Q192.89238 220.65938 193.98613 220.51875Q196.2205 220.25313 197.283 219.89375Q197.283 219.50313 197.283 219.40938Q197.283 218.28438 196.76738 217.81563Q196.04863 217.19063 194.658 217.19063Q193.36113 217.19063 192.73613 217.64375Q192.11113 218.09688 191.81425 219.26875L190.01738 219.01875Q190.26738 217.8625 190.82988 217.15938Q191.39238 216.44063 192.45488 216.05Q193.51738 215.65938 194.92363 215.65938Q196.32988 215.65938 197.18925 215.9875Q198.06425 216.31563 198.4705 216.81563Q198.89238 217.31563 199.04863 218.08125Q199.14238 218.55 199.14238 219.76875L199.14238 222.2375Q199.14238 224.81563 199.25175 225.50313Q199.37675 226.175 199.7205 226.8L197.79863 226.8Q197.51738 226.22188 197.42363 225.45625ZM197.283 221.33125Q196.26738 221.7375 194.26738 222.03438Q193.12675 222.19063 192.64238 222.40938Q192.17363 222.6125 191.92363 223.00313Q191.67363 223.39375 191.67363 223.87813Q191.67363 224.6125 192.2205 225.1125Q192.783 225.59688 193.86113 225.59688Q194.92363 225.59688 195.75175 225.12813Q196.5955 224.65938 196.98613 223.8625Q197.283 223.2375 197.283 222.01875L197.283 221.33125ZM201.98613 227.70625L203.783 227.97188Q203.89238 228.8 204.408 229.175Q205.0955 229.69063 206.283 229.69063Q207.56425 229.69063 208.25175 229.175Q208.95488 228.65938 209.20488 227.7375Q209.3455 227.175 209.32988 225.37813Q208.12675 226.8 206.32988 226.8Q204.07988 226.8 202.8455 225.19063Q201.61113 223.56563 201.61113 221.3Q201.61113 219.7375 202.17363 218.425Q202.75175 217.09688 203.81425 216.37813Q204.89238 215.65938 206.32988 215.65938Q208.26738 215.65938 209.51738 217.22188L209.51738 215.90938L211.2205 215.90938L211.2205 225.31563Q211.2205 227.8625 210.68925 228.925Q210.17363 229.9875 209.04863 230.59688Q207.93925 231.22188 206.29863 231.22188Q204.3455 231.22188 203.14238 230.34688Q201.93925 229.47188 201.98613 227.70625ZM203.51738 221.15938Q203.51738 223.3 204.36113 224.28438Q205.2205 225.26875 206.50175 225.26875Q207.76738 225.26875 208.62675 224.3Q209.48613 223.31563 209.48613 221.22188Q209.48613 219.22188 208.5955 218.20625Q207.7205 217.19063 206.4705 217.19063Q205.23613 217.19063 204.37675 218.19063Q203.51738 219.19063 203.51738 221.15938ZM213.29863 226.8L213.29863 215.90938L214.9705 215.90938L214.9705 217.56563Q215.5955 216.40938 216.12675 216.03438Q216.67363 215.65938 217.32988 215.65938Q218.25175 215.65938 219.2205 216.25313L218.57988 217.97188Q217.908 217.56563 217.23613 217.56563Q216.62675 217.56563 216.14238 217.94063Q215.658 218.3 215.45488 218.94063Q215.14238 219.925 215.14238 221.09688L215.14238 226.8L213.29863 226.8ZM227.783 223.3L229.68925 223.53438Q229.23613 225.20625 228.01738 226.12813Q226.79863 227.05 224.89238 227.05Q222.50175 227.05 221.0955 225.58125Q219.70488 224.09688 219.70488 221.44063Q219.70488 218.70625 221.11113 217.19063Q222.533 215.65938 224.79863 215.65938Q226.98613 215.65938 228.36113 217.15938Q229.75175 218.64375 229.75175 221.33125Q229.75175 221.50313 229.73613 221.83125L221.61113 221.83125Q221.7205 223.62813 222.62675 224.58125Q223.54863 225.53438 224.908 225.53438Q225.92363 225.53438 226.64238 225.00313Q227.36113 224.45625 227.783 223.3ZM221.7205 220.31563L227.79863 220.31563Q227.67363 218.94063 227.0955 218.25313Q226.2205 217.175 224.81425 217.175Q223.54863 217.175 222.67363 218.03438Q221.81425 218.87813 221.7205 220.31563ZM239.783 223.3L241.68925 223.53438Q241.23613 225.20625 240.01738 226.12813Q238.79863 227.05 236.89238 227.05Q234.50175 227.05 233.0955 225.58125Q231.70488 224.09688 231.70488 221.44063Q231.70488 218.70625 233.11113 217.19063Q234.533 215.65938 236.79863 215.65938Q238.98613 215.65938 240.36113 217.15938Q241.75175 218.64375 241.75175 221.33125Q241.75175 221.50313 241.73613 221.83125L233.61113 221.83125Q233.7205 223.62813 234.62675 224.58125Q235.54863 225.53438 236.908 225.53438Q237.92363 225.53438 238.64238 225.00313Q239.36113 224.45625 239.783 223.3ZM233.7205 220.31563L239.79863 220.31563Q239.67363 218.94063 239.0955 218.25313Q238.2205 217.175 236.81425 217.175Q235.54863 217.175 234.67363 218.03438Q233.81425 218.87813 233.7205 220.31563Z" fill-rule="nonzero"/></svg>