<svg version="1.1" viewBox="0.0 0.0 960.0 540.0" fill="none" stroke="none" stroke-linecap="square" stroke-miterlimit="10" xmlns:xlink="http://www.w3.org/1999/xlink" xmlns="http://www.w3.org/2000/svg"><clipPath id="g2b03a33f976_0_0.0"><path d="m0 0l960.0 0l0 540.0l-960.0 0l0 -540.0z" clip-rule="nonzero"/></clipPath><g clip-path="url(#g2b03a33f976_0_0.0)"><path fill="#000000" fill-opacity="0.0" d="m0 0l960.0 0l0 540.0l-960.0 0z" fill-rule="evenodd"/><path fill="#000000" fill-opacity="0.0" d="m0 160.31233l960.0 0l0 64.031494l-960.0 0z" fill-rule="evenodd"/><path fill="#f05f40" d="m54.973633 206.89621q0 -3.484375 -2.46875 -5.34375q-2.453125 -1.875 -8.859375 -3.9375q-6.390625 -2.078125 -10.125 -4.09375q-10.171875 -5.484375 -10.171875 -14.796875q0 -4.84375 2.71875 -8.640625q2.734375 -3.796875 7.84375 -5.921875q5.109375 -2.140625 11.46875 -2.140625q6.390625 0 11.390625 2.328125q5.015625 2.3125 7.78125 6.546875q2.765625 4.21875 2.765625 9.59375l-12.296875 0q0 -4.109375 -2.59375 -6.375q-2.578125 -2.28125 -7.25 -2.28125q-4.515625 0 -7.015625 1.90625q-2.5 1.90625 -2.5 5.015625q0 2.921875 2.921875 4.890625q2.9375 1.96875 8.640625 3.6875q10.5 3.15625 15.296875 7.84375q4.796875 4.671875 4.796875 11.640625q0 7.75 -5.859375 12.171875q-5.859375 4.40625 -15.796875 4.40625q-6.890625 0 -12.546875 -2.515625q-5.65625 -2.53125 -8.640625 -6.921875q-2.96875 -4.390625 -2.96875 -10.171875l12.34375 0q0 9.875 11.8125 9.875q4.390625 0 6.84375 -1.78125q2.46875 -1.78125 2.46875 -4.984375zm65.62305 -34.078125l-18.28125 0l0 49.75l-12.3125 0l0 -49.75l-18.046875 0l0 -9.96875l48.640625 0l0 9.96875zm35.810547 37.4375l-21.578125 0l-4.09375 12.3125l-13.09375 0l22.234375 -59.71875l11.40625 0l22.359375 59.71875l-13.09375 0l-4.140625 -12.3125zm-18.25 -9.953125l14.921875 0l-7.5 -22.359375l-7.421875 22.359375zm87.43945 14.71875q-3.3125 3.984375 -9.390625 6.1875q-6.0625 2.1875 -13.453125 2.1875q-7.75 0 -13.59375 -3.390625q-5.84375 -3.390625 -9.03125 -9.828125q-3.171875 -6.4375 -3.25 -15.125l0 -4.0625q0 -8.953125 3.015625 -15.484375q3.015625 -6.546875 8.6875 -10.015625q5.6875 -3.46875 13.3125 -3.46875q10.625 0 16.609375 5.078125q5.984375 5.0625 7.09375 14.734375l-11.96875 0q-0.828125 -5.125 -3.640625 -7.5q-2.796875 -2.375 -7.71875 -2.375q-6.28125 0 -9.5625 4.71875q-3.28125 4.703125 -3.328125 14.015625l0 3.8125q0 9.40625 3.5625 14.203125q3.578125 4.796875 10.46875 4.796875q6.9375 0 9.890625 -2.953125l0 -10.296875l-11.203125 0l0 -9.0625l23.5 0l0 23.828125zm45.904297 -18.328125l-23.625 0l0 15.984375l27.71875 0l0 9.890625l-40.03125 0l0 -59.71875l39.953125 0l0 9.96875l-27.640625 0l0 14.234375l23.625 0l0 9.640625zm81.29297 -2.625q0 8.8125 -3.125 15.453125q-3.109375 6.640625 -8.921875 10.265625q-5.796875 3.609375 -13.296875 3.609375q-7.4375 0 -13.265625 -3.5625q-5.8125 -3.578125 -9.015625 -10.203125q-3.203125 -6.625 -3.234375 -15.234375l0 -2.953125q0 -8.828125 3.171875 -15.53125q3.1875 -6.703125 8.984375 -10.296875q5.8125 -3.59375 13.265625 -3.59375q7.46875 0 13.265625 3.59375q5.8125 3.59375 8.984375 10.296875q3.1875 6.703125 3.1875 15.484375l0 2.671875zm-12.46875 -2.71875q0 -9.390625 -3.375 -14.265625q-3.359375 -4.890625 -9.59375 -4.890625q-6.1875 0 -9.5625 4.828125q-3.359375 4.8125 -3.390625 14.125l0 2.921875q0 9.140625 3.359375 14.1875q3.359375 5.046875 9.6875 5.046875q6.1875 0 9.5 -4.859375q3.328125 -4.859375 3.375 -14.171875l0 -2.921875zm69.96484 31.21875l-12.296875 0l-23.953125 -39.296875l0 39.296875l-12.3125 0l0 -59.71875l12.3125 0l23.984375 39.375l0 -39.375l12.265625 0l0 59.71875zm46.683594 -25.875l-23.625 0l0 15.984375l27.71875 0l0 9.890625l-40.03125 0l0 -59.71875l39.953125 0l0 9.96875l-27.640625 0l0 14.234375l23.625 0l0 9.640625zm68.16797 0l-23.625 0l0 15.984375l27.71875 0l0 9.890625l-40.03125 0l0 -59.71875l39.953125 0l0 9.96875l-27.640625 0l0 14.234375l23.625 0l0 9.640625zm11.3125 25.875l0 -59.71875l18.375 0q7.875 0 14.09375 3.546875q6.21875 3.546875 9.703125 10.09375q3.484375 6.53125 3.484375 14.859375l0 2.75q0 8.328125 -3.421875 14.8125q-3.421875 6.484375 -9.65625 10.046875q-6.234375 3.5625 -14.078125 3.609375l-18.5 0zm12.3125 -49.75l0 39.859375l5.9375 0q7.21875 0 11.03125 -4.703125q3.828125 -4.71875 3.90625 -13.5l0 -3.15625q0 -9.109375 -3.78125 -13.796875q-3.765625 -4.703125 -11.03125 -4.703125l-6.0625 0zm87.48242 -9.96875l0 39.328125q0 9.8125 -6.140625 15.515625q-6.125 5.703125 -16.75 5.703125q-10.453125 0 -16.609375 -5.53125q-6.15625 -5.546875 -6.265625 -15.234375l0 -39.78125l12.296875 0l0 39.421875q0 5.859375 2.8125 8.546875q2.8125 2.6875 7.765625 2.6875q10.375 0 10.546875 -10.90625l0 -39.75l12.34375 0zm56.976562 39.828125q-0.703125 9.640625 -7.125 15.1875q-6.421875 5.53125 -16.921875 5.53125q-11.484375 0 -18.0625 -7.734375q-6.578125 -7.734375 -6.578125 -21.234375l0 -3.640625q0 -8.625 3.03125 -15.1875q3.03125 -6.5625 8.671875 -10.0625q5.640625 -3.515625 13.109375 -3.515625q10.328125 0 16.640625 5.546875q6.328125 5.53125 7.3125 15.546875l-12.3125 0q-0.4375 -5.78125 -3.21875 -8.390625q-2.765625 -2.609375 -8.421875 -2.609375q-6.15625 0 -9.21875 4.421875q-3.046875 4.40625 -3.125 13.671875l0 4.515625q0 9.671875 2.921875 14.140625q2.9375 4.46875 9.25 4.46875q5.703125 0 8.515625 -2.59375q2.8125 -2.609375 3.21875 -8.0625l12.3125 0zm41.789062 7.578125l-21.578125 0l-4.09375 12.3125l-13.09375 0l22.234375 -59.71875l11.40625 0l22.359375 59.71875l-13.09375 0l-4.140625 -12.3125zm-18.25 -9.953125l14.921875 0l-7.5 -22.359375l-7.421875 22.359375zm81.08203 -27.484375l-18.28125 0l0 49.75l-12.3125 0l0 -49.75l-18.046875 0l0 -9.96875l48.640625 0l0 9.96875zm20.107422 49.75l-12.3125 0l0 -59.71875l12.3125 0l0 59.71875zm60.45508 -28.5q0 8.8125 -3.125 15.453125q-3.109375 6.640625 -8.921875 10.265625q-5.796875 3.609375 -13.296875 3.609375q-7.4375 0 -13.265625 -3.5625q-5.8125 -3.578125 -9.015625 -10.203125q-3.203125 -6.625 -3.234375 -15.234375l0 -2.953125q0 -8.828125 3.171875 -15.53125q3.1875 -6.703125 8.984375 -10.296875q5.8125 -3.59375 13.265625 -3.59375q7.46875 0 13.265625 3.59375q5.8125 3.59375 8.984375 10.296875q3.1875 6.703125 3.1875 15.484375l0 2.671875zm-12.46875 -2.71875q0 -9.390625 -3.375 -14.265625q-3.359375 -4.890625 -9.59375 -4.890625q-6.1875 0 -9.5625 4.828125q-3.359375 4.8125 -3.390625 14.125l0 2.921875q0 9.140625 3.359375 14.1875q3.359375 5.046875 9.6875 5.046875q6.1875 0 9.5 -4.859375q3.328125 -4.859375 3.375 -14.171875l0 -2.921875zm69.96484 31.21875l-12.296875 0l-23.953125 -39.296875l0 39.296875l-12.3125 0l0 -59.71875l12.3125 0l23.984375 39.375l0 -39.375l12.265625 0l0 59.71875z" fill-rule="nonzero"/><path fill="#000000" fill-opacity="0.0" d="m0 258.9449l960.0 0l0 72.59842l-960.0 0z" fill-rule="evenodd"/><path fill="#f05f40" d="m58.257233 317.3241l-5.765625 0l0 -20.15625l-21.984375 0l0 20.15625l-5.75 0l0 -43.59375l5.75 0l0 18.734375l21.984375 0l0 -18.734375l5.765625 0l0 43.59375zm29.36087 0q-0.484375 -0.953125 -0.78125 -3.40625q-3.875 4.0 -9.234375 4.0q-4.78125 0 -7.859375 -2.703125q-3.0625 -2.71875 -3.0625 -6.875q0 -5.0625 3.84375 -7.859375q3.84375 -2.796875 10.828125 -2.796875l5.390625 0l0 -2.546875q0 -2.90625 -1.734375 -4.625q-1.734375 -1.71875 -5.125 -1.71875q-2.96875 0 -4.96875 1.5q-2.0 1.484375 -2.0 3.609375l-5.578125 0q0 -2.421875 1.71875 -4.671875q1.71875 -2.265625 4.671875 -3.578125q2.953125 -1.328125 6.484375 -1.328125q5.609375 0 8.78125 2.796875q3.171875 2.796875 3.296875 7.71875l0 14.90625q0 4.46875 1.125 7.09375l0 0.484375l-5.796875 0zm-9.203125 -4.21875q2.609375 0 4.9375 -1.34375q2.34375 -1.359375 3.390625 -3.515625l0 -6.640625l-4.34375 0q-10.1875 0 -10.1875 5.953125q0 2.609375 1.734375 4.078125q1.75 1.46875 4.46875 1.46875zm27.796646 -28.1875l0.171875 4.078125q3.71875 -4.671875 9.703125 -4.671875q10.28125 0 10.359375 11.59375l0 21.40625l-5.53125 0l0 -21.4375q-0.03125 -3.5 -1.609375 -5.171875q-1.5625 -1.6875 -4.890625 -1.6875q-2.703125 0 -4.734375 1.4375q-2.03125 1.4375 -3.171875 3.765625l0 23.09375l-5.546875 0l0 -32.40625l5.25 0zm27.244522 15.9375q0 -7.453125 3.53125 -11.984375q3.53125 -4.546875 9.25 -4.546875q5.703125 0 9.015625 3.890625l0 -16.890625l5.546875 0l0 46.0l-5.09375 0l-0.265625 -3.46875q-3.328125 4.0625 -9.25 4.0625q-5.640625 0 -9.1875 -4.609375q-3.546875 -4.609375 -3.546875 -12.03125l0 -0.421875zm5.546875 0.625q0 5.515625 2.265625 8.625q2.28125 3.109375 6.296875 3.109375q5.265625 0 7.6875 -4.71875l0 -14.890625q-2.484375 -4.578125 -7.625 -4.578125q-4.078125 0 -6.359375 3.140625q-2.265625 3.140625 -2.265625 9.3125zm49.25879 7.25q0 -2.25 -1.703125 -3.484375q-1.6875 -1.25 -5.890625 -2.140625q-4.203125 -0.90625 -6.6875 -2.15625q-2.46875 -1.265625 -3.65625 -3.0q-1.171875 -1.734375 -1.171875 -4.125q0 -3.984375 3.359375 -6.734375q3.375 -2.765625 8.625 -2.765625q5.5 0 8.921875 2.84375q3.4375 2.84375 3.4375 7.28125l-5.5625 0q0 -2.28125 -1.9375 -3.921875q-1.9375 -1.65625 -4.859375 -1.65625q-3.03125 0 -4.734375 1.328125q-1.703125 1.3125 -1.703125 3.4375q0 2.0 1.578125 3.03125q1.59375 1.015625 5.734375 1.953125q4.15625 0.921875 6.71875 2.203125q2.578125 1.28125 3.8125 3.09375q1.25 1.8125 1.25 4.421875q0 4.34375 -3.46875 6.96875q-3.46875 2.609375 -9.015625 2.609375q-3.890625 0 -6.890625 -1.375q-2.984375 -1.375 -4.6875 -3.84375q-1.6875 -2.46875 -1.6875 -5.34375l5.546875 0q0.140625 2.78125 2.21875 4.421875q2.09375 1.625 5.5 1.625q3.140625 0 5.046875 -1.265625q1.90625 -1.28125 1.90625 -3.40625zm24.278564 -7.671875l-14.609375 0l0 -4.515625l14.609375 0l0 4.515625zm3.9191437 -0.234375q0 -4.765625 1.875 -8.5625q1.875 -3.8125 5.203125 -5.875q3.34375 -2.0625 7.625 -2.0625q6.625 0 10.703125 4.578125q4.09375 4.578125 4.09375 12.1875l0 0.390625q0 4.734375 -1.8125 8.5q-1.8125 3.75 -5.1875 5.84375q-3.359375 2.09375 -7.734375 2.09375q-6.578125 0 -10.671875 -4.578125q-4.09375 -4.578125 -4.09375 -12.125l0 -0.390625zm5.578125 0.65625q0 5.390625 2.5 8.65625q2.5 3.265625 6.6875 3.265625q4.21875 0 6.703125 -3.3125q2.5 -3.3125 2.5 -9.265625q0 -5.328125 -2.53125 -8.640625q-2.53125 -3.3125 -6.734375 -3.3125q-4.09375 0 -6.609375 3.265625q-2.515625 3.265625 -2.515625 9.34375zm36.116837 -16.5625l0.171875 4.078125q3.71875 -4.671875 9.703125 -4.671875q10.28125 0 10.359375 11.59375l0 21.40625l-5.53125 0l0 -21.4375q-0.03125 -3.5 -1.609375 -5.171875q-1.5625 -1.6875 -4.890625 -1.6875q-2.703125 0 -4.734375 1.4375q-2.03125 1.4375 -3.171875 3.765625l0 23.09375l-5.5468903 0l0 -32.40625l5.2500153 0zm69.286194 12.25l-18.890625 0l0 15.453125l21.953125 0l0 4.703125l-27.703125 0l0 -43.59375l27.390625 0l0 4.71875l-21.640625 0l0 14.015625l18.890625 0l0 4.703125zm14.59079 -12.25l0.171875 4.078125q3.71875 -4.671875 9.703125 -4.671875q10.28125 0 10.359375 11.59375l0 21.40625l-5.53125 0l0 -21.4375q-0.03125 -3.5 -1.609375 -5.171875q-1.5625 -1.6875 -4.890625 -1.6875q-2.703125 0 -4.734375 1.4375q-2.03125 1.4375 -3.171875 3.765625l0 23.09375l-5.546875 0l0 -32.40625l5.25 0zm27.275757 15.9375q0 -7.578125 3.5 -12.046875q3.5 -4.484375 9.28125 -4.484375q5.9375 0 9.265625 4.1875l0.265625 -3.59375l5.0625 0l0 31.625q0 6.296875 -3.734375 9.90625q-3.734375 3.625 -10.015625 3.625q-3.5 0 -6.859375 -1.5q-3.359375 -1.484375 -5.125 -4.09375l2.875 -3.328125q3.5625 4.40625 8.71875 4.40625q4.046875 0 6.296875 -2.28125q2.265625 -2.265625 2.265625 -6.40625l0 -2.78125q-3.328125 3.828125 -9.078125 3.828125q-5.6875 0 -9.203125 -4.578125q-3.515625 -4.578125 -3.515625 -12.484375zm5.5625 0.625q0 5.484375 2.25 8.609375q2.25 3.125 6.296875 3.125q5.234375 0 7.6875 -4.75l0 -14.796875q-2.546875 -4.640625 -7.640625 -4.640625q-4.03125 0 -6.3125 3.140625q-2.28125 3.140625 -2.28125 9.3125zm36.188477 15.84375l-5.546875 0l0 -32.40625l5.546875 0l0 32.40625zm-6.0 -41.0q0 -1.34375 0.828125 -2.265625q0.828125 -0.9375 2.4375 -0.9375q1.625 0 2.453125 0.9375q0.84375 0.921875 0.84375 2.28125q0 1.34375 -0.84375 2.25q-0.828125 0.890625 -2.453125 0.890625q-1.609375 0 -2.4375 -0.890625q-0.828125 -0.90625 -0.828125 -2.265625zm20.101624 8.59375l0.171875 4.078125q3.71875 -4.671875 9.703125 -4.671875q10.28125 0 10.359375 11.59375l0 21.40625l-5.53125 0l0 -21.4375q-0.03125 -3.5 -1.609375 -5.171875q-1.5625 -1.6875 -4.890625 -1.6875q-2.703125 0 -4.734375 1.4375q-2.03125 1.4375 -3.171875 3.765625l0 23.09375l-5.546875 0l0 -32.40625l5.25 0zm42.04138 33.0q-6.59375 0 -10.734375 -4.328125q-4.125 -4.328125 -4.125 -11.5625l0 -1.015625q0 -4.828125 1.84375 -8.609375q1.84375 -3.796875 5.15625 -5.9375q3.3125 -2.140625 7.171875 -2.140625q6.3125 0 9.8125 4.171875q3.515625 4.15625 3.515625 11.90625l0 2.3125l-21.953125 0q0.109375 4.78125 2.796875 7.734375q2.6875 2.953125 6.8125 2.953125q2.9375 0 4.96875 -1.1875q2.03125 -1.203125 3.5625 -3.1875l3.390625 2.640625q-4.078125 6.25 -12.21875 6.25zm-0.6875 -29.046875q-3.359375 0 -5.640625 2.453125q-2.265625 2.4375 -2.8125 6.828125l16.234375 0l0 -0.40625q-0.234375 -4.234375 -2.28125 -6.546875q-2.03125 -2.328125 -5.5 -2.328125zm33.178223 29.046875q-6.59375 0 -10.734375 -4.328125q-4.125 -4.328125 -4.125 -11.5625l0 -1.015625q0 -4.828125 1.84375 -8.609375q1.84375 -3.796875 5.15625 -5.9375q3.3125 -2.140625 7.171875 -2.140625q6.3125 0 9.8125 4.171875q3.5155945 4.15625 3.5155945 11.90625l0 2.3125l-21.953094 0q0.109375 4.78125 2.796875 7.734375q2.6875 2.953125 6.8125 2.953125q2.9375 0 4.96875 -1.1875q2.03125 -1.203125 3.5625 -3.1875l3.390625 2.640625q-4.078125 6.25 -12.21875 6.25zm-0.6875 -29.046875q-3.359375 0 -5.640625 2.453125q-2.265625 2.4375 -2.8125 6.828125l16.234375 0l0 -0.40625q-0.234375 -4.234375 -2.28125 -6.546875q-2.03125 -2.328125 -5.5 -2.328125zm35.396942 1.015625q-1.265625 -0.203125 -2.734375 -0.203125q-5.453125 0 -7.390625 4.640625l0 23.0l-5.546875 0l0 -32.40625l5.390625 0l0.09375 3.75q2.71875 -4.34375 7.71875 -4.34375q1.625 0 2.46875 0.421875l0 5.140625zm11.111572 27.4375l-5.546875 0l0 -32.40625l5.546875 0l0 32.40625zm-6.0 -41.0q0 -1.34375 0.828125 -2.265625q0.828125 -0.9375 2.4375 -0.9375q1.625 0 2.453125 0.9375q0.84375 0.921875 0.84375 2.28125q0 1.34375 -0.84375 2.25q-0.828125 0.890625 -2.453125 0.890625q-1.609375 0 -2.4375 -0.890625q-0.828125 -0.90625 -0.828125 -2.265625zm20.101562 8.59375l0.171875 4.078125q3.71875 -4.671875 9.703125 -4.671875q10.28125 0 10.359375 11.59375l0 21.40625l-5.53125 0l0 -21.4375q-0.03125 -3.5 -1.609375 -5.171875q-1.5625 -1.6875 -4.890625 -1.6875q-2.703125 0 -4.734375 1.4375q-2.03125 1.4375 -3.171875 3.765625l0 23.09375l-5.546875 0l0 -32.40625l5.25 0zm27.275757 15.9375q0 -7.578125 3.5 -12.046875q3.5 -4.484375 9.28125 -4.484375q5.9375 0 9.265625 4.1875l0.265625 -3.59375l5.0625 0l0 31.625q0 6.296875 -3.734375 9.90625q-3.734375 3.625 -10.015625 3.625q-3.5 0 -6.859375 -1.5q-3.359375 -1.484375 -5.125 -4.09375l2.875 -3.328125q3.5625 4.40625 8.71875 4.40625q4.046875 0 6.296875 -2.28125q2.265625 -2.265625 2.265625 -6.40625l0 -2.78125q-3.328125 3.828125 -9.078125 3.828125q-5.6875 0 -9.203125 -4.578125q-3.515625 -4.578125 -3.515625 -12.484375zm5.5625 0.625q0 5.484375 2.25 8.609375q2.25 3.125 6.296875 3.125q5.234375 0 7.6875 -4.75l0 -14.796875q-2.546875 -4.640625 -7.640625 -4.640625q-4.03125 0 -6.3125 3.140625q-2.28125 3.140625 -2.28125 9.3125zm55.62085 2.09375l0.828125 5.75l1.234375 -5.171875l8.625 -30.421875l4.84375 0l8.421875 30.421875l1.203125 5.265625l0.921875 -5.875l6.765625 -29.8125l5.78125 0l-10.578125 43.59375l-5.234375 0l-8.984375 -31.765625l-0.6875 -3.328125l-0.6875 3.328125l-9.3125 31.765625l-5.234375 0l-10.546875 -43.59375l5.75 0l6.890625 29.84375zm41.7323 -2.75q0 -4.765625 1.875 -8.5625q1.875 -3.8125 5.203125 -5.875q3.34375 -2.0625 7.625 -2.0625q6.625 0 10.703125 4.578125q4.09375 4.578125 4.09375 12.1875l0 0.390625q0 4.734375 -1.8125 8.5q-1.8125 3.75 -5.1875 5.84375q-3.359375 2.09375 -7.734375 2.09375q-6.578125 0 -10.671875 -4.578125q-4.09375 -4.578125 -4.09375 -12.125l0 -0.390625zm5.578125 0.65625q0 5.390625 2.5 8.65625q2.5 3.265625 6.6875 3.265625q4.21875 0 6.703125 -3.3125q2.5 -3.3125 2.5 -9.265625q0 -5.328125 -2.53125 -8.640625q-2.53125 -3.3125 -6.734375 -3.3125q-4.09375 0 -6.609375 3.265625q-2.515625 3.265625 -2.515625 9.34375zm46.538696 -11.59375q-1.265625 -0.203125 -2.734375 -0.203125q-5.453125 0 -7.390625 4.640625l0 23.0l-5.546875 0l0 -32.40625l5.390625 0l0.09375 3.75q2.71875 -4.34375 7.71875 -4.34375q1.625 0 2.46875 0.421875l0 5.140625zm14.127197 12.4375l-3.46875 3.625l0 11.375l-5.546875 0l0 -46.0l5.546875 0l0 27.828125l2.96875 -3.5625l10.078125 -10.671875l6.75 0l-12.609375 13.546875l14.0625 18.859375l-6.484375 0l-11.296875 -15.0zm40.911377 6.40625q0 -2.25 -1.703125 -3.484375q-1.6875 -1.25 -5.890625 -2.140625q-4.203125 -0.90625 -6.6875 -2.15625q-2.46875 -1.265625 -3.65625 -3.0q-1.171875 -1.734375 -1.171875 -4.125q0 -3.984375 3.359375 -6.734375q3.375 -2.765625 8.625 -2.765625q5.5 0 8.921875 2.84375q3.4375 2.84375 3.4375 7.28125l-5.5625 0q0 -2.28125 -1.9375 -3.921875q-1.9375 -1.65625 -4.859375 -1.65625q-3.03125 0 -4.734375 1.328125q-1.703125 1.3125 -1.703125 3.4375q0 2.0 1.578125 3.03125q1.59375 1.015625 5.734375 1.953125q4.15625 0.921875 6.71875 2.203125q2.578125 1.28125 3.8125 3.09375q1.25 1.8125 1.25 4.421875q0 4.34375 -3.46875 6.96875q-3.46875 2.609375 -9.015625 2.609375q-3.890625 0 -6.890625 -1.375q-2.984375 -1.375 -4.6875 -3.84375q-1.6875 -2.46875 -1.6875 -5.34375l5.546875 0q0.140625 2.78125 2.21875 4.421875q2.09375 1.625 5.5 1.625q3.140625 0 5.046875 -1.265625q1.90625 -1.28125 1.90625 -3.40625zm18.29419 -19.890625q3.6875 -4.515625 9.578125 -4.515625q10.28125 0 10.359375 11.59375l0 21.40625l-5.53125 0l0 -21.4375q-0.03125 -3.5 -1.609375 -5.171875q-1.5625 -1.6875 -4.890625 -1.6875q-2.703125 0 -4.734375 1.4375q-2.03125 1.4375 -3.171875 3.765625l0 23.09375l-5.546875 0l0 -46.0l5.546875 0l0 17.515625zm26.762817 11.984375q0 -4.765625 1.875 -8.5625q1.875 -3.8125 5.203125 -5.875q3.34375 -2.0625 7.625 -2.0625q6.625 0 10.703125 4.578125q4.09375 4.578125 4.09375 12.1875l0 0.390625q0 4.734375 -1.8125 8.5q-1.8125 3.75 -5.1875 5.84375q-3.359375 2.09375 -7.734375 2.09375q-6.578125 0 -10.671875 -4.578125q-4.09375 -4.578125 -4.09375 -12.125l0 -0.390625zm5.578125 0.65625q0 5.390625 2.5 8.65625q2.5 3.265625 6.6875 3.265625q4.21875 0 6.703125 -3.3125q2.5 -3.3125 2.5 -9.265625q0 -5.328125 -2.53125 -8.640625q-2.53125 -3.3125 -6.734375 -3.3125q-4.09375 0 -6.609375 3.265625q-2.515625 3.265625 -2.515625 9.34375zm58.24182 0q0 7.40625 -3.390625 11.921875q-3.375 4.515625 -9.15625 4.515625q-5.90625 0 -9.28125 -3.734375l0 15.59375l-5.546875 0l0 -44.859375l5.0625 0l0.265625 3.59375q3.390625 -4.1875 9.40625 -4.1875q5.84375 0 9.234375 4.40625q3.40625 4.390625 3.40625 12.25l0 0.5zm-5.546875 -0.625q0 -5.484375 -2.34375 -8.65625q-2.328125 -3.171875 -6.390625 -3.171875q-5.03125 0 -7.546875 4.453125l0 15.484375q2.484375 4.4375 7.609375 4.4375q3.984375 0 6.328125 -3.15625q2.34375 -3.15625 2.34375 -9.390625zm31.454102 7.875q0 -2.25 -1.703125 -3.484375q-1.6875 -1.25 -5.890625 -2.140625q-4.203125 -0.90625 -6.6875 -2.15625q-2.46875 -1.265625 -3.65625 -3.0q-1.171875 -1.734375 -1.171875 -4.125q0 -3.984375 3.359375 -6.734375q3.375 -2.765625 8.625 -2.765625q5.5 0 8.921875 2.84375q3.4375 2.84375 3.4375 7.28125l-5.5625 0q0 -2.28125 -1.9375 -3.921875q-1.9375 -1.65625 -4.859375 -1.65625q-3.03125 0 -4.734375 1.328125q-1.703125 1.3125 -1.703125 3.4375q0 2.0 1.578125 3.03125q1.59375 1.015625 5.734375 1.953125q4.15625 0.921875 6.71875 2.203125q2.578125 1.28125 3.8125 3.09375q1.25 1.8125 1.25 4.421875q0 4.34375 -3.46875 6.96875q-3.46875 2.609375 -9.015625 2.609375q-3.890625 0 -6.890625 -1.375q-2.984375 -1.375 -4.6875 -3.84375q-1.6875 -2.46875 -1.6875 -5.34375l5.546875 0q0.140625 2.78125 2.21875 4.421875q2.09375 1.625 5.5 1.625q3.140625 0 5.046875 -1.265625q1.90625 -1.28125 1.90625 -3.40625z" fill-rule="nonzero"/><path fill="#f05f40" d="m23.879265 248.87665l0 0c0 -0.28411865 0.2303257 -0.5144501 0.51444626 -0.5144501l912.1364 0c0.13647461 0 0.26733398 0.054214478 0.36376953 0.15068054c0.09649658 0.09648132 0.1506958 0.22732544 0.1506958 0.36376953l0 2.057724c0 0.28411865 -0.23034668 0.5144501 -0.51446533 0.5144501l-912.1364 0c-0.28412056 0 -0.51444626 -0.23033142 -0.51444626 -0.5144501z" fill-rule="evenodd"/><path stroke="#f05f40" stroke-width="1.0" stroke-linejoin="round" stroke-linecap="butt" d="m23.879265 248.87665l0 0c0 -0.28411865 0.2303257 -0.5144501 0.51444626 -0.5144501l912.1364 0c0.13647461 0 0.26733398 0.054214478 0.36376953 0.15068054c0.09649658 0.09648132 0.1506958 0.22732544 0.1506958 0.36376953l0 2.057724c0 0.28411865 -0.23034668 0.5144501 -0.51446533 0.5144501l-912.1364 0c-0.28412056 0 -0.51444626 -0.23033142 -0.51444626 -0.5144501z" fill-rule="evenodd"/></g></svg>